<svg xmlns="http://www.w3.org/2000/svg" viewBox="0 0 2048 2048" style="enable-background:new 0 0 2048 2048" xml:space="preserve"><style>.st0{display:none}.st1{display:inline}.st2{fill:#e6ff00}.st3{fill:#fff}.st6{fill:#00ffc1}.st8{fill:#e6d200}</style><g id="Ebene_10"><circle class="st2" cx="1024" cy="1024" r="868.12"/><path d="M1024 155.88c479.45 0 868.12 388.67 868.12 868.12s-388.67 868.12-868.12 868.12S155.88 1503.45 155.88 1024 544.55 155.88 1024 155.88M1024 0C459.36 0 0 459.36 0 1024s459.36 1024 1024 1024 1024-459.36 1024-1024S1588.64 0 1024 0z"/><path d="M1627.52 984.82h-573.3l376.13-376.13 110.23 110.23-110.03 110.02h196.97zM993.78 984.82h-573.3V828.94h196.97L507.43 718.92l110.22-110.23zM734.87 1660.49l-72.79-315.42-134.31 124.71-63.64-68.53 252.74-234.69 51.63 223.7 115.07-224.08 127 254.01 176.59-209.29 200.31 237.87 58.81-205.8 89.92 25.69-107.08 374.78-242.03-287.42-196.65 233.06-107.99-215.98z"/></g></svg>