<svg width="62" height="58" xmlns="http://www.w3.org/2000/svg"><g fill-rule="nonzero" fill="none"><path d="M61.3 34.5C61.3 47.5 49.4 58 31 58S.7 47.5.7 34.5 12.6 2 31 2s30.3 19.5 30.3 32.5Z" fill="#F7910B"/><path d="M61.3 34.5C61.3 47.5 49.4 54 31 54S.7 47.5.7 34.5 12.6 0 31 0s30.3 21.5 30.3 34.5Z" fill="#F7910B"/><path d="M31 0c18.4 0 30.3 21.5 30.3 34.5S49.4 54 31 54" fill="#F9A908"/><path d="M61.3 34.5C61.3 47.5 49.4 54 31 54S.7 47.5.7 34.5 12.6 2 31 2s30.3 19.5 30.3 32.5Z" fill="#F9A908"/><path d="M.7 34.5C.7 21.5 12.6 2 31 2" fill="#F9C55D"/><path d="M31 2c18.4 0 30.3 19.5 30.3 32.5S49.4 58 31 58" fill="#F7910B"/><path d="M31 2c18.4 0 30.3 19.5 30.3 32.5" fill="#EA7103"/><path d="M24.9 11.9c.3.8-1.2.9-2.9 1.6-1.7.6-2.9 1.6-3.2.8-.3-.8.8-2 2.5-2.6 1.6-.7 3.2-.6 3.6.2Z" fill="#19BCA4"/><path d="M24.9 11.9c.3.8-1.2.9-2.9 1.6-1.7.6-2.9 1.6-3.2.8" fill="#109DA0"/><path d="M37.1 11.9c-.3.8 1.2.9 2.9 1.6 1.7.6 2.9 1.6 3.2.8.3-.8-.8-2-2.5-2.6-1.6-.7-3.2-.6-3.6.2Z" fill="#19BCA4"/><path d="M37.1 11.9c-.3.8 1.2.9 2.9 1.6 1.7.6 2.9 1.6 3.2.8" fill="#109DA0"/><path d="M26.8 27.8c0 1.2-3.5.7-7.8.7s-7.8.6-7.8-.7c0-1.2 3.5-2.2 7.8-2.2s7.8 1 7.8 2.2Z" fill="#F9C55D"/><path d="M50.8 27.8c0 1.2-3.5.7-7.8.7s-7.8.6-7.8-.7c0-1.2 3.5-2.2 7.8-2.2s7.8 1 7.8 2.2Z" fill="#F9A908"/><circle fill="#F7910B" cx="9.3" cy="31.5" r="1"/><circle fill="#F7910B" cx="4.8" cy="33.5" r="1.1"/><circle fill="#F7910B" cx="7.8" cy="29.5" r="1"/><circle fill="#F7910B" cx="12.4" cy="31.3" r="1"/><circle fill="#F9A908" cx="51.6" cy="31.8" r="1"/><circle fill="#F9A908" cx="54.1" cy="33.2" r="1"/><circle fill="#F9A908" cx="48.8" cy="24.4" r="1"/><circle fill="#F9A908" cx="48.3" cy="36" r="1.3"/><circle fill="#F9A908" cx="55.5" cy="36.1" r="1"/><circle fill="#F7910B" cx="8.3" cy="35.5" r="1"/><circle fill="#F7910B" cx="9.1" cy="27.1" r="1"/><circle fill="#F9A908" cx="3.8" cy="13.3" r="1.1"/><circle fill="#F9A908" cx="7" cy="9.8" r="1"/><circle fill="#F9A908" cx="58.2" cy="15.7" r="1"/><circle fill="#F9A908" cx="57.4" cy="12.8" r="1"/><circle fill="#F9A908" cx="60" cy="13.3" r="1"/><circle fill="#F9A908" cx="5" cy="16.3" r="1"/><path d="M38.2 42.1c0 2.6-3.3 9.9-7.4 9.9-4.1 0-7.4-7.3-7.4-9.9" fill="#F7910B"/><path d="M45.8 27.3c0 9.1-6.6 16.5-14.8 16.5-8.2 0-14.8-7.4-14.8-16.5" fill="#C42260"/><path d="M45.8 27.3c0 3.1-6.6 5.6-14.8 5.6-8.2 0-14.8-2.5-14.8-5.6" fill="#99144A"/><path d="M31 43.9c4.6 0 8.6-2.3 11.3-5.9-1.7-2.1-4.1-3.4-6.8-3.4-1.6 0-3.2.5-4.5 1.3-1.3-.9-2.9-1.3-4.5-1.3-2.7 0-5.1 1.3-6.8 3.4 2.7 3.5 6.7 5.9 11.3 5.9Z" fill="#E2446E"/><path d="M38.4 10.7c1.8.5 3 1.9 3.2 3.5 0 .2.2.3.3.3.2.1.4.1.4-.1 1-1.3 2.8-1.9 4.5-1.4 2.2.6 3.6 2.7 3.1 4.7-.2.7-.6 1.3-1.2 1.8l-10 6.8-5.1-11c-.3-.7-.3-1.5-.1-2.2.4-2 2.6-3 4.9-2.4Z" fill="#D81665"/><path d="M41.9 14.5c.2.1.4.1.4-.1 1-1.3 2.8-1.9 4.5-1.4 2.2.6 3.6 2.7 3.1 4.7-.2.7-.6 1.3-1.2 1.8l-10 6.8" fill="#B20B5F"/><path d="M28.6 13.1c.2.7.2 1.5-.1 2.2l-5.1 11-10-6.8c-.6-.5-1-1.1-1.2-1.8-.5-2 .8-4.1 3.1-4.7 1.8-.5 3.6.1 4.5 1.4.1.1.3.2.4.1.2 0 .3-.1.3-.3.1-1.6 1.4-3 3.2-3.5 2.2-.6 4.4.4 4.9 2.4Z" fill="#D81665"/><path d="m23.4 26.4-10-6.8c-.6-.5-1-1.1-1.2-1.8-.5-2 .8-4.1 3.1-4.7 1.8-.5 3.6.1 4.5 1.4.1.1.3.2.4.1" fill="#B20B5F"/></g></svg>