<svg version="1.1" id="Ebene_1" xmlns="http://www.w3.org/2000/svg" xmlns:xlink="http://www.w3.org/1999/xlink" x="0" y="0" viewBox="0 0 2048 1530" style="enable-background:new 0 0 2048 1530" xml:space="preserve"><style>.st0{fill:#00ffc1}</style><path class="st0" d="M1883.83 789.02c60 54.9 64.14 148.05 9.23 208.06s-148.05 64.14-208.06 9.23c-60-54.9-173.41-358.28-173.41-358.28s312.24 86.08 372.24 140.99z"/><path d="M1511.59 648.03s312.23 86.09 372.24 140.99c60 54.9 64.14 148.05 9.23 208.06-29.05 31.75-68.8 47.85-108.69 47.85-35.5 0-71.11-12.76-99.37-38.62-60-54.9-173.41-358.28-173.41-358.28m-188.93-172.88 79.87 213.65c1.2 3.21 29.82 79.61 66.44 164.09 71.9 165.86 109.82 214.06 137.44 239.32 48.74 44.59 111.94 69.15 177.97 69.15 73.84 0 144.76-31.23 194.59-85.69 98.16-107.28 90.74-274.41-16.54-372.57-27.61-25.27-78.98-58.77-250.56-115.69-87.39-28.99-166.03-50.73-169.33-51.64l-219.88-60.62z"/><path class="st0" d="M164.17 789.02c-60 54.9-64.14 148.05-9.23 208.06s148.05 64.14 208.06 9.23c60-54.9 173.41-358.28 173.41-358.28s-312.24 86.08-372.24 140.99z"/><path d="M536.41 648.03S423 951.41 363 1006.31c-28.26 25.86-63.87 38.62-99.37 38.62-39.89 0-79.64-16.11-108.69-47.85-54.9-60-50.77-153.15 9.23-208.06s372.24-140.99 372.24-140.99m188.93-172.88-219.88 60.62c-3.3.91-81.94 22.65-169.33 51.64-171.58 56.92-222.94 90.43-250.56 115.69-107.28 98.17-114.7 265.3-16.54 372.58 49.83 54.46 120.75 85.69 194.59 85.69 66.03 0 129.24-24.56 177.97-69.15 27.61-25.27 65.54-73.46 137.44-239.32 36.62-84.48 65.24-160.88 66.44-164.09l79.87-213.66z"/><circle cx="1040.51" cy="764.89" r="648.45" style="fill:#e6ff00"/><path d="M1040.51 116.44c358.13 0 648.45 290.32 648.45 648.45s-290.32 648.45-648.45 648.45c-358.13 0-648.45-290.32-648.45-648.45s290.32-648.45 648.45-648.45m0-116.44C618.75 0 275.62 343.13 275.62 764.89s343.13 764.89 764.89 764.89 764.89-343.13 764.89-764.89S1462.28 0 1040.51 0z"/><path d="M1455.53 853.28c0 205.76-185.81 372.57-415.01 372.57S625.5 1059.05 625.5 853.28h830.03z"/><defs><path id="SVGID_1_" d="M1455.53 853.28c0 205.76-185.81 372.57-415.01 372.57S625.5 1059.05 625.5 853.28h830.03z"/></defs><clipPath id="SVGID_2_"><use xlink:href="#SVGID_1_" style="overflow:visible"/></clipPath><ellipse cx="1040.51" cy="1198.95" rx="286.55" ry="128.95" style="clip-path:url(#SVGID_2_);fill:red"/><path class="st0" d="M1883.83 789.02c60 54.9 64.14 148.05 9.23 208.06s-148.05 64.14-208.06 9.23c-60-54.9-173.41-358.28-173.41-358.28s312.24 86.08 372.24 140.99zM164.17 789.02c-60 54.9-64.14 148.05-9.23 208.06s148.05 64.14 208.06 9.23c60-54.9 173.41-358.28 173.41-358.28s-312.24 86.08-372.24 140.99z"/><path transform="rotate(-50.612 1320.706 425.949)" d="M1262.53 320.21h116.44v211.53h-116.44z"/><path transform="rotate(-39.388 783.128 425.953)" d="M677.39 367.75h211.53v116.44H677.39z"/><path d="M1403.69 689.11h-69.86c0-24.94-24.39-45.24-54.38-45.24-29.98 0-54.38 20.29-54.38 45.24h-69.86c0-63.47 55.73-115.1 124.24-115.1s124.24 51.64 124.24 115.1zM946.78 689.11h-69.86c0-24.94-24.39-45.24-54.38-45.24s-54.38 20.29-54.38 45.24H698.3c0-63.47 55.73-115.1 124.24-115.1s124.24 51.64 124.24 115.1z"/></svg>