<svg version="1.1" id="Ebene_1" xmlns="http://www.w3.org/2000/svg" x="0" y="0" viewBox="0 0 2048 1957" style="enable-background:new 0 0 2048 1957" xml:space="preserve"><style>.st0{fill:red}.st1{fill:#f2f91c}.st2{fill:#fff}</style><path class="st0" d="m1417.25 314.71 417.01-109.67-114.49 375.01z"/><path d="m1834.26 205.04-114.48 375.01-302.52-265.34 417-109.67M2048-.5l-250.48 65.87-417.01 109.67-262.74 69.1 204.24 179.14 302.52 265.34 168.07 147.42 65.28-213.82 114.48-375.01L2048-.5z"/><path class="st0" d="m630.75 314.71-417-109.67 114.48 375.01z"/><path d="m213.74 205.04 417.01 109.67-302.52 265.34-114.49-375.01M0-.5l75.62 247.71L190.1 622.22l65.28 213.82 168.07-147.42 302.52-265.34 204.24-179.14-262.74-69.1L250.48 65.37 0-.5z"/><circle class="st0" cx="1042.27" cy="1007.54" r="804.26"/><path d="M1042.27 203.29c444.18 0 804.26 360.08 804.26 804.26s-360.08 804.26-804.26 804.26-804.26-360.08-804.26-804.26 360.09-804.26 804.26-804.26m0-144.42c-523.1 0-948.67 425.57-948.67 948.67s425.57 948.67 948.67 948.67 948.67-425.57 948.67-948.67-425.57-948.67-948.67-948.67z"/><path d="M1436.5 1433.35H648.05c-85 0-153.91-68.91-153.91-153.91s68.91-153.91 153.91-153.91h788.44c85 0 153.91 68.91 153.91 153.91s-68.9 153.91-153.9 153.91z"/><path d="M1436.49 1476.67H648.05c-108.75 0-197.23-88.48-197.23-197.23s88.48-197.23 197.23-197.23h788.44c108.75 0 197.24 88.48 197.24 197.23s-88.48 197.23-197.24 197.23zm-788.44-307.82c-60.98 0-110.58 49.61-110.58 110.58s49.61 110.58 110.58 110.58h788.44c60.98 0 110.59-49.61 110.59-110.58s-49.61-110.58-110.59-110.58H648.05zM1049.56 725.2 766.18 529.66l82.01-118.86 199.17 137.43 187.53-136.39 84.95 116.79z"/><circle class="st1" cx="1336.18" cy="801.18" r="157.93"/><circle class="st2" cx="1336.18" cy="801.18" r="102.35"/><circle cx="1336.18" cy="801.18" r="42.89"/><circle class="st1" cx="748.37" cy="801.18" r="157.93"/><circle class="st2" cx="748.37" cy="801.18" r="102.35"/><circle cx="748.37" cy="801.18" r="42.89"/><path d="M911.22 1550.62h262.11l-125.29 202.78z"/><path class="st2" d="M640.14 1081.05h262.12l-125.29 202.77zM1199.36 1081.05h262.12l-125.29 202.77z"/></svg>