<svg version="1.1" id="Ebene_1" xmlns="http://www.w3.org/2000/svg" x="0" y="0" viewBox="0 0 2331 2048" style="enable-background:new 0 0 2331 2048" xml:space="preserve"><style>.st0{stroke:#fff;stroke-width:8.5421;stroke-miterlimit:10}.st0,.st1{fill:#fff}</style><path class="st0" d="M878.97 802.44c-63.55 87.27-60.65 177.97-33.9 279.31 24.57 93.06 69.47 182.42 139.23 249.81 67.9 65.59 158.57 108.34 253.68 109.89 93.94 1.52 189.51-30.94 275.84-65.2 82.59-32.78 164.43-80.88 206.27-162.64 18.35-35.86 28.23-76.61 23.73-116.93-2.38-21.3-9.67-41.54-12.57-62.81-3.23-23.7-3.46-47.98-8.71-71.39-10.29-45.94-37.97-98.92-59.37-141.05-23.31-45.9-58.03-84-96.48-117.82-31.98-28.14-68.81-61.88-107.94-79.29-41.13-18.31-90.02-7.97-133.41-16.97-54.16-11.25-103.66-12.02-158.26-1.4-33.2 6.46-72.77 11.71-102.2 28.26-69.1 38.84-138.21 106.38-185.91 168.23-4.36 5.66 15.56 3.09 18.82-1.13 43.91-56.94 99.72-104.22 157.11-147.08 62.57-46.73 164.09-57.41 238.73-42.28 34.86 7.07 67.29 8.4 102.78 11.22 47.59 3.79 82.31 32.33 118.56 60.86 32.53 25.61 63.8 53.58 90.11 85.66 31.46 38.35 47.8 81.41 66.99 126.35 15.88 37.21 30.39 66.67 34.84 107.38 3.85 35.15 14.3 70.09 16.94 105.01 7.03 93.03-57.21 174.07-132.27 220.6-87.64 54.32-208.69 95.7-311.54 102.43-94.48 6.18-185.04-28.42-256.63-89.35-73.16-62.27-121.92-148.19-150.04-239.23-32.42-104.94-43.1-208.83 24.43-301.57 4.25-5.86-15.71-3.17-18.83 1.13z"/><path class="st0" d="M950.66 724.46c-72.82 32.61-109.21 104.28-118.85 180.78-5.69 45.18-4.04 92.51-.88 137.87 2.68 38.44 9.47 75.9 41.22 100.72 4.96 3.88 21.35 1.83 19.88-6.97-7.94-47.73-15.88-95.46-23.83-143.19-7.38-44.38-16.67-88.39-2.86-132.41l-20.74 2.28c-34.19 132.51-1.9 272.66 86.61 376.99 6.37-2.8 12.74-5.6 19.1-8.4-35.39-40.04-52.26-88.58-64.47-139.81-12.49-52.36-29.61-111.91.86-161.01 2.5-4.03-2.14-6.97-5.82-6.88-23.66.58 26.31-113.64 27.25-115.65 4.76-10.08-15.61-6.47-19.4-1.03-68.48 98.48-48.16 219.19-6.13 324.06 43.11 107.57 101.41 201.79 208.24 254.66 4.79-3.77 9.57-7.55 14.36-11.32-41.51-11.52-76.34-30.86-108.09-59.99-5.74-5.27-25.29 2.63-19.1 8.4 107.43 100.13 252.8 146.51 398.4 128.31 4.73-.59 18.87-10.02 7.47-12.31-94.99-19.06-185.54-52.41-275.93-86.61-5.48-2.07-22.98 5.26-14.36 11.32 57.16 40.17 120.02 63.99 189.23 72.95 2.59-4.24 5.18-8.49 7.77-12.73-68.03-6.81-133.76-21.49-198.29-43.92-3.37 4.13-6.73 8.26-10.1 12.39 69.04 9.4 138.07 18.9 207.12 28.2 46.37 6.24 90.22 10.68 134.15-8.08-2.82-3.21-5.64-6.42-8.47-9.63-49.52 21.25-100.18 38.42-152.4 51.7-9.6 2.44-12.13 13.44.28 12.04 83.06-9.38 160.61-36.12 231.83-79.9 12.13-7.46-6-11.06-13.09-7.14-49.5 27.35-101.68 45.99-157.12 56.89 1.03 3.84 2.06 7.67 3.08 11.51 140.82-39.51 293.44-87.17 370.25-222.57 5.21-9.19-14.45-6.82-18.09-2.63-120.4 138.78-300.98 211.24-483.94 192.95-6.09-.61-21.79 8.71-10.1 12.39 249.31 78.43 521.64-92.7 542.37-357.79 11.48-146.84-63.32-282.42-156.54-390.61-89.15-103.46-251.05-106.85-376.41-85.4-145.8 24.96-278.03 103.7-358.68 229.09-5.82 9.05 13.14 5.83 16.24 4.09 65.55-36.81 88.81-133.67 163.96-152.1-1.93-3.52-3.85-7.05-5.78-10.57-99.21 44.2-156.59 152.79-132.53 259.57 6.89-1.85 13.77-3.69 20.66-5.54-28.67-69.82-2.59-154.05 65.71-189.93-4.21-2.31-8.42-4.62-12.63-6.92-52.46 46.77-103.97 98.01-107.21 172.53-3.16 72.72 33.52 140.82 70.4 200.94 3.93 6.41 23.73-.32 19.1-8.4-14.9-26.05-94.29-161.01-56.53-186.96l-16.92-2.43c-1.64 66.81-1.18 136.27 11.02 202.17 11.04 59.67 50.81 92.26 85.3 139.01 33.74 45.74 62.31 93.48 114.19 120.77 49.8 26.19 107.65 32.47 162.72 38.58 8.65.96 21.67-11.19 7.77-12.73-56.29-6.24-116.52-12.71-165.88-42.97-48.46-29.71-74.22-79.8-108.12-123.28-35.73-45.84-68.49-78-77.36-138.32-9-61.16-10.4-123.82-8.88-185.5.2-8.01-12.96-5.15-16.92-2.43-25.51 17.54-15.93 45.29-7.79 71.27 14.4 45.98 34.42 89.47 58.31 131.23 6.37-2.8 12.74-5.6 19.1-8.4-35.38-57.67-71.8-124.81-68.76-194.83 3.14-72.35 52.49-120.76 103.26-166.02 8.33-7.43-7.89-9.42-12.63-6.92-73.99 38.87-110.25 126.33-77.9 205.1 3.1 7.55 22.5 2.61 20.66-5.54-22.18-98.4 27.37-203 120.33-244.4 11.24-5.01 4.02-12.97-5.78-10.57C929.87 685 910.01 781.39 839.58 820.95c5.41 1.36 10.83 2.72 16.24 4.09 94.91-147.56 261.35-224.76 434.37-226.27 81.7-.71 176.47 7.58 239.14 65.46 53.72 49.62 98.87 120.08 131.18 184.95 67.56 135.64 63.34 294.8-23.8 420.86-97.68 141.31-275.87 197.81-438.59 146.62-3.37 4.13-6.73 8.26-10.1 12.39 190.84 19.08 382.73-56.49 508.5-201.46-6.03-.88-12.06-1.75-18.09-2.63-73.57 129.7-219.09 174.26-353.93 212.09-12.6 3.54-9.49 13.98 3.08 11.51 59.28-11.65 114.28-32.06 167.13-61.25-4.36-2.38-8.73-4.76-13.09-7.14-66.53 40.89-138.61 65.71-216.22 74.48.09 4.01.19 8.03.28 12.04 54.09-13.76 106.5-31.57 157.79-53.58 13.15-5.65 1.28-13.79-8.47-9.63-51.85 22.15-114.06 5.5-167.63-1.79-52.47-7.14-104.94-14.29-157.41-21.43-6.32-.86-21.54 8.42-10.1 12.39 66.03 22.95 133.43 37.64 202.96 44.6 8.58.86 21.71-10.93 7.77-12.73-66.06-8.55-126.29-32.56-180.71-70.8-4.79 3.77-9.57 7.55-14.36 11.32 90.39 34.2 180.93 67.54 275.93 86.61 2.49-4.1 4.98-8.21 7.47-12.31-139.75 17.48-278.89-28.2-381.82-124.13-6.37 2.8-12.74 5.6-19.1 8.4 33.38 30.62 71.09 51.53 114.76 63.64 5.17 1.43 23.8-6.65 14.36-11.32-104.91-51.92-161.55-143.98-203.87-249.61-41.1-102.6-62.31-220.89 4.87-317.5-6.47-.34-12.93-.69-19.4-1.03-10.28 21.76-66.01 130.65-15.62 129.41-1.94-2.29-3.88-4.59-5.82-6.88-29.75 47.95-16.95 102.16-5.24 154.06 12.87 57.02 29.81 111.68 69.14 156.19 5.11 5.78 24.88-1.59 19.1-8.4-87.23-102.81-118.65-240.34-84.97-370.87 2.19-8.49-18.47-4.95-20.74 2.28-12.53 39.94-6.55 78.31.14 118.82 8.8 53.36 17.75 106.69 26.63 160.04 6.63-2.32 13.26-4.64 19.88-6.97-53.02-41.44-44.42-142.3-41.3-201.43 4.2-79.41 30.89-164.87 109.16-199.92 13.09-5.88 1.3-14.02-8.42-9.66zM1610.6 546.06c38.37-49.65 76.74-99.3 115.11-148.94 4.12-5.33-15.62-2.64-18.75 1.4-38.37 49.65-76.74 99.3-115.11 148.94-4.11 5.33 15.62 2.65 18.75-1.4zM1602.87 577.76l-2.34 19.56c-.82 6.81 13.83 2.04 16.45.69 100.56-51.73 201.13-103.47 301.69-155.2 12.24-6.3-6.51-7.51-12.38-4.49-100.56 51.73-201.13 103.47-301.69 155.2l16.45.69 2.34-19.56c.82-6.75-19.8-2.84-20.52 3.11zM1706.95 607.62c72.49-30.9 144.98-61.8 217.47-92.71 13-5.54 1.49-16.76-9.16-12.22-72.49 30.9-144.98 61.8-217.47 92.71-13 5.54-1.49 16.76 9.16 12.22zM1523.88 514.12a2648.806 2648.806 0 0 0 180.84-332.08c1.76-3.87-17.9-2.14-20.44 3.43a2649.508 2649.508 0 0 1-180.84 332.08c-1.82 2.86 17.05 1.87 20.44-3.43zM1723.74 700.25c91.11-29.35 182.93-56.3 275.41-81 12.08-3.23 10.22-10.85-2.03-7.58-94.32 25.19-187.9 52.82-280.83 82.74-13.91 4.49-.93 8.54 7.45 5.84zM1438.95 459.32c-.59-127.32 23.02-251.53 70.09-369.78 1.67-4.19-18.21-2.17-20.43 3.43-47.32 118.89-70.91 243.97-70.32 371.88.02 3.95 20.69.81 20.66-5.53zM1296.6 488.2a7067.102 7067.102 0 0 1-38.52-317.82c-.92-9.34-21.63-4.36-20.66 5.54a7081.638 7081.638 0 0 0 38.52 317.82c1.35 9.41 22.07 4.29 20.66-5.54zM1780.17 808.51c132.37-21.47 264.56-39.39 398.5-47.54 10.61-.64 16.83-13.27 2.56-12.4-133.94 8.14-266.13 26.07-398.5 47.54-10.22 1.66-16.76 14.71-2.56 12.4zM1811.24 929.45c115.35-13.67 231.11-17.86 347.15-12.47 9.07.42 21.52-12.88 7.55-13.53-117.78-5.47-235.33-1.33-352.42 12.54-10.83 1.28-16.47 15.14-2.28 13.46zM1819.76 1057.71a7085.657 7085.657 0 0 0 424.25 46.43c9.76.77 21.25-13.39 7.29-14.49a7093.88 7093.88 0 0 1-424.25-46.43c-9.83-1.38-21.17 12.54-7.29 14.49zM1260.39 1580.41a3917.94 3917.94 0 0 1 17.03 324.77c.06 5.57 20.74 1.89 20.66-5.54a3926.645 3926.645 0 0 0-17.03-324.77c-.56-5.95-21.34-1.68-20.66 5.54zM1433.83 1574.3l-10.37-14.6c-6.46 2.45-12.92 4.9-19.39 7.34 75.12 97.06 133.37 204.42 174.03 320.19 1.94 5.53 22.41-.56 20.66-5.54-40.91-116.47-99.77-224.4-175.31-322-3.28-4.24-23 2.25-19.39 7.34l10.37 14.6c3.1 4.36 23.02-2.22 19.4-7.33zM1548.87 1498.12c96.14 97.32 182.04 203.47 257.18 317.79 4.86 7.4 24.66-.25 18.97-8.91-75.13-114.32-161.04-220.47-257.18-317.79-6.28-6.35-25.87 1.92-18.97 8.91zM1684.88 1368.01a1949.097 1949.097 0 0 0 235.96 177.41c4.75 3.04 21.75-5.43 19.52-6.86a1949.097 1949.097 0 0 1-235.96-177.41c-3.94-3.46-22.15 4.55-19.52 6.86zM1792.91 1256.65c100.42 30.42 196.85 70.68 289.22 120.42 5.96 3.21 24.95-5.45 16.43-10.04-93.56-50.38-191.33-90.86-293.02-121.66-6.61-2.01-24.2 7.77-12.63 11.28zM1828.81 1113.87c38.47 20.21 84.6 24.57 126.69 33.42 52.6 11.06 105.21 22.12 157.81 33.19 7.51 1.58 24.41-9.79 12.36-12.32-47.07-9.9-94.13-19.8-141.2-29.69-45.28-9.52-98.09-13.67-139.42-35.38-6.75-3.55-25.46 5.93-16.24 10.78zM1113.43 1492.11c.47-.09.93-.17 1.4-.26-4.12-1.61-8.25-3.23-12.37-4.84 3.87 17.33-44.53 69.23-55.19 83.63-17.17 23.21-34.66 46.19-52.02 69.26-37.59 49.98-75.18 99.97-112.78 149.95-7.98 10.61 11.38 14.98 17.49 6.85 45.76-60.85 91.54-121.69 137.29-182.55 21-27.92 42.33-55.68 61.75-84.74 8.33-12.47 27.61-32.28 24.11-47.95-1.2-5.37-8.22-5.62-12.37-4.84-.47.09-.93.17-1.4.26-13.15 2.46-8.84 17.64 4.09 15.23zM940.63 1421.63a2552.847 2552.847 0 0 1-252.35 222.59c-8.63 6.65 11.88 4.9 16.1 1.65a2580.036 2580.036 0 0 0 255.15-225.05c4.99-5.01-14.95-3.17-18.9.81zM858.25 1293.17a3857.383 3857.383 0 0 0-408.68 180.28c-8.5 4.35 12.04 1.9 15.67.04a3776.595 3776.595 0 0 1 399.95-176.4c13.79-5.15.71-6.77-6.94-3.92zM778.85 1147.09a5653.398 5653.398 0 0 0-409.06-4.96c-11.66.28-15.98 15.22-1.9 14.88 134.63-3.24 269.23-1.62 403.74 4.88 9.9.48 21.17-14.13 7.22-14.8zM723.84 986.22a4419.047 4419.047 0 0 0-314.57-64.03c-5.03-.83-22.84 7.3-16.9 8.29a4418.992 4418.992 0 0 1 314.57 64.02c4.98 1.21 23.1-6.79 16.9-8.28zM381.44 582.52c122.83 46.7 245.67 93.4 368.5 140.11 8.69 3.31 24.16-9.18 11.96-13.82-122.83-46.7-245.67-93.4-368.5-140.11-8.69-3.3-24.16 9.18-11.96 13.82zM542.88 331.24c66.96 50.94 133.92 101.87 200.87 152.81 4.62 3.51 22.73-4.63 19.44-7.14-66.96-50.94-133.92-101.87-200.87-152.81-4.62-3.52-22.73 4.63-19.44 7.14zM1000.96 488.11c-42.53-32.64-60.08-92.06-81.04-139.47-21.43-48.48-42.04-97.32-62.66-146.15-3.69-8.74-24.16-2.76-20.66 5.54 24.74 58.59 49.48 117.2 75.61 175.19 18.88 41.91 35.15 87.56 72.7 116.38 6.81 5.21 25.17-4.5 16.05-11.49zM1173.45 466.49c-5.18-97.02-21.37-192.14-48.59-285.41-1.75-6.01-22.39-.37-20.66 5.54 27.22 93.27 43.42 188.39 48.59 285.41.28 5.21 21.03 1.38 20.66-5.54zM777.64 608.51c-104.05-39.09-205.62-83.92-304.52-134.66-7.99-4.1-26.07 6.74-15.92 11.95 100.23 51.42 203.05 97.05 308.52 136.67 8.83 3.32 24.17-9.35 11.92-13.96zM653.61 867.08c-124.05-8.25-247.17-24.23-369.22-47.99-5.04-.98-22.99 7.14-16.89 8.33 123.22 23.99 247.56 40.21 372.83 48.55 4.77.31 23.66-8.2 13.28-8.89zM780.35 1237.97c-160.86 24.17-317.05 69.46-465.8 135.3-13.11 5.8-1.2 13.19 8.3 8.99 145.33-64.33 297.65-108.74 454.82-132.36 10.08-1.51 16.94-14.07 2.68-11.93zM825.81 1403.67c-104.88 74.69-206.5 153.64-304.7 236.93-8.99 7.62 11.45 7.64 16.55 3.32 97.02-82.29 197.32-160.42 300.95-234.21 11.35-8.08-6.33-10.64-12.8-6.04zM1158.13 1614.8c10.2 19.4-18.46 66.94-25.84 84.9a2280.87 2280.87 0 0 1-34.88 80.46c-24.3 53.21-50.84 105.3-79.03 156.55-5.66 10.29 15.29 10.81 19.81 2.59 34.6-62.91 66.58-127.14 95.26-192.96 13.78-31.62 27.37-63.53 39.23-95.93 6.25-17.09 12.99-28.34 4.33-44.82-4.41-8.41-24.04-.6-18.88 9.21zM1770.7 721.71a3140.7 3140.7 0 0 0 292.08-79.46c5.96-1.93 4.92-6.52-1.21-4.53a3139.855 3139.855 0 0 1-292.08 79.46c-6.23 1.38-4.99 5.9 1.21 4.53zM1858.56 719.34l160.43-14.22c5.4-.48 8.3-7.18 1.19-6.55l-160.43 14.22c-5.4.48-8.31 7.18-1.19 6.55zM1823.54 825.03c125.32 6.7 250.56 3.73 375.42-8.81 2.49-.25 11.27-4.4 4.59-3.73-124.15 12.47-248.63 15.34-373.22 8.67-2.02-.11-11.65 3.61-6.79 3.87zM1824.55 954.75c25.89-12.12 80.79-1.11 108.52-.08 36.43 1.35 72.89 2.16 109.34 2.43 70.12.53 140.21-1.09 210.26-4.4 3.39-.16 11.08-5.51 4.2-5.18-84.06 3.97-168.18 5.44-252.32 3.85-39.25-.74-78.5-2.1-117.71-4.1-22.95-1.17-45.02-5.91-66.16 3.99-6.54 3.05-.48 5.52 3.87 3.49zM1729.53 1594.36a4917.999 4917.999 0 0 0 203.22 210.34c2.87 2.8 12.66-1.19 9.54-4.24a4917.999 4917.999 0 0 1-203.22-210.34c-2.7-2.96-12.56.93-9.54 4.24zM1822.24 1312.4a3210.512 3210.512 0 0 0 249.4 164.24c2.83 1.68 11.84-2.52 9.66-3.81a3210.512 3210.512 0 0 1-249.4-164.24c-2.65-1.93-11.93 2.16-9.66 3.81zM1509.15 1533.4c72.45 97.27 132.78 201.93 180.55 313.44 1.9 4.44 12.14 1.46 10.33-2.77-47.99-112.04-108.58-217.39-181.4-315.15-2.69-3.62-12.57.33-9.48 4.48zM1321.12 1582.89c-1.34 95.82 6.5 190.83 23.54 285.13.45 2.47 10.85.11 10.33-2.77-17.04-94.3-24.88-189.32-23.54-285.13.03-1.99-10.28-.47-10.33 2.77zM1018.57 1505.34a5138.03 5138.03 0 0 0-212.03 382.56c-2.55 5.09 7.88 4.9 9.83 1a5134.417 5134.417 0 0 1 212.03-382.56c2.9-4.75-7.58-4.68-9.83-1zM807.88 1362.71c-69.15 5.64-137.42 54.65-195.77 88.97-67.19 39.52-131.74 83.12-193.98 130.03-5.59 4.22 2.76 7.8 6.85 4.71 53.62-40.42 108.91-78.48 166.26-113.43 61.33-37.38 143.01-96.8 215.72-102.73 5.8-.46 7.98-8.12.92-7.55zM706.27 1166.37a4241.788 4241.788 0 0 0-518.34 77.8c-3.96.85-9.22 5.16-1.98 3.61 170.26-36.42 342.35-62.27 515.8-77.43 2.63-.24 11.24-4.57 4.52-3.98zM650.92 1053.36a5279.21 5279.21 0 0 0-477.78 24.58c-5.9.57-7.85 8.59-.83 7.91a5279.023 5279.023 0 0 1 477.78-24.58c6.02-.04 7.83-7.95.83-7.91zM635.9 780.43a6760.014 6760.014 0 0 1-381.45-71.37c-2.91-.63-12.06 3.91-6.46 5.13a6760.014 6760.014 0 0 0 381.45 71.37c2.91.46 12.06-4.24 6.46-5.13zM764.89 538.54c-135.25-49.32-270.51-98.65-405.76-147.97-3.29-1.2-12.61 3.57-8.17 5.19 135.25 49.32 270.51 98.65 405.76 147.97 3.29 1.19 12.61-3.57 8.17-5.19zM864.75 509.2a3421.3 3421.3 0 0 1-313.5-228.48c-3.45-2.83-12.53 2.15-7.99 5.87a3423.182 3423.182 0 0 0 313.5 228.48c3.74 2.41 12.85-2.74 7.99-5.87zM1079.1 510.67c-10.59-162.49-61.03-318.06-147.5-455.99-2.04-3.25-12.04.25-9.55 4.22 86.22 137.53 136.16 292.61 146.71 454.54.26 3.81 10.63 1.56 10.34-2.77zM1215.41 357.32a1630.26 1630.26 0 0 0-53.56-242.4c-1.15-3.8-11.46-.97-10.33 2.77a1630.538 1630.538 0 0 1 53.56 242.4c.53 3.69 10.91 1.28 10.33-2.77zM1355.62 458.12c30.28-104.12 36.51-211.05 18.54-317.97-.47-2.82-10.87-.46-10.33 2.77 17.88 106.4 11.66 213.17-18.47 316.76-.85 2.91 9.37 1.5 10.26-1.56zM1461.18 493.99c-22-3.33 34.01-100.72 40.21-112.76 16.54-32.1 33.09-64.21 49.63-96.31 34.36-66.68 68.72-133.36 103.08-200.03 2.56-4.97-7.87-4.67-9.8-.91-45.81 88.9-91.62 177.81-137.43 266.71-20.24 39.28-49.99 80.91-63.08 123.01-4.87 15.68-3.65 24.71 13.7 27.34 4.78.72 10.62-6 3.69-7.05z"/><path class="st0" d="M1533.49 516.73c120.94-95.1 241.87-190.2 362.81-285.3 5.5-4.33-2.73-8.33-6.93-5.02-120.94 95.1-241.87 190.2-362.81 285.3-5.51 4.32 2.73 8.32 6.93 5.02z"/><path class="st1" d="M1807.13 439.99c2.05 0 5.8-.71 6.83-2.79 1.02-2.06-.87-2.9-2.76-2.9-2.05 0-5.8.71-6.83 2.79-1.02 2.05.87 2.9 2.76 2.9z"/><path class="st0" d="M1638.78 553.69a3317 3317 0 0 0 299.77-73.45c6.31-1.86 4.45-9.07-1.93-7.19a3315.288 3315.288 0 0 1-299.77 73.45c-6.52 1.28-4.49 8.45 1.93 7.19zM1625.73 510.17c86.05-36.85 169.61-78.65 250.65-125.5 5.97-3.45-3.31-3.8-6.16-2.15-80.3 46.41-163.03 87.91-248.29 124.42-6.68 2.86-.48 5.06 3.8 3.23zM1693.76 614.67a7489.7 7489.7 0 0 1 310.07-121.45c6.68-2.45.73-7.41-4.42-5.52a7478.651 7478.651 0 0 0-310.07 121.45c-6.56 2.74-.71 7.66 4.42 5.52zM1803.03 611.98c43.97-11.88 87.94-23.77 131.91-35.65 6.4-1.73 4.43-9.17-1.99-7.43-43.97 11.88-87.94 23.77-131.91 35.65-6.4 1.73-4.43 9.17 1.99 7.43zM1769.49 768.38c116.35-9.17 232.07-23.57 347.14-43.08 6.6-1.12 4.43-8.66-2.03-7.56-114.13 19.34-228.93 33.51-344.32 42.61-5.96.48-7.81 8.59-.79 8.03zM1933.28 892.86c98.64-11.88 197.27-23.76 295.91-35.63 5.16-.62 8.45-6.96 1.31-6.1-98.64 11.88-197.27 23.76-295.91 35.63-5.16.63-8.45 6.96-1.31 6.1zM1851.36 993.15c141.66-5.81 283.09-15.4 424.23-28.77 5.39-.51 8.3-7.23 1.19-6.55a7976.07 7976.07 0 0 1-424.23 28.77c-5.47.22-8.29 6.84-1.19 6.55zM1909.18 1073.68c94.37 2.09 188.6-.35 282.74-7.25 2.61-.19 11.27-4.39 4.54-3.9-93.41 6.85-186.89 9.22-280.53 7.14-2.09-.04-11.66 3.9-6.75 4.01zM1832.61 1137.49c45.41 2.52 89.16 20.07 133.17 30.69 39.01 9.41 78.4 17.16 118.06 23.28 77.16 11.9 154.94 17.14 232.99 16.9 3.62-.01 11.05-5.48 4.13-5.46-88 .28-175.69-6.61-262.37-21.97-73.73-13.06-147.28-44.75-221.85-48.89-3.69-.21-11.06 5.07-4.13 5.45zM1841.83 1191.78c147.27 28.99 294.53 57.99 441.8 86.98 3.63.71 12.19-4.83 6.22-6.01-147.27-28.99-294.53-57.99-441.8-86.98-3.63-.72-12.2 4.83-6.22 6.01zM1789.12 1225.86a3857.474 3857.474 0 0 0 533.98 144.71c3.94.77 12.21-5.2 6.12-6.39a3857.474 3857.474 0 0 1-533.98-144.71c-3.93-1.38-12.13 4.29-6.12 6.39zM1800.38 1286.94c138.38 65.48 281 120.79 427.32 165.8 3.35 1.03 12.11-3.9 6.3-5.69-145.69-44.83-287.64-99.97-425.42-165.17-3.08-1.46-12.52 3.01-8.2 5.06zM1761.88 1373.99a9563.964 9563.964 0 0 1 342.94 126.5c2.32.9 11.59-2.84 8.47-4.06a9563.964 9563.964 0 0 0-342.94-126.5c-2.35-.82-11.56 2.99-8.47 4.06zM1661.87 1373.05c139.16 100.84 278.33 201.68 417.49 302.52 2.89 2.09 12.33-2.03 9.61-4-139.16-100.84-278.33-201.68-417.49-302.52-2.9-2.1-12.33 2.02-9.61 4zM1638.48 1456.17c18.56-1.71 53.39 54.52 64.11 66.9 21.39 24.7 43.51 48.77 66.3 72.2 43.86 45.08 90.28 87.42 138.69 127.56 2.72 2.26 12.3-1.75 9.61-3.99-60.04-49.78-116.92-103.06-169.8-160.41-25.6-27.76-49.62-56.72-73.86-85.65-11.1-13.25-16.13-23.73-33.58-22.12-4.97.46-8.65 6.17-1.47 5.51zM1549.98 1492.33c80.54 97.05 141.93 206.59 182.75 325.88 1.03 3 11.28.01 10.33-2.77-40.96-119.69-102.65-229.56-183.42-326.89-1.91-2.3-11.77 1.24-9.66 3.78zM1539.43 1633.27c44.48 79.27 75.91 163.51 94.21 252.54.61 2.99 11 .48 10.33-2.77-18.31-89.04-49.73-173.27-94.21-252.54-1.73-3.1-11.61.47-10.33 2.77zM1360.96 1585.84a7080.774 7080.774 0 0 1 92.54 428.67c.8 4.36 11.16 1.77 10.33-2.77a7074.79 7074.79 0 0 0-92.54-428.67c-1.09-4.37-11.43-1.66-10.33 2.77zM1235.52 1575.01c-21.1 155.16-27.7 311.41-19.69 467.81.11 2.25 10.49.43 10.33-2.77-7.99-156.03-1.47-311.88 19.59-466.71.41-2.97-9.85-1.08-10.23 1.67zM1102.86 1514.41c-14.73-6.26-21.24-.9-33.15 9.52-30.7 26.86-55.07 72.58-77.86 106.26-56.08 82.9-104.54 170.47-146.1 261.49-2.2 4.82 8.14 3.97 9.7.53 29.83-65.33 63.05-128.96 100.39-190.33 14.02-23.03 111.96-193.59 138.87-182.16 3.39 1.44 12.73-3.37 8.15-5.31zM961.98 1418.24c-55.65 50.18-109.73 102.02-161.81 155.91-51.04 52.81-99.23 125.09-165.92 158.51-6.37 3.19-.57 7.16 4.22 4.76 60.87-30.5 102.01-89.55 147.89-138 58.89-62.18 120.4-121.75 184-179.1 4.53-4.09-5.62-4.57-8.38-2.08zM961.99 1472.82a29330.853 29330.853 0 0 1-249.58 357.59c-2.45 3.45 7.76 2.34 9.52-.14a29219.983 29219.983 0 0 0 249.58-357.59c2.42-3.51-7.8-2.36-9.52.14zM843.82 1310.49c-144.45 55.83-283.79 122.92-417.45 201.14-4.19 2.45 6.05 1.06 7.83.01 132.25-77.4 270.15-143.96 413.08-199.2 6.87-2.66.35-3.43-3.46-1.95zM769.89 1237.88c-152.16 51.19-300.17 113.03-443.56 185.21-6.15 3.09 3.22 3.85 6.22 2.34 142.62-71.79 289.88-133.2 441.21-184.11 6.88-2.33.51-4.92-3.87-3.44zM748.99 1172.61c-172.72 6.09-343.19 33.88-508.93 82.84-5.9 1.74-5.22 4.91.84 3.12 164.04-48.46 332.66-75.83 503.6-81.87 2.75-.09 11.27-4.33 4.49-4.09zM649.13 1108.16c-213.87 11.46-427.73 22.93-641.6 34.39-2.81.15-11.24 4.58-4.46 4.22 213.87-11.46 427.73-22.93 641.6-34.39 2.81-.15 11.24-4.59 4.46-4.22zM567.76 997.78c-120.23-29.19-242.89-38.44-366.11-27.46-5.7.51-8.04 7.97-.98 7.34 121.55-10.83 242.51-1.87 361.08 26.92 4.3 1.04 12.21-5.3 6.01-6.8zM582.32 905.22c-86.72-24.2-175.01-38.53-264.9-43.18-3.83-.2-11.01 5.32-4.07 5.68 89.19 4.61 176.6 18.96 262.6 42.96 3.18.89 12.1-3.86 6.37-5.46zM625.89 838.57c-120.72-34.32-243.37-60.12-367.71-77.26-2.87-.4-12.04 4.32-6.47 5.09 123.71 17.06 245.72 42.65 365.85 76.8 2.83.8 12.1-3.56 8.33-4.63zM596.69 736.24c-103.38-35.6-209.77-57.86-318.74-66.72-4.82-.39-10.65 6.58-3.67 7.15 108.13 8.79 213.8 30.92 316.37 66.24 4.16 1.43 12.13-4.57 6.04-6.67zM685.51 748.18A3295.858 3295.858 0 0 0 286.4 626.46c-3.82-.91-12.21 4.8-6.16 6.23a3295.314 3295.314 0 0 1 399.11 121.72c3.77 1.42 12.07-4.01 6.16-6.23zM699.76 648.39a5174.854 5174.854 0 0 0-426.08-147.36c-2.76-.82-12.04 3.45-8.34 4.55a5169.839 5169.839 0 0 1 426.08 147.36c2.69 1.07 12.1-3.06 8.34-4.55zM626.85 513.92c-60.37-27.28-122.25-49.88-185.96-68-2.22-.63-11.13 3.02-8.56 3.75 63.31 18.01 124.78 40.54 184.75 67.64 2.66 1.19 10.44-3.09 9.77-3.39zM713.92 480.14c-84.34-38.1-168.69-76.19-253.03-114.29-4.59-2.07-11.93 4.55-5.88 7.29 84.34 38.1 168.69 76.19 253.03 114.29 4.59 2.07 11.93-4.56 5.88-7.29zM871.71 493.42c-75.63-77.66-151.25-155.32-226.88-232.99-2.02-2.07-11.65 1.66-9.69 3.67 75.63 77.66 151.25 155.32 226.88 232.99 2.02 2.08 11.65-1.66 9.69-3.67zM933.8 470.54c-81.26-110.61-153.7-227-217.05-348.75-1.71-3.28-11.7.14-10.33 2.77a2678.369 2678.369 0 0 0 217.75 349.9c1.9 2.58 11.89-.84 9.63-3.92zM1049.31 421.92c-61.61-95.14-103.04-199.63-123.58-311.05-.71-3.85-11.08-1.32-10.33 2.77 20.63 111.93 62.51 216.96 124.35 312.46 2.03 3.13 12.04-.35 9.56-4.18zM1143.92 296.74A4220.26 4220.26 0 0 0 1090.77.78c-.45-2.08-10.84.41-10.33 2.77a4221.303 4221.303 0 0 1 53.15 295.96c.28 1.91 10.7-.22 10.33-2.77zM1068.53 389.53c-16.03-96.36-32.07-192.72-48.1-289.08-.55-3.33-10.94-.91-10.33 2.77 16.03 96.36 32.07 192.72 48.1 289.08.55 3.32 10.94.9 10.33-2.77zM1115.34 296.75c-8.19-49.44-22.32-96.79-42.58-142.63-1.1-2.5-11.15.93-10.33 2.77 20.26 45.83 34.39 93.19 42.58 142.63.35 2.1 10.76-.15 10.33-2.77zM1240.48 372.07a9871.61 9871.61 0 0 0 49.56-299.99c.15-1.01-9.87-.3-10.33 2.77a9874.865 9874.865 0 0 1-49.41 299.09c-.39 2.18 9.74.57 10.18-1.87zM1321.98 382.76c25.04-74.23 40.62-149.95 46.93-228.04.27-3.35-10.02-1.26-10.25 1.59-6.3 78.08-21.89 153.81-46.93 228.04-.9 2.67 9.24 1.4 10.25-1.59zM1374.37 428.41c52.99-100.29 104.73-202.35 114.42-317.11.11-1.27-10.08-.25-10.33 2.77-9.67 114.54-61.42 216.18-114.27 316.2-.68 1.27 8.81.74 10.18-1.86zM1486.1 409.1a1816.904 1816.904 0 0 1 114.02-221.07c2.86-4.72-7.62-4.57-9.81-.94a1816.904 1816.904 0 0 0-114.02 221.07c-2.26 5.23 8.12 4.87 9.81.94zM1589.92 343.73c53.49-64.16 106.97-128.33 160.46-192.49.44-.53-8.21-.45-10.17 1.89-53.49 64.16-106.97 128.33-160.46 192.49-.44.53 8.21.45 10.17-1.89z"/><path class="st0" d="M1500.57 428.86a2903.458 2903.458 0 0 1 223.94-236.36c4.46-4.21-5.65-4.71-8.4-2.12a2903.458 2903.458 0 0 0-223.94 236.36c-4.02 4.75 5.91 5.06 8.4 2.12zM1664.26 365.57a2679.127 2679.127 0 0 1 199.16-168.16c1.99-1.52-7.36-.58-9.32.91a2679.127 2679.127 0 0 0-199.16 168.16c-1.99 1.85 7.52.76 9.32-.91zM1705.64 493.43c93.94-55.76 187.88-111.51 281.81-167.27 4.3-2.55-5.99-1.41-7.9-.28-93.94 55.76-187.88 111.51-281.81 167.27-4.31 2.55 5.98 1.42 7.9.28z"/><path class="st0" d="M1654.4 524.95a5204.794 5204.794 0 0 0 336.17-164.82c6.11-3.27-3.03-4.82-6.4-3.02a5173.615 5173.615 0 0 1-333.84 163.64c-6.56 2.94-.56 6.27 4.07 4.2zM1802.83 536.44c67.74-23.77 135.47-47.53 203.21-71.3 6.08-2.13 4.51-8.7-1.74-6.5-67.74 23.77-135.47 47.53-203.21 71.3-6.08 2.13-4.51 8.69 1.74 6.5zM1738.35 574.42c90.45-23.84 181.45-45.23 273.06-64.13 4.1-.85 9.12-5.42 1.89-3.93a5222.107 5222.107 0 0 0-275.84 64.75c-6 1.58-5.21 4.91.89 3.31zM1796.83 620.55c84.38-26.12 168.76-52.25 253.14-78.37 7.05-2.18.36-3.05-3.44-1.87-84.38 26.12-168.76 52.25-253.14 78.37-7.06 2.19-.36 3.05 3.44 1.87zM1895.74 658.46c51.1-10.7 102.2-21.39 153.3-32.09 6.48-1.36 4.55-8.24-1.85-6.9-51.1 10.7-102.2 21.39-153.3 32.09-6.48 1.36-4.56 8.24 1.85 6.9zM1824.53 737.35a5622.892 5622.892 0 0 0 334.86-76.04c6.42-1.66 4.45-9.03-1.97-7.36a5628.958 5628.958 0 0 1-334.86 76.04c-6.54 1.28-4.47 8.62 1.97 7.36zM1979.71 771.93c82.34-9.56 164.33-21.35 246.04-35.35 5.29-.91 8.19-7.94 1.14-6.73a4580.373 4580.373 0 0 1-246.04 35.35c-5.42.63-8.24 7.55-1.14 6.73zM1990.29 803.39c60.61-5.94 121.21-11.88 181.82-17.83 5.23-.51 8.43-6.87 1.29-6.17-60.61 5.94-121.21 11.88-181.82 17.83-5.22.52-8.43 6.87-1.29 6.17zM1947.39 849.96c114.08-15.5 228.15-31 342.23-46.49 4.31-.58 9.12-5.1 1.84-4.11-114.08 15.5-228.15 31-342.23 46.49-4.31.58-9.12 5.1-1.84 4.11zM2004.54 892.57l231.73-17.82c5.16-.4 8.52-6.46 1.36-5.9l-231.73 17.82c-5.15.39-8.52 6.45-1.36 5.9zM1933.49 1007.76c107.27-2.43 214.22-9.58 320.85-21.44 5.75-.64 7.95-8.36.91-7.58a3652.91 3652.91 0 0 1-320.85 21.44c-5.88.14-7.95 7.74-.91 7.58zM1842.9 1016.43c106.92 15.14 214.41 22.77 322.39 22.98 6.09.01 7.77-8.07.78-8.09-107.1-.21-213.68-7.86-319.71-22.87-5.39-.76-10.39 6.99-3.46 7.98zM1942.56 1090.33c113.01 6.6 225.66 17.2 337.91 31.85 3.31.43 12.13-4.9 6.31-5.66a4792.162 4792.162 0 0 0-340.22-32.11c-3.98-.22-10.96 5.52-4 5.92zM1920.26 1174.7a2916.313 2916.313 0 0 0 238.73 89.5c4.05 1.32 12.16-4.54 6.08-6.52a2916.313 2916.313 0 0 1-238.73-89.5c-3.97-1.69-12 4-6.08 6.52zM1886.98 1242.81l-40.83-13.38c-1.56 2.51-3.13 5.02-4.69 7.53 75.02 16.65 150.09 33.23 224.45 52.65 58.73 15.33 153.63 26.91 190.07 80.87 2.75 4.07 12.55-.04 9.43-4.65-36.43-53.94-119.57-63.76-177.61-79.23-80.4-21.43-161.64-39.45-242.86-57.47-4.17-.92-10.55 5.61-4.69 7.53l40.83 13.38c4.66 1.52 12.14-5.19 5.9-7.23zM1829.64 1317.53a6765.06 6765.06 0 0 1 343.63 150.25c2.97 1.4 12.44-2.96 8.24-4.93a6765.06 6765.06 0 0 0-343.63-150.25c-3.03-1.24-12.44 3.23-8.24 4.93zM1734.25 1363.1c107.08 73.49 214.17 146.98 321.25 220.46 3.99 2.74 12.89-2.76 7.91-6.18-107.08-73.49-214.17-146.98-321.25-220.46-4-2.74-12.89 2.76-7.91 6.18z"/><path class="st0" d="M1827.71 1460.02c92.5 41.28 182.41 87.63 269.7 139.02 3.97 2.34 12.98-3.07 7.94-6.03a2720.171 2720.171 0 0 0-271.7-140.04c-4.41-1.98-11.95 4.36-5.94 7.05zM1666.59 1428.23c62.95 25.17 119.85 87.28 172.2 129.45l172.8 139.2c2.57 2.07 12.02-1.94 9.65-3.84-61.87-49.84-123.73-99.68-185.6-149.52-49.22-39.65-101.24-96.13-160.72-119.91-2.76-1.1-12.18 3.08-8.33 4.62zM1725.84 1504.93a2678.1 2678.1 0 0 1 196.15 206.72c1.7 1.99 11.42-1.58 9.72-3.57a2676.085 2676.085 0 0 0-196.15-206.72c-2.01-1.91-11.43 1.94-9.72 3.57zM1586.6 1480.55a8443.36 8443.36 0 0 0 221.39 256.39c2.69 2.99 12.56-.89 9.54-4.25a8443.36 8443.36 0 0 1-221.39-256.39c-2.56-3.09-12.46.71-9.54 4.25zM1604.68 1687.1c46.1 54.18 90.15 109.96 132.16 167.37 2.3 3.14 12.26-.51 9.55-4.22a2906.342 2906.342 0 0 0-132.16-167.37c-2.56-3-12.46.8-9.55 4.22zM1447.45 1590.08c41.51 82.04 83.03 164.07 124.54 246.11 1.39 2.75 11.32-.81 10.33-2.77-41.51-82.04-83.03-164.07-124.54-246.11-1.4-2.75-11.33.81-10.33 2.77zM1411.43 1707.84c26.15 79.62 52.29 159.24 78.44 238.86.93 2.83 11.2-.13 10.33-2.77-26.15-79.62-52.29-159.24-78.44-238.86-.93-2.82-11.2.13-10.33 2.77z"/><path class="st0" d="M1443.89 1593.63a4042.157 4042.157 0 0 0 99.88 249.53c2.12 4.82 12.38 1.9 10.33-2.77a4038.385 4038.385 0 0 1-99.88-249.53c-1.79-4.95-12.09-2.1-10.33 2.77zM1369.62 1707.64c8.35 74.86 16.7 149.73 25.06 224.59.47 4.23 10.84 1.8 10.33-2.77-8.35-74.86-16.7-149.73-25.06-224.59-.47-4.22-10.83-1.79-10.33 2.77zM1307.68 1664.18l-3.51 235.3c-.06 4.23 10.28 2.08 10.33-1.3l3.51-235.3c.06-4.24-10.28-2.09-10.33 1.3zM1255.2 1692.73c-11.3 117.61-16.29 235.53-15.03 353.67.03 3.21 10.37 1.24 10.33-2.77-1.26-117.66 3.77-235.07 15.03-352.19.4-4.14-9.99-2.21-10.33 1.29zM1155.07 1692.6a1608.744 1608.744 0 0 1-35.51 210.37c-1.03 4.32 9.45 2.86 10.39-1.09 16.5-69.39 28.31-139.41 35.51-210.37.46-4.63-9.99-2.88-10.39 1.09zM1176.56 1559.42c-60.81 121.87-100.86 251.46-119.45 386.38-.73 5.32 9.82 4.01 10.48-.75 18.49-134.19 58.39-263.18 118.87-384.37 2.64-5.28-7.81-5.45-9.9-1.26zM1080.08 1621.52c-46.46 110.47-92.91 220.94-139.37 331.42-.81 1.92 9.05 1 10.21-1.75 46.46-110.47 92.91-220.94 139.37-331.42.8-1.92-9.06-1-10.21 1.75zM998.21 1692.7c-27.39 69.07-58.06 136.53-92.15 202.56-2.21 4.28 8.07 3.11 9.6.15 34.33-66.5 65.28-134.47 92.87-204.04 1.28-3.23-8.98-2.04-10.32 1.33zM934.91 1631.54c-41.61 71.29-83.23 142.58-124.84 213.87-2.52 4.31 7.85 3.47 9.66.37 41.61-71.29 83.23-142.58 124.84-213.87 2.52-4.31-7.85-3.47-9.66-.37zM938.36 1490.12a3721.676 3721.676 0 0 1-186.64 320.12c-.5.77 8.55.55 10.16-1.93a3728.428 3728.428 0 0 0 186.64-320.12c.56-1.07-8.84-.61-10.16 1.93zM881.76 1416.47c-83.92 94.69-162.84 193.46-236.74 296.15-3.07 4.27 7.42 4.09 9.78.81 73.49-102.12 152.03-200.27 235.47-294.43 4.21-4.76-5.72-5.69-8.51-2.53zM778.32 1406.15c-99.91 81.89-199.82 163.79-299.73 245.68-4.46 3.66 5.78 3.41 8.21 1.42 99.91-81.89 199.82-163.79 299.73-245.68 4.46-3.65-5.79-3.41-8.21-1.42zM736.07 1348.01c-102.62 55.48-202.38 115.77-299.16 180.91-4.27 2.88 6 1.73 7.94.42 96.16-64.72 195.24-124.7 297.21-179.83 6.01-3.24-3.47-2.86-5.99-1.5zM727.44 1313.83c-138.92 48.56-271.11 112.69-395.21 191.78-4.26 2.72 6.01 1.51 7.91.3 122.77-78.24 253.44-141.7 390.87-189.74 6.94-2.42.4-3.73-3.57-2.34zM651.51 1223.65c-161.93 28.93-319.47 75.87-470.76 140.44-6.67 2.85-.49 5.21 3.84 3.36 149.57-63.83 305.18-110.37 465.27-138.97 4.52-.81 8.84-6.12 1.65-4.83zM482.11 1225.46c-116.76 26.74-232 59.01-345.66 96.8-6.05 2.01-4.69 7.78 1.53 5.71a3745.458 3745.458 0 0 1 345.66-96.8c6.33-1.45 4.77-7.15-1.53-5.71zM475.26 1176.64c-99.59 27.73-200.12 51.45-301.62 71.09-4.39.85-8.91 5.99-1.71 4.6 102.43-19.83 203.9-43.7 304.41-71.69 6.03-1.68 5.06-5.71-1.08-4zM504.75 1060.79c-76.22 2.7-152.11 9.66-227.42 21.82-44.98 7.27-105.05 8.01-137.98 43.66-4.45 4.82 5.37 7.01 8.73 3.38 22.8-24.68 66.65-28.14 97.67-33.75 31.67-5.73 63.5-10.57 95.44-14.53 54.06-6.71 108.33-10.65 162.76-12.58 6.03-.21 7.82-8.25.8-8zM510.05 1019.18a3721.61 3721.61 0 0 0-361.22 43.91c-4.35.75-9.01 5.62-1.77 4.37a3697.13 3697.13 0 0 1 358.65-43.63c3.03-.21 11.15-5.14 4.34-4.65zM611.29 953.41c-136.87-33.18-275.86-12.69-412.73 9.59-5.02.82-8.47 7.12-1.35 5.96 135.21-22.01 272.53-42.57 407.8-9.77 3.45.85 12.17-4.35 6.28-5.78zM593.11 890.96C456.63 872.22 319.55 859.08 182 851.47c-3.58-.2-11.08 4.92-4.17 5.3 136.79 7.57 273.1 20.71 408.83 39.34 2.92.41 12.06-4.38 6.45-5.15z"/><path class="st0" d="m610.77 894.65-288.56-61.62c-3.38-.72-12.16 4.46-6.3 5.72l288.56 61.62c3.39.72 12.17-4.47 6.3-5.72zM647.42 856.32l-315.14-66.54c-47.25-9.98-120.7-43.38-163.88-6.54-2.09 1.78 7.43.8 9.34-.83 30.34-25.88 103.16 2.26 137.96 9.61 35.02 7.39 70.03 14.79 105.05 22.18 72.72 15.35 145.45 30.71 218.17 46.06 2.38.51 11.28-3.36 8.5-3.94zM536.15 888.07c-46.35-4.75-92.69-9.51-139.04-14.26-2.36-.24-11.84 3.85-6.65 4.38 46.35 4.75 92.69 9.51 139.04 14.26 2.35.24 11.84-3.85 6.65-4.38zM571.59 801.09a2680.07 2680.07 0 0 0-268.64-45.94c-4.58-.55-10.73 5.92-3.78 6.75a2657.48 2657.48 0 0 1 266.29 45.53c3.91.88 12.21-4.98 6.13-6.34zM673.95 776.68c-103.63-5.6-205.42-22.29-305.45-49.88-3.06-.84-12.07 3.76-6.4 5.32 100.75 27.79 203.39 44.43 307.74 50.07 3.71.19 11.04-5.14 4.11-5.51zM712.98 710.73c-122.45-25.92-244.9-51.85-367.35-77.77-5.27-1.12-10.33 6.36-3.5 7.81 122.45 25.92 244.9 51.85 367.35 77.77 5.28 1.12 10.34-6.36 3.5-7.81zM831.05 651.13c-136.19-80.97-290.93-120.19-449.22-114.31-3.03.11-11.2 4.82-4.37 4.57 156.5-5.81 309.31 33.39 443.88 113.39 2.67 1.57 11.43-2.63 9.71-3.65zM846.95 566.89c-63.97-28.16-126.25-59.69-186.36-95.39-49.24-29.24-99.06-77.23-156.63-87.32-3.42-.6-12.17 4.74-6.28 5.77 59.87 10.5 116.33 64.43 168.1 94.53C721.73 517 779.54 545.93 838.76 572c3.18 1.4 12.58-3.18 8.19-5.11zM787.21 435.13a3102.072 3102.072 0 0 1-146.17-128.34c-2.61-2.44-12.33 1.47-9.6 4.02 47.38 44.31 96.1 87.09 146.17 128.34 2.78 2.29 12.37-1.74 9.6-4.02zM925.26 467.75A3019.119 3019.119 0 0 1 664.8 126.66c-2.6-3.96-12.44.03-9.45 4.58a3020.295 3020.295 0 0 0 260.46 341.09c3.14 3.57 12.94-.62 9.45-4.58zM1012.56 407.1a6106.241 6106.241 0 0 1-111.4-334.83c-.81-2.7-11.12.16-10.33 2.77a6114.771 6114.771 0 0 0 111.4 334.83c1.01 2.75 11.22-.34 10.33-2.77zM898.4 278.72c-23.74-42.89-41.64-87.81-53.91-135.27-.71-2.76-11.06-.06-10.33 2.77 12.27 47.47 30.16 92.38 53.91 135.27 1.59 2.89 11.45-.75 10.33-2.77zM1071.22 429.84c24.57-112.28 19.72-225.99-14.41-335.78-1.14-3.67-11.44-.81-10.33 2.77 33.93 109.17 38.85 222.54 14.4 334.27-.86 3.93 9.55 2.33 10.34-1.26zM1201.57 340.56c13.27-79.17 20.2-158.66 20.82-238.93.04-5.43-10.43-3.92-10.47.77-.62 80.27-7.55 159.76-20.82 238.93-.88 5.2 9.68 3.91 10.47-.77zM1450.21 250.65c24.97-57.36 42.87-116.48 53.9-178.07.41-2.27-9.74-.64-10.18 1.85-11.02 61.58-28.92 120.71-53.9 178.07-.68 1.56 9.04.78 10.18-1.85zM1545.87 338.7l82-121.21c3.68-5.44-5.97-7.06-8.66-3.09l-82 121.21c-3.68 5.44 5.97 7.06 8.66 3.09zM1805.33 267.87l71.3-53.48c5.6-4.2-3.01-6.39-6.58-3.72l-71.3 53.48c-5.6 4.2 3.01 6.4 6.58 3.72z"/><path class="st1" d="M1803.47 396.83c1.89 0 5.87-.76 6.87-2.63 1.05-1.97-.9-2.31-2.61-2.31-1.89 0-5.87.76-6.87 2.63-1.05 1.97.9 2.31 2.61 2.31z"/><path class="st0" d="M1680.56 435.24c74.87-42.77 149.75-85.54 224.62-128.31 6.03-3.44-3.08-4.8-6.37-2.92-74.87 42.77-149.75 85.54-224.62 128.31-6.03 3.45 3.08 4.8 6.37 2.92zM1666.74 394.81c53.35-46.34 100.1-98.66 140.2-156.83 1.39-2.01-1.19-3.2-2.85-3.22-7.15-.1-14.3-.21-21.46-.31-4.06-.06-10.92 5.99-3.96 6.09 22.98.33 4.19 17.76-3.92 28.52a784.103 784.103 0 0 1-41.41 50.45c-23.35 26.14-48.5 50.43-74.95 73.4-4.51 3.95 5.68 4.22 8.35 1.9zM1495.76 481.44a2999.597 2999.597 0 0 0 233.16-294.66c.44-.63-8.46-.49-10.16 1.94a2998.414 2998.414 0 0 1-233.16 294.66c-.26.29 8.12.32 10.16-1.94zM1456.33 373.95c61.23-83.74 97.71-179.57 107.28-282.86.48-5.19-10.03-3.7-10.45.84-9.43 101.78-45.11 196.6-105.44 279.12-3.84 5.26 5.89 6.62 8.61 2.9zM1439.88 283.13a3071.548 3071.548 0 0 0 64.38-217.41c.92-3.58-9.44-2.06-10.31 1.35a3061.038 3061.038 0 0 1-64.38 217.41c-1.13 3.35 9.18 2.03 10.31-1.35zM1325.72 244.09c7.16-78.28 3.71-155.27-10.43-232.6-.77-4.21-11.14-1.64-10.33 2.77 13.99 76.55 17.44 153.36 10.36 230.85-.45 4.81 10.02 3.11 10.4-1.02zM1247.37 272.81c-1-65.06-6.75-129.42-17.33-193.63-.83-5.03-11.18-2.39-10.33 2.77a1296.82 1296.82 0 0 1 17.16 191.54c.09 5.61 10.57 4.23 10.5-.68zM995.26 793.57c-3.95 6.91-7.89 13.83-11.84 20.74-2.51 4.39 7.87 3.58 9.67.42 3.95-6.91 7.89-13.83 11.84-20.74 2.52-4.4-7.86-3.58-9.67-.42zM982.78 872.9c-4.86-2.31-9.71-4.63-14.57-6.94-2.3-1.09-9.73.29-9.3 3.8 1.57 12.66 15.94 18.11 27 14.51 1.39-.45 5.08-1.69 4.52-3.8-.54-2-4.54-1.44-5.81-1.03-7.49 2.44-14.54-5.71-15.38-12.45-3.1 1.27-6.2 2.53-9.3 3.8 4.86 2.31 9.71 4.63 14.57 6.94 2.87 1.36 12.35-2.89 8.27-4.83zM968 895.53c2.14 0 11.66-4.1 6.73-4.1-2.14-.01-11.66 4.1-6.73 4.1z"/><path class="st1" d="M1001.52 939.49c2.2 0 5.75-.65 6.78-2.95.95-2.12-.82-3.53-2.93-3.53-2.2 0-5.75.65-6.78 2.95-.95 2.12.82 3.53 2.93 3.53zM1061.89 952.87c1.85 0 5.89-.77 6.88-2.58 1.06-1.93-.91-2.13-2.56-2.13-1.85 0-5.89.77-6.88 2.58-1.06 1.93.92 2.13 2.56 2.13z"/><path class="st1" d="M1069.23 953.66c2.16 0 5.76-.67 6.8-2.91.97-2.1-.83-3.37-2.89-3.37-2.16 0-5.76.67-6.8 2.91-.97 2.1.84 3.37 2.89 3.37z"/><path class="st0" d="M1075.44 955.24c-13.54-2.83-27.07-5.67-40.61-8.5-1.41-.29-11.53 1.43-9.05 3.99 2.82 2.92 5.64 5.83 8.46 8.75 2.01 2.08 11.65-1.65 9.69-3.67-2.82-2.92-5.64-5.83-8.46-8.75-3.02 1.33-6.03 2.66-9.05 3.99 13.54 2.83 27.07 5.67 40.61 8.5 2.23.47 5.32.08 7.25-1.22.75-.5 3.67-2.56 1.16-3.09z"/><path class="st1" d="M1045.74 1000.51c5.8 0 8.02-7.29.99-7.29-5.8 0-8.02 7.29-.99 7.29z"/><path class="st0" d="M1019.67 1051.72c1.19 2.38 2.38 4.75 3.57 7.13 2.1 4.21 12.27 1.11 10.33-2.77-1.19-2.38-2.38-4.75-3.57-7.13-2.1-4.2-12.26-1.1-10.33 2.77zM1034.92 1087.93l39.4 9.96c2.51.64 11.61-3.38 8.44-4.18l-39.4-9.96c-2.51-.64-11.61 3.38-8.44 4.18zM1068.23 1101.54c-5.94-2.38-11.88-4.75-17.83-7.13-2.18-.87-5.33.01-7.27 1.13-1.2.69-3.31 2.53-1.07 3.43 5.94 2.38 11.88 4.75 17.83 7.13 2.18.87 5.33-.01 7.27-1.13 1.19-.69 3.31-2.53 1.07-3.43zM1053.01 1131.74c2.65-1.21 7.57 2.17 9.43 3.77 2.9 2.5 4.8 5.74 5.6 9.46 1.82 8.41-1.97 16.77-7.29 23.07-2.18 2.58 7.7 1.36 9.39-.64 7.47-8.83 12.73-22.48 4.66-32.72-6.93-8.8-18.4-8.86-27.81-4.54-1.63.75-2.77 1.71-1.22 2.87 1.5 1.13 5.85-.63 7.24-1.27zM1061.91 1204.94c.61 9.66 8.08 13.72 16.96 13.6 3.07-.04 7.93-3.62 4.51-6.49l-68.75-57.71c-3.31-2.78-12.46 2.04-8.01 5.78l68.75 57.71 4.51-6.49c-5.58-1.48-8.13-4.54-7.64-9.17-.27-4.41-10.63-2.02-10.33 2.77z"/><path class="st1" d="M880.33 1096.45c2.23 0 5.74-.64 6.77-2.99.94-2.13-.81-3.68-2.97-3.68-2.23 0-5.74.64-6.77 2.99-.93 2.13.82 3.68 2.97 3.68zM969.28 1063.68c1.97 0 5.82-.73 6.85-2.7 1.05-2.01-.9-2.58-2.68-2.58-1.97 0-5.82.73-6.85 2.7-1.05 2.01.9 2.58 2.68 2.58z"/><path class="st0" d="M1323.79 1037.22c3.88 9.23 13.19 14.02 23.15 11.44 2.05-.53 3.87-1.85 5.83-2.5 7.46-2.47 10.82.06 17.65 3.44l31.11 15.36c3.45 1.7 12.77-3.13 8.1-5.43-14.27-7.05-30.07-18.03-45.43-22.16-10.75-2.89-24.18 11.13-30.09-2.91-1.69-4.05-11.91-1.01-10.32 2.76zM1430.58 1077.28l14.26 3.57c2.24.56 5.21-.34 7.22-1.33.89-.44 3.54-2.07 1.28-2.64l-14.26-3.57c-2.24-.56-5.21.34-7.22 1.33-.89.44-3.54 2.08-1.28 2.64zM1437.85 1088.89c-31.91-13.55-47.92 32.04-13.31 30.21 2.08-.11 11.07-4.66 5.32-5.2-31.12-2.89-61.94-1.92-92.59 4.58-9.86 2.09-41.9 5.6-47.86 17.78-6.77 13.84 16.02 27.46 25.91 33.03 10.98 6.18 25.39 6.2 35.69 12.25 19.88 11.68 3.73 16.05-11.57 18.32-18.22 2.7-36.31 2.44-54.63.7-2.88-.27-12.01 4.6-6.46 5.13 32.46 3.08 62.99.26 94.31-8.78 1.51-.44 4.79-1.54 4.56-3.63-2.2-20.47-35.65-19.53-49.85-26.52-4.83-2.38-17.97-8.86-20.42-14.45-10.4-23.74 17.72-26.15 29.46-28.7 14.13-3.07 28.39-5.17 42.85-5.92 3.78-.11 7.55-.23 11.33-.34 16.88 2.68 29.85-5.26 38.93-23.81 2.77 1.17 12.22-3 8.33-4.65z"/><path class="st0" d="M1271.71 1221.18c44.29-11.31 89.12-17.2 134.82-17.72 2.26-.03 11.69-4.38 6.67-4.32-48.28.55-95.61 6.76-142.39 18.7-6.02 1.53-5.2 4.9.9 3.34zM1159.77 1099.2c3.57 1.19 7.13 2.38 10.7 3.57 2.39.8 5.18.42 7.32-.95 1.14-.74 3.35-3.26.89-4.08-3.57-1.19-7.13-2.38-10.7-3.57-2.39-.8-5.18-.42-7.32.95-1.14.74-3.35 3.27-.89 4.08zM1190.48 1038.25l-17.52-57.13c-.79-2.59-11.09.3-10.33 2.77l17.52 57.13c.79 2.58 11.09-.31 10.33-2.77z"/><path class="st1" d="M1146.24 948.97c2.22 0 5.54-.48 7.31-1.96 1.28-1.07 1.74-2.07-.56-2.07-2.22 0-5.54.48-7.31 1.96-1.27 1.07-1.73 2.07.56 2.07zM1229.57 914.07c2.02 0 5.8-.72 6.84-2.75 1.03-2.04-.88-2.79-2.73-2.79-2.02 0-5.8.72-6.84 2.76s.87 2.78 2.73 2.78zM1284.69 893.88c6.04 0 7.81-7.95.81-7.95-6.04.01-7.81 7.95-.81 7.95zM1329.38 860.58c2.02 0 5.81-.72 6.84-2.75 1.04-2.04-.88-2.76-2.73-2.76-2.02 0-5.81.72-6.84 2.75-1.03 2.03.89 2.76 2.73 2.76zM1315.28 818.38c2.23 0 5.74-.64 6.77-2.99.93-2.13-.81-3.69-2.97-3.69-2.23 0-5.74.64-6.77 2.99-.94 2.13.81 3.69 2.97 3.69zM1354.49 779.15c2.23 0 5.74-.64 6.78-2.98.94-2.13-.81-3.66-2.97-3.66-2.23 0-5.74.64-6.78 2.98-.93 2.12.82 3.66 2.97 3.66zM1393.64 786.03c2.13 0 5.77-.67 6.8-2.88.98-2.1-.84-3.27-2.86-3.27-2.13 0-5.77.68-6.8 2.88-.98 2.1.84 3.27 2.86 3.27zM1503.95 820.89c3.06 0 11.21-4.56 4.37-4.56-3.07 0-11.22 4.56-4.37 4.56zM1522.1 936.2c2.3 0 5.73-.62 6.75-3.06.9-2.14-.8-3.95-3.05-3.95-2.3 0-5.73.62-6.75 3.06-.9 2.14.81 3.95 3.05 3.95zM1589.71 967.79c2.11 0 5.78-.68 6.81-2.86.99-2.09-.85-3.17-2.84-3.17-2.11 0-5.78.68-6.81 2.86-.99 2.08.85 3.17 2.84 3.17z"/><path class="st1" d="M1521.96 932.1c2.1 0 5.78-.69 6.81-2.84 1-2.08-.85-3.1-2.82-3.1-2.1 0-5.78.69-6.81 2.84-1 2.07.85 3.1 2.82 3.1zM1422.25 814.89c2.26 0 5.73-.63 6.76-3.02.92-2.14-.81-3.81-3.01-3.81-2.26 0-5.73.63-6.76 3.02-.91 2.14.81 3.81 3.01 3.81zM1379.46 768.5c2.24 0 5.74-.64 6.77-3 .93-2.13-.81-3.73-2.99-3.73-2.24 0-5.74.64-6.77 3-.93 2.13.81 3.73 2.99 3.73zM1304.46 728.79c2.06 0 5.79-.7 6.83-2.8 1.02-2.06-.86-2.95-2.78-2.95-2.06 0-5.79.7-6.83 2.8-1.01 2.06.87 2.95 2.78 2.95zM1164.09 756.51c2.29 0 5.46-.47 7.31-1.96 1.33-1.07 1.68-2.19-.59-2.19-2.29 0-5.46.47-7.31 1.96-1.33 1.07-1.68 2.19.59 2.19zM1151.06 803.29c1.91 0 5.86-.75 6.87-2.64 1.05-1.98-.89-2.37-2.62-2.37-1.91 0-5.86.75-6.87 2.64-1.05 1.98.9 2.37 2.62 2.37z"/><path class="st0" d="M1237.18 945.65c2.37-1.19 4.75-2.39 7.12-3.58 1.65-.83 4.06-2.73 2.59-4.76-1.38-1.9-5.2-1.32-6.93-.45-2.37 1.19-4.75 2.39-7.12 3.58-1.65.83-4.06 2.73-2.59 4.76 1.38 1.9 5.2 1.32 6.93.45zM1190.04 974.15l-3.57-21.39c-.34-2.02-10.76.23-10.33 2.77l3.57 21.39c.34 2.03 10.76-.23 10.33-2.77z"/><path class="st1" d="M1133.19 813.8c3.11 0 11.2-4.65 4.34-4.65-3.11 0-11.2 4.65-4.34 4.65zM1176 799.65c1.88 0 5.87-.76 6.87-2.62 1.05-1.96-.9-2.26-2.59-2.26-1.88 0-5.87.76-6.87 2.62-1.06 1.96.9 2.26 2.59 2.26z"/><path class="st0" d="M1217.98 701.02c15.45 4.75 30.9 9.51 46.35 14.26 4.69 1.44 12.15-5.33 5.89-7.25-15.45-4.75-30.9-9.51-46.35-14.26-4.69-1.45-12.16 5.32-5.89 7.25z"/><path class="st1" d="M1410.1 756.61c2.3 0 5.47-.41 7.31-1.96 1.29-1.1 1.68-2.38-.64-2.38-2.3 0-5.47.41-7.31 1.96-1.29 1.09-1.67 2.38.64 2.38zM1488.54 827.92c2.31 0 5.47-.4 7.31-1.96 1.29-1.1 1.68-2.41-.65-2.41-2.31 0-5.47.4-7.31 1.96-1.28 1.1-1.67 2.41.65 2.41zM1582.64 918.12c2.2 0 5.75-.65 6.78-2.96.95-2.12-.82-3.56-2.94-3.56-2.2 0-5.75.65-6.78 2.96-.95 2.12.82 3.56 2.94 3.56z"/><path class="st0" d="M1573.03 990.11c-3.56 1.21-7.11 2.42-10.67 3.64-1.91.65-4.93 2.25-4.26 4.78.63 2.35 4.2 2.65 6.08 2.01 3.56-1.21 7.11-2.42 10.67-3.64 1.91-.65 4.93-2.25 4.26-4.78-.64-2.35-4.21-2.65-6.08-2.01z"/><path class="st1" d="M1434.4 1047.12c5.99 0 7.85-7.81.85-7.81-5.99-.01-7.85 7.81-.85 7.81zM1367.31 1105.93c2.29 0 5.47-.45 7.31-1.96 1.32-1.08 1.68-2.26-.61-2.26s-5.47.45-7.31 1.96c-1.32 1.07-1.68 2.26.61 2.26z"/><path class="st0" d="m1168.11 1094.3 3.57-3.57c1.66-1.66.93-3.61-1.16-4.31-2.34-.79-5.6.25-7.31 1.96l-3.57 3.57c-1.66 1.66-.93 3.61 1.16 4.31 2.35.79 5.61-.26 7.31-1.96z"/><path class="st1" d="M1140.56 1181.9c2.19 0 5.75-.66 6.79-2.94.96-2.11-.82-3.49-2.92-3.49-2.19 0-5.75.66-6.79 2.94-.96 2.11.82 3.49 2.92 3.49zM1153.42 1227.22c2.31 0 5.47-.4 7.31-1.96 1.29-1.1 1.68-2.42-.65-2.42-2.31 0-5.47.4-7.31 1.96-1.29 1.1-1.67 2.42.65 2.42z"/><path class="st0" d="M1200.14 1285.65c2.38 1.19 4.75 2.38 7.13 3.57 4.4 2.2 11.82-4.19 5.91-7.15-2.38-1.19-4.75-2.38-7.13-3.57-4.4-2.2-11.82 4.19-5.91 7.15zM1268.41 1306.74l3.57-3.57c1.69-1.69-1.48-2-2.51-1.96-2.24.07-5.25.89-6.89 2.54l-3.57 3.57c-1.69 1.69 1.48 2 2.51 1.96 2.24-.07 5.24-.89 6.89-2.54zM1323.29 1312.29c5.94-1.19 11.88-2.38 17.83-3.57 1.01-.2 6.11-1.23 6.1-2.66-.02-1.59-3.05-.93-4.06-.73-5.94 1.19-11.88 2.38-17.83 3.57-1.01.2-6.11 1.23-6.1 2.66.02 1.59 3.05.93 4.06.73zM1374.86 1325.91l7.13-7.13c1.62-1.62 1-3.42-1.09-4.08-2.29-.72-5.63.28-7.31 1.96l-7.13 7.13c-1.62 1.62-1 3.42 1.09 4.08 2.29.72 5.63-.28 7.31-1.96z"/><path class="st1" d="M1502.08 1267.93c5.82 0 7.99-7.36.97-7.36-5.82-.01-7.99 7.36-.97 7.36zM1484.35 1261.17c6.09 0 7.76-8.1.77-8.1-6.08 0-7.76 8.1-.77 8.1zM1546.83 1209.85c1.98 0 5.82-.73 6.85-2.7 1.05-2.01-.9-2.59-2.68-2.59-1.98 0-5.82.73-6.85 2.7-1.06 2.01.89 2.59 2.68 2.59z"/><path class="st0" d="M1564.75 1206.48c1.19-2.38 2.38-4.75 3.57-7.13 1.02-2.04-3.53-1.96-4.36-1.86-2.18.27-4.88 1.23-5.92 3.31-1.19 2.38-2.38 4.75-3.57 7.13-1.02 2.04 3.53 1.96 4.36 1.86 2.17-.28 4.88-1.23 5.92-3.31z"/><path class="st1" d="M1544.89 1178.9c5.9 0 7.93-7.56.92-7.56-5.9 0-7.94 7.56-.92 7.56z"/><path class="st0" d="M1633.1 1148.72c7.63 11.4 27.49 8.57 34.33-2.2 2.58-4.06-7.78-3.18-9.63-.26-3.93 6.19-11.55 3.72-15.11-1.6-1.94-2.92-11.97.5-9.59 4.06z"/><path class="st1" d="M1631.13 1070.31c2.3 0 5.47-.43 7.31-1.96 1.3-1.09 1.68-2.33-.62-2.33s-5.47.43-7.31 1.96c-1.3 1.09-1.68 2.33.62 2.33zM1521.83 1084.94c1.91 0 5.86-.75 6.87-2.65 1.05-1.98-.89-2.38-2.62-2.38-1.91 0-5.86.75-6.87 2.65-1.05 1.98.89 2.38 2.62 2.38zM1518.42 1149.69c2.14 0 5.77-.67 6.8-2.89.98-2.1-.84-3.29-2.87-3.29-2.14 0-5.77.67-6.8 2.89-.97 2.09.84 3.29 2.87 3.29z"/><path class="st0" d="M1473.31 1213.54c2.37 1.19 4.75 2.39 7.12 3.58 2.87 1.44 12.37-2.79 8.26-4.86-2.37-1.19-4.75-2.39-7.12-3.58-2.87-1.44-12.38 2.79-8.26 4.86z"/><path class="st1" d="M1536.31 1167.72c2.22 0 5.75-.65 6.78-2.97.94-2.12-.82-3.62-2.96-3.62-2.22 0-5.75.65-6.78 2.97-.94 2.12.82 3.62 2.96 3.62zM1518.44 1046.34c2.16 0 5.76-.67 6.8-2.9.97-2.1-.83-3.35-2.89-3.35-2.16 0-5.76.67-6.8 2.9-.97 2.1.83 3.35 2.89 3.35zM1464.73 992c3.05 0 11.21-4.54 4.37-4.54-3.05 0-11.21 4.54-4.37 4.54z"/><path class="st0" d="M1364.88 994.1c-2.38 1.19-4.75 2.38-7.13 3.57-1.74.87-4.01 2.89-2.54 4.96 1.4 1.97 5.16 1.47 6.96.56 2.38-1.19 4.75-2.38 7.13-3.57 1.74-.87 4.01-2.89 2.54-4.96-1.4-1.97-5.16-1.46-6.96-.56zM1320.39 934.26c10.7-7.13 21.39-14.26 32.09-21.39 5.8-3.87-3.09-5.36-6.43-3.13-10.7 7.13-21.39 14.26-32.09 21.39-5.8 3.86 3.09 5.35 6.43 3.13zM1379.42 878.7c1.19-5.94 2.38-11.88 3.57-17.83.91-4.54-9.58-3.04-10.4 1.04-1.19 5.94-2.38 11.88-3.57 17.83-.91 4.53 9.59 3.03 10.4-1.04z"/><path class="st1" d="M1395.83 806.46c2.29 0 5.47-.45 7.31-1.96 1.32-1.08 1.68-2.26-.61-2.26s-5.47.45-7.31 1.96c-1.31 1.07-1.68 2.26.61 2.26z"/><path class="st0" d="M1283.13 799.4c-1.19-2.38-2.38-4.75-3.57-7.13-1.43-2.86-11.39.65-10.33 2.77 1.19 2.38 2.38 4.75 3.57 7.13 1.43 2.85 11.39-.66 10.33-2.77zM1140.52 706.71c-1.19-2.38-2.38-4.75-3.57-7.13-1.82-3.64-11.9-.37-10.33 2.77 1.19 2.38 2.38 4.75 3.57 7.13 1.82 3.63 11.9.36 10.33-2.77zM1095.75 746.36c3.58 2.36 7.15 4.72 10.73 7.07 3.31 2.18 12.65-2.5 8.09-5.5-3.58-2.36-7.15-4.72-10.73-7.07-3.31-2.19-12.64 2.49-8.09 5.5z"/><path class="st1" d="M1040.79 832.74c2.27 0 5.73-.63 6.76-3.03.92-2.14-.8-3.85-3.02-3.85-2.27 0-5.73.63-6.76 3.03-.91 2.14.81 3.85 3.02 3.85zM912.13 906.44c3.04 0 11.21-4.53 4.37-4.53-3.04-.01-11.21 4.53-4.37 4.53zM999.45 997.16c5.96 0 7.88-7.73.87-7.73-5.96 0-7.88 7.73-.87 7.73zM1031.46 1160.89c5.76 0 8.05-7.19 1.02-7.19-5.76 0-8.05 7.19-1.02 7.19zM1158.31 1245.81c2.09 0 5.78-.69 6.82-2.83 1-2.08-.85-3.08-2.81-3.08-2.09 0-5.78.69-6.82 2.83-1 2.08.85 3.08 2.81 3.08zM1253.23 1287.79c2.3 0 5.47-.42 7.31-1.96 1.3-1.09 1.68-2.35-.63-2.35-2.3 0-5.47.42-7.31 1.96-1.29 1.09-1.67 2.35.63 2.35zM1222.51 1274.44c2.13 0 5.77-.68 6.8-2.88.98-2.09-.84-3.26-2.86-3.26-2.13 0-5.77.68-6.8 2.88-.98 2.1.84 3.26 2.86 3.26zM1078.49 1202.03c2.22 0 5.53-.52 7.31-1.96 1.3-1.06 1.74-1.96-.53-1.96-2.22 0-5.53.52-7.31 1.96-1.3 1.06-1.74 1.96.53 1.96zM1054.83 1149.22c1.97 0 5.82-.74 6.85-2.69 1.06-2.01-.9-2.55-2.67-2.55-1.97 0-5.82.74-6.85 2.69-1.05 2.01.9 2.55 2.67 2.55z"/><path class="st0" d="M1067.1 1061.25c9.41-1.35 17.97-9.11 15.85-19.28-.9-4.33-11.26-1.7-10.33 2.77.63 3.05-.49 9.06-4.43 9.62-2.05.29-5.51 1.41-5.76 3.93-.22 2.42 2.78 3.23 4.67 2.96z"/><path class="st1" d="M905.29 982.35c2.22 0 5.74-.64 6.78-2.98.94-2.13-.81-3.65-2.96-3.65-2.22 0-5.74.64-6.78 2.98-.95 2.13.81 3.65 2.96 3.65zM677.06 885.88c2.14 0 5.77-.67 6.8-2.89.98-2.1-.84-3.31-2.87-3.31-2.14 0-5.77.67-6.8 2.89-.98 2.1.83 3.31 2.87 3.31zM750.55 970.47c2.3 0 5.47-.44 7.31-1.96 1.31-1.08 1.68-2.3-.62-2.3s-5.47.44-7.31 1.96c-1.31 1.09-1.68 2.3.62 2.3z"/><path class="st0" d="M780.09 1057.86c-2.38 1.19-4.75 2.38-7.13 3.57-6.29 3.14-.68 9.02 4.65 6.36 2.38-1.19 4.75-2.38 7.13-3.57 6.29-3.15.68-9.03-4.65-6.36z"/><path class="st1" d="M769.6 1117.03c1.91 0 5.86-.75 6.86-2.65 1.05-1.98-.89-2.39-2.63-2.39-1.91 0-5.86.75-6.86 2.65-1.04 1.98.89 2.39 2.63 2.39zM851.6 1166.95c1.92 0 5.86-.75 6.86-2.65 1.05-1.98-.89-2.41-2.63-2.41-1.92 0-5.86.75-6.86 2.65-1.05 1.99.89 2.41 2.63 2.41zM823.18 1202.98c2.07 0 5.79-.7 6.82-2.81 1.01-2.07-.86-3-2.79-3-2.07 0-5.79.7-6.82 2.81-1.01 2.07.86 3 2.79 3zM855.27 1242.23c2.08 0 5.78-.69 6.82-2.82 1.01-2.07-.86-3.05-2.8-3.05-2.08 0-5.78.69-6.82 2.82-1.01 2.07.86 3.05 2.8 3.05z"/><path class="st0" d="m842.23 1266.79 35.65-3.57c4.78-.48 8.8-5.81 1.58-5.09l-35.65 3.57c-4.78.48-8.8 5.81-1.58 5.09z"/><path class="st1" d="M919.39 1338.28c2.01 0 5.81-.72 6.84-2.74 1.04-2.03-.88-2.72-2.72-2.72-2.01 0-5.81.72-6.84 2.74-1.04 2.03.89 2.72 2.72 2.72zM917.37 1399.72c5.74 0 8.07-7.14 1.03-7.14-5.74.01-8.06 7.14-1.03 7.14z"/><path class="st0" d="M910.27 1409.16c-3.73 4.35-8.25 12.01-1.88 16.26 4.37 2.92 12.65 1.89 14.42-3.66 1.81-5.68-8.48-5.59-9.88-1.19.2-.62 3.25-.8 3.42-1.12-.21.4-.64-1.75-.63-1.64-.14-2.06 1.98-4.16 3.2-5.59 4.24-4.95-5.59-6.64-8.65-3.06zM995.77 1471.83c2.38-1.19 4.75-2.38 7.13-3.57 1.36-.68 3.06-1.86 1.21-2.89-1.74-.97-5.67.49-7.24 1.27-2.38 1.19-4.75 2.38-7.13 3.57-1.36.68-3.06 1.86-1.21 2.89 1.74.97 5.67-.49 7.24-1.27zM1094.28 1481.65h3.57c2.33 0 5.67-.63 6.76-3.06.96-2.14-.84-3.93-3.04-3.93H1098c-2.33 0-5.67.63-6.76 3.06-.95 2.13.85 3.93 3.04 3.93z"/><path class="st1" d="M1151.01 1523.24c3.1 0 11.2-4.62 4.35-4.62-3.1.01-11.2 4.62-4.35 4.62z"/><path class="st0" d="M1201.21 1563.36v-3.57c0-5.53-10.48-4.1-10.48.72v3.57c-.01 5.53 10.48 4.1 10.48-.72z"/><path class="st1" d="M1363.01 1563.72c5.74 0 8.07-7.13 1.03-7.13-5.73 0-8.07 7.13-1.03 7.13zM1368.66 1541.73c2.09 0 5.78-.69 6.82-2.84 1-2.08-.85-3.09-2.82-3.09-2.09 0-5.78.69-6.82 2.84-1 2.07.85 3.09 2.82 3.09zM1261.83 1542.19c2.27 0 5.73-.63 6.76-3.03.92-2.14-.8-3.84-3.01-3.84-2.27 0-5.73.63-6.76 3.03-.92 2.14.8 3.84 3.01 3.84zM1159.81 1574.46c5.77 0 8.04-7.22 1.01-7.22-5.77-.01-8.04 7.22-1.01 7.22zM1072.75 1645.1c2.09 0 5.78-.69 6.82-2.83 1-2.08-.85-3.07-2.81-3.07-2.09 0-5.78.69-6.82 2.83-1 2.07.85 3.07 2.81 3.07z"/><path class="st0" d="m1070.48 1740.64-3.57 3.57c-1.71 1.71-.84 3.87 1.24 4.62 2.42.88 5.56-.21 7.31-1.96l3.57-3.57c1.71-1.71.84-3.87-1.24-4.62-2.42-.88-5.57.22-7.31 1.96z"/><path class="st1" d="M1172.64 1763.01c2.19 0 5.75-.66 6.79-2.94.96-2.11-.82-3.49-2.92-3.49-2.19 0-5.75.66-6.79 2.94-.96 2.12.83 3.49 2.92 3.49z"/><path class="st0" d="M1290.19 1741.06c1.19-3.57 2.38-7.13 3.57-10.7.64-1.92-9.31-.82-10.19 1.82-1.19 3.57-2.38 7.13-3.57 10.7-.64 1.93 9.31.83 10.19-1.82zM1407.88 1677.07c2.38-13.07 4.75-26.14 7.13-39.22.63-3.47-9.7-1.72-10.28 1.47-2.38 13.07-4.75 26.14-7.13 39.22-.63 3.46 9.71 1.71 10.28-1.47z"/><path class="st1" d="M1400.58 1573.21c1.85 0 5.89-.77 6.88-2.58 1.06-1.93-.91-2.13-2.56-2.13-1.85 0-5.89.77-6.88 2.58-1.06 1.92.91 2.13 2.56 2.13z"/><path class="st0" d="M1421.25 1576.96c3.57-1.19 7.13-2.38 10.7-3.57 1.46-.49 5.07-1.75 4.48-3.93-.55-2.06-4.49-1.62-5.85-1.17-3.57 1.19-7.13 2.38-10.7 3.57-1.46.49-5.07 1.75-4.48 3.93.55 2.06 4.49 1.63 5.85 1.17zM1505.52 1569.53c2.38 1.19 4.75 2.38 7.13 3.57 2.53 1.27 12.05-2.64 8.36-4.49-2.38-1.19-4.75-2.38-7.13-3.57-2.54-1.27-12.05 2.64-8.36 4.49z"/><path class="st1" d="M1589.56 1623.23c1.89 0 5.87-.76 6.87-2.63 1.05-1.97-.9-2.31-2.61-2.31-1.89 0-5.87.76-6.87 2.63-1.05 1.97.9 2.31 2.61 2.31zM1589.79 1545.66c2.23 0 5.74-.64 6.77-2.99.94-2.13-.81-3.68-2.97-3.68-2.23 0-5.74.64-6.77 2.99-.94 2.13.81 3.68 2.97 3.68zM1489.96 1467.21c2.22 0 5.74-.64 6.78-2.98.94-2.13-.81-3.65-2.96-3.65-2.22 0-5.74.64-6.78 2.98-.94 2.12.81 3.65 2.96 3.65zM1525.6 1438.64c2.21 0 5.75-.65 6.78-2.96.95-2.12-.82-3.57-2.94-3.57-2.21 0-5.75.65-6.78 2.96-.95 2.12.82 3.57 2.94 3.57zM1715.99 1410.54c5.83 0 7.99-7.38.97-7.38-5.83 0-8 7.38-.97 7.38z"/><path class="st0" d="M1750.16 1405.47v-3.57c0-1.7-10.33-.23-10.33 2.77v3.57c0 1.7 10.33.23 10.33-2.77zM1653.9 1380.51v-21.39c0-2.98-10.33-1.11-10.33 2.77v21.39c0 2.98 10.33 1.11 10.33-2.77z"/><path class="st1" d="M1682.45 1320.93c2.19 0 5.75-.66 6.79-2.94.96-2.11-.82-3.48-2.92-3.48-2.19 0-5.75.66-6.79 2.94-.96 2.11.83 3.48 2.92 3.48zM1826.55 1278.79c5.94 0 7.89-7.69.88-7.69-5.94 0-7.89 7.69-.88 7.69z"/><path class="st0" d="M1860.54 1234.76h3.57c1.96 0 5.83-.74 6.86-2.68 1.06-2-.9-2.51-2.66-2.51h-3.57c-1.96 0-5.83.74-6.86 2.68-1.06 2 .91 2.51 2.66 2.51z"/><path class="st1" d="M1821.27 1152.55c1.86 0 5.88-.77 6.88-2.6 1.06-1.94-.91-2.18-2.57-2.18-1.86 0-5.88.77-6.88 2.6-1.06 1.94.91 2.18 2.57 2.18zM1826.48 1039.68c5.76 0 8.05-7.2 1.01-7.2-5.76 0-8.04 7.2-1.01 7.2zM1785.74 939.09c2.04 0 5.8-.71 6.83-2.78 1.02-2.05-.87-2.89-2.76-2.89-2.04 0-5.8.71-6.83 2.78-1.02 2.06.87 2.89 2.76 2.89z"/><path class="st0" d="M1745.8 848.54c-1.19-2.37-2.39-4.75-3.58-7.12-2.18-4.33-11.96-.37-9.43 4.66 1.19 2.37 2.39 4.75 3.58 7.12 2.18 4.32 11.96.37 9.43-4.66zM1759 784.9c5.94-4.75 11.88-9.51 17.83-14.26 5.46-4.37-3.03-6.77-6.63-3.89-5.94 4.75-11.88 9.51-17.83 14.26-5.46 4.37 3.03 6.77 6.63 3.89z"/><path class="st1" d="M1835.78 793.42c2.23 0 5.74-.64 6.77-2.99.94-2.13-.81-3.67-2.97-3.67-2.23 0-5.74.64-6.77 2.99-.93 2.12.82 3.67 2.97 3.67zM1921.3 832.46c2.17 0 5.76-.66 6.79-2.92.97-2.11-.83-3.4-2.9-3.4-2.17 0-5.76.66-6.79 2.92-.96 2.11.83 3.4 2.9 3.4z"/><path class="st0" d="M1947.78 808.6c-3.57-1.19-7.13-2.38-10.7-3.57-3.38-1.13-12.08 3.82-6.29 5.75 3.57 1.19 7.13 2.38 10.7 3.57 3.39 1.13 12.09-3.81 6.29-5.75z"/><path class="st1" d="M1764.5 722.18c2.25 0 5.74-.63 6.77-3.01.92-2.13-.81-3.77-3-3.77-2.25 0-5.74.63-6.77 3.01-.92 2.13.81 3.77 3 3.77zM1627.55 663.83c2.29 0 5.46-.46 7.31-1.96 1.32-1.07 1.68-2.22-.59-2.22-2.29 0-5.46.46-7.31 1.96-1.32 1.07-1.68 2.22.59 2.22zM1568.23 593.12c1.99 0 5.82-.73 6.85-2.72 1.05-2.02-.89-2.65-2.7-2.65-1.99 0-5.82.73-6.85 2.72-1.05 2.03.89 2.65 2.7 2.65z"/><path class="st0" d="m1521.2 519.44-10.59-7.29c-3.31-2.28-12.62 2.41-8.08 5.54l10.59 7.29c3.32 2.28 12.63-2.41 8.08-5.54zM1350.87 503.49l-3.57-14.26c-.65-2.62-11.01.04-10.33 2.77l3.57 14.26c.65 2.62 11.01-.04 10.33-2.77z"/><path class="st1" d="M1311.68 415.41c2.19 0 5.75-.66 6.79-2.94.96-2.11-.82-3.5-2.92-3.5-2.19 0-5.75.66-6.79 2.94-.96 2.11.82 3.5 2.92 3.5z"/><path class="st0" d="M1204.4 414.01c-2.38-1.19-4.75-2.38-7.13-3.57-1.88-.94-4.8-.01-6.64.65-.44.16-4.65 2.05-3.11 2.82 2.38 1.19 4.75 2.38 7.13 3.57 1.88.94 4.8.01 6.64-.65.44-.15 4.66-2.04 3.11-2.82z"/><path class="st1" d="M1151.09 471.83c1.96 0 5.83-.74 6.86-2.69 1.06-2-.9-2.52-2.66-2.52-1.96 0-5.83.74-6.86 2.69-1.06 2 .9 2.52 2.66 2.52z"/><path class="st0" d="M1078.79 490.44h-3.57c-5.87 0-7.96 7.49-.94 7.49h3.57c5.87 0 7.95-7.49.94-7.49zM1175.89 542.39 1154.5 521c-1.77-1.77-11.08 2.09-9.76 3.42l21.39 21.39c1.76 1.76 11.08-2.1 9.76-3.42z"/><path class="st1" d="M1033.62 533.12c2.21 0 5.75-.65 6.78-2.97.94-2.12-.82-3.6-2.95-3.6-2.21 0-5.75.65-6.78 2.97-.94 2.12.82 3.6 2.95 3.6zM951.35 549.94c3.06 0 11.21-4.56 4.37-4.56-3.06 0-11.21 4.56-4.37 4.56z"/><path class="st0" d="M876.34 579.8c3.57-4.75 7.13-9.51 10.7-14.26 1.48-1.97-1.27-2.83-2.76-2.89-2.29-.1-5.39.87-6.83 2.78-3.57 4.75-7.13 9.51-10.7 14.26-1.48 1.97 1.27 2.83 2.76 2.89 2.29.1 5.39-.87 6.83-2.78zM937.26 512.33c3.54-7.14 7.08-14.29 10.61-21.43 2.25-4.55-8.07-3.56-9.66-.36-3.54 7.14-7.08 14.29-10.61 21.43-2.25 4.55 8.08 3.56 9.66.36zM976.18 462.23l7.13-10.7c1.37-2.05-1.18-3.01-2.82-3.11-2.26-.14-5.49.85-6.81 2.84l-7.13 10.7c-1.37 2.05 1.18 3.01 2.82 3.11 2.26.14 5.48-.85 6.81-2.84z"/><path class="st1" d="M944.3 446.82c1.92 0 5.86-.74 6.86-2.66 1.04-1.99-.89-2.44-2.64-2.44-1.92 0-5.86.74-6.86 2.66-1.05 1.99.89 2.44 2.64 2.44zM804.05 439.36c2.31 0 5.48-.38 7.31-1.96 1.28-1.11 1.67-2.47-.66-2.47-2.31 0-5.48.38-7.31 1.96-1.28 1.1-1.68 2.47.66 2.47z"/><path class="st0" d="M891 575.65v-3.57c0-4.82-10.39-2.9-10.39 1.06v3.57c-.01 4.82 10.39 2.9 10.39-1.06z"/><path class="st1" d="M837.39 596.74c2.01 0 5.81-.72 6.84-2.74 1.04-2.03-.88-2.72-2.72-2.72-2.01 0-5.81.72-6.84 2.74-1.03 2.03.89 2.72 2.72 2.72z"/><path class="st0" d="M794.56 656.16c1.16 3.57 2.32 7.15 3.48 10.72 1.42 4.37 11.72 1.52 10.33-2.77-1.16-3.57-2.32-7.15-3.48-10.72-1.41-4.37-11.72-1.52-10.33 2.77z"/><path class="st1" d="M805.28 703.58c1.97 0 5.82-.74 6.85-2.69 1.06-2.01-.9-2.55-2.67-2.55-1.97 0-5.82.74-6.85 2.69-1.06 2.01.9 2.55 2.67 2.55z"/><path class="st0" d="M783.67 758.44c-2.38 1.19-4.75 2.38-7.13 3.57-6.29 3.15-.68 8.9 4.62 6.25 2.38-1.19 4.75-2.38 7.13-3.57 6.29-3.15.67-8.9-4.62-6.25zM697.5 755.9l-14.26-3.57c-2.3-.58-5.18.17-7.24 1.25-.91.48-3.54 2.36-1.2 2.95l14.26 3.57c2.3.58 5.18-.17 7.24-1.25.92-.48 3.55-2.36 1.2-2.95zM580.8 710.27c-3.57-8.32-7.13-16.64-10.7-24.96-1.61-3.76-11.8-.65-10.33 2.77 3.57 8.32 7.13 16.64 10.7 24.96 1.61 3.76 11.8.65 10.33-2.77z"/><path class="st1" d="M555.73 717.88c1.98 0 5.82-.73 6.85-2.71 1.05-2.02-.89-2.61-2.69-2.61-1.98 0-5.82.73-6.85 2.71-1.05 2.01.9 2.61 2.69 2.61zM679.22 824.23c2.29 0 5.46-.49 7.31-1.96 1.34-1.06 1.68-2.15-.58-2.15-2.29 0-5.46.49-7.31 1.96-1.33 1.06-1.67 2.15.58 2.15zM748.27 874.85c2.02 0 5.81-.72 6.84-2.75 1.03-2.04-.88-2.77-2.73-2.77-2.02 0-5.81.72-6.84 2.75-1.03 2.03.88 2.77 2.73 2.77zM778.35 947.01c5.78 0 8.03-7.24 1-7.24-5.78 0-8.03 7.24-1 7.24zM652.13 996.48c2.17 0 5.76-.66 6.79-2.93.96-2.11-.83-3.44-2.91-3.44-2.17 0-5.76.66-6.79 2.93-.96 2.11.83 3.44 2.91 3.44zM589.47 1007.88c5.98 0 7.86-7.78.86-7.78-5.98 0-7.87 7.78-.86 7.78zM475.99 1005.97c2.22 0 5.53-.51 7.31-1.96 1.3-1.06 1.74-1.99-.53-1.99-2.22 0-5.53.51-7.31 1.96-1.3 1.06-1.75 1.99.53 1.99z"/><path class="st0" d="M405.91 994.29c-2.38 1.19-4.75 2.38-7.13 3.57-1.64.82-4.07 2.7-2.6 4.72 1.37 1.89 5.21 1.29 6.93.43 2.38-1.19 4.75-2.38 7.13-3.57 1.64-.82 4.07-2.7 2.6-4.72-1.38-1.9-5.21-1.29-6.93-.43zM444.1 1060.76c16.39 5.9 33.3 6.65 50.28 3.05 6.38-1.35 4.74-7.19-1.57-5.85-14.45 3.07-28.68 1.69-42.52-3.29-3.65-1.32-12.08 3.97-6.19 6.09z"/><path class="st1" d="M691.26 1117.39c2.06 0 5.79-.7 6.82-2.8 1.02-2.06-.86-2.95-2.78-2.95-2.06 0-5.79.7-6.82 2.8-1.01 2.06.87 2.95 2.78 2.95zM644.77 1184.59c1.85 0 5.89-.77 6.88-2.58 1.06-1.93-.91-2.1-2.55-2.1-1.85 0-5.89.77-6.88 2.58-1.06 1.92.91 2.1 2.55 2.1zM562.75 1270.07c3.04 0 11.22-4.52 4.38-4.52-3.04 0-11.22 4.52-4.38 4.52zM470.21 1263.52c2.05 0 5.8-.71 6.83-2.78 1.02-2.06-.87-2.9-2.76-2.9-2.05 0-5.8.71-6.83 2.78-1.02 2.06.87 2.9 2.76 2.9z"/><path class="st0" d="m582.32 1374.05 10.7 7.13c3.52 2.35 12.73-2.57 8.03-5.71l-10.7-7.13c-3.52-2.34-12.74 2.58-8.03 5.71z"/><path class="st1" d="M629.28 1430.18c2.21 0 5.53-.53 7.31-1.96 1.31-1.05 1.75-1.92-.51-1.92-2.21 0-5.53.53-7.31 1.96-1.31 1.05-1.75 1.92.51 1.92zM655.69 1484.9c2.17 0 5.76-.66 6.79-2.92.96-2.11-.83-3.43-2.91-3.43-2.17 0-5.76.66-6.79 2.92-.96 2.1.83 3.43 2.91 3.43zM721.32 1538.87c5.82 0 8-7.34.98-7.34-5.82-.01-8.01 7.34-.98 7.34zM627.15 1659.51c2.15 0 5.77-.67 6.8-2.89.98-2.1-.84-3.32-2.87-3.32-2.15 0-5.77.67-6.8 2.89-.98 2.11.83 3.32 2.87 3.32zM652 1701.9c2 0 5.81-.72 6.84-2.73 1.04-2.03-.89-2.7-2.71-2.7-2 0-5.81.72-6.84 2.73-1.04 2.04.89 2.7 2.71 2.7zM716.17 1766.06c2 0 5.81-.73 6.84-2.72 1.04-2.03-.89-2.67-2.7-2.67-2 0-5.81.73-6.84 2.72-1.05 2.02.89 2.67 2.7 2.67zM833.99 1823.75c2.24 0 5.74-.64 6.77-2.99.93-2.13-.81-3.7-2.98-3.7-2.24 0-5.74.64-6.77 2.99-.93 2.13.82 3.7 2.98 3.7zM848.28 1866.63c2.27 0 5.73-.63 6.76-3.03.92-2.14-.8-3.85-3.02-3.85-2.27 0-5.73.63-6.76 3.03-.92 2.14.8 3.85 3.02 3.85z"/><path class="st0" d="m765.8 1893.19-10.7-10.7c-2.72-2.72-12.52 1.2-9.56 4.16l10.7 10.7c2.72 2.72 12.52-1.2 9.56-4.16z"/><path class="st1" d="M520.04 1726.65c1.91 0 5.86-.75 6.87-2.64 1.05-1.98-.89-2.37-2.62-2.37-1.91 0-5.86.75-6.87 2.64-1.05 1.98.89 2.37 2.62 2.37z"/><path class="st0" d="M459.03 1658.23c-5.71-5.8-9.07-12.97-10.01-21.04-.36-3.08-10.75-.85-10.33 2.77.98 8.47 4.73 16.12 10.71 22.19 2.35 2.38 12.11-1.41 9.63-3.92zM431.05 1598.82h14.26c2.11 0 5.78-.68 6.81-2.86.99-2.09-.85-3.18-2.84-3.18h-14.26c-2.11 0-5.78.68-6.81 2.86-.99 2.09.84 3.18 2.84 3.18z"/><path class="st1" d="M684.06 1726.75c1.96 0 5.83-.74 6.86-2.68 1.06-2-.9-2.52-2.66-2.52-1.96 0-5.83.74-6.86 2.68-1.06 2 .9 2.52 2.66 2.52zM719.95 1831.06c2.3 0 5.73-.62 6.75-3.07.9-2.15-.8-3.98-3.05-3.98-2.3 0-5.73.62-6.75 3.07-.9 2.15.8 3.98 3.05 3.98zM869.36 1886.87c3.08 0 11.21-4.59 4.36-4.59-3.08 0-11.21 4.59-4.36 4.59zM1117.76 1936.64c2.3 0 5.47-.42 7.31-1.96 1.3-1.09 1.68-2.34-.63-2.34-2.3 0-5.47.42-7.31 1.96-1.3 1.09-1.68 2.34.63 2.34zM1304.59 1944.98c2.24 0 5.74-.64 6.77-3 .93-2.13-.81-3.73-2.99-3.73-2.24 0-5.74.64-6.77 3-.92 2.14.82 3.73 2.99 3.73z"/><path class="st1" d="M1304.36 1944.12c1.91 0 5.86-.75 6.87-2.64 1.05-1.98-.89-2.36-2.62-2.36-1.91 0-5.86.75-6.87 2.64-1.05 1.98.9 2.36 2.62 2.36zM1158.27 1890.92c2.03 0 5.8-.71 6.84-2.76 1.03-2.04-.88-2.8-2.74-2.8-2.03 0-5.8.71-6.84 2.76-1.03 2.04.87 2.8 2.74 2.8zM1138.46 1888.35c5.89 0 7.94-7.55.92-7.55-5.89 0-7.93 7.55-.92 7.55zM1300.85 1922.95c2 0 5.81-.72 6.84-2.74 1.04-2.03-.88-2.71-2.71-2.71-2 0-5.81.72-6.84 2.74-1.04 2.03.89 2.71 2.71 2.71zM1404.31 1937.47c2.1 0 5.78-.69 6.81-2.84 1-2.08-.85-3.12-2.82-3.12-2.1 0-5.78.69-6.81 2.84-1 2.08.85 3.12 2.82 3.12zM1518.53 1923.72c2.29 0 5.73-.62 6.76-3.05.91-2.14-.8-3.93-3.04-3.93-2.29 0-5.73.62-6.76 3.05-.9 2.14.8 3.93 3.04 3.93zM1589.5 1918.92c3.03 0 11.22-4.52 4.38-4.52-3.03 0-11.21 4.52-4.38 4.52zM1638.22 1929.35c2.22 0 5.54-.5 7.31-1.96 1.29-1.06 1.74-2.02-.54-2.02-2.22 0-5.54.5-7.31 1.96-1.29 1.06-1.74 2.02.54 2.02zM1767.77 1936.79c3.09 0 11.2-4.61 4.35-4.61-3.09 0-11.2 4.61-4.35 4.61zM1860.49 1883.39c1.86 0 5.88-.77 6.88-2.59 1.06-1.94-.91-2.17-2.57-2.17-1.86 0-5.88.77-6.88 2.59-1.06 1.94.91 2.17 2.57 2.17zM1892.61 1812.22c1.91 0 5.86-.75 6.87-2.65 1.05-1.98-.89-2.38-2.62-2.38-1.91 0-5.86.75-6.87 2.65-1.05 1.98.89 2.38 2.62 2.38zM1856.98 1765.96c1.96 0 5.83-.74 6.86-2.68 1.06-2-.9-2.52-2.66-2.52-1.96 0-5.83.74-6.86 2.68-1.06 2.01.9 2.52 2.66 2.52zM1807.18 1723.61c2.12 0 5.77-.68 6.81-2.86.99-2.09-.84-3.2-2.84-3.2-2.12 0-5.77.68-6.81 2.86-.99 2.09.84 3.2 2.84 3.2zM1896.15 1712.32c1.88 0 5.88-.76 6.87-2.61 1.06-1.96-.9-2.25-2.59-2.25-1.88 0-5.88.76-6.87 2.61-1.05 1.95.9 2.25 2.59 2.25zM2054.65 1670.71c5.76 0 8.05-7.2 1.01-7.2-5.76-.01-8.04 7.2-1.01 7.2zM2113.88 1627.72c2.26 0 5.74-.63 6.77-3.02.92-2.13-.81-3.79-3-3.79-2.26 0-5.74.63-6.77 3.02-.92 2.14.81 3.79 3 3.79zM2140.89 1554.95c2.21 0 5.53-.54 7.3-1.96 1.31-1.05 1.75-1.91-.51-1.91-2.21 0-5.53.54-7.3 1.96-1.32 1.05-1.75 1.91.51 1.91zM2177.8 1498.42c1.88 0 5.87-.76 6.87-2.62 1.05-1.96-.9-2.26-2.59-2.26-1.88 0-5.87.76-6.87 2.62-1.06 1.95.9 2.26 2.59 2.26zM2238.45 1459.38c1.96 0 5.82-.74 6.85-2.69 1.06-2-.9-2.54-2.67-2.54-1.96 0-5.82.74-6.85 2.69-1.05 2 .9 2.54 2.67 2.54zM2295.43 1394.98c1.87 0 5.88-.77 6.88-2.6 1.06-1.94-.91-2.19-2.57-2.19-1.87 0-5.88.77-6.88 2.6-1.06 1.95.91 2.19 2.57 2.19zM2199.17 1288.01c1.86 0 5.89-.77 6.88-2.59 1.06-1.94-.91-2.16-2.56-2.16-1.86 0-5.89.77-6.88 2.59-1.07 1.94.91 2.16 2.56 2.16zM2174.26 1220.44c1.92 0 5.86-.75 6.86-2.66 1.04-1.99-.89-2.43-2.64-2.43-1.92 0-5.86.75-6.86 2.66-1.04 2 .89 2.43 2.64 2.43zM2222.95 1109.55c2.3 0 5.47-.41 7.31-1.96 1.29-1.1 1.68-2.38-.64-2.38-2.3 0-5.47.41-7.31 1.96-1.29 1.09-1.68 2.38.64 2.38zM2095.87 1020.98c2 0 5.81-.72 6.84-2.73 1.04-2.03-.88-2.71-2.71-2.71-2 0-5.81.72-6.84 2.73-1.04 2.03.89 2.71 2.71 2.71zM2067.25 963.55c1.85 0 5.89-.77 6.88-2.58 1.06-1.93-.91-2.11-2.55-2.11-1.85 0-5.89.77-6.88 2.58-1.06 1.93.91 2.11 2.55 2.11zM1896.19 863.98c1.95 0 5.83-.74 6.86-2.68 1.06-2-.91-2.5-2.65-2.5-1.95 0-5.83.74-6.86 2.68-1.06 2 .9 2.5 2.65 2.5zM1883.61 818.97c6 0 7.84-7.85.84-7.85-6 0-7.84 7.85-.84 7.85zM1764.51 636.67c2.28 0 5.73-.63 6.76-3.04.91-2.14-.8-3.87-3.02-3.87-2.28 0-5.73.63-6.76 3.04-.91 2.15.81 3.87 3.02 3.87zM1556.27 428.59c2.3 0 5.47-.42 7.31-1.96 1.3-1.09 1.68-2.34-.63-2.34-2.3 0-5.47.42-7.31 1.96-1.3 1.09-1.68 2.34.63 2.34zM1443.34 275.42c3.05 0 11.21-4.54 4.37-4.54-3.05-.01-11.21 4.54-4.37 4.54zM1370.84 243.06c2.22 0 5.54-.49 7.31-1.96 1.29-1.07 1.74-2.05-.55-2.05-2.22 0-5.54.49-7.31 1.96-1.28 1.07-1.74 2.05.55 2.05zM1083.53 247.91c2.21 0 5.75-.65 6.78-2.97.94-2.12-.82-3.6-2.95-3.6-2.21 0-5.75.65-6.78 2.97-.94 2.12.82 3.6 2.95 3.6z"/><path class="st0" d="M988.99 267.54h-7.13c-2.34 0-5.38.53-7.31 1.96-1.41 1.04-1.63 2.13.57 2.13h7.13c2.34 0 5.38-.53 7.31-1.96 1.41-1.05 1.63-2.13-.57-2.13zM933.75 228.98v-3.57c0-2.49-10.33-.78-10.33 2.77v3.57c0 2.49 10.33.77 10.33-2.77zM920.95 312.4h3.57c5.77 0 8.04-7.21 1.01-7.21h-3.57c-5.77 0-8.05 7.21-1.01 7.21z"/><path class="st1" d="M1001.51 336.96c2.18 0 5.75-.66 6.79-2.94.96-2.11-.82-3.48-2.92-3.48-2.18 0-5.75.66-6.79 2.94-.95 2.11.83 3.48 2.92 3.48z"/><path class="st0" d="m1040.36 388.87-7.13-7.13c-2.3-2.3-12.01 1.49-9.64 3.86l7.13 7.13c2.29 2.29 12-1.5 9.64-3.86z"/><path class="st1" d="M796.92 378.76c2.31 0 5.48-.37 7.31-1.96 1.28-1.11 1.67-2.49-.67-2.49-2.31 0-5.48.37-7.31 1.96-1.27 1.1-1.67 2.49.67 2.49z"/><path class="st0" d="m659.96 424.89 3.57 3.57c2.52 2.52 12.3-1.32 9.6-4.02l-3.57-3.57c-2.52-2.52-12.3 1.32-9.6 4.02z"/><path class="st1" d="M610.8 480.03c5.82 0 8-7.35.97-7.35-5.81 0-8 7.35-.97 7.35zM573.51 550.17c1.91 0 5.86-.75 6.87-2.65 1.05-1.98-.89-2.37-2.62-2.37-1.91 0-5.86.75-6.87 2.65-1.05 1.97.9 2.37 2.62 2.37z"/><path class="st0" d="M616.67 634.5c7.13-2.38 14.26-4.75 21.39-7.13 1.13-.38 4.06-1.54 3.05-3.07-.93-1.4-5.66.17-6.67.51-7.13 2.38-14.26 4.75-21.39 7.13-1.13.38-4.06 1.54-3.05 3.07.93 1.4 5.65-.17 6.67-.51z"/><path class="st1" d="M630.82 683.07c2.29 0 5.73-.62 6.76-3.06.9-2.14-.8-3.94-3.04-3.94-2.29 0-5.73.62-6.76 3.06-.91 2.14.8 3.94 3.04 3.94zM546.65 665.5c5.88 0 7.95-7.52.93-7.52-5.88 0-7.95 7.52-.93 7.52zM426.13 671.01c2.3 0 5.47-.43 7.31-1.96 1.3-1.09 1.68-2.32-.62-2.32s-5.47.43-7.31 1.96c-1.31 1.09-1.69 2.32.62 2.32zM363.15 796.07c1.87 0 5.88-.76 6.88-2.61 1.06-1.95-.9-2.22-2.58-2.22-1.87 0-5.88.76-6.88 2.61-1.06 1.94.9 2.22 2.58 2.22zM388.38 857.71c2.27 0 5.73-.63 6.76-3.04.91-2.14-.8-3.86-3.02-3.86-2.27 0-5.73.63-6.76 3.04-.91 2.14.8 3.86 3.02 3.86zM445.1 917.13c3.04 0 11.22-4.53 4.37-4.53-3.03 0-11.21 4.53-4.37 4.53zM276.4 949.14c2.31 0 5.47-.4 7.31-1.96 1.29-1.1 1.68-2.42-.65-2.42-2.31 0-5.47.4-7.31 1.96-1.28 1.1-1.67 2.42.65 2.42zM199.14 956.45c1.86 0 5.89-.77 6.88-2.59 1.06-1.94-.91-2.15-2.56-2.15-1.86 0-5.89.77-6.88 2.59-1.06 1.94.91 2.15 2.56 2.15z"/><path class="st0" d="M264.2 942.87c5.94-2.38 11.88-4.75 17.83-7.13 1.98-.79 3.84-3.29 2.44-5.33-1.52-2.2-4.99-1.59-7.02-.77-5.94 2.38-11.88 4.75-17.83 7.13-1.98.79-3.84 3.29-2.44 5.33 1.51 2.2 4.99 1.58 7.02.77z"/><path class="st1" d="M368.47 858.3c6.08 0 7.77-8.08.78-8.08-6.08 0-7.77 8.08-.78 8.08z"/><path class="st0" d="M406.79 885.8c2.38-1.19 4.75-2.38 7.13-3.57 6.31-3.15.66-8.64-4.56-6.03-2.38 1.19-4.75 2.38-7.13 3.57-6.3 3.15-.66 8.64 4.56 6.03z"/><path class="st1" d="M413.08 970.82c1.9 0 5.87-.75 6.87-2.63 1.05-1.97-.9-2.33-2.61-2.33-1.9 0-5.87.75-6.87 2.63-1.05 1.98.89 2.33 2.61 2.33z"/><path class="st0" d="m445.33 1103.18 3.57-14.26c.96-3.83-9.44-2.31-10.34 1.27l-3.57 14.26c-.95 3.83 9.45 2.31 10.34-1.27zM406.05 1120.94h3.57c2.05 0 5.79-.7 6.83-2.79 1.02-2.06-.87-2.93-2.77-2.93h-3.57c-2.05 0-5.79.7-6.83 2.79-1.02 2.06.86 2.93 2.77 2.93z"/><path class="st1" d="M389.81 1146.88c5.94 0 7.89-7.69.88-7.69-5.94 0-7.89 7.69-.88 7.69zM416.62 1209.62c1.87 0 5.88-.76 6.88-2.61 1.06-1.95-.9-2.22-2.58-2.22-1.87 0-5.88.76-6.88 2.61-1.05 1.95.91 2.22 2.58 2.22zM612.88 1260.18c2.13 0 5.77-.68 6.8-2.88.98-2.09-.84-3.25-2.86-3.25-2.13 0-5.77.68-6.8 2.88-.98 2.09.84 3.25 2.86 3.25zM520.31 1424.63c2.3 0 5.73-.62 6.75-3.06.9-2.14-.8-3.97-3.05-3.97-2.3 0-5.73.62-6.75 3.06-.9 2.14.8 3.97 3.05 3.97zM477.37 1416.91c2.08 0 5.79-.69 6.82-2.82 1.01-2.07-.86-3.04-2.8-3.04-2.08 0-5.79.69-6.82 2.82-1.01 2.07.85 3.04 2.8 3.04zM466.6 1391.67c1.98 0 5.82-.73 6.85-2.7 1.05-2.01-.9-2.59-2.68-2.59-1.98 0-5.82.73-6.85 2.7-1.06 2.01.89 2.59 2.68 2.59z"/><path class="st0" d="M484.62 1353.01v-3.57c0-5.5-10.48-4.05-10.48.73v3.57c0 5.5 10.48 4.05 10.48-.73z"/><path class="st1" d="M571.59 1367.76c5.83 0 7.99-7.39.96-7.39-5.83.01-7.98 7.39-.96 7.39z"/><path class="st0" d="M648.95 1419.69c10.41-4.44 18.33-13.03 21.13-24.08 1.05-4.14-9.4-2.68-10.37 1.15-2.03 8.04-7.28 14.86-14.98 18.14-1.59.68-4.08 2.58-2.66 4.49 1.39 1.88 5.19 1.03 6.88.3z"/><path class="st1" d="M619.85 1516.27c1.89 0 5.87-.76 6.87-2.63 1.05-1.97-.9-2.3-2.6-2.3-1.89 0-5.87.76-6.87 2.63-1.06 1.96.9 2.3 2.6 2.3zM602.09 1605.64c2 0 5.81-.72 6.84-2.73 1.04-2.03-.89-2.68-2.71-2.68-2 0-5.81.72-6.84 2.73-1.04 2.02.89 2.68 2.71 2.68zM648.45 1669.86c2.02 0 5.81-.72 6.84-2.75 1.04-2.04-.88-2.77-2.73-2.77-2.02 0-5.81.72-6.84 2.75-1.03 2.04.88 2.77 2.73 2.77zM808.82 1669.64c1.92 0 5.86-.75 6.86-2.66 1.04-1.99-.89-2.42-2.63-2.42-1.92 0-5.86.75-6.86 2.66-1.05 1.99.88 2.42 2.63 2.42zM894.61 1652.68c2.26 0 5.74-.63 6.77-3.01.92-2.13-.81-3.78-3-3.78-2.26 0-5.74.63-6.77 3.01-.92 2.13.81 3.78 3 3.78zM915.78 1598.36c1.93 0 5.86-.74 6.86-2.66 1.04-1.99-.89-2.44-2.64-2.44-1.93 0-5.86.74-6.86 2.66-1.05 1.98.88 2.44 2.64 2.44zM844.43 1591.06c1.86 0 5.88-.77 6.88-2.6 1.06-1.94-.91-2.19-2.57-2.19-1.86 0-5.88.77-6.88 2.6-1.06 1.95.91 2.19 2.57 2.19zM819.57 1591.4c2.01 0 5.81-.72 6.84-2.74 1.04-2.03-.88-2.72-2.71-2.72-2.01 0-5.81.72-6.84 2.74-1.05 2.03.87 2.72 2.71 2.72zM830.2 1626.83c1.91 0 5.86-.75 6.87-2.65 1.05-1.98-.89-2.37-2.62-2.37-1.91 0-5.86.75-6.87 2.65-1.05 1.98.89 2.37 2.62 2.37zM1156.92 1701.14c2.21 0 5.53-.53 7.31-1.96 1.31-1.05 1.75-1.93-.52-1.93-2.22 0-5.53.53-7.31 1.96-1.31 1.05-1.74 1.93.52 1.93zM1306.67 1743.96c2.22 0 5.54-.5 7.31-1.96 1.29-1.07 1.74-2.03-.54-2.03-2.22 0-5.54.5-7.31 1.96-1.3 1.07-1.75 2.03.54 2.03zM1434.42 1753.06c6.03 0 7.82-7.92.82-7.92-6.03 0-7.82 7.92-.82 7.92zM1516.38 1820.66c5.93 0 7.9-7.65.89-7.65-5.93.01-7.9 7.65-.89 7.65zM1335.21 1822.46c2.29 0 5.46-.49 7.31-1.96 1.34-1.06 1.68-2.16-.58-2.16-2.29 0-5.46.49-7.31 1.96-1.34 1.07-1.68 2.16.58 2.16zM728.54 1571.32c6.08 0 7.77-8.07.78-8.07-6.07 0-7.77 8.07-.78 8.07zM354.15 1132.6c5.93 0 7.9-7.66.89-7.66-5.93 0-7.9 7.66-.89 7.66zM308.49 892.12c2.31 0 5.48-.38 7.31-1.96 1.28-1.1 1.67-2.45-.66-2.45-2.31 0-5.48.38-7.31 1.96-1.28 1.1-1.67 2.45.66 2.45zM352.71 697.21c2.25 0 5.74-.64 6.77-3.01.93-2.13-.81-3.75-2.99-3.75-2.25 0-5.74.64-6.77 3.01-.93 2.13.81 3.75 2.99 3.75zM459.54 611.19c2.08 0 5.79-.69 6.82-2.82 1.01-2.07-.86-3.03-2.8-3.03-2.08 0-5.79.69-6.82 2.82-1 2.07.86 3.03 2.8 3.03zM561.61 496.37c2.31 0 5.47-.39 7.31-1.96 1.29-1.1 1.68-2.42-.65-2.42-2.31 0-5.47.39-7.31 1.96-1.28 1.1-1.67 2.42.65 2.42zM619.92 340.06c2.01 0 5.81-.72 6.84-2.74 1.04-2.03-.88-2.74-2.72-2.74-2.01 0-5.81.72-6.84 2.74-1.04 2.03.88 2.74 2.72 2.74zM832.55 228.94c2.3 0 5.47-.42 7.31-1.96 1.3-1.09 1.68-2.33-.63-2.33-2.3 0-5.47.42-7.31 1.96-1.3 1.09-1.67 2.33.63 2.33zM949.51 184.22c5.89 0 7.94-7.53.92-7.53-5.88 0-7.94 7.53-.92 7.53zM1126.16 122.57c2 0 5.81-.72 6.84-2.73 1.04-2.03-.89-2.71-2.71-2.71-2 0-5.81.72-6.84 2.73-1.04 2.03.89 2.71 2.71 2.71zM1345.18 62.79c5.73 0 8.07-7.11 1.04-7.11-5.73 0-8.08 7.11-1.04 7.11zM1534.83 107.56c2.22 0 5.53-.51 7.31-1.96 1.3-1.06 1.74-1.99-.53-1.99-2.22 0-5.53.51-7.31 1.96-1.3 1.06-1.75 1.99.53 1.99z"/><path class="st0" d="m1558.93 218.46-3.57 3.57c-1.67 1.67-.91 3.66 1.17 4.37 2.36.81 5.59-.25 7.31-1.96l3.57-3.57c1.67-1.67.91-3.66-1.17-4.37-2.36-.8-5.59.25-7.31 1.96z"/><path class="st1" d="M1532.53 300.62c1.91 0 5.86-.75 6.86-2.65 1.05-1.98-.89-2.39-2.63-2.39-1.91 0-5.86.75-6.86 2.65-1.04 1.98.9 2.39 2.63 2.39zM1347.33 215.73c2.18 0 5.76-.66 6.79-2.93.96-2.11-.83-3.45-2.91-3.45-2.18 0-5.76.66-6.79 2.93-.97 2.11.82 3.45 2.91 3.45z"/><path class="st0" d="M1390.07 177.17c1.19-2.37 2.39-4.75 3.58-7.12 2.21-4.4-8.09-3.28-9.62-.23-1.19 2.37-2.39 4.75-3.58 7.12-2.22 4.4 8.08 3.29 9.62.23z"/><path class="st1" d="M1404.37 140.87c2.18 0 5.76-.66 6.79-2.93.96-2.11-.83-3.46-2.91-3.46-2.18 0-5.76.66-6.79 2.93-.96 2.11.82 3.46 2.91 3.46zM1484.3 216.39c5.95 0 7.89-7.71.88-7.71-5.95.01-7.89 7.71-.88 7.71z"/><path class="st0" d="M1433.16 269.96v10.7c0 5.46 10.48 3.98 10.48-.75v-10.7c-.01-5.47-10.48-3.98-10.48.75zM1443.44 250.46c-7.1-10.61-8.34-23.35-3.16-35.07.79-1.79-9-.95-10.2 1.77-5.27 11.94-4.25 25.19 3.04 36.07 1.73 2.6 11.23-1.42 10.32-2.77z"/><path class="st1" d="M1468.29 182.73c3.05 0 11.21-4.55 4.37-4.55-3.05 0-11.21 4.55-4.37 4.55zM1566.96 125.54c2.3 0 5.47-.44 7.31-1.96 1.31-1.08 1.68-2.3-.62-2.3s-5.47.44-7.31 1.96c-1.31 1.08-1.68 2.3.62 2.3z"/><path class="st0" d="M1640.67 282.27c13.07-2.38 26.14-4.75 39.22-7.13 4.17-.76 9.13-5.3 1.88-3.98-13.07 2.38-26.14 4.75-39.22 7.13-4.18.75-9.14 5.29-1.88 3.98z"/><path class="st1" d="M1828.65 297.85c2.22 0 5.74-.64 6.78-2.98.94-2.13-.81-3.64-2.96-3.64-2.22 0-5.74.64-6.78 2.98-.94 2.12.81 3.64 2.96 3.64zM1817.94 344.14c2.2 0 5.75-.65 6.78-2.96.95-2.12-.82-3.56-2.94-3.56-2.2 0-5.75.65-6.78 2.96-.95 2.12.82 3.56 2.94 3.56zM1845.06 389.44c2.31 0 5.48-.38 7.31-1.96 1.28-1.1 1.67-2.46-.66-2.46-2.31 0-5.48.38-7.31 1.96-1.28 1.1-1.67 2.46.66 2.46zM1944.81 506.83c2.22 0 5.53-.52 7.31-1.96 1.31-1.06 1.74-1.95-.52-1.95-2.22 0-5.53.52-7.31 1.96-1.3 1.06-1.74 1.95.52 1.95zM1969.84 599.78c2.31 0 5.48-.38 7.31-1.96 1.28-1.1 1.67-2.45-.66-2.45-2.31 0-5.48.38-7.31 1.96-1.28 1.1-1.68 2.45.66 2.45z"/><path class="st0" d="M2030.24 654.73c3.99.95 12.28-.7 11.76-6.14-.61-6.22-8.89-3.26-12.24-1.37-1.93 1.09-1.02 2.09.64 2.39 2.33.42 5.33-.84 7.31-1.96l-6.95 1.41.35.35c0 .38.4.95.48 1.35.35 1.67-.87 2.07 1 1.27 1.74-.47 3.48-.93 5.21-1.4h.91c-2.29-.54-5.18.24-7.23 1.29-.89.45-3.57 2.26-1.24 2.81z"/><path class="st1" d="M2011.89 718.88c5.81 0 8.01-7.32.98-7.32-5.81 0-8.01 7.32-.98 7.32zM1971.16 639.74c2.09 0 5.78-.69 6.82-2.83 1-2.08-.85-3.08-2.81-3.08-2.09 0-5.78.69-6.82 2.83-1.01 2.08.85 3.08 2.81 3.08zM1900 469.15c2.29 0 5.73-.62 6.76-3.05.91-2.14-.8-3.93-3.04-3.93-2.29 0-5.73.62-6.76 3.05-.91 2.15.8 3.93 3.04 3.93zM1700.08 339.81c1.9 0 5.87-.75 6.87-2.64 1.05-1.97-.9-2.34-2.61-2.34-1.9 0-5.87.75-6.87 2.64-1.05 1.97.9 2.34 2.61 2.34z"/><path class="st0" d="M1643.21 232.54v-7.13c0-2.65-10.33-.88-10.33 2.77v7.13c-.01 2.65 10.33.89 10.33-2.77z"/><path class="st1" d="M1377.27 159.06c5.73 0 8.07-7.12 1.04-7.12-5.74 0-8.08 7.12-1.04 7.12zM1044.11 247.13c1.91 0 5.86-.75 6.87-2.65 1.05-1.98-.89-2.37-2.62-2.37-1.91 0-5.86.75-6.87 2.65-1.05 1.98.89 2.37 2.62 2.37zM1094.26 333.6c2.26 0 5.73-.63 6.76-3.02.92-2.14-.81-3.81-3.01-3.81-2.26 0-5.73.63-6.76 3.02-.91 2.14.81 3.81 3.01 3.81zM980.13 451.05c2.19 0 5.75-.66 6.79-2.94.96-2.11-.82-3.5-2.92-3.5-2.19 0-5.75.66-6.79 2.94-.96 2.12.82 3.5 2.92 3.5zM873 514.58c1.95 0 5.83-.74 6.86-2.67 1.06-1.99-.91-2.47-2.65-2.47-1.95 0-5.83.74-6.86 2.67-1.06 1.99.91 2.47 2.65 2.47zM801.88 568.73c2.2 0 5.75-.65 6.78-2.95.95-2.12-.82-3.55-2.94-3.55-2.2 0-5.75.65-6.78 2.95-.95 2.13.82 3.55 2.94 3.55zM883.7 585.89c1.95 0 5.83-.74 6.86-2.67 1.06-1.99-.91-2.48-2.65-2.48-1.95 0-5.83.74-6.86 2.67-1.07 1.99.9 2.48 2.65 2.48zM985.21 572.98c6.01 0 7.84-7.87.83-7.87-6.01.01-7.83 7.87-.83 7.87zM970.92 608.53c5.93 0 7.9-7.66.89-7.66-5.94 0-7.9 7.66-.89 7.66zM928.16 605.06c6 0 7.84-7.84.84-7.84-6-.01-7.84 7.84-.84 7.84zM917.43 626.33c5.92 0 7.92-7.61.9-7.61-5.91 0-7.91 7.61-.9 7.61zM1129.89 750.63c2.23 0 5.74-.64 6.78-2.98.94-2.13-.81-3.66-2.97-3.66-2.23 0-5.74.64-6.78 2.98-.94 2.12.82 3.66 2.97 3.66zM1019.37 743.5c2.23 0 5.74-.64 6.77-2.98.94-2.13-.81-3.66-2.97-3.66-2.23 0-5.74.64-6.77 2.98-.93 2.12.82 3.66 2.97 3.66z"/><path class="st1" d="M1020.87 744.17c6.05 0 7.8-7.99.8-7.99-6.05 0-7.79 7.99-.8 7.99z"/><path class="st0" d="m977.7 759.91-7.13 7.13c-1.8 1.8-.65 4.39 1.41 5.26 2.56 1.08 5.48-.13 7.31-1.96l7.13-7.13c1.8-1.8.65-4.39-1.41-5.26-2.57-1.07-5.48.14-7.31 1.96z"/><path class="st1" d="M950.21 831.5c2.31 0 5.48-.39 7.31-1.96 1.28-1.1 1.67-2.44-.65-2.44-2.31 0-5.48.39-7.31 1.96-1.29 1.1-1.68 2.44.65 2.44zM1046.46 792.26c2.3 0 5.47-.4 7.31-1.96 1.29-1.1 1.68-2.39-.64-2.39-2.3 0-5.47.4-7.31 1.96-1.29 1.1-1.67 2.39.64 2.39zM994.32 793.04c2.09 0 5.78-.69 6.82-2.83 1-2.08-.85-3.08-2.81-3.08-2.09 0-5.78.69-6.82 2.83-1.01 2.08.85 3.08 2.81 3.08zM980.02 796.49c2.05 0 5.8-.71 6.83-2.78 1.02-2.05-.87-2.89-2.76-2.89-2.05 0-5.8.71-6.83 2.78-1.02 2.05.87 2.89 2.76 2.89zM985.88 867.2c2.31 0 5.48-.36 7.31-1.96 1.27-1.11 1.67-2.53-.68-2.53-2.31 0-5.48.36-7.31 1.96-1.27 1.11-1.67 2.53.68 2.53zM995.93 958.12c6.08 0 7.77-8.08.78-8.08-6.08 0-7.77 8.08-.78 8.08zM1024.44 1050.79c6.06 0 7.79-8.02.79-8.02-6.06-.01-7.78 8.02-.79 8.02zM1082.07 1120.08c2.22 0 5.54-.49 7.31-1.96 1.29-1.07 1.74-2.05-.55-2.05-2.22 0-5.54.49-7.31 1.96-1.29 1.07-1.74 2.05.55 2.05zM1176.09 1149.38c2.03 0 5.8-.71 6.84-2.76 1.03-2.04-.88-2.81-2.74-2.81-2.03 0-5.8.71-6.84 2.76-1.03 2.05.88 2.81 2.74 2.81z"/><path class="st0" d="M1151.33 974.14c26.38-9.4 48.95-25.31 66.18-47.46 4.04-5.19-5.7-7.02-8.68-3.18-15.49 19.91-35.63 34.88-59.45 43.37-6.14 2.19-4.36 9.52 1.95 7.27z"/><path class="st1" d="M1261.58 863.89c1.91 0 5.86-.75 6.87-2.64 1.05-1.98-.89-2.37-2.62-2.37-1.91 0-5.86.75-6.87 2.64-1.05 1.99.89 2.37 2.62 2.37zM1293.83 864.52c2.16 0 5.76-.67 6.8-2.91.97-2.1-.83-3.36-2.89-3.36-2.16 0-5.76.67-6.8 2.91-.96 2.1.84 3.36 2.89 3.36zM1386.32 849.48c1.85 0 5.89-.77 6.88-2.58 1.06-1.93-.91-2.13-2.56-2.13-1.85 0-5.89.77-6.88 2.58-1.06 1.94.91 2.13 2.56 2.13z"/><path class="st0" d="M1442.31 897.08c12.29 6.68 40.05 13.81 42.93-7.79 2.24-16.8-14.05-41.22-22.88-54.4-3.45-5.15-16.1-16.26-17.07-21.67-1.85-10.33 18.55-17.75 25.89-22.36 4.47-2.81-5.87-2.15-8.04-.78-10.46 6.57-20.93 13.15-31.39 19.72-.75.47-1.61 1.42-.82 2.24 12.41 12.92 23.21 27.08 31.43 43.06 3.08 5.99 5.9 12.2 8.25 18.52a86.2 86.2 0 0 1 3.9 12.37c-6.22 12.45-13.72 14.92-22.5 7.39-2.79-1.51-11.51 2.71-9.7 3.7z"/><path class="st1" d="M1489.71 792.46c1.86 0 5.88-.77 6.88-2.59 1.06-1.94-.91-2.16-2.57-2.16-1.86 0-5.88.77-6.88 2.59-1.05 1.94.92 2.16 2.57 2.16zM1491.4 961.37c5.85 0 7.97-7.45.95-7.45-5.86 0-7.97 7.45-.95 7.45z"/><path class="st0" d="m1454.04 905.34-85.47-99.9c-2.88-3.36-12.73.65-9.49 4.44l85.47 99.9c2.88 3.36 12.74-.65 9.49-4.44zM1226.52 735.5c-48.94 1.61-97.89 3.04-146.82 4.82-27.93 1.02-51.76 2.57-76.28 16.46-.61.35-3.12 1.9-1.78 2.85 18.87 13.34 36.12 19.42 59.13 20.98 2.57.18 11.9-4.36 6.56-4.72-16.45-.06-31.73-4.33-45.85-12.78 13.49-12.97 28.88-18.89 46.17-17.75 14.92-2.31 31.32-1.03 46.36-1.52 36.06-1.18 72.12-2.37 108.18-3.55 3.18-.12 11.18-5.01 4.33-4.79z"/><path class="st1" d="M1228.28 859.98c2.3 0 5.47-.41 7.31-1.96 1.3-1.09 1.68-2.36-.63-2.36-2.3 0-5.47.41-7.31 1.96-1.3 1.09-1.68 2.36.63 2.36z"/><path class="st0" d="M1384.27 925.76c-7.68 5.74-20.69 22.22-13.83 32.26 4.18 6.11 15.63 10.55 22.17 13.37 8.39 3.62 17.1 5.83 26.13 7.15 4.68.69 10.67-5.86 3.75-6.88-12.98-1.9-25.29-6.41-36.29-13.6-5-3.27-7.34-5.07-6.07-11.25 1.42-6.91 5.19-12.75 10.82-16.97 5.61-4.19-2.91-6.9-6.68-4.08z"/><path class="st1" d="M1518.46 1042.85c2.18 0 5.76-.66 6.79-2.93.96-2.11-.82-3.47-2.92-3.47-2.18 0-5.75.66-6.79 2.93-.96 2.11.82 3.47 2.92 3.47zM1586.14 1099.71c2.11 0 5.77-.68 6.81-2.86.99-2.09-.84-3.18-2.84-3.18-2.11 0-5.77.68-6.81 2.86-.99 2.08.85 3.18 2.84 3.18z"/><path class="st0" d="M1614.68 1059.65c-1.19-3.57-2.38-7.13-3.57-10.7-.97-2.91-11.23.06-10.33 2.77 1.19 3.57 2.38 7.13 3.57 10.7.97 2.91 11.24-.06 10.33-2.77zM1643.21 981.22c-11.88-16.64-23.77-33.27-35.65-49.91-1.82-2.55-11.18 1.58-10.33 2.77 11.88 16.64 23.77 33.27 35.65 49.91 1.81 2.54 11.18-1.58 10.33-2.77z"/><path class="st1" d="M1559.79 988.15c2.22 0 5.54-.5 7.31-1.96 1.29-1.06 1.74-2.01-.54-2.01-2.22 0-5.54.5-7.31 1.96-1.29 1.07-1.74 2.01.54 2.01z"/><path class="st0" d="M1544.91 1189.68c5.96 0 7.88-7.73.87-7.73-5.96 0-7.88 7.73-.87 7.73z"/><path class="st1" d="M1527.07 1200.31c5.91 0 7.92-7.59.91-7.59-5.91-.01-7.93 7.59-.91 7.59z"/><path class="st0" d="M1195.3 1173.02c-16.9 4.39-26.76 27.35-12.69 40.46 2.64 2.46 6.6 1.35 9.03-.84 12.82-11.57 19.88-27.75 19.35-45.04-.16-5.19-10.57-3.44-10.44.9.49 16.08-5.51 30.58-17.48 41.39l9.03-.84c-8.32-7.75-7.63-26.07 4.99-29.35 6.34-1.66 4.57-8.34-1.79-6.68zM1126.63 1123.03c2.38 5.94 4.75 11.88 7.13 17.83 1.4 3.5 11.6.4 10.33-2.77-2.38-5.94-4.75-11.88-7.13-17.83-1.4-3.5-11.6-.4-10.33 2.77z"/><path class="st1" d="M1146.29 1148.77c2.3 0 5.47-.41 7.31-1.96 1.29-1.1 1.68-2.39-.64-2.39-2.3 0-5.47.41-7.31 1.96-1.3 1.1-1.68 2.39.64 2.39z"/><path class="st0" d="M1300.31 1102.45c-5.01-70.32-38.6-148.92-87.57-200.28-25.67-26.92-57.48-40.24-92.38-51.12-15.45-4.81-40.94-7.18-54.12-16.33-25.21-17.5 16.53-35.13 33.81-44.67 4.19-2.31-6.05-.93-7.82.05-20.78 11.47-38.4 24.31-55.68 40.75-.17.16-.96.96-.24 1.18 68.5 20.63 138.23 33.35 183.49 93.87 38.11 50.96 65.65 115.78 70.18 179.3.1 1.48 10.51-.23 10.33-2.75z"/><path class="st1" d="M1193.91 753.61c2.01 0 5.81-.72 6.84-2.74 1.04-2.03-.88-2.73-2.72-2.73-2.01 0-5.81.72-6.84 2.74-1.04 2.03.88 2.73 2.72 2.73zM1354.52 725.79c2.27 0 5.73-.63 6.76-3.03.92-2.14-.8-3.84-3.02-3.84-2.27 0-5.73.63-6.76 3.03-.91 2.13.81 3.84 3.02 3.84z"/><path class="st0" d="M1525.97 815.86c-1.19 2.38-2.38 4.75-3.57 7.13-.94 1.88 3.56 1.53 4.25 1.43 1.95-.28 5.01-1.11 5.99-3.06 1.19-2.38 2.38-4.75 3.57-7.13.94-1.88-3.56-1.53-4.25-1.43-1.95.28-5.02 1.11-5.99 3.06zM1515.14 840.34a315.242 315.242 0 0 0-7.13 71.3c.08 5.6 10.56 4.21 10.49-.69-.33-24.08 2.04-47.76 7.13-71.3 1.15-5.26-9.44-4.12-10.49.69zM1521.29 1023.99c24.56 56.15-35.97 82.34-74.51 107.93-2.58 1.71-2.25 4.34.37 5.56 9.32 4.36 18.1 6.36 28.01 8.6 5.7 1.23 11.4 2.46 17.11 3.7 9.74 35.08 2.22 55.04-22.57 59.89-9.39 4.19-20.05 6.28-29.98 8.86-27.07 7.03-55.6 12.97-79.24 28.8-18.9 12.65-34.09 29.97-55.04 40.05-6.2 2.98-13.85 2.65-19.72 6.71-8.85 6.12-16.5 15.16-8.14 24.73 1.29 1.48 3.86 1.73 5.64 1.13 1.46-.49 2.92-.97 4.37-1.46 1.56-.52 4.26-1.76 4.32-3.8l.12-4.06c.15-5.19-10.31-3.55-10.44.88.13-4.5 48.77-28.87 58.22-35.64 20.22-14.48 35.62-30.32 59.49-38.73 15.89-5.6 32.23-9.04 48.46-13.46 24.52-6.69 75.24-19.09 74.26-53.59-.32-11.21-6.69-18.47-15.74-23.81-8.21-4.85-18.39-5.32-27.45-7.39-22.84-5.23-16.49-6.49.8-19.85 41.55-32.1 77.31-39.96 52.01-97.8-1.94-4.4-12.17-1.4-10.35 2.75zM1083.85 1203.1c-.25-13.85-2.68-27.05-7.65-40-1.55-4.05-11.8-1.07-10.33 2.77 4.73 12.34 7.35 25.09 7.59 38.31.09 4.8 10.46 2.81 10.39-1.08zM1029.71 1054.99c-4.75-8.15-9.84-17.15-11.23-26.66-2.51-17.18 12.88-26.16 25.64-33.6 18.85-10.99 37.71-21.97 56.56-32.96 6.02-3.5-2.78-6.19-6.64-3.94-15.53 9.05-31.05 18.09-46.58 27.14-10.61 6.18-23.72 11.52-32.16 20.58-14.97 16.07-4.53 37.59 4.88 53.75 2.03 3.48 12.01-.06 9.53-4.31zM1103.68 797.44c15.45-9.51 30.9-19.01 46.35-28.52 4.35-2.68-5.96-1.67-7.95-.45-15.45 9.51-30.9 19.01-46.35 28.52-4.35 2.68 5.96 1.68 7.95.45z"/><path class="st1" d="M1388.65 717.16c2.21 0 5.53-.53 7.31-1.96 1.31-1.05 1.75-1.92-.51-1.92-2.21 0-5.53.53-7.31 1.96-1.31 1.05-1.75 1.92.51 1.92z"/><path class="st0" d="M1474.48 725.83c-25.16-16.45-49.85-10-78.26-14.48-47.24-7.46-79.37-46.44-107.58-81.46-2.69 1.46-5.39 2.91-8.08 4.37l64.05 4.17c1.7.11 11.56-3.58 7.43-4.73-43.64-12.2-84.63-9.02-125.95 9.4-1.98.88-5.17 3.33-1.33 4.14 16.14 3.4 30.4 3.28 46.67 2.3 38.26-2.31 63.77 7.86 93.93 30.07 42.9 31.58 85.61 63.4 128.42 95.1 2.6 1.92 11.89-2.14 9.66-3.79l-94.62-70.08c-24.62-18.24-49.8-42.67-79.29-52.87-24.23-8.39-48.16-1.37-73.02-2.97-50.02-3.21 47.7-13.15 61.47-12.76 45.36 1.31-23.08-2.41-30.91-2.92-1.46-.09-10.47 1.4-8.08 4.37 21.29 26.43 43.96 54.55 74.57 70.66 34.93 18.38 78.78 4.04 111.27 25.29 2.71 1.76 11.83-2.39 9.65-3.81zM1524.14 866.52c8.72 76.63 31.52 148.16 68.76 215.7 1.29 2.33 11.02-1.52 10.33-2.77-37.24-67.54-60.04-139.07-68.76-215.7-.19-1.66-10.61.29-10.33 2.77z"/><path class="st1" d="M1468.47 1224.4c2.08 0 5.79-.69 6.82-2.82 1.01-2.07-.86-3.04-2.8-3.04-2.08 0-5.79.69-6.82 2.82-1.01 2.07.86 3.04 2.8 3.04zM1384.47 1314.42c5.93 0 7.91-7.65.89-7.65-5.92 0-7.9 7.65-.89 7.65z"/><path class="st0" d="M1340.66 1307.98c-10.82.87-21.63 1.73-32.45 2.6-1.93.15-11.16 4.59-5.32 5.17 51.3 5.13 101.75 2.84 152.36-7.05 4.56-.89 8.76-6.42 1.6-5.02-28.11 5.5-56.29 9.07-84.98 9.71-13.2.3-26.89-1.7-39.98-.89-6.34-2.3-12.02-1.49-17.04 2.45 7.21-.58 14.42-1.16 21.63-1.73 3.37-.28 11.02-5.79 4.18-5.24z"/><path class="st0" d="M1376.43 1295.54c-59.05 1.96-118.63 3.97-176.54 16.67-10.54 2.31-50.13 21.29-58.65 17.02-17.1-8.56-3.22-17.38-.34-30.13 2.85-12.64 1.29-23.47-1.6-35.83-.51-2.17-10.89.4-10.33 2.77 4.24 18.11 4.5 34.24-4.61 51.57-3.46 6.57-10.41 10.83-10.09 18.46.19.36.49.56.92.6 24.18 9.03 60.38-15.58 83.52-20.67 56.88-12.51 115.23-14.46 173.24-16.39 2.74-.08 11.25-4.3 4.48-4.07zM974.84 1046.4c2.06-59.74 67.95-84.51 93.05-133.15 1.35-2.62-8.69-1.7-10.3 1.41-25.12 48.69-90.97 72.62-93.05 133.15-.14 3.93 10.19 1.75 10.3-1.41zM1074.76 756.95c4.08-12.95 15.9-21.82 19.44-34.43 2.04-7.27-2.98-16.14-1.91-21.01 1.47-6.67-.53-5.34 13.26-10.58 12.19-4.64 44.73-20.09 53.22-12.62 9.68 8.53 2.71 33.88 9.44 46.4 5.68 10.57 15.57 17.9 26.75 22.07 20.38 7.59 42.8 3.89 63.66.89 4.07-.58 9.3-4.62 1.99-3.57-29.58 4.25-70.17 6.94-84.43-26.51-6.35-14.9-2.87-34.42-5.31-50.24-.27-1.74-6.36.15-6.92.34-28.89 9.87-57.77 19.74-86.66 29.6-.82.28-5.14 2.12-2.51 2.98 28.42 9.33-5.8 44.65-10.19 58.57-.55 1.75 9.37.66 10.17-1.89zM1332.56 756.18c1.43 6.13 2.62 11.85 3.01 18.14a34.5 34.5 0 0 1-.15 11.82l-26.85 20.25c-6.26 2.6-14.07 1.81-20.6 4.52-10.73 4.46-20.85 13.26-18.5 26.02 6.57 35.63 75.91 32.71 100.63 31.17 5.57-.35 8.19-7.32 1.1-6.88-24.2 1.52-56.3 2.04-77.91-10.94-22.59-13.57-7.75-33.18 14.17-37.01 5.25-.92 10.29-1.4 15.38-3.13 26.17-8.88 25.42-33.71 20.04-56.73-1-4.32-11.35-1.64-10.32 2.77zM1405.3 767.37c9.31 13.55 22.06 23.78 37.2 30.13 4.61 1.94 11.99-4.69 5.88-7.26-13.81-5.8-25.18-15.21-33.65-27.54-2.8-4.07-12.6.07-9.43 4.67z"/><path class="st1" d="M1382.97 721.97c2.17 0 5.76-.66 6.79-2.93.96-2.11-.83-3.44-2.91-3.44-2.17 0-5.76.66-6.79 2.93-.96 2.11.83 3.44 2.91 3.44z"/><path class="st0" d="M1510.99 725.16c22.61 19.35 44.92 39 66.75 59.22 9.92 9.19 19.77 18.46 29.5 27.84 17.07 16.45 35.97 22.72 5.39 43.76-20.75 14.27-55.24 19.52-57.36 51.44-2.19 32.84 40.49 35.98 61.39 47.35 32.19 17.51 56.05 42.49 94.3 44.74 4.46.26 10.79-6.22 3.81-6.63-40.74-2.39-80.98-37.4-116.84-55.38-27-13.54-51.69-28.48-12.23-61.33 9.86-8.21 25.29-11.78 36.57-17.79 9.18-4.89 16.03-8.97 21.98-17.39.6-.85.32-1.68-.1-2.47-11.99-22.6-38.2-41.12-56.87-58.41-21.83-20.22-44.15-39.87-66.75-59.22-3.1-2.66-12.81 1.47-9.54 4.27z"/><path class="st0" d="M1681.71 974.04c-36.6-47.64-84.77-119.74-142.64-142.72-15.41-6.12-30.15-6.99-46.08-2.6-6.6 1.82-38.4 18.98-38.4 17.19 0-1.79-10.33-.29-10.33 2.77 0 6.18-.87 4.06 3.87 8.01 2.21 1.84 7.7-.66 9.55-2.13 58.01-45.86 99.12-6.56 138.87 34.75 26.9 27.94 51.81 57.55 75.43 88.29 1.55 2 11.38-1.41 9.73-3.56z"/><path class="st1" d="M1258.06 721.46c1.99 0 5.82-.73 6.85-2.71 1.05-2.02-.89-2.63-2.69-2.63-1.99 0-5.82.73-6.85 2.71-1.05 2.01.89 2.63 2.69 2.63z"/><path class="st0" d="M1060.52 751.34c-12.19 28.04-16.1 55.99-8.02 85.75 13.56 49.95-18.38 83.53-28.86 130.97-14.75 66.74 27.39 63.16 79.43 46.03 7.96-2.62 33.19-17.89 40.37-16.12 18.63 4.59-4.53 36.85-4.18 49.86.43 15.82 3.17 19.64 16 27.75 8.9 5.62 20.19.27 27.79 14.78 2.83 5.39 1.15 12.89 3.66 18.58 4.24 9.63 6.97 11.89 16.36 17.24 4.03 2.3 9.65-.86 13.87.35 62.76 17.93 42.47 35.59 40.32 75.27-.19 3.58 5.32 2.77 7.31 1.87 7.36-3.32 14.71-6.64 22.07-9.96 8.9-3.13 9.91-4.06 3.04-2.81-.6 7.39-33.08 27.76-38.12 31.98-2.54 2.13.04 4.07 2.27 4.28 7.11 6.94 14.22 13.88 21.33 20.81.71 3.94 11.08 1.41 10.33-2.77-1.57-8.76-16.43-19.92-16.83-23.2-1.16-9.58 34.15-32.91 42.13-39.61 4.39-3.68-4.07-4.53-6.33-3.51-4.2 1.89-25.71 14.9-29.43 13.28-11.74-5.11-3.62-18.59-2.58-27.83 1.14-10.09 2.58-21-2.07-30.62-10.97-22.69-22.95-11.85-41.71-15.53-10.68-2.1-28.88-13.09-33.64-21.29-2.91-5.01-.85-12.26-4.28-17.5-3.35-5.12-5.56-5.5-10.32-9.84-2.35-2.14-8.66 1.24-11.16-.54-19.34-13.73-17.81-28.25-12.03-46.68 4.38-13.96 6.46-20.77 1.78-34.47-.91-2.66-5.48-1.96-7.29-1.05-26.17 13.1-106.11 57.53-121.71 2.85-7.17-25.13 21.66-72.84 31.32-92.1 8.62-17.19 11.18-25.61 7.94-44.32-6.68-38.57-16.11-62.13.95-101.38 2.12-4.86-8.2-3.98-9.71-.52zM1488.53 1241.42h14.26c2.35 0 5.39-.47 7.31-1.96 1.38-1.07 1.63-2.31-.62-2.31h-14.26c-2.35 0-5.39.47-7.31 1.96-1.38 1.07-1.63 2.31.62 2.31zM1498.28 1259.7c8.32 3.57 16.63 7.14 24.95 10.7 2.71 1.16 12.16-2.96 8.33-4.6-8.32-3.57-16.63-7.14-24.95-10.7-2.71-1.16-12.16 2.95-8.33 4.6zM1516.14 1286.63c-7.13 2.38-14.26 4.75-21.39 7.13-1.47.49-5.06 1.76-4.48 3.96.55 2.07 4.48 1.65 5.86 1.19 7.13-2.38 14.26-4.75 21.39-7.13 1.47-.49 5.06-1.76 4.48-3.96-.56-2.07-4.49-1.65-5.86-1.19z"/><path class="st0" d="M1487.85 1271.4c18.04-2.97 36.61-6.03 54.38-.2 9.2 3.02 17.91 9.93 27.96 9.96 10.48.03 21.04-6.22 20.16-17.42-.24-3.04-10.62-.94-10.33 2.77 1.28 16.32-26.46.59-29.9-.56-6.38-2.12-12.94-3.07-19.62-3.48-13.79-.86-27.57 1.39-41.13 3.62-4.74.8-8.69 6.5-1.52 5.31z"/><path class="st1" d="M1601.99 1225.46c6.05 0 7.8-7.99.8-7.99-6.05 0-7.8 7.99-.8 7.99zM1600.22 1159.63c3.13 0 11.19-4.67 4.34-4.67-3.13 0-11.2 4.67-4.34 4.67z"/><path class="st0" d="M1543.46 1223.43c-46.86 16.19-93.18 33.75-138.79 53.18-21.6 9.2-43.03 18.77-64.3 28.72-19.53 9.13-26.46 13.8-49.5 9.84-25.96-4.46-15.78-3.57-31.68-11.87-8.97-4.68-33.44-11.63-35.76-19.98-2.69-9.71 17.97-27.21 23.48-36.56 18.56-31.49 25.84-66.62 24.89-102.88-3.1 1.25-6.21 2.51-9.31 3.76 52.96 20.16 109.96 4.3 144.73-40.47 2.63-3.39-7.62-2.46-9.55.03-30.43 39.18-80.83 53.22-126.89 35.69-2.5-.95-9.4.2-9.31 3.76 1.43 54.12-17.88 102.49-56.65 140.44-1.45 1.42-1.37 2.88.89 3.31 28.82 5.48 38.56 21.26 63.04 32.98 4.48 2.15 8.04 5.39 12.78 6.48 17.28 3.98 33.92-7.16 48.66-14.05 70.99-33.21 143.13-62.98 217.24-88.59 6.83-2.37.55-5.35-3.97-3.79zM1231.17 889.15c.72-58.45-61.59-66.21-106.87-58.6-45.17 7.59-157.2 34.04-159.46 94.28-2.14 56.97 86.59 41.34 118.78 34.68 60.04-12.42 142.66-34.89 180.13-87.51 1.16-1.63-.44-3.05-1.82-3.57-87.85-33.18-197.33 60.33-249.45 121.78-1.84 2.17-.53 4.63 2.36 4.62 71.79-.21 127.21-42.54 189.14-73.15 5.48-2.71 16.36-10.74 22.79-8.39 7.87 2.88-4.87 17.31-8.68 26.28-5.66 13.33-10.57 27.76-10.86 42.36-1.1 55.32 57.53 80.93 32.59 142.28-2.09 5.15 8.24 4.52 9.77.76 10.85-26.69 11.56-51.14-2.46-76.97-12.74-23.48-29.17-39.9-28.31-67.99.88-29.02 15.5-54.08 30.16-78.37 2.05-3.4-3.69-4.23-5.72-3.5-54.58 19.42-100.87 54.91-154.51 76.1a190.124 190.124 0 0 1-45.92 12.65c-16.15-.92-17.55-5.68-4.21-14.28 5.87-12.69 27.52-26.75 38.31-35.42 30.64-24.64 65.36-45.4 102.49-58.54 12.33-5.3 25.21-8.71 38.64-10.23 20.64 19.64 18.5 32.59-6.44 38.86-13.87 7.44-28.75 13.25-43.35 19.06-42.04 16.72-89.35 33.38-135.19 32.92-14.69 1.76-28.94-.67-42.73-7.29-23.26-26.03-19.24-48.84 12.07-68.45 18.05-14.32 43.96-23.5 65.57-31.19 46.05-16.39 153.78-42.61 152.79 37.82-.08 4.94 10.34 3.1 10.39-1zM1124 1141.51c23.77 8.32 47.53 16.64 71.3 24.96 2.37.83 11.6-2.99 8.47-4.09-23.77-8.32-47.53-16.64-71.3-24.96-2.38-.83-11.61 3-8.47 4.09z"/><path class="st0" d="M1346.18 1136.38c13.07-10.7 26.14-21.39 39.22-32.09 4.29-3.51-5.94-2.7-8.08-.95-13.07 10.7-26.14 21.39-39.22 32.09-4.3 3.51 5.93 2.7 8.08.95zM1433.02 1036.19l24.96 3.57c4.98.71 10.56-6.35 3.62-7.34l-24.96-3.57c-4.98-.72-10.56 6.35-3.62 7.34zM1493.03 941.1l-32.09-32.09c-3.32-3.32-13.09.93-9.45 4.57l32.09 32.09c3.32 3.32 13.09-.93 9.45-4.57zM1369.36 833.93c-13.08-3.2-90.11-14.42-92.9-24.76.77 2.86 39.32-41.88 42.23-47.13.94-1.7-.35-3.74-2.02-4.3-7.11-2.38-14.44-3.93-21.5-6.21-5.77-1.87-21.56 3.17.62-.61 27.14-4.62 52.79-4.51 79.77 1.97 46.65 11.22 85.25 37.65 113.36 76.38 2.89 3.99 12.69-.17 9.43-4.65-51.93-71.56-142.51-101.28-226.9-75.5-3.82 1.17-6.52 7.17-.74 7.65 48.91 4.06 11.98 39.93-10.16 52.2-3.71 2.06-3.72 6.09.59 7.15 34.91 8.55 69.82 17.1 104.73 25.64 5.28 1.3 10.26-6.17 3.49-7.83z"/><path class="st1" d="M1447.05 917.67c2.03 0 5.8-.71 6.83-2.77 1.03-2.05-.87-2.84-2.75-2.84-2.03 0-5.8.71-6.83 2.77-1.03 2.05.87 2.84 2.75 2.84z"/><path class="st0" d="M1536.62 1073.11c3.57 8.32 7.13 16.64 10.7 24.96 1.56 3.65 11.74.51 10.33-2.77-3.57-8.32-7.13-16.64-10.7-24.96-1.57-3.64-11.74-.51-10.33 2.77zM1547.31 1193.57c-3.57 10.7-7.13 21.39-10.7 32.09-1.21 3.64 9.15 2.33 10.34-1.24 3.57-10.7 7.13-21.39 10.7-32.09 1.21-3.65-9.15-2.33-10.34 1.24z"/><path class="st1" d="M1618.25 1270.92c2.15 0 5.76-.67 6.8-2.9.98-2.1-.83-3.33-2.88-3.33-2.15 0-5.76.67-6.8 2.9-.97 2.11.84 3.33 2.88 3.33z"/></svg>