<svg version="1.1" id="Ebene_1" xmlns="http://www.w3.org/2000/svg" x="0" y="0" viewBox="0 0 806 2048" style="enable-background:new 0 0 806 2048" xml:space="preserve"><style>.st1{fill:#fff}</style><path d="M155.14 2045.96c87.15 6.7 353.92-4.85 387.86-9.7s87.27-72.72 77.57-169.69c-9.7-96.96-24.24-271.5-29.09-339.38-4.85-67.88 24.24-150.3-4.85-193.93-29.09-43.63-38.79-92.12-38.79-92.12s53.33-43.63 77.57-96.96 33.94-237.56 48.48-276.35l14.54-38.79s111.51-223.02 116.36-261.81c4.85-38.79-72.72-164.84-135.75-121.21l-63.03 43.63s67.88-300.59 77.57-349.07S654.51 9.7 601.18 9.7 499.37 63.03 499.37 63.03 484.82 0 431.49 0s-96.96 29.09-101.81 72.72c-4.85 43.63-29.09-48.48-82.42-19.39s-67.88 116.36-67.88 116.36-58.18-43.63-92.12-14.54-92.12 101.81-67.88 281.2S0 1008.44 0 1071.46 48.48 1246 87.27 1260.54c38.79 14.54 72.72 72.72 43.63 101.81s-77.57 24.24-77.57 130.9c0 106.67-24.24 543.01 101.81 552.71z" style="fill:#0f6"/><path d="M187.28 1522.37v-83.04c0-4.86.44-8.25 1.33-10.13.88-1.88 2.88-3.49 5.98-4.82 3.32-1.11 6.48-1.16 9.47-.17 2.99 1 5.36 3.16 7.14 6.48 1.33 2.44 2.44 5.1 3.32 7.98.88 2.88 1.43 5.76 1.66 8.64.66 9.96.72 19.71.16 29.22a521.21 521.21 0 0 1-2.49 28.9c-.22 1.11-.38 2.1-.5 2.99-.11.89-.16 1.88-.16 2.99-.45 2.22-.45 4.26 0 6.14.44 1.88 1.77 3.49 3.98 4.82 2.21 1.11 4.42 1.61 6.64 1.49 2.22-.11 4.1-1.27 5.65-3.49 3.32-4.42 5.43-8.96 6.31-13.61 2.4-13.95 4.37-27.68 5.9-41.18.87-6.42 1.58-12.79 2.13-19.1.55-6.31 1.15-12.68 1.8-19.1.43-4.2 1.14-7.03 2.12-8.47.99-1.43 2.79-2.49 5.41-3.15 2.62-.67 5.26-.5 7.9.5 2.63.99 4.62 2.94 5.95 5.81.88 2 1.61 4.1 2.16 6.31.55 2.22.83 4.43.83 6.64.22 3.98.11 7.98-.33 11.96-.45 3.98-.89 7.86-1.33 11.63-3.1 25.91-5.21 51.7-6.31 77.38-1.1 25.69-1.43 51.6-1 77.72 0 5.09-.55 8.58-1.64 10.46-1.09 1.88-3.17 3.38-6.23 4.48-3.28 1.11-6.34 1-9.19-.33-2.84-1.34-5.03-3.88-6.56-7.64-.88-2.44-1.59-4.87-2.14-7.31-.55-2.44-.82-4.86-.82-7.31-.23-7.75-.28-15.33-.16-22.75.11-7.42.16-15 .16-22.75 0-4.42-.39-7.47-1.16-9.13-.77-1.66-2.38-2.82-4.82-3.49-3.1-.88-5.87-.55-8.3.99-2.44 1.56-4.21 4.21-5.31 7.98-.67 2.22-1.12 4.43-1.33 6.64-.23 2.22-.33 4.43-.33 6.64-.23 8.42-.33 16.83-.33 25.25v25.24c0 4.43-.45 7.47-1.33 9.13-.89 1.66-2.77 3.04-5.65 4.15-5.76 1.77-10.52-.45-14.28-6.65-1.78-3.32-2.88-6.92-3.32-10.79-.45-3.87-.66-7.69-.66-11.46-.23-12.62-.33-25.3-.33-38.03V1522.37zM306.18 1532c.44 14.18.72 28.34.83 42.51.11 14.18.28 28.35.5 42.51 0 7.31-3.32 9.96-9.96 7.98-7.09-2-11.29-6.42-12.62-13.29-1.78-7.97-2.77-15.94-2.99-23.91-1.11-16.16-1.83-32.27-2.16-48.33-.33-16.05-.16-32.16.5-48.32.44-7.98.88-15.94 1.33-23.91.44-7.98 1.1-15.94 1.99-23.92.44-4.42 1.77-8.74 3.98-12.95 2.44-4.43 5.65-6.53 9.64-6.31 3.98.22 7.08 2.55 9.3 6.97 1.77 3.1 2.83 6.2 3.15 9.3.33 3.1.38 6.31.17 9.63-.45 11.07-.89 22.03-1.33 32.88-.45 10.85-.89 21.81-1.33 32.88V1532h-1zM372.94 1426.71c-1.12 5.76-2.11 11.46-2.99 17.11-.89 5.65-1.66 11.35-2.32 17.1a628.79 628.79 0 0 0-4.65 64.44c-.45 21.48.44 43.18 2.66 65.1.22 1.78.5 3.49.83 5.15.33 1.66.83 3.15 1.49 4.48 1.33 2.88 2.83 4.37 4.49 4.49 1.66.11 3.37-1.05 5.15-3.49 7.75-11.51 11.84-24.25 12.29-38.2.22-7.52-1.5-14.67-5.15-21.42-3.65-6.75-7.58-13.34-11.79-19.76-.23-.44-.33-.83-.33-1.16 0-.33-.11-.72-.33-1.16 1.11-2 2.93-3.71 5.48-5.15 2.54-1.43 5.26-2.54 8.14-3.32a40.18 40.18 0 0 1 8.8-1.33c2.99-.11 5.48.17 7.47.83 3.76.89 6.86 2.66 9.3 5.32 2.43 2.66 3.65 6.2 3.65 10.62-.22 7.53-.5 15.01-.83 22.42-.33 7.42-.94 14.89-1.83 22.42-.66 9.3-2.22 19.04-4.65 29.22-1.78 6.2-4.32 11.74-7.63 16.6-1.78 2.44-4.1 4.44-6.97 5.98-2.88 1.56-6.04 2.77-9.47 3.66-3.44.89-6.92 1.33-10.46 1.33-3.55 0-6.65-.33-9.3-1-7.97-2.21-14.23-6.14-18.76-11.79-4.55-5.65-7.92-12.46-10.13-20.43-.89-3.1-1.55-6.42-1.99-9.96-.45-3.54-.89-7.08-1.33-10.62-1.56-21.26-1.56-42.29 0-63.11 1.54-20.81 4.2-41.52 7.97-62.11.88-3.76 2-7.41 3.32-10.96 1.33-3.54 2.76-7.08 4.32-10.62 3.1-7.31 8.52-12.84 16.27-16.61 3.1-1.33 6.65-2.16 10.63-2.49 3.98-.33 7.91-.06 11.79.82 3.87.89 7.47 2.33 10.79 4.32 3.32 2 5.75 4.55 7.31 7.64 1.55 3.1 2.71 6.37 3.49 9.8.77 3.43 1.38 6.92 1.83 10.46.44 4.43.61 8.8.5 13.12-.11 4.32-.38 8.69-.83 13.12-.22 2.22-.83 4.32-1.83 6.31-.99 2-2.16 3.88-3.49 5.65-.89 1.55-2.16 2.66-3.82 3.32-1.66.66-3.43.94-5.31.83-1.88-.11-3.65-.61-5.31-1.5-1.66-.88-2.94-2.1-3.82-3.65-1.56-2.22-2.49-4.59-2.83-7.14-.33-2.54-.38-5.15-.16-7.81.22-1.99.55-3.93.99-5.81.44-1.88.55-3.82.33-5.82-.22-2.87-.45-5.81-.66-8.8a59.87 59.87 0 0 0-1.33-8.8c-1.14-4.43-4.13-6.97-8.99-7.64zM431.39 1522.37v-83.04c0-4.86.44-8.25 1.33-10.13.88-1.88 2.88-3.49 5.98-4.82 3.32-1.11 6.48-1.16 9.47-.17 2.99 1 5.36 3.16 7.14 6.48 1.33 2.44 2.44 5.1 3.32 7.98.88 2.88 1.43 5.76 1.66 8.64.66 9.96.72 19.71.16 29.22a521.21 521.21 0 0 1-2.49 28.9c-.22 1.11-.38 2.1-.5 2.99-.11.89-.16 1.88-.16 2.99-.45 2.22-.45 4.26 0 6.14.44 1.88 1.77 3.49 3.98 4.82 2.21 1.11 4.42 1.61 6.64 1.49 2.22-.11 4.1-1.27 5.65-3.49 3.32-4.42 5.43-8.96 6.31-13.61 2.4-13.95 4.37-27.68 5.9-41.18.87-6.42 1.58-12.79 2.13-19.1.55-6.31 1.15-12.68 1.8-19.1.43-4.2 1.14-7.03 2.12-8.47.99-1.43 2.79-2.49 5.41-3.15 2.62-.67 5.26-.5 7.9.5 2.63.99 4.62 2.94 5.95 5.81.88 2 1.61 4.1 2.16 6.31.55 2.22.83 4.43.83 6.64.22 3.98.11 7.98-.33 11.96-.45 3.98-.89 7.86-1.33 11.63-3.1 25.91-5.21 51.7-6.31 77.38-1.1 25.69-1.43 51.6-1 77.72 0 5.09-.55 8.58-1.64 10.46-1.09 1.88-3.17 3.38-6.23 4.48-3.28 1.11-6.34 1-9.19-.33-2.84-1.34-5.03-3.88-6.56-7.64-.88-2.44-1.59-4.87-2.14-7.31-.55-2.44-.82-4.86-.82-7.31-.23-7.75-.28-15.33-.16-22.75.11-7.42.16-15 .16-22.75 0-4.42-.39-7.47-1.16-9.13-.77-1.66-2.38-2.82-4.82-3.49-3.1-.88-5.87-.55-8.3.99-2.44 1.56-4.21 4.21-5.31 7.98-.67 2.22-1.11 4.43-1.33 6.64-.23 2.22-.33 4.43-.33 6.64-.23 8.42-.33 16.83-.33 25.25v25.24c0 4.43-.45 7.47-1.33 9.13-.89 1.66-2.77 3.04-5.65 4.15-5.76 1.77-10.52-.45-14.28-6.65-1.78-3.32-2.88-6.92-3.32-10.79-.45-3.87-.66-7.69-.66-11.46-.23-12.62-.33-25.3-.33-38.03V1522.37zM269.32 1721.92c.45.45.55 1.05.33 1.83-.22.78-.66 1.16-1.33 1.16h-6.81c-2.1 0-4.15.22-6.14.66-14.17 1.56-22.92 9.64-26.23 24.25a82.763 82.763 0 0 0-1.66 16.44c0 5.43.33 10.91.99 16.44.44 3.99 1.11 7.76 2 11.29 1.33 6.43 4.98 9.75 10.96 9.96 7.75.89 14.06 4.99 18.93 12.29 2.66 3.54 2.21 6.42-1.33 8.64-1.56.89-3.16 1.49-4.82 1.83-1.66.33-3.27.72-4.82 1.16-.89.45-1.71.61-2.49.5-.78-.11-1.61-.05-2.49.16-5.31 1.11-9.13 2.88-11.46 5.31-2.32 2.44-3.71 6.53-4.15 12.29-.23 1.78-.33 3.65-.33 5.65v5.98c.22 7.31.38 14.67.5 22.09s.17 14.78.17 22.09c0 4.43-.56 9.19-1.66 14.28-.45 1.78-1.22 3.49-2.33 5.15-1.11 1.65-2.54 2.71-4.32 3.15-2.22.44-4.04-.17-5.48-1.83-1.44-1.66-2.49-3.38-3.15-5.15-1.12-2.88-2-5.76-2.66-8.64-.66-2.88-1.33-5.87-1.99-8.97-.23-1.11-.28-2.1-.17-2.99.11-.88.17-1.87.17-2.99 0-28.12-.06-56.01-.17-83.7-.11-27.68-.16-55.57-.16-83.7 0-5.53.77-9.47 2.32-11.79 1.55-2.33 4.87-4.26 9.96-5.82 18.6-4.84 35.21-.52 49.82 12.98zM302.86 1822.89c.44 14.18.72 28.34.83 42.51.11 14.18.28 28.35.5 42.51 0 7.31-3.32 9.96-9.96 7.98-7.09-2-11.29-6.42-12.62-13.29-1.78-7.97-2.77-15.94-2.99-23.91-1.11-16.16-1.83-32.27-2.16-48.33-.33-16.05-.16-32.16.5-48.32.44-7.98.88-15.94 1.33-23.91.44-7.98 1.1-15.94 1.99-23.92.44-4.42 1.77-8.74 3.98-12.95 2.44-4.43 5.65-6.53 9.64-6.31 3.98.22 7.08 2.55 9.3 6.97 1.77 3.1 2.83 6.2 3.15 9.3.33 3.1.38 6.31.17 9.63-.45 11.07-.89 22.03-1.33 32.88-.45 10.85-.89 21.81-1.33 32.88v16.27h-1zM323.79 1712.63c3.54-3.1 6.97-4.76 10.3-4.99 3.32-.22 6.75.67 10.3 2.66 11.06 5.76 17.04 15.5 17.93 29.23v10.29c0 5.77-.11 12.68-.33 20.76-.22 8.09-.45 16.77-.66 26.08-.23 9.3-.39 17.99-.5 26.07-.11 8.08-.16 15-.16 20.76s.11 9.19.33 10.29c.44 2.66 1.38 5.04 2.82 7.14 1.44 2.11 3.82 3.38 7.14 3.82.66-.88 1.33-4.15 1.99-9.8.67-5.65 1.34-12.46 2-20.43.67-7.97 1.27-16.55 1.83-25.74.55-9.19 1.05-17.83 1.5-25.91.44-8.08.77-15 .99-20.76s.44-9.19.67-10.3c.44-3.32.77-6.64.99-9.96.22-3.32.66-6.64 1.33-9.96 1.55-9.74 6.75-16.05 15.61-18.93 4.65-1.54 8.35-.99 11.13 1.66 2.76 2.66 3.82 6.76 3.15 12.29-.67 5.09-1.44 10.02-2.32 14.78-.89 4.76-1.89 9.69-2.99 14.78l-25.91 145.48c-.45 1.78-.67 3.21-.67 4.32-.66 4.43-1.88 8.19-3.65 11.29-1.78 3.1-4.77 5.2-8.97 6.31-3.54.67-7.31-.11-11.29-2.32-3.98-2.22-6.87-5.53-8.64-9.96-2.66-6.64-4.32-13.73-4.98-21.26-.67-10.18-1.22-20.31-1.66-30.39-.45-10.08-.99-20.31-1.66-30.72a705.693 705.693 0 0 0-5.48-55.64c-2.54-18.27-5.7-36.58-9.46-54.97-.23-.88-.33-1.83-.33-2.82s-.13-2.05-.35-3.15zM462.28 1901.27c5.31.45 9.68.89 13.12 1.33 3.43.45 6.31 1.16 8.64 2.16s4.32 2.33 5.98 3.98c1.66 1.66 3.49 3.82 5.48 6.48 1.55 1.78.33 3.32-3.65 4.65-3.98 1.33-9.13 2.27-15.45 2.83-6.31.55-12.84.66-19.59.33s-11.9-1.16-15.45-2.49c-2.66-.89-4.64-2.49-5.97-4.82a25.57 25.57 0 0 1-2.83-7.47c-.55-2.66-.83-5.2-.83-7.63 0-2.44-.11-4.32-.33-5.65-.44-22.8-.99-45.45-1.65-67.92-.67-22.47-1.33-45.11-2-67.92-.22-5.31-.33-10.68-.33-16.11s-.11-10.91-.33-16.44c0-2.44.22-4.7.67-6.81.44-2.1 1.21-4.15 2.32-6.14 1.33-1.77 2.6-2.99 3.82-3.66 1.21-.66 2.93-.44 5.15.67 2.66 1.33 6.26 2.16 10.79 2.49 4.54.33 8.25.39 11.13.16 2.87 0 5.7-.05 8.47-.16s5.59-.06 8.47.16c3.32.23 6.42.94 9.3 2.16 2.88 1.22 5.2 3.27 6.97 6.14 1.78 2.88 2.22 5.43 1.33 7.64-.89 2.22-3.1 3.32-6.64 3.32-1.78.22-3.49.11-5.15-.33-1.66-.44-3.38-.77-5.15-.99-1.11-.45-2.27-.77-3.49-1-1.21-.21-2.38-.33-3.49-.33-4.43-.44-7.53.23-9.3 2-1.78 1.78-2.77 4.87-2.99 9.3 0 2.44.05 4.87.16 7.3.11 2.44.28 4.88.5 7.31.44 8.42.77 16.73 1 24.91.21 8.2.55 16.38.99 24.58.22 3.1.72 5.14 1.49 6.14.77.99 2.6 1.94 5.48 2.82 1.33.45 2.66.67 3.98.67s2.54.11 3.66.33c3.1.22 6.09.66 8.96 1.33 1.33.44 2.49 1.05 3.49 1.83 1 .77 1.61 2.05 1.83 3.82.88 3.54-.23 5.87-3.32 6.97-1.78.89-3.38 1.38-4.82 1.49-1.44.11-3.15.5-5.15 1.16-1.11.22-2.16.33-3.15.33-1 0-2.05.11-3.16.33-2.88.67-5.04 2.05-6.48 4.15-1.44 2.11-2.27 4.59-2.49 7.47-.23 9.52-.28 18.99-.17 28.4.12 9.42.18 19 .18 28.73zM295.36 1019.22l4.85-84.84c9.7-70.3 82.42-106.66 96.96-111.51s99.39 16.97 113.93 16.97c14.54 0 60.6-135.75 96.96-230.29 36.36-94.54 162.42-80 106.66-4.85-20.43 27.53-126.05 298.17-126.05 298.17-3.64 87.27-36.36 229.08-94.54 283.62-58.18 54.54-236.35 14.54-305.44 3.64 0 0-70.3-13.33-82.42-88.48s-8.48-171.51-8.48-171.51 30.91-222.41 28.48-270.9c-2.42-48.48-6.96-326.54-12.73-359.98-9.09-52.72 64.24-78.78 61.82 18.18-2.42 96.96 13.33 301.8 18.18 313.92 4.85 12.12 36.36 29.09 36.36-9.7s1.82-358.77 1.82-420.59c0-65.55 63.63-98.18 70.91-14.54 6.1 70.2 9.7 418.16 9.7 432.71s31.51 33.94 31.51 4.85 33.11-415.07 29.7-490.28c-1.82-40 63.63-94.54 76.36-5.45 10.38 72.63-43.03 495.73-35.76 500.58 7.27 4.85 26.67 12.12 31.51-16.97s84.84-482.4 96.96-494.52c12.12-12.12 75.15-55.75 72.72 41.21s-80 410.89-80 456.95-4.85 175.14 0 187.26"/><path class="st1" d="m300.64 1018.6 3.99-69.74c.61-10.65 1.21-20.45 4.19-30.83 5.46-18.99 16.11-36.23 29.52-50.63 11.12-11.95 23.99-22.2 37.91-30.7 4.66-2.85 9.44-5.53 14.38-7.88 1.87-.89 3.76-1.75 5.68-2.52.66-.27 1.34-.5 1.99-.77.08-.03-.12-.03.31-.06 12.19-.76 26.06 2.16 38.51 4.42 16.92 3.08 33.73 6.7 50.62 9.92 8.31 1.58 20.99 6.01 28.81.93 7.51-4.88 11.8-15.51 15.55-23.18 17.34-35.43 30.55-73.05 44.32-109.96 8.25-22.11 16.41-44.27 24.69-66.37 7.19-19.21 13.23-39.59 25.14-56.53 15.55-22.11 42.92-41.05 71.17-37.84 8.97 1.02 18.4 4.94 23.07 13.11 5.53 9.67 2.47 21.69-2.21 31.02-4.11 8.19-10.02 15.27-14.31 23.38-4.4 8.33-8.37 16.9-12.28 25.47-25.13 55.02-47.58 111.31-70.12 167.43-9.61 23.93-19.15 47.89-28.6 71.88-2.57 6.53-5.14 13.05-7.7 19.59-2.41 6.16-2.17 11.81-2.65 18.57-3.04 42.55-10.72 84.97-21.97 126.1-10.96 40.07-25.3 80.65-48.57 115.37-8.9 13.28-19.37 26.67-33.23 35.04-12.9 7.78-27.96 11.76-42.72 14.16-37.87 6.15-77.06 3.48-114.99-.68-36.08-3.95-71.84-10.24-107.58-16.47-8.3-1.45-16.87-2.29-25.02-4.46-9.11-2.43-17.88-6.3-26.03-11.01-13.13-7.58-24.62-17.85-33.34-30.27-12.26-17.47-16.8-37.47-19.58-58.3-5.99-44.73-7.39-90.15-6.95-135.25.12-12 .63-23.19 2.23-35.01 3.44-25.36 6.74-50.73 9.92-76.12 4.17-33.36 8.15-66.76 11.54-100.21 2.58-25.5 5.6-51.33 5.38-77-.16-18.99-1.3-38.01-1.81-56.99-.85-31.78-1.61-63.57-2.43-95.35-1.6-62.29-2.65-124.7-6.35-186.9-.46-7.74-.88-15.52-1.87-23.21-1.34-10.4-1.83-20.45 2.98-30.14 3.78-7.63 11.01-14.7 18.17-15.25 9.23-.71 17.19 7.23 21.42 15.23 8.64 16.32 8.45 35.77 8.15 53.7-.28 16.89-.08 33.79.31 50.67.91 39.94 2.89 79.86 5.37 119.74 2.12 34.08 4.54 68.16 7.86 102.14.95 9.71 1.88 19.45 3.37 29.09 1.17 7.56 4.03 12.75 10.56 17.36 9.7 6.85 24.76 8.35 32.68-2.15 6.16-8.19 5.09-19.37 5.11-29.09.06-21.45.17-42.91.27-64.36.32-67.73.67-135.45.99-203.18.14-30.67.29-61.34.4-92.01.04-11.46.09-22.91.11-34.37.03-10.14-.47-20.47.87-30.54 1.98-14.78 7.51-30.42 18.57-40.9 7.48-7.09 16.59-9.76 25-2.41 12.29 10.74 14.85 30.27 16.1 45.49.7 8.57 1.14 17.16 1.55 25.75 2.87 60.38 3.83 120.87 4.94 181.31 1.12 60.84 1.99 121.68 2.67 182.52.15 13.29.23 26.58.38 39.86.12 10.77 10.08 20.16 20.19 22.55 6.38 1.51 14.04-.07 18.25-5.39 3.31-4.18 3.52-9.4 3.66-14.5 1.07-41.05 5.5-82.19 8.54-123.12 5.06-68.02 10.11-136.05 14.48-204.12 3.31-51.55 7.68-103.55 6.84-155.25-.17-10.31.38-19.59 5.09-29.06 4.98-10.03 12.91-20.01 23.26-24.85 26.97-12.62 36.52 33.04 37.94 50.46 1.55 19.1.54 38.49-.34 57.6-1.32 28.52-3.41 57-5.71 85.45-5.31 65.86-11.87 131.6-18.36 197.35-4.56 46.25-10.26 92.64-12.47 139.08-.2 4.21-.87 9.08-.06 13.26 1.15 5.92 12.01 7.77 16.91 7.92 15.88.46 23.42-12.29 25.84-26.31.76-4.38 1.51-8.77 2.27-13.15 7.75-44.41 15.72-88.79 23.76-133.14 11.34-62.49 22.86-124.95 34.91-187.3 9-46.58 17.53-93.47 29.18-139.48 1.33-5.24 2.64-10.52 4.44-15.62.75-2.13.58-1.95 1.37-3.26.6-1-.99.77.53-.58 1.15-1.02 2.29-2.06 3.48-3.03 11.27-9.17 31.06-21.19 44.82-9.97 11.3 9.22 13.25 27.01 13.99 40.47.75 13.56-.31 27.18-1.71 40.66-3.11 30.01-8.16 59.83-13.45 89.52-12.84 72.1-28.18 143.74-42.84 215.49-5.83 28.56-11.7 57.13-16.7 85.85-1.62 9.31-3.19 18.65-4.28 28.03-.95 8.18-.85 16.31-.94 24.54-.41 34.35-1.43 68.69-1.86 103.04-.2 15.71-.35 31.42-.03 47.13.16 7.68-.77 17.47 1.99 24.83 1.44 3.83 11.88.76 10.54-2.82-2.96-7.88-1.88-18.47-2.03-26.7-.3-17.15-.07-34.31.19-51.45.52-34.77 1.66-69.54 1.84-104.32.09-17.93 3.68-35.73 6.88-53.31 5.48-30.12 11.67-60.11 17.83-90.09 14.88-72.46 30.34-144.85 42.82-217.77 4.81-28.14 9.45-56.46 11.67-84.94 1.24-15.83 1.79-32.17-1.55-47.78-2.45-11.47-7.8-23.94-19.35-28.75-18.46-7.69-40.39 3.98-54.78 15.18-3.68 2.86-6.72 5.35-8.42 9.71-1.8 4.59-3.01 9.44-4.25 14.21-11.79 45.2-20.06 91.45-28.94 137.29-12.19 62.88-23.82 125.87-35.26 188.9-8.23 45.34-16.38 90.7-24.3 136.09-.79 4.54-1.57 9.07-2.35 13.61-1 5.81-2.3 14.29-7.66 17.91-3.74 2.53-8.72.3-12.32-1.54-.45-.23-1.95-1.26-1.65-.91-.31-.37.4.87.2.33-.15-.4-.24-.87-.25-1.29-.09-2.01-.17-2.82-.15-4.47.07-6.3.5-12.59.94-18.87 3.63-52.12 9.48-104.12 14.59-156.11 6.48-65.93 12.96-131.89 17.78-197.96 1.92-26.29 3.65-52.62 4.27-78.97.48-20.3.85-41-5.01-60.67-3.82-12.82-11-26.98-24.97-30.7-11.7-3.11-24.12 1.85-33.35 8.93-9.8 7.51-17.35 18.03-21.64 29.58-3.44 9.29-2.93 18.29-2.86 27.96.41 53.92-4.05 108.07-7.57 161.84-4.47 68.43-9.58 136.81-14.66 205.2-1.89 25.46-3.81 50.92-5.57 76.38-.57 8.25-1.14 16.5-1.61 24.75-.32 5.59.05 11.69-.91 17.19-1.24 7.07-3.45 7.29-9.42 3.8-5.09-2.97-10.22-8.33-11.04-14.4-.52-3.86-.14-8.02-.18-11.91-.18-20.13-.42-40.27-.67-60.4-.81-65.84-1.81-131.67-3.19-197.5-1.13-53.5-1.39-107.31-5.46-160.69-1.18-15.47-3.56-33.07-13.84-45.46-7.96-9.58-20.15-12.03-31.68-7.9-27.81 9.98-36.21 44.11-36.23 70.29-.05 55.14-.4 110.28-.67 165.41-.32 66.32-.67 132.64-.96 198.96-.08 17.21-.1 34.43-.19 51.64-.03 5.47.06 17.65-6.17 20.55-3.32 1.55-9.2-1.83-12.07-3.83-6.4-4.48-8.11-9.34-9.18-16.53-3.82-25.91-5.51-52.23-7.49-78.33-2.99-39.45-5.39-78.94-7.12-118.47-1.63-37.25-2.16-74.41-1.91-111.68.15-22.94-4.59-64.52-35.83-64.39-23.82.1-38.43 23.39-37.3 45.26.37 7.17 1.75 14.35 2.28 21.53.8 10.77 1.33 21.56 1.83 32.35 3.05 66.62 4.44 133.33 6.11 199.99.72 28.55 1.39 57.11 2.25 85.65.54 17.98 1.39 35.74.3 53.73-3.85 63.55-12.52 126.94-20.73 190.04-2.27 17.42-5.18 34.85-6.99 52.33-.55 5.33-.39 10.79-.48 16.14-.28 17.88-.17 35.77.31 53.64.66 24.83 2.04 49.67 4.7 74.37 2.41 22.36 5.01 44.97 15.95 65.02 13.42 24.59 36.5 42.37 62.85 51.27 6.25 2.11 12.33 3.11 18.83 4.21 15.6 2.63 31.17 5.46 46.77 8.09 38.56 6.5 77.4 12.15 116.48 14.19 35.78 1.86 73.75 1.59 107.89-10.6 14.19-5.07 26.82-12.69 37.27-23.6 12.77-13.34 22.96-28.98 31.63-45.23 20.4-38.23 33.53-80.35 43.17-122.45a695.29 695.29 0 0 0 11.7-65.01c1.31-9.99 2.38-20.01 3.18-30.06.45-5.72-.17-12.48 1.2-18.01.96-3.86 3.03-7.74 4.48-11.43 3.4-8.66 6.81-17.31 10.24-25.96 10.46-26.45 21.01-52.86 31.67-79.23 21.8-53.91 43.02-108.48 68.44-160.82 3.04-6.26 6.06-12.71 9.96-18.49 7.15-10.6 14.8-21.79 15.16-35.07.65-24.01-24.38-31.76-44.3-30.39-30.7 2.11-58.84 21.52-75.39 46.83-11.22 17.16-17.22 37.55-24.35 56.61-8.47 22.62-16.81 45.29-25.27 67.92-13.61 36.42-26.47 73.82-44.1 108.55-2.38 4.69-4.86 9.43-7.96 13.7-1.05 1.45-1.81 2.01-2.88 3.31-.34.4.55-.23.34-.17 1.52-.4 3.51-.15 1.35-.63-5-1.1-10.35-1.47-15.43-2.43-7.92-1.48-15.81-3.1-23.71-4.68-16.7-3.35-33.43-6.84-50.32-9.07-10.35-1.37-20.53-2.67-30.4 1.39-26.72 10.98-51.52 30.21-69.58 52.58-11.89 14.73-20.92 31.91-25.23 50.41-2.15 9.24-2.35 18.42-2.89 27.85l-3.84 67.14c-.27 4.43 10.33 2.42 10.54-1.28z"/><path class="st1" d="M234.25 756.34c65.11 7.16 131.25-4.59 190.33-32.69 2.81-1.34 6.31-4.91 2.21-6.89-4.28-2.05-10.97.49-14.83 2.32-50.97 24.24-108.41 33.35-164.43 27.19-4.89-.54-11.04.84-14.9 3.99-3.13 2.57-2.8 5.6 1.62 6.08zM550.15 270.67c5.58-1.31 10.76-.03 15.85 2.38 8.92 4.24 24.25-8.64 12.11-14.41-10.02-4.76-21.22-5.23-31.9-2.71-4.24 1-9.91 5.18-8.56 10.19 1.39 5.21 8.32 5.54 12.5 4.55zM498.05 466.15l28.98 4.35c5.02.75 11.05-.53 14.9-3.99 3.12-2.8 2.58-6.63-1.96-7.31l-28.98-4.35c-5.02-.75-11.05.53-14.9 3.99-3.11 2.8-2.57 6.63 1.96 7.31zM393.1 259.87h14.54c4.71 0 11.18-1.51 13.9-5.79 2.64-4.14-2.25-6.34-5.75-6.34h-14.54c-4.71 0-11.18 1.51-13.9 5.79-2.64 4.14 2.25 6.34 5.75 6.34zM383.62 465.69h7.27c2.63 0 5.79-.88 8.22-1.8 1.78-.67 4.56-1.83 5.84-3.39.74-.9 1.58-2.19.3-3.14-1.5-1.1-3.72-.92-5.44-.92h-7.27c-2.63 0-5.79.88-8.22 1.8-1.78.67-4.56 1.83-5.84 3.39-.74.9-1.58 2.19-.3 3.14 1.51 1.11 3.72.92 5.44.92zM258.16 276.43h12.73c4.51 0 11.36-3.67 11.54-8.78.2-5.59-5.23-7.38-9.86-7.38h-12.73c-4.51 0-11.36 3.67-11.54 8.78-.2 5.59 5.23 7.38 9.86 7.38zM253.93 492.45h3.64c2.58 0 5.2-.46 7.68-1.12 2.36-.63 5.14-1.52 7.22-2.87.5-.35.99-.7 1.49-1.05.7-.46 1.05-1.09 1.03-1.89-.55-1.24-2.58-1.28-3.65-1.28h-3.64c-2.58 0-5.2.46-7.68 1.12-2.36.63-5.14 1.52-7.22 2.87-.5.35-.99.7-1.49 1.05-.7.46-1.05 1.09-1.03 1.89.55 1.24 2.58 1.28 3.65 1.28zM140.15 355.35h1.82c1.38-.02 2.73-.2 4.06-.53 1.44-.25 2.83-.65 4.18-1.2a13.98 13.98 0 0 0 3.37-1.74c.91-.5 1.71-1.15 2.39-1.95.26-.44.52-.88.78-1.33.29-.91.09-1.68-.62-2.32-.45-.25-.89-.5-1.34-.76-1.36-.44-2.76-.62-4.2-.55h-1.82c-1.38.02-2.73.2-4.06.53-1.44.25-2.83.65-4.18 1.2a13.98 13.98 0 0 0-3.37 1.74c-.91.5-1.71 1.15-2.39 1.95-.26.44-.52.88-.78 1.33-.29.91-.09 1.68.62 2.32.45.25.89.5 1.34.76 1.36.44 2.76.63 4.2.55zM150.33 532.56c4.96 0 10.72-1.21 14.9-3.99 3.08-2.05 3.13-4.45-1.19-4.45-4.96 0-10.72 1.21-14.9 3.99-3.09 2.05-3.14 4.45 1.19 4.45z"/></svg>