<svg width="62" height="12" viewBox="0 0 62 12" fill="none" xmlns="http://www.w3.org/2000/svg">
<g clip-path="url(#clip0_1454_174762)">
<path d="M0.37793 9.61287V2.43222H2.51161V9.61287H0.37793Z" fill="white"/>
<path d="M3.78393 9.61287V2.43222H6.49206L8.02051 7.12016L9.5387 2.43222H12.1853V9.61287H10.1337V5.05828L8.82064 9.61287H7.2409L5.83554 5.03777V9.61287H3.78393Z" fill="white"/>
<path d="M21.2571 5.66351V7.1099H20.6929C20.4946 7.98525 20.0706 8.65887 19.4209 9.13074C18.7781 9.60261 17.9403 9.83854 16.9077 9.83854C15.7519 9.83854 14.8116 9.48293 14.0867 8.77171C13.3686 8.06048 13.0096 7.15093 13.0096 6.04306C13.0165 4.92151 13.3789 4.0017 14.097 3.28364C14.8219 2.56558 15.793 2.20654 17.0103 2.20654C18.0566 2.20654 18.9114 2.43906 19.5748 2.90409C20.245 3.36912 20.6074 3.97435 20.6621 4.71977H18.3438C18.2891 4.48041 18.1421 4.28893 17.9027 4.14532C17.6702 3.99487 17.3761 3.91964 17.0205 3.91964C16.4529 3.91964 16.0118 4.1077 15.6972 4.48383C15.3895 4.85312 15.2356 5.34893 15.2356 5.97125C15.2356 6.5799 15.3963 7.07571 15.7177 7.45867C16.0392 7.8348 16.4666 8.02287 17 8.02287C17.7933 8.02287 18.2925 7.71854 18.4977 7.1099H17.318V5.66351H21.2571Z" fill="white"/>
<circle cx="23.0968" cy="8.58072" r="1.16129" fill="#471AFF"/>
<path d="M25.4102 9.61302V2.43237H27.5438V7.77682H29.4046V9.61302H25.4102Z" fill="white"/>
<path d="M34.199 2.43237H36.5789L33.0193 9.61302H30.6292L31.8602 7.08953L29.4495 2.43237H31.9627L33.1014 4.99689L34.199 2.43237Z" fill="white"/>
</g>
<defs>
<clipPath id="clip0_1454_174762">
<rect width="36.6452" height="8" fill="white" transform="translate(0 2)"/>
</clipPath>
</defs>
</svg>
