<svg width="62" height="12" viewBox="0 0 62 12" fill="none" xmlns="http://www.w3.org/2000/svg">
<g clip-path="url(#clip0_1454_2636)">
<path fill-rule="evenodd" clip-rule="evenodd" d="M0 11.8949H11.8947V0H0V11.8949ZM8.87913 8.40564C8.83142 8.42385 8.50279 8.43672 8.73542 8.46304C8.88144 8.47937 8.64636 8.49123 8.64708 8.544C8.69523 8.54255 8.7681 8.63508 8.78689 8.63219C8.78949 8.64607 8.64246 8.68511 8.67354 8.68973C8.7986 8.70737 8.56785 8.71561 8.58304 8.74554C8.62641 8.83084 8.56178 8.80193 8.64304 8.84096C8.68641 8.86193 8.67354 8.93841 8.64506 8.94477C8.6079 8.95316 8.59663 8.97325 8.56265 8.97614C8.55788 9.00723 8.52969 9.02154 8.49238 9.02689C8.41171 9.05696 8.3212 9.09123 8.23388 9.10019C8.17764 9.10569 8.1801 9.11118 8.12429 9.10034C8.06429 9.10829 7.97277 9.11335 7.91292 9.10742C7.86332 9.11957 7.1228 9.16294 7.06092 9.15455C7.01161 9.16511 6.71537 9.17537 6.65451 9.16655C6.5932 9.17841 6.07908 9.19214 6.02588 9.18593C5.96342 9.19677 5.86713 9.2014 5.80453 9.19287C5.74207 9.20516 5.64549 9.20747 5.58246 9.2001C5.5213 9.21152 4.1627 9.17913 4.09648 9.16901C4.03243 9.17696 3.7148 9.16612 3.65161 9.15542C3.59884 9.16337 3.51933 9.15788 3.46655 9.14978C3.40496 9.15846 3.30911 9.15369 3.24925 9.13692C3.21484 9.12737 3.19214 9.13243 3.17754 9.09831C3.16525 9.06998 3.16843 9.05263 3.14588 9.04063C3.11913 9.0266 3.11754 8.96573 3.13504 8.94304C3.10569 8.88072 3.1466 8.76405 3.12304 8.67802C3.10901 8.62641 3.13663 8.6293 3.16164 8.58231C3.13214 8.58434 3.12578 8.532 3.12925 8.52202C3.14834 8.46766 3.12029 8.4412 3.16106 8.39494C3.18549 8.36747 3.17436 8.34477 3.21817 8.34477C3.24983 8.34477 3.288 8.34492 3.31908 8.34983C3.38675 8.34463 3.47451 8.34795 3.54173 8.35836C3.67923 8.34896 4.29788 8.37152 4.43147 8.39277C4.55913 8.38366 4.71195 8.39277 4.83932 8.40795C4.97595 8.40116 7.26969 8.38352 7.39431 8.37745C7.53108 8.37108 7.6852 8.35041 7.8214 8.36386C7.91899 8.34766 8.04448 8.35735 8.14077 8.37614C8.22969 8.37296 8.27133 8.34072 8.35822 8.34535C8.36371 8.33638 8.49701 8.36574 8.51104 8.36646C8.52318 8.34578 8.64246 8.36386 8.67036 8.36545C8.70116 8.36761 8.90732 8.39479 8.87913 8.40564ZM8.94839 7.38043C8.95388 7.3988 8.96342 7.41484 8.97745 7.42858C8.83258 7.34342 8.70564 7.23528 8.56757 7.1413C8.57826 7.19002 8.87277 7.35022 8.85484 7.38333C8.85079 7.392 8.47345 7.11267 8.46795 7.1173C8.44439 7.13436 8.53142 7.22371 8.51306 7.21952C8.51653 7.22226 8.58361 7.272 8.57595 7.2801C8.56048 7.28588 8.98005 7.60019 8.94318 7.64443C8.92814 7.66207 8.81393 7.55754 8.7986 7.55017C8.80945 7.56795 8.82217 7.584 8.83706 7.59889C8.74786 7.54598 8.67571 7.47267 8.59128 7.41369C8.60255 7.43465 8.61817 7.45243 8.63798 7.46675C8.56742 7.46733 8.41807 7.28964 8.35735 7.25378C8.33769 7.24308 8.24429 7.15229 8.23041 7.15793C8.22882 7.16357 8.23041 7.16848 8.23475 7.17267C8.19947 7.15605 8.16882 7.13407 8.14265 7.10646C8.14439 7.12135 8.04506 6.97937 8.0053 6.99716C8.02959 7.02058 8.05388 7.04429 8.07759 7.06814C7.99764 7.08549 7.93316 6.88482 7.82516 6.93007C7.83398 6.92631 8.27118 7.34082 8.28289 7.36973C8.28159 7.36626 8.25701 7.36106 8.25614 7.35802C8.28275 7.44665 8.40607 7.52949 8.46694 7.59426C8.32525 7.49639 8.18834 7.36279 8.04795 7.2866C7.99287 7.25667 7.97537 7.19913 7.92246 7.22906C7.91132 7.23513 7.79248 7.15345 7.7786 7.13957C7.776 7.16125 7.77976 7.18207 7.7893 7.20188C7.67841 7.11412 7.57316 6.98516 7.44318 6.92255C7.47311 6.9652 7.50145 7.00048 7.50954 7.01884C7.5188 7.03952 7.5334 7.05369 7.53788 7.07725C7.35094 6.92747 7.1653 6.77306 6.98732 6.61258C6.94887 6.57788 6.75137 6.39629 6.72029 6.45181C6.65696 6.39441 6.2332 6.03195 6.14617 6.01431C6.21629 6.07229 6.27788 6.13865 6.34655 6.19793C6.32993 6.21065 6.15007 6.05422 6.12477 6.03282C6.08039 5.9961 5.93942 5.87234 5.87653 5.81494C5.82564 5.76853 5.77677 5.72284 5.72761 5.67745C5.6361 5.74945 5.48111 5.87986 5.45928 5.89735C5.43282 5.91889 5.40231 5.9319 5.37614 5.95952C5.30574 6.03398 5.22419 6.0986 5.14178 6.16048C5.03725 6.23855 4.94458 6.33108 4.83889 6.41133C4.84005 6.3973 4.85667 6.39441 4.84916 6.37561C4.82183 6.3973 4.79451 6.41711 4.76935 6.43937C4.62766 6.56183 4.48612 6.68443 4.34545 6.80747C4.23976 6.90014 4.13769 6.99672 4.02998 7.08694C3.91157 7.18525 3.79851 7.29007 3.68082 7.3894C3.56154 7.4906 3.84679 7.3054 3.73663 7.41687C3.71826 7.43523 3.69643 7.45099 3.67359 7.46357C3.64511 7.47961 3.62501 7.50434 3.59986 7.52371C3.5708 7.54569 3.53624 7.5613 3.50226 7.58111C3.50559 7.5428 3.5053 7.54395 3.46757 7.53267C3.43807 7.52386 3.41523 7.49986 3.3986 7.47831C3.37417 7.44665 3.30578 7.31407 3.28323 7.2172C3.28164 7.2107 3.2812 7.20304 3.28265 7.19711C3.3013 7.12381 3.28135 7.05426 3.2572 6.98516C3.22742 6.90188 3.23075 6.81528 3.22366 6.72983C3.21961 6.67677 3.26226 6.64337 3.29422 6.60954C3.36116 6.53812 3.42723 6.46366 3.50371 6.40265C3.55345 6.36275 3.60116 6.31706 3.66202 6.2893C3.70814 6.26834 3.73533 6.22251 3.77089 6.18781C3.81253 6.14689 3.85995 6.11118 3.89928 6.06954C3.95639 6.00882 4.04183 5.97788 4.09879 5.91658C4.14867 5.86308 4.64978 5.4467 4.71846 5.38872C4.83224 5.29301 4.9388 5.19745 5.05229 5.10405C5.0361 5.09031 5.02034 5.07658 5.00386 5.06241C4.87113 4.94761 4.72265 4.81388 4.58458 4.69966C4.44781 4.58631 4.31335 4.46371 4.17672 4.34516C3.96159 4.15822 3.75658 4.03431 3.53552 3.85186C3.4213 3.75759 3.17277 3.58786 3.14747 3.43706C3.12998 3.33195 3.27571 3.22439 3.32429 3.15253C3.32241 3.15542 3.54304 2.8106 3.61243 2.83923C3.63296 2.84776 3.66029 2.81783 3.7093 2.83619C3.79026 2.86641 3.84506 2.93769 3.90535 2.99436C4.09952 3.17769 4.30236 3.35147 4.50347 3.52598C4.92087 3.88829 5.31932 4.20651 5.72675 4.55985C5.7506 4.54193 5.77446 4.524 5.79817 4.50593C5.88173 4.44231 5.96964 4.38347 6.05422 4.32072C6.16149 4.24178 6.27094 4.16588 6.38024 4.08867C6.432 4.05195 6.48636 4.01812 6.53682 3.97966C6.63354 3.90535 6.7359 3.83899 6.83667 3.77075C6.97229 3.67937 7.10906 3.58973 7.24583 3.49937C7.32549 3.44631 7.40718 3.39484 7.49161 3.34742C7.52805 3.32718 7.55798 3.29407 7.60005 3.28077C7.61711 3.27528 7.63171 3.26458 7.65224 3.25157C7.76819 3.17798 7.88689 3.10858 8.00733 3.04193C8.15349 2.96082 8.29836 2.87682 8.4493 2.80366C8.4892 2.78414 8.53113 2.75451 8.58679 2.7532C8.55672 2.79123 8.52029 2.81306 8.4866 2.84284C8.51928 2.85947 8.57899 2.80843 8.58564 2.82087C8.59489 2.83807 8.57017 2.86771 8.57769 2.86395C8.59952 2.85325 8.61889 2.83518 8.64839 2.8333C8.62901 2.86569 8.59966 2.88101 8.57393 2.90284C8.61354 2.89533 8.64347 2.86106 8.69364 2.85716C8.6439 2.89995 8.58925 2.91643 8.54255 2.94651C8.50771 2.96964 8.46867 2.98728 8.43137 3.00723C8.42993 3.00766 8.42761 3.0081 8.42761 3.00896C8.42053 3.04901 8.3799 3.05754 8.35663 3.08429C8.39523 3.08241 8.42675 3.06564 8.45754 3.04569C8.46983 3.05523 8.45147 3.06173 8.45624 3.0733C8.5826 3.02631 8.68843 2.93494 8.82043 2.89793C8.77243 2.92872 8.72429 2.96082 8.67557 2.99046C8.63725 3.01359 8.60255 3.04207 8.56236 3.06361C8.52882 3.08125 8.49195 3.09282 8.46087 3.11566C8.45017 3.12361 8.42733 3.13128 8.43759 3.14805C8.44843 3.16742 8.46853 3.16251 8.48776 3.15123C8.54559 3.11812 8.60386 3.08747 8.66212 3.0561C8.66631 3.05378 8.67253 3.05581 8.67788 3.05581C8.66198 3.10626 8.61152 3.12448 8.5813 3.16742C8.61672 3.16207 8.63711 3.13692 8.6666 3.12795C8.71807 3.11292 8.76636 3.09108 8.82289 3.09007C8.8599 3.0892 8.89605 3.06361 8.93653 3.0548C8.90559 3.07619 8.87335 3.09701 8.84313 3.12043C8.83359 3.12795 8.80945 3.12737 8.81928 3.15282C8.8307 3.18217 8.84892 3.1654 8.86453 3.15947C8.88202 3.15253 8.89937 3.14313 8.91658 3.13475C8.92222 3.13171 8.92699 3.13128 8.92959 3.13822C8.93161 3.144 8.93161 3.14949 8.9241 3.15123C8.88781 3.15802 8.86092 3.18347 8.83243 3.204C8.80381 3.22496 8.77677 3.24853 8.74872 3.27166C8.75378 3.2906 8.77532 3.25561 8.77894 3.27918C8.78183 3.29812 8.76289 3.29884 8.75451 3.3026C8.61513 3.36434 8.50207 3.46786 8.37513 3.54867C8.32077 3.58308 8.17157 3.67359 8.15277 3.68487C8.09754 3.71812 8.04318 3.7534 7.98925 3.78896C7.98231 3.7933 7.96525 3.79402 7.97451 3.81195C7.98304 3.82858 7.99185 3.82294 8.00443 3.81687C8.0841 3.7787 8.16246 3.73605 8.22983 3.67923C8.27219 3.64366 8.32337 3.63108 8.36689 3.60058C8.42125 3.5627 8.61875 3.44024 8.70029 3.39181C8.74381 3.36578 8.74193 3.36275 8.784 3.3801C8.77301 3.39745 8.75089 3.39976 8.73831 3.41407C8.69841 3.45629 8.65446 3.49287 8.61007 3.52858C8.56785 3.56284 8.52347 3.59422 8.47865 3.62414C8.45986 3.63643 8.44323 3.64901 8.43267 3.67055C8.57031 3.60492 8.69133 3.5092 8.82694 3.43937C8.78357 3.48795 8.7227 3.51108 8.67094 3.54752C8.59012 3.60492 8.49629 3.64193 8.4253 3.71378C8.40708 3.73214 8.37889 3.72636 8.35822 3.74443C8.27841 3.81123 8.17908 3.84839 8.09855 3.91345C8.06892 3.93773 8.03537 3.95682 8.00689 3.98255C7.99561 3.99239 7.98506 4.00366 7.96945 4.00699C7.89224 4.0239 7.84872 4.09402 7.78265 4.12901C7.74087 4.15128 7.70487 4.18598 7.66323 4.20535C7.61335 4.22935 7.56925 4.26231 7.52559 4.29253C7.45446 4.34198 7.38636 4.39706 7.31508 4.44752C7.27692 4.47412 7.22906 4.48684 7.19957 4.52704L7.2 4.52617C7.14029 4.5506 7.09504 4.59687 7.04226 4.63171C6.95479 4.69026 6.87036 4.75229 6.78853 4.81865C6.7719 4.83267 6.75687 4.84829 6.73952 4.86202L6.74096 4.86029C6.68284 4.86361 6.66549 4.92231 6.61402 4.94357C6.63672 4.95586 6.55301 4.99272 6.54708 4.99706C6.50602 5.0254 6.45817 5.01904 6.42564 5.0559C6.41132 5.07181 6.38169 5.08916 6.35523 5.10492C6.84737 5.52347 7.34501 5.93234 7.81706 6.36C8.06863 6.588 8.33639 6.8014 8.60501 7.01306C8.76824 7.14202 9.20357 7.54713 9.25475 7.58443C9.23508 7.60193 8.98149 7.40747 8.94839 7.38043ZM26.5239 7.344H28.9862V8.39451H25.3271V3.45253H26.5239V7.344ZM20.39 8.39451H24.1152V7.35875H21.5868V6.45239H23.7928V5.4386H21.5868V4.48829H24.1152V3.45253H20.39V8.39451ZM30.0077 8.39451H33.7327V7.35875H31.2043V6.45239H33.4103V5.4386H31.2043V4.48829H33.7327V3.45253H30.0077V8.39451ZM18.6901 3.87296C19.0426 4.20434 19.2369 4.65672 19.2369 5.1467C19.2369 5.51335 19.1067 5.88289 18.8148 6.34482L17.5238 8.39451H16.1808L17.1173 6.92082L17.125 6.90882L17.0896 6.9068C16.0096 6.84231 15.255 6.12766 15.255 5.16867C15.255 4.11065 16.0939 3.34265 17.2495 3.34265C17.8146 3.34265 18.3263 3.53104 18.6901 3.87296ZM18.1278 5.12472C18.1278 4.66612 17.7356 4.29296 17.2533 4.29296C16.7709 4.29296 16.3786 4.66612 16.3786 5.12472C16.3786 5.58361 16.7709 5.95677 17.2533 5.95677C17.7356 5.95677 18.1278 5.58361 18.1278 5.12472ZM37.6132 6.12969L35.8287 3.45253H34.9444V8.39451H36.1339V5.8307L37.2849 7.61017H37.9417L39.085 5.84588V8.39451H40.282V3.45253H39.3905L37.6132 6.12969ZM52.1521 4.51764H53.7425V8.39451H54.9395V4.51764H56.5222V3.45253H52.1521V4.51764ZM59.9881 5.49672L59.2916 5.33537C58.9388 5.25933 58.7039 5.14713 58.7039 4.84626C58.7039 4.68361 58.7748 4.54959 58.9092 4.45894C59.0365 4.37263 59.2187 4.32708 59.4356 4.32708C59.9018 4.32708 60.1791 4.53918 60.2589 4.9573H61.4647C61.4226 4.56607 61.1462 3.34265 59.355 3.34265C58.7799 3.34265 58.2902 3.49316 57.9389 3.77769C57.5845 4.06511 57.397 4.47007 57.397 4.94892C57.397 5.72414 57.8506 6.18347 58.8244 6.39427L59.6453 6.5773C60.0113 6.64684 60.1893 6.79243 60.1893 7.02275C60.1893 7.31552 59.9253 7.48337 59.4649 7.48337C58.8779 7.48337 58.4902 7.22704 58.3998 6.77986H57.2014C57.2604 7.34284 57.5086 7.78135 57.9389 8.08308C58.3249 8.35388 58.84 8.49716 59.4282 8.49716C60.6713 8.49716 61.474 7.8694 61.474 6.89826C61.474 6.14255 61.0295 5.72342 59.9881 5.49672ZM41.6332 8.39451H45.3584V7.35875H42.8299V6.45239H45.0359V5.4386H42.8299V4.48829H45.3584V3.45253H41.6332V8.39451ZM49.9194 6.2948L47.4853 3.45253H46.5703V8.39451H47.7671V5.62627L50.1865 8.39451H51.1164V3.45253H49.9194V6.2948Z" fill="#000203"/>
</g>
<defs>
<clipPath id="clip0_1454_2636">
<rect width="61.5904" height="12" fill="white"/>
</clipPath>
</defs>
</svg>
