<svg width="196" height="196" viewBox="0 0 196 196" fill="none" xmlns="http://www.w3.org/2000/svg">
<g opacity="0.5">
<path fill-rule="evenodd" clip-rule="evenodd" d="M177.283 166.43C175.947 166.941 166.723 167.302 173.251 168.039C177.352 168.504 170.754 168.831 170.771 170.308C172.124 170.274 174.166 172.863 174.698 172.783C174.769 173.174 170.641 174.275 171.517 174.398C175.023 174.894 168.55 175.13 168.978 175.971C170.194 178.363 168.381 177.547 170.658 178.647C171.878 179.233 171.519 181.381 170.718 181.559C169.674 181.793 169.362 182.354 168.404 182.442C168.27 183.31 167.482 183.714 166.436 183.862C164.171 184.705 161.632 185.667 159.184 185.915C157.6 186.076 157.675 186.225 156.1 185.926C154.42 186.149 151.852 186.29 150.173 186.125C148.782 186.462 128.003 187.677 126.268 187.443C124.884 187.74 116.569 188.027 114.861 187.784C113.141 188.11 98.716 188.498 97.223 188.328C95.4709 188.629 92.7722 188.754 91.0096 188.518C89.261 188.864 86.5517 188.927 84.7809 188.721C83.0653 189.042 44.9465 188.136 43.0861 187.851C41.2893 188.071 32.3736 187.772 30.6051 187.471C29.1239 187.69 26.8938 187.537 25.4102 187.311C23.6805 187.552 20.9912 187.42 19.3133 186.95C18.3455 186.682 17.7096 186.824 17.2987 185.865C16.9572 185.07 17.0467 184.584 16.4097 184.247C15.662 183.851 15.6161 182.144 16.1059 181.508C15.2829 179.76 16.4309 176.488 15.7704 174.069C15.3759 172.626 16.153 172.702 16.8536 171.39C16.027 171.442 15.8504 169.973 15.9458 169.698C16.4815 168.17 15.6974 167.428 16.8407 166.133C17.5236 165.358 17.2139 164.724 18.4432 164.721C19.3286 164.724 20.4001 164.726 21.2702 164.867C23.1707 164.718 25.6362 164.813 27.5213 165.102C31.3787 164.841 48.7367 165.472 52.4833 166.065C56.0699 165.814 60.3558 166.068 63.927 166.496C67.7631 166.305 132.13 165.809 135.62 165.642C139.459 165.462 143.788 164.878 147.601 165.256C150.344 164.805 153.868 165.076 156.565 165.601C159.062 165.511 160.231 164.608 162.669 164.734C162.822 164.487 166.562 165.31 166.96 165.33C167.299 164.75 170.642 165.257 171.428 165.306C172.294 165.361 178.076 166.125 177.283 166.43ZM179.228 137.662C179.381 138.179 179.652 138.627 180.041 139.014C175.982 136.623 172.42 133.589 168.541 130.951C168.845 132.32 177.11 136.816 176.604 137.742C176.486 137.991 165.899 130.15 165.747 130.28C165.088 130.755 167.526 133.264 167.013 133.147C167.107 133.228 168.996 134.621 168.777 134.849C168.346 135.007 180.117 143.825 179.082 145.071C178.663 145.564 175.454 142.633 175.023 142.424C175.327 142.921 175.686 143.378 176.108 143.791C173.602 142.306 171.578 140.249 169.21 138.596C169.526 139.185 169.961 139.682 170.517 140.084C168.538 140.098 164.35 135.112 162.645 134.111C162.095 133.812 159.469 131.262 159.078 131.419C159.038 131.576 159.08 131.716 159.203 131.833C158.215 131.368 157.352 130.749 156.622 129.975C156.67 130.394 153.88 126.409 152.768 126.905C153.449 127.564 154.127 128.23 154.796 128.898C152.549 129.386 150.742 123.757 147.711 125.027C147.956 124.921 160.226 136.555 160.557 137.361C160.518 137.265 159.828 137.116 159.802 137.031C160.552 139.52 164.014 141.846 165.72 143.659C161.743 140.917 157.902 137.169 153.964 135.031C152.418 134.189 151.926 132.577 150.443 133.414C150.127 133.586 146.795 131.291 146.404 130.905C146.335 131.512 146.435 132.098 146.704 132.65C143.595 130.192 140.64 126.569 136.991 124.816C137.827 126.014 138.628 127.002 138.855 127.516C139.113 128.1 139.524 128.497 139.651 129.155C134.405 124.954 129.198 120.619 124.202 116.116C123.12 115.143 117.582 110.052 116.706 111.608C114.931 109.993 103.042 99.8225 100.598 99.3315C102.569 100.955 104.296 102.817 106.22 104.485C105.757 104.837 100.711 100.45 99.9947 99.8495C98.7548 98.8181 94.801 95.3458 93.0336 93.735C91.6042 92.4375 90.236 91.1505 88.856 89.8777C86.2856 91.8958 81.9373 95.5565 81.3262 96.0475C80.5844 96.6528 79.7272 97.0166 78.9937 97.7925C77.0214 99.8801 74.7289 101.691 72.4164 103.43C69.4846 105.624 66.8824 108.22 63.9152 110.47C63.9505 110.079 64.418 109.996 64.206 109.466C63.4348 110.079 62.6742 110.635 61.9618 111.258C57.9903 114.691 54.0176 118.128 50.0707 121.588C47.1094 124.185 44.2435 126.894 41.2198 129.425C37.8971 132.191 34.7203 135.126 31.4222 137.914C28.0759 140.753 36.0767 135.557 32.9894 138.683C32.4737 139.199 31.8591 139.643 31.2209 139.997C30.4202 140.448 29.8551 141.14 29.1509 141.682C28.3373 142.303 27.3671 142.738 26.411 143.293C26.5064 142.218 26.4993 142.25 25.4372 141.933C24.6083 141.688 23.9701 141.012 23.5015 140.406C22.8174 139.518 20.9017 135.798 20.2647 133.082C20.2211 132.903 20.2035 132.685 20.2506 132.52C20.7769 130.462 20.2141 128.51 19.5323 126.567C18.7022 124.236 18.7917 121.803 18.5951 119.406C18.482 117.918 19.6783 116.981 20.5767 116.029C22.4559 114.027 24.3081 111.94 26.4534 110.229C27.8499 109.105 29.1898 107.827 30.9006 107.044C32.1864 106.46 32.9517 105.17 33.9526 104.197C35.1183 103.047 36.45 102.048 37.5509 100.876C39.1569 99.176 41.5554 98.3047 43.1508 96.5856C44.5473 95.082 58.6131 83.4005 60.5395 81.7733C63.7292 79.0887 66.7234 76.4112 69.9026 73.7866C69.454 73.4004 69.0101 73.0189 68.5461 72.6174C64.823 69.3971 60.656 65.6457 56.7822 62.4395C52.9414 59.2604 49.17 55.8199 45.3386 52.4936C39.297 47.2468 33.5464 43.7745 27.3459 38.6514C24.142 36.0069 17.1633 31.2441 16.4556 27.0088C15.9646 24.0628 20.0563 21.045 21.4186 19.0268C21.3633 19.1104 27.5567 9.4365 29.5018 10.236C30.0799 10.4762 30.8441 9.6402 32.2241 10.1548C34.493 11.0013 36.0331 13.0006 37.7193 14.5926C43.1685 19.7333 48.8627 24.6115 54.5038 29.505C66.2195 39.6723 77.3982 48.6009 88.8254 58.521C89.4954 58.0182 90.1665 57.5154 90.8341 57.0032C93.1796 55.2182 95.6464 53.5733 98.0213 51.806C101.032 49.5935 104.102 47.46 107.165 45.2993C108.618 44.2667 110.147 43.3177 111.564 42.2392C114.274 40.1515 117.145 38.2911 119.974 36.3778C123.779 33.8156 127.617 31.2947 131.455 28.7608C133.695 27.2737 135.984 25.8278 138.353 24.502C139.372 23.9262 140.212 23.0019 141.394 22.6322C141.873 22.4756 142.285 22.1742 142.862 21.8127C146.112 19.7392 149.442 17.7964 152.822 15.9266C156.923 13.6482 160.989 11.2898 165.221 9.23634C166.345 8.69235 167.52 7.85989 169.083 7.82574C168.235 8.88781 167.215 9.50479 166.272 10.3373C167.191 10.8094 168.866 9.37409 169.049 9.72497C169.309 10.2018 168.615 11.0378 168.83 10.9295C169.438 10.6304 169.982 10.1265 170.81 10.07C170.266 10.979 169.441 11.4099 168.725 12.0222C169.835 11.815 170.676 10.8506 172.082 10.7411C170.684 11.9398 169.156 12.4025 167.844 13.2467C166.861 13.8979 165.771 14.3936 164.718 14.9517C164.682 14.9658 164.619 14.9976 164.619 14.9976C164.419 16.1268 163.276 16.3611 162.625 17.1123C163.704 17.064 164.592 16.5919 165.454 16.0338C165.801 16.2987 165.288 16.48 165.419 16.8026C168.965 15.4851 171.932 12.9206 175.635 11.8856C174.29 12.7499 172.943 13.6482 171.574 14.4795C170.499 15.1318 169.526 15.9313 168.394 16.533C167.458 17.0287 166.419 17.3502 165.547 17.9907C165.251 18.2156 164.609 18.4322 164.897 18.9067C165.2 19.4484 165.765 19.3094 166.306 18.9951C167.922 18.0684 169.562 17.1994 171.198 16.3199C171.311 16.2598 171.487 16.3128 171.637 16.3116C171.194 17.734 169.776 18.2403 168.927 19.446C169.919 19.3 170.495 18.59 171.325 18.3369C172.765 17.9212 174.119 17.3054 175.71 17.276C176.742 17.256 177.763 16.5295 178.896 16.2834C178.026 16.8898 177.123 17.4703 176.277 18.1285C176.004 18.3392 175.329 18.3227 175.606 19.0363C175.927 19.857 176.437 19.3895 176.872 19.2211C177.366 19.0292 177.853 18.7643 178.335 18.5276C178.493 18.4464 178.628 18.4322 178.701 18.63C178.756 18.7902 178.755 18.9444 178.546 18.9903C177.526 19.1823 176.778 19.8958 175.972 20.4739C175.169 21.058 174.414 21.722 173.624 22.3708C173.768 22.9007 174.371 21.9199 174.473 22.5804C174.556 23.1126 174.02 23.1326 173.788 23.241C169.88 24.9718 166.704 27.8789 163.14 30.1455C161.617 31.111 157.432 33.6508 156.907 33.9699C155.353 34.8966 153.829 35.8891 152.315 36.8876C152.123 37.0101 151.641 37.0313 151.905 37.5329C152.143 37.9968 152.388 37.8414 152.746 37.6718C154.976 36.5968 157.178 35.4017 159.066 33.8086C160.256 32.8113 161.689 32.4569 162.917 31.6032C164.439 30.5388 169.981 27.1018 172.266 25.7442C173.488 25.0118 173.436 24.9259 174.617 25.4169C174.304 25.8996 173.687 25.9668 173.331 26.3683C172.215 27.5528 170.977 28.5807 169.732 29.5815C168.552 30.5423 167.306 31.4195 166.046 32.2626C165.52 32.6088 165.052 32.9608 164.758 33.5637C168.618 31.7233 172.016 29.0328 175.82 27.0783C174.603 28.4418 172.895 29.087 171.443 30.1114C169.178 31.7198 166.542 32.7571 164.547 34.7717C164.04 35.291 163.25 35.132 162.667 35.6336C160.431 37.5129 157.643 38.5537 155.383 40.3764C154.548 41.0582 153.612 41.5998 152.814 42.3192C152.494 42.5983 152.195 42.9091 151.761 43.0045C149.594 43.4837 148.375 45.4465 146.521 46.4273C145.349 47.0526 144.338 48.0275 143.167 48.5691C141.768 49.245 140.525 50.1716 139.304 51.017C137.308 52.4076 135.401 53.9513 133.401 55.3654C132.326 56.1119 130.983 56.4734 130.16 57.5943L130.167 57.5719C128.494 58.2549 127.227 59.5583 125.746 60.5379C123.289 62.1758 120.92 63.9172 118.624 65.7788C118.156 66.1697 117.738 66.6124 117.25 66.9963L117.289 66.948C115.66 67.0422 115.17 68.6871 113.732 69.284C114.369 69.6314 112.02 70.6664 111.854 70.7818C110.698 71.5801 109.354 71.4035 108.437 72.4361C108.039 72.8859 107.205 73.3722 106.466 73.8137C120.274 85.5588 134.24 97.0295 147.484 109.029C154.543 115.424 162.059 121.416 169.594 127.356C174.174 130.971 186.389 142.343 187.827 143.386C187.275 143.877 180.157 138.418 179.228 137.662Z" fill="#000203"/>
</g>
</svg>
