<svg width="24" height="24" viewBox="0 0 24 24" fill="none" xmlns="http://www.w3.org/2000/svg">
<g id="alert-triangle">
<path id="Surface 2" opacity="0.5" d="M10.2888 3.85923L1.8188 17.9992C1.64417 18.3017 1.55177 18.6445 1.55079 18.9938C1.54981 19.343 1.64029 19.6864 1.81323 19.9898C1.98616 20.2932 2.23553 20.546 2.53651 20.7231C2.83749 20.9002 3.1796 20.9954 3.5288 20.9992H20.4688C20.818 20.9954 21.1601 20.9002 21.4611 20.7231C21.7621 20.546 22.0114 20.2932 22.1844 19.9898C22.3573 19.6864 22.4478 19.343 22.4468 18.9938C22.4458 18.6445 22.3534 18.3017 22.1788 17.9992L13.7088 3.85923C13.5305 3.56533 13.2795 3.32235 12.98 3.15371C12.6805 2.98508 12.3425 2.89648 11.9988 2.89648C11.6551 2.89648 11.3171 2.98508 11.0176 3.15371C10.7181 3.32235 10.4671 3.56533 10.2888 3.85923V3.85923Z" fill="#AF7200"/>
<g id="Surface">
<path d="M11.999 7.79963C12.6618 7.79963 13.199 8.33689 13.199 8.99963V12.9996C13.199 13.6624 12.6618 14.1996 11.999 14.1996C11.3363 14.1996 10.799 13.6624 10.799 12.9996V8.99963C10.799 8.33689 11.3363 7.79963 11.999 7.79963Z" fill="#AF7200"/>
<path d="M11.999 15.7996C11.3363 15.7996 10.799 16.3369 10.799 16.9996C10.799 17.6624 11.3363 18.1996 11.999 18.1996H12.008C12.6708 18.1996 13.208 17.6624 13.208 16.9996C13.208 16.3369 12.6708 15.7996 12.008 15.7996H11.999Z" fill="#AF7200"/>
<path fill-rule="evenodd" clip-rule="evenodd" d="M10.7236 2.63127C11.113 2.41204 11.5523 2.29688 11.9992 2.29688C12.446 2.29688 12.8854 2.41204 13.2747 2.63127C13.6641 2.8505 13.9904 3.16638 14.2222 3.54844L14.2239 3.55129L22.6939 17.6913L22.6988 17.6996C22.9258 18.0927 23.0459 18.5385 23.0472 18.9925C23.0485 19.4464 22.9308 19.8929 22.706 20.2873C22.4812 20.6817 22.157 21.0104 21.7658 21.2406C21.3745 21.4708 20.9297 21.5946 20.4758 21.5996L20.4692 21.5997L3.5226 21.5996C3.06863 21.5946 2.62389 21.4708 2.23262 21.2406C1.84134 21.0104 1.51717 20.6817 1.29235 20.2873C1.06753 19.8929 0.949911 19.4464 0.951182 18.9925C0.952453 18.5385 1.07258 18.0927 1.2996 17.6996L1.30447 17.6913L9.77447 3.5513L10.2892 3.85962L9.77619 3.54844C10.0079 3.16638 10.3343 2.8505 10.7236 2.63127ZM10.803 4.16948L10.8022 4.1708L2.33661 18.3034C2.21578 18.5142 2.15186 18.7528 2.15118 18.9958C2.15049 19.2403 2.21383 19.4806 2.33488 19.693C2.45594 19.9054 2.63049 20.0824 2.84118 20.2064C3.05102 20.3298 3.28942 20.3964 3.53284 20.3996H20.4655C20.709 20.3964 20.9474 20.3298 21.1572 20.2064C21.3679 20.0824 21.5424 19.9054 21.6635 19.693C21.7846 19.4806 21.8479 19.2403 21.8472 18.9958C21.8465 18.7528 21.7826 18.5142 21.6618 18.3035L13.1962 4.1708L13.1954 4.16942C13.0706 3.96431 12.8952 3.79472 12.686 3.67693C12.4764 3.55889 12.2398 3.49688 11.9992 3.49688C11.7586 3.49688 11.522 3.55889 11.3124 3.67693C11.1031 3.79473 10.9277 3.96435 10.803 4.16948Z" fill="#AF7200"/>
</g>
</g>
</svg>
