<svg version="1.1" id="Ebene_1" xmlns="http://www.w3.org/2000/svg" x="0" y="0" viewBox="0 0 1567 2048" style="enable-background:new 0 0 1567 2048" xml:space="preserve"><style>.st1{fill:#fff}</style><path d="M630.68 2038.34c109.33 7.81 458.75 12.18 503.41 8.12 44.66-4.06 60.9-40.6 56.84-89.31-4.06-48.72-8.12-202.99-8.12-223.29 0-20.3 211.11 0 235.47-8.12 24.36-8.12 56.84-113.67 48.72-198.93-8.12-85.25 20.3-227.35-28.42-235.47-48.72-8.12-211.11-16.24-223.29-20.3-12.18-4.06-36.54-64.96-20.3-85.26 16.24-20.3 64.96-32.48 109.61-85.25s54.13-331.55 78.49-416.8 121.12-378.49 148.86-423.57c54.13-87.96 44.66-215.17-24.36-247.65-69.02-32.48-142.09 0-174.57 77.14-32.48 77.14-81.2 162.39-81.2 162.39s4.06-89.31-60.9-109.61c-64.96-20.3-109.61 0-121.79 24.36-12.18 24.36 0-52.78-69.02-64.96s-105.55 32.48-105.55 32.48-28.94-69.16-89.31-77.14c-71.72-9.47-133.97 36.54-133.97 89.31s-20.3 231.41-56.84 259.82c-36.54 28.42-81.2 64.96-142.09 36.54S342.44 329.18 245 329.18 37.96 334.59 9.54 394.13c-22.31 46.75-8.12 138.03 97.43 162.39 105.55 24.36 259.82 182.69 280.12 223.29 20.3 40.6 23.33 187.71 40.6 239.53 18.95 56.84 83.9 110.97 83.9 110.97s139.39 87.96 41.95 100.14c-97.43 12.18-223.29-16.24-227.35 16.24-4.06 32.48-12.18 328.84-4.06 353.2 8.12 24.36 20.3 101.49 117.73 97.43 97.43-4.06 121.79 4.06 121.79 4.06s-44.64 328.84 69.03 336.96z" style="fill:#ff17ff"/><path d="M698.8 400.97s-50.75 141.41-83.23 147.5c-32.48 6.09-101.49 18.27-180.66-34.51s-71.05-92.7-162.39-108.94c-91.34-16.24-217.2 1.35-180.66 60.22s93.66 25.73 186.07 92.7c93.37 67.66 175.25 171.86 234.11 228.7 58.87 56.84 8.12 67.66 50.75 184.04 23.21 63.36 54.81 93.37 156.3 105.55 101.49 12.18 144.12-4.06 160.36-10.15 16.24-6.09 60.9 48.72 131.94 60.9 71.05 12.18 156.3-26.39 192.84-109.61 36.54-83.22 79.17-336.96 85.25-373.5 6.09-36.54 60.9-202.99 97.43-269.97s107.58-207.05 91.34-245.62-50.75-61.57-93.37 15.56-69.02 104.2-91.34 163.07c-22.33 58.87-89.99 169.83-129.91 198.93-24.55 17.89-29.78 10.2-27.97-9.4"/><path class="st1" d="M693.14 400.18c-14.53 40.43-31.06 82.14-54.29 118.4-5.32 8.3-11.4 18.01-19.8 23.57-6.27 4.15-18.27 4.56-26.55 5.59-36.43 4.51-73.09.41-107.31-13.12-40.19-15.9-74.47-42.95-104.23-73.81-9.85-10.21-19.53-20.72-30.66-29.57-11.91-9.47-25.48-16.62-39.84-21.63-36.19-12.62-76.53-15.72-114.63-14.74-30.89.79-66.26 3.79-93.61 19.63-9.17 5.31-18.15 12.72-21.45 23.18-3.42 10.83.36 21.67 6.17 30.93 15.7 25.02 40.23 35.66 67.81 42.64 16.07 4.07 32.21 7.74 47.91 13.12 20.71 7.09 40.37 16.77 58.69 28.76 38.95 25.5 73.78 57.83 106.73 90.52 31.35 31.09 61.02 63.8 91 96.2 12.72 13.74 25.5 27.44 38.72 40.71 10.27 10.3 21.18 20.09 29.1 32.42 11.42 17.76 10.52 37.14 10.58 57.42.1 35.13 7.35 68.94 19.43 101.88 9.37 25.55 21.91 50.26 42.92 68.21 23.7 20.26 54.78 29.54 84.85 35.3 41.82 8.01 85.75 11.51 128.29 8.54 21.24-1.48 42.53-4.92 62.63-12.1 1.3-.46 2.58-.95 3.88-1.42.54-.2 1.08-.47 1.63-.59.6-.13.31-.03.28-.03 3.64.27 7.42 2.58 10.58 4.41 12.19 7.04 23.47 15.62 35.38 23.12 31.39 19.78 66.2 34.65 103.74 35.92 74.37 2.52 144.4-43.2 176.18-109.71 11.33-23.72 18.53-49.51 25.42-74.79 8.55-31.36 15.92-63.04 22.83-94.8 12.82-58.99 24-118.35 34.34-177.82 2.54-14.64 4.47-29.51 7.94-43.97 6.37-26.55 14.93-52.65 23.49-78.56 20.74-62.75 42.74-126.48 74.27-184.74 16.34-30.2 31.98-60.8 46.47-91.94 14.66-31.52 28.82-63.78 38.13-97.35 3.29-11.87 6.29-24.19 6.46-36.58.15-10.9-3.2-19.81-8.63-29.18-11.76-20.29-32.9-33.2-55.64-21.22-15.51 8.17-26.71 23.21-35.82 37.73-12.74 20.31-23.81 41.68-36.4 62.1-18.56 30.11-38.6 59.47-53.27 91.77-6.72 14.79-12.05 30.14-18.88 44.89-7.57 16.33-15.96 32.27-24.81 47.94-18.41 32.62-38.71 64.6-62.32 93.74-8.41 10.38-17.29 20.71-27.7 29.15-3.19 2.58-6.54 5.02-10.06 7.14-1.76 1.06-7.02 4.79-9.36 3.95-3.66-1.3-2.33-12.25-2.08-15.31.53-6.32-11.48-4.87-11.95.77-.98 11.75.85 26.26 16.34 23.18 13.95-2.78 26.38-14.37 36.16-24.16 24.13-24.15 43.58-53.37 61.62-82.19 18.86-30.13 36.57-61.36 50.58-94.07 6.47-15.12 12.04-30.52 19.4-45.27 7.54-15.1 16.18-29.6 25.1-43.92 10.18-16.33 20.55-32.54 30.47-49.04 12.48-20.76 22.88-43.42 37.97-62.44 7.51-9.46 18.8-22.14 32.16-21.76 10.38.29 18.6 8.73 24.15 16.67 5.87 8.39 10.83 17.86 11.01 28.28.21 11.89-2.48 23.87-5.56 35.28-8.98 33.31-23.12 65.36-37.59 96.58-14.4 31.08-29.98 61.63-46.25 91.77-14.26 26.42-26.31 53.75-37.38 81.65-23.36 58.87-45.09 119.36-60.78 180.78-3.58 14.03-5.63 28.34-8.09 42.59-4.31 24.97-8.79 49.91-13.46 74.82-12.1 64.55-25 129.11-41.71 192.65-6.62 25.18-13.65 50.58-23.7 74.65-14.61 35.01-39.44 65.25-71.69 85.4-29.32 18.31-64.54 28.32-99.18 26.07-37.97-2.46-72.06-19.7-103.23-40.39-10.25-6.81-20.28-14.55-31.44-19.86-7.23-3.44-13.13-3.41-20.48-.76-19.4 7.01-39.72 10.44-60.26 11.87-42.21 2.94-85.77-.64-127.22-8.82-29.79-5.88-60.35-15.75-82.63-37.33-21.64-20.96-32.93-50.5-41.71-78.67-9.39-30.12-12.98-59.94-12.85-91.34.09-20.59-2.46-38.83-14.92-55.89-9.06-12.41-20.81-22.57-31.51-33.51-13.18-13.46-25.98-27.29-38.76-41.13-29.44-31.89-58.77-63.9-89.69-94.39-32.52-32.07-66.89-63.85-105.33-88.77-32.47-21.05-67.57-32.51-104.81-41.67-13.04-3.21-26.43-6.57-38.33-13.01-12.45-6.75-22.48-17.09-29.61-29.28-34.23-58.49 104.13-58.52 130.57-56.96 35.57 2.11 74.64 7.1 105.03 27.14 25.15 16.58 43.43 41.85 66.08 61.44 33.82 29.25 73.84 51.88 117.86 61.06 30.62 6.38 61.76 5.45 92.43.13 9.26-1.61 16.37-3.8 23.35-10.4 8.22-7.76 14.53-17.36 20.37-26.96 14.47-23.77 25.9-49.42 36.56-75.07 5.5-13.23 10.82-26.56 15.67-40.04 2.39-6.53-9.39-6.83-11.27-1.58z"/><path d="M820.59 142.5c-52.91-14.43-76.46-4.74-90.67 46.01-14.21 50.75-52.16 310.64-16.92 370.11 32.48 54.81 81.2 30.45 101.49-34.51s32.48-203.66 42.63-286.89c8.06-66 8.13-82.54-36.53-94.72z"/><path class="st1" d="M824.01 138.63c-17.92-4.84-37.6-9.13-56.03-4.46-15.62 3.96-27.07 14.99-34.37 29.05-11.62 22.38-15.3 49.2-19.52 73.79-12.08 70.37-20.41 142.17-21.52 213.6-.46 29.75-.45 60.96 7 89.98 7.36 28.69 32.33 59.49 65.15 51.09 18.57-4.75 32.45-20.09 41.9-36.01 10.36-17.47 15.91-37.23 20.46-56.88 10.18-43.97 15.81-89.03 21.25-133.78 5.53-45.39 10.35-90.86 15.71-136.27 2.1-17.77 5.22-36.88 1.95-54.71-2.26-12.33-9.5-21.68-20.57-27.45-6.78-3.53-14.05-5.92-21.41-7.95-2.79-.77-6.38-.08-8.32 2.23-1.65 1.97-1.23 4.76 1.47 5.5 11.84 3.27 25.46 7.37 32.5 18.28 6.96 10.79 5.98 25.64 5.17 37.84-1.36 20.6-4.42 41.09-6.76 61.59-2.47 21.6-4.83 43.21-7.3 64.81-5.12 44.84-10.43 89.73-18.26 134.18-3.19 18.07-6.75 36.14-11.7 53.83-5.52 19.73-13.78 39.76-28.36 54.59-10.4 10.57-24.54 17-38.87 10.34-13.36-6.2-23.85-20.32-28.98-33.86-9.18-24.22-9.82-52.03-10.18-77.6-.96-69.46 6.87-139.41 17.3-207.99 3.54-23.29 7.18-46.75 12.88-69.63 3.46-13.89 8.25-28.88 17.84-39.83 9.46-10.8 22.74-13.19 36.53-12 9.56.83 18.92 2.95 28.17 5.44 2.8.76 6.38.09 8.32-2.23 1.67-1.94 1.27-4.75-1.45-5.49z"/><path d="M974.86 185.13c-52.81-9.99-82.55-19.62-98.79 98.11s-74.64 350.11-65.63 395.15c8.12 40.6 85.93 69.02 123.82-14.89 41.29-91.44 72.4-278.77 82.55-343.73 10.15-64.95 33.16-120.43-41.95-134.64z"/><path class="st1" d="M978.34 181.49c-25.83-4.9-56.97-12.96-77.64 8.73-12.73 13.36-18.4 32.72-22.65 50.19-6 24.68-8.6 50.03-12.78 75.05-8.24 49.33-18.38 98.33-28.24 147.35-9.59 47.64-19.45 95.28-27.01 143.3-2.66 16.89-5.16 33.89-6.14 50.97-.68 11.85-.8 23.66 4.96 34.39 17.18 32 61.12 37.31 90.55 20.51 21.45-12.25 34.5-33.69 43.85-55.86 9.21-21.85 16.57-44.49 23.23-67.23 15.16-51.84 26.62-104.77 36.83-157.79 7.91-41.06 14.1-82.38 21.39-123.54 3.93-22.16 9.78-44.68 9.45-67.33-.28-18.64-6.38-35.7-22.43-46.37-9.95-6.63-21.75-10.11-33.37-12.37-2.82-.55-6.29-.03-8.32 2.23-1.59 1.78-1.38 4.52 1.35 5.05 19.45 3.79 40.09 11.73 47.41 31.84 6.59 18.09 2.93 38.73-.26 57.13-6.78 39.11-13.16 78.31-20.17 117.38-8.96 49.9-18.99 99.66-31.31 148.85-6.08 24.29-12.73 48.46-20.53 72.26-7.12 21.7-14.63 44.64-27.04 63.98-10.5 16.37-26.45 30.89-46.46 33.28-15.04 1.79-30.7-3.08-42.16-12.99-9.31-8.05-14.81-18.77-15.35-31.06-.6-13.48 1.19-27.18 2.91-40.51 5.56-43.17 14.26-85.96 22.74-128.63 9.68-48.75 19.83-97.41 28.93-146.28 3.92-21.05 7.67-42.14 10.78-63.33 3.63-24.65 6.73-49.96 15.64-73.4 2.77-7.29 6.14-14.65 10.95-20.84 3.44-4.43 7.67-8.07 11.91-10.05 4.37-2.04 8.17-2.72 14.05-2.88 5.01-.14 12.11.69 17.86 1.59 6.73 1.05 13.42 2.41 20.11 3.68 2.83.54 6.29.04 8.32-2.23 1.58-1.8 1.38-4.55-1.36-5.07z"/><path d="M1047.94 296.77c-17.39 62.12-102.28 305.44-66.99 361.32 24.36 38.57 75.11 24.36 97.43-16.24 22.33-40.6 90.67-242.23 92.7-319.37 2.03-77.14 6.77-88.64-48.04-96.76-54.81-8.12-60.9 20.3-75.1 71.05z"/><path class="st1" d="M1042.13 297.78c-7.93 28.25-17.16 56.15-25.63 84.25-11.94 39.63-23.3 79.47-32.73 119.78-8.48 36.23-16.41 73.54-17.16 110.88-.26 12.73.2 26.12 4.39 38.27 5.51 15.98 19.9 28.63 36.62 31.46 21.26 3.61 43.71-5.45 59.35-19.64 11.78-10.69 18.96-24.34 25.19-38.68 14.53-33.41 26.32-68.12 37.58-102.74 13.62-41.85 26.11-84.19 35.86-127.13 4.02-17.69 7.59-35.53 9.78-53.55 2.37-19.43 2.41-39.24 2.63-58.79.15-13.05 1.12-29.37-6.65-40.71-7.32-10.68-21.34-13.85-33.29-16.09-19.26-3.62-40.39-5.91-58.61 3.05-15.39 7.57-22.85 22.79-28.13 38.33-3.49 10.3-6.27 20.84-9.2 31.31-.71 2.55 10.76 1.05 11.62-2.02 4.99-17.86 8.94-37.65 19.26-53.39 3.71-5.66 8.75-10.79 15.13-13.34 7.88-3.15 17.23-2.45 25.47-1.57 13.43 1.45 30.83 3.26 41.7 12.27 9.13 7.56 10.33 20.43 10.8 31.49.83 19.71.1 39.96-1.23 59.63-1.08 16.08-3.91 32.03-7.1 47.81-8.21 40.57-19.54 80.53-31.8 120.04-11.32 36.49-23.52 72.78-37.55 108.32-4.39 11.11-8.86 22.29-14.31 32.93-8.61 16.81-23.89 33.59-43.18 37.53-18.84 3.85-37.78-7.59-46.01-24.44-4.94-10.12-6.11-21.96-6.48-33.05-1.15-34.28 5.7-68.96 12.92-102.29 8.48-39.19 19.12-77.91 30.42-116.37 8.98-30.55 18.62-60.89 27.81-91.37 1.42-4.73 2.83-9.46 4.17-14.21.69-2.54-10.78-1.04-11.64 2.03zM743.24 416.29c7.7-4.35 16.52-9.33 25.62-9.42 9.71-.1 17.34 6.38 20.88 15.08 7.21 17.74 2.88 40.04-2.17 57.76-2.81 9.87-6.48 19.48-10.63 28.86-3.52 7.96-8.04 20.11-16.94 23.51-9.57 3.65-15.66-9.02-17.97-16.02-3.12-9.44-5.08-19.33-6.09-29.2-2.4-23.47.98-47.14 9.65-69.07 1.1-2.77-10.34-1.52-11.67 1.83-9.24 23.38-12.53 48.96-9.34 73.92 1.43 11.15 3.48 23.91 9.14 33.79 5.29 9.24 14.35 12.2 24.53 10.07 10.9-2.28 18.9-9.11 24.44-18.57 6.46-11.03 11.15-23.62 15-35.77 3.7-11.66 6.24-23.69 7-35.91.65-10.51.47-22.08-4.67-31.59-13.24-24.46-45.35-12-63.74-1.61-1.61.91-3.43 2.39-1.28 3.67 1.97 1.2 6.47-.33 8.24-1.33zM864.87 669.9c20.45 6.88 43.74-6.33 53.01-24.69 5.63-11.15 7.24-23.74 8.04-36.05.72-11.04 1.4-22.41-.57-33.36-1.6-8.89-5.31-17.97-12.96-23.33-9.22-6.45-22.9-7.29-33.83-7.02-9.55.23-21.09 2.99-26.55 11.6-3.36 5.3-3.99 11.9-5 17.96-1.25 7.54-2.33 15.11-3.23 22.7-2.83 23.87-9.16 63.3 20.75 73.02 2.53.82 6-.16 8.26-1.38 1.19-.64 3.92-2.68 1.32-3.53-21.37-6.95-21.95-33.2-20.5-51.61.94-11.85 2.34-23.67 4.15-35.42 1.21-7.83 1.42-24.17 10.58-27.39 3.58-1.26 8.23-.63 11.91-.3 5.53.49 11.29.97 16.49 3.07 7.75 3.13 12.58 9.98 15.1 17.71 2.52 7.73 3.02 16.04 2.97 24.12-.07 10.04-.54 20.26-2.16 30.17-2.86 17.51-15.52 46.46-38.22 38.82-2.51-.84-6.02.17-8.26 1.38-1.2.66-3.88 2.66-1.3 3.53z"/><path class="st1" d="M1013.23 641.88c16.85 5.98 36.01-3.65 44.34-18.83 4.7-8.56 6.69-18.14 8.01-27.72 1.44-10.49 3.05-21.13 3.65-31.71.46-8.12.07-16.74-4.57-23.72-4.68-7.03-13-9.99-21.18-9.78-19.95.53-32.9 15.67-39.01 33.33-8.06 23.27-7.99 49.09-.72 72.53 1.26 4.06 12.99.81 11.76-3.15-5.12-16.51-6.65-33.88-4.11-51 2.14-14.4 6.7-33.69 19.72-42.3 5.87-3.88 13.62-3.72 19.07.88 5.14 4.34 6.86 11.16 7.3 17.61.52 7.54-.77 15.14-1.68 22.6-.98 8.15-1.76 16.36-3.33 24.43-2.53 13-12.12 37.47-29.89 31.17-2.67-.95-5.94-.4-8.33 1.11-1.32.84-3.78 3.57-1.03 4.55zM110.16 469.82c16.45-9.91 41.27-11.3 56.27 2.21 12.92 11.64 21.07 29.07 25.79 45.54 1.24 4.33 13 1.15 11.76-3.15-5.37-18.76-15.54-40.48-32.36-51.53-19.96-13.11-49.47-8.55-68.84 3.11-1.94 1.17-3.13 3.34-.96 4.85 2.2 1.54 6.33.18 8.34-1.03zM341.34 462.35c-10.17 9.49-21.25 17.67-33.28 24.65-3.96 2.3-2.77 5.08 1.43 5.34 5.66.35 11.8-1.65 16.64-4.46 13.17-7.64 25.42-16.77 36.55-27.16 3.92-3.66-3.46-4.19-5.61-4.04-5.16.36-11.8 2.01-15.73 5.67zM367.11 468.46l-22.05 34.68c-3.11 4.89 2.71 8.47 6.9 8.86 5.75.54 12.24-1.97 15.39-6.93l22.05-34.68c3.11-4.89-2.71-8.47-6.9-8.86-5.74-.54-12.23 1.97-15.39 6.93zM757.15 292.32c9.45-2.11 21.08 4.1 27.93 11.11 5.31 5.44 27.54-3.16 21.93-8.9-13.87-14.2-34.01-17.01-52.71-12.83-3.25.73-11.4 3.89-10.34 8.46 1.08 4.67 10.47 2.76 13.19 2.16zM752.47 323.5c7.03-.67 14.01.81 20.49 3.48 4.48 1.84 10.74-.13 15.07-1.65.88-.31 10.53-4.74 7.17-6.12-10.41-4.29-21.16-5.45-32.33-4.39-4.87.46-12.2 1.82-15.79 5.46-3.55 3.59 3.24 3.42 5.39 3.22zM885.23 457.43c12.16-3.06 24.77-1.33 36.29 3.31 5.12 2.06 12.03.26 16.61-2.41 2.82-1.65 7.47-6.31 2.27-8.4-18.58-7.49-38.7-7.99-58.01-3.13-3.23.81-11.41 3.84-10.34 8.47 1.06 4.62 10.47 2.85 13.18 2.16zM889.71 490.71c5.93-1.99 13.7.9 18.98 3.34 4.63 2.14 12.34-.56 16.51-2.75 2.92-1.53 7.35-4.92 2.62-7.09-14.86-6.85-31.49-5.3-46.62-.22-2.47.83-9.65 4.09-6.78 7.56 2.79 3.35 12.33.15 15.29-.84zM1040.31 486.32h16.24c5.63 0 11.87-1.34 16.64-4.46 1.04-.68 3.16-2.01 2.75-3.52-.39-1.47-3.08-1.68-4.14-1.68h-16.24c-5.63 0-11.87 1.34-16.64 4.46-1.04.68-3.16 2.01-2.75 3.52.39 1.47 3.08 1.68 4.14 1.68zM1043.61 439.34c11.11-2.83 22.48.52 32.01 6.4 6.45 3.98 28.17-5.5 18.74-11.31-16.13-9.95-35.77-11.32-53.87-6.71-3.5.89-11.36 4.1-10.21 8.96 1.16 4.87 10.28 3.44 13.33 2.66zM1305.02 367.47c5.19 2.87 9.81 6.79 13.13 11.72 4.07 6.03 25.72-3.06 23.53-6.3-3.82-5.66-8.55-10.3-14.54-13.61-4.29-2.37-10.95-.57-15.22 1.1-1.13.45-10.75 4.97-6.9 7.09zM1315.5 329.54c8.13 11.95 17.75 22.46 29.23 31.28 3.88 2.98 11.27.82 15.31-.75 1.73-.67 10.49-4.84 6.74-7.72-10.68-8.21-20.16-17.96-27.75-29.12-4.38-6.44-26.17 2.42-23.53 6.31zM1185.67 532.49c13.35 20.04 34.62 33.64 58.1 38.5 5.48 1.13 12.49-.64 16.64-4.46 3.61-3.33 2.7-7.39-2.25-8.41-20.94-4.33-38.84-17.16-50.64-34.87-4.4-6.58-27.24 1.16-21.85 9.24zM923.69 815.46c1.49 31.4 3.2 64.18-6.21 94.62-4.8 15.51-12.82 29.45-21.15 43.28-9.12 15.15-18.3 30.26-27.52 45.35-3.95 6.46 6.91 8.91 9.97 3.92 9.34-15.28 18.64-30.6 27.89-45.94 8.66-14.38 17.17-28.81 22.15-44.94 9.69-31.41 8.37-64.59 6.84-97.02-.32-6.47-12.24-4.94-11.97.73z"/><path class="st1" d="M913.04 924.2c-2.59 25.34 4.61 50.9 10.2 75.38.56 2.47 12.39-.44 11.76-3.15-5.59-24.48-12.8-50.04-10.2-75.38.15-1.45-11.4-.35-11.76 3.15zM505.96 551.15c16.4 5.02 33.27 8.35 49.64 13.49 24.22 7.61 51.81 17.77 62.73 42.9 2.3 5.3 13.98 1.95 11.76-3.15-11.19-25.78-37.28-37.96-62.56-46.16-18.06-5.85-36.68-9.58-54.81-15.13-2.81-.86-6.41-.15-8.32 2.23-1.65 2.05-1.17 4.98 1.56 5.82z"/><path d="M451.38 1388.9c-1.24 6.43-2.35 12.8-3.34 19.1-.99 6.3-1.86 12.67-2.59 19.09-2.97 23.99-4.7 47.96-5.19 71.94-.5 23.98.49 48.21 2.97 72.68.25 1.98.56 3.89.93 5.75s.93 3.52 1.67 5c1.48 3.22 3.16 4.88 5.01 5.01 1.86.13 3.77-1.17 5.75-3.89 8.65-12.85 13.22-27.07 13.72-42.65.25-8.4-1.67-16.37-5.75-23.91-4.08-7.54-8.47-14.89-13.16-22.07-.25-.49-.37-.93-.37-1.29 0-.37-.13-.8-.37-1.3 1.24-2.23 3.27-4.14 6.12-5.75 2.84-1.6 5.87-2.84 9.09-3.71 3.21-.86 6.49-1.36 9.82-1.48 3.34-.12 6.12.19 8.34.93 4.2.99 7.66 2.97 10.39 5.94 2.71 2.97 4.08 6.92 4.08 11.86-.25 8.4-.56 16.75-.93 25.03-.36 8.29-1.05 16.63-2.04 25.03-.74 10.38-2.47 21.26-5.19 32.63-1.98 6.92-4.82 13.11-8.52 18.54-1.98 2.73-4.58 4.96-7.79 6.68-3.22 1.74-6.74 3.09-10.57 4.08-3.84.99-7.73 1.48-11.68 1.48-3.96 0-7.42-.37-10.39-1.12-8.9-2.47-15.89-6.86-20.95-13.16-5.07-6.3-8.84-13.91-11.31-22.8-.99-3.46-1.73-7.17-2.22-11.12-.5-3.95-.99-7.91-1.48-11.86-1.74-23.74-1.74-47.22 0-70.46a652.54 652.54 0 0 1 8.9-69.35c.98-4.19 2.23-8.28 3.71-12.23 1.48-3.95 3.08-7.91 4.82-11.86 3.46-8.16 9.52-14.34 18.17-18.55 3.47-1.48 7.42-2.41 11.87-2.78 4.45-.37 8.83-.06 13.16.92 4.32.99 8.34 2.6 12.05 4.82 3.71 2.23 6.42 5.07 8.16 8.53 1.73 3.47 3.02 7.11 3.89 10.94.86 3.83 1.54 7.72 2.04 11.68.49 4.95.68 9.82.56 14.65-.13 4.82-.43 9.71-.93 14.65-.25 2.47-.93 4.82-2.04 7.05a40.566 40.566 0 0 1-3.89 6.3c-.99 1.73-2.41 2.97-4.27 3.71-1.86.74-3.83 1.05-5.93.93-2.1-.13-4.08-.68-5.93-1.67-1.86-.98-3.28-2.35-4.27-4.08-1.74-2.47-2.78-5.13-3.16-7.98-.36-2.84-.43-5.75-.18-8.71.25-2.22.62-4.38 1.11-6.49.49-2.1.62-4.27.37-6.49-.25-3.2-.5-6.49-.74-9.82-.25-3.34-.75-6.61-1.48-9.82-1.27-4.96-4.6-7.8-10.04-8.55zM523.33 1522.4c-.5-8.65-.87-16.68-1.11-24.1-.25-7.41-.32-14.52-.19-21.32.12-6.8.43-13.54.93-20.21.49-6.67 1.24-13.59 2.23-20.77.74-5.93 1.91-11.68 3.52-17.24 1.6-5.57 4.01-10.94 7.23-16.14 3.21-5.43 6.98-10.07 11.31-13.9 4.32-3.83 9.46-6.73 15.39-8.71 14.58-4.46 26.57-.75 35.97 11.12 2.97 3.47 5.26 7.23 6.87 11.31 1.6 4.08 3.02 8.34 4.26 12.8 1.98 8.65 3.53 17.3 4.64 25.95a167.34 167.34 0 0 1 1.3 25.96c-.5 17.8-.62 35.41-.37 52.84s.12 34.92-.37 52.48c-.25 4.95-.8 9.14-1.67 12.61-.87 3.47-2.17 7.54-3.89 12.23-1.98 5.44-5.5 9.82-10.57 13.16s-10.7 5.57-16.87 6.68c-6.18 1.11-12.49 1.05-18.91-.18-6.43-1.24-12-3.71-16.69-7.42-4.95-3.7-8.78-8.71-11.49-15.02-2.73-6.3-4.82-13.34-6.3-21.13-1.49-7.79-2.6-16.07-3.34-24.85-.77-8.78-1.39-17.49-1.88-26.15zm60.44 50.43c.24-7.41.43-15.02.55-22.8.12-7.79.18-15.51.18-23.18 0-6.67.13-13.96.37-21.88.25-7.91.49-15.95.75-24.1.24-8.16.43-16.13.56-23.91.12-7.79.18-15.02.18-21.69-.5-3.71-.99-7.66-1.48-11.87-.5-4.19-1.48-8.02-2.97-11.49-.75-2.47-2.85-4.08-6.3-4.82-3.47-.75-6.56-.86-9.27-.37-2.97.74-5.38 2.47-7.23 5.19-1.86 2.72-3.03 5.19-3.52 7.41-1.74 9.4-3.22 19.47-4.46 30.22a560.652 560.652 0 0 0-2.78 32.64c-.63 11.01-.81 21.88-.56 32.63.25 10.76 1.12 20.96 2.6 30.6.98 8.65 2.84 17.06 5.56 25.21 2.72 8.16 5.75 14.34 9.09 18.54 3.34 4.21 6.73 5.44 10.2 3.71 3.46-1.74 6.3-8.42 8.53-20.04zM644.21 1522.4c-.5-8.65-.87-16.68-1.11-24.1-.25-7.41-.32-14.52-.19-21.32.12-6.8.43-13.54.93-20.21.49-6.67 1.24-13.59 2.23-20.77.74-5.93 1.91-11.68 3.52-17.24 1.6-5.57 4.01-10.94 7.23-16.14 3.21-5.43 6.98-10.07 11.31-13.9 4.32-3.83 9.46-6.73 15.39-8.71 14.58-4.46 26.57-.75 35.97 11.12 2.97 3.47 5.26 7.23 6.87 11.31 1.6 4.08 3.02 8.34 4.26 12.8 1.98 8.65 3.53 17.3 4.64 25.95a167.34 167.34 0 0 1 1.3 25.96c-.5 17.8-.62 35.41-.37 52.84s.12 34.92-.37 52.48c-.25 4.95-.8 9.14-1.67 12.61-.87 3.47-2.17 7.54-3.89 12.23-1.98 5.44-5.5 9.82-10.57 13.16s-10.7 5.57-16.87 6.68c-6.18 1.11-12.49 1.05-18.91-.18-6.43-1.24-12-3.71-16.69-7.42-4.95-3.7-8.78-8.71-11.49-15.02-2.73-6.3-4.82-13.34-6.3-21.13-1.49-7.79-2.6-16.07-3.34-24.85-.77-8.78-1.39-17.49-1.88-26.15zm60.44 50.43c.24-7.41.43-15.02.56-22.8.12-7.79.18-15.51.18-23.18 0-6.67.13-13.96.37-21.88.25-7.91.49-15.95.75-24.1.24-8.16.43-16.13.56-23.91.12-7.79.18-15.02.18-21.69-.5-3.71-.99-7.66-1.48-11.87-.5-4.19-1.48-8.02-2.97-11.49-.75-2.47-2.85-4.08-6.3-4.82-3.47-.75-6.56-.86-9.27-.37-2.97.74-5.38 2.47-7.23 5.19-1.86 2.72-3.03 5.19-3.52 7.41-1.74 9.4-3.22 19.47-4.46 30.22a560.652 560.652 0 0 0-2.78 32.64c-.63 11.01-.81 21.88-.56 32.63.25 10.76 1.12 20.96 2.6 30.6.98 8.65 2.84 17.06 5.56 25.21s5.75 14.34 9.09 18.54c3.34 4.21 6.73 5.44 10.2 3.71 3.45-1.74 6.29-8.42 8.52-20.04zM843.33 1526.48c-.5 7.17-.99 14.71-1.48 22.61-.5 7.92-1.24 15.95-2.23 24.1a93.298 93.298 0 0 1-5.93 22.99c-5.94 16.56-17.56 23.73-34.86 21.5-3.96-.5-7.86-1.24-11.69-2.22-3.83-.99-7.6-2.11-11.31-3.34-5.93-1.97-10.08-4.82-12.43-8.53-2.35-3.71-3.52-8.77-3.52-15.2.49-15.08.8-30.1.93-45.06.12-14.95.43-29.85.93-44.68.25-16.32.49-32.63.74-48.95l.75-48.95c.25-.99.37-1.98.37-2.97v-3.33c1.23-10.39 6.42-15.95 15.57-16.69 5.69-.74 11.37-1.05 17.06-.93 5.69.13 11.37.93 17.06 2.41 6.43 1.74 11.87 4.64 16.32 8.71 4.45 4.08 7.42 9.71 8.9 16.87a346.27 346.27 0 0 1 3.15 19.47c.86 6.56 1.55 13.04 2.04 19.47 1.24 13.34 1.67 26.82 1.3 40.42-.37 13.62-.93 27.71-1.67 42.3zm-26.7-30.04c.49-10.38.8-20.58.93-30.59.13-10.01.31-20.21.56-30.59 0-3.71-.31-7.35-.92-10.94-.63-3.58-1.92-7.1-3.9-10.57-2.22-4.45-5.38-6.91-9.45-7.41-4.08-.49-7.85 1.11-11.31 4.82-2.97 2.47-4.82 5.57-5.57 9.27-1.24 5.69-1.61 11.5-1.11 17.43.98 13.85 1.79 27.69 2.41 41.53.61 13.85.56 27.82-.19 41.91-.49 10.38-1.11 20.58-1.85 30.59-.75 10.01-1.36 20.09-1.86 30.23-.25 2.22-.13 3.7.36 4.45.5.74 1.73 1.24 3.71 1.48 2.97.5 5.93.13 8.9-1.11 7.41-2.72 12.23-7.91 14.45-15.58 1.73-6.91 2.84-14.33 3.34-22.25.49-8.65.86-17.36 1.12-26.14.25-8.79.38-17.63.38-26.53zM924.91 1383.34c3.95-3.47 7.79-5.31 11.5-5.57 3.7-.25 7.53.75 11.5 2.97 12.35 6.43 19.03 17.31 20.02 32.64v11.49c0 6.44-.13 14.16-.37 23.18-.25 9.03-.5 18.73-.74 29.12-.25 10.38-.44 20.08-.56 29.11-.13 9.02-.18 16.75-.18 23.18s.12 10.26.37 11.49c.49 2.97 1.54 5.63 3.15 7.98 1.61 2.35 4.27 3.77 7.98 4.27.74-.98 1.48-4.64 2.22-10.94.75-6.3 1.49-13.91 2.23-22.8.75-8.9 1.42-18.48 2.04-28.74.62-10.26 1.17-19.9 1.67-28.93.49-9.02.86-16.75 1.11-23.18.25-6.43.49-10.26.75-11.5.49-3.71.86-7.41 1.11-11.12.25-3.71.74-7.41 1.48-11.12 1.73-10.88 7.54-17.92 17.43-21.14 5.19-1.72 9.32-1.11 12.43 1.86 3.08 2.97 4.27 7.55 3.52 13.73a324.94 324.94 0 0 1-2.59 16.5 583.62 583.62 0 0 1-3.34 16.5l-28.93 162.42c-.5 1.98-.75 3.58-.75 4.82-.74 4.95-2.1 9.14-4.08 12.61-1.98 3.46-5.32 5.8-10.01 7.04-3.96.75-8.16-.13-12.61-2.59-4.45-2.47-7.67-6.18-9.64-11.12-2.97-7.41-4.82-15.33-5.56-23.73-.75-11.37-1.36-22.68-1.86-33.93s-1.11-22.68-1.86-34.3c-1.24-21.01-3.28-41.72-6.12-62.12-2.84-20.39-6.37-40.84-10.56-61.37-.25-.98-.37-2.04-.37-3.15s-.13-2.32-.38-3.56zM1065.81 1506.45c.49 15.83.8 31.65.93 47.46.13 15.83.31 31.65.56 47.46 0 8.16-3.7 11.12-11.12 8.9-7.91-2.23-12.61-7.17-14.09-14.84-1.98-8.9-3.09-17.8-3.34-26.7-1.24-18.05-2.04-36.03-2.41-53.96-.36-17.92-.18-35.9.56-53.95.49-8.9.98-17.8 1.48-26.7.49-8.9 1.23-17.8 2.22-26.71.49-4.94 1.97-9.76 4.45-14.45 2.72-4.95 6.3-7.29 10.76-7.05 4.45.25 7.91 2.85 10.38 7.79 1.97 3.47 3.16 6.92 3.52 10.39.37 3.47.43 7.04.19 10.75-.5 12.36-.99 24.6-1.48 36.71-.5 12.12-.99 24.35-1.48 36.71v18.17h-1.13zM1175.58 1444.9c-.5 19.04-4.08 35.73-10.76 50.06-1.97 3.96-2.66 7.55-2.04 10.76.62 3.21 2.16 6.43 4.64 9.64.98 1.24 1.97 2.54 2.97 3.89.98 1.36 1.97 2.66 2.97 3.89 3.95 5.44 6.86 11.37 8.71 17.79 1.86 6.44 2.78 12.98 2.78 19.66s-.99 13.16-2.97 19.47c-1.98 6.3-4.95 12.05-8.9 17.25-3.47 4.7-7.54 8.66-12.23 11.87-4.7 3.21-9.71 5.56-15.02 7.04a56.009 56.009 0 0 1-16.32 2.04 48.124 48.124 0 0 1-16.13-3.15c-10.88-4.2-17.06-12.48-18.54-24.85-.75-4.94-1.3-10.01-1.67-15.2-.37-5.19-.68-10.25-.93-15.2-1.24-27.2-2.1-54.2-2.59-81.03-.49-26.82-.62-53.82-.37-81.03 0-4.19 1.6-7.66 4.82-10.38 6.42-4.94 12.92-7.79 19.47-8.53 6.55-.74 13.41 0 20.58 2.23 11.62 3.71 20.7 9.82 27.25 18.36s10.82 19.09 12.8 31.71c.49 2.72.79 5.25.93 7.6.11 2.34.29 4.38.55 6.11zm-63.05 54.51c7.17.25 13.73-2.1 19.66-7.05 6.68-5.93 11-13.47 12.98-22.62 1.97-7.91 2.97-15.82 2.97-23.73s-.62-15.82-1.86-23.73c-.5-1.97-1.11-3.83-1.86-5.56-.74-1.73-1.61-3.47-2.59-5.19-2.23-3.95-5.44-6.68-9.64-8.16-2.97-.98-5.81-.98-8.53 0-2.72.99-4.95 2.85-6.67 5.56-1.74 2.73-2.97 6.07-3.71 10.01-.75 4.45-1.11 9.03-1.11 13.73v60.81c.23 1.24.36 3.21.36 5.93zm4.08 70.09c.24 2.72.67 5.5 1.29 8.34.62 2.85 1.17 5.62 1.67 8.34 1.24 5.44 3.71 8.84 7.41 10.2 3.71 1.36 7.66.56 11.87-2.41 1.73-.98 3.46-2.59 5.19-4.82 2.97-3.21 5.44-7.04 7.42-11.5 1.97-4.45 3.34-9.08 4.08-13.9.75-4.82.93-9.71.56-14.65-.36-4.94-1.42-9.52-3.15-13.72-1.48-3.21-3.58-5.19-6.3-5.93-3.71-.75-7.36-1.05-10.94-.93-3.58.13-7.1.8-10.57 2.04-4.2 1.48-7.29 4.7-9.27 9.64-.5 1.48-.68 2.91-.56 4.27.12 1.36.31 2.78.56 4.27.49 4.2.43 8.03-.18 11.49-.62 3.45-.32 6.55.92 9.27zM1240.84 1593.97c5.93.5 10.81.99 14.65 1.48 3.83.5 7.05 1.3 9.64 2.41 2.59 1.11 4.82 2.6 6.68 4.45 1.86 1.86 3.89 4.27 6.11 7.23 1.73 1.98.37 3.71-4.08 5.19s-10.2 2.53-17.25 3.16c-7.04.61-14.34.74-21.88.36-7.54-.36-13.29-1.29-17.25-2.78-2.97-.99-5.19-2.78-6.67-5.38a28.523 28.523 0 0 1-3.16-8.34c-.62-2.97-.93-5.8-.93-8.52s-.13-4.82-.37-6.3c-.49-25.46-1.11-50.74-1.85-75.84-.75-25.09-1.48-50.37-2.23-75.83-.25-5.93-.37-11.93-.37-17.98 0-6.06-.13-12.18-.37-18.36 0-2.72.25-5.25.75-7.6.49-2.35 1.36-4.64 2.59-6.86 1.48-1.97 2.9-3.34 4.27-4.08 1.36-.74 3.27-.49 5.75.75 2.97 1.48 6.99 2.41 12.05 2.78s9.21.44 12.43.18c3.2 0 6.36-.06 9.45-.18 3.09-.13 6.24-.06 9.46.18 3.7.25 7.17 1.05 10.38 2.41 3.21 1.36 5.8 3.65 7.79 6.86 1.98 3.22 2.47 6.07 1.48 8.53-.99 2.47-3.46 3.71-7.41 3.71-1.98.25-3.89.13-5.75-.37-1.86-.49-3.77-.86-5.75-1.11-1.24-.5-2.54-.86-3.89-1.12-1.36-.24-2.66-.37-3.89-.37-4.95-.49-8.4.25-10.38 2.23-1.98 1.98-3.09 5.44-3.34 10.39 0 2.72.06 5.44.18 8.15.13 2.73.31 5.45.56 8.16.49 9.4.86 18.67 1.12 27.82.24 9.15.61 18.29 1.11 27.44.25 3.47.8 5.74 1.67 6.86.86 1.11 2.9 2.16 6.12 3.15 1.48.5 2.97.75 4.45.75s2.84.13 4.08.37c3.46.25 6.8.74 10.01 1.48 1.48.49 2.78 1.17 3.89 2.04 1.12.86 1.79 2.28 2.05 4.27.98 3.96-.25 6.55-3.71 7.79-1.98.99-3.77 1.55-5.38 1.67-1.61.13-3.52.56-5.75 1.3-1.24.25-2.41.37-3.52.37-1.12 0-2.29.13-3.53.36-3.21.75-5.62 2.29-7.23 4.64-1.61 2.35-2.54 5.13-2.78 8.34-.25 10.63-.32 21.2-.19 31.71.13 10.48.19 21.18.19 32.05zM1330.94 1470.48c5.44 7.17 10.7 12.36 15.76 15.57 5.07 3.22 9.7 6.3 13.91 9.27 4.2 2.97 7.79 6.86 10.75 11.68 2.97 4.82 5.07 12.43 6.3 22.8 1.24 10.39.93 20.58-.93 30.6-1.86 10.01-4.63 19.97-8.34 29.85-1.24 3.47-2.97 6.8-5.19 10.01a63.618 63.618 0 0 1-7.41 8.9c-1.74 1.97-4.33 3.52-7.79 4.63-3.47 1.11-7.11 1.73-10.94 1.86-3.84.12-7.6-.06-11.31-.56-3.71-.5-6.68-1.48-8.9-2.97-5.93-3.71-10.75-8.59-14.46-14.65-3.7-6.05-6.55-12.79-8.52-20.2-1.98-7.42-3.4-15.21-4.27-23.37-.87-8.16-1.67-16.18-2.41-24.1-.25-2.71-.12-5.31.37-7.79.49-2.47.98-4.94 1.48-7.41.74-2.47 2.22-5.07 4.45-7.79 4.94-4.94 10.63-5.93 17.06-2.97 2.97 1.24 4.88 2.72 5.75 4.45.86 1.73.93 4.45.19 8.16-3.71 18.54-1.74 36.47 5.93 53.77 3.95 8.16 7.04 12.67 9.27 13.54 2.23.87 3.95-.43 5.19-3.89 1.23-3.46 2.22-8.16 2.97-14.09.74-5.93 1.6-11.62 2.59-17.06.49-3.71.93-7.42 1.3-11.12.37-3.71.8-7.42 1.3-11.12.24-11.87-4.95-21.14-15.58-27.82-1.24-.74-2.28-1.48-3.15-2.23-.87-.74-1.92-1.36-3.16-1.85-18.05-10.63-29.17-25.71-33.37-45.24-2.47-11.86-2.47-23.3 0-34.3 2.47-11 8.16-21.19 17.06-30.59 3.95-4.2 8.65-7.91 14.09-11.12 12.35-6.92 23.98-6.06 34.86 2.59 4.45 3.47 8.16 7.55 11.12 12.24 3.71 5.69 6.68 12.3 8.9 19.84a91.09 91.09 0 0 1 3.71 23.18c.25 7.91-.5 15.82-2.23 23.73s-4.45 15.2-8.16 21.88c-3.47-1.73-6.3-2.84-8.52-3.34-2.23-.49-4.02-1.24-5.38-2.23-1.36-.98-2.29-2.53-2.78-4.63-.5-2.1-.5-5.62 0-10.57 0-1.24.06-4.14.18-8.71.13-4.58.19-9.7.19-15.39 0-5.69-.32-11.37-.93-17.06-.62-5.69-1.61-10.44-2.97-14.28-1.36-3.83-3.34-6.18-5.94-7.04-2.59-.86-5.99.8-10.2 5-3.96 3.96-6.86 9.09-8.71 15.39s-2.78 12.85-2.78 19.65c0 6.8.86 13.54 2.59 20.21 1.75 6.68 4.1 12.25 7.06 16.69zM683.89 1847.18c-.5-8.65-.87-16.68-1.11-24.1-.25-7.41-.32-14.52-.19-21.32.12-6.8.43-13.54.93-20.21.49-6.67 1.24-13.59 2.23-20.77.74-5.93 1.91-11.68 3.52-17.24 1.6-5.57 4.01-10.94 7.23-16.14 3.21-5.43 6.98-10.07 11.31-13.9 4.32-3.83 9.46-6.73 15.39-8.71 14.58-4.46 26.57-.75 35.97 11.12 2.97 3.47 5.26 7.23 6.87 11.31 1.6 4.08 3.02 8.34 4.26 12.8 1.98 8.65 3.53 17.3 4.64 25.95a167.34 167.34 0 0 1 1.3 25.96c-.5 17.8-.62 35.41-.37 52.84.25 17.43.12 34.92-.37 52.48-.25 4.95-.8 9.14-1.67 12.61-.87 3.46-2.17 7.54-3.89 12.23-1.98 5.44-5.5 9.82-10.57 13.16s-10.7 5.57-16.87 6.68c-6.18 1.11-12.49 1.05-18.91-.18-6.43-1.24-12-3.71-16.69-7.42-4.95-3.7-8.78-8.71-11.49-15.02-2.73-6.3-4.82-13.34-6.3-21.13-1.49-7.79-2.6-16.07-3.34-24.85-.77-8.78-1.39-17.49-1.88-26.15zm60.44 50.43c.24-7.41.43-15.02.55-22.8.12-7.79.18-15.51.18-23.18 0-6.67.13-13.96.37-21.88.25-7.91.49-15.95.75-24.1.24-8.16.43-16.13.56-23.91.12-7.79.18-15.02.18-21.69-.5-3.71-.99-7.66-1.48-11.87-.5-4.19-1.48-8.02-2.97-11.49-.75-2.47-2.85-4.08-6.3-4.82-3.47-.75-6.56-.86-9.27-.37-2.97.74-5.38 2.47-7.23 5.19-1.86 2.72-3.03 5.19-3.52 7.41-1.74 9.4-3.22 19.47-4.46 30.22a560.652 560.652 0 0 0-2.78 32.64c-.63 11.01-.81 21.88-.56 32.63.25 10.76 1.12 20.96 2.6 30.6.98 8.65 2.84 17.06 5.56 25.21 2.72 8.16 5.75 14.34 9.09 18.54 3.34 4.21 6.73 5.44 10.2 3.71 3.46-1.74 6.3-8.42 8.53-20.04zM868.18 1805.64c3.71-12.11 5.8-24.22 6.3-36.34.49-12.11.12-24.48-1.11-37.08-.25-2.71-.37-5.38-.37-7.97s.25-5.13.74-7.6c.25-1.48.75-2.9 1.48-4.27a27.46 27.46 0 0 1 2.6-3.89c3.46-3.95 7.35-5.68 11.68-5.19 4.32.49 7.48 3.21 9.46 8.15 1.72 4.21 2.59 9.03 2.59 14.46 0 5.94-.18 11.93-.56 17.99-.37 6.06-.81 12.05-1.3 17.98-1.98 26.94-3.84 53.59-5.56 79.91-1.74 26.32-3.59 52.84-5.57 79.54-.25 2.23-.44 4.39-.56 6.49-.13 2.1-.32 4.27-.56 6.49-.5 3.71-1.86 6.3-4.08 7.79-2.22 1.49-5.07 1.61-8.52.37-4.7-1.98-8.53-4.94-11.5-8.9-3.47-4.2-5.81-8.96-7.05-14.28-1.24-5.31-2.1-10.69-2.59-16.13-.75-7.17-1.36-14.4-1.86-21.69-.5-7.29-1.11-14.52-1.86-21.69-.25-2.22-.99-6.8-2.22-13.72-1.24-6.92-2.73-14.28-4.45-22.07-1.74-7.79-3.53-15.02-5.38-21.69-1.85-6.67-3.52-10.75-5-12.23-.5-.49-1.11-.93-1.86-1.3-.74-.36-1.73-1.05-2.97-2.04-.25 2.47-.37 4.51-.37 6.12v5c-.25 6.68-.43 15.89-.56 27.63-.13 11.74-.25 23.99-.37 36.71-.13 12.73-.25 24.98-.36 36.71-.13 11.74-.19 20.95-.19 27.63-.25 5.19-1.11 8.97-2.59 11.32-1.48 2.35-4.08 3.89-7.79 4.63-4.21.98-7.05.62-8.53-1.11-1.48-1.74-3.21-4.69-5.19-8.9-1.97-3.95-3.21-8.09-3.7-12.42-.49-4.32-.62-8.59-.37-12.8.98-13.59 1.86-27.07 2.59-40.42.75-13.35 1.48-26.82 2.23-40.42.98-17.06 1.91-34.05 2.78-50.98.86-16.93 1.79-33.93 2.78-50.99.25-2.97.75-5.61 1.49-7.97.74-2.35 2.84-4.14 6.3-5.38 2.71-.75 5.56-.62 8.52.36 2.97.99 5.44 3.1 7.42 6.31 2.71 3.96 4.82 8.03 6.3 12.23 4.69 11.86 9.27 23.55 13.72 35.04 4.45 11.5 8.9 23.18 13.35 35.05.49.99.92 1.92 1.29 2.78.4.87.83 1.8 1.33 2.78zM995 1938.78c-5.69 0-11.86.06-18.54.18s-12.86.06-18.54-.18c-4.7-.25-9.28-.75-13.73-1.49-4.45-.74-8.9-1.36-13.34-1.85-1.24-.25-2.6-.56-4.08-.93s-2.85-.8-4.08-1.3c-5.69-1.97-9.83-3.65-12.43-5-2.59-1.36-3.89-5.01-3.89-10.94 0-6.91.06-13.72.18-20.39.13-6.68.31-13.47.56-20.39.98-25.46 1.91-50.93 2.78-76.39.86-25.46 1.91-50.93 3.16-76.39 0-6.18 1.11-11.87 3.34-17.06 2.47-6.43 6.8-7.54 12.98-3.34 6.67 4.45 10.63 10.63 11.86 18.54.98 5.44 1.79 10.94 2.41 16.5.62 5.57 1.05 11.19 1.3 16.87.24 21.01.3 41.84.18 62.48-.13 20.65-.06 41.48.19 62.48 0 8.41.74 16.69 2.22 24.85 1.24 5.69 4.32 9.15 9.27 10.38 4.95 1.24 10.51 2.23 16.69 2.97 3.95.5 8.03 1.24 12.23 2.23 8.17 2.47 11.25 8.52 9.28 18.17zM1103.65 1708.86a14.62 14.62 0 0 1 2.97 4.27c.75 1.61 1.12 3.4 1.12 5.38-.25 2.47-1.12 4.7-2.6 6.68a97.197 97.197 0 0 1-4.82 5.93c-.5 0-.74.25-.74.75-7.42 9.89-12.67 20.52-15.76 31.89s-5 23.11-5.75 35.22c-.74 11.38-1.36 22.81-1.86 34.3-.49 11.5-.99 23.06-1.48 34.67v.37c0 3.21-.06 6.37-.18 9.45-.13 3.1-.32 6.12-.56 9.09l-1.86 43.76c0 1.24-.13 2.22-.37 2.97 0 1.73-.74 3.34-2.22 4.82-1.74 1.73-4.21 2.84-7.42 3.34-1.48 0-2.97-.06-4.45-.19s-2.85-.31-4.08-.56a42.35 42.35 0 0 1-6.68-1.3c-2.23-.62-3.96-1.78-5.19-3.52-.99-1.23-1.61-2.59-1.86-4.08-.25-1.48-.37-2.84-.37-4.08l-1.11-28.93v-20.39c.49-13.59.8-27.07.93-40.42.12-13.35-1.17-26.7-3.89-40.05-2.72-13.35-6.18-26.2-10.38-38.57-4.21-12.35-9.52-24.47-15.95-36.34-.5-.75-.93-1.54-1.3-2.41a15.4 15.4 0 0 0-1.3-2.41c-2.97-4.69-2.85-9.02.37-12.98 1.97-1.97 4.08-3.39 6.3-4.27 2.23-.86 4.69-.67 7.41.56 2.47.99 4.88 2.04 7.23 3.15 2.35 1.11 4.51 2.54 6.49 4.27 2.47 1.98 4.63 5.69 6.49 11.12 1.86 5.44 3.58 11.31 5.19 17.61 1.6 6.3 3.02 12.37 4.27 18.17 1.23 5.81 2.35 10.2 3.34 13.16.49 1.48.98 2.97 1.48 4.45.49 1.48.98 3.1 1.48 4.82h.36c1.24-6.42 2.6-12.98 4.08-19.65 1.48-6.68 2.97-13.23 4.45-19.66.49-3.46 1.11-6.8 1.86-10.01.74-3.21 1.86-6.42 3.34-9.64 2.22-4.45 5.49-8.28 9.82-11.49 4.32-3.21 8.96-4.58 13.91-4.08 1.97 0 3.71.5 5.19 1.48 1.51 1 2.86 2.11 4.1 3.35z"/></svg>