<svg version="1.1" id="Ebene_1" xmlns="http://www.w3.org/2000/svg" x="0" y="0" viewBox="0 0 1211 2048" style="enable-background:new 0 0 1211 2048" xml:space="preserve"><style>.st1{fill:#fff}</style><path d="M236.07 1908.06c0 76.62-4.51 144.24 238.89 139.73 243.4-4.51 392.14-9.01 428.2-9.01s99.16-22.54 94.65-99.16c-4.51-76.63-13.52-225.37-22.54-256.92-9.01-31.55-139.73-49.58-139.73-49.58l18.03-157.76v-90.15s247.9 99.16 265.93 90.15c18.03-9.01 72.12-216.35 85.64-301.99s0-103.67-85.64-130.71c-85.64-27.04-220.86-58.6-238.89-108.18s-45.07-175.79 18.03-392.14c0 0 76.63-216.35 90.15-265.93 13.52-49.58-9.01-112.68-31.55-117.19-22.54-4.51 9.01-67.61-31.55-81.13-40.57-13.52-72.12-4.51-72.12-4.51s0-49.58-31.55-54.09-58.6 9.01-58.6 9.01-27.03-36.07-54.07-27.05-67.61 27.04-81.13 54.09c-13.52 27.04-45.07 22.54-67.61 54.09-22.54 31.55-54.09 81.13-54.09 81.13s-58.6 9.01-85.64 40.57c-27.04 31.55-121.7 36.06-121.7 130.71s-94.65 518.35-103.67 554.4c-9.01 36.06-31.55 108.18-130.71 153.25-99.16 45.07-76.63 184.8 9.01 292.98s76.63 166.77 157.76 117.19c81.13-49.58 121.7-72.12 121.7-72.12s18.03 67.61 13.52 121.7c-4.51 54.09-4.51 103.67-4.51 103.67s-99.16-4.51-135.22 81.13 9.01 193.82 9.01 193.82z" style="fill:#9485ff"/><path d="M591.26 1055.28c-16.9 67.61-35.5 101.42 40.57 158.88 49.75 37.59 461.44 131.84 461.44 131.84l37.19-197.76s-191-37.19-267.06-99.73c-76.06-62.54-121.7-175.79-82.82-385.38 38.88-209.59 143.67-414.11 106.49-451.3-37.19-37.19-50.14 14.65-60.29 39.44"/><path class="st1" d="M586.4 1056.02c-6.72 26.77-17.67 55.23-14.67 83.28 3.47 32.5 29.31 56.61 53.85 75.38 10.03 7.67 22.12 12.47 33.78 17.05 18.38 7.22 37.19 13.38 56.03 19.29 49.79 15.62 100.23 29.22 150.71 42.4 48.72 12.71 97.59 24.85 146.55 36.63 25.13 6.05 50.24 12.51 75.54 17.83.37.08.75.17 1.12.26 2.06.47 8.28.01 8.83-2.87 4.18-22.21 8.35-44.43 12.53-66.64l20.01-106.42c1.55-8.23 3.1-16.47 4.64-24.7.22-1.16-.87-1.41-1.78-1.59-61.09-11.91-122.26-29.13-179.98-52.41-36.2-14.6-71.54-32.2-99.89-59.51-24.76-23.84-43.8-52.89-56.81-84.65-16.35-39.92-23.41-83.13-25.13-126.06-2.38-59.4 5.13-118.96 16.84-177.11 12.5-62.05 30.15-122.94 49.24-183.25 15.93-50.32 33.5-100.19 47.87-151 5.1-18.05 9.92-36.33 12.55-54.92 1.68-11.84 3.12-25.08-.61-36.69-4.17-12.97-19.26-24.36-32.93-23.87-17.87.64-27.27 17.21-33.51 31.78-3.35 7.82-6.08 15.88-9.28 23.76-.98 2.43 8.57 1.38 9.73-1.48 6.15-15.18 10.5-35.26 23.42-46.39 6.84-5.88 14.97-1 21.1 3.82 4.93 3.87 9.13 7.93 11.28 13.87 4.05 11.19 2.77 24.16 1.2 35.68-2.46 18.02-7.05 35.75-11.94 53.24-13.94 49.89-31.18 98.85-46.88 148.2-18.72 58.82-36.14 118.16-48.89 178.59-12.14 57.57-20.26 116.48-19.35 175.44.67 43.24 6.38 86.89 21.14 127.72 11.64 32.2 29.13 62.28 52.48 87.41 24.84 26.74 55.41 45.32 88.47 60.29 63.24 28.64 131.73 47.36 199.61 61.35 1.36.28 2.72.56 4.09.83-.59-.53-1.18-1.06-1.78-1.59-4.18 22.21-8.35 44.43-12.53 66.64l-20.01 106.42c-1.55 8.23-3.1 16.47-4.64 24.7 2.94-.96 5.88-1.91 8.83-2.87-20.41-4.67-40.78-9.5-61.14-14.37-46.7-11.16-93.32-22.64-139.82-34.59-51.09-13.13-102.1-26.71-152.62-41.91-20.55-6.18-41.05-12.61-61.25-19.87-13.5-4.84-27.36-9.78-39.89-16.85-10.34-5.82-19.5-14.19-28.08-22.27-11.54-10.88-22.2-23.32-28.16-38.2-10.1-25.22-3.03-52.09 3.58-77.23 2.11-8.01 4.26-16.01 6.27-24.05.73-2.84-9-1.39-9.72 1.5z"/><path d="M787.33 149.3s-4.23-1.69 12.68-15.21 46.48-1.69 56.62 18.59-1.69 45.64-1.69 45.64l-75.73 185.13-63.1-64.23 71.22-169.92"/><path class="st1" d="M791.17 146.7c.7.32.5.81.68.7.52-.3 2.75-3.78 3.64-4.68 6.44-6.53 13.09-11.8 22.66-11.15 18.27 1.25 34.64 16.32 37.22 34.36 2.31 16.13-4.51 30.73-10.42 45.18-17.93 43.83-35.86 87.65-53.79 131.48-5.53 13.51-11.05 27.02-16.58 40.53 3.05-.57 6.09-1.14 9.14-1.7-18.42-18.74-36.83-37.49-55.25-56.23-2.62-2.67-5.24-5.33-7.86-8 .04.79.07 1.58.11 2.38 8.01-19.12 16.03-38.23 24.04-57.35 12.78-30.49 25.56-60.98 38.35-91.48 2.95-7.03 5.89-14.06 8.84-21.09 2.02-4.81-7.78-4.16-9.25-.67-8.01 19.12-16.03 38.23-24.04 57.35-12.78 30.49-25.56 60.98-38.35 91.48-2.95 7.03-5.89 14.06-8.84 21.09-.31.74-.56 1.7.11 2.38 18.42 18.74 36.83 37.49 55.25 56.23 2.62 2.67 5.24 5.33 7.86 8 2.1 2.14 7.95 1.21 9.14-1.7 15.55-38.02 31.11-76.05 46.66-114.07 8.47-20.71 16.94-41.41 25.41-62.12 7.71-18.85 15.35-39.87 4.03-59.17-10.03-17.1-33.19-27.63-52.47-21.64-9 2.79-17.81 9.96-23.36 17.52-1.33 1.8-3.88 6.13-.61 7.61 2.19.99 5.01.68 6.98-.75 1.29-.97 2.97-3.47.7-4.49z"/><path d="M712.96 134.93s5.1-17.99 10.99-30.42c7.61-16.06 38.88-32.11 60-2.54 10.36 14.51-3.38 47.33-3.38 47.33l-92.64 246.54-64.23-42.82 89.26-218.09z"/><path class="st1" d="M717.88 134.4c4.69-16.48 9.38-37.78 27.39-44.32 10.03-3.64 20.5-.35 28.07 6.83 4.09 3.88 7.64 8.27 8.85 13.86 1.08 4.96.77 10.13.06 15.12-2.28 15.97-8.84 29.89-14.57 45.15-10.16 27.05-20.32 54.09-30.49 81.14-11.57 30.78-23.13 61.56-34.7 92.34-4.27 11.37-8.54 22.73-12.81 34.1-2.06 5.49-5.03 11.25-6.38 16.97-.06.26-.2.53-.29.78 2.93-1.02 5.85-2.04 8.78-3.06-21.41-14.27-42.82-28.55-64.23-42.82l.75 2.79 30.12-73.59c16.02-39.13 32.03-78.27 48.05-117.4 3.7-9.03 7.39-18.07 11.09-27.1 1.92-4.69-7.85-3.84-9.21-.52l-30.12 73.59c-16.02 39.13-32.03 78.27-48.05 117.4-3.7 9.03-7.39 18.07-11.09 27.1-.5 1.21-.4 2.02.75 2.79 21.41 14.27 42.82 28.55 64.23 42.82 2.68 1.78 7.71-.21 8.78-3.06 5.68-15.13 11.37-30.25 17.05-45.38l35.91-95.58c10.64-28.31 21.27-56.61 31.91-84.92 2.44-6.49 4.92-12.98 7.32-19.49.14-.38.28-.76.43-1.14-.53 1.4-.04.13.22-.55.4-1.04.8-2.08 1.18-3.13 3.12-8.71 5.58-17.99 5.84-27.29.32-11.69-4.28-20.39-13.51-27.64-8.31-6.53-18.83-8.98-29.21-7.18-9.5 1.65-18.75 6.42-25.29 13.58-7.31 8-10.48 19.46-13.79 29.55-1.01 3.09-1.99 6.2-2.88 9.33-1.11 3.88 8.8 2.57 9.84-1.07z"/><path d="M657.18 133.24s7.65-29.49 25.35-47.33c38.31-38.59 41.41 18.59 41.41 18.59L618.07 394.71l-47.33-64.23 86.44-197.24z"/><path class="st1" d="M662.13 132.8c5.26-20.04 16.42-42.2 34.16-53.78 5.56-3.63 10.7-4.35 15.08 1.22 3.81 4.85 5.48 11.28 6.6 17.24.4 2.14.62 4.29.93 6.44.37 2.61-.53 1.17.38.23-.83.86-1.19 3.27-1.59 4.36l-9.54 26.16c-11.65 31.93-23.3 63.86-34.94 95.78l-38.52 105.57c-4.68 12.82-9.35 25.64-14.03 38.46-2.23 6.11-5.47 12.54-6.9 18.9-.07.3-.22.6-.32.89 3.05-.55 6.1-1.1 9.15-1.66-15.78-21.41-31.55-42.82-47.33-64.23l.15 2.53c9.75-22.24 19.49-44.48 29.24-66.72 15.52-35.42 31.04-70.84 46.56-106.25 3.54-8.09 7.09-16.18 10.63-24.26 2.16-4.93-7.68-4.57-9.3-.87-9.75 22.24-19.49 44.48-29.24 66.72-15.52 35.42-31.04 70.84-46.56 106.25-3.54 8.09-7.09 16.18-10.63 24.26-.38.87-.44 1.73.15 2.53 15.78 21.41 31.55 42.82 47.33 64.23 1.87 2.54 8.11 1.2 9.15-1.66l18.51-50.73c13.19-36.14 26.37-72.28 39.56-108.42 12.22-33.48 24.43-66.96 36.65-100.45 3.26-8.92 6.51-17.85 9.77-26.77.45-1.25 1.09-2.54 1.4-3.83.82-3.44-.36-7.81-1.05-11.2-2.82-13.87-10.96-28.24-27.42-23.67-11.94 3.32-22.08 13.78-29.11 23.47-7.32 10.1-12.67 21.53-16.67 33.32-.76 2.25-1.51 4.51-2.11 6.81-1.18 4.4 8.8 3.16 9.86-.87z"/><path d="M453.79 339.17s14.65-83.39 48.45-57.47c19.35 14.83-1.13 94.65-1.13 94.65l-90.38 410.5-31.55-68.74 74.61-378.94z"/><path class="st1" d="M458.7 338.6c3.09-17.49 8.26-37.24 19.13-51.56 2.23-2.94 5.92-6.8 9.08-7.3 4.42-.71 9.7 2.41 12.55 5.56 7.89 8.73 6.54 25.33 5.88 36.07-1.7 27.48-8.86 54.36-14.77 81.18-9.74 44.23-19.48 88.45-29.21 132.68l-35.52 161.31c-4.37 19.83-8.73 39.65-13.1 59.48-2.17 9.85-5.44 20.05-6.62 30.07-.05.45-.2.89-.29 1.33 3.27-.63 6.54-1.25 9.81-1.88-6.76-14.73-13.52-29.46-20.29-44.19-3.4-7.41-6.81-14.83-10.21-22.24-.33-.73-1.09-3.08-1.02-1.66-.02-.48.2-1.11.31-1.56 5.16-22.12 8.8-44.71 13.19-66.99 8.12-41.25 16.24-82.51 24.37-123.76 8.01-40.7 16.03-81.4 24.04-122.1 2.81-14.3 5.63-28.6 8.44-42.89 1.33-6.75 3.36-13.73 4.05-20.59.02-.32.12-.64.18-.96.77-3.93-9.12-2.4-9.82 1.14-3.46 17.58-6.92 35.16-10.38 52.73-7.79 39.54-15.57 79.09-23.36 118.63-8.3 42.18-16.61 84.37-24.91 126.55l-15.06 76.48c-.27 1.36-.93 3.1-.89 4.51.13 3.85 3.68 8.79 5.25 12.21 8.14 17.73 16.27 35.45 24.41 53.18.63 1.38 1.26 2.75 1.9 4.13 1.53 3.33 9.1 1.31 9.81-1.88 5.72-26 11.45-51.99 17.17-77.99 11.94-54.24 23.88-108.48 35.83-162.71 10.32-46.85 20.63-93.7 30.95-140.55 6.01-27.3 13.38-54.76 15.42-82.69.89-12.13 2.02-27.54-4.62-38.4-5.92-9.67-19.39-12.42-29.3-7.9-10.63 4.86-16.77 16.18-21.18 26.42-4.35 10.11-7.47 20.74-9.84 31.47-.43 1.93-.84 3.86-1.19 5.81-.71 3.98 9.18 2.4 9.81-1.14z"/><path d="M520.9 1514.2c-.42 15.85-3.4 29.75-8.96 41.68-1.64 3.29-2.21 6.29-1.7 8.96.52 2.67 1.8 5.35 3.86 8.03.82 1.03 1.64 2.11 2.47 3.24.82 1.13 1.64 2.21 2.47 3.24a47.56 47.56 0 0 1 7.26 14.82 58.971 58.971 0 0 1 2.32 16.37c0 5.56-.83 10.96-2.47 16.21-1.65 5.25-4.12 10.04-7.41 14.36-2.89 3.92-6.28 7.21-10.19 9.88-3.92 2.67-8.08 4.63-12.51 5.86-4.43 1.23-8.95 1.8-13.59 1.7-4.63-.11-9.1-.98-13.43-2.62-9.06-3.5-14.2-10.39-15.44-20.69-.62-4.11-1.08-8.33-1.39-12.66-.31-4.32-.57-8.54-.77-12.66-1.03-22.65-1.75-45.14-2.16-67.47-.41-22.34-.52-44.82-.31-67.47 0-3.49 1.33-6.38 4.01-8.64 5.35-4.11 10.76-6.48 16.21-7.1 5.45-.61 11.16 0 17.14 1.86 9.67 3.09 17.24 8.18 22.69 15.28 5.45 7.1 9.01 15.9 10.66 26.4.41 2.26.66 4.37.77 6.33.11 1.95.26 3.65.47 5.09zm-52.5 45.39c5.97.2 11.43-1.75 16.37-5.87 5.56-4.94 9.16-11.22 10.81-18.84 1.64-6.58 2.47-13.17 2.47-19.76 0-6.58-.52-13.17-1.55-19.76-.42-1.64-.92-3.19-1.54-4.63-.61-1.44-1.34-2.89-2.16-4.32-1.86-3.29-4.53-5.56-8.03-6.79-2.47-.82-4.84-.82-7.1 0-2.26.83-4.12 2.37-5.55 4.63-1.45 2.27-2.48 5.05-3.09 8.34-.62 3.7-.92 7.52-.92 11.43v50.64c.19 1.02.29 2.67.29 4.93zm3.41 58.36c.2 2.26.56 4.58 1.08 6.95.51 2.37.98 4.68 1.39 6.95 1.03 4.53 3.09 7.36 6.17 8.49 3.09 1.14 6.38.46 9.88-2.01 1.44-.82 2.88-2.16 4.32-4.01 2.48-2.67 4.53-5.86 6.18-9.57 1.64-3.7 2.78-7.56 3.39-11.57.62-4.01.77-8.08.46-12.2-.3-4.11-1.18-7.92-2.62-11.42-1.23-2.67-2.98-4.32-5.25-4.94-3.09-.62-6.13-.88-9.11-.77-2.98.11-5.92.67-8.8 1.7-3.5 1.23-6.07 3.92-7.72 8.03-.42 1.23-.57 2.42-.46 3.55.1 1.13.26 2.32.46 3.55.41 3.5.36 6.69-.15 9.57-.51 2.86-.26 5.44.78 7.7zM575.25 1638.33c4.94.42 9 .83 12.19 1.23 3.19.42 5.87 1.08 8.03 2.01 2.16.92 4.01 2.17 5.56 3.7 1.55 1.55 3.24 3.55 5.09 6.02 1.44 1.65.31 3.09-3.39 4.32-3.7 1.23-8.49 2.11-14.36 2.63-5.86.51-11.94.61-18.22.3-6.28-.3-11.07-1.08-14.36-2.31-2.47-.83-4.32-2.32-5.55-4.48-1.23-2.16-2.11-4.48-2.63-6.95s-.77-4.83-.77-7.1-.11-4.01-.31-5.25c-.41-21.2-.92-42.25-1.54-63.15-.62-20.89-1.23-41.94-1.86-63.15-.2-4.94-.31-9.93-.31-14.97 0-5.04-.11-10.14-.31-15.28 0-2.26.2-4.37.62-6.33.41-1.95 1.13-3.86 2.16-5.71 1.23-1.64 2.42-2.78 3.55-3.4 1.13-.61 2.73-.41 4.79.62 2.47 1.23 5.82 2.01 10.04 2.32 4.22.31 7.67.36 10.35.15 2.67 0 5.3-.05 7.87-.15 2.58-.11 5.2-.05 7.88.15 3.08.21 5.97.88 8.64 2.01 2.67 1.14 4.83 3.04 6.48 5.71 1.65 2.68 2.06 5.05 1.23 7.1-.83 2.06-2.89 3.09-6.17 3.09-1.65.2-3.24.11-4.79-.31-1.54-.41-3.14-.72-4.79-.92a16.55 16.55 0 0 0-3.24-.93c-1.13-.2-2.21-.31-3.24-.31-4.12-.41-7 .21-8.64 1.86-1.65 1.65-2.58 4.53-2.78 8.65 0 2.26.05 4.53.15 6.79.11 2.27.26 4.54.46 6.79.41 7.83.72 15.55.93 23.16.2 7.62.51 15.23.92 22.85.2 2.89.67 4.78 1.39 5.71.72.92 2.42 1.8 5.1 2.62 1.23.42 2.47.62 3.7.62s2.36.11 3.4.31c2.88.2 5.66.61 8.33 1.23 1.23.41 2.32.98 3.24 1.7.93.72 1.49 1.9 1.7 3.55.82 3.29-.21 5.45-3.09 6.48-1.65.83-3.14 1.29-4.48 1.39-1.34.11-2.93.46-4.79 1.08-1.03.2-2.01.31-2.93.31-.93 0-1.91.11-2.94.3-2.67.62-4.68 1.91-6.02 3.86-1.34 1.96-2.11 4.27-2.31 6.95-.21 8.85-.26 17.66-.16 26.4.12 8.77.18 17.67.18 26.73zM650.27 1535.5c4.53 5.97 8.91 10.29 13.13 12.97 4.22 2.68 8.07 5.25 11.58 7.72 3.5 2.47 6.48 5.71 8.95 9.73s4.22 10.35 5.25 18.99c1.03 8.65.77 17.14-.77 25.48-1.54 8.33-3.86 16.63-6.95 24.85-1.03 2.89-2.47 5.67-4.32 8.34a53.193 53.193 0 0 1-6.17 7.41c-1.45 1.64-3.6 2.93-6.48 3.86-2.89.92-5.92 1.44-9.11 1.55-3.2.1-6.33-.05-9.42-.46-3.09-.42-5.56-1.23-7.41-2.47-4.94-3.09-8.95-7.15-12.04-12.2-3.08-5.04-5.45-10.65-7.1-16.82-1.65-6.18-2.83-12.66-3.55-19.46-.73-6.79-1.39-13.48-2.01-20.07-.2-2.26-.1-4.42.31-6.48.41-2.05.82-4.11 1.23-6.17.61-2.05 1.85-4.22 3.7-6.48 4.11-4.11 8.85-4.94 14.2-2.47 2.47 1.03 4.07 2.26 4.79 3.7.72 1.44.77 3.7.16 6.79-3.09 15.44-1.45 30.37 4.94 44.77 3.29 6.79 5.86 10.55 7.72 11.27 1.86.73 3.29-.36 4.32-3.24 1.02-2.88 1.85-6.79 2.47-11.73.61-4.94 1.33-9.67 2.16-14.2.41-3.09.77-6.18 1.08-9.26.31-3.09.67-6.18 1.08-9.26.2-9.88-4.12-17.6-12.97-23.16-1.03-.61-1.9-1.23-2.62-1.86-.73-.61-1.6-1.13-2.63-1.54-15.03-8.85-24.29-21.41-27.79-37.67-2.06-9.88-2.06-19.4 0-28.56s6.79-17.65 14.21-25.47c3.29-3.5 7.2-6.59 11.73-9.26 10.29-5.76 19.97-5.04 29.02 2.16 3.7 2.89 6.79 6.29 9.26 10.19 3.09 4.73 5.56 10.24 7.41 16.52a75.752 75.752 0 0 1 3.09 19.3c.2 6.59-.42 13.17-1.86 19.76-1.44 6.59-3.7 12.66-6.79 18.22-2.89-1.44-5.25-2.36-7.1-2.78-1.86-.41-3.35-1.03-4.48-1.86-1.14-.82-1.91-2.11-2.32-3.86-.42-1.75-.42-4.68 0-8.8 0-1.03.05-3.45.15-7.26.11-3.81.16-8.07.16-12.82 0-4.73-.26-9.47-.77-14.2-.52-4.73-1.34-8.7-2.47-11.89-1.14-3.19-2.78-5.14-4.95-5.86-2.16-.72-4.99.67-8.49 4.17-3.29 3.29-5.71 7.57-7.26 12.82-1.54 5.25-2.31 10.7-2.31 16.36s.71 11.27 2.16 16.83c1.46 5.53 3.41 10.16 5.88 13.86zM719.13 1475.29c-4.12-.2-7.82-.51-11.11-.92-2.47 0-4.64-.62-6.48-1.86-2.06-1.02-3.71-2.57-4.95-4.63-1.23-2.05-1.74-4.11-1.55-6.17.62-4.53 3.61-7.1 8.96-7.72 11.94-.82 24.09-1.43 36.43-1.85 3.5-.2 7-.16 10.5.15s7 .67 10.5 1.08c2.26.42 4.37 1.14 6.33 2.16 1.95 1.04 3.96 2.06 6.02 3.09 1.64.83 2.93 2.06 3.86 3.7.92 1.65 1.08 3.81.46 6.48-5.15.21-10.25.57-15.28 1.08-5.05.52-10.25 1.6-15.6 3.24.2 30.68.26 60.98.15 90.94-.11 29.95-.05 60.06.16 90.32-4.74 2.67-9.57 3.24-14.51 1.7-4.94-1.55-8.85-4.89-11.73-10.04-2.27-3.49-3.71-7.15-4.32-10.96-.62-3.8-.92-7.76-.92-11.88v-10.35c0-3.4.1-6.84.3-10.35.42-20.38.93-40.65 1.54-60.83.62-20.17 1.13-40.45 1.55-60.83.2-1.03.2-1.95 0-2.78-.2-.81-.31-1.73-.31-2.77zM394.76 1742.03c.42.42.51.98.31 1.7-.2.73-.61 1.08-1.23 1.08h-6.33c-1.95 0-3.86.2-5.71.61-13.17 1.45-21.31 8.96-24.39 22.54a77.073 77.073 0 0 0-1.55 15.28c0 5.05.31 10.14.92 15.28.41 3.71 1.03 7.21 1.86 10.5 1.23 5.98 4.63 9.07 10.19 9.26 7.2.83 13.07 4.64 17.6 11.43 2.47 3.29 2.05 5.97-1.23 8.03-1.45.83-2.94 1.39-4.48 1.7-1.55.31-3.04.67-4.48 1.08-.83.42-1.59.57-2.31.46-.73-.11-1.5-.05-2.32.15-4.94 1.04-8.49 2.68-10.66 4.94-2.16 2.27-3.45 6.07-3.86 11.43-.21 1.65-.31 3.39-.31 5.25v5.56c.2 6.79.36 13.63.46 20.53.11 6.9.16 13.74.16 20.53 0 4.12-.52 8.54-1.55 13.28-.42 1.65-1.14 3.24-2.17 4.79-1.03 1.54-2.36 2.52-4.01 2.93-2.06.41-3.76-.16-5.09-1.7-1.34-1.55-2.32-3.14-2.93-4.79a58.31 58.31 0 0 1-2.48-8.03c-.61-2.67-1.23-5.45-1.85-8.34-.21-1.03-.26-1.95-.16-2.78.11-.82.16-1.74.16-2.78 0-26.14-.05-52.07-.16-77.81-.11-25.73-.15-51.67-.15-77.81 0-5.14.72-8.8 2.16-10.96 1.44-2.17 4.53-3.96 9.26-5.41 17.3-4.5 32.75-.49 46.33 12.07zM497.27 1908.15c2.26 2.89 3.45 5.25 3.55 7.1.11 1.86-.67 3.92-2.31 6.18-2.06 2.26-4.59 3.86-7.57 4.78-2.99.93-5.82.57-8.49-1.08-3.71-2.47-6.7-5.25-8.96-8.34a58.487 58.487 0 0 1-3.86-7.1c-1.14-2.47-2.22-5.04-3.24-7.72-2.89-7.82-5.82-15.59-8.8-23.31-2.98-7.72-6.02-15.48-9.11-23.31-.42-.82-1.18-1.39-2.31-1.7-1.14-.31-2.32-.46-3.55-.46s-2.42.15-3.55.46c-1.14.31-1.8.88-2.01 1.7-1.65 4.13-2.89 8.19-3.7 12.2-.83 4.01-1.45 8.08-1.86 12.19-1.23 11.94-.72 24.19 1.54 36.74.62 4.32.06 7.67-1.68 10.04-1.73 2.36-3.97 3.86-6.71 4.48-2.75.62-5.64.41-8.69-.61-3.05-1.04-5.69-2.89-7.93-5.56-5.56-6.17-7.72-13.79-6.48-22.85 3.29-24.9 5.35-49.76 6.17-74.57.83-24.81 1.03-49.76.63-74.88v-21c7.72-2.26 14.74-3.29 21.07-3.09 6.33.21 13.4 1.65 21.23 4.32 12.55 4.94 22.23 12.04 29.02 21.31 6.79 9.26 10.96 19.2 12.51 29.8 1.55 10.6.77 21.1-2.32 31.49-3.09 10.4-8.03 19.09-14.82 26.09-1.23 1.23-2.16 2.06-2.78 2.47v.31c.41 11.53 2.89 22.59 7.41 33.19 4.53 10.61 10.4 20.85 17.6 30.73zm-42.3-152.23c-.83-1.86-2.01-3.14-3.55-3.86-1.54-.72-3.24-1.13-5.1-1.23-1.86-.1-3.7-.05-5.56.15-1.85.21-3.61.31-5.25.31-.61 11.73-1.23 23.21-1.85 34.43-.62 11.22-1.24 22.59-1.86 34.12 1.03 2.27 3.5 4.32 7.41 6.18 3.91 1.85 8.13 3.39 12.66 4.63.82-.41 1.49-.72 2.01-.92.51-.2.97-.51 1.39-.92 1.86-2.67 3.09-6.69 3.7-12.04.62-5.35.98-10.97 1.08-16.83.1-5.87 0-11.58-.31-17.14-.3-5.56-.46-10.08-.46-13.58 0-2.26-.46-4.48-1.39-6.64-.91-2.18-1.89-4.39-2.92-6.66zM533.08 1835.89c.41 13.18.67 26.35.77 39.52.11 13.18.26 26.36.46 39.52 0 6.79-3.08 9.26-9.26 7.41-6.59-1.86-10.5-5.97-11.73-12.35-1.65-7.41-2.58-14.82-2.78-22.23-1.03-15.03-1.7-30-2.01-44.93-.3-14.92-.15-29.9.47-44.92l1.23-22.23a397.5 397.5 0 0 1 1.85-22.24c.41-4.11 1.64-8.13 3.7-12.04 2.26-4.12 5.25-6.07 8.96-5.87 3.7.2 6.58 2.37 8.64 6.48 1.64 2.89 2.63 5.76 2.93 8.65.31 2.89.36 5.86.16 8.95-.42 10.29-.83 20.48-1.23 30.57-.42 10.09-.83 20.28-1.23 30.57v15.13h-.93zM588.66 1908.77c4.94.42 9 .83 12.19 1.23 3.19.42 5.87 1.08 8.03 2.01 2.16.92 4.01 2.17 5.56 3.7 1.54 1.55 3.24 3.55 5.09 6.02 1.44 1.65.31 3.09-3.39 4.32-3.7 1.23-8.49 2.11-14.36 2.63-5.86.51-11.94.61-18.22.3-6.28-.3-11.07-1.08-14.36-2.31-2.47-.83-4.32-2.32-5.55-4.48a23.933 23.933 0 0 1-2.63-6.95c-.52-2.47-.77-4.83-.77-7.1s-.11-4.01-.31-5.25c-.41-21.2-.92-42.25-1.54-63.15-.62-20.89-1.23-41.94-1.86-63.15-.2-4.94-.31-9.93-.31-14.97s-.11-10.14-.31-15.28c0-2.26.2-4.37.62-6.33.41-1.95 1.13-3.86 2.16-5.71 1.23-1.64 2.42-2.78 3.55-3.4 1.13-.61 2.73-.41 4.79.62 2.47 1.23 5.82 2.01 10.04 2.32 4.22.31 7.67.36 10.35.15 2.67 0 5.3-.05 7.87-.15 2.58-.11 5.2-.05 7.88.15 3.08.21 5.97.88 8.64 2.01 2.67 1.14 4.83 3.04 6.48 5.71 1.65 2.68 2.06 5.05 1.23 7.1-.83 2.06-2.89 3.09-6.17 3.09-1.65.2-3.24.11-4.79-.31-1.54-.41-3.14-.72-4.79-.92a16.55 16.55 0 0 0-3.24-.93c-1.13-.2-2.21-.31-3.24-.31-4.12-.41-7 .21-8.64 1.86-1.65 1.65-2.58 4.53-2.78 8.65 0 2.26.05 4.53.15 6.79.11 2.27.26 4.54.46 6.79.41 7.83.72 15.55.93 23.16.2 7.62.51 15.23.92 22.85.2 2.89.67 4.78 1.39 5.71.72.92 2.42 1.8 5.1 2.62 1.23.42 2.47.62 3.7.62s2.36.11 3.4.31c2.88.2 5.66.61 8.33 1.23 1.23.41 2.32.98 3.24 1.7.93.72 1.49 1.9 1.7 3.55.82 3.29-.21 5.45-3.09 6.48-1.65.83-3.14 1.29-4.48 1.39-1.34.11-2.93.46-4.79 1.08-1.03.2-2.01.31-2.93.31-.93 0-1.91.11-2.94.3-2.67.62-4.68 1.91-6.02 3.86-1.34 1.96-2.11 4.27-2.31 6.95-.21 8.85-.26 17.66-.16 26.4.13 8.77.18 17.68.18 26.73zM685.62 1814.59c3.09-10.08 4.83-20.17 5.25-30.26.41-10.08.1-20.38-.92-30.88-.21-2.26-.31-4.48-.31-6.64s.2-4.27.61-6.33c.2-1.23.62-2.42 1.23-3.55.62-1.13 1.34-2.21 2.17-3.24 2.88-3.29 6.12-4.73 9.73-4.32 3.6.41 6.23 2.67 7.88 6.79 1.43 3.51 2.16 7.52 2.16 12.04 0 4.95-.15 9.94-.46 14.98-.31 5.04-.67 10.04-1.08 14.97-1.65 22.44-3.2 44.62-4.63 66.54-1.45 21.92-2.99 44-4.64 66.23-.2 1.86-.36 3.66-.46 5.41-.11 1.75-.26 3.55-.46 5.4-.42 3.09-1.55 5.25-3.4 6.48-1.85 1.24-4.22 1.34-7.1.31-3.92-1.65-7.1-4.11-9.57-7.41-2.89-3.5-4.84-7.46-5.87-11.89a98.08 98.08 0 0 1-2.16-13.43c-.62-5.97-1.14-11.99-1.54-18.06-.42-6.07-.92-12.09-1.54-18.06-.2-1.85-.83-5.66-1.85-11.42-1.04-5.76-2.27-11.89-3.7-18.38-1.45-6.48-2.94-12.51-4.48-18.06-1.54-5.55-2.93-8.95-4.17-10.19-.42-.41-.92-.77-1.55-1.08-.61-.3-1.44-.87-2.47-1.7-.2 2.06-.31 3.76-.31 5.1v4.17c-.2 5.56-.36 13.23-.46 23-.11 9.78-.2 19.97-.31 30.57-.11 10.6-.2 20.8-.3 30.57-.11 9.78-.16 17.44-.16 23-.2 4.32-.92 7.47-2.16 9.42s-3.4 3.24-6.48 3.86c-3.51.82-5.87.51-7.1-.92-1.23-1.45-2.67-3.91-4.32-7.41-1.64-3.29-2.67-6.73-3.08-10.34-.41-3.6-.52-7.15-.31-10.66.82-11.32 1.54-22.54 2.16-33.65.62-11.12 1.23-22.34 1.86-33.66.82-14.2 1.59-28.35 2.32-42.45.72-14.1 1.49-28.25 2.31-42.46.2-2.47.62-4.67 1.24-6.64.61-1.95 2.36-3.45 5.25-4.48 2.26-.62 4.63-.52 7.1.3 2.47.83 4.53 2.58 6.18 5.26 2.26 3.29 4.01 6.69 5.25 10.19 3.9 9.88 7.72 19.61 11.42 29.18s7.41 19.3 11.12 29.18c.41.83.77 1.6 1.08 2.32.25.71.61 1.48 1.03 2.3zM788.13 1852.57c-.42 5.97-.83 12.25-1.23 18.83-.42 6.6-1.04 13.28-1.86 20.07-.42 3.29-1.03 6.54-1.86 9.73a79.09 79.09 0 0 1-3.08 9.42c-4.95 13.79-14.62 19.76-29.02 17.91-3.3-.42-6.54-1.03-9.73-1.85-3.19-.83-6.33-1.76-9.42-2.78-4.94-1.64-8.39-4.01-10.35-7.1-1.95-3.09-2.93-7.3-2.93-12.66.41-12.56.67-25.06.77-37.52.1-12.45.36-24.85.77-37.21.2-13.59.41-27.17.61-40.76.2-13.59.42-27.18.62-40.76.2-.83.31-1.65.31-2.48v-2.77c1.02-8.65 5.35-13.28 12.97-13.9 4.73-.61 9.47-.87 14.2-.77 4.73.11 9.47.77 14.2 2.01 5.35 1.45 9.88 3.86 13.59 7.26 3.7 3.4 6.18 8.08 7.41 14.05 1.02 5.35 1.9 10.76 2.62 16.21.72 5.46 1.29 10.86 1.7 16.22 1.03 11.11 1.39 22.34 1.08 33.65-.29 11.32-.75 23.05-1.37 35.2zm-22.23-25.01c.41-8.64.67-17.13.77-25.47.11-8.34.26-16.83.46-25.47 0-3.09-.26-6.12-.77-9.11-.52-2.98-1.6-5.92-3.25-8.8-1.85-3.7-4.48-5.76-7.87-6.17-3.4-.41-6.54.92-9.42 4.01-2.48 2.06-4.01 4.64-4.63 7.72a48.542 48.542 0 0 0-.92 14.51c.82 11.53 1.49 23.06 2.01 34.58.51 11.53.46 23.16-.16 34.89-.41 8.64-.92 17.13-1.54 25.47s-1.14 16.73-1.54 25.17c-.21 1.85-.11 3.08.3 3.7.42.61 1.44 1.03 3.09 1.23 2.47.42 4.94.11 7.41-.92 6.17-2.26 10.19-6.59 12.04-12.97 1.44-5.76 2.36-11.93 2.78-18.53.41-7.2.72-14.46.93-21.77.2-7.3.31-14.66.31-22.07zM843.4 1805.95c4.53 5.97 8.91 10.29 13.13 12.97 4.22 2.68 8.07 5.25 11.58 7.72 3.5 2.47 6.48 5.71 8.95 9.73s4.22 10.35 5.25 18.99c1.03 8.65.77 17.14-.77 25.48-1.54 8.33-3.86 16.63-6.95 24.85-1.03 2.89-2.47 5.67-4.32 8.34a53.193 53.193 0 0 1-6.17 7.41c-1.45 1.64-3.61 2.93-6.48 3.86-2.89.92-5.92 1.44-9.11 1.55-3.2.1-6.33-.05-9.42-.46-3.09-.42-5.56-1.23-7.41-2.47-4.94-3.09-8.95-7.15-12.04-12.2-3.08-5.04-5.45-10.65-7.1-16.82-1.65-6.18-2.83-12.66-3.55-19.46-.73-6.79-1.39-13.48-2.01-20.07-.2-2.26-.1-4.42.31-6.48.41-2.05.82-4.11 1.23-6.17.61-2.05 1.85-4.22 3.7-6.48 4.11-4.11 8.85-4.94 14.2-2.47 2.47 1.03 4.07 2.26 4.79 3.7.72 1.44.77 3.7.16 6.79-3.09 15.44-1.45 30.37 4.94 44.77 3.29 6.79 5.86 10.55 7.72 11.27 1.86.73 3.29-.36 4.32-3.24 1.02-2.88 1.85-6.79 2.47-11.73.61-4.94 1.33-9.67 2.16-14.2.41-3.09.77-6.18 1.08-9.26.31-3.09.67-6.18 1.08-9.26.2-9.88-4.12-17.6-12.97-23.16-1.03-.61-1.9-1.23-2.62-1.86-.73-.61-1.6-1.13-2.63-1.54-15.03-8.85-24.29-21.41-27.79-37.67-2.06-9.88-2.06-19.4 0-28.56s6.79-17.65 14.21-25.47c3.29-3.5 7.2-6.59 11.73-9.26 10.29-5.76 19.97-5.04 29.02 2.16 3.7 2.89 6.79 6.29 9.26 10.19 3.09 4.73 5.56 10.24 7.41 16.52a75.752 75.752 0 0 1 3.09 19.3c.2 6.59-.42 13.17-1.86 19.76-1.44 6.59-3.7 12.66-6.79 18.22-2.89-1.44-5.25-2.36-7.1-2.78-1.86-.41-3.35-1.03-4.48-1.86-1.14-.82-1.91-2.11-2.32-3.86-.42-1.75-.42-4.68 0-8.8 0-1.03.05-3.45.15-7.26.11-3.81.16-8.07.16-12.82 0-4.73-.26-9.47-.77-14.2-.52-4.73-1.34-8.7-2.47-11.89-1.14-3.19-2.78-5.14-4.95-5.86-2.16-.72-4.99.67-8.49 4.17-3.29 3.29-5.71 7.57-7.26 12.82-1.55 5.25-2.31 10.7-2.31 16.36s.71 11.27 2.16 16.83c1.45 5.52 3.41 10.15 5.88 13.86zM805.93 226.26c17.32 7.02 29.42 30.21 20.28 54.88-16.9 45.64-183.67 615.25-212.41 714.98s-100.29 233.26-156.07 255.23c-55.78 21.97-275.51 125.08-275.51 125.08L80.8 1168.53s179.17-57.47 196.07-108.18c16.9-50.71 84.51-469.89 101.42-554.4s37.19-179.17 67.61-172.41-37.19 351.57-37.19 351.57 88.96-307.43 133.53-420.87c55.78-141.98 114.48-136.25 130.15-121.7"/><path class="st1" d="M801.31 227.93c16.46 7.15 24.8 25.31 22.84 42.7-.71 6.3-3.12 12.16-5.11 18.12-3.3 9.91-6.4 19.88-9.49 29.85-11.08 35.71-21.82 71.52-32.55 107.34-14.78 49.36-29.45 98.76-44.06 148.18a88083.08 88083.08 0 0 0-46.96 159.32c-14.22 48.4-28.42 96.82-42.57 145.24-9.89 33.82-19.76 67.64-29.57 101.48-16.63 57.38-38.31 112.68-67.72 164.82-16.28 28.86-34.59 57.59-57.93 81.32-8.57 8.71-18.09 17.23-29.18 22.58-7.11 3.43-14.66 6.08-21.92 9.17-46.51 19.81-92.42 41.11-138.34 62.25-37.78 17.4-75.51 34.93-113.18 52.57-2.06.96-4.11 1.93-6.17 2.89 2.58-.22 5.15-.43 7.73-.65-11.42-23.41-22.84-46.81-34.25-70.22-18.2-37.32-36.41-74.63-54.61-111.95-4.18-8.58-8.37-17.15-12.55-25.73-1.07.81-2.13 1.63-3.2 2.44 35.98-11.56 71.48-25.47 105.75-41.39 23.68-11 47.45-23.09 68.2-39.09 12.77-9.84 23.03-20.76 27.26-36.52 9.34-34.79 15.18-70.72 21.73-106.11 10.3-55.64 20.02-111.39 29.67-167.14 9.68-55.93 19.23-111.89 28.91-167.83 6.64-38.35 13.11-76.75 20.79-114.91 8.21-40.78 16.03-82.43 30.37-121.6 4.55-12.42 9.84-26.75 19.53-36.2 3.53-3.44 6.85-5.55 9.86-1.06 2.37 3.54 2.91 8.59 3.42 12.7.84 6.84.94 13.77.88 20.65-.19 20.18-2.09 40.36-4.25 60.41-5.42 50.25-13.34 100.23-21.8 150.04-5.63 33.18-11.59 66.31-17.95 99.35-.32 1.67-.64 3.34-.97 5.01-.45 2.27 8.99.62 9.66-1.71 6.05-20.9 12.21-41.77 18.39-62.64 14.15-47.75 28.54-95.43 43.27-143 15.89-51.32 32.07-102.57 49.48-153.4 17.67-51.6 35.43-105.88 69.04-149.56 14.23-18.5 43.4-49.62 69.83-34.5 1.52.87 2.93 1.88 4.22 3.06 1.92 1.75 10.75-1.96 9.23-3.35-19.22-17.53-51.71-2.56-68.41 10.77-21.05 16.8-36.29 40.59-48.77 64.1-13.76 25.92-24.31 53.34-34.21 80.92-18.01 50.16-34.21 100.97-50.16 151.82-16.14 51.45-31.81 103.05-47.21 154.73-5.45 18.27-10.86 36.56-16.22 54.85-1.7 5.79-3.39 11.58-5.08 17.37-.87 3-2.32 6.27-2.73 9.37-.05.39-.23.79-.34 1.17l9.66-1.71c4.81-24.53 9.27-49.13 13.62-73.75 8.67-49.08 16.75-98.29 23.18-147.71 2.98-22.93 5.66-45.93 7.23-69.01 1.08-15.8 2.3-32.27-.08-48.01-.58-3.84-1.31-8.36-3.77-11.52-3.53-4.53-10.77-3.33-15.58-1.92-10.52 3.1-17.22 11.89-22.34 21.11-8.24 14.84-13.44 31.4-18.15 47.63-15.33 52.81-24.88 107.37-34.45 161.49-9.1 51.51-17.87 103.08-26.74 154.63-10.15 59.02-20.32 118.04-30.87 176.99-8.08 45.15-16.06 90.37-25.71 135.21-2.4 11.14-4.22 23.22-8.6 33.81-8.1 19.59-30.96 32.76-48.31 42.91-42.18 24.68-88.71 42.57-134.88 58.28-2.99 1.02-5.99 2.03-9 3-.5.16-3.71 1.4-3.2 2.44 11.42 23.41 22.84 46.81 34.25 70.22 18.2 37.32 36.41 74.63 54.61 111.95 4.18 8.58 8.37 17.15 12.55 25.73 1 2.04 6.41-.03 7.73-.65 28.14-13.2 56.33-26.31 84.53-39.37 49.01-22.69 98.05-45.34 147.45-67.16 9.35-4.13 18.72-8.23 28.13-12.21 7.56-3.2 15.49-5.89 22.71-9.8 23.7-12.82 41.79-35.41 57.26-56.9 21.63-30.03 39.55-62.77 55.24-96.24 15.3-32.63 28.49-66.35 38.49-100.99 8.39-29.04 16.85-58.07 25.32-87.09 13.34-45.7 26.72-91.4 40.13-137.08 15.73-53.6 31.5-107.19 47.32-160.76 15.12-51.2 30.28-102.39 45.55-153.55 11.97-40.13 23.98-80.26 36.25-120.3 3.88-12.67 7.78-25.33 11.81-37.95 3.54-11.08 8.87-22.77 8.98-34.44.15-16.13-8.62-32.11-23.69-38.65-1.89-.82-4.47-.17-6.31.54-.37.14-4.49 2.12-2.92 2.8z"/><path class="st1" d="M403.46 411.04c14.65 2.64 23.61-10.39 26.89-22.82 3.71-14.06 1.65-28.74-4.82-41.63-1.96-3.9-11.29-.3-8.97 4.33 4.62 9.19 6.49 19.61 5.39 29.83-.82 7.6-4.38 25.08-15.11 23.14-4.85-.88-9.91 5.97-3.38 7.15zM571.69 213.12c18.85 5.71 36.56-6.59 46.13-22.1 4.92-7.98 10.47-18.15 12.11-27.46 1.61-9.1-4.56-17.54-14.24-16.25-1.88.25-5.34 1.38-5.45 3.76-.11 2.31 2.52 3.12 4.43 2.86 4.31-.58 5.83 5.65 5.62 8.76-.24 3.59-1.8 6.97-3.21 10.23-2.54 5.9-5.19 11.78-8.56 17.26-6.47 10.51-17.84 20.74-31.08 16.73-3.84-1.16-11.53 4.46-5.75 6.21zM667.82 517.93c9.73-2.47 19.93 6.26 23.03 14.79.84 2.31 10.51-.65 9.8-2.62-5.07-13.97-20.19-18.64-33.64-15.22-.8.2-5.02 1.43-4.49 2.84.55 1.46 4.43.43 5.3.21zM664.48 541.74c6.52-1.64 13.35.81 18.63 4.62 2.25 1.62 10.75-2.28 9.22-3.38-8.51-6.14-18.73-6.95-28.7-4.44-.95.24-4.88 1.37-4.47 2.91.41 1.55 4.55.49 5.32.29zM500.83 401.59c9.83-1.89 19.6-.16 28.53 4.23 1.81.89 4.53.05 6.3-.6.41-.15 4.43-1.98 2.94-2.71-11.3-5.55-23.61-6.79-35.92-4.43-1.1.21-5.67 1.11-5.75 2.63-.09 1.63 2.95 1.06 3.9.88zM497.47 426.26c9.36-2.61 18.87 1.81 24.57 9.31 2.18 2.87 11.63-.59 9.06-3.96-8.17-10.75-22.35-14.28-35.07-10.72-5.88 1.64-4.5 7.03 1.44 5.37z"/><path d="M714.65 191.56c10.07-60.39-21.97-89.58-50.71-37.19 0 0-86.2 187.62-130.15 324.53-43.95 136.91-79.44 240.02-79.44 240.02"/><path class="st1" d="M719.51 190.81c2.35-14.64 3.27-30.29-.92-44.7-2.42-8.32-7.15-17.48-15.93-20.39-19.36-6.4-36.57 15.13-43.84 29.97-13.85 28.23-25.78 57.6-38.17 86.48-23.94 55.79-46.97 112.01-67.95 168.98-23.9 64.85-43.86 131.12-65.6 196.71-8.26 24.93-16.59 49.84-25 74.73-4 11.82-8.41 23.57-12.07 35.5-.16.53-.36 1.05-.54 1.57-.88 2.56 8.74 1.37 9.73-1.49 9.65-28.02 19.07-56.12 28.45-84.23 21.07-63.15 40.52-126.9 62.39-189.77 19.62-56.41 41.8-111.94 64.87-167.02 15.81-37.76 32.1-75.32 48.94-112.63 4.9-10.85 9.86-21.53 18.87-29.8 2.56-2.35 6-5.35 9.72-5.2 3.72.14 7.05 2.77 9.41 5.43 7.47 8.43 9.28 21.42 9.71 32.23.33 8.42-.44 16.82-1.78 25.13-.5 3.04 9.26 1.31 9.71-1.5z"/><path class="st1" d="M649.02 212.05c17.4.4 25.53-14.13 31.78-28.03 5.13-11.42 17.19-32.68 1.83-41.67-1.91-1.12-4.45-.63-6.41.16-.61.25-4.55 2.41-2.74 3.47 11.77 6.89 5.33 21.68 1.21 31.2-2.38 5.49-4.74 11.01-7.42 16.36-2.73 5.47-7.19 13.76-14.27 13.6-3.3-.08-10.54 4.76-3.98 4.91zM546.92 457.34c8.79-1.2 17.35.21 25.16 4.51 2.18 1.2 5.05 1.04 7.03-.56 1.45-1.17 2.73-3.95.5-5.18-9.83-5.42-20.7-7.63-31.86-6.1-2.13.29-5.19 1.47-5.38 4.02-.18 2.36 2.52 3.59 4.55 3.31zM543.06 475.18c7.19-1.57 14.64.86 20.18 5.53 2.88 2.42 12.06-1.47 9.05-4-8.76-7.37-19.64-9.48-30.72-7.07-1.62.35-4.72 1.97-4.16 4.08.6 2.22 4.09 1.8 5.65 1.46z"/><path d="M510.13 739.2s148.74-495.25 223.11-573c11.51-12.03 107.94-50.94 72.68 60.06"/><path class="st1" d="M515.06 738.69c7.82-26.03 15.96-51.96 24.17-77.86 18.71-59.04 38.09-117.88 58.42-176.38 22.45-64.62 45.83-129.02 72.46-192.04 10.82-25.6 22.16-51.05 35.07-75.67 8.7-16.59 17.96-33.94 30.62-47.89.53-.58 1.06-1.16 1.61-1.72.23-.23 1.55-1.34.54-.53 1.09-.88 2.28-1.65 3.48-2.39 2.7-1.67 5.94-3.25 9.62-4.8 8.22-3.47 17.14-5.99 26.34-6.48 8.22-.43 17.3 1.3 23.27 7.64 8.63 9.16 8.78 23.38 7.44 35.11-1.21 10.58-3.92 20.94-7.11 31.09-1.23 3.93 8.69 2.7 9.85-1.01 7.14-22.73 17.87-65.08-12.33-76.53-18.19-6.9-41.06-.29-57.63 8.19-14.82 7.58-23.63 21.83-32.05 35.72-13.14 21.66-24.08 44.66-34.48 67.73-28.01 62.13-51.74 126.22-74.55 190.4-22.26 62.64-43.29 125.71-63.56 189.02-7.01 21.88-13.92 43.79-20.72 65.73-3.31 10.69-7.26 21.42-9.9 32.3-.11.47-.28.93-.42 1.39-1.19 3.96 8.74 2.71 9.86-1.02z"/><path class="st1" d="M707.57 237.21c3.82 6.32 8.88 11.84 16.72 12.21 7.53.35 14.9-3.24 20-8.65 5.95-6.32 8.54-14.92 13.24-22.08 4.59-7 10.4-13.18 14.3-20.63 5.45-10.41 6.55-28.38-7.11-33.14-7.78-2.72-14.26 2.02-19.82 6.96a126.414 126.414 0 0 0-16.32 17.59c-11.31 14.79-19.17 32.05-23.02 50.25-.75 3.54 9.09 1.99 9.78-1.27 3.36-15.92 9.74-30.99 19.04-44.36 4.37-6.28 9.31-12.16 14.82-17.48 2.43-2.35 6.43-7.71 9.91-6.06 2.79 1.33 4.75 4.8 5.69 7.55 5.2 15.32-7.61 27.65-15.48 39.13-4.68 6.84-7.25 15.12-12.5 21.56-2.99 3.67-6.97 6.69-11.72 4.18-3.78-2-6.3-5.98-8.44-9.52-1.58-2.68-11.13.38-9.09 3.76zM602.16 474.91c10.2-2.69 20.84.52 28.81 7.16 2.48 2.07 11.53-1.71 9.13-3.71-11-9.16-25.45-11.5-39.13-7.89-1.3.34-4.82 1.61-4.3 3.53.51 1.91 4.3 1.22 5.49.91zM597.1 495.36c10.57-2.23 21.35-.54 31.09 3.96 2.87 1.33 11.83-2.86 7.8-4.72-12.76-5.9-26.52-6.98-40.19-4.1-1.43.3-4.77 1.77-4.25 3.74.55 2.06 4.21 1.4 5.55 1.12zM575.89 776.94c6.28-17.87 12.58-35.74 18.88-53.6 14.98-42.47 29.99-84.93 45.05-127.37 18.25-51.44 36.56-102.86 54.99-154.24 15.7-43.75 31.44-87.49 47.59-131.08 5.23-14.12 10.48-28.23 15.97-42.26 5.56-14.21 11.04-31.39 25.92-39.04 5.63-2.9 11.91-2.9 17.76-.64 2.21.86 4.98.49 6.95-.85 1.16-.79 3.1-3.17.8-4.06-14.26-5.52-29.71-1.47-40.64 8.99-7.25 6.94-12.02 15.78-15.86 24.92-4.63 11.01-8.8 22.22-13 33.4-15.47 41.09-30.35 82.4-45.22 123.71-18.78 52.16-37.4 104.38-55.96 156.62-16.33 45.97-32.61 91.96-48.84 137.96-5.4 15.29-10.79 30.58-16.17 45.87-2.49 7.08-6.12 14.51-7.69 21.86-.07.32-.23.65-.34.96-1.24 3.5 8.6 2.3 9.81-1.15z"/><path class="st1" d="M795.66 256.78c-17.37-5.26-26.21 16.52-31.27 28.97-1.79 4.39-3.35 8.88-4.67 13.43-1.04 3.58-2.96 8.28-1.44 11.99 2.28 5.58 11.65 7.01 16.79 7.38 17.61 1.26 24.86-16.55 29.57-30.46 4.07-11.99 10.86-37.51-9.78-36.58-5.04.23-7.98 6.16-1.22 5.85 5.54-.25 6.06 9.48 5.75 12.85-.48 5.25-1.95 10.57-3.48 15.6-1.64 5.41-3.7 10.69-6.19 15.76-1.95 3.98-4.77 10.56-9.71 11.01-4.39.4-12.25-1.43-12.26-6.65-.02-4.97 2.61-10.83 4.26-15.47 1.89-5.33 4.14-10.52 6.72-15.55 1.82-3.56 6.02-14.01 11.02-12.5 3.37 1.02 11.51-3.94 5.91-5.63z"/></svg>