<svg version="1.1" id="Ebene_1" xmlns="http://www.w3.org/2000/svg" x="0" y="0" viewBox="0 0 1656 2048" style="enable-background:new 0 0 1656 2048" xml:space="preserve"><style>.st0{fill:#fff}</style><path class="st0" d="M1008.02 185.39c-58.24 0-110.43 25.81-145.86 66.57-26.47-16.17-57.47-25.65-90.75-25.65-2.38 0-4.7.26-7.06.36-21.65-76.16-91.57-132-174.66-132-81.29 0-150.08 53.39-173.31 127.01-24.25-11.58-51.29-18.26-79.96-18.26-102.73 0-186.02 83.28-186.02 186.02 0 79.52 50 147.2 120.2 173.81v401.1c0 57.92 47.39 105.31 105.31 105.31h6.88c57.92 0 105.31-47.39 105.31-105.31V871c15.41 11.45 34.4 18.32 54.97 18.32h32.21c50.95 0 92.64-41.69 92.64-92.64V541.23c28.98 21.41 64.7 34.22 103.49 34.22 45.02 0 85.92-17.19 116.89-45.17 32.93 26.03 74.49 41.62 119.73 41.62 106.73 0 193.25-86.52 193.25-193.25-.01-106.74-86.53-193.26-193.26-193.26z"/><path d="M589.68 94.66c83.1 0 153.01 55.84 174.66 132 2.36-.09 4.68-.36 7.06-.36 33.28 0 64.28 9.48 90.75 25.65 35.43-40.76 87.62-66.56 145.86-66.56 106.73 0 193.25 86.52 193.25 193.25s-86.52 193.25-193.25 193.25c-45.23 0-86.8-15.58-119.73-41.62-30.96 27.98-71.86 45.17-116.89 45.17-38.8 0-74.51-12.81-103.49-34.22v255.44c0 50.95-41.69 92.64-92.64 92.64h-32.21c-20.56 0-39.55-6.87-54.97-18.32v93.35c0 57.92-47.39 105.31-105.31 105.31h-6.88c-57.92 0-105.31-47.39-105.31-105.31v-401.1c-70.2-26.61-120.2-94.28-120.2-173.81 0-102.73 83.28-186.02 186.02-186.02 28.67 0 55.71 6.68 79.96 18.26 23.24-73.61 92.03-127 173.32-127m0-94.66c-89.31 0-170.32 42.15-221.36 110.56a279.602 279.602 0 0 0-31.91-1.81c-154.77 0-280.68 125.91-280.68 280.68 0 92.39 46.38 178.17 120.2 229.95v344.96c0 110.27 89.71 199.97 199.97 199.97h6.88c103.68 0 189.18-79.32 199.03-180.45 100.27-3.46 180.77-86.1 180.77-187.19v-126.7c2.93.09 5.88.14 8.83.14 42.01 0 82.99-9.82 119.98-28.32 36.55 16.18 76.37 24.77 116.63 24.77 158.76 0 287.92-129.16 287.92-287.91 0-158.76-129.16-287.91-287.92-287.91-59.02 0-115.97 18.12-163.63 51.07-5.21-1.48-10.46-2.8-15.75-3.95C779.98 54.29 689.3 0 589.68 0z"/><path d="M1151.78 1983.45H167.81c-56.8 0-103.27-46.47-103.27-103.27V587.14c0-56.8 46.47-103.27 103.27-103.27h983.97c56.8 0 103.27 46.47 103.27 103.27v1293.04c0 56.8-46.47 103.27-103.27 103.27z" style="fill:#e6ff00"/><path class="st0" d="M70.27 501.04h1190.51v232.54H70.27z"/><path d="M1302 1632.09V1503c123.88 0 224.66-115.56 224.66-257.6S1425.88 987.8 1302 987.8V858.71c195.06 0 353.75 173.47 353.75 386.69s-158.69 386.69-353.75 386.69z"/><path d="M1151.78 2048H167.81C75.28 2048 0 1972.72 0 1880.18V587.14c0-92.53 75.28-167.81 167.81-167.81h983.97c92.53 0 167.81 75.28 167.81 167.81v1293.04c.01 92.54-75.28 167.82-167.81 167.82zM167.81 548.41c-20.99 0-38.73 17.73-38.73 38.73v1293.04c0 20.99 17.73 38.73 38.73 38.73h983.97c20.99 0 38.73-17.73 38.73-38.73V587.14c0-20.99-17.73-38.73-38.73-38.73H167.81z"/><path d="M317.72 1170.7h77.45v606.7h-77.45zM609.62 1170.7h77.45v606.7h-77.45zM901.53 1170.7h77.45v606.7h-77.45z"/><path class="st0" d="M1008.02 185.39c-58.24 0-110.43 25.81-145.86 66.57-26.47-16.17-57.47-25.65-90.75-25.65-2.38 0-4.7.26-7.06.36-21.65-76.16-91.57-132-174.66-132-81.29 0-150.08 53.39-173.31 127.01-24.25-11.58-51.29-18.26-79.96-18.26-102.73 0-186.02 83.28-186.02 186.02 0 79.52 50 147.2 120.2 173.81v401.1c0 57.92 47.39 105.31 105.31 105.31h6.88c57.92 0 105.31-47.39 105.31-105.31V871c15.41 11.45 34.4 18.32 54.97 18.32h32.21c50.95 0 92.64-41.69 92.64-92.64V541.23c28.98 21.41 64.7 34.22 103.49 34.22 45.02 0 85.92-17.19 116.89-45.17 32.93 26.03 74.49 41.62 119.73 41.62 106.73 0 193.25-86.52 193.25-193.25-.01-106.74-86.53-193.26-193.26-193.26z"/><path d="M382.78 1108.37h-6.88c-79.42 0-144.03-64.62-144.03-144.03V588.16c-72.86-38.47-120.2-115.24-120.2-198.73 0-123.92 100.82-224.74 224.74-224.74 19.99 0 39.63 2.64 58.71 7.87 37.72-71.08 111.66-116.62 194.56-116.62 88.13 0 167.49 53.29 202.06 132.63a212.65 212.65 0 0 1 62.93 16.09c42.13-37.15 96.55-57.98 153.34-57.98 127.92 0 231.98 104.06 231.98 231.98 0 127.92-104.06 231.98-231.98 231.98-42.3 0-82.67-11.13-118.34-32.43-34.9 23.37-75.93 35.98-118.27 35.98-22.24 0-44.02-3.42-64.77-10.07v192.56c0 72.44-58.93 131.37-131.37 131.37h-32.21c-5.47 0-10.89-.34-16.24-1v37.31c.01 79.39-64.61 144.01-144.03 144.01zm-46.37-866.23c-81.22 0-147.29 66.07-147.29 147.29 0 60.72 38.26 116.01 95.19 137.59l25 9.48v427.83c0 36.71 29.87 66.58 66.58 66.58h6.88c36.71 0 66.59-29.87 66.59-66.58V793.97l61.82 45.93c9.41 6.99 20.43 10.69 31.87 10.69h32.21c29.73 0 53.92-24.19 53.92-53.92v-332.2l61.74 45.61c23.59 17.43 51.42 26.64 80.48 26.64 33.53 0 65.82-12.49 90.92-35.17l24.3-21.96 25.69 20.31c27.53 21.76 60.62 33.27 95.71 33.27 85.21 0 154.53-69.32 154.53-154.53s-69.32-154.52-154.53-154.52c-44.71 0-87.22 19.41-116.64 53.24l-21.47 24.7L841.97 285c-21.39-13.06-45.79-19.97-70.56-19.97l-1.7.11c-1.26.09-2.51.17-3.77.22l-30.49 1.25-8.35-29.36c-17.38-61.15-73.89-103.86-137.41-103.86-62.72 0-117.52 40.16-136.37 99.93l-13.4 42.5-40.22-19.21c-20.12-9.6-41.41-14.47-63.29-14.47z"/></svg>