<svg width="17" height="17" viewBox="0 0 17 17" fill="none" xmlns="http://www.w3.org/2000/svg">
  <path fill-rule="evenodd" clip-rule="evenodd" d="M9.41226 14.5H8.99805C7.1325 14.5 5.56286 14.104 4.47844 13.0196C3.39402 11.9352 2.99805 10.3656 2.99805 8.5C2.99805 6.63445 3.39402 5.06481 4.47844 3.98039C5.56286 2.89597 7.1325 2.5 8.99805 2.5C10.8636 2.5 12.4332 2.89597 13.5177 3.98039C14.6021 5.06481 14.998 6.63445 14.998 8.5V8.91421L14.7052 9.20711L9.70515 14.2071L9.41226 14.5ZM9.27097 11.8665C9.09411 12.3784 8.99805 12.928 8.99805 13.5C5.49805 13.5 3.99805 12 3.99805 8.5C3.99805 5 5.49805 3.5 8.99805 3.5C12.498 3.5 13.998 5 13.998 8.5C13.3949 8.5 12.8167 8.60679 12.2813 8.8025C11.2601 9.17583 10.3946 9.87272 9.80904 10.7691C9.55767 10.8384 9.2816 10.8753 8.99795 10.8753C8.44712 10.8753 7.92486 10.736 7.5565 10.4905C7.20293 10.2548 6.99784 9.93127 6.99779 9.50033L5.99779 9.50043C5.99788 10.3193 6.41784 10.9332 7.00182 11.3225C7.57099 11.7019 8.29873 11.8753 8.9979 11.8753C9.08858 11.8753 9.17974 11.8724 9.27097 11.8665ZM10.998 7.50002C10.4458 7.50002 9.99805 7.0523 9.99805 6.50002C9.99805 5.94773 10.4458 5.50002 10.998 5.50002C11.5503 5.50002 11.998 5.94773 11.998 6.50002C11.998 7.0523 11.5503 7.50002 10.998 7.50002ZM5.99805 6.50002C5.99805 7.0523 6.44576 7.50002 6.99805 7.50002C7.55033 7.50002 7.99805 7.0523 7.99805 6.50002C7.99805 5.94773 7.55033 5.50002 6.99805 5.50002C6.44576 5.50002 5.99805 5.94773 5.99805 6.50002Z" fill="currentColor" fill-opacity="0.65" />
</svg>