<svg width="62" height="58" xmlns="http://www.w3.org/2000/svg"><g fill-rule="nonzero" fill="none"><path d="M61.3 34.5C61.3 47.5 49.4 58 31 58S.7 47.5.7 34.5 12.6 2 31 2s30.3 19.5 30.3 32.5Z" fill="#F7910B"/><path d="M61.3 34.5C61.3 47.5 49.4 54 31 54S.7 47.5.7 34.5 12.6 0 31 0s30.3 21.5 30.3 34.5Z" fill="#F7910B"/><path d="M31 0c18.4 0 30.3 21.5 30.3 34.5S49.4 54 31 54" fill="#F9A908"/><path d="M61.3 34.5C61.3 47.5 49.4 54 31 54S.7 47.5.7 34.5 12.6 2 31 2s30.3 19.5 30.3 32.5Z" fill="#F9A908"/><path d="M.7 34.5C.7 21.5 12.6 2 31 2" fill="#F9C55D"/><path d="M31 2c18.4 0 30.3 19.5 30.3 32.5S49.4 58 31 58" fill="#F7910B"/><path d="M31 2c18.4 0 30.3 19.5 30.3 32.5" fill="#EA7103"/><g fill="#19BCA4"><path d="M24.7 13c0 .9-1.4.5-3.3.6-1.8.1-3.3.6-3.3-.3 0-.9 1.4-1.6 3.2-1.7 1.9-.1 3.4.5 3.4 1.4ZM37.3 13c0 .9 1.4.5 3.3.6 1.8.1 3.3.6 3.3-.3 0-.9-1.4-1.6-3.2-1.7-1.9-.1-3.4.5-3.4 1.4Z"/></g><g fill="#109DA0"><path d="M24.7 13c0 .9-1.4.5-3.3.6-1.8.1-3.3.6-3.3-.3M37.3 13c0 .9 1.4.5 3.3.6 1.8.1 3.3.6 3.3-.3"/></g><path d="M26.8 27.8c0 1.2-3.5.7-7.8.7s-7.8.6-7.8-.7c0-1.2 3.5-2.2 7.8-2.2s7.8 1 7.8 2.2Z" fill="#F9C55D"/><path d="M50.8 27.8c0 1.2-3.5.7-7.8.7s-7.8.6-7.8-.7c0-1.2 3.5-2.2 7.8-2.2s7.8 1 7.8 2.2Z" fill="#F9A908"/><circle fill="#F7910B" cx="9.3" cy="31.5" r="1"/><circle fill="#F7910B" cx="4.8" cy="33.5" r="1.1"/><circle fill="#F7910B" cx="7.8" cy="29.5" r="1"/><circle fill="#F7910B" cx="12.4" cy="31.3" r="1"/><circle fill="#F9A908" cx="51.6" cy="31.8" r="1"/><circle fill="#F9A908" cx="54.1" cy="33.2" r="1"/><circle fill="#F9A908" cx="48.8" cy="24.4" r="1"/><circle fill="#F9A908" cx="48.3" cy="36" r="1.3"/><circle fill="#F9A908" cx="55.5" cy="36.1" r="1"/><circle fill="#F7910B" cx="8.3" cy="35.5" r="1"/><circle fill="#F7910B" cx="9.1" cy="27.1" r="1"/><circle fill="#F9A908" cx="3.8" cy="13.3" r="1.1"/><circle fill="#F9A908" cx="7" cy="9.8" r="1"/><circle fill="#F9A908" cx="58.2" cy="15.7" r="1"/><circle fill="#F9A908" cx="57.4" cy="12.8" r="1"/><circle fill="#F9A908" cx="60" cy="13.3" r="1"/><circle fill="#F9A908" cx="5" cy="16.3" r="1"/><g fill="#00233F"><g transform="translate(16 16)"><ellipse transform="rotate(45 5.973 5.489)" cx="5.973" cy="5.489" rx="5.9" ry="1.8"/><ellipse transform="rotate(-45 6.027 5.489)" cx="6.027" cy="5.489" rx="5.9" ry="1.8"/></g><g transform="translate(34 16)"><ellipse transform="rotate(45 5.973 5.489)" cx="5.973" cy="5.489" rx="5.9" ry="1.8"/><ellipse transform="rotate(-45 6.026 5.488)" cx="6.026" cy="5.488" rx="5.9" ry="1.8"/></g></g><path d="M36.2 43.4c0 2.4-2.3 4.3-5.2 4.3-2.9 0-5.2-1.9-5.2-4.3" fill="#F7910B"/><path d="M37.4 37.5c0 6.1-2.9 8.5-6.4 8.5-3.5 0-6.4-2.4-6.4-8.5s2.9-9.3 6.4-9.3c3.5-.1 6.4 3.1 6.4 9.3Z" fill="#C42260"/><path d="M37.3 39.2c-.8-.3-1.6-.4-2.5-.4-1.4 0-2.7.4-3.8 1.1-1.1-.7-2.4-1.1-3.8-1.1-.9 0-1.7.2-2.5.4.5 4.8 3.1 6.8 6.3 6.8 3.2 0 5.8-2 6.3-6.8Z" fill="#E2446E"/><path d="M37.2 35c-.8-5-3.3-6.9-6.2-6.9-2.9 0-5.5 1.9-6.2 6.9h12.4Z" fill="#99144A"/></g></svg>