<?xml version="1.0" encoding="UTF-8"?><svg id="Ebene_2" xmlns="http://www.w3.org/2000/svg" xmlns:xlink="http://www.w3.org/1999/xlink" viewBox="0 0 841.89 595.28"><defs><style>.cls-1{fill:none;}.cls-2{clip-path:url(#clippath);}.cls-3{fill:#fff;}</style><clipPath id="clippath"><rect class="cls-1" width="841.89" height="595.28"/></clipPath></defs><g id="Ebene_1-2"><g class="cls-2"><path class="cls-3" d="M715.87,194.44c-24.36,2.98-24.78,11.53-56.22,13.85-31.44,2.32-66.02,4.64-59.73,10.94,6.29,6.3,54.23,14.92,73.88,17.9,10.52,1.6,26.45,3.38,40.7,5.14,12.37,1.52,23.91-1.95,48.05-2.43,17.57-.35,24.13,1.94,38.99,3.24,51.79,4.55,33.02-9.03,81.28-6.49,112.03,5.91,8.71-33.67-2.2-38.1-30.2-12.28-50.81-9.64-82.65-4.05-17.95,3.15-57.74-2.98-82.1,0Z"/><path class="cls-3" d="M192.07,137.79c-24.36-4.26-30.28-12.18-61.71-15.5-31.43-3.31-67.2-2.4-61.49-11.78,9.16-15.05,20.18-15.03,24.86-21.59,5.3-7.44,36.64-7.85,56.28-12.11,10.52-2.28,26.44-4.83,40.69-7.34,12.36-2.18,23.9,2.79,48.04,3.47,17.57,.5,24.12-2.77,38.98-4.63,51.77-6.5,33.01,12.9,81.25,9.26,111.99-8.44,8.71,48.09-2.2,54.42-30.19,17.53-50.79,13.77-82.62,5.79-17.95-4.5-57.72,4.26-82.07,0Z"/><path class="cls-3" d="M672.5,41.76c-14.66,3.45-14.91,13.32-33.83,16.01-18.92,2.68-39.73,5.36-35.94,12.64s10.18,6.2,7.81,10.03-8.76,4.91-4.97,10.27,29.79-3.06,41.62,.38c6.33,1.85,15.91,3.91,24.49,5.94,7.44,1.76,14.39-2.26,28.91-2.81,10.57-.4,14.52,2.24,23.46,3.75,31.16,5.26,19.87-10.43,48.91-7.49,67.41,6.83,5.24-38.91-1.32-44.03-18.17-14.19-30.57-11.14-49.73-4.68-10.8,3.64-34.74-3.45-49.4,0Z"/><path class="cls-3" d="M554.06,160.48c-71.27,0-129.04,57.77-129.04,129.04,0,26.14,7.78,50.46,21.14,70.79,29.7-8.17,52.71-8.45,84,15.07,5.59,4.2,30.69,22.13,48.54,40.81,59.47-11.51,104.39-63.84,104.39-126.68,0-71.27-57.77-129.04-129.04-129.04Z"/></g></g></svg>