<?xml version="1.0" encoding="UTF-8"?><svg id="Ebene_2" xmlns="http://www.w3.org/2000/svg" xmlns:xlink="http://www.w3.org/1999/xlink" viewBox="0 0 841.89 595.28"><defs><style>.cls-1{fill:none;}.cls-2{clip-path:url(#clippath);}.cls-3{fill:#fff;}.cls-4{fill:#b3b2b2;}.cls-5{fill:#dadada;}.cls-6{fill:#716f6f;}.cls-7{fill:#585857;}</style><clipPath id="clippath"><rect class="cls-1" width="841.89" height="595.28"/></clipPath></defs><g id="Ebene_1-2"><g class="cls-2"><circle class="cls-3" cx="552.97" cy="289.52" r="129.04"/><path class="cls-5" d="M603.21,434.12c-21.47,3.77-21.84,14.57-49.55,17.5-27.71,2.93-58.18,5.86-52.64,13.82,5.54,7.96,14.91,6.78,11.44,10.97s-12.83,5.37-7.29,11.23c5.54,5.86,43.64-3.35,60.95,.42,9.27,2.02,23.31,4.27,35.87,6.49,10.9,1.93,21.07-2.47,42.35-3.07,15.49-.44,21.27,2.45,34.36,4.1,45.64,5.75,29.1-11.41,71.63-8.19,98.73,7.46,7.68-42.54-1.94-48.14-26.62-15.51-44.77-12.18-72.84-5.12-15.82,3.98-50.88-3.77-72.35,0Z"/><path class="cls-5" d="M324.1,366.05c-30.31,6.87-30.83,26.54-69.95,31.88-39.11,5.34-82.14,10.68-74.32,25.18,7.82,14.49,21.04,12.35,16.15,19.97-4.89,7.63-18.11,9.78-10.29,20.46,7.82,10.68,61.61-6.1,86.05,.76,13.09,3.68,32.91,7.78,50.64,11.83,15.38,3.51,29.75-4.5,59.79-5.6,21.86-.8,30.02,4.46,48.51,7.46,64.44,10.47,41.08-20.78,101.12-14.93,139.39,13.59,10.84-77.48-2.73-87.69-37.58-28.25-63.21-22.18-102.83-9.33-22.34,7.25-71.83-6.87-102.15,0Z"/><path class="cls-5" d="M122.7,342.08c-33.72,11.01-34.29,42.56-77.8,51.12-43.5,8.56-91.36,17.13-82.66,40.37s23.4,19.8,17.97,32.03c-5.44,12.23-20.14,15.68-11.44,32.81,8.7,17.13,68.52-9.79,95.71,1.22,14.56,5.9,36.6,12.48,56.32,18.97,17.11,5.63,33.09-7.21,66.5-8.98,24.32-1.28,33.39,7.15,53.96,11.97,71.67,16.79,45.69-33.32,112.47-23.94,155.03,21.8,12.06-124.26-3.04-140.62-41.8-45.31-70.31-35.57-114.37-14.96-24.84,11.62-79.9-11.01-113.61,0Z"/><path class="cls-5" d="M911.86,494.64s-160.66-34.35-191.33-33.8c-247.45,4.46-257.65-2.55-325.26-.64-66.31,1.88-218.11,28.7-273.6,26.79-55.48-1.91-137.12,1.91-137.12,1.91l-117.99,248.73s1195.16-7.02,1194.52-8.93-149.24-234.06-149.24-234.06Z"/><path class="cls-4" d="M-70.92,501.66s81.79,19.74,166.71,9.57c85.21-10.2,165.18-15.31,252.36-14.03,50.31,.74,84.88-17.22,185.06-2.55,100.18,14.67,208.77,19.13,275.3,6.38s276.83,7.65,276.83,7.65l-26,110.97L-6.69,616.45l-64.24-114.8Z"/><path class="cls-6" d="M936.8,553.95s-73.23,23.9-149.26,9.57c-77.78-14.67-147.89-15.31-225.95-14.03-45.04,.74-76-17.22-165.69-2.55-89.69,14.67-176.58,12.12-246.49,6.38-60.71-4.98-247.86,7.65-247.86,7.65l23.28,110.97,954.45-3.19,57.51-114.8Z"/><path class="cls-7" d="M658.13,598.08c-1.64-5.13-2.73-10.34-2.54-15.76,.02-.48,.02-.96,.01-1.44-.21-9.47,2.28-18.32,6.26-26.81,.41-.87,.79-1.75,1.17-2.62,2.96-6.78,6.81-13.06,11.48-18.74,4.47-5.43,9.68-10.15,15.8-13.81,5.19-3.1,10.64-5.46,16.48-6.99,4.87-1.27,9.73-2.58,14.72-3.28,1.66-.23,3.33-.46,5-.5,4.94-.12,9.86-.94,14.82-.38,2.06,.23,4.15,.05,6.2,.51,1.4,.31,2.8,.64,4.17,1.08,1,.32,1.5,0,1.67-1.05,.22-1.42,.39-2.85,.57-4.27,.62-4.8,1.99-9.38,4.17-13.69,2.98-5.89,7.1-10.78,12.88-14.15,3.66-2.14,7.44-4.05,11.27-5.84,1.94-.91,4.02-1.54,6.05-2.27,.67-.24,1.37-.43,2.06-.63,.97-.28,1.41-.92,1.43-1.94,.14-6.46,3.15-11.57,7.47-16.1,3.22-3.38,6.86-6.22,10.92-8.52,.56-.31,1.09-.66,1.65-.97,.64-.36,.91-.89,.71-1.6-.36-1.31-.72-2.62-1.14-3.91-.73-2.24-1.06-4.51-.68-6.85,.29-1.81,.56-3.64,.99-5.42,1.27-5.22,2.9-10.31,5.81-14.89,2.92-4.6,6.7-8.3,11.5-10.93,3.62-1.98,7.55-3.01,11.55-3.83,.54-.11,1.11-.06,1.67-.08v205.7h-184.13Z"/><path class="cls-6" d="M386.75,368.06c-3.33-13.1-10.83-53.54-10.83-53.54,0,0-7.48,40.32-10.8,53.39-2.23,8.75-10.53,34.1-10.53,34.1h4.82v26.32h2.15v17.08l-10.67-18.76h-9.56v-20.87h2.11v-4.43h-2.11v-24.15h2.11v-4.43h-2.11v-26.04h2.11v-4.43h-.84v-3.06h-2.39v3.06h-1.96v-3.06h-2.39v3.06h-1.96v-3.06h-2.39v3.06h-1.96v-3.06h-2.39v3.06h-1.96v-3.06h-2.39v3.06h-1.96v-3.06h-2.39v3.06h-.95v4.43h2.32v26.04h-2.32v4.43h2.32v24.15h-2.32v4.43h2.32v20.87h-9.98v-9.84h2.58v-6.86h-1.4v-2.32h-1.19v-24.31h2.58v-6.5h1.93v-11.73h-2.15v-69.71h2.15v-26.32h5.14s-8.28-25.25-10.49-33.96c-3.33-13.1-10.83-53.54-10.83-53.54,0,0-7.48,40.32-10.8,53.39-2.23,8.75-10.53,34.1-10.53,34.1h4.82v26.32h2.15v69.71h-2.15v8.32h-2.27v-31.68h1.28v-1.92h2.88l-6.15-20.8h-21.97v-5.86h1.27l-4.16-7.77-4.16,7.77h1.27v5.86h-21.46l-4.24,13.25c-3.18-9.83-9.56-29.78-11.67-38.08-4.3-16.89-13.96-68.99-13.96-68.99,0,0-9.63,51.96-13.91,68.8-2.87,11.28-13.57,43.95-13.57,43.95h7.11v6.58h-1.9v3.8h-1.13v6.35h1.13v30.54c-2.28-6.56-4.59-13.39-5.65-17.15-3.69-13.1-12-53.54-12-53.54,0,0-8.28,40.32-11.96,53.39-2.46,8.75-11.66,34.1-11.66,34.1h5.34v20.01h-.03v9.41h2.4v66.61h-2.38v11.73h36.76v-.06h182.54v.06h32.7v-11.73h-2.15v-69.71h2.15v-26.32h5.14s-8.28-25.25-10.49-33.96Zm-76.76-98.99v16.91h-9.63v-16.91h9.63Zm-23.98,0h9.99v16.91h-9.99v-16.91Zm-63.89,68.88l-.6,1.88h2.88v1.92h1.28v31.68h-4.88v-18.75h.9v-6.35h-.9v-3.8h-1.9v-6.58h3.22Zm-49.62,64.07v20.01h-12.17v-20.01h12.17Zm-27.57,0h11.04v20.01h-11.04v-20.01Zm118.97,101.37h.07v3.71h-.07v-3.71Zm114.4-101.37v16.91h-5.09v-16.91h5.09Zm-14.53,0h5.09v16.91h-5.09v-16.91Zm23.98,16.91h-5.09v-16.91h5.09v16.91Z"/><path class="cls-4" d="M73.03,463.77c-21.06,4.69-21.42,18.13-48.6,21.78-27.17,3.65-57.07,7.3-51.63,17.2,5.43,9.9,14.62,8.44,11.22,13.65-3.4,5.21-12.58,6.68-7.15,13.98,5.43,7.3,42.8-4.17,59.78,.52,9.09,2.51,22.86,5.32,35.18,8.08,10.69,2.4,20.67-3.07,41.54-3.82,15.19-.55,20.86,3.05,33.7,5.1,44.77,7.16,28.54-14.2,70.25-10.2,96.84,9.29,7.53-52.94-1.9-59.91-26.11-19.3-43.92-15.16-71.44-6.37-15.52,4.95-49.91-4.69-70.97,0Z"/><path class="cls-4" d="M323.31,474.11c-21.47,3.77-21.84,14.57-49.55,17.5s-58.18,5.86-52.64,13.82,14.91,6.78,11.44,10.97-12.83,5.37-7.29,11.23,43.64-3.35,60.95,.42c9.27,2.02,23.31,4.27,35.87,6.49,10.9,1.93,21.07-2.47,42.35-3.07,15.49-.44,21.27,2.45,34.36,4.1,45.64,5.75,29.1-11.41,71.63-8.19,98.73,7.46,7.68-42.54-1.94-48.14-26.62-15.51-44.77-12.18-72.84-5.12-15.82,3.98-50.88-3.77-72.35,0Z"/><path class="cls-7" d="M-.59,416.99c.85-.21,1.7-.39,2.54-.62,3.16-.88,6.36-1.44,9.65-1.35,2.06,.06,4.13-.1,6.19,.22,2.95,.45,5.73,1.44,8.36,2.75,4.48,2.24,8.82,4.75,12.87,7.73,2.99,2.2,5.22,5.1,7.61,7.86,4.14,4.79,7.28,10.24,10.37,15.71,2.43,4.31,4.33,8.87,4.78,13.89,.13,1.42,.22,2.85,.24,4.28,.04,2.86,.05,5.73,.02,8.59-.01,1.09,.41,1.81,1.38,2.27,5.09,2.43,8.09,6.81,10.57,11.59,1.29,2.48,1.18,2.36,3.52,2.02,1.73-.25,3.48-.09,5.22,.24,5.21,.98,10.04,3.02,14.83,5.17,4.07,1.83,7.92,4.07,11.72,6.4,4.73,2.9,8.64,6.76,12.23,10.93,5.53,6.43,9.16,13.92,12.02,21.82,1.08,2.99,2.23,5.96,2.96,9.07,.17,.72,.5,.88,1.24,.68,1.08-.28,2.14-.62,3.22-.9,3.89-1.02,7.86-1.13,11.85-.97,1.11,.04,2.22,.22,3.3,.46,4.6,1.01,9.05,2.46,13.1,4.95,2.07,1.27,3.75,2.93,5.09,4.95,.26,.4,.51,.81,.79,1.2,.41,.56,.96,.82,1.66,.69,.47-.08,.93-.19,1.4-.29,3.15-.62,6.31-.62,9.49-.13,2.53,.39,4.99,1.01,7.44,1.7,1.61,.46,3.13,1.14,4.57,2.02,2.79,1.69,5.63,3.3,8.18,5.36,1.73,1.4,3.42,2.85,5.1,4.31,1.4,1.21,2.41,2.71,3.24,4.38,1.6,3.22,2.84,6.57,3.9,9.99,.54,1.75,.85,3.56,.85,5.4,0,1.35-.02,2.7-.02,4.06,0,.88-.05,1.75-.44,2.57H-.59c0-59.67,0-119.34,0-179.01Z"/></g></g></svg>