<?xml version="1.0" encoding="UTF-8"?><svg id="Ebene_2" xmlns="http://www.w3.org/2000/svg" xmlns:xlink="http://www.w3.org/1999/xlink" viewBox="0 0 841.89 595.28"><defs><style>.cls-1{fill:none;}.cls-2{clip-path:url(#clippath);}.cls-3{fill:#b2b2b2;}.cls-4{fill:#dadada;}.cls-5{fill:#706f6f;}.cls-6{fill:#575756;}</style><clipPath id="clippath"><rect class="cls-1" width="841.89" height="595.28"/></clipPath></defs><g id="Ebene_1-2"><g class="cls-2"><path class="cls-4" d="M324.28,592.98c-13.22-35.53,14.63-89.06,53.92-96.71,30.49-5.45,55.06,17.18,84.69,15.75,41.82-3.35,41.6-46.7,104.13-55.14,239.28-32.99,126.6-100.43,179.42-241.06,29.65-51.62,70.72-102.78,126.01-126.88,28.14,619.93,26.33,500.91-548.18,504.05Z"/><path class="cls-3" d="M.74,619.04c4.22-116.4-8.09-259.3,4.15-362.79,25.43,21.56,28.95,58.53,53.96,78.71,37.42,.2,40.08,43.49,71.42,52.03,66.35-1.55,116.17-41.16,134.85,53.91,4.05,32.81,2.45,77.36,40.78,89.34C633.51,668.35,101.89,607.4,.74,619.04Z"/><path class="cls-4" d="M391.19,.35c-.67,1.58-2.09,2.48-3.3,3.54-3.68,3.24-7.53,6.25-11.53,9.09-2.71,1.93-4.49,4.72-5.99,7.63-1.94,3.76-2.93,7.83-3.46,12-.14,1.1-.06,2.24,.01,3.36,.15,2.14,.32,4.27,.56,6.4,.57,4.97,.8,9.96,1.21,14.94,.26,3.05,.48,6.09,.59,9.15,.21,5.54-1.12,10.74-3.36,15.72-2.99,6.66-7.07,12.56-12.13,17.89-5.9,6.23-12.8,11.04-20.06,15.45-2.36,1.43-4.73,2.81-6.63,4.87-1.05,1.13-1.97,2.32-2.7,3.69-1.1,2.08-1.98,4.26-2.73,6.48-2.1,6.23-5,12.06-8.7,17.48-5.98,8.76-14.21,14.19-24.61,16.28-4.06,.82-8.09,.77-12.13-.2-2.69-.65-5.29-1.53-7.86-2.53-3.89-1.53-7.77-3.1-11.67-4.6-3.34-1.28-6.6-2.74-9.73-4.47-4.3-2.38-8.76-4.37-13.43-5.9-3.59-1.17-7.14-2.46-10.71-3.69-10.01-3.45-20.19-3.89-30.45-1.38-5.18,1.27-9.47,4.22-13.34,7.79-.9,.84-1.61,1.85-2.14,2.97-.92,1.93-1.89,3.85-2.66,5.85-2.35,6.13-5.47,11.85-9.05,17.33-1.68,2.57-3.24,5.19-4.59,7.94-4.05,8.25-10.31,14.35-18.42,18.59-3.89,2.04-7.83,3.96-11.87,5.69-4.83,2.07-9.85,3.33-15.04,3.99-4.75,.6-9.51,1.19-14.28,1.67-5.55,.56-11.01-.09-16.31-1.82-2.62-.85-5.19-1.86-7.74-2.88-3.52-1.41-7.11-2.49-10.87-3.08-7.27-1.14-14.42-2.83-21.39-5.21-6.48-2.21-13.07-3.98-19.8-5.27-5.02-.96-9.85-2.65-14.71-4.18-3.42-1.08-6.87-1.94-10.39-2.56V.35H391.19Z"/><path class="cls-3" d="M365.63-1.28c-15.08,19.5-.45,27.11-30.81,43.9-5.94,22.63,33.9,22.93-7.86,59.98-50.18,33.59-98.1-26.86-147.99-33.63-20.26-4.47-57.34,4.73-18.92,18.31,23.73,24.2-42.72,26.61-31.41,38.66,9.95,17.92-9.76,30.93-21.91,40.63,1.5,27.28-13.61,59.9-46.39,56.26-88.99-13.06,20.11,49.23,6.84,88.13-2.38,33.52-37.74,36.66-63.51,43.2C-8.54,248.95,3.67,113.83-.53-1.28c122.06,0,244.1,0,366.15,0Z"/><path class="cls-5" d="M-.39,321.99c1.14,.19,2.09,.74,3.01,1.42,6.4,4.76,12.48,9.88,17.4,16.23,3.64,4.7,6.59,9.83,8.88,15.31,1.77,4.24,3.2,8.6,4.33,13.06,1.33,5.24,2.89,10.42,3.59,15.8,.47,3.64,1.01,7.27,1.43,10.92,.63,5.38,2.51,10.26,5.45,14.79,1.91,2.94,4.27,5.47,7.05,7.58,5.31,4.03,10.99,7.36,17.37,9.48,6.77,2.25,13.5,4.71,19.96,7.74,9.05,4.24,18.07,8.54,26.62,13.77,8.48,5.18,16.31,11.15,23.5,18.02,4.8,4.58,9.6,9.14,14.21,13.9,3.51,3.62,7.72,6.35,12.06,8.84,4.29,2.46,8.07,5.49,11.5,9.04,2.84,2.94,4.23,6.4,4.47,10.43,.33,5.67-.36,11.16-2.25,16.55-1.04,2.97-1.84,6.06-2.42,9.16-.99,5.27-.4,10.35,2.48,15.03,3.84,6.26,7.63,12.54,11.48,18.8,4.89,7.97,8.61,16.43,10.85,25.51,.24,.99,.38,2,.56,3H-.39V321.99Z"/><path class="cls-4" d="M856.56-10.14c.01,28.91,.04,57.83,.02,86.74-4.25,13.6-26.88,18.1-40.12,18.67-17.25,2.01-33.8-14.85-49.94-7.14-68.83,72.39-71.54-9.39-137.12-3.07-55.59,31.86-64.86,50.12-126.91,12.87-27.45-6.67-53.1,13.94-80.89,12.07-32.44,2.4-49.45-29.94-23.38-52.28,21.94-14.92,11.24-38.58,15.91-58.3,137.49-26.67,297.6-.89,442.42-9.58Z"/><path class="cls-3" d="M415.58,607.58c.07-.3,.1-.62,.23-.89,1.4-2.71,1.83-5.61,1.6-8.61-.32-4.13,.88-7.87,2.85-11.41,2.23-4.01,4.49-8,7.5-11.51,2-2.33,4.08-4.54,6.54-6.4,3.17-2.4,6.27-4.9,9.47-7.25,2.38-1.75,4.9-3.3,7.68-4.4,4.27-1.68,8.47-3.53,12.93-4.7,3.37-.88,6.75-1.48,10.22-1.84,6.89-.72,13.79-1.29,20.62-2.54,6.42-1.17,12.91-1.84,19.46-1.71,5.85,.12,11.56-.95,17.26-2.12,3.34-.68,6.39-2.09,9.28-3.86,3.31-2.02,6.57-4.11,9.87-6.15,7.14-4.42,14.97-6.86,23.24-8.08,3.35-.49,6.7-.58,10.06-.58,2.96,0,5.92,.13,8.84-.52,.2-.04,.41-.06,.61-.05,3.79,.18,7.53-.46,11.28-.8,4.48-.41,8.98-.19,13.43-.61,4.69-.43,9.38-.21,14.05-.57,6.09-.46,12.19-.87,18.21-2.04,3.8-.74,7.66-1.12,11.51-1.58,9.24-1.12,17.91-3.75,25.79-8.9,4.38-2.86,8.37-6.12,12.22-9.64,3.84-3.51,7.61-7.09,11.32-10.73,.94-.93,2.05-1.67,3.04-2.55,1.76-1.57,3.26-3.37,4.69-5.23,3.17-4.13,6.29-8.28,8.99-12.74,.63-1.05,1.29-2.09,2.03-3.06,.87-1.14,1.61-2.36,2.24-3.64,.27-.55,.51-1.12,.86-1.62,3.07-4.39,4.91-9.38,7.08-14.21,.54-1.21,1.11-2.41,1.74-3.58,3.48-6.5,5.95-13.41,8.43-20.33,3.34-9.31,6.38-18.73,10.1-27.91,.96-2.36,2.03-4.68,2.99-7.04,2.39-5.86,4.63-11.77,6.3-17.88,.51-1.88,.74-3.79,.72-5.75-.04-2.95-.18-5.92,.49-8.84,.07-.29,.06-.61,.07-.91,0-4.39,0-8.77,.02-13.16,0-1.37-.41-2.57-1.17-3.72-2.84-4.32-2.3-8.69,1.57-12.01,3.02-2.59,6.18-5.01,9.69-6.92,5.13-2.79,10.46-5.08,16.11-6.58,5.42-1.44,10.86-2.81,16.28-4.25,1.38-.37,2.71-.87,4.07-1.32v300.72H415.58Z"/><path class="cls-6" d="M165.74,.51c-.87,5.11-2.79,9.7-6.37,13.57-2.98,3.22-6.25,6.04-9.94,8.42-3.31,2.13-6.54,4.38-9.8,6.58-.06,.04-.04,.18-.06,.27,.27,.42,.72,.32,1.1,.31,2.17-.08,4.35-.16,6.52-.3,3.53-.23,6.96-1.06,10.4-1.85,1.53-.35,3.08-.44,4.64-.38,.61,.02,1.25,.11,1.82,.32,1.61,.6,2.1,2.07,1.12,3.5-.46,.67-1.06,1.28-1.69,1.81-1.12,.94-2.41,1.6-3.77,2.14-4.43,1.79-8.95,3.3-13.56,4.54-2.1,.57-4.21,1.11-6.3,1.71-3.91,1.12-7.92,1.53-11.96,1.85-4.44,.36-8.87,.84-13.3,1.31-.81,.09-1.6,.4-2.38,.68-.25,.09-.54,.41-.57,.66-.06,.48,.36,.67,.77,.79,3.06,.85,6.16,.67,9.27,.35,2.78-.28,5.57-.54,8.36-.79,.51-.05,1.04-.04,1.55,.04,2.67,.44,5.38,.33,8.07,.53,2.99,.22,6,.33,8.94,1.05,.92,.22,1.8,.51,2.56,1.08,1.08,.81,1.26,1.98,.33,2.94-.57,.59-1.24,1.11-1.95,1.51-1.55,.86-3.22,1.43-5,1.62-4.32,.46-8.65,.91-12.97,1.37-.44,.66,.24,.87,.47,1.25,.87,1.44,.68,2.53-.59,3.49-.85,.64-1.86,.95-2.86,1.16-2.03,.42-4.06,.86-6.15,.85-8.5-.04-17.01-.09-25.51-.15-.62,0-1.25-.02-1.86-.13-2.98-.56-5.9-.07-9.13,.39,3,.95,5.83,.93,8.58,1.32,3.07,.43,6.19,.55,9.3,.74,4.6,.27,8.63,2.05,12.36,4.62,.96,.66,1.8,1.53,1.54,2.83-.27,1.32-1.43,1.67-2.55,1.96-.4,.1-.82,.18-1.23,.19-4.35,.1-8.7,.33-13.04-.32-4.61-.68-9.24-1.25-13.85-1.97-4.82-.75-9.55-1.94-14.25-3.25-1.59-.44-3.22-.78-4.84-1.12-.27-.06-.72,.02-.85,.2-.3,.42,.06,.78,.36,1.04,.7,.61,1.43,1.2,2.16,1.77,1.14,.9,2.37,1.69,3.43,2.68,1.55,1.45,3.23,1.72,5.16,1,.48-.18,1-.29,1.51-.38,.4-.08,.82-.13,1.23-.1,1.17,.07,2.08,1.28,1.43,2.17-1.53,2.09-1.33,3.87,.22,5.82,.81,1.01,.59,2.37,.47,3.62-.06,.67,.34,.99,.95,.81,.99-.29,1.97-.66,2.96-.95,.69-.2,1.4-.39,2.12-.46,.65-.06,1.24,.21,1.53,.85,.23,.52,.12,1.07-.25,1.45-.8,.81-1.62,1.61-2.51,2.3-1.73,1.34-3.71,2.28-5.64,3.28-1.57,.81-3.14,1.62-4.44,2.83-.12,.11-.18,.41-.12,.56,.06,.14,.34,.29,.49,.26,1.01-.22,2.02-.44,3-.74,5.65-1.76,11.34-3.33,17.18-4.31,2.96-.5,5.93-.98,8.94-1.11,1.03-.05,2.05-.27,3.08-.41,1.04-.14,2.06-.14,3.03,.4,1.03,.57,1.41,1.65,.73,2.62-.64,.91-1.46,1.7-2.18,2.53,.32,.71,.91,.52,1.37,.48,2.27-.2,4.54-.43,6.81-.68,5.98-.67,11.87-1.82,17.69-3.38,1.5-.4,3.04-.65,4.57-.87,.7-.1,1.46-.05,2.16,.08,1.54,.31,2.18,1.63,1.52,3.08-.61,1.34-1.52,2.49-2.7,3.37-1.08,.8-2.18,1.62-3.38,2.2-3.84,1.84-7.8,3.32-12.04,4.06-7.76,1.34-15.59,2.3-23.28,4.03-4.15,.94-8.42,1.07-12.65,1.48-8.06,.78-16.15,.74-24.25,.64-.72,0-1.46,0-2.17,.12-1.46,.26-2.16,1.18-2.02,2.63,.1,1.03,.19,2.09,.71,3.01,1.86,3.24,3.72,6.48,6.37,9.17,1,1.02,1.5,1.11,2.73,.37,3.82-2.3,7.66-4.57,11.41-6.98,3-1.93,6.28-3.18,9.55-4.49,1.39-.56,2.85-.59,4.28-.26,1.64,.38,2.29,1.87,1.56,3.37-.47,.96-1.23,1.67-2.02,2.34-1.98,1.69-4.1,3.21-6.48,4.26-2.75,1.21-4.86,3.06-6.57,5.51-1.67,2.38-3.52,4.63-6.18,6.03-.76,.4-1.21,1.09-1.52,1.9-.65,1.68-2,2.28-3.69,2.32-.83,.02-1.66,0-2.49,.02-.89,.02-1.58,.47-2.11,1.16-.11,.14-.18,.39-.14,.56,.04,.16,.24,.39,.39,.41,.62,.06,1.24,.08,1.86,.08,2.39-.03,4.77-.09,7.16-.1,4.78,0,9.51,.56,14.25,1.09,3.61,.4,7.23,.69,10.78,1.44,4.16,.87,8.3,1.84,12.43,2.81,1.21,.28,2.4,.67,3.4,1.47,.59,.47,1.09,1.02,.99,1.82-.1,.8-.69,1.3-1.42,1.48-1.2,.3-2.43,.62-3.66,.69-3.1,.19-6.22,.09-9.31,.54-.51,.07-1.04,.05-1.55,0-8.18-.7-16.37-.38-24.56-.45-3.88-.04-7.64,.68-11.4,1.4-4.46,.85-8.87,1.97-13.27,3.33,2.12,.2,4.23,.55,6.35,.58,5.96,.08,11.74,1.15,17.44,2.84,2.58,.77,5.18,1.48,7.78,2.18,1.22,.33,2.36,.79,3.31,1.64,1.68,1.49,1.37,3.35-.7,4.09-.98,.35-2,.5-3.06,.45-3-.14-6.02-.14-9.01-.37-5.38-.43-10.78-.3-16.15-.7-4.77-.36-9.53-.27-14.29-.55-4.24-.25-8.48-.63-12.73-.57-.76,0-1.6-.21-2.35,.41,.23,.21,.35,.43,.5,.45,1.64,.26,3.27,.54,4.92,.69,1.34,.12,2.69,.06,4.04,.09,5.5,.1,10.97,.51,16.42,1.18,2.58,.32,5.11,.85,7.61,1.57,3.49,1,6.97,2.04,10.45,3.05,1.71,.5,3.28,1.31,4.74,2.3,1.66,1.13,1.54,2.66-.27,3.6-1.02,.53-2.13,.8-3.27,.94-2.26,.28-4.52,.55-6.81,.83-.13,.76,.53,.73,.92,.87,1.27,.45,2.56,.83,3.85,1.23,.79,.25,1.61,.42,2.37,.74,2.19,.92,2.49,2.45,.8,4.04-1.71,1.61-3.72,2.69-6.08,2.86-4.37,.31-8.7,.18-12.92-1.24-4.44-1.5-8.68-3.43-12.79-5.65-3.58-1.93-7.31-3.44-11.26-4.44-1.21-.31-2.41-.51-3.93-.31,.75,.97,1.68,1.16,2.5,1.5,3.29,1.34,6.35,3.07,9.2,5.16,1.69,1.24,3.18,2.66,4.13,4.57,.83,1.65,1.25,3.31,.09,5-1.19,1.72-2.81,2.36-4.86,1.96-.49-.09-.99-.13-1.97-.25,.8,.91,1.36,1.45,1.81,2.07,1.09,1.51,.63,3.33-1.03,4.18-1.07,.55-2.19,.52-3.34,.3-2.34-.45-4.69-.88-7.03-1.3-1.53-.27-3.07-.5-4.6-.74-.06,0-.15,.1-.23,.16,.37,.71,1.17,.8,1.74,1.21,.76,.54,1.57,1.01,2.3,1.59,.68,.54,1.14,1.24,.83,2.17-.29,.88-.99,1.32-1.86,1.45-1.45,.22-2.9,.12-4.34-.08-3.49-.48-6.97-1.03-10.46-1.48-1.23-.16-2.48-.18-3.72-.14-2.1,.07-4.1,.53-5.88,1.75-1.02,.7-2.05,1.46-3.43,1.14v-82.16c2.12-1.94,4.21-3.92,6.66-5.46,.6-.38,1.11-.92,1.6-1.44,.95-1.01,1-1.7-.11-2.6-2.57-2.08-4.67-4.61-6.95-6.97-.35-.36-.8-.64-1.2-.96,0-9.54,0-19.09,0-28.63,1.59-1.46,2.18-2.6,2.43-4.8-.35,.27-.66,.51-.98,.75-.44,.31-.93,.36-1.45,.32v-20.54c1.88-1.25,2.47-3.38,3.5-5.2,.32-.57-.07-1.2-.8-1.32-.9-.15-1.8-.22-2.7-.33,0-6.43,0-12.86,0-19.3,.76,0,1.33,.38,1.88,.88,.58,.52,.93,1.36,1.87,1.45-.31-2.97-1.42-5.11-3.75-7.3V.51c.83,0,1.66,0,2.49,0,1.45,2.58,2.94,5.12,4.8,8.36,.09-1.77,.17-2.76,.17-3.76,0-1.56,.1-3.11,.62-4.6h24.28c-.08,1.07-.8,2.07-.5,3.51,1.95-1,3.51-2.11,4.86-3.51h19.3c-.11,.84-.46,1.58-.88,2.3-2.21,3.75-4.41,7.5-6.62,11.25-.25,.42-.68,.8-.41,1.38,1.76-1.01,2.08-1.33,3.34-2.99,2.73-3.6,4.63-7.6,5.81-11.94h8.71c.16,2.01-.3,3.92-1.01,5.77-.6,1.55-1.3,3.05-1.91,4.59-.15,.38-.68,.83,0,1.3,1.82-1.7,3.54-3.5,5.47-5.05,2.59-2.08,4.99-4.36,7.42-6.62h23.03c.02,.91-.6,1.49-1.1,2.14-1.32,1.71-2.62,3.43-3.91,5.17-.3,.4-.64,.81-.42,1.42,.83,.33,1.57-.2,2.34-.35,1.49-.27,2.64-1.03,3.4-2.41,.34-.62,.84-1.18,1.38-1.65,1.14-1,2.4-1.64,3.92-.77,.66,.37,1.33,.5,2.07,.26,3.33-1.07,6.71-2,9.74-3.82,4.56,0,9.13,0,13.69,0,.24,.45,.36,1.09,.74,1.32,2.22,1.35,2.15,3.36,1.68,5.48-.4,1.84-1.18,3.54-2.07,5.18-1.82,3.37-3.67,6.73-5.49,10.1-.21,.4-.74,.76-.35,1.37,2.39-1.48,4.73-2.99,7.13-4.42,1.87-1.12,3.66-2.33,5.29-3.8,1.08-.96,2.26-1.81,3.45-2.64,1.06-.74,2.2-1.21,3.43-.29,.49,.37,1,.2,1.43-.12,.49-.38,.96-.8,1.39-1.24,2.6-2.7,5.58-4.95,8.65-7.07,1.56-1.07,2.92-2.3,3.98-3.87h5.6ZM55.34,96.18c2.57-.14,4.34-.68,6.05-1.36,4.71-1.89,9.56-3.34,14.36-4.94,1.24-.41,2.54-.75,3.88-1.82-2.21-.42-4.11-.82-5.81-1.74-1.33-.72-2.47-.6-3.75,.2-3.59,2.24-7.26,4.37-10.88,6.57-1.22,.74-2.43,1.5-3.84,3.1ZM90.17,22.53c-5.05-.78-9.61-.48-14.14-.68-2.42-.11-4.22,.61-5.59,2.57-.35,.5-.86,.9-1.26,1.37-.25,.29-.6,.6-.04,1.12,6.76-1.44,13.77-2.07,21.02-4.38ZM31.94,194.25c-4.11-2.54-8.43-4.49-13.05-5.75-2.24-.61-4.49-.7-6.78-.49-.84,.08-1.63,.3-2.28,.87-.14,.12-.3,.39-.26,.52,.08,.26,.26,.62,.48,.68,.59,.17,1.22,.21,1.83,.29,2.46,.31,4.94,.45,7.4,.9,4.28,.78,8.45,1.96,12.66,2.98ZM7.3,72.95c1.93,1.04,2.75,2.32,3.4,3.74,.26,.56,.85,.62,1.32,.28,1.57-1.17,3.1-2.4,4.64-3.61,.73-.57,1.47-1.14,2.17-1.75,.45-.39,1.15-.77,.96-1.45-.21-.77-1.02-.57-1.59-.53-3.65,.24-7.04,1.36-10.9,3.32ZM127.06,4.47l-.31-.45c-1.87,1.07-3.66,2.3-5.62,3.16-2.94,1.3-3.67,4-4.62,6.6-.15,.41,.28,.87,.71,.78,2.35-.49,4.63-1.21,5.99-3.4,1.35-2.19,2.57-4.46,3.85-6.69ZM37.86,48.35c-.27,.1-.57,.16-.8,.31-3.95,2.66-7.57,5.76-11.23,8.79-.16,.13-.32,.29-.4,.47-.08,.17-.13,.42-.05,.56,.07,.14,.32,.29,.49,.28,2.19,0,4.52,.04,5.9-2,1.92-2.83,4.19-5.36,6.22-8.09,.03-.04-.06-.17-.12-.32Zm7.91,66.34c-.49-.15-.6,.2-.69,.48-1,3.24-.61,6.54-.42,9.82,.02,.32,.32,.58,.64,.53,1.32-.21,2.63-1.94,2.27-3.17-.55-1.89-.86-3.82-1.08-5.77-.07-.6-.35-1.17-.55-1.75-.03-.08-.15-.12-.18-.15Zm-23.78,8.07c-1.28,3.72-1.29,9.15,.06,12.14,.31-.47,.48-.87,.77-1.15,1-.97,1.22-2.03,.8-3.39-.36-1.17-.42-2.44-.62-3.66-.21-1.28-.29-2.6-1.02-3.93Zm37.71,2.08c-.6,.48-.34,1.12-.23,1.67,.33,1.61,.71,3.21,1.12,4.81,.29,1.12,.78,1.3,1.76,.69,.35-.21,.68-.46,1-.72,.46-.38,.53-.88,.2-1.36-1.17-1.68-2.37-3.35-3.56-5.01-.04-.06-.18-.05-.29-.07Zm-31.65-45.05l.43,.21c2.1-2.65,4.21-5.29,6.3-7.95,.3-.38,.77-.72,.59-1.31-.1-.35-1.09-.15-1.65,.36-.3,.28-.6,.57-.82,.91-1.63,2.59-3.24,5.18-4.86,7.78Zm24,57.85c-.11-.92-.56-1.63-1.26-2.09-.65-.42-1.17,.08-1.61,.51-.43,.43-.85,.9-1.17,1.42-.34,.56-.08,1.79,.47,2.28,.61,.54,1.16,.03,1.67-.27,.53-.31,1.03-.68,1.49-1.09,.21-.19,.29-.52,.41-.76Zm-8.91-45.89c.69-.3,1.17-.43,1.56-.69,1.89-1.25,3.76-2.53,5.61-3.83,.25-.17,.36-.57,.14-.82-.18-.2-.52-.34-.79-.35-.29-.01-.6,.11-.87,.25-1.95,1.02-4.39,3.33-5.65,5.44Zm19.39-11.74c-.38-.39-.7-.78-1.07-1.11-1.04-.9-1.55-.88-2.64,.03-.79,.66-1.01,2.17-.29,2.98,.63,.7,1.32,.03,1.94-.21,.56-.23,1.09-.54,1.58-.89,.21-.15,.3-.48,.48-.8ZM24.3,148.24c1.85-.84,3.18-2.24,4.4-3.73,.19-.23,.34-.52,.41-.81,.11-.41,.04-.83-.38-1.04-.32-.16-.61,.03-.79,.29-1.22,1.76-2.43,3.53-3.64,5.3ZM102.8,19.32c1.64-.25,2.75-1.28,3.08-2.92,.07-.36-.27-.52-.59-.43-1.46,.4-2.59,1.19-2.97,2.75-.08,.33,.09,.57,.48,.6ZM38.08,81.39c1.89-.37,2.77-.69,3.47-1.34,.46-.43,.33-.93,.02-1.39-.31-.46-.94-.51-1.32-.05-.71,.86-1.38,1.76-2.17,2.79Zm-31.54,13.71c.15,.18,.2,.29,.28,.33,.08,.04,.25,.05,.3,0,.98-1.07,1.69-2.29,1.9-3.75,.02-.12-.21-.35-.36-.4-.17-.06-.44-.03-.58,.08-1.29,.97-1.3,2.43-1.54,3.74ZM107.93,31.35c1.23-.84,2.4-1.81,3.27-3.25q-1.95,.21-3.27,3.25Zm-59.92,19.2c1.42-.26,2.25-.84,3.1-1.35,.48-.29,.67-.89,.35-.95-.28-.06-.63-.08-.88,.03-.95,.41-1.72,1.07-2.57,2.27Zm4.94,20.73c-.16,.11-.43,.2-.45,.33-.09,.88,.77,1.94,1.6,1.91,.25,0,.52-.29,.7-.51,.08-.11,.03-.42-.07-.56-.44-.61-1.06-.96-1.78-1.16Z"/><path class="cls-6" d="M-.6,586.83c.49-.34,.9-.76,1.02-1.36,.39-1.85,1.44-3.38,2.41-4.95,1.48-2.4,2.96-4.79,4.52-7.13,1.5-2.26,3.02-4.52,4.67-6.68,3.73-4.88,6.57-10.3,9.58-15.62,1.82-3.21,3.64-6.42,5.62-9.53,3.7-5.84,6.81-11.96,9.39-18.38,1.74-4.32,3.51-8.63,4.97-13.06,1.4-4.25,2.45-8.58,3.19-12.99,.25-1.53,.61-3.05,1.03-4.54,2.22-7.84,4.63-15.63,7.56-23.25,.91-2.37,2.16-4.56,3.41-6.75,2.59-4.56,5.39-8.97,8.61-13.13,3.62-4.68,7.14-9.45,10.55-14.28,3.95-5.6,6.14-11.78,6.17-18.76,.02-5.61,.21-11.26,1.77-16.73,1.15-4.01,2.3-8.02,3.58-12,1.95-6.06,3.06-12.22,2.88-18.6-.06-2.23,0-4.46,0-6.7-.02-6.41,.72-12.77,1.38-19.14,.28-2.7,.45-5.41,.81-8.1,.83-6.28,.67-12.59,.69-18.89,0-2.52-.04-5.04-.46-7.54-.18-1.04-.14-2.13-.12-3.19,.02-1.29,.48-2.48,1.14-3.57,.75-1.23,1.8-2.11,3.3-2.01,1.44,.09,2.19,1.19,2.66,2.4,.78,2.01,1,4.14,1.14,6.27,.06,.93,.09,1.87,.14,2.83,.91-.21,.88-.9,1.03-1.4,.76-2.51,1.43-5.04,2.19-7.55,.56-1.86,1.17-3.7,1.81-5.53,.42-1.21,1.09-2.27,2.03-3.16,1.99-1.89,4.2-1.63,5.55,.73,.53,.92,.92,1.93,1.27,2.93,.83,2.39,1.43,4.87,1.62,7.38,.53,7.31,.14,14.53-2.22,21.57-1.02,3.03-1.78,6.15-2.63,9.24-.12,.45-.09,.95-.11,1.42,0,.07,.1,.16,.18,.2,.08,.03,.23,.04,.27,0,.2-.21,.4-.42,.54-.67,1.26-2.21,2.12-4.57,2.71-7.04,.93-3.87,1.86-7.73,2.78-11.61,.7-2.93,1.58-5.81,2.73-8.59,1.45-3.52,2.39-7.18,3.2-10.88,.46-2.09,1-4.15,1.66-6.18,.53-1.66,.97-3.35,1.4-5.04,.9-3.49,2.09-6.87,3.89-10.01,1.78-3.1,4.41-5.38,7.27-7.43,.87-.62,1.77-1.19,2.67-1.77,4.64-2.97,7.81-7.2,10.19-12.06,.95-1.93,1.44-4,1.4-6.19-.06-4,.64-7.92,1.42-11.82,.19-.95,.4-1.91,.41-2.87,.04-4.08,.03-8.15-.01-12.23,0-.77-.14-1.55-.33-2.29-.46-1.79-1.05-3.54-1.46-5.33-.76-3.34-2.85-5.94-4.8-8.57-1.32-1.79-3.51-2.35-5.61-2.83-1.04-.24-2.1-.4-3.15-.55-5.85-.86-10.73-3.65-15.32-7.26-4.69-3.69-8.08-8.33-10.85-13.51-.32-.6-.59-1.22-.83-1.86-.24-.66-.21-1.34,.05-1.99,.51-1.32,2.14-1.72,3.06-.67,.57,.64,1.01,1.42,1.39,2.2,1.03,2.1,2.17,4.15,3.59,5.98,3.54,4.59,7.8,8.36,13.06,10.9,3.3,1.6,6.62,2.33,10.65,2.41,.22-.7-.31-1.08-.67-1.51-.81-.97-1.69-1.87-2.51-2.84-3.99-4.74-6.76-10.16-8.8-15.97-.71-2.01-1.27-4.08-1.83-6.14-.98-3.58-1.48-7.21-1.33-10.94,.34-8.53,.78-17.05,1.58-25.55,.41-4.33,1.01-8.68,.75-13.06-.07-1.19,.12-2.32,.78-3.34,.84-1.3,2.27-1.34,3.04-.02,.43,.75,.75,1.58,.99,2.41,.72,2.53,1.12,5.13,1.14,7.75,.07,6.6-.26,13.19-.88,19.76-.2,2.12-.15,4.26-.18,6.4,0,.25,.14,.6,.33,.72,.28,.18,.52-.09,.68-.33,1.63-2.64,3.26-5.28,4.88-7.93,1.8-2.94,2.78-6.21,3.44-9.54,.68-3.42,1.02-6.91,1.49-10.36,.25-1.82-.19-3.34-1.5-4.78-2.23-2.45-3.83-5.35-5.1-8.43-1.52-3.69-2.67-7.49-3.52-11.39-.18-.85-.26-1.72-.33-2.59-.04-.59,.13-1.15,.45-1.66,.52-.82,1.57-.95,2.24-.27,.49,.5,.78,1.11,.95,1.77,.27,1.03,.52,2.07,.77,3.11,.82,3.41,1.93,6.71,3.29,9.94,.11,.27,.18,.56,.33,.81,.84,1.34,1.11,3.08,2.75,3.84,.63-1.5,.2-3.04,.09-4.55-.08-1.17-.13-2.31,0-3.48,.13-1.15,.18-2.33,.14-3.49-.12-3.89,.67-7.73,.68-11.62,0-.37,.13-.77,.27-1.12,.3-.72,1.04-1.15,1.88-1.1,.84,.04,1.5,.4,1.81,1.23,.39,1.02,.29,2.1,.34,3.17,.31,6.2,.62,12.4,.9,18.6,.07,1.45,.14,2.92-.02,4.36-.33,2.81-.39,5.62-.38,8.43,0,6.86-1.28,13.51-3.33,20.02-.76,2.41-1.64,4.77-2.49,7.15-1.12,3.12-2.56,6.09-4.34,8.87-1.43,2.24-2.34,4.68-2.91,7.26-.66,2.96-.43,5.86,1.23,8.42,2.79,4.31,5.39,8.78,8.81,12.65,1.66,1.88,3.67,3.45,5.55,5.13,.55,.5,1.19,.27,1.29-.44,.24-1.63,.56-3.26,.64-4.9,.27-5.81,.51-11.63,.64-17.45,.12-5.04,.14-10.09,.08-15.14-.04-3.8,.49-7.55,.72-11.32,.16-2.51,.59-5.01,.98-7.5,.66-4.25,1.99-8.29,3.91-12.14,2.4-4.79,5.39-9.2,8.54-13.52,4.84-6.64,8.54-13.84,10.93-21.74,2.06-6.81,3.37-13.76,4.36-20.77,.45-3.15,.81-6.35,.72-9.57-.04-1.46-.07-2.91-.37-4.34-.25-1.14,.09-2.15,.97-2.89,1.56-1.32,3.19-2.55,5.12-3.29,1.96-.76,3.49,.11,3.83,2.23,.79,5.01,.84,10.04,.31,15.08-.2,1.92-.45,3.83-.68,5.73,.59,.18,.73-.26,.92-.54,.73-1.15,1.51-2.27,2.12-3.48,1.37-2.72,3.26-5.05,5.26-7.3,1.98-2.22,4.44-3.79,7.26-4.69,3.15-1.01,6.14-2.4,9.18-3.69,1.07-.45,2.16-.87,3.25-1.26,2.56-.91,5.12-1.81,7.69-2.69,.73-.25,1.48-.51,2.24-.61,1.07-.14,1.86,.43,2.24,1.46,.31,.82,.13,1.57-.56,2.07-.39,.28-.84,.49-1.26,.72-2.79,1.58-5.57,3.16-8.36,4.74-7.44,4.23-13.75,9.75-18.99,16.51-1.67,2.15-3.24,4.38-4.22,6.94-1.41,3.67-3.59,6.86-5.87,10.01-3.3,4.56-6.44,9.23-9.26,14.11-2.38,4.12-4.88,8.15-7.69,12.01-2.17,2.98-4.29,6.02-6.13,9.2-2.93,5.06-5.22,10.41-5.98,16.29-.84,6.47-.85,12.95-.18,19.45,.44,4.27,1.33,8.42,2.33,12.58,.52,2.17,.96,4.36,1.45,6.53,.26,1.13,.83,1.41,1.92,.86,2.51-1.28,5.03-2.53,7.49-3.9,3.72-2.07,6.42-4.96,7.25-9.32,.47-2.48,1.17-4.91,1.6-7.39,.54-3.07,1.87-5.69,3.98-7.95,.46-.5,.9-1.02,1.39-1.49,1.66-1.58,1.99-3.47,1.39-5.6-.18-.65-.29-1.33-.46-1.98-.54-2.07-.89-4.15-.99-6.31-.09-2.03-.46-4.05-.81-6.05-.31-1.79-.12-3.5,.56-5.14,1.35-3.25,3.12-6.16,5.86-8.54,5.58-4.84,10.7-10.15,15.2-16.03,.65-.85,1.23-1.76,2.16-2.34,.6-.38,1.23-.61,1.92-.26,.79,.41,1,1.13,.96,1.96-.04,.99-.45,1.87-.81,2.78-1.65,4.11-4.2,7.62-7.24,10.8-2.14,2.24-4.22,4.55-6.3,6.86-2.7,2.98-4.33,6.41-4.35,10.51,0,.39,0,.79-.11,1.16-.91,3.33,.29,6.32,1.48,9.3,.26,.66,.81,.82,1.41,.43,.57-.37,1.14-.75,1.64-1.21,3.01-2.72,6.62-4.36,10.36-5.78,5.74-2.19,11.76-3.32,17.74-4.55,3.04-.62,6.11-1.08,9.15-1.74,4.72-1.03,8.57-3.55,11.63-7.24,1.86-2.25,3.37-4.75,4.67-7.36,3.32-6.64,7.51-12.68,12.44-18.21,2.39-2.68,4.86-5.28,7.33-7.89,4.85-5.12,10.65-8.61,17.22-11.08,6.2-2.33,12.59-3.92,19-5.5,1.53-.38,3.07-.45,4.62-.4,.47,.02,.97,.12,1.4,.3,.94,.39,1.21,1.74,.45,2.43-.42,.38-.94,.7-1.48,.88-.73,.25-1.51,.37-2.28,.48-5.05,.7-9.8,2.26-14.31,4.65-5.32,2.81-10.61,5.69-15.41,9.35-6.07,4.64-11.19,10.17-15.21,16.69-.31,.5-.6,1-.94,1.47-2.7,3.73-4.53,7.9-6.08,12.21-.43,1.18-.92,2.36-1.55,3.44-1.28,2.17-2.62,4.31-4.03,6.41-2.59,3.85-6.1,6.46-10.6,7.7-2.9,.8-5.77,1.73-8.71,2.36-2.65,.56-5.36,.9-8.05,1.13-4.47,.38-8.86,1.12-13.1,2.58-4.81,1.66-8.82,4.42-11.7,8.7-.59,.88-1.26,1.73-2,2.5-3,3.13-4.63,6.97-5.41,11.1-1.01,5.31-2.56,10.35-5.66,14.83-.09,.14-.06,.36-.09,.54,.23,.27,.52,.23,.8,.15,2.44-.7,4.75-1.7,6.92-3.02,4.74-2.89,9.12-6.27,13.11-10.12,1.89-1.82,3.72-3.69,5.55-5.57,3.93-4.04,8.15-7.8,12.63-11.19,5.06-3.83,10.62-6.92,17.09-7.62,3.97-.43,7.85-1.28,11.75-2.05,2.66-.52,5.3-1.18,7.95-1.78,.76-.17,1.52-.35,2.28,0,.65,.3,1.17,.71,1.24,1.47,.07,.78-.38,1.31-1.03,1.6-.7,.32-1.45,.58-2.21,.72-2.79,.51-5.39,1.53-7.92,2.78-2.79,1.38-5.82,2.17-8.78,3.11-3.81,1.21-7.42,2.87-10.95,4.71-4.98,2.6-9.1,6.18-12.7,10.49-4.16,4.99-8.41,9.92-13.48,14.06-.97,.8-1.9,1.67-2.77,2.58-.56,.58-1.8,1.07-1.31,1.96,.4,.73,1.62,.38,2.45,.27,3.91-.49,7.55-1.83,10.84-3.98,2.51-1.65,4.95-3.42,7.34-5.24,3.41-2.6,7-4.89,10.94-6.6,1.42-.62,2.9-1.1,4.36-1.63,.36-.13,.74-.24,1.12-.31,1.21-.23,2.14,.17,2.45,1.01,.29,.79-.1,1.97-.97,2.54-.56,.37-1.2,.63-1.84,.83-5,1.52-9.33,4.26-13.5,7.32-2.42,1.78-4.84,3.58-7.34,5.24-3.76,2.49-7.83,4.25-12.35,4.88-1.65,.23-3.27,.31-4.92,0-.95-.18-1.93-.23-2.89-.3-.99-.08-1.92,.09-2.79,.61-2.75,1.66-5.63,3.04-8.6,4.26-.99,.41-1.15,.78-.9,1.83,.71,3.02,1.46,6.03,2.16,9.06,.19,.85,.38,1.72,.36,2.58-.02,1.36-1.38,2.38-2.65,1.91-1.82-.67-3.59-1.48-5.32-2.33-.91-.45-1.29-1.43-1.67-2.32-.85-1.99-2.16-3.68-3.54-5.31-.56-.66-1.21-1.26-1.88-1.81-.78-.64-1.45-.44-1.82,.5-.39,.99-.68,2.03-1.09,3.01-1.01,2.43-2.12,4.81-3.86,6.81-.76,.88-1.06,1.77-.81,2.93,1.51,7.04,1,14.09-.09,21.13-.07,.48-.15,.96-.16,1.45-.02,8.93-2.04,17.5-4.59,25.99-.24,.81-.7,1.6-.5,2.54,.81,.06,.82-.68,1.06-1.1,3.64-6.31,6.68-12.93,9.97-19.42,.94-1.85,2.18-3.43,3.66-4.85,1.15-1.1,2.45-1.88,4.02-2.22,.85-.18,1.69-.46,2.54-.63,2.52-.51,4.74-1.49,6.7-3.27,2.06-1.87,4.7-2.67,7.43-3.06,1.93-.27,3.84-.6,5.6-1.49,1.27-.65,7.5-5.48,8.48-6.55,2.47-2.68,3.47-5.93,2.86-9.41-.85-4.9,.04-9.24,2.93-13.23,.85-1.18,1.66-2.4,2.61-3.49,2.62-3.01,5.68-5.56,8.83-8,.38-.29,.82-.6,1.27-.69,1.36-.26,2.57-.82,3.75-1.51,.59-.34,1.25-.6,1.92-.14,.61,.42,.84,1.49,.56,2.4-.24,.81-.85,1.26-1.51,1.7-1.93,1.3-3.84,2.64-5.78,3.93-2.53,1.68-4.7,3.79-6.61,6.1-2.73,3.3-3.84,7.06-2.86,11.4,.85,3.78,1.41,7.63,2.13,11.44,.27,1.4-.04,2.7-.46,4-.12,.37-.28,.73-.38,1.1-.2,.73,.06,1.16,.76,1.24,1.16,.13,2.34,.14,3.47-.15,1.6-.41,3.17-.91,4.75-1.39,2.04-.63,2.93-2.1,2.99-4.16,.02-.58,0-1.16-.03-1.75-.12-2.9,.65-5.56,2.12-8.05,.54-.92,1.04-1.86,1.61-2.77,.99-1.6,1.62-3.29,1.55-5.22-.03-.87,.05-1.77,.6-2.5,.15-.2,.47-.33,.74-.37,.33-.05,.57,.25,.59,.52,.11,2.12,.84,4.21,.23,6.21,.62,.75,1.21,.43,1.72,.25,3.58-1.26,7.39-1.63,10.95-2.98,.64-.24,1.32-.33,2-.11,.59,.19,1.02,.55,1.18,1.17,.16,.63-.05,1.17-.52,1.56-.91,.77-2.05,1.07-3.13,1.5-.69,.27-1.81,.25-1.88,1.1-.09,1.06,1.08,1.18,1.85,1.49,1,.41,2.06,.56,3.13,.58,2.23,.04,4.46,.05,6.67-.4,.56-.11,1.15-.09,1.72-.08,.36,0,.59,.6,.41,.92-.41,.74-1.09,1.13-1.85,1.31-1.32,.3-2.66,.56-4.01,.7-1.15,.12-2.33,.07-3.49,.09-2.11,.04-4.02-.57-5.75-1.77-.32-.22-.64-.43-.97-.65-2.65-1.8-2.24-1.92-5.86-.63-.64,.23-1.27,.48-1.88,.78-2.61,1.29-4.28,4.33-3.83,7.22,.24,1.54,.42,3.07,.37,4.63-.03,1.04-.45,1.86-1.25,2.51-1.51,1.24-3.06,2.39-4.94,3.01-.55,.18-1.07,.44-1.6,.67-.07,.03-.16,.19-.13,.24,.07,.16,.18,.41,.3,.42,.76,.09,1.54,.21,2.3,.18,4.43-.15,8.66,.69,12.85,2.09,4.05,1.35,8.18,2.42,12.48,2.75,1.34,.11,2.71,.26,3.97,.84,.8,.37,1.17,.89,1.09,1.53-.1,.77-.6,1.18-1.28,1.43-1.04,.39-2.1,.27-3.17,.16-4.46-.47-8.79-1.49-13.07-2.79-2.04-.62-4.09-1.27-6.17-1.67-3.93-.76-7.87-.69-11.87-.21-3.79,.45-7.42,1.41-11.04,2.49-1.67,.5-3.39,.81-5.09,1.21-.29,.07-.63,.17-.61,.5,.02,.25,.19,.56,.39,.72,2.07,1.71,4.46,2.75,7.09,3.17,2.49,.4,5,.66,7.54,.59,2.23-.06,4.46,0,6.7,0,9.46-.03,18.49,1.93,27.13,5.75,.71,.31,1.42,.63,2.14,.93,3.44,1.43,6.99,2.28,10.76,2.16,4.36-.14,8.72,.08,13.08-.49,2.57-.34,4.87-1.17,7.1-2.4,5.23-2.86,9.88-6.51,14.24-10.54,3.35-3.09,6.9-5.97,9.99-9.35,.39-.42,.87-.78,1.36-1.09,.76-.48,1.62-.42,2.17,.06,.68,.59,.91,1.53,.6,2.39-.28,.75-.83,1.3-1.37,1.86-2.75,2.88-5.61,5.64-8.65,8.22-.81,.69-1.56,1.45-2.32,2.2-.1,.1-.12,.4-.05,.53,.07,.13,.32,.25,.47,.23,1.53-.22,3.06-.49,4.59-.71,.96-.14,1.92-.28,2.89-.31,6.69-.2,13.38-.38,20.07-.55,.97-.03,1.94-.05,2.91,.02,.57,.04,1.16,.16,1.68,.4,.93,.42,1.12,1.7,.44,2.48-.54,.61-1.23,.97-2,1.1-.76,.12-1.54,.17-2.32,.18-3.59,.05-7.18,.13-10.77,.09-4.18-.05-8.33,.39-12.5,.6-3.31,.16-6.15,1.68-8.88,3.37-3.05,1.89-6.07,3.84-9.12,5.74-1.22,.76-2.48,1.47-3.68,2.18,.1,.66,.55,.62,.9,.61,3.5-.07,6.98,.39,10.45,.72,4.25,.41,8.41,1.42,12.53,2.56,1.87,.52,3.73,1.06,5.61,1.55,1.06,.28,1.95,.75,2.69,1.61,.62,.73,1.44,1.29,2.12,1.97,.8,.8,.9,1.7,.37,2.65-.43,.76-1.15,1.14-1.95,.91-.65-.19-1.25-.51-1.87-.78-2.13-.95-4.22-1.97-6.38-2.83-5.64-2.24-11.51-3.43-17.6-3.48-2.62-.02-5.23-.08-7.84-.36-2.41-.26-4.85-.24-7.27-.25-2.53,0-5.03-.13-7.55-.4-5.4-.57-10.74-1.46-16.07-2.53-4.69-.94-9.24-2.11-13.69-3.81-4.08-1.56-8.33-1.66-12.63-1.07-2.59,.36-5.19,.73-7.8,.9-7.05,.45-13.95-.43-20.64-2.72-2.4-.82-4.84-1.37-7.36-1.68-4.37-.53-7.72,1.37-10.61,4.36-.52,.53-.75,1.34-1.11,2.02-.6,1.11-1.18,2.23-1.8,3.32-1.03,1.83-2.54,3.16-4.36,4.18-1.36,.76-2.69,1.55-4.04,2.32-1.63,.93-3,2.14-4.08,3.67-.96,1.34-1.92,2.68-2.89,4.02-3.78,5.2-8.1,9.91-13.02,14.07-1.93,1.63-3.7,3.43-5.39,5.31-1.23,1.37-2.42,2.79-3.73,4.07-2.16,2.12-3.94,4.54-5.76,6.94-1.18,1.55-1.56,3.26-1.29,5.2,.56,4.13,1.02,8.28,1.53,12.42,.08,.67,.18,1.35,.34,2.01,1.4,5.68,1.2,11.35-.07,17.01-.98,4.36-2.15,8.66-3.84,12.81-.99,2.44-2.17,4.77-3.7,6.91-3.56,4.97-7.13,9.93-10.71,14.89-1.53,2.13-3.12,4.21-4.59,6.38-1.76,2.58-3.03,5.41-4.03,8.37-.19,.55-.24,1.15-.47,1.68-2.12,4.75-2.11,9.81-2.12,14.85-.01,4.95-.06,9.9,.02,14.85,.05,3.33-.39,6.59-1.16,9.8-.65,2.73-1.45,5.44-2.26,8.13-.92,3.07-1.64,6.16-1.89,9.39-.28,3.67-.82,7.32-1.29,10.97-.67,5.14-2.42,9.98-4.14,14.83-.78,2.2-1.52,4.41-2.36,6.58-1.03,2.65-1.43,5.43-1.81,8.22-.17,1.21,.07,2.3,.77,3.31,2.97,4.33,5.47,8.94,8.05,13.49,1.15,2.04,2.54,3.88,4.13,5.61,2.83,3.06,5.57,6.21,8.36,9.31,5.55,6.16,12.31,10.63,19.71,14.23,.7,.34,1.42,.63,2.1,1.02,3.91,2.24,8.19,2.89,12.6,3.01,5.45,.15,10.85-.27,16.25-.96,7.34-.94,14.71-.95,22.09-.66,2.5,.1,5.01,.59,7.48,1.07,5.24,1.03,10.39,2.45,15.37,4.42,3.72,1.47,7.17,3.44,10.44,5.73,1.83,1.28,3.63,2.6,5.5,3.81,2.8,1.81,5.22,4.03,7.48,6.45,.2,.21,.43,.4,.6,.64,3.75,5.02,9.07,5.49,14.66,4.96,2.41-.23,4.74-.95,7.01-1.85,3.88-1.53,7.79-3,11.73-4.35,4.61-1.58,9.34-2.6,14.27-2.38,1.06,.05,2.13-.12,3.18-.26,2.52-.33,5.05-.4,7.55-.09,2.33,.29,4.64,.42,6.97,.35,5.33-.17,10.13,1.2,14.48,4.37,1.87,1.36,4.01,2.35,6.04,3.5,3.97,2.25,7.94,4.48,11.91,6.73,.42,.24,.82,.51,1.26,.73,2.43,1.22,4.92,1.67,7.58,.67,2.46-.93,5.06-1.31,7.66-1.67,2.57-.35,5.07-.07,7.4,1.02,4.96,2.31,9.57,5.15,13.12,9.45,1.55,1.88,2.83,3.94,3.96,6.09,.41,.77,.71,1.59,.75,2.48H-.6c0-2.91,0-5.82,0-8.74Z"/><g><path class="cls-6" d="M331.86-.52c-1.4,1.76-3.4,2.7-5.24,3.85-.87,.55-1.79,1.02-2.62,1.49-.07,.86,.57,.9,.98,1.14,.72,.41,1.51,.71,2.17,1.2,1.52,1.12,1.51,2.43,.04,3.55-.92,.7-1.95,1.2-3.06,1.51-2.4,.67-4.81,1.28-7.2,1.98-.95,.28-2.03,.28-2.86,.97,.46,.74,1.12,.79,1.7,1,1.36,.51,2.75,.95,4.08,1.53,.85,.37,1.69,.84,2.39,1.43,1.74,1.45,1.8,3.28,.17,4.83-.67,.64-1.47,1.15-2.27,1.62-.71,.42-1.49,.7-2.26,1.06-.21,1,.74,1.39,1.06,2.1,.53,1.19,.43,2.19-.46,3.15-.65,.71-1.44,1.22-2.38,1.38-1.22,.21-2.46,.35-3.69,.51-.7,.09-1.46-.15-2.05,.38-.27,.47,.05,.8,.17,1.18,.56,1.79,.21,2.73-1.36,3.6-1.2,.67-2.54,.91-3.88,1.06-1.76,.2-3.51,.14-5.27-.23-1.94-.41-3.91-.56-5.88-.2-.77,.14-1.06,.76-.63,1.36,.42,.59,.94,1.12,1.32,1.73,1.14,1.85,.57,3.21-1.62,3.6-1.52,.27-3.07,.43-4.65,.29-2.19-.19-4.31-.7-6.39-1.36-3.47-1.1-6.99-.73-10.51-.6-.4,.01-.81,.18-1.2,.32-.52,.18-.98,.54-.9,1.11,.23,1.65-.58,3.02-1.21,4.4,.76,.61,1.27,.01,1.75-.23,2.5-1.28,5.1-2.34,7.77-3.18,.79-.25,1.59-.48,2.41-.63,.76-.14,1.44,.09,1.89,.78,.38,.58,.31,1.35-.33,1.98-.74,.72-1.59,1.33-2.37,2.01-.66,.57-1.53,1-1.83,2.33,1.21-.44,2.16-.76,3.1-1.12,3.59-1.36,7.11-2.95,10.97-3.44,.72-.09,1.44-.21,2.16-.24,.86-.03,1.63,.28,2.3,.81,1.22,.97,1.4,2.33,.38,3.54-.58,.69-1.28,1.29-1.93,1.93,.55,.59,1.04,.29,1.51,.16,3.01-.8,6.04-1.51,9.13-1.92,1.45-.19,2.9-.32,4.34-.06,1.54,.27,2.08,1.56,1.09,2.74-.73,.87-1.61,1.62-2.47,2.36-.7,.6-1.48,1.11-2.17,1.62-.05,.91,.8,.96,1.11,1.47,.5,.83,.48,1.65-.26,2.21-.65,.5-1.39,.9-2.13,1.28-.74,.37-1.53,.64-2.29,.99-.55,.25-.58,.84-.06,1.24,.57,.45,1.2,.83,1.75,1.3,1.17,.99,1.79,2.29,1.91,3.79,.13,1.52-.76,2.61-2.26,2.84-1.03,.16-2.08,.1-3.09-.15-1.91-.48-3.86-.84-5.67-1.66-2.4-1.08-5.02-1.26-7.56-1.75-.74-.14-1.18,.31-1.11,1.08,.08,.93,.22,1.86,.36,2.78,.23,1.55,.38,3.1,.19,4.65-.19,1.51-.73,2.83-2.43,3.26-1.74,.44-3.36-.09-4.42-1.52-.69-.93-1.02-2.03-1.45-3.09-.38-.93-.21-2.08-1.12-2.8-1.37,.34-1.32,1.71-1.85,2.64-.5,.9-.79,1.92-1.24,2.85-.31,.65-.68,1.3-1.13,1.85-.96,1.18-2.3,1.53-3.63,1.07-1.32-.46-2.09-1.56-2.09-3.13,0-.72,.15-1.44,.27-2.16,.15-.92,.41-1.82,.13-2.77-.75-.09-.76,.55-.92,.96-.94,2.33-2.22,4.46-3.7,6.47-.43,.58-.88,1.16-1.37,1.69-.7,.76-1.47,1.01-1.88,.66-.57-.49-.32-1.12-.34-1.73-.07-2.38-.2-4.76-.33-7.13,0-.17-.15-.41-.3-.49-.32-.18-.59,0-.8,.26-1.14,1.37-2.55,2.44-3.93,3.54-1.24,.99-2.66,1.62-4.23,1.87-1.66,.26-2.84-.61-3.15-2.26-.24-1.3,.19-2.46,.71-3.6,.9-1.98,1.8-3.96,2.7-5.94-.73-.59-1.02,.08-1.31,.37-1.86,1.85-3.99,3.31-6.24,4.62-1.36,.79-2.81,1.34-4.41,1.4-.65,.02-1.24-.17-1.55-.82-.25-.52-.11-1.04,.2-1.47,1.02-1.44,2.1-2.84,3.09-4.3,1.4-2.06,2.75-4.15,4.1-6.24,.34-.52,.61-1.09,.85-1.66,1.03-2.42,.68-3.6-1.56-4.95-.97-.59-2.03-1.05-3.05-1.56-1.55-.79-3.16-.89-4.84-.48-3.23,.8-6.42,1.71-9.55,2.84-1.98,.71-3.68,1.91-5.45,2.99-.8,.48-1.56,1.03-2.5,1.22-1,.21-1.79-.67-1.53-1.73,.25-1.04,.82-1.92,1.47-2.72,1.79-2.17,3.31-4.52,4.82-6.88,.95-1.5,1.81-3.02,2.26-4.76,.15-.6,.36-1.2,.62-1.76,1-2.13,2.49-3.57,5.03-3.46,.3,.01,.6-.04,.92-.17-2.59-.2-5.19-.34-7.76-.73-2.06-.31-4.13-.55-6.09-1.23-1.34-.46-2.62-.52-3.95-.09-.39,.13-.88,.12-1.02,.57-.15,.48,.28,.71,.61,.94,.51,.36,1.05,.68,1.52,1.08,.63,.54,1.26,1.09,1.8,1.71,1.08,1.24,.75,2.27-.84,2.79-.1,.03-.2,.09-.3,.09-3.71,.32-7.38,1.26-11.15,.63-1.12-.19-2.26-.31-3.4-.4-1.57-.12-3.1,.08-4.59,.66-2.22,.86-4.5,1.59-6.6,2.78-.54,.3-1.12,.56-1.71,.75-1.21,.38-1.99,.09-2.66-.97-.78-1.24-1.32-2.58-1.7-4-1.63-6.04-2.71-12.12-2.62-18.43,.08-6.03,.31-12.03,1.25-18,.5-3.18,.8-6.38,.81-9.61h4.36c1.7,2.1,1.99,4.7,2.58,7.19,.14,.6,.2,1.23,.38,1.81,.15,.48,.02,1.11,.63,1.54,.48-3.62,.94-7.08,1.4-10.54,10.39,0,20.78,0,31.17,0,.09,.63-.11,1.19-.33,1.78-.56,1.47-.53,1.48,.57,2.25,1.26,.88,2.52,1.77,3.79,2.63,.32,.21,.68,.54,1.16-.13-1.12-1.97-2.2-4.07-2.07-6.53h28.06c.22,1.62-.46,3.05-.9,4.53-.28,.96-.99,1.82-.78,3.1,1.26-.04,2.49-.32,3.7,.04,2.06,.61,2.65,1.96,1.54,3.77-.72,1.17-1.75,2.04-2.76,2.94-1.31,1.18-2.63,2.35-3.93,3.54-.28,.26-.62,.58-.15,1.08,1.17-.21,2.38-.44,3.59-.64,1.05-.17,2.07,.01,3.03,.48,1.02,.5,1.31,1.66,.73,2.65-.49,.83-1.24,1.39-2,1.93-1,.71-2.01,1.41-2.95,2.07,.14,.69,.63,.64,.97,.79,2.35,1.06,2.75,2.05,1.79,4.37-.66,1.6-1.81,2.76-3.18,3.74-.35,.25-.63,.61-.27,1.03,.28,.33,.71,.42,1.14,.33,.54-.11,.97-.44,1.22-.89,1.36-2.44,2.94-4.8,3.44-7.62,.31-1.71,.85-3.21,2.47-4.1,.61-.33,.84-.88,.8-1.56-.05-.83-.07-1.66-.12-2.49-.42-6.48,.3-12.85,1.96-19.12h21.2c0,.77-.86,1.72-.15,2.23,.91,.66,1.53-.51,2.23-.96,.59-.37,1.11-.85,1.66-1.28,14.13,0,28.26,0,42.4,0Zm-127.02,29.99c.9,.79,1.64,.85,2.34,.93,2.99,.33,5.54,1.62,7.85,3.45,.41,.32,.79,.68,1.22,.96,.25,.16,.57,.26,.87,.29,.68,.06,3.39-.84,4.79-1.62-1.08-.06-1.88-.11-2.68-.14-1.54-.06-2.43-.77-2.84-2.33-.68-2.56-1.53-3.15-4.14-3.29-2.54-.14-4.88,.57-7.42,1.76Zm69.17,9.03c1.22,.16,1.88-.15,2.26-1.05,.36-.85,.82-1.65,1.22-2.49,.49-1.02,.34-1.3-.69-1.98-1.22-.8-2.37-1.06-3.68-.12-.74,.53-1.64,.84-2.46,1.25-1.33,.67-1.46,1.01-1.08,2.42,.2,.76,.56,1.31,1.39,1.44,1.11,.18,2.23,.37,3.04,.51Zm17.11-11.43c.02-1.43-.32-1.94-1.47-2.32-2.06-.67-4.13-1.31-6.2-1.93-.59-.18-1.21-.27-1.82-.37-.3-.05-.64-.01-.65,.39,0,.15,.2,.38,.36,.44,3.14,1.21,5.8,3.11,8.04,5.6,.07,.08,.16,.13,.24,.19,.44,.33,1.04,.12,1.19-.46,.15-.6,.25-1.21,.31-1.54Zm-42.12,23.33c1.56,.07,2.47,.15,3.38,.15,1.66,0,2.76-.4,2.34-.76-.68-.6-1.55-.45-2.34-.43-.98,.02-2.02-.07-3.38,1.04Zm-2.56-12.35c.36-.04,.53-.27,.5-.59-.02-.23-.24-.33-.45-.21-.16,.09-.33,.26-.36,.41-.02,.11,.2,.26,.31,.39Z"/><path class="cls-6" d="M266.38,182.78c.89,.35,1.65,.85,2.05,1.79,.24,.56,.48,1.16,1.12,1.46,.67-.28,.42-.88,.41-1.34-.05-2.3,.19-4.56,.62-6.81,.12-.61,.23-1.23,.46-1.8,.43-1.04,1.57-1.41,2.61-.92,.68,.32,1.21,.81,1.6,1.44,.65,1.06,1.24,2.16,1.87,3.23,.3,.51,.33,1.22,1.2,1.44,.7-.74,.83-1.79,1.18-2.74,1.25-3.35,2.95-6.41,5.65-8.84,.6-.54,1.2-1.42,2.1-1,1.01,.47,.88,1.54,.73,2.48-.22,1.41-.46,2.82-.71,4.34,1.03-.41,1.29-1.26,1.77-1.91,1.61-2.17,3.16-4.38,4.78-6.54,.56-.74,1.22-1.41,1.89-2.05,.38-.36,.92-.49,1.44-.22,.55,.28,.68,.83,.55,1.33-.45,1.81-.95,3.61-1.47,5.4-.2,.68-.51,1.33-.49,2.21,.61-.61,1.19-1.24,1.83-1.83,.61-.56,1.28-1.06,1.9-1.61,.7-.62,1.39-1.25,2.07-1.9,2.21-2.09,4.75-3.69,7.4-5.13,.63-.34,1.34-.58,2.04-.72,1.02-.2,1.82,.75,1.51,1.77-.18,.59-.46,1.16-.78,1.68-1.54,2.46-3.12,4.9-4.9,7.21-1.43,1.85-2.72,3.81-3.82,5.99,2.08-1.31,4.17-2.6,6.25-3.92,1.76-1.12,3.57-2.13,5.48-2.96,.57-.25,1.16-.46,1.76-.62,1.38-.38,2.2,.17,2.35,1.63,.23,2.16-.29,4.15-1.72,5.8-1.22,1.41-2.53,2.77-4.13,3.77-1.68,1.06-3.13,2.38-4.56,3.76-1.12,1.08-2.33,2.06-3.5,3.09-.62,.55-1.28,1.07-1.82,1.69-.91,1.05-1.18,2.3-.63,2.46,1,.29,1.46-.59,2.05-1.11,2.58-2.27,5.3-4.34,8.24-6.12,.89-.54,1.78-1.07,2.83-1.25,.62-.1,1.25,.4,1.32,1.02,.1,.86-.19,1.64-.51,2.41-.66,1.57-1.79,2.77-2.99,3.94-1.11,1.09-2.22,2.2-2.77,3.71-.17,.48,.1,.88,.55,.91,.71,.05,1.46,.01,2.15-.14,3.74-.81,7.57-1.28,11.08-2.99,1.12-.55,2.37-.78,3.64-.56,.52,.09,.96,.38,1.15,.93,.19,.56,0,1.04-.38,1.42-.44,.43-.94,.82-1.44,1.18-3.04,2.17-6.13,4.25-9.55,5.69-.1,.82,.53,.86,.96,1.04,1.34,.56,2.7,1.07,4.05,1.61,.67,.27,1.36,.52,2.01,.84,1.13,.56,1.24,1.49,.24,2.13-1.68,1.08-3.46,1.86-5.54,1.8-1.46-.04-2.89-.15-4.31-.54-1.58-.44-3.2-.77-4.8-1.15-.28,.81,.29,1.05,.63,1.33,1.85,1.52,3.72,3.02,4.67,5.33,.26,.63,.85,.87,1.35,1.23,.99,.71,1.17,1.68,.75,2.76-.42,1.06-.93,2.08-1.36,3.14-.1,.26-.15,.66-.02,.86,.27,.42,.73,.29,1.11,.12,.85-.39,1.67-.85,2.53-1.22,1.14-.49,2.3-.97,3.47-1.37,.47-.16,1.02-.16,1.53-.15,.79,.03,1.25,.94,.79,1.61-.4,.59-.89,1.14-1.39,1.66-.64,.68-1.35,1.29-2,1.97-.78,.82-2.16,1.26-2.37,2.38-.26,1.37,1.43,1.55,2.12,2.39,1.25,1.52,1.17,2.81-.56,3.87-2.16,1.32-4.61,1.87-7.03,2.44-.71,.17-1.43,.24-2.15,.38-1.44,.28-1.48,.28-1.59,1.87-.06,.81-.41,1.38-1.03,1.81-.78,.53-1.69,.77-2.6,1.01-1.7,.45-1.7,.48-1.72,2.36,0,.19,.11,.38,.19,.64,.96,.15,1.76-.39,2.6-.72,.77-.31,1.51-.7,2.25-1.06,.65-.31,1.27-.79,2.03-.34,.53,.31,.53,1.24,.04,2.29-.74,1.59-2.07,2.55-3.51,3.42-1.04,.63-1.01,.67-.39,1.9,.67,1.33,.52,2.06-.6,2.94-.84,.66-1.81,1.01-2.85,1.17-2.26,.34-4.51,.67-6.78,.94-1.17,.14-1.97,.45-1.96,1.85,0,1.1-.69,1.93-1.44,2.67-1.53,1.53-2.79,1.8-4.8,.95-.67-.28-1.27-.7-1.92-1.04-.64-.34-1.28-.69-1.95-.96-.38-.16-.87-.25-1.13,.16-.12,.19-.03,.59,.08,.85,.21,.47,.53,.9,.74,1.37,.17,.37,.31,.78,.37,1.18,.24,1.47-.59,2.69-2.07,2.98-1.14,.23-2.3,.18-3.39-.2-5.38-1.9-10.82-3.66-16.11-5.8-5.14-2.08-8.21-6.04-9.66-11.45-.92-3.42-1.13-6.73-.25-10.13,.35-1.34,.93-2.53,2.02-3.42,.97-.79,2.09-.67,2.59,.47,.8,1.83,1.79,3.51,3.09,5.01,1.01,1.17,1.61,1.24,2.94,.32,1.11-.77,2.18-1.63,2.8-2.87,.64-1.28,1.63-2.13,2.95-2.62,1.43-.54,2.43-1.52,3.16-2.86,1.93-3.57,4.97-6.1,8.15-8.44,2.68-1.97,4.22-1.23,4.9,2.16,.06,.29,.18,.56,.33,1,1.39-.6,1.9-1.96,2.87-2.83,.99-.89,1.91-1.85,2.86-2.77-2.22-2.33-3.77-3.35-6.47-4.31-.62,.62-.11,1.37-.24,2.05-.25,1.28-1.12,2.02-2.43,1.83-.7-.1-1.42-.34-2.06-.65-1.77-.87-3.55-1.74-5.25-2.73-1.81-1.05-3.71-1.86-5.63-2.64-1.16-.48-2.37-.71-3.62-.86-2.24-.27-2.67-.81-2.65-2.96,0-.21,.05-.41,.07-.62,.1-.81-.21-1.43-.95-1.78-.95-.45-1.81-1.02-2.46-1.86-.98-1.28-.66-2.23,.93-2.73,.3-.09,.62-.1,.91-.21,.34-.13,.46-.47,.28-.75-.39-.61-.9-1.14-1.29-1.75-1.11-1.76-2.21-3.54-2.25-5.72-.01-.72,.06-1.45,.22-2.15,.2-.92,1.26-1.23,1.95-.6,.45,.42,.8,.95,1.24,1.39,.12,.12,.4,.17,.56,.12,.14-.05,.31-.3,.31-.45-.02-.51-.1-1.03-.19-1.54-.61-3.41-.11-6.61,1.68-9.59,0,0-.03,.04-.03,.04Zm34.59,63.76c-2.5-.1-4.36-.09-6.19-.48-.29-.06-.62-.02-.92,.04-.31,.06-.59,.24-.61,.6-.01,.34,.22,.6,.53,.63,2.26,.22,4.52,.28,7.18-.79Zm10.4-27.87c.05,.38,.04,.7,.14,.98,.13,.36,.5,.44,.74,.21,.5-.5,.97-1.04,1.37-1.63,.25-.37,.14-.78-.26-1.05-.57-.38-1.49-.35-1.65,.09-.17,.47-.25,.98-.35,1.4Zm-30.92,23.21c-.61-.11-1.39,.56-1.4,1.24,0,.15,.18,.41,.32,.45,.61,.18,1.19,.16,1.58-.46,.25-.41-.05-1.15-.49-1.23Zm21.99-21.56c-.03,.26,.2,.59,.49,.68,.41,.12,.9-.25,.82-.64-.07-.34-.33-.5-.65-.52-.33-.02-.58,.11-.66,.49Z"/><path class="cls-6" d="M344.75,224.14c.83-1.34,.98-2.9,1.26-4.4,.34-1.84,.54-3.7,.83-5.54,.21-1.34,.46-2.66,1.32-3.78,1.11-1.46,2.53-1.47,3.58,0,.74,1.04,1.07,2.24,1.34,3.46,.28,1.21,.47,2.45,.78,3.65,.21,.8,.5,1.59,.86,2.33,.56,1.14,1.5,1.21,2.07,.12,.87-1.65,1.63-3.36,2.42-5.05,.62-1.31,1.2-2.65,1.85-3.94,.38-.74,.92-1.38,1.62-1.87,.76-.53,1.68-.47,2.24,.24,1.4,1.78,2.26,3.7,1.67,6.06-.31,1.25-.74,2.51-.75,3.85,.87,0,1.09-.52,1.41-.9,2.58-3.14,5.51-5.93,8.46-8.71,.83-.79,1.72-1.51,2.84-1.87,1.35-.43,2.62,.55,2.4,1.95-.14,.91-.5,1.8-.87,2.64-.59,1.33-1.3,2.6-1.93,3.91-.17,.34-.49,.7-.16,1.13,.5,.07,.74-.32,1.01-.59,1.68-1.69,3.43-3.32,4.89-5.23,1.32-1.73,2.6-3.51,4.21-5,.92-.85,1.86-1.66,2.99-2.23,1.44-.72,2.73-.05,3,1.52,.15,.86-.09,1.65-.34,2.44-.6,1.9-1.59,3.6-2.59,5.31-.71,1.22-1.58,2.36-2.08,3.74,.99,.32,1.53-.29,2.11-.64,4.63-2.78,9.22-5.61,13.84-8.41,.89-.54,1.8-1.03,2.74-1.48,.68-.33,1.39-.46,2.02,.16,.56,.56,.62,1.32,.02,2.28-1.44,2.29-3.1,4.42-5.03,6.33-.72,.71-1.43,1.44-2.17,2.18,.79,.49,1.34,.02,1.9-.16,2.28-.72,4.54-1.48,6.81-2.24,.99-.33,2-.57,3.05-.51,.75,.04,1.47,.25,1.8,1.02,.34,.79-.06,1.41-.61,1.94-1.14,1.09-2.47,1.89-3.85,2.63-1.84,.99-3.82,1.66-5.83,2.16-4.34,1.08-8.49,2.77-12.76,4.05-.18,.05-.31,.25-.45,.37-.11,.36,.13,.55,.33,.78,1.32,1.51,1.23,2.43-.39,3.42-1.53,.94-3.26,1.3-5,1.67-.79,.17-.94,.67-.46,1.38,.17,.26,.4,.48,.6,.72,1.59,1.94,.36,3.97-2.05,4.02-1.98,.04-3.93-.03-5.86-.6-1.82-.53-3.43-1.45-5.12-2.25-.22-.1-.69-.03-.82,.14-.58,.72,.12,2.64,1.06,2.84,.8,.17,1.65,.14,2.47,.2,1.98,.14,3.7,.67,4.24,2.91,.15,.61,.6,.84,1.16,.81,.83-.05,1.66-.11,2.47-.26,2.06-.36,4.13-.36,6.21-.31,1.06,.03,2.06,.26,2.96,.84,.54,.34,.6,1.26,.05,1.58-.98,.58-2,1.1-3.01,1.63-1.48,.77-2.94,1.57-4.11,2.77-.19,.2-.35,.53-.34,.8,0,.37,.39,.45,.7,.47,.83,.04,1.66,.08,2.49,.06,3.89-.12,7.62,.86,11.36,1.72,1.23,.29,2.35,.84,3.29,1.7,.37,.35,.69,.78,.94,1.22,.47,.82,.12,1.7-.83,1.95-2.31,.6-4.64,1.13-6.95,1.69-.4,.1-.81,.18-1.2,.31-.68,.24-.93,.86-.53,1.5,.9,1.41,1.69,2.85,2.07,4.5,.31,1.35,.33,2.67-.11,3.99-.65,1.94-1.94,2.4-3.54,1.17-1.32-1.01-2.53-2.16-3.81-3.22-.54-.45-.92-1.15-1.74-1.21-.51,.43-.22,.94-.13,1.41,.47,2.68-.09,5.17-1.39,7.5-.7,1.27-1.48,2.5-2.26,3.73-.33,.53-.7,1.03-1.11,1.5-.56,.64-1.23,1.22-2.16,.87-.76-.29-.98-1.03-1.05-1.78-.06-.62-.08-1.24-.09-1.87-.02-1.14-.06-2.29-.02-3.43,.16-4.11-1.15-7.54-4.55-10.03-.24-.18-.5-.34-.74-.51-.76,.25-.49,.85-.47,1.3,.2,4.42-1.78,8.03-4.22,11.46-.24,.33-.56,.6-.89,.86-.52,.41-1.34,.28-1.61-.31-.26-.55-.47-1.15-.58-1.75-.42-2.36-1.14-4.64-1.99-6.87-.33-.87-.67-1.78-1.23-2.5-.65-.85-1.07-2.44-2.32-2.15-.92,.22-.84,1.75-1.11,2.72-.61,2.21-1.34,4.37-2.4,6.41-.43,.82-.89,1.65-1.78,2.1-.44,.22-1.12-.03-1.3-.49-.32-.81-.24-1.65-.16-2.46,.38-3.89-1.08-7.34-2.47-10.82-.09-.23-.46-.52-.66-.49-.22,.03-.47,.36-.59,.61-.67,1.47-.6,3.03-.59,4.59,0,.82,.23,1.65-.11,2.46-.15,.35-.73,.52-1.06,.31-.55-.36-.89-.89-1.12-1.46-1.27-3.2-2.94-6.17-4.86-9.03-1.52-2.25-1.05-4.42,.91-6.48,1.51-1.58,3.48-2.38,5.57-2.5,2.28-.13,3.82-1.15,5.26-2.82,2.1-2.43,4.42-4.67,6.64-7.01,.35-.37,.71-.77,.96-1.21,.13-.23,.17-.68,.03-.87-.77-1.06-1.47-2.22-2.82-2.7-.16,.32-.32,.49-.33,.67-.19,2.87-.41,2.97-3.16,3.6-2.75,.62-5.37-.22-8.04-.33-.21,0-.41-.06-.61-.12-3.7-.98-6.73,0-9.04,3.09,.22,.61,.64,.31,.96,.16,.65-.31,1.32-.63,1.91-1.05,1.98-1.39,4.2-1.68,6.53-1.61,2.31,.06,4.12,1.3,5.92,2.53,.81,.55,.85,1.64,.3,2.53-.85,1.36-2.17,1.92-3.68,1.98-.92,.03-1.85-.18-2.77-.3-.69-.09-1.12,.04-1.42,.8-.93,2.33-1.94,2.87-4.25,2.43-1.02-.2-2.02-.48-2.89-1.1-1.57-1.11-3.28-1.67-5.23-1.77-1.22-.06-2.45-.43-3.63-.83-1.38-.46-1.73-1.3-1.31-2.65,.25-.79,.54-1.57,.71-2.37,.31-1.46,.88-2.79,1.87-3.89,3.33-3.71,4.81-8.18,5.45-13.01,.2-1.54,.43-3.09,.7-4.62,.17-.96,.67-1.73,1.58-2.18,.8-.4,1.77-.22,2.18,.55,.34,.63,.59,1.33,.74,2.02,.29,1.32,.47,2.66,.71,3.98,.09,.49,.09,1.06,.85,1.31Z"/><path class="cls-6" d="M293.3,287.96c1.24,.06,2.49,.08,3.72,.2,1.13,.11,2.27,.26,3.37,.53,1.37,.33,2.4,1.18,3.08,2.44,.83,1.56,.2,2.97-1.53,3.26-.81,.14-1.66,.1-2.48,.17-.51,.04-1.05,.04-1.4,.54,.08,.64,.67,.7,1.1,.87,1.57,.63,2.85,1.7,4.13,2.76,1.28,1.07,1.13,2.05-.35,2.91-.82,.47-1.71,.71-2.64,.9-1.8,.37-1.83,.46-1.23,2.28,.36,1.08,.79,2.15,1.11,3.24,.14,.48,.15,1.02,.14,1.53,0,.47-.66,.91-1.13,.86-.75-.08-1.35-.49-1.97-.87-1.32-.82-2.65-1.64-3.97-2.46-1.08-.67-2.27-1.02-3.51-1.2-.65-.09-1.24,.37-1.32,1.03-.21,1.56-.05,3.11,.26,4.64,.22,1.13,.39,2.25,.07,3.39-.38,1.31-1.51,1.77-2.67,1.03-1.33-.85-2.35-2.03-3.29-3.29-1.06-1.41-2.07-2.86-3.13-4.27-.39-.52-.91-.53-1.31-.05-.33,.4-.57,.88-.92,1.26-1.26,1.37-2.68,1.05-3.31-.74-.39-1.11-.4-2.25-.28-3.39,.07-.72,.29-1.42,.4-2.14,.07-.47,.34-1.13-.37-1.29-.56-.12-.95,.39-1.19,.84-.48,.92-.86,1.89-1.3,2.82-.35,.75-.67,1.52-1.13,2.2-.5,.75-1.66,.62-2.06-.2-.27-.55-.44-1.16-.58-1.76-.15-.63-.38-1.16-.96-1.53-1.18-.74-1.48-1.96-1.58-3.23-.15-1.98,.05-3.94,.61-5.86,.37-1.27,.68-2.56,1.03-3.88-.4,0-.67-.08-.77,.01-2.2,2.09-5.1,3.19-7.3,5.26-.45,.43-.88,.88-1.36,1.27-.53,.43-1.26,.19-1.51-.48-.81-2.14-.89-4.26,.3-6.3,1.05-1.79,2.14-3.56,3.21-5.34,.54-.89,1.1-1.76,1.21-2.83,.05-.52-.53-.99-1.03-.85-.82,.24-1.48,.74-2.12,1.27-.48,.4-.92,.84-1.43,1.2-.34,.24-.76,.33-1.17,.08-.39-.24-.56-.62-.53-1.05,.1-1.48,.61-2.84,1.29-4.13,.43-.82,.88-1.68,1.51-2.35,1.12-1.19,1.51-2.36,.72-3.91-.38-.75-.16-1.64,.1-2.44,.19-.59,.43-1.17,.61-1.77,.4-1.36,.3-1.79-.91-2.65-1.61-1.14-3.28-2.19-4.93-3.27-.43-.28-.91-.51-1.29-.85-.19-.17-.27-.54-.25-.81,.03-.34,.36-.51,.68-.5,.41,.01,.84,.04,1.22,.17,1.3,.45,2.64,.51,4,.5,1.04-.01,2.06,.1,3.08,.38,1.67,.47,3.02,1.34,3.94,2.84,.33,.53,.68,1.04,1.02,1.56,.75,1.16,1.74,2.02,3.01,2.61,1.88,.88,3.71,1.85,5.56,2.78,.37,.19,.74,.39,1.08,.63,1.06,.74,1.01,1.85-.13,2.47-.45,.25-.95,.4-1.44,.59-.37,.15-.84,.04-1.11,.44,.06,.08,.11,.22,.18,.24,3.24,.74,6.5,1.41,9.84,.83,1.13-.2,2.27-.42,3.4-.23,2.33,.39,4.5,1.07,5.14,3.78,.17,.72,.64,1.01,1.34,1.02,1.15,.02,2.28,.11,3.38,.49,.49,.17,1.01,.28,1.48,.49,1.49,.66,1.67,1.93,.39,2.86-.5,.36-1.07,.64-1.62,.92-.74,.36-1.5,.69-2.25,1.03,.01,.16,.02,.32,.04,.48Z"/><path class="cls-6" d="M226.47,112.94c-.3,1.19,.22,1.92,.42,2.69,.28,1.12,.45,2.24,.31,3.39-.31,2.51-2.22,4.1-4.75,3.89-.82-.07-1.63-.31-2.42-.56-1.68-.53-3.35-1.11-5.01-1.7-1.48-.52-2.98-.87-4.57-.8-1.6,.07-3.07-.39-4.43-1.24-1.61-1.01-2.52-2.25-2.22-4.35,.39-2.76-.01-5.61,.66-8.36,.2-.8,.37-1.62,.68-2.38,.4-.99,.91-1.27,2.23-.94,.82,.2,1.18-.08,1.47-.69,1.08-2.26,2.42-4.35,4.01-6.29,.74-.9,1.54-1.71,2.86-1.59,.86,.08,1.35-.44,1.7-1.12,.62-1.2,1.21-2.41,1.84-3.6,.49-.92,1.05-1.79,1.88-2.45,.42-.34,.91-.55,1.44-.36,.53,.19,.81,.65,.84,1.2,.04,.93,.01,1.87,.03,2.8,0,.41,.05,.81,.07,1.22,.84,.24,.86-.43,1.02-.82,1.14-2.71,2.85-5.05,4.61-7.37,1.22-1.61,2.85-2.71,4.58-3.68,.36-.2,.75-.36,1.15-.48,1.93-.58,3.17,.47,2.72,2.39-.32,1.38-.83,2.71-1.37,4.45,4.76-2.45,9.53-2.18,14.28-2.07,.41,0,.83,.02,1.24,.08,1.89,.28,2.4,1.61,1.12,3.09-1.44,1.67-3.25,2.88-5.18,3.93-1.83,.99-3.63,2.02-5.25,3.33-.6,.48-.57,1.17,.02,1.55,.35,.23,.72,.4,1.08,.61,1.71,.98,3.45,1.91,5.11,2.96,.87,.55,1.7,1.21,2.38,1.97,1.69,1.88,1.2,3.48-1.23,4.08-2.56,.63-5.15,.65-7.72,.08-2.13-.47-4.23-1.05-6.35-1.57-.4-.1-.81-.2-1.22-.19-.35,0-.56,.36-.41,.64,.34,.63,.75,1.23,1.18,1.81,1.18,1.59,2.29,3.22,3.06,5.05,.52,1.25,1.12,2.58,.03,3.8-.97,1.08-2.27,.79-3.5,.53-2.45-.52-4.8-1.31-7.05-2.43-.36-.18-.76-.29-1.36-.52Z"/><path class="cls-6" d="M188.7,218.26c.49-1.42,.81-2.51,1.23-3.56,.31-.77,.67-1.52,1.13-2.21,.56-.85,1.41-1.22,2.43-.95,1.51,.39,3,.81,4.5,1.21,1.59,.43,2.04,.26,2.71-1.17,1.11-2.34,2.16-4.71,3.31-7.04,.45-.92,1.03-1.8,1.67-2.61,.44-.55,1.04-1.02,1.65-1.39,.74-.45,1.57-.55,2.37-.08,.86,.51,.83,1.36,.78,2.2-.09,1.36-.55,2.63-.96,3.92-.18,.57-.61,1.1-.29,1.76,.53,.35,.99,0,1.46-.14,.9-.25,1.77-.59,2.68-.8,2.86-.68,4.38,.97,3.59,3.84-.43,1.55-1.33,2.78-2.4,3.94-.76,.82-1.78,1.41-2.37,2.55,1.24,.85,2.44,1.63,3.59,2.47,.58,.43,1.12,.93,1.6,1.47,1.24,1.38,1.13,2.71-.43,3.63-1.15,.68-2.43,1.15-3.67,1.68-.93,.39-1.88,.71-2.83,1.06,.4,1.05,1.31,.74,1.91,1.07,1.7,.93,2.62,2.42,2.38,4.34-.13,1.01-.39,2.06-.83,2.98-.91,1.86-1.96,3.65-2.99,5.45-.56,.97-1.47,1.43-2.59,1.46-.52,.01-1.04,.02-1.56,0-3.85-.18-7.66,.32-11.47,.71-.71,.07-1.42,.3-2.1,.54-1.7,.59-3.45,.64-5.22,.6-1.29-.03-2.43-.43-3.47-1.19-1.68-1.21-3.38-2.4-5.07-3.6-.25-.18-.5-.37-.73-.58-1.13-1.07-.84-2.29,.67-2.85,.39-.14,.79-.25,1.2-.32,2.48-.46,2.82-.7,1.1-3.19-.77-1.11-1.56-2.2-2.36-3.28-.5-.67-.99-1.33-1.19-2.16-.49-2.02,.9-3.52,2.93-3.14,.61,.11,1.19,.37,1.8,.46,.46,.07,.83-.23,.77-.72-.11-.82-.3-1.63-.5-2.43-.29-1.11-.47-2.24-.39-3.39,.04-.61,.12-1.25,.33-1.82,.65-1.76,2.34-2.19,3.72-.94,.6,.55,1.07,1.24,1.91,2.23Z"/><path class="cls-6" d="M236.47,189.01c-1.24,.52-2.47,1.08-3.74,1.54-1.4,.51-2.16,.05-2.49-1.4-.07-.3-.07-.62-.1-.93-.08-1.24-.86-1.82-1.98-2.07-.51-.11-1.04-.15-1.53-.3-1.79-.57-2.18-1.92-.98-3.32,.97-1.13,2.24-1.83,3.55-2.49,1.12-.56,2.25-1.06,3.46-1.2,.47-.69-.2-.96-.38-1.37-.34-.79-.09-1.42,.44-1.98,1.61-1.69,3.43-3.07,5.84-3.3,1.19-.11,2.15-.54,3.09-1.28,1.48-1.16,3.19-2.01,5.02-2.42,1.65-.37,2.81-1.22,3.72-2.57,.4-.6,.9-1.15,1.44-1.63,1.43-1.27,2.77-1.21,4.11,.12,.29,.29,.51,.66,.79,.96,.92,1,1.3,1.09,2.42,.45,1.08-.62,2.12-1.31,3.19-1.95,1.17-.69,2.41-1.21,3.75-1.48,.85-.17,1.65-.1,2.44,.24,1.19,.51,1.71,1.57,1.35,2.78-.09,.3-.24,.57-.36,.86-.23,.54-.88,1.09-.33,1.66,.5,.51,1.17,.01,1.77-.07,3.04-.44,6.01-.28,8.87,.92,.66,.28,1.31,.64,1.87,1.08,.79,.63,.62,1.74-.35,2.34-2.08,1.28-4.36,1.94-6.8,2-1.45,.03-2.91,0-4.36-.04-1.27-.04-2.08,.34-2.56,1.7-.6,1.7-1.51,1.98-3.17,1.33-1.06-.42-2.03-1.05-3.21-1.12-1-.06-1.84,.07-2.37,1.07-.95,1.81-2.45,2.05-4.24,1.41-.58-.21-1.19-.37-1.8-.49-1.22-.24-2.25-.14-2.71,1.32-.36,1.13-1.33,1.51-2.46,1.54-.83,.02-1.67,.02-2.49,.15-.49,.07-.97,.33-1.41,.58-.47,.26-.5,1-.1,1.34,.94,.81,2,1.1,3.18,.67,.78-.28,1.54-.64,2.28-1.01,4.4-2.23,9.08-2.84,13.93-2.5,.62,.04,1.25,.12,1.84,.28,1.19,.32,1.67,1.14,1.48,2.35,0,0,.03-.04,.03-.04-2.46,.8-4.89,1.68-7.25,3.11,.49,.87,1.45,.85,2.04,1.34,1.01,.84,1.04,1.97-.12,2.5-3.12,1.42-5.99,3.32-9.21,4.54-2.42,.92-4.81,1.94-7.22,2.91-1.07,.43-1.7,1.05-1.47,2.36,.47,2.71-.91,4.57-3.02,6.01-.6,.41-1.26,.73-1.9,1.07-2.3,1.23-4.5,2.58-6.2,4.62-.26,.31-.6,.57-.93,.81-.51,.36-1.3,.12-1.6-.44-.48-.86-.56-1.79-.47-2.72,.16-1.75,.32-3.52,.64-5.25,.25-1.38,.26-2.67-.32-3.95-.48-1.07-.64-2.19-.45-3.35,.31-1.81,1.38-2.68,3.22-2.63,.52,.02,1.03,.12,1.55,.12,.68,0,1.22-.35,1.45-.98,.46-1.26,.87-2.55,1.3-3.83,.31-.05,.61-.08,.92-.15,.86-.18,1.54-.79,1.09-.97-.59-.24-.96,.15-1.35,.47-.24,.19-.42,.45-.63,.67Z"/><path class="cls-6" d="M213.01,80.45c.99-.04,2.65-.03,4.23,.64,1.04,.44,1.22,1.47,.38,2.23-.93,.85-2.02,1.47-3.22,1.83-1.99,.59-4,1.09-6,1.63-.6,.16-1.21,.27-1.8,.47-.54,.18-.75,.86-.39,1.26,.7,.77,1.45,1.48,2.16,2.24,.88,.93,1.64,1.94,1.17,3.32-.51,1.5-1.81,1.89-3.2,2.04-.72,.08-1.45,.09-2.18,.08-1.48-.02-2.88,.34-4.25,.82-1.48,.52-1.68,.83-1.04,2.26,.73,1.61,.98,3.14,.09,4.76-.98,1.8-2.46,2.85-4.52,2.73-1.96-.12-3.93-.37-5.85-.75-1.79-.35-2.44-1.5-1.79-3.25,.87-2.33,1.9-4.6,2.97-6.84,2.24-4.7,5.07-9.04,8.1-13.26,.3-.42,.71-.79,.91-1.26,1.27-2.98,4.06-4.33,6.44-6.12,2.19-1.65,4.66-2.69,7.32-3.3,.5-.11,1.02-.19,1.54-.21,.87-.02,1.68,.2,2.08,1.07,.34,.74,0,1.42-.44,2.02-.75,1.03-1.8,1.71-2.83,2.4-1.12,.75-2.23,1.51-3.33,2.29-.12,.09-.19,.38-.13,.54,.05,.15,.28,.35,.43,.35,.83,.03,1.66,.02,3.16,.02Z"/></g><path class="cls-3" d="M621.41,504.33c-.48,0-.68,.4-.92,.7-3.12,3.91-6.24,7.83-8.65,12.25-.9,1.65-1.95,3.24-3.02,4.79-.99,1.44-1.66,3.02-2.33,4.6-.66,1.54-.54,1.83,.9,2.79,.42,.28,.88,.49,.8,1.1-.07,.51-.59,.86-1.29,.93-1.16,.12-2.07-.34-2.85-1.16-.95-1-1.27-2.26-1.54-3.56-.26-1.26-.22-2.42,.57-3.52,.33-.45,.51-1.03,.69-1.57,1.06-3.28,2.36-6.48,3.52-9.72,1.12-3.12,2.58-6.03,4.36-8.8,1.42-2.22,2.43-4.66,3.67-6.97,.53-.98,.42-1.84-.22-2.75-1.42-2.01-2.75-4.09-4.2-6.08-1.51-2.08-2.64-4.35-3.67-6.68-.5-1.13-.77-2.34-.78-3.59,0-.57,0-1.15-.07-1.72-.1-.94-.49-1.32-1.39-1.43-.91-.1-1.8-.03-2.69,.18-.8,.18-1.6,.38-2.4,.56-1.21,.28-2.45,.31-3.67,.15-2.02-.27-2.9-1.39-3.21-2.89-.37-1.75-.39-3.41,.31-5.06,.39-.91,.76-1.82,.88-2.81,.15-1.23,.81-2.12,1.84-2.78,.48-.31,.9-.77,1.42-.96,1.62-.57,2.51-1.58,2.85-3.32,.27-1.34,1.45-1.95,2.86-1.73,1.8,.29,3.49,.88,4.76,2.33,1.42,1.62,3.34,2.63,4.97,4,.49,.41,1.08,.28,1.64,.05,1.06-.45,2.14-.84,3.18-1.34,4.04-1.95,8.35-2.97,12.74-3.65,5.88-.91,11.77-.85,17.65,.09,1.13,.18,2.24,.51,3.34,.85,2.19,.69,4.37,1.41,6.54,2.16,.77,.27,1.5,.65,2.24,1.01,1.18,.58,2.34,1.19,3.51,1.79,.92,.48,1.88,.56,2.86,.22,2.18-.76,4.27-1.68,6.1-3.13,5.62-4.44,9.87-10.06,13.65-16.05,1.92-3.05,3.74-6.17,5.15-9.52,1.54-3.66,1.92-7.45,1.58-11.34-.17-1.96-.59-3.89-.88-5.84-.28-1.85-1.12-3.42-2.41-4.75-.74-.77-1.5-1.52-2.25-2.28-2.48-2.51-5.59-3.65-9-4.15-1-.15-1.98,.06-2.92,.3-4.11,1.03-7.52,3.2-10.25,6.43-3.14,3.72-5.46,7.98-7.81,12.22-.39,.71-.65,1.5-1,2.24-.15,.31-.46,.46-.82,.44-.47-.03-.74-.34-.86-.75-.2-.66-.11-1.33,.19-1.92,1.48-2.92,2.46-6.1,4.5-8.73,2.26-2.93,4.56-5.88,7.46-8.16,3.76-2.96,8.11-4.61,13.02-4.39,1.01,.05,1.94,.32,2.83,.76,1.62,.8,3.23,1.61,4.85,2.42,2.13,1.06,3.73,2.65,4.78,4.79,.54,1.11,1.14,2.19,1.63,3.31,.97,2.2,1.49,4.49,1.59,6.91,.26,6.66-.97,13.07-3.21,19.31-.67,1.85-1.36,3.7-2.02,5.55-.7,1.94-1.65,3.76-2.82,5.45-1.54,2.23-3.11,4.44-4.66,6.66-1.76,2.52-4.02,4.53-6.45,6.38-1.24,.94-2.42,1.97-3.64,2.93-1.03,.81-1.28,1.74-.86,3.03,.86,2.64,.66,5.38,.23,8.05-.53,3.27-1.71,6.32-3.72,9.02-.79,1.06-1.62,2.05-2.7,2.84-2.78,2.06-5.32,4.37-7.24,7.31-1.62,2.48-1.67,2.64,.16,4.91,1.23,1.53,2.52,3.03,3.76,4.55,.41,.51,.76,1.07,1.15,1.6,.79,1.04,.79,2.1,.13,3.21-.8,1.34-1.54,2.72-2.83,3.69-.26,.2-.49,.44-.73,.66-1.16,1.09-1.69,2.3-1.23,3.97,.6,2.14,.75,4.35,.72,6.59-.03,1.66-.59,3.01-1.72,4.21-1.76,1.88-3.71,3.47-6.03,4.61-.81,.4-1.59,.85-2.38,1.3-2.05,1.17-4.19,1.34-6.4,.52-.38-.14-.78-.27-1.15-.44-1.18-.56-2.35-.63-3.58-.14-.45,.18-.94,.3-1.42,.4-.41,.09-.81-.03-1.18-.23-.73-.41-.93-1.28-.38-1.87,.92-.98,1.99-1.71,3.34-1.96,1.14-.21,2.3-.28,3.42,.03,2.28,.62,4.2-.03,5.94-1.49,.56-.48,1.1-.99,1.72-1.4,1.68-1.1,2.01-2.71,1.81-4.53-.13-1.17-.6-2.21-1.37-3.11-.33-.38-.98-.41-1.32-.05-.28,.29-.49,.66-.77,.96-1.17,1.28-2.65,1.87-4.37,1.86-.71,0-1.19-.58-1.09-1.34,.13-1.07,.46-2.09,1.02-3.01,.5-.82,1.25-1.29,2.21-1.39,.73-.08,1.48-.09,2.2-.21,.63-.1,1.02-.6,.95-1.23-.06-.57-.18-1.13-.35-1.68-1.37-4.41-2.06-8.95-2.5-13.53-.19-1.92-.92-3.46-2.49-4.59-1.81-1.3-3.38-2.85-4.81-4.55-1.44-1.72-2.72-3.52-3.09-5.79-.22-1.37-1.02-1.88-2.33-2.06-1.88-.27-3.75-.43-5.64-.34-.6,.03-.9,.47-.7,1.01,.17,.46,.38,.91,.6,1.35,.5,1.03,.98,2.08,1.53,3.09,1.36,2.52,1.5,5.18,.89,7.9-.69,3.05-.86,6.16-1.25,9.25-.4,3.19-.24,6.39-.68,9.57-.19,1.36,.41,2.05,1.79,1.97,1.54-.09,3.15-.04,4.32-1.38,.38-.44,.93-.68,1.52-.75,.7-.09,1.59-.63,2.05,.15,.49,.84,.54,1.88,0,2.81-.2,.35-.5,.65-.78,.94-.53,.55-.9,1.13-.84,1.96,.05,.74-.44,1.19-1.04,1.55-1.17,.71-2.4,1.06-3.76,.78-.96-.2-1.92-.41-2.82-.84-1.48-.7-2.98-1.39-4.51-1.97-1.45-.55-2.24-1.53-2.59-3.01-.45-1.87-.5-3.73-.25-5.62,.46-3.43,.27-6.88,.21-10.32,0-.12-.18-.24-.27-.36Z"/><g><path class="cls-6" d="M836.9,190.88c-1.04-3.21-1.96-6.44-2.5-9.78-1.16-7.17-3.55-14.01-5.8-20.89-.21-.66-.51-1.29-.82-1.91-3.68-7.29-8.11-14.04-13.62-20.13-3.28-3.63-6.84-6.86-10.72-9.8-2.87-2.18-6.11-3.68-9.18-5.48-3.59-2.11-7.3-4-10.9-6.1-.77-.45-1.54-.88-2.31-1.32-.03-1.04-.31-2.02-.86-2.93-1.11-1.8-3.12-2.66-5.21-2.29-.38,.07-.7,.24-1.01,.46-.22,.16-.42,.34-.63,.52-.04-.02-.08-.04-.12-.07-1.57-.81-3.01-1.9-4.46-2.94-2.42-1.73-4.86-3.43-7.17-5.31-4.23-3.45-7.38-7.74-9.18-12.92-1.81-5.18-2.94-10.49-2.85-16.01,.05-3.37,.04-6.73,.49-10.09,.15-1.14,.2-2.28,.25-3.43,1.02-.16,1.92-.02,2.7,1,.7,.92,1.82,1.35,2.92,1.67,1.49,.43,2.98,.86,4.5,1.16,2.54,.5,5.05,1.06,7.55,1.72,3.92,1.04,7.95,1.45,11.98,1.21,2.99-.17,5.98-.41,8.98-.37,3.22,.04,6.39-.47,9.57-.83,1.52-.17,3.1-.3,4.49-1.08,.68-.38,1.39-.27,2.11-.12,1.87,.37,3.69,.12,5.52-.37,.74-.2,1.47-.74,2.3-.34,.05,.58-.33,.81-.66,1.03-1.54,1.05-3.1,2.06-4.64,3.09-.6,.4-1.21,.78-1.75,1.26-.17,.15-.23,.6-.14,.84,.09,.24,.4,.43,.65,.57,.17,.09,.4,.1,.6,.08,5.35-.55,10.69-1.13,15.79-3.02,.41-.15,.88-.6,1.39,.13-.34,.35-.68,.72-1.03,1.08-1.33,1.33-2.3,2.92-3.16,4.58-.24,.47-.35,1.03-.02,1.48,.43,.59,1.1,.53,1.69,.29,1.54-.6,3.06-1.25,4.6-1.86,.73-.29,1.36-.9,2.37-.79-.46,1-1.25,1.51-1.9,2.15-.81,.79-1.06,1.46-.69,1.8,.55,.52,1.15,.28,1.74,.1,.49-.15,.98-.34,1.46-.51,4.97-1.72,8.75-4.98,11.91-9.07v-29.18c-1.16,.53-1.94,1.53-2.84,2.37-1.59,1.48-3.18,2.94-4.79,4.4-.28,.26-.55,.62-1.26,.4,.65-1.17,1.3-2.3,1.92-3.45,.64-1.18,1.28-2.36,1.85-3.57,.21-.45,.28-.99,.33-1.5,.06-.62-.67-1.09-1.3-.89-.92,.29-1.65,.87-2.29,1.55-1.06,1.13-2.1,2.28-3.08,3.48-.99,1.21-2.08,2.31-3.44,3.09-.74,.43-1.35,1.33-2.42,.87-.02-.94,.78-1.41,1.19-2.11,1.14-1.96,2.3-3.92,3.4-5.91,.29-.53,.44-1.15,.55-1.75,.12-.61-.59-1.22-1.18-1.1-.93,.19-1.7,.73-2.5,1.21-4.38,2.62-9.16,4.25-14,5.76-.18,.06-.4-.02-.62-.03-.32-.57,.21-.68,.51-.81,3.66-1.71,7.05-3.89,10.57-5.85,3.37-1.88,6.44-4.14,9.21-6.78,4.16-3.97,7.28-8.69,9.4-14.05,.27-.67,.52-1.34,.78-2.02V7.43c0-2.48-.01-4.97,0-7.45,0-.62-.44-.18-.63-.31-1.34,1.99-3,3.6-5.07,4.88-2.37,1.46-4.44,3.35-6.29,5.44-.67,.75-1.28,1.6-2.25,2.04-.51-.63-.03-1.06,.17-1.47,1.17-2.41,2.46-4.76,3.38-7.29,.42-1.16,.89-2.31,.75-3.59h-4.97c-.83,1.17-1.67,2.32-2.48,3.5-.74,1.08-1.41,2.21-2.53,3.23-.59-.89-.39-1.71-.29-2.46,.17-1.42,.46-2.83,.34-4.27h-33.53c-2.02,2.27-2.24,2.42-4.48,2.96,.26-1.02,.5-1.99,.75-2.96h-6.21c-.31,.22-.6,.48-.94,.67-.78,.43-1.27,.12-1.55-.67h-6.21c-.09,.18-.17,.38-.29,.54-.29,.4-.5,1.12-1.01,1.01-.76-.17-.42-1-.56-1.55h-15.52c-.04,3.08-.08,6.16-.13,9.19-.73,.28-.82-.23-.92-.55-.91-2.95-2.59-5.61-3.3-8.63h-51.4c.07,.49,.06,1.01,.23,1.47,.83,2.28,.93,4.66,.95,7.04,.01,1.79,.04,3.57-.02,5.36-.03,1.09-.07,2.21-.35,3.24-1.18,4.3-2.32,8.63-3.73,12.85-1.51,4.51-3.28,8.93-4.99,13.38-1.18,3.06-2.26,6.14-3.07,9.32-.12,.48-.28,.95-.45,1.42-.46,1.26-.93,1.49-1.96,.82-1.24-.81-2.53-1.61-3.59-2.63-2.99-2.9-5.96-5.83-8.77-8.91-1.54-1.69-3.21-3.34-3.98-5.61,6.09-4.2,10.68-9.77,14.28-16.26,.25-.45,.42-.94,.55-1.44,.12-.43-.02-.86-.44-1.03-.25-.1-.67-.09-.86,.06-.65,.51-1.31,1.03-1.81,1.68-1.55,2.02-3.61,3.38-5.81,4.57-.28,.15-.67,.55-1.06-.12,.41-.41,.83-.86,1.28-1.27,3.28-2.93,5.83-6.43,8.11-10.14,.54-.87,.98-1.82,1.35-2.78,.18-.45,.19-1.01,.15-1.51-.07-.92-1.09-1.43-1.84-.93-.51,.34-.97,.77-1.41,1.2-.81,.8-1.57,1.65-2.4,2.43-.6,.57-1.24,1.09-1.91,1.58-.61,.44-1.15,1.07-2.5,1.34,.85-.94,1.31-1.48,1.82-1.99,2.76-2.75,4.55-6.13,6.26-9.56,.55-1.11,1.04-2.27,.9-3.56h-3.1c-1.07,1.77-2.47,3.23-4.12,4.46-1.47,1.09-2.89,2.24-4.34,3.36-.04,.03-.16-.05-.34-.12,1.39-2.44,3.37-4.64,3.21-7.7h-11.18c-.5,.99-1.11,1.89-1.96,2.61-.13,.11-.37,.2-.53,.16-.15-.04-.34-.24-.36-.39-.11-.79-.18-1.58-.26-2.38h-17.39c.18,1.25,.88,2.29,1.39,3.4,.81,1.77,1.61,3.54,2.39,5.33,.19,.45,.46,.93,.16,1.45-.57,.12-.63-.36-.79-.68-.89-1.85-1.74-3.71-2.63-5.56-.66-1.39-1.36-2.76-2.38-3.94h-4.35c-.41,2.89-.42,2.9-3,1.53-.88-.47-1.73-1.02-2.59-1.53h-5.59c-.08,1.19,.49,2.19,.99,3.2,.95,1.91,1.91,3.81,2.9,5.79-.32-.07-.54-.05-.66-.15-3.16-2.94-6.3-5.89-9.44-8.84h-4.35c1.68,6.38,5.23,11.64,9.78,16.3,.65,.66,1.24,1.37,1.85,2.07,.04,.05-.01,.18-.02,.28-.08,.04-.2,.13-.25,.11-3.29-1.95-6.55-3.93-9.38-6.53-.68-.63-1.28-1.35-2.18-1.72-.7-.28-1.5,.23-1.58,.99-.1,.97,.23,1.84,.54,2.71,1.11,3.07,2.96,5.66,5.16,8.04,.84,.91,1.7,1.81,2.53,2.73,.3,.34,.09,.95-.32,.96-2.88,.08-5.79,.43-8.48-1.09-1.26-.71-2.59-1.29-3.92-1.87-1.18-.52-1.49-.44-2.11,.8-.33,.65-.73,.95-1.41,.95-.52,0-1.04,.03-1.55-.05-5.73-.84-11.49-1.36-17.29-1.26-.2,0-.43-.04-.59-.14-.31-.18-.37-.53-.15-.76,.5-.52,1.04-1,1.61-1.44,3.19-2.48,6.17-5.19,8.95-8.12,.64-.67,1.32-1.32,1.57-2.26,.2-.72-.48-1.49-1.26-1.31-.8,.18-1.61,.4-2.36,.74-1.88,.87-3.75,1.75-5.56,2.74-5.19,2.84-10.8,4.7-16.25,6.92-.36,.15-.75,.38-1.17,.07,0-.1-.04-.24,0-.29,1.76-2.02,3.52-4.05,5.32-6.05,.83-.92,1.75-1.76,2.6-2.66,.49-.53,.98-1.07,1.38-1.67,.47-.69,.81-1.46,.4-2.32-.27-.56-1.06-.62-2.26-.28-1.93,.53-3.46,1.81-5.18,2.72,.13-1.3-.46-2.13-1.7-2.51-2.74-.84-5.48-1.68-8.22-2.52-.77-.23-1.55-.44-2.97-.84,4.79-.42,8.85-1.21,12.89-2.06,1.3-.27,2.62-.51,3.71-1.36h-73.27c-1.18,2.73-2.95,5.01-4.95,7.19-.88-.74-.49-1.47-.39-2.11,.28-1.7,.66-3.39,.99-5.08h-4.97c-1.79,1.28-3.25,2.87-4.5,4.67-1.18,1.7-2.32,3.42-3.5,5.12-1.26,1.81-1.23,4.09-2.08,6.02-1.03-.2-1.21-1-1.59-1.57-2.3-3.45-4.29-7.07-6.16-10.77-.6-1.2-1.35-2.32-2.04-3.47h-9.31c-.99,1.95-.94,3.97-.42,6.03,.25,.98,.45,1.97,.68,2.98-.36,.02-.63,.12-.71,.04-2.55-2.71-4.8-5.65-6.38-9.05h-6.83c-.01,1.47,.56,2.83,.81,4.24,.05,.31-.02,.63-.34,.75-.17,.06-.43,.04-.59-.06-2.35-1.5-4.63-3.08-6.71-4.93h-3.73c-.58,.43-1.15,.87-1.74,1.29-2.44,1.73-3,4.16-1.45,6.73,.53,.88,1.22,1.67,1.93,2.41,2.21,2.32,4.5,4.57,6.99,6.6,.46,.37,.27,1.03-.31,1.19-.3,.08-.6,.17-.91,.2-2.16,.26-4.31,.52-6.47,.76-2.16,.24-4.32,.44-6.47,.71-.97,.12-1.29,1.13-.66,1.86,1,1.17,2.36,1.63,3.8,1.93,2.13,.43,4.26,.83,6.39,1.25,.36,.07,.85-.02,.91,.55-.26,.42-.69,.41-1.08,.42-3.62,.09-7.24,.16-10.85-.27-1.43-.17-2.89-.17-4.33-.16-.49,0-1,.21-1.47,.38-.46,.17-.56,1.05-.15,1.31,.34,.22,.71,.45,1.09,.57,3.86,1.18,7.69,2.44,11.59,3.47,8.68,2.31,17.53,2.85,26.47,2.44,.82-.04,1.64-.18,2.46-.28,.51-.06,1.03-.35,1.72,.02-.48,.24-.75,.4-1.03,.5-4.2,1.52-8.53,2.37-13,2.77-5.76,.51-11.49,1.44-17.31,1.24-1.09-.04-1.72,.38-1.73,.92-.02,.75,.55,1.06,1.07,1.39,.35,.22,.73,.4,1.1,.57,6.65,3.17,13.69,4.59,21.03,4.64,1.25,0,2.46-.2,3.7-.37,1.3-.18,2.5-1.08,3.9-.53-.24,1.68-1.91,1.99-2.9,2.94-.66,.63-1.54,1.03-2.31,1.56-.59,.41-1.17,.84-1.72,1.31-.33,.28-.44,.69-.25,1.12,.19,.42,.55,.61,.99,.63,1.17,.07,2.22-.42,3.31-.74,.65-.19,1.28-.76,2.01-.19,.07,.71-.45,1.14-.74,1.67-.67,1.24-1.75,1.7-3.11,1.59-.51-.04-1.03-.12-1.53-.21-2.97-.52-5.83-1.42-8.52-2.8-3.68-1.88-7.34-3.81-11.02-5.71-.55-.28-1.1-.58-1.69-.76-1.1-.34-2.06,.47-2.04,1.65,.02,.87,.39,1.6,.88,2.28,.68,.93,1.57,1.64,2.5,2.31,3.18,2.3,6.14,4.92,9.55,6.92,.23,.14,.51,.48,.49,.71-.04,.48-.51,.6-.92,.61-3.51,.1-7.03,.3-10.53-.27-4.9-.8-9.81-1.55-14.39-3.64-.66-.3-1.35-.51-2.1-.38-.48,.08-.91,.75-.68,1.18,.24,.45,.51,.9,.86,1.27,1.2,1.29,2.57,2.4,4.06,3.34,1.64,1.04,3.29,2.07,4.96,3.12-.39,.34-.68,.18-.95,.07-2.72-1-5.4-2.09-7.94-3.51-1.44-.8-2.97-1.45-4.48-2.11-.49-.21-1.06-.14-1.41,.32-.36,.47-.22,1,.07,1.45,.57,.86,1.17,1.7,1.79,2.53,.87,1.16,1.86,2.23,2.65,3.44,1.81,2.73,4.13,4.88,6.93,6.56,.71,.42,1.36,.94,2.01,1.45,.1,.08,.06,.37,.05,.56,0,.07-.13,.17-.21,.18-.61,.07-1.22,.17-1.84,.18-4.87,.1-9.7-.49-14.53-1.02-3.41-.38-6.72-1.15-9.95-2.29-1.47-.52-3-.78-4.56-.76-.75,.01-1.31,.97-.93,1.59,.32,.52,.71,1.01,1.14,1.45,2.05,2.11,4.52,3.6,7.12,4.91,.68,.34,1.55,.47,2.09,1.57-5.39,.02-10.53,.25-15.68-.29-1.44-.15-2.88-.25-4.33-.32-.62-.03-1.26,.06-1.57,.74-.26,.58-.02,1.26,.77,1.85,.66,.49,1.36,.96,2.09,1.32,2.16,1.08,4.5,1.54,6.86,1.87,3.9,.55,7.82,.8,11.76,.74,.82-.01,1.65,.05,2.47,.14,.51,.06,.87,.73,.65,1.19-.27,.56-.54,1.12-.92,1.61-1.13,1.47-2.33,2.9-3.48,4.37-.7,.89-1.44,1.77-2.01,2.74-.81,1.37-.25,2.73,1.24,2.71,2.44-.02,4.97,.25,7.25-1.01,5.71-3.15,11.33-6.44,15.99-11.11,.96-.96,1.92-1.41,3.32-.93,1.26,.44,2.6,.64,3.98,.4,.56-.1,1.3-.39,1.62,.37,.22,.52-.22,.97-.54,1.37-.32,.41-.67,.79-.99,1.19-2.38,3.02-4.3,6.33-6.09,9.72-.38,.72-.61,1.53-.81,2.33-.16,.63,.49,1.32,1.07,1.2,.4-.08,.79-.22,1.17-.38,2.34-.96,4.26-2.55,6.08-4.23,3.35-3.08,6.67-6.19,9.93-9.36,2.2-2.14,4.29-4.4,6.43-6.61,.03,.66-.17,1.21-.45,1.72-1.3,2.36-2.63,4.69-3.92,7.05-.34,.63-.65,1.29-.86,1.97-.18,.55,.47,1.3,1.06,1.26,.5-.04,1.06-.1,1.48-.34,.99-.56,1.89-1.25,2.86-1.85,.35-.22,.62-.88,1.25-.36-.54,.79-1.09,1.53-1.57,2.31-.34,.55,.2,1.34,.85,1.29,.41-.03,.83-.09,1.21-.22,7.34-2.52,13.04-7.07,16.85-13.87,2.28-4.07,4.31-8.25,5.81-12.68,.97-2.85,2.34-5.52,3.8-8.14,.07-.13,.34-.14,.58-.23,.1,.27,.28,.54,.28,.81-.03,3.83,.1,7.67-.19,11.48-.3,4-1.68,7.67-4.62,10.58-.29,.29-.63,.56-.83,.91-.23,.39-.11,.89,.27,1.08,1.44,.7,2.9,.96,4.48,.29,3.94-1.66,6.76-4.33,7.92-8.55,.63-2.3,1.43-4.53,2.34-6.73,1-2.39,1.72-4.95,1.8-7.51,.12-3.7,.83-3.26,3.69-2.25,2.15,.76,4.33,1.3,6.65,1.38,1.71,.06,3.42,.16,5.13,.26,.29,.73,.58,1.46,.85,2.2,1.64,4.5,3.78,8.72,6.46,12.69,3.1,4.62,6.42,9.07,10.25,13.11,5.88,6.2,13.02,10.69,20.57,14.52,5.13,2.6,10.42,4.86,15.68,7.2,1.82,.81,3.56,1.74,5.16,2.93,2.7,2.03,5.37,4.09,8.1,6.06,6.34,4.58,13.31,7.42,21.23,7.57,.79,.01,1.59,.06,2.37,.21,2.56,.49,5.15,.43,7.71,.2,4.64-.41,9.25-1.02,13.88-1.54,1.13-.13,2.25-.17,3.36-.14-.42,2.41-.73,4.83-.34,7.31,.12,.75-.04,1.54-.12,2.31-.55,5.17-1.09,10.34-.79,15.56,.13,2.21,.05,4.43,.02,6.64-.02,1.22,0,2.46-.23,3.64-.5,2.52-.52,5.06-.46,7.61,0,1.66-.03,3.32,.01,4.98,.03,1.11,.17,2.22,.79,3.18,.09,.14,.38,.24,.56,.21,.18-.03,.45-.21,.48-.36,.11-.65,.24-1.31,.21-1.96-.3-5.01,.07-9.94,1.22-14.84,.68-2.92,.92-5.88,.3-8.89-.31-1.51-.1-3.08,.03-4.63,.38-4.52,.84-9.03,1-13.56,.08-2.29,.21-4.57,.42-6.84,2.03,.41,3.98,1.19,5.79,2.43,2.79,1.91,5.18,4.32,7,7.22,1.7,2.7,3.78,5.08,6.07,7.31,4.01,3.9,8.62,6.65,14.2,7.59,.88,.15,1.75,.35,2.62,.57,.35,.09,.82,.09,.84,.64-.19,.41-.6,.48-.96,.62-4.92,1.86-9.84,3.7-14.75,5.58-2.41,.92-4.86,1.76-7.04,3.18-8.39,5.47-13.27,13.18-14.51,23.14-.22,1.76-.63,3.54-.33,5.33,.35,2.07,.28,4.15,.3,6.23,.02,1.69-.1,3.39,.12,5.05,.63,4.91,1.39,9.81,2.12,14.71,.17,1.18,.44,2.34,.62,3.51,.12,.78-.35,1.18-1.03,.91-.37-.14-.73-.32-1.08-.51-3.96-2.16-8.2-3.45-12.61-4.31-4.77-.93-9.53-1.94-14.23-3.14-5.19-1.32-10.31-2.89-15.46-4.37-.57-.16-1.12-.41-1.65-.66-.68-.32-1.06-.89-1.11-1.64-.04-.59-.08-1.19-.01-1.78,.44-4.04,.82-8.09,1.39-12.11,.67-4.71,1.6-9.37,1.64-14.17,.02-2.17,.32-4.35,.31-6.53,0-1.9,.27-3.77,.85-5.57,1.53-4.82,3.04-9.64,5.3-14.2,1.8-3.64,3.46-7.36,5.15-11.06,.49-1.07,1.06-2.16,.86-3.41-.1-.62-.38-1.15-1.04-1.31-.55-.13-.96,.18-1.27,.59-.9,1.18-1.74,2.41-2.68,3.56-3.09,3.77-5.89,7.73-8.25,11.99-.27,.48-.35,1.28-1.1,1.17-.52-.08-.55-.76-.74-1.2-.48-1.13-.66-2.29-.37-3.49,.63-2.63,.44-5.33,.78-7.99,.23-1.78-.21-3.56-.53-5.31-.1-.56-.43-1.11-.74-1.6-.2-.32-.58-.62-1-.37-.23,.13-.48,.41-.51,.65-.11,1.06-.15,2.13-.21,3.2-.32-.06-.54-.04-.69-.13-.5-.3-.98-.84-1.58-.33-.52,.44-.31,1.09-.2,1.67,.29,1.47,.76,2.87,1.64,4.11,.52,.74,.98,1.51,.92,2.46-.03,.42,.22,1.04-.53,1.15-.68-.52-.93-1.29-1.34-1.97-.66-1.1-1.26-2.26-2.02-3.29-.76-1.03-1.65-1.98-2.53-2.91-.48-.51-1.07-.93-1.84-.57-.61,.28-.82,1.05-.5,2.12,.25,.85,.56,1.7,.94,2.5,.81,1.7,1.58,3.44,2.56,5.04,2.07,3.36,3.18,7.02,3.86,10.86,.39,2.22,.26,4.25-1.22,6.19-1.67,2.18-2.39,4.75-2.21,7.55,.1,1.58,.07,3.17,.1,4.76,.04,2.09-.04,4.15-.45,6.22-.5,2.53-.98,5.07-1.24,7.63-.27,2.61-1.09,5.03-1.97,7.45-.13,.36-.24,.77-.74,.85-.46-.28-.56-.78-.71-1.25-.44-1.42-.97-2.83-1.25-4.28-.86-4.48-1.6-8.98-2.42-13.46-.75-4.1-1.53-8.2-3.89-11.78-.32-.49-.58-1.06-.72-1.62-.77-3.09-1.6-6.14-3.13-8.96-.36-.67-.27-1.37,.21-1.95,.69-.84,1.43-1.65,2.17-2.44,.54-.58,1.2-1.05,1.49-1.83,.14-.38,.18-.81-.2-1.07-.22-.15-.55-.22-.82-.21-.69,.04-1.13,.83-1.9,.71-.38-.46-.18-.95-.1-1.42,.21-1.37,.43-2.74,.64-4.11,.11-.7,.05-1.39-.26-2.03-.18-.36-.44-.69-.9-.64-.44,.04-.71,.36-.82,.74-.16,.57-.24,1.16-.34,1.74-.43,2.34-.83,4.69-1.29,7.02-.15,.76-.84,.94-1.3,.33-2.35-3.07-5.03-5.88-7.11-9.16-.64-1-1.27-2.03-2.06-2.91-1.54-1.72-2.66-3.69-3.71-5.72-.54-1.05-1.24-2.03-1.98-2.95-.65-.82-1.53-.97-2.07-.49-.66,.58-.46,1.26-.14,1.9,1.01,2.05,2.07,4.06,3.06,6.12,.78,1.62,1.67,3.15,2.88,4.49,1.09,1.2,1.84,2.57,2.17,4.17,.61,2.98,2.01,5.59,3.86,7.97,2.03,2.61,3.49,5.52,4.77,8.55,.69,1.64,1.38,3.34,2.42,4.76,1.5,2.07,2,4.27,1.78,6.72-.26,2.96-.52,5.92-.1,8.89,.06,.42,.18,1.02-.64,1.18-4.42-5.43-8.65-11.03-12.18-17.15-3.09-5.36-5.53-10.98-7.17-16.94-.32-1.15-.62-2.32-1.11-3.39-2.87-6.24-6.28-12.15-10.91-17.3-1.7-1.89-3.69-3.28-6.05-4.19-2.41-.94-4.91-1.55-7.41-2.2-4.41-1.14-8.84-2.26-13.01-4.17-1.71-.78-3.4-1.64-5.17-2.28-2.77-1-5.08-2.67-7.18-4.66-.87-.82-1.7-1.67-2.57-2.48-.43-.4-.89-.79-1.39-1.11-.9-.58-1.73-.48-2.42,.22-.71,.72-.92,1.62-.45,2.44,.29,.51,.68,.97,1.09,1.4,2.62,2.72,5.46,5.19,8.58,7.33,1.49,1.02,3.06,1.81,4.78,2.37,8.14,2.64,14.49,7.83,19.42,14.6,4.92,6.75,8.54,14.28,11.62,22.06,1.32,3.33,2.27,6.76,3.39,10.16,3.38,10.28,7.17,20.4,11.79,30.19,.66,1.39,1.08,2.78,.82,4.3-.42,2.46-.33,4.94-.4,7.42-.06,1.98,0,3.98-.23,5.94-.5,4.36-.5,8.74-.16,13.07,.47,6.03,.4,12.08,.82,18.12,.5,7.21,.35,14.47,.76,21.7,.27,4.75,.45,9.5,.68,14.26,0,.2,.02,.4,.05,.59,1.09,6.96,1.58,13.99,2.75,20.94,.46,2.73,1.59,5.11,3.13,7.31,1.68,2.4,3.03,2.8,5.91,2.11,.62-.15,1.21-.82,2-.12-.38,4.28-.39,8.64-.66,12.98-.37,5.83-.21,11.69-.64,17.54-.63,8.43,.4,16.84,.48,25.26,0,.3,0,.6,.06,.89,.54,2.95,.42,5.93,.44,8.9,.02,2.28-.01,4.57,.1,6.84,.15,2.87,.48,5.73,1.23,8.52,.23,.85,.46,1.73,1.1,2.41,.56,.6,1.64,.57,2.07-.13,.25-.41,.48-.89,.54-1.36,.21-1.57,.47-3.15,.49-4.73,.08-7.84,.11-15.67,.1-23.51,0-2.38-.16-4.76-.27-7.13-.26-5.74-.53-11.49-.8-17.23,0-.1,0-.2,0-.3,.51-3.95,.25-7.93,.38-11.89,.15-4.56,.08-9.12,.49-13.67,.29-3.15,.18-6.34,.21-9.52,.01-1.41,.25-2.75,.8-4.05,1.2-2.84,2-5.81,2.74-8.8,.59-2.41,1.15-4.82,1.75-7.23,.54-2.17,1.03-2.46,3.12-1.47,1.5,.71,2.96,1.06,4.6,.66,.57-.14,1.18-.1,1.78-.13,2.81-.16,5.46-.86,8.02-2.05,4.85-2.25,8.88-5.58,12.56-9.37,.48-.5,.94-1.04,1.31-1.61,3.82-5.91,7.9-11.66,11.31-17.83,2.4-4.34,4.89-8.65,5.91-13.59,.08-.38,.22-.77,.39-1.12,.19-.38,.53-.6,.97-.51,.48,.1,.97,.22,1.42,.41,7.25,3.12,13.53,7.49,18.02,14.11,2.62,3.87,5.79,7.3,8.68,10.96,.18,.23,.4,.44,.62,.65,4.31,3.98,8.78,7.74,14.12,10.32,6.25,3.03,12.59,5.86,19.11,8.26,2.42,.89,4.92,1.53,7.46,2.03,5.17,1.03,10.45,1.06,15.66,1.68,1.97,.23,3.94,.48,5.92,.57,2.88,.14,5.73,.55,8.55,1.09,6.74,1.29,13.24,3.43,19.77,5.49,.94,.3,1.82,.77,2.73,1.17,4.64,2.01,9.3,3.97,14.09,5.6,5.92,2.02,11.77,4.21,17.41,6.93,4.73,2.29,9.42,4.68,14.13,7,6.65,3.27,12.56,7.55,17.81,12.78,1.45,1.45,2.67,2.87,2.65,5.07,0,.77,.35,1.54,.52,2.32,.87,3.79,1.4,7.6,1.16,11.5-.22,3.56-.48,7.12-.56,10.69-.07,2.89-.45,5.73-.81,8.58-.16,1.28-.35,2.55-.5,3.83-.95,8.4-2.56,16.66-5.37,24.65-1.02,2.9-2.08,5.78-3.11,8.68-1.33,3.74-2.54,7.52-3.99,11.21-3.08,7.85-6.41,15.58-10.6,22.94-2.25,3.96-4.46,7.95-6.26,12.16-1.12,2.64-2.6,5.13-3.92,7.68-.36,.71-.74,1.4-1.07,2.12-3.6,7.93-4.76,16.32-4.76,24.93,0,.3,.01,.6,.04,.89,.29,2.96,.55,5.92,.9,8.87,.51,4.27,.02,8.3-2.46,11.96-.77,1.15-1.38,2.41-2.07,3.62-2.73,4.78-6.44,8.53-11.45,10.91-2.06,.98-4.15,1.9-6.25,2.77-6.69,2.77-13.49,5.25-20.1,8.22-2.62,1.18-5.31,2.26-8.06,3.06-8.09,2.35-16.11,4.96-24.43,6.47-4.2,.76-8.37,1.63-12.67,1.57-5.95-.09-11.9-.09-17.86-.17-1.08-.01-2.18-.16-3.25-.34-7.53-1.26-15.05-2.56-22.52-4.16-4.57-.98-9.17-1.57-13.87-1.41-3.47,.12-6.93,.1-10.39,.52-5.83,.7-11.58,1.7-17.08,3.83-7.13,2.76-14.01,6.07-20.69,9.81-3.55,1.98-7.11,3.97-10.77,5.72-7.24,3.47-14.79,5.76-22.97,5.04-1.78-.16-3.55-.4-5.33-.48-4.37-.2-8.71,0-13.06,.55-6.63,.83-13.05,2.38-19.25,4.9-3.29,1.34-6.04,3.35-8.44,5.94-4.92,5.32-9.44,10.97-13.96,16.63-.56,.7-1.11,1.42-1,2.4h362.57V209.81c-2.05-6.31-4.09-12.62-6.14-18.93Zm-29.09-130.41c-1.61,.68-3.35,1.13-4.81,2.04-1.51,.94-3.03,1.13-4.7,1.11-3.08-.05-6.15-.14-9.87-1.08,7.38-.5,13.9-2.12,20.67-3.24-.28,.99-.85,.99-1.29,1.17Zm-35.66-38.66c.51-.35,1.03-.69,1.54-1.04,2.4-1.62,4.81-3.2,7.18-4.87,2.36-1.66,4.67-3.4,7-5.1,.06-.05,.19,0,.68,.03-.74,1.91-1.65,3.4-2.61,4.86-.41,.62-.97,1.05-1.6,1.43-1.77,1.07-3.54,2.12-5.5,2.82-2.22,.8-4.43,1.64-6.61,2.46-.11-.18-.2-.26-.2-.33,0-.09,.06-.21,.13-.26Zm-9.45,19.24c-2.19,1.6-3.84,2.72-5.8,3.65,.42-3.45,.81-3.71,5.8-3.65Zm-202.16,240.47c-.35,3.84-.72,7.69-1.09,11.53-.03,.3-.03,.6-.1,.89-.78,3.27-1.56,6.54-2.37,9.81-.07,.27-.27,.5-.57,1.01-.63-1.2-.75-2.18-.85-3.16-.56-5.81-1.29-11.62-1.65-17.44-.34-5.63-.74-11.26-.73-16.92,.03-14.07-.05-28.14-.09-42.21,0-1.29,.01-2.58,.05-3.86,.01-.37,0-.86,.53-.92,.43-.04,.69,.31,.96,.6,.65,.71,.75,1.58,.74,2.5-.02,2.48-.04,4.95-.06,7.43-.02,2.58,.16,5.13,.48,7.7,.64,5.11,1.21,10.22,1.45,15.38,.2,4.25,.83,8.48,1.71,12.65,.88,4.18,1.25,8.42,1.62,12.66,.07,.78,0,1.58-.06,2.37Zm5.42-37.4c-.33-3.61-.23-7.23,.46-10.83,.45,2.32,.28,8.39-.46,10.83Zm43.79-2.43c-.37,1.74-.68,3.5-1.17,5.21-1.09,3.81-2.37,7.56-3.9,11.22-1.23,2.94-2.84,5.66-4.62,8.29-2.67,3.94-5.46,7.77-8.92,11.08-3.68,3.52-8.07,5.26-13.75,5.4-1.77,.07-3.82-.92-5.82-2.04-.77-.43-1.1-1.12-1.01-1.99,.04-.39,.09-.79,.15-1.18,.62-4.01,1.34-8.01,1.86-12.03,.58-4.51,.93-9.05,1.47-13.57,.59-4.83,.65-9.67,.67-14.53,0-.4,0-.79,.05-1.19,.11-.98,.65-1.4,1.63-1.16,2.69,.67,5.37,1.37,8.13,1.74,4.02,.53,8.04,1.07,12.06,1.6,3.43,.45,6.87,.88,10.3,1.34,.68,.09,1.36,.29,2.02,.47,.67,.18,.98,.66,.84,1.34Zm18.59-210.24q-1.58-.17-2.87-.96c1.36-.08,1.36-.08,2.87,.96Zm-88.08-5.36c.29-.29,.58-.59,.92-.82,1.36-.93,2.74-1.85,4.12-2.76,1.12-.75,2.23-1.51,3.02-2.64,.78-1.11,1.85-1.57,3.18-1.6,.82-.02,1.65-.09,2.46-.25,.92-.18,1.31-.94,1.13-1.88-.31-1.55-1.29-2.56-2.62-3.28-3-1.62-5.99-3.27-9.34-4.11-.59-.15-1.17-.37-1.74-.68,2.71,0,5.38,.39,8.06,.71,5.44,.65,10.89,1.19,16.38,.94,1.73-.08,3.44-.47,5.15-.73-4.94,4.26-10.34,7.84-15.99,11.07-4.14,2.36-8.46,4.33-12.87,6.12-.47,.19-.97,.35-1.47,.46-.13,.03-.32-.16-.45-.28-.04-.04,0-.22,.05-.28Zm-12.97-1.93c1.57-1.31,3.17-2.6,4.78-3.85,.56-.43,1.17-.95,1.82-1.08,1.9-.38,3.79-.92,5.76-.81,.15,0,.29,.2,.44,.31-1.8,1.36-10,5.38-13.4,6.56-.41-.68,.27-.87,.58-1.13Zm-9.34,29.8c.2,.05,.4,.11,.6,.17-.83-.12-1.66-.24-2.48-.4,.03-.08,.07-.17,.13-.27,.58,.17,1.16,.35,1.75,.51Zm-15.53-25.47c-.07-.08,.01-.43,.1-.47,.27-.11,.57-.16,.86-.14,.11,0,.21,.24,.32,.37-.13,.4-.99,.58-1.28,.24Zm101.78,80.12c-.49,0-.98,0-1.47,0,1.3-1.45,2.87-1.65,4.81-1.18,1.33,.33,2.72,.48,4.1,.56-2.46,.36-4.94,.62-7.45,.62Zm5.66-7.94c.14-.04,.45,.09,.53,.23,.46,.85,0,1.84-.9,2-.35,0-.67-.11-.73-.46-.13-.71,.39-1.54,1.11-1.76Zm7.9,6.26c-.72,.13-1.43,.26-2.15,.39,.43-.29,.82-.69,1.14-1.26,.37-.66,1.04-.71,1.75-.6,1.1,.16,2.15,.45,3.17,.83-1.3,.19-2.6,.39-3.9,.63Zm42.6,5.82c-3.61-2.35-7.52-3.98-11.64-5.19-4.22-1.24-8.55-1.73-12.91-1.97-1.06-.06-2.13-.08-3.19-.08,.87-1.55,1.75-3.1,2.58-4.67,1.3-2.46,2.28-5.04,2.89-7.76,1.57-7.04-.63-13.2-4.8-18.65-2.48-3.23-5.55-6.08-9.24-7.98-2.59-1.33-4.3-3.41-5.88-5.69-.31-.45-.57-.95-.85-1.42-.52-.87-1.25-1.19-2.25-.92-1.5,.4-3,.76-4.49,1.19-1.18,.34-2.25,.92-3.22,1.67-.75,.58-1.32,1.33-1.05,2.27,.44,1.56-.16,2.8-.92,4.06-.87,1.44-.88,2.93-.13,4.44,.3,.59,.53,1.21,.8,1.82,.93,2.13,2.64,2.9,4.78,2.16,.52-.18,1.01-.43,1.54-.59,.54-.16,1.23,.39,1.11,.91-.24,1.08-.56,2.13-.86,3.19-.42,1.45-1.11,2.62-2.68,3.13-.85,.28-1.55,.91-2,1.68-1.12,1.89-2.61,3.61-2.74,5.96-.05,.79-.29,1.55-.89,2.09-2.93,2.68-4.64,3.67-7.54,1.5-.43-.32-.99-.5-1.5-.69-1.04-.38-2.1-.69-3.23-.67-1.42,.03-2.23,1.17-1.76,2.49,.27,.76,.73,1.38,1.41,1.79,.66,.39,1.36,.73,2.08,1.02,.89,.35,1.2,.92,.84,1.82-.39,.99,0,1.72,.78,2.3,.71,.53,1.4,1.09,2.15,1.55,1.02,.63,1.73,1.36,1.44,2.69-.21,.94,.21,1.68,.71,2.39-1.07,0-2.14,0-3.21,.02-2.85,.07-5.51-.6-8.06-1.8-1.43-.68-2.83-1.44-4.23-2.18-1.75-.93-3.44-2-5.23-2.82-5.22-2.4-10.47-4.77-15.75-7.05-6.19-2.67-12.44-5.2-18.13-8.92-6.14-4.02-11.31-9-15.37-15.11-1.51-2.27-2.85-4.63-4.06-7.06,2.02,.39,4.04,.83,6.04,1.35,.59,.15,1.22,.18,1.83,.18,.3,0,.57-.27,.57-.62,0-.18-.09-.44-.23-.53-.33-.23-.7-.45-1.08-.57-1.68-.51-3.38-.98-5.06-1.48-1.2-.36-2.37-.79-3.47-1.34-.17-.4-.36-.79-.53-1.2-.45-1.1-.96-2.18-1.42-3.28-.23-.54-.54-.96-.93-1.26,3.75,1.05,7.49,2.11,11.28,2.98,7.25,1.67,14.56,3.1,21.85,4.62,.5,.11,1.03,.2,1.53,.18,.24-.01,.55-.26,.69-.49,.18-.28,.03-.61-.23-.81-.76-.59-1.69-.75-2.59-.95-7.12-1.56-13.37-4.88-19.01-9.42-.13-.1-.14-.36-.19-.52,.24-.34,.56-.21,.85-.13,9.49,2.55,19.01,5,28.24,8.43,.58,.21,1.19,.36,1.79,.46,.42,.07,.83-.11,1.07-.49,.25-.39,.18-.85-.1-1.15-.64-.67-1.33-1.3-2.03-1.91-3.07-2.66-6.73-4.43-10.1-6.65-1.01-.67-2.02-1.36-3.03-2.03,.95-.19,1.71,.06,2.48,.31,6.68,2.23,13.53,3.82,20.38,5.46,4.11,.98,8.21,.77,12.28-.25,.59-.15,1.17-.41,1.71-.7,.58-.3,.61-1.17,.11-1.58-.74-.62-1.63-.86-2.53-1.12-3.48-.99-6.96-2-10.44-2.98-3.69-1.04-7.28-2.35-10.77-3.94-.5-.23-1.28-.28-1.26-1.3,.65-.16,1.34-.33,2.03-.49,2.42-.54,4.87-1,7.26-1.64,1.56-.42,3.04-.47,4.57,.05,.68,.23,1.4,.37,2.1,.56,6.63,1.75,13.34,2.72,20.23,2.71,6.35-.01,12.56-1.09,18.79-1.99,.2-.03,.44-.07,.58-.19,.22-.18,.48-.42,.54-.68,.1-.47-.25-.8-.66-.88-.81-.16-1.63-.23-2.45-.32-1.23-.13-2.47-.21-3.7-.35-5.78-.68-11.29-2.54-16.86-4.09-.4-.11-1.04-.07-.98-.98,3.33,.08,6.65,0,9.93,.3,2.68,.24,5.36,.53,8.05,.37,1.97-.12,3.55,.44,5.2,1.51,3.73,2.4,7.51,4.79,11.8,6.14,6.05,1.9,12.26,2.94,18.58,3.36,.71,.05,1.46-.03,2.15-.2,2.83-.72,5.62-1.56,8.31-2.65,1.56,3.31,3.42,6.46,5.41,9.53,.87,1.34,1.88,2.55,3.04,3.65,3.74,3.57,7.63,6.96,12.12,9.55,1.67,.96,2.51,2.14,2.24,4.07-.11,.78,0,1.59-.12,2.37-.22,1.49-.11,2.97,.09,4.45,.87,6.31,2.36,12.47,4.54,18.45,.68,1.86,1.43,3.7,2.17,5.54,.62,1.54,.66,3.1,.2,4.67-.57,1.91-1.29,3.77-2.49,5.37-2.45,3.26-5.25,6.21-8.2,9.02-1.4,1.34-3.14,1.65-4.97,1.4-1.49-.2-2.86-.77-4.14-1.58-2.77-1.75-5.59-3.42-8.33-5.21Zm163.75,171.89c-.68,.66-1.27-.11-1.82-.43-7.4-4.31-15.17-7.8-23.29-10.48-3.01-.99-6.13-1.63-9.19-2.45-7.09-1.89-14.26-3.45-21.51-4.63-1.69-.27-3.21-.89-4.64-1.86-3.6-2.46-7.16-5.01-10.93-7.2-5.41-3.14-11.1-5.74-17.19-7.34-2.11-.56-4.21-1.15-6.3-1.79-6.52-1.98-13.2-2.65-19.98-2.45-1.18,.04-2.38,.19-3.53,.46-5.26,1.25-10.6,1.4-15.96,1.39-1.62,0-3.14-.34-4.6-1.03-1.43-.68-2.89-1.31-4.31-2.03-2.23-1.13-4.57-1.91-7.01-2.4-.68-.13-1.34-.36-2.01-.54-1.75-.47-2.91-1.56-3.66-3.21-1.94-4.24-3.95-8.44-5.91-12.67-1.21-2.61-2.32-5.26-3.54-7.86-1.19-2.52-2.01-5.17-2.79-7.84-.47-1.62-.98-3.23-1.56-4.81-.45-1.21-.34-2.29,.22-3.43,.96-1.96,1.88-3.94,2.74-5.94,1.15-2.66,1.93-5.43,1.79-8.37-.09-1.75,.68-2.71,2.26-3.38,4.47-1.9,9.09-3.46,13.38-5.77,4.53-2.44,9.16-4.7,13.06-8.2,2.64-2.36,4.61-5.15,6.45-8.1,1.28-2.06,2.14-4.25,2.58-6.61,.21-1.16,.35-2.35,.39-3.54,.08-2.78,.14-5.55,.08-8.33-.03-1.48,.45-2.62,1.29-3.81,3.43-4.86,6.75-9.79,10.08-14.71,1.9-2.81,3.25-5.9,4.37-9.09,1.59-4.51,2.62-9.15,3.14-13.89,.59-5.4-.43-10.5-3.24-15.15-3.37-5.57-3.88-11.58-2.94-17.8,.65-4.32,1.88-8.47,3.47-12.58,2.46-6.38,4.68-12.87,5.44-19.74,.35-3.15,.72-6.31,.81-9.48,.11-3.58,.51-7.12,.87-10.67,.25-2.48,.38-4.93,.36-7.42,0-1.3,0-2.6,0-3.9,.35,2.74,.61,5.48,.8,8.23,.19,2.7,.61,5.33,1.34,7.93,1.03,3.68,2.03,7.37,3,11.07,.42,1.61,.87,3.2,1.66,4.66,1.24,2.29,2.12,4.69,2.8,7.2,.99,3.61,2.83,6.73,5.55,9.32-.54,4.29-.97,8.58-1.36,12.88-.47,5.13-.93,10.27-.86,15.43,.06,3.88,.52,7.72,.99,11.55,.53,4.26,2,8.29,3.77,12.17,2.07,4.52,4.71,8.72,7.52,12.81,2.11,3.07,4.78,5.57,7.96,7.49,3.27,1.98,6.49,4.04,10.03,5.52-1.84,2.01-3.42,4.21-5.01,6.42-.75,1.05-1.27,2.22-1.83,3.37-.54,1.1-1.16,2.16-1.91,3.14-.32,.42-.67,.83-1.06,1.19-1.02,.93-2.17,1.52-3.61,1.38-.63-.06-1.28-.02-1.92-.05-2.09-.1-3.67,.83-5.02,2.34-1.93,2.15-2.46,4.67-2.03,7.44,.14,.94,.45,1.86,.7,2.78,.17,.63,.55,1.15,1,1.61,.34,.35,.36,.74,.16,1.18-.29,.64-.71,1.18-1.15,1.72-1.32,1.58-2.23,3.4-2.62,5.41-.43,2.21-.5,4.45,.06,6.65,.84,3.32,1.09,6.72,1.47,10.1,.11,1,.23,2.01,.25,3.02,.07,2.99-.21,5.97-.71,8.9-.91,5.3-1.62,10.63-2.47,15.94-.27,1.68-.56,3.36-.75,5.06-.24,2.19-.25,4.36,.15,6.52,.21,1.1,.41,2.2,.66,3.29,.44,1.95,1.44,3.54,3.08,4.7,.52,.37,1.02,.77,1.56,1.12,1.19,.78,2.4,.77,3.61,.02,.45-.28,.89-.59,1.3-.92,.46-.37,.83-.82,1.08-1.37,.32-.74,.19-1.33-.46-1.84-.21-.16-.44-.29-.67-.43-.55-.33-1.1-.65-1.65-.98q-1.15-.7-.53-1.93c.24-.47,.64-.9,.48-1.48-.17-.6-.1-.96,.6-1.17,.53-.15,.62-.71,.51-1.21-.11-.55,.03-.78,.62-.8,.44,0,.64-.34,.61-.77-.01-.21-.14-.48-.05-.62,.58-.9,.16-1.6-.45-2.23,.28-.25,.46-.05,.65-.03,.61,.08,.86-.15,.69-.68-.2-.61-.42-1.21-.68-1.79-.5-1.12-.58-2.16,.5-3.01,.23-.18,.32-.42,.28-.7-.04-.33-.04-.64,.27-.86,.5-.35,.44-.8,.2-1.27-.24-.47-.49-.94-.74-1.4,.29-.3,.5,.01,.73,.05,.56,.08,.84-.16,.77-.68-.05-.36-.37-.69-.18-1.07,.46-.9,.34-1.97,.91-2.84,.39-.61,1.08-1.18,.93-1.94-.13-.65-.6-1.22-.97-1.91,.42-.17,.67,.2,.98,.28,.6,.16,.94-.12,.84-.74-.03-.21-.14-.4-.19-.61-.06-.27,.12-.32,.35-.39,.66-.19,.77-.33,.59-.82-.23-.6-.42-1.12-.16-1.82,.18-.49-.14-1.12,.03-1.71,.06-.2-.15-.5-.29-.71-.32-.49-.68-.95-1.01-1.44-.08-.12-.16-.35-.1-.43,.17-.25,.37-.06,.54,.05,.31,.2,.6,.44,.92,.63,.28,.16,.59,.3,.87,0,.22-.23,.13-.51,0-.74-.17-.33-.38-.64-.58-.96-.46-.72-.93-1.43-1.4-2.14-.14-.21-.34-.41-.24-.75,.44-.11,.75,.32,1.17,.33,.33,0,.66-.27,.58-.59-.08-.31-.18-.61-.32-.9-.28-.59-.54-1.15-.14-1.8,.18-.29,.02-.62-.09-.92-.12-.35-.27-.7-.35-1.06-.07-.29,.32-.96,.63-1.03,.41-.1,.5,.3,.66,.56,.19,.32,.36,.65,.56,.97,.15,.23,.38,.45,.66,.36,.7-.24,.96,.2,1.23,.68,.1,.19,.22,.37,.34,.54,.62,.81,.94,.81,1.72,0,.06-.06,.17-.08,.33-.15,.21,.28,.43,.57,.65,.87,.38,.51,.82,.83,1.5,.58,.29-.1,.51,.07,.66,.31,.2,.31,.4,.63,.61,.93,.22,.32,.49,.59,.91,.55,.53-.05,.76,.29,.97,.68,.33,.6,.69,.94,1.53,.79,.56-.1,1.23,.28,1.55,.92,.1,.19,.18,.39,.26,.58,.2,.48,.55,.73,1.08,.83,1.65,.33,1.89,.16,1.38,2.2-.18,.72-.36,1.45-.54,2.17-.27,1.08-.61,2.15-.31,3.3,.08,.29-.02,.63-.04,.95-.05,1.08,.06,2.13,.73,3.04,.15,.21,.31,.47,.32,.72,.07,1.83,1.13,3.43,1.17,5.26,0,.36,.06,.8,.26,1.07,.68,.91,.69,1.99,.87,3.03,.14,.85,.31,1.66,1.02,2.27,.26,.22,.36,.64,.53,.97,.37,.73,.47,.74,1.12,.16,.06-.06,.17-.07,.29-.13,.1,.25,.21,.49,.28,.74,.27,.99,.63,1.91,1.63,2.43,.26,.14,.42,.47,.63,.71,.17,.2,.3,.51,.52,.59,.89,.32,1.46,.97,1.99,1.7,.16,.23,.44,.22,.73,.18,.81-.11,1.03-.81,1.38-1.46,.7,.46,.93,1.11,1.15,1.75,.4,1.22,.94,2.38,1.54,3.51,.17,.33,.37,.65,.56,.96,.73,1.18,3.03,1.17,3.67-.12,.36-.73,.67-1.43,.73-2.25,.11-1.56-.16-3.08-.49-4.59-.37-1.72-.8-3.42-1.25-5.12-.37-1.4-1.07-2.66-1.79-3.91-1.42-2.47-2.42-5.09-3-7.88-.01-.05-.03-.1-.03-.16-.19-1.8-.3-3.6-.28-5.41,.03-3.07,.88-5.99,1.6-8.94,.17-.67,.4-1.33,.54-2,.28-1.39,.91-2.61,1.7-3.76,1.05-1.54,2.09-3.09,3.19-4.6,1.24-1.7,2.13-3.56,2.91-5.49,.28-.7,.4-1.43,.45-2.18,.15-2.09-.17-4.15-.44-6.2-.17-1.27-.4-2.52-.58-3.79-.36-2.49-1-4.9-1.84-7.27-.41-1.16-.97-2.25-1.7-3.24-1.54-2.09-4.41-2.16-6.02-.11-1.3,1.66-2.19,3.54-2.63,5.6-.46,2.14-.83,4.29-.54,6.5,.02,.14,0,.35-.1,.44-.18,.17-.39,.03-.58-.07-.18-.11-.37-.22-.54-.34-2.55-1.86-5.33-3.32-8.1-4.8-.23-.13-.48-.24-.7-.39-.31-.2-.43-.44-.13-.78,.38-.42,.31-.93,.04-1.34-.54-.81-.29-1.77-.6-2.61-.03-.09-.02-.24,.04-.3,.68-.78,.16-1.5-.09-2.24-.12-.36,.05-.42,.41-.41,.6,.02,.68-.06,.65-.59-.02-.38-.09-.73,.16-1.07,.28-.37,.27-.81,.15-1.23-.13-.46-.08-.82,.34-1.12,.23-.16,.31-.46,.17-.71-.34-.59-.22-.83,.49-.79,.22,.01,.34-.26,.33-.48-.01-.26-.1-.52-.11-.78,0-.14,.04-.38,.13-.41,.84-.35,.6-1,.5-1.63,0-.04,.05-.08,.1-.15,.48,.06,1,.35,1.41-.24,.12-.17,.49-.15,.72-.25,.22-.1,.3-.31,.21-.53-.07-.2-.19-.38-.3-.56-.14-.26-.17-.5,.11-.69,.13-.09,.3-.18,.35-.31,.24-.58,.73-.54,1.21-.54,.15,0,.31,.06,.46,.12,.34,.14,.71,.38,1-.03,.1-.14,.11-.29,.08-.44,1.12,.49,2.26,.96,3.41,1.39,6.06,2.3,11.71,5.33,16.56,9.75,2.52,2.3,4.51,5.01,6.45,7.76,2.64,3.75,4.66,7.82,5.91,12.27,.9,3.17,1.45,6.39,1.55,9.66,.14,4.36,.11,8.73,.09,13.09,0,2.59-.44,5.14-1.06,7.65-.94,3.85-.72,7.63,.07,11.49,1.44,7.1,3.22,14.11,5.01,21.12,1.08,4.22,1.89,8.52,2.78,12.79,.18,.87,.29,1.77,.29,2.66,0,4.26,.14,8.52-.29,12.78-.29,2.86,.22,5.73,.7,8.57,.45,2.65,1.28,5.2,2.12,7.74,.59,1.79,1.17,3.58,1.74,5.38,.17,.55,.61,1.21,.13,1.67Z"/><path class="cls-6" d="M495.93,177.18c.4,.02,.82-.1,1.22-.19,4.28-.91,8.61-1.1,12.97-.88,.92,.05,1.87,.04,2.78-.11,1.48-.24,2.31-1.38,2.23-2.88-.06-1.06-.5-2-.99-2.91-1.49-2.72-2.82-5.55-4.54-8.13-3.38-5.09-5.39-10.69-6.79-16.56-.38-1.62-.99-3.16-1.79-4.62-.3-.54-.66-1.06-1.1-1.49-.99-.96-2.36-.82-3.28,.24-.57,.66-.75,1.44-.8,2.29-.08,1.57,.29,3.09,.45,4.63,.05,.44,.26,1.05-.57,1.21-.54-.6-1.06-1.23-1.65-1.8-.37-.37-.85-.63-1.4-.34-.53,.28-.62,.82-.57,1.34,.09,.92,.28,1.84,.38,2.76,.1,.98,.38,1.99-.06,2.95-.89-.04-1.1-.72-1.51-1.14-1.36-1.41-2.69-2.86-4.07-4.26-.16-.16-.61-.21-.84-.11-.23,.1-.51,.45-.5,.68,.03,.71,.19,1.42,.28,2.14,.06,.5,.27,1.12-.2,1.46-.63,.45-1.17-.1-1.64-.45-1.66-1.23-3.32-2.47-4.94-3.76-2.38-1.88-4.27-4.17-5.86-6.76-1.86-3.04-3.24-6.23-3.87-9.75-.09-.51-.23-1.01-.41-1.49-.15-.39-.44-.75-.91-.6-.24,.08-.44,.38-.6,.62-.1,.16-.1,.4-.12,.6-.41,4.31,.11,8.46,2.13,12.36,.52,1.01,1.02,2.03,1.49,3.07,.2,.45,.66,1.05,.2,1.41-.63,.5-1.11-.21-1.53-.59-1.87-1.64-3.6-3.41-5.16-5.36-2.41-2.99-4.45-6.22-6.67-9.34-2.34-3.29-4.75-6.53-7.18-9.74-1.02-1.35-1.96-1.74-2.51-1.22-.86,.81-.41,1.75-.1,2.6,.91,2.53,1.91,5.03,2.82,7.56,.27,.74,.82,1.43,.53,2.47-.88-.34-1.29-1.06-1.79-1.67-3.3-4.12-6.6-8.23-9.9-12.35-.71-.89-1.4-1.81-2.5-2.27-.39-.16-.8-.24-1.19,.01-.5,.32-.67,.84-.47,1.35,.54,1.34,1.19,2.63,1.75,3.97,1.83,4.32,4.17,8.32,7.39,11.76,.27,.29,.56,.61,.39,1.08-.19,.04-.42,.17-.55,.1-6.24-3.06-12.27-6.45-17.32-11.34-1.63-1.58-3.39-3.04-5.09-4.55-.54-.48-1.09-.95-1.81-1.16-.6-.17-1.33,.4-1.22,1.01,.07,.4,.13,.84,.33,1.18,.62,1.07,1.27,2.13,1.98,3.15,3.01,4.34,6.51,8.3,9.81,12.42,.26,.33,.91,.6,.42,1.33-.54-.35-1.08-.65-1.57-1.01-6.61-4.83-12.87-10.07-18.63-15.89-1.6-1.62-3.24-3.2-4.88-4.78-.6-.57-1.25-1.08-2.08-1.31-.59-.16-1.26,.4-1.26,1.02,0,.76,.34,1.4,.68,2.04,1.9,3.56,3.81,7.11,5.73,10.66,1.23,2.27,2.51,4.52,3.75,6.79,.14,.25,.25,.67,.13,.87-.26,.46-.73,.25-1.1,.09-2.86-1.24-5.87-2.01-8.87-2.79-8.21-2.14-16.55-3.66-24.92-5.08-1.13-.19-2.26-.2-3.4-.03-1.02,.15-2.05,.3-3.07,.42-3.92,.48-7.75,1.31-11.35,2.99-.56,.26-1.09,.58-1.59,.94-.37,.27-.29,1.07,.04,1.39,.47,.46,1.07,.66,1.67,.77,1.83,.35,3.65,.75,5.5,.95,2.98,.32,5.98,.41,8.96,.76,7.22,.85,14.22,2.64,21.06,5.09,2.92,1.05,5.81,2.17,8.71,3.28,.55,.21,1.25,.19,1.54,.9-.67,.46-1.37,.13-2.05,.04-3.3-.41-6.62-.54-9.91-.18-3.7,.41-7.37,.99-11.1,1.17-1.74,.09-3.49,.44-5.19,.88-1.64,.43-3.02,1.35-3.71,3.03-.24,.6,.25,1.33,.89,1.31,.31,0,.63,0,.92-.1,2.5-.85,5.1-.76,7.68-.77,1.65,0,3.33,.12,4.96-.11,2.8-.4,5.56-.44,8.34,.04,.91,.16,1.86,.11,2.79,.17,3.2,.22,6.39,.42,9.59,.69,.91,.08,1.81,.37,2.71,.57,0,.1,0,.21,.01,.31-1.53,.23-3.06,.44-4.59,.68-4.32,.66-8.52,1.69-12.34,3.93-1.71,1-3.6,1.63-5.51,2.05-3.96,.88-7.18,3.12-10.38,5.41-.58,.41-1.05,1-1.47,1.58-.83,1.13-.98,2.05-.43,2.52,.78,.67,1.58,.25,2.32-.07,3.45-1.44,7.02-2.49,10.62-3.45,3.1-.83,6.14-1.84,9.14-3,3.38-1.31,6.83-2.38,10.47-2.79,2.98-.33,5.95-.74,8.92-1.18,5.87-.86,11.77-.55,17.66-.36,.66,.02,1.42,0,1.99,.91-2.25,.02-4.22,.65-6.13,1.41-3.17,1.26-6.34,2.55-9.43,3.99-2.93,1.37-5.94,2.41-9.07,3.13-2.32,.53-4.63,1.09-6.95,1.61-2.83,.63-5.68,1.1-8.6,1.08-1.14,0-2.28,0-3.41,.06-.39,.02-.78,.21-1.14,.4-.15,.08-.28,.33-.29,.51,0,.17,.11,.41,.25,.52,.79,.64,1.76,.47,2.68,.54,4.02,.31,8.05,.52,12.06,.93,3.21,.33,6.39,.38,9.59,0,1.95-.23,3.92-.22,5.89-.31,.28-.01,.6-.05,.76,.3-.42,.7-1.22,.64-1.86,.91-1.04,.44-2.28,.37-3.12,1.26-.17,.18-.19,.56-.17,.83,.01,.15,.24,.32,.41,.41,.17,.09,.4,.14,.59,.13,3.31-.11,6.63,.15,9.92-.37,2.16-.34,4.36-.47,6.49-.15,2.63,.39,5.15,.03,7.7-.43,6.32-1.13,12.51-2.81,18.73-4.37,.39-.1,.89-.52,1.3,.23-1.14,.59-2.23,1.17-3.32,1.72-1.95,.99-3.77,2.16-5.31,3.73-2.09,2.14-4.68,3.36-7.53,4.12-1.1,.29-2.22,.53-3.29,.91-.94,.34-2.05,.62-2.25,1.85-.12,.75,.87,1.28,2.8,1.33,3,.08,6,.03,9,.05,3.54,.02,7-.56,10.44-1.36,2.82-.65,5.65-1.25,8.49-1.84,4.15-.86,8.38-1.36,12.44-2.65,3.06-.97,6.1-2,9.38-1.83Z"/><path class="cls-6" d="M476.71,132.84c-.19,.14-.29,.59-.23,.83,.07,.24,.38,.54,.63,.58,.5,.09,1.03,.08,1.53,.02,2.85-.34,5.73-.51,8.3-2.09,.22,.69-.14,.95-.39,1.23-.47,.55-1.01,1.05-1.45,1.62-.16,.21-.21,.58-.16,.85,.06,.32,.39,.52,.71,.46,2.98-.49,5.88-1.22,8.36-3.07,.48-.36,.95-.84,1.22-1.37,1.05-2.04,1.7-4.23,1.87-6.52,.05-.7-.09-1.46-.32-2.13-.56-1.62-1.71-2.61-3.47-2.59-1.13,0-2.28,.14-3.38,.39-3.86,.88-7.36,2.68-10.87,4.44-.09,.04-.16,.13-.24,.2-.24,.2-.19,.94,.06,1.14,.62,.47,1.34,.52,2.07,.51,1.2-.02,2.41-.06,4.01-.11-1.97,1.9-3.93,3.02-5.9,4.13-.81,.46-1.61,.93-2.36,1.47Z"/></g><path class="cls-6" d="M216.19,370.33c-.04,2.28-.25,4.49,.12,6.66,1.08,6.35,0,12.36-2.66,18.15-1.19,2.59-2.1,5.27-2.52,8.11-.14,.98-.19,1.93-.03,2.91,.16,.96,.19,1.94,.35,2.91,.34,2.08-.02,4.07-.69,6.02-1.22,3.54-2.85,6.9-4.85,10.05-1.72,2.7-3.43,5.39-4.8,8.29-.26,.56-.55,1.13-.94,1.61-.62,.77-.76,1.57-.43,2.48,.73,2.01,.28,3.83-.81,5.58-.37,.6-.73,1.23-.98,1.89-.67,1.76-2.03,2.69-3.76,3.05-1.21,.25-2.44,.39-3.61,.86-.82,.33-1.57,.03-2.22-.52-1.8-1.54-3.16-3.37-3.55-5.77-.42-2.54-.85-5.09-.49-7.67,.13-.96-.11-1.68-.78-2.4-1.81-1.94-2.75-4.29-3.15-6.91-.65-4.24-.6-8.47-.14-12.73,.4-3.63,1.09-7.18,1.93-10.73,.79-3.35,.67-6.73-.7-9.93-1.06-2.47-1.23-4.99-.83-7.57,.24-1.5,.34-3,.33-4.51-.02-4.7-.03-9.41-.05-14.11-.03-5.88,.7-11.67,2.02-17.4,1.44-6.22,2.91-12.44,4.22-18.7,1.12-5.38,1.79-10.84,2.4-16.31,.38-3.46,.26-6.92,.57-10.35,.34-3.64,.11-7.29,.52-10.89,.38-3.44,.35-6.9,.8-10.34,.45-3.42,.45-6.9,.74-10.34,.46-5.4,.48-10.81,.56-16.22,.02-1.8,.53-3.5,1.32-5.12,.34-.71,.82-1.47,.83-2.22,.02-1.44,.03-2.82,.94-4.05,.18-.24,.11-.68,.09-1.03-.01-.26-.13-.52-.18-.78-.72-3.39,.63-5.27,4.09-5.63,.61-.07,1.24-.06,1.86-.02,3.1,.24,5.1,2.68,4.38,5.68-.35,1.46-.11,2.52,.67,3.71,1.29,1.96,1.96,4.17,1.97,6.54,0,2.48-.03,4.97,.44,7.43,.16,.86,.09,1.77,.09,2.66,0,2.49,0,4.97-.02,7.46-.06,6.52,.83,12.91,2.37,19.23,.78,3.19,1.72,6.34,2.14,9.61,.27,2.11,.53,4.22,.84,6.33,.17,1.14,.41,2.27,.64,3.4,.16,.76,.64,1.25,1.38,1.48,.25,.08,.5,.2,.76,.25,1.92,.32,3.45,1.37,4.89,2.57,2.47,2.05,4.74,4.28,6.27,7.16,.55,1.03,1,2.07,1.33,3.19,.46,1.56,.63,3.12,.11,4.71-.24,.76-.38,1.55-.62,2.31-.93,2.99-.68,5.95,.15,8.91,.52,1.88,1.09,3.75,1.92,5.53,2.06,4.44,2.15,9.11,1.62,13.83-.27,2.38-.8,4.72-1.16,7.09-.44,2.91-.5,5.85,0,8.75,.86,5.08,1.5,10.17,2.02,15.29,.29,2.92,.2,5.86,.56,8.76,.32,2.66,.31,5.31,.36,7.97,.03,1.8-.33,3.5-.9,5.21-.67,2.01-1.11,4.1-1.62,6.16-.46,1.83-1.3,3.5-2.23,5.11-1.12,1.94-2.83,3.18-4.99,3.72-2.4,.6-4.21-.47-4.92-2.85-.34-1.12-.38-2.28-.15-3.43,.18-.88,.79-1.42,1.63-1.51,.86-.09,1.47,.26,1.86,1.16,.14,.32,.16,.69,.31,1.01,.13,.3,.44,.3,.67,.14,.7-.48,.98-1.23,1.27-1.98,.66-1.7,.49-3.5,.72-5.26,.05-.38-.22-.84-.43-1.22-1.33-2.44-2.2-5.03-2.8-7.73-1.98-8.93-3.56-17.93-4.99-26.96-.35-2.19-.83-4.36-1.29-6.53-.08-.4-.05-.91-.75-1.2Zm-19.52,20.82c-.68,.71-.69,1.16-.74,1.6-.33,3.07-.69,6.15-.99,9.23-.2,2.04-.09,4.07,.49,6.05,.08,.26,.25,.5,.56,.44,.15-.03,.33-.18,.39-.33,.95-2.29,1.97-4.55,2.45-6.99,.12-.59,.15-1.26,0-1.84-.66-2.64-1.39-5.26-2.17-8.16Z"/><path class="cls-6" d="M536.8,183.85l-4.19-1.84c-2.02-.89-4.06-1.78-6.21-2.45-5.33-1.65-11.23-1.88-16.53-3.58-1.15-.37-2.28-.81-3.19-1.48s-1.6-1.58-1.67-2.58c-.07-1.04,.53-2.05,1.4-2.82,.31-.27,.68-.53,1.13-.6,.41-.06,.83,.04,1.22,.15,4.65,1.3,8.95,3.36,13.69,4.4,4.47,.98,9.2,1.02,13.68,1.96"/></g></g></svg>