<?xml version="1.0" encoding="UTF-8"?><svg id="Ebene_2" xmlns="http://www.w3.org/2000/svg" xmlns:xlink="http://www.w3.org/1999/xlink" viewBox="0 0 841.89 595.28"><defs><style>.cls-1{fill:none;}.cls-2{clip-path:url(#clippath);}.cls-3{fill:#b2b2b2;}.cls-4{fill:#706f6f;}.cls-5{fill:#575756;}</style><clipPath id="clippath"><rect class="cls-1" width="841.89" height="595.28"/></clipPath></defs><g id="Ebene_1-2"><g class="cls-2"><path class="cls-3" d="M0,290.75c1.06-.34,2.14-.63,3.18-1.02,2.03-.76,4.12-1.1,6.29-.99,2.75,.13,5.5,.19,8.25,.31,4.05,.17,7.85,1.14,11.11,3.7,.24,.19,.53,.33,.73,.55,3.04,3.42,6.27,6.73,7.84,11.15,1.43,4.02,2.75,8.1,3.2,12.37,.24,2.32,.28,4.67,.33,7,.1,4.58,.15,9.15,.19,13.73,.01,1.52-.02,3.05-.12,4.57-.33,5.38-.69,10.76-1.03,16.14-.07,1.12-.05,2.24-.13,3.35-.18,2.53-.42,5.06-.58,7.59-.15,2.33-.31,4.66-.32,6.99-.01,2.75,.16,5.49,.19,8.24,.07,6.62,.5,13.21,1.18,19.79,.43,4.16,1.5,8.2,2.87,12.14,1.6,4.62,2.89,9.32,3.88,14.1,.92,4.41,2.54,8.57,4.59,12.57,.37,.72,.83,1.4,1.22,2.12,1.58,2.89,4.08,4.43,7.26,5.03,1.7,.32,3.39,.72,5.05,1.19,2.97,.84,5.75,2.05,7.73,4.59,.88,1.12,2.17,1.47,3.52,1.57,2.54,.19,5.08,.4,7.63,.51,2.46,.11,4.87,.46,7.19,1.3,1.66,.6,3.36,.8,5.11,.76,2.18-.06,4.26,.35,6.23,1.28,3.18,1.5,6.49,1.79,9.83,.8,3.54-1.05,7.18-1.44,10.78-2.12,2.5-.47,5.01-.88,7.5-1.41,2.79-.59,5.59-1.05,8.45-1.23,4.45-.28,4.24-.67,5.14-4.54,.14-.59,.17-1.21,.16-1.82-.08-2.59,.53-5.04,1.35-7.46,.36-1.06,.7-2.13,1.08-3.18,1.61-4.43,1.62-8.96,.93-13.55-.29-1.91-.65-3.82-.76-5.74-.22-3.67-.81-7.27-1.54-10.86-.22-1.09-.35-2.21-.42-3.32-.35-5.14,2.37-8.42,6.67-10.66,.89-.46,1.89-.74,2.87-1.03,1.65-.49,3.32-.93,5.01-1.39,0-1.4,.03-2.7,0-4-.04-1.35,.11-2.63,.85-3.8,.79-1.26,1.79-2.21,3.3-2.5,2.01-.39,3.84-1.12,5.66-2.14,3.03-1.71,6.54-2.07,9.81-1.25,3.6,.91,6.62,2.88,7.94,6.87,.89,2.69,1.22,5.32,.99,8.08-.33,4.05-.7,8.1-.96,12.16-.27,4.26-.48,8.53-.13,12.8,.14,1.72,.44,3.43,.78,5.12,.85,4.2,1.29,8.44,1.62,12.7,.35,4.52,1.69,8.76,3.54,12.87,.08,.17,.29,.27,.58,.54,2.47-.36,5.07-.73,7.7-1.11,.28-.65,.58-1.19,.73-1.76,1.33-4.9,2.64-9.81,3.32-14.86,.03-.2,.06-.4,.07-.61,.23-4.16,.5-8.31,.69-12.47,.11-2.45-.3-4.86-.72-7.27-.19-1.08-.4-2.32-.05-3.29,.95-2.57,.87-5.2,.92-7.83,.07-3.56,0-7.12-.05-10.68-.01-1.12-.13-2.23-.21-3.35-.14-1.93-.29-3.85-.42-5.78-.14-2.23-.18-4.47-.4-6.7-.18-1.77,0-3.47,.61-5.1,1.08-2.86,2.01-5.76,2.47-8.79,.28-1.84,1.29-3.17,2.99-3.98,.46-.22,.92-.45,1.34-.74,4.05-2.85,8.55-3.02,13.2-2.16,3.3,.61,6.58,1.33,9.87,2,1,.2,2,.4,2.99,.63,4.11,.96,6.36,3.8,5.83,7.98-.58,4.6,1.07,8.59,2.77,12.63,1.81,1.43,1.78,3.18,1.11,5.19-.23,.7-.01,1.62,.22,2.37,.59,1.97,.76,3.96,.87,6.01,.14,2.73,.63,5.45,.86,8.17,.19,2.22,.39,4.46,.33,6.69-.12,4.48,.79,8.64,2.92,12.61,1.62,3.03,2.91,6.25,4.4,9.51,1.01,.35,2.08,.21,3.15-.23,1.5-.63,3.02-1.23,4.52-1.85,2.75-1.13,5.59-1.85,8.56-2.14,2.33-.23,4.63-.77,6.96-.95,5.07-.4,10.15-.69,15.23-.98,.81-.05,1.63,.09,2.44,.17,1.74,.16,3.44,0,5.17-.25,1.69-.24,3.51-.42,5.15-.05,3.78,.84,7.5,.4,11.26,.11,4.87-.38,9.76-.68,14.64-1,.51-.03,1.03-.04,1.53,.04,6.46,1.06,12.79-.29,19.15-1.03,3.84-.45,7.67-1.04,11.49-1.7,1.92-.33,3.63-.04,5.28,.94,1.74,1.03,3.52,2.02,5.23,3.1,.39,.25,.57,.8,.9,1.17,.46,.51,.96,.97,1.49,1.49,1.32-.86,2.1-1.88,2.21-3.28,.29-3.79,2.1-6.97,3.97-10.13,1.86-3.15,4.5-5.22,8.25-5.63,2.33-.26,4.66-.66,6.99-.7,2.47-.04,4.9-.22,7.23-1,2.45-.82,4.4-.12,6.06,1.68,.76,.82,1.49,1.68,2.12,2.6,.39,.57,.78,1.28,.8,1.94,.14,3.49,1.33,6.78,1.91,10.18,.38,2.2,.8,4.4,1.19,6.6,.34,1.91,.88,3.76,1.74,5.51,.63,1.27,.64,1.27,2.46,2.21,1.3-2,1.76-4.28,2.07-6.58,.23-1.71,.27-3.45,.42-5.17,.24-2.77,1.09-5.34,2.41-7.81,1.09-2.03,2.66-3.23,4.85-3.86,2.24-.65,4.44-1.48,6.64-2.26,.37-.13,.69-.4,1.11-.66,.09-.7,.19-1.4,.28-2.09,.73-5.96,5.73-10.03,11.73-9.55,3.07,.24,5.11,1.93,5.77,4.96,.28,1.28,.38,2.62,.37,3.93-.1,7.01,.19,14.04-.61,21.04-.11,1-.1,2.01-.14,2.87,.83,.95,1.82,.74,2.69,.93,.79,.18,1.59,.32,2.51,.49,1.33-1.16,1.98-2.74,2.46-4.39,1.41-4.91,2.46-9.88,2.19-15.02-.19-3.58-.1-7.12,.76-10.61,.54-2.21,.62-4.41,.1-6.65-.23-.99-.3-2.01-.38-3.03-.13-1.65,.03-3.28,.89-4.72,1.11-1.85,1.27-3.81,1.05-5.88-.32-3.1,.96-5.29,3.75-6.59,3.07-1.44,5.96-1.01,8.46,1.33,.5,.47,.96,1.09,1.2,1.72,.35,.94,.68,1.96,.69,2.95,.03,5.91,.64,11.78,1.03,17.66,.14,2.02-.16,4.06-.2,6.09-.07,3.76-.09,7.52-.12,11.28,0,.27,.13,.54,.31,1.19,.39-.7,.68-1.08,.83-1.52,1.02-3.05,1.41-6.18,.58-9.31-.67-2.52-.37-4.84,.9-7.05,.82-1.43,.94-2.9,.37-4.4-.53-1.41-.16-2.6,.74-3.68,1.17-1.4,2.38-2.77,3.59-4.14,.49-.56,1.12-.87,1.88-.87,1.43,0,2.86-.1,4.28,.01,1.63,.13,2.89,.98,3.55,2.52,.4,.93,.81,1.9,.93,2.89,.3,2.62,.69,5.27,.59,7.89-.25,6.22-.02,12.41,.97,18.54,.67,4.14,.89,8.28,.71,12.46-.08,1.93-.05,3.86,0,5.79,.02,.56,.28,1.11,.49,1.88,.77-.53,1.38-.88,1.91-1.31,3.17-2.56,6.36-5.09,9.47-7.73,2.25-1.91,4.41-3.92,6.51-6,.93-.92,1.7-2.03,2.37-3.16,2.24-3.78,3.87-7.84,5.05-12.07,.46-1.65,.73-3.38,.93-5.09,1.07-9.19,2.09-18.39,3.12-27.58,.37-3.33,.62-6.68,1.06-10.01,.52-3.93,1.18-7.84,1.78-11.76,.08-.5,.22-1,.24-1.51,.31-6.7,1.27-13.39,.52-20.11-.55-4.88,1.31-8.73,4.81-11.95,.67-.62,1.39-1.2,2.05-1.84,1.15-1.13,1.78-2.46,1.52-4.12-.06-.4-.08-.81-.16-1.21-.67-3.59,.87-6.39,3.4-8.67,1.42-1.28,3.03-2.49,4.77-3.25,3.07-1.35,4.46-3.7,5-6.78,.09-.5,.17-1,.26-1.5,.68-3.53,2.64-6.11,5.86-7.73,2.02-1.02,4.18-1.6,6.42-1.84,6.49-.71,12.99-1.18,19.53-1.17,6.42,.01,12.85,0,19.27,0,4.9,0,9.77-.36,14.63-1.01,2.31-.31,4.68-.25,7.02-.18,2.67,.07,5,1.29,6.81,3.1,2.73,2.73,5.89,4.63,9.42,6.07,3.46,1.42,5.92,3.98,7.46,7.32,1.15,2.49,2.08,5.08,3.04,7.64,.89,2.38,1.65,4.81,2.54,7.19,.91,2.43,1.26,4.9,.92,7.49-.16,1.21-.23,2.43-.24,3.65-.03,2.05,.79,3.75,2.39,5.06,1.02,.84,2.08,1.65,3.06,2.54,2.52,2.3,4.05,5.04,3.92,8.58-.13,3.66-.03,7.32-.28,10.97-.16,2.42-.76,4.82-1.15,7.22-.93,5.65-.97,11.34-.86,17.04,.08,3.97,.19,7.92,.75,11.87,.51,3.52,.66,7.09,1.13,10.61,.68,5.04,1.51,10.05,2.26,15.08,.16,1.1,.28,2.22,.38,3.33,.25,2.73,.48,5.46,.69,8.2,.15,1.92,.38,3.85,.38,5.78,0,2.77,.31,5.49,.97,8.16,1.13,4.58,1.58,9.2,1.54,13.9-.05,7.06,.92,14,3.16,20.71,.76,2.3,1.84,4.5,2.84,6.92,.91,.09,1.8,.28,2.69,.26,7.44-.15,14.86-.7,22.26-1.52,.4-.04,.78-.17,1.31-.29,.11-.58,.29-1.15,.33-1.73,.27-4.49-.35-8.93-.79-13.38-.34-3.44-.61-6.88-.87-10.33-.24-3.24-.43-6.49-.61-9.74-.1-1.73-.12-3.45-.19-5.18-.12-3.05-.28-6.09-.35-9.14-.1-4.27-.13-8.54-.17-12.81,0-.5,.02-1.05,.22-1.5,.88-2.02,.92-4.15,.96-6.29,.08-3.57,.67-7.08,1.53-10.54,.78-3.16,1.47-6.33,2.26-9.49,.6-2.4,.79-4.85,.49-7.27-.36-2.9,.89-4.92,3.01-6.57,.96-.75,2.04-1.34,3.08-1.97,1.83-1.12,1.95-1.37,1.56-3.44-.53-2.8,.14-4.36,2.55-5.91,1.65-1.07,3.48-1.71,5.37-2.12,5.08-1.11,10.17-2.1,15.37-2.52,1.82-.15,3.62-.58,5.4-.97,1.96-.43,3.25-1.72,3.79-3.61,.73-2.54,1.4-5.12,.52-7.79-.48-1.47-.2-2.82,.63-4.07,.62-.93,1.25-1.87,1.99-2.7,3.65-4.12,5.05-8.97,4.73-14.38-.27-4.51,1.58-7.64,5.83-9.3,6.1-2.38,12.4-4.01,18.93-4.67,2.36-.24,4.69-.31,6.63,1.48,.32,.29,.94,.36,1.42,.35,1.32-.02,2.65-.08,3.97-.23,5.87-.65,11.58,.15,17.23,1.68,2.65,.72,5.35,1.29,7.99,2.04,1.46,.42,2.86,1.04,4.26,1.64,1.55,.66,2.33,1.9,2.54,3.54,.04,.3,.09,.6,.12,.91,.76,6.38,1.14,12.75,.22,19.16-.42,2.92-.64,5.86-.87,8.8-.11,1.41-.16,2.87,.03,4.26,.56,3.96,.41,7.93,.19,11.88-.33,5.92,.31,11.79,.61,17.67,.14,2.64,.54,5.26,.76,7.9,.54,6.5-.69,12.76-2.66,18.91-.59,1.84-1.32,3.63-1.89,5.48-1.53,4.94-1.46,9.75,.81,14.54,2.69,5.68,3.27,11.69,2.25,17.88-.33,2-.68,4.01-.87,6.03-.35,3.63,1.95,5.81,4.55,7.74,.7,.52,1.59,.4,2.36,.1,1.36-.52,2.76-.67,4.2-.59v134.27H0V290.75Z"/><path class="cls-4" d="M867.68,187.68c.79-.04,1.57-.12,2.36-.11,.31,0,.63,.18,.92,.33,.51,.27,.49,1.01-.05,1.28-.29,.14-.62,.2-.93,.28-.23,.06-.47,.11-.7,.36,.98,.13,1.95,.26,2.93,.38,.26,.03,.53,.04,.79,.08,1.63,.26,1.83,.64,1.15,2.24,2.67,.8,5.41,1.22,8.18,1.3,3.03,.08,6.07,.06,9.11,0,3.06-.06,6.05,.39,9.03,.99,.5,.1,1.02,.15,1.59,.24-.05-.62-.14-1.11-.12-1.61,.02-.44,.64-.83,1.03-.65,.47,.21,.95,.47,1.35,.8,.91,.75,1.78,1.55,2.74,2.4,.64-.35,1.3-.73,1.99-.15,.04,.04,.17,.06,.19,.04,.88-1.03,1.63,.05,2.5,.26,0-.56-.03-1.01,.02-1.45,.02-.16,.21-.39,.35-.42,.24-.04,.54-.02,.74,.1,.2,.13,.32,.4,.44,.63,.16,.28,.21,.76,.44,.85,1.32,.56,1.22,1.75,1.4,2.84,.06,.39,.18,.76,.29,1.25,.93,.11,1.66,.64,2.38,1.19,.35,.27,.72,.61,.9,1,.32,.68,.86,.95,1.51,1.16,.94,.3,1.87,.62,2.79,.95,.25,.09,.51,.2,.68,.39,.21,.23,.48,.56,.44,.8-.05,.32-.38,.6-.67,1.02,.37,.82,1.7,.71,2.19,1.74-.02,1.12-.66,2.14-1.1,3.38,.41,.55,.89,1.17,1.36,1.8,1.15,1.53,2.28,3.07,2.95,4.89,.42,1.14,1.41,1.88,2.27,2.7,1.62,1.55,3.31,3.03,4.89,4.62,2.43,2.44,4.06,5.35,4.76,8.74,.23,1.11,.76,1.97,1.72,2.52,1.14,.66,2.29,1.31,3.48,1.88,1.75,.83,3.27,1.98,4.63,3.35,1,1.01,1.7,2.18,1.68,3.68-.01,.95-.16,1.89-.84,2.57-2.15,2.14-2.71,4.92-3.13,7.72-.21,1.43-1,2.39-1.99,3.28-.28,.25-.71,.47-1.07,.47-.92,0-1.41,.56-1.94,1.18-.55,.64-1.21,1.06-2.06,.47-.32-.22-.61-.17-.92,0-.4,.22-.8,.46-1.21,.67-1.13,.58-1.73,.42-2.5-.64-.15-.2-.29-.41-.45-.63-.24,.12-.43,.18-.58,.29-.78,.62-1.51,.68-2.3-.04-.32-.29-.79-.43-1.19-.64-.47-.23-.93-.46-1.38-.68-.69,.13-1.38,.38-2.07,.36-.64-.01-1.27-.31-2.02-.51-.23,.19-.57,.4-.82,.69-.56,.66-1.07,1.34-2.01,1.5-.23,.04-.44,.28-.63,.46-.29,.27-.6,.53-.83,.85-2.13,2.95-5.26,4.04-8.63,4.71-3.04,.61-6.07,1.24-9.1,1.85-.39,.08-.78,.12-1.17,.18-1.3,.21-2.61,.38-3.9,.64-1.55,.31-3.1,.61-4.7,.62-2.84,.03-5.2,1.12-7.18,3.22-1.91,2.03-3.65,4.16-5.08,6.54-.41,.68-.88,1.32-1.36,1.94-2.79,3.6-5.56,7.21-8.41,10.76-.82,1.02-1.81,1.92-2.85,2.73-1.72,1.34-3.39,2.72-4.95,4.26-3.78,3.73-8.11,6.79-12.7,9.4-6.37,3.61-12.94,6.84-19.75,9.56-5.82,2.32-11.76,4.3-17.88,5.71-5.2,1.2-10.4,2.39-15.6,3.59-5.14,1.18-10.27,2.39-15.42,3.51-3.1,.68-6.12,1.59-9.08,2.72-1.73,.65-3.42,1.39-5.15,2.04-2.94,1.12-5.21,3.03-6.94,5.64-2,3.02-3.24,6.33-3.99,9.84-.92,4.32-1.79,8.65-2.67,12.98-.42,2.04-.33,4.08,.02,6.11,.31,1.77,.36,3.55,.19,5.33-.32,3.35-.68,6.69-1.09,10.03-.4,3.3-1.27,6.47-2.9,9.4-.38,.69-.76,1.39-1.05,2.13-1.54,3.92-3.9,7.33-6.56,10.54-2.13,2.57-3.7,5.45-4.94,8.53-.77,1.91-1.16,3.92-1.57,5.92-.47,2.26-.88,4.53-1.31,6.8-.1,.52-.22,1.04-.24,1.56-.13,4.68-.53,9.36,.18,14.03,.17,1.1,.16,2.24,.19,3.36,.04,1.81-.35,3.5-1.23,5.13-2.02,3.74-11.59,36.56-11.8,40.74-.03,.54,.05,1.07-.64,1.4-1.1-.53-2.22-.14-3.34,.25-4.61,1.6-9.22,3.18-13.83,4.78-4.07,1.41-8.23,2.37-12.54,2.67-2.75,.2-5.38-.08-7.84-1.49-1.4-.8-2.95-1.13-4.57-1.01-1.61,.12-3.14-.16-4.64-.76-1.17-.47-2.39-.7-3.66-.75-.72-.03-1.04-.68-.64-1.26,.29-.43,.64-.84,1.01-1.22,1.78-1.87,12.24-32.64,13.69-34.77,1.23-1.8,2.69-3.42,4.18-5.01,1.63-1.73,3.17-3.54,4.67-5.37,1.34-1.64,2.4-3.45,3.19-5.44,.68-1.71,1.37-3.44,2.62-4.85,.09-.1,.19-.21,.22-.33,.39-2.11,1.76-3.78,2.6-5.69,.98-2.23,2.12-4.4,3.24-6.56,.74-1.42,1.16-2.94,1.49-4.49,.63-2.97,1.24-5.94,1.9-8.9,.85-3.82,2.22-7.45,4.17-10.85,1.5-2.63,2.96-5.3,4.42-7.96,1.82-3.3,3.99-6.37,6.09-9.49,1.03-1.53,2.01-3.1,2.96-4.68,1.64-2.73,2.01-5.65,1.31-8.76-.74-3.29-1.79-6.48-2.8-9.69-1.15-3.65-2.27-7.3-3.06-11.05-.38-1.82-.56-3.64-.54-5.5,.02-1.45-.08-2.9-.11-4.35-.03-1.55-.51-2.95-1.16-4.35-1.61-3.44-3.68-6.55-6.28-9.31-.72-.77-1.33-1.64-1.97-2.48-2.15-2.88-4.68-5.32-7.73-7.29-4.49-2.9-9-5.77-13.68-8.36-4.5-2.49-8.99-5-13.53-7.42-3.87-2.06-8.01-3.34-12.34-4.08-4.03-.69-8.08-1.25-12.15-1.64-2.3-.22-4.58-.63-6.87-.85-4.79-.48-9.58-1.05-14.41-1.06-2.77,0-5.55,0-8.32-.03-1.96-.02-3.81,.42-5.52,1.33-1.45,.77-2.86,1.64-4.25,2.52-1.28,.81-2.55,1.64-3.78,2.53-1.75,1.27-3.74,1.92-5.81,2.39-1.74,.39-3.49,.7-5.22,1.11-1.15,.27-2.29,.62-3.42,.97-1.95,.59-3.89,1.24-5.85,1.8-3.36,.96-6.73,1.85-10.1,2.79-.49,.14-.96,.37-1.5,.58,1.32,2.35,2.34,4.71,2.84,7.25,.23,1.16,.42,2.35,.4,3.52-.03,1.34,.1,2.63,.47,3.9,.09,.31,.18,.64,.2,.96,.07,1-.79,1.62-1.7,1.2-.35-.16-.64-.45-.96-.69-.42-.31-.82-.67-1.28-.91-.75-.4-1.35-.25-1.95,.37-.05,.05-.07,.11-.11,.16-1.14,1.27-1.17,1.27-2.4,.02-.04-.04-.12-.05-.38-.16-.79,.17-1.75,.35-2.7,.59-1.34,.34-2.67,.72-4,1.09-1.08,.3-1.63,.92-1.46,2.01,.15,.96,0,1.61-.76,2.26-.41,.35-.55,1.02-.76,1.57-.11,.3-.06,.66-.13,.98-.17,.7-.96,1.03-1.56,.61-.4-.28-.7-.7-1.14-1.16-.31,.56-.54,1.03-.81,1.46-.39,.63-1.17,.87-1.69,.42-.64-.56-1.25-1.06-2.11-1.29-.38-.1-.73-.58-.95-.96-.59-1.03-1.12-2.08-1.63-3.15-.46-.99-1-1.86-2.29-2.12-.16,.36-.36,.75-.52,1.16-.5,1.24-.63,1.31-2.2,1.04-.25,.64-.5,1.3-.77,1.95-.23,.54-.47,1.09-.77,1.6-.24,.41-.63,.7-1.14,.66-.59-.05-.96-.42-1.13-.96-.14-.44-.19-.9-.32-1.34-.31-1.06-.35-2.2-.96-3.2-.24,.08-.49,.09-.59,.22-.58,.73-1.26,.91-2.09,.46-.39-.22-.76-.09-1.13,.05-.79,.29-1.55,.3-2.19-.37-.29-.31-.65-.45-1.08-.31-1.28,.43-2.01-.28-2.57-1.26-.33-.57-.55-1.2-.83-1.79-.11-.23-.25-.45-.35-.61-.46-.21-.68,.12-.95,.26-.29,.15-.57,.34-.84,.52-.8,.55-1.58,.71-2.31-.17-1.04,.43-1.77,1.21-2.56,1.88-.5,.42-.97,.91-1.51,1.28-.81,.56-1.67,.36-2.22-.47-.25-.38-.41-.81-.6-1.19-.75-.25-1.34,.07-1.94,.34-.54,.24-1.07,.52-1.59,.79-.79,.41-1.58,.55-2.47,.23-1.27-.45-2.45-.33-3.38,.81-.61,.74-1.42,.91-2.32,.47-.53,.63-.95,1.21-1.45,1.73-.95,.99-1.77,.91-2.58-.24-.19-.27-.32-.57-.43-.77-.79-.34-1.6-.53-2.19-.99-.54-.42-.84-1.15-1.36-1.9-.3-.03-.74-.08-1.19-.13-1.77-.23-3.26-1.04-4.53-2.25-1.26-1.2-1.33-2.77-.13-4.03,.77-.81,1.7-1.46,2.51-2.23,.95-.91,1.87-1.86,2.77-2.82,.31-.33,.56-.74,.79-1.14,.94-1.65,.8-2.34-.82-3.76-.32,.32-.61,.68-.97,.94-.25,.18-.6,.29-.91,.31-.67,.04-1.1-.59-.87-1.21,.31-.83,.88-1.47,1.55-2.02,.66-.54,1.36-1.03,2.1-1.57-.02-.16-.06-.34-.08-.51-.08-.91,.16-1.45,.9-1.76,.7-.29,1.44-.47,2.28-.73-.6-.24-1.1-.4-1.56-.63-.39-.19-.55-.57-.49-1,.05-.46,.4-.71,.79-.78,.44-.08,.93-.08,1.37,0,1.43,.29,2.83,.67,4.01,1.58,.15,.12,.34,.18,.46,.24,2.18-.74,4.31-1.42,6.41-2.19,1.02-.37,2.05-.79,2.93-1.55-.57-.5-1.1-.26-1.6-.26-.44,0-.79-.13-.88-.6-.08-.44,.15-.79,.54-.96,.36-.15,.75-.28,1.13-.3,.52-.03,1.04,.05,1.55,.09,.35-.38,0-.64-.17-.85-.63-.76-1.31-1.48-1.94-2.24-.26-.32-.35-.71-.02-1.08,.3-.35,.72-.42,1.07-.22,.51,.28,.97,.66,1.44,1.03,.39,.31,.75,.66,1.09,.96,.45-.22,.3-.51,.32-.75,.05-.85,.05-1.71,.13-2.56,.04-.42,.32-.71,.79-.73,.46-.02,.83,.32,.85,.88,.02,.46-.03,.92-.08,1.37-.07,.64-.08,1.27,.13,2.1,1.56-1.08,2.74-2.26,3.81-3.73-.25-.33-.55-.66-.76-1.03-.32-.58,0-1.36,.62-1.37,.94-.02,1.91-.66,2.84,.14,.46,.4,1.04,.08,1.52-.05,1.61-.43,3.24-.59,4.97-.38,.55-.42,1.12-.85,1.7-1.28,.26-.2,.52-.45,.82-.54,.28-.08,.68-.06,.9,.09,.36,.26,.35,.71,.1,1.07-.3,.43-.66,.81-1.03,1.26,.78,.5,1.51,.93,2.2,1.42,.63,.45,1.22,.97,1.94,1.54,.09-.38,.19-.61,.2-.84,.04-.65-.09-1.4,.84-1.54,.61-.09,.83,.29,1.02,1.6,.12,.85,.26,1.69,.42,2.68,.66-.31,1.23-.57,1.8-.84,.44-.2,.86-.28,1.3,.04,.49,.36,.22,.83,.25,1.26,.48,.29,1.03,.51,1.43,.88,.37,.35,.59,.86,.93,1.38,.19,.04,.45,.07,.69,.15,.9,.3,1.22,.79,.98,1.6-.15,.5-.38,.97-.62,1.57,1.07,.86,2.28,1.25,3.61,1.3,1.11,.04,2.21,.02,3.36,.03-.03,.07,.01,.02,0-.02-.08-.36-.45-.73-.12-1.1,.39-.44,.91-.45,1.46-.25,.8,.3,1.58,.58,2.46,.65,.67,.06,1.31,.57,2,.89,.61-.23,.59-.93,.92-1.39,.27-.37,.47-.81,.81-1.1,.2-.17,.62-.2,.9-.12,.37,.1,.42,.51,.33,.83-.12,.44-.34,.85-.49,1.29-.12,.35-.21,.71-.38,1.28,.67-.11,1.15-.19,1.7-.29,.14-.46,.26-.9,.39-1.33,.1-.31,.19-.63,.33-.92,.19-.38,.55-.65,.96-.49,.26,.1,.51,.41,.6,.68,.12,.35,.08,.76,.11,1.15,.61,0,1.12-.26,1.69,.26,.53,.47,.96,.86,.88,1.65,.41,.07,.84,.03,1.14,.21,.31,.19,.48,.6,.67,.85,2.21-.56,4.09-1.34,5.9-2.29,1.52-.8,3.09-1.47,4.72-2.01,1.88-.62,3.72-1.34,5.59-1.97,1.5-.51,3.01-.97,4.53-1.41,2.91-.84,5.84-1.62,8.74-2.5,.93-.28,1.79-.81,2.67-1.26,.2-.1,.34-.34,.48-.49-.22-.5-.59-.4-.89-.41-3.89-.15-7.79-.45-11.67-.36-3.89,.09-7.78-.11-11.67,0-2.17,.06-4.36,.03-6.53-.15-3.35-.28-6.38-1.37-9.06-3.54-2-1.62-3.55-3.51-4.78-5.73-.83-1.5-1.68-2.99-2.51-4.49-.34-.62-.76-1.07-1.53-1.07-2.17,0-4.12-.83-6.09-1.58-1.73-.65-3.44-1.35-5.18-1.95-1.85-.64-3.44-1.65-4.78-3.06-.77-.81-1.5-1.66-2.34-2.58-.62,.09-1.32,.71-1.99,.28-.53-.34-.93-.89-1.48-1.45-.29,.16-.61,.33-.94,.51-.4,.22-.78,.58-1.2,.65-1.16,.18-1.88,.89-2.48,1.8-.15,.22-.29,.44-.47,.63-.74,.8-1.65,.64-1.97-.38-.13-.42-.12-.9-.09-1.35,.03-.45,.15-.89,.24-1.39-.82-.55-1.52-.3-2.24,.08-.81,.43-1.61,.92-2.48,1.19-1.34,.42-2.29-.01-3.06-1.17-.07-.11-.14-.23-.19-.35-.71-1.54-1.58-1.45-2.73-.27-.41,.42-.76,.92-1.19,1.32-.15,.14-.57,.18-.7,.07-.22-.18-.47-.57-.41-.78,.21-.69,.57-1.33,.84-2,.11-.28,.13-.59,.26-1.23-.73,.58-1.17,.96-1.63,1.3-.47,.35-.96,.7-1.46,1.01-.45,.28-.89,.16-1.27-.18-.32-.29-.44-.66-.3-1.07,.16-.48,.36-.94,.6-1.56-.34,.1-.53,.11-.67,.2-1.01,.62-2,1.26-3,1.9-.28,.18-.53,.42-.82,.52-.21,.07-.55,0-.72-.15-.16-.14-.27-.49-.21-.69,.14-.48,.39-.92,.63-1.45-.95,.11-1.78,.15-2.59,.31-.37,.07-.7,.35-1.02,.58-.71,.49-1.37,1.05-2.1,1.48-.43,.26-.96,.38-1.47,.46-.19,.03-.51-.19-.61-.39-.1-.19-.08-.54,.04-.73,.16-.27,.45-.46,.71-.67,1.42-1.18,2.84-2.36,4.25-3.54,.13-.11,.2-.3,.39-.58-.81-.19-1.5-.1-2.19,.05-2.7,.6-5.4,1.22-8.11,1.81-1.25,.27-2.07,1.11-2.84,2.02-.42,.5-.79,1.06-1.25,1.53-.46,.48-1.17,.35-1.49-.24-.12-.23-.16-.49-.23-.75-.05-.19-.09-.38-.16-.66-.69,.47-.86,1.17-1.08,1.82-.19,.56-.3,1.15-.52,1.7-.17,.44-.53,.79-1.03,.81-.58,.02-1.02-.28-1.25-.8-.16-.35-.24-.75-.3-1.13-.07-.45-.08-.91-.15-1.75-.31,.55-.52,.77-.55,1.02-.1,.72-.09,1.45-.19,2.16-.07,.47-.31,.89-.84,.99-.58,.11-1.05-.17-1.38-.6-.23-.31-.32-.72-.51-1.07-.15-.27-.38-.51-.54-.73-.55,.11-.4,.54-.54,.8-.39,.74-1.02,.91-1.58,.34-.35-.36-.64-.84-.81-1.32-.18-.49-.14-1.04-.27-1.55-.09-.36-.23-.78-.49-1.02-.67-.61-1.42-1.14-2.16-1.72-.34,.63,.17,.95,.26,1.37,.09,.45,.2,.9,.3,1.35,.05,.25,.16,.52,.1,.75-.06,.23-.25,.5-.45,.59-.2,.08-.58,.04-.72-.11-.95-1-1.95-1.98-2.75-3.1-.47-.67-.6-1.57-.91-2.46-.35-.29-.92-.58-1.19-1.05-.41-.68-.47-1.51-.23-2.31,.26-.87,.54-1.74,.84-2.68-.26-.04-.51-.09-.76-.11-.71-.05-1.61,.17-1.88-.7-.32-1.04,.76-1.23,1.34-1.68,.41-.32,.87-.58,1.34-.88-.11-.51-.39-1.04-.28-1.46,.12-.46,.59-.84,.93-1.23,.17-.2,.39-.35,.63-.55-.14-.14-.24-.28-.38-.39-1.05-.85-1.08-1.37,.02-2.09,.76-.5,1.63-.86,2.45-1.27,.29-.15,.73-.18,.87-.41,.56-.9,1.32-1.6,1.98-2.4,.27-.33,.15-.99,.2-1.5-.2-.17-.34-.3-.49-.41-.93-.72-1.07-1.41-.27-2.08,.7-.58,1.5-1.11,2.34-1.44,1.34-.53,2.76-.88,4.14-1.32,.23-.07,.44-.18,.63-.26,0-.54-.36-.41-.57-.45-.26-.05-.55,.02-.78-.09-.28-.12-.6-.32-.72-.58-.18-.39,0-.82,.4-1,.9-.41,1.81-.77,2.74-1.1,.43-.15,.9-.18,1.44-.28-.24-1.44,.71-2.06,1.78-2.48,.97-.39,2.01-.61,3.03-.9,.51-.14,1.03-.23,1.53-.4,.57-.2,1.18-.51,1.28-1.13,.14-.92,.77-1.14,1.61-1.28-.6-.62-1.11-1.11-1.58-1.65-.23-.26-.33-.65,0-.86,.24-.15,.61-.2,.9-.15,.23,.04,.43,.28,.64,.44,.37,.28,.72,.59,1.1,.84,.77,.52,1.58,.61,2.42,.13,.57-.33,1.17-.61,1.74-.93,2.86-1.63,5.72-3.26,8.69-4.96-.05-.15-.15-.38-.19-.61-.1-.66,.29-1.07,.88-.91,.38,.1,.73,.31,1.1,.42,.82,.25,1.54,.12,2.15-.58-.28-.91-1.06-1.37-1.58-2.03-.22-.28-.34-.58-.1-.89,.27-.35,.63-.48,1.04-.24,.46,.26,.92,.52,1.37,.8,.93,.58,1.93,.79,3,.59,.09-.49-.3-.56-.52-.76-.34-.3-.73-.58-1-.93-.12-.15-.09-.54,.03-.72,.12-.18,.45-.34,.65-.31,.38,.06,.75,.23,1.1,.41,.52,.28,1.02,.61,1.53,.91,.55,.32,1.14,.35,1.71,.09,1.62-.74,3.24-1.49,4.85-2.24,.23-.11,.46-.27,.65-.44,1.23-1.12,2.6-2,4.18-2.59,.54-.2,.99-.64,1.47-.99,.37-.27,.71-.59,1.08-.86,.76-.55,1.57-.64,2.41-.18,.12,.06,.24,.11,.35,.19,.87,.68,1.82,.56,2.83,.39,1.03-.18,2.09-.29,3.14-.35,1.79-.1,3.55,.07,5.28,.6,1.57,.48,2.7,.02,3.64-1.4,.28-.43,.61-.67,1.11-.69,.32-.02,.64-.05,.92-.07q.59-1.36,2.17-1.69c.13-.29,.27-.57,.46-.98,1.19,.11,2.4,.23,3.8,.36-.14-.47-.26-.75-.29-1.04-.09-.67,.31-1.02,.93-.84,.51,.15,.99,.39,1.5,.5,1.4,.31,2.71,.28,3.92-.71,1.44-1.17,3.08-2.07,4.87-2.57,3.29-.93,6.6-1.82,9.93-2.63,1.08-.26,2.22-.25,3.34-.31,.79-.05,1.59,.02,2.38-.03,2.72-.16,5.04-1,6.2-3.87h-1.75c-.19-.76-.36-1.45-.53-2.14,.45-.98,1.57-1.22,2.15-2.04-.15-.33-.3-.68-.45-1.03,.09-.2,.13-.43,.26-.55,1.86-1.72,3.92-3.13,6.4-3.79,1.03-.27,1.97-.72,2.93-1.16,1.92-.87,3.89-1.61,5.85-2.39,.79-.31,1.61-.57,2.41-.86,.19-.07,.36-.22,.55-.22,1.5-.04,2.92-.76,4.47-.5,1,.17,1.94,.08,2.67-.83,.21-.26,.69-.35,1.07-.44,.56-.14,1.14-.2,1.77-.31-.12-.5-.25-.93-.31-1.36-.05-.41,.34-.79,.74-.73,.38,.06,.77,.17,1.13,.32,.67,.28,1.32,.6,1.98,.89,.43,.19,.89,.26,1.34,.07,1.81-.75,3.48-.42,5.08,.61,.1,.07,.25,.06,.52,.12,.08-.27,.21-.55,.24-.84,.07-.66,.08-1.32,.13-1.98,.04-.49,.22-.92,.76-1.02,.47-.09,.71,.25,.93,.59,.59,.94,1.18,1.89,1.81,2.88,.68-.04,1.27-.02,1.84-.11,3-.44,5.99-.98,9-1.33,2.54-.29,5.1-.7,7.68-.2,1.22,.24,2.49,.23,3.73,.33,.21-.49,.28-1.13,.63-1.37,.47-.33,.65-.8,.99-1.18,.3-.33,.7-.39,1.07-.16,.39,.24,.75,.53,1.08,.84,.52,.47,1.01,.98,1.58,1.53,.24-.76-.28-1.13-.42-1.61-.22-.75-.45-1.51-.6-2.28-.07-.33,.13-.65,.5-.75,.37-.09,.66,.07,.8,.4,.29,.66,.53,1.35,.82,2.01,.34,.78,.68,1.58,1.6,2.16,1.43-.23,2.99-.42,4.53-.74,1.46-.3,2.7-1.04,3.63-2.24,3.58-4.65,8.53-7.13,13.99-8.82,1.93-.59,3.86-.8,5.86-.57,1.81,.2,3.55-.15,5.27-.62,.96-.26,1.87-.67,2.6-1.38,1.42-1.37,2.9-2.69,4.22-4.16,1.83-2.04,4-3.63,6.23-5.16,.48-.33,1.06-.54,1.62-.7,3.82-1.05,7.67-2.04,11.62-2.3,7.24-.47,14.49-.85,21.76-.25,4.55,.38,9.03,1.09,13.51,1.84,1.56,.26,3.17,.64,4.71,.47,1.8-.2,3.51,.05,5.26,.17,1.56,.11,3.12,.37,4.72,.12,1.28-.2,2.44,.51,3.57,1.02,.97,.44,1.96,.74,2.98,1.01,1.14,.3,2.17,.44,3.23-.18,.96-.56,1.92-.33,2.8,.23,.44,.28,.85,.62,1.33,.98,.41-.12,.83-.28,1.27-.37,.8-.16,1.57-.02,2.3,.37,.4,.21,.81,.49,1.3,.25,.9-.43,1.68-.05,2.44,.35,.52,.27,.97,.69,1.47,.99,.33,.2,.73,.49,1.05,.44,1.13-.17,2.06,.27,3,.77,.23,.12,.49,.18,.76,.27,.24-.13,.48-.24,.71-.37,1.39-.8,2.4-.75,3.55,.33,.62,.58,1.15,1.27,1.67,1.95,.59,.79,1.12,1.63,1.7,2.48,1.02-.56,1.85,.23,2.76,.39,.2,.03,.42,.51,.47,.81,.09,.58,.07,1.18,.08,1.78,.01,.58,.32,.95,.82,1.31,.67-.74,.79-1.6,1.07-2.39,.18-.49,.31-1.01,.55-1.47,.19-.38,.56-.55,1-.4,.38,.12,.58,.51,.46,.96-.19,.69-.42,1.37-.65,2.12,.4,.06,.72,.08,1.03,.17,.62,.18,.81,.7,.41,1.21-.2,.25-.47,.44-.71,.65,.29,.35,.71,.65,.78,1.01,.05,.29-.34,.65-.53,.98-.03,.05-.05,.11-.08,.2,.28,.39,.69,.14,1.04,.19,.32,.05,.66,0,.99,.05,.58,.1,1.17,.17,1.71,.38,.57,.21,.52,.85-.06,1.2-.15,.09-.34,.14-.52,.21,.51,.53,1.45,.47,1.67,1.43-.18,.32-.39,.71-.62,1.12,.19,.16,.33,.38,.48,.38,.65,0,1.31-.05,1.96-.11,.85-.07,1.7-.18,2.56-.24,.25-.02,.56,.03,.75,.16,.19,.13,.37,.42,.36,.64,0,.21-.2,.49-.39,.62-.2,.14-.5,.13-.76,.18-.7,.15-1.41,.3-2.45,.51,.66,.31,1.02,.58,1.41,.65,2.33,.44,4.66,.87,7.01,1.21,.96,.14,1.91,.52,2.96,.34v-1.03c1.68-.29,2.83,.98,4.29,1.3,.29-.36-.09-.55-.25-.77-.43-.58-.91-1.13-1.33-1.72-.37-.52-.35-1.07,0-1.22,.44-.19,.76,.06,1.02,.38,.79,.97,1.57,1.95,2.36,2.93,.29,.36,.56,.72,.92,1.18,.49-.23,.95-.43,1.4-.68,.64-.35,1.25-.74,1.89-1.07,.7-.36,1.15-.31,1.42,.07,.27,.38,.05,.81-.61,1.23-.6,.38-1.33,.6-1.78,1.33,.37,.27,.7,.66,1.11,.79,2.32,.77,4.55,1.73,6.77,2.74,.09,.04,.24-.04,.47-.09-.31-.45-.59-.87-.9-1.27-.29-.36-.63-.68-.92-1.03-.47-.56-.56-1.08-.24-1.42,.43-.46,.93-.35,1.46-.16,1.37,.49,2.43,1.34,3.08,2.64,.47,.94,.85,1.93,1.29,2.89,.14,.3,.33,.58,.74,.44,.37-.3,.24-.72,.27-1.1,.04-.52,0-1.07,.13-1.57,.07-.27,.36-.56,.62-.67,.34-.15,.66,.1,.77,.43,.32,.97,1.43,1.62,1,2.97,.58-.25,1.01-.6,1.37-.53,.37,.07,.66,.54,1,.84,1.64-.54,3.31-1.13,5.01-1.64,.55-.17,1.16-.2,1.75-.2,.19,0,.49,.27,.53,.46,.04,.2-.12,.53-.3,.65-.32,.21-.71,.32-1.09,.44-.88,.28-1.76,.54-2.64,.81-.32,.1-.37,.31-.23,.6-.11-.04-.22-.07-.33-.11,.11,.04,.21,.08,.32,.11Zm-28.1,67.18c-.3,.46-.47,.65-.55,.87-.29,.81-.48,1.65-.82,2.43-.97,2.27-1.46,4.66-1.74,7.08-.5,4.2-1.46,8.31-2.45,12.41-.66,2.72-2.05,4.97-4.26,6.73-1.14,.91-2.31,1.74-3.67,2.3-1.23,.51-2.34,1.26-3.11,2.38-2.1,3.06-5,4.97-8.44,6.26-3.89,1.46-7.72,3.05-11.56,4.64-.9,.37-1.78,.87-2.57,1.44-1.01,.73-1.94,1.59-2.88,2.42-1.52,1.34-3.28,2.19-5.27,2.57-1.56,.3-3.04,.84-4.48,1.51-2.16,.99-4.29,2.05-6.51,2.87-2.88,1.06-5.47,2.62-7.99,4.31-2.71,1.82-4.81,4.29-6.74,6.89-.03,.04,0,.13,.02,.33,.51-.11,1.01-.18,1.49-.32,3.49-.98,7-1.89,10.6-2.37,1.24-.17,2.48-.31,3.72-.47,2.16-.29,4.31-.59,6.47-.88,1.24-.16,2.49-.25,3.72-.47,2.34-.4,4.66-.86,6.99-1.32,3.68-.73,7.39-1.38,11.04-2.26,6.67-1.61,13.2-3.7,19.37-6.75,1.13-.56,2.31-.92,3.54-1.21,1.77-.4,3.55-.31,5.32-.26,1.63,.04,3.13-.32,4.6-.96,1.77-.77,3.34-1.83,4.8-3.1,1.19-1.05,2.32-2.09,3.22-3.45,1.16-1.76,2.53-3.4,4.34-4.56,1.5-.96,3.01-1.91,4.58-2.74,1.54-.81,2.84-1.88,4.08-3.09,2.9-2.85,5.08-6.23,7.12-9.71,.66-1.13,1.16-2.37,1.58-3.61,.53-1.55,.11-2.33-1.36-2.99-1.43-.64-2.93-.81-4.45-.55-1.36,.23-2.7,.58-4.06,.85-2.39,.47-4.78,.94-7.18,1.36-2.08,.36-3.72-.36-4.98-2.1-.53-.73-1.25-1.35-1.97-1.91-1.42-1.1-2.72-2.29-3.77-3.76-1.31-1.82-2.56-3.68-4.3-5.15-1-.85-1.43-2.04-1.47-3.35-.02-.65,0-1.3,0-2.28Zm-162.48,37.66c-.09-.25-.13-.44-.23-.6-1.21-1.9-2.5-3.72-4.11-5.31-.61-.6-1.21-1.22-1.77-1.87-2.46-2.86-3.55-6.13-2.83-9.9,.14-.71,.36-1.41,.46-2.13,.17-1.24,.35-2.48,.41-3.73,.06-1.35-.6-2.21-1.9-2.66-.37-.13-.76-.25-1.15-.31-1.37-.2-2.74-.45-4.12-.52-4.03-.19-8.05-.12-12.07,.28-1.64,.17-3.27,.47-4.92,.5-2.34,.05-4.58,.52-6.8,1.18-1.78,.53-3.41,1.39-4.85,2.58-2.47,2.03-5.34,2.66-8.36,2.04-3.73-.77-7.14-2.3-9.81-5.18-.74-.81-1.52-1.62-2.42-2.12-.9,.44-1.65,.85-2.43,1.18-.66,.28-1.3,.17-1.81-.38-.17-.19-.34-.38-.51-.57-2.48,.15-4.92-.07-7.28,.14-.67,1.21-1.56,1.71-2.83,1.57-.64-.07-1.3-.01-1.92-.01-.84,.94-.94,.97-1.83,.61-.55-.22-1.08-.48-1.64-.66-.22-.07-.59-.09-.72,.04-.7,.69-1.32,.33-1.96-.05-.77-.46-1.55-.92-2.36-1.39-.35,1.26-.53,1.38-1.44,1.11-.38-.11-.84-.43-1.11-.31-1.24,.53-2.14-.28-3.15-.67-.54-.21-1.06-.47-1.59-.71-.09,.22-.19,.34-.17,.44,.09,.59-.08,1.04-.6,1.34-.57,.34-1.15,.32-1.68-.05-.48-.33-.9-.75-1.35-1.14-.34-.3-.64-.74-1.04-.86-2.03-.63-4.03-.84-5.74,.83-.19,.18-.4,.34-.6,.52-1.34,1.18-2.82,1.29-4.41,.58-.25-.11-.53-.42-.94-.06,.03,.34,0,.74,.09,1.11,.28,1.23,.79,2.37,1.48,3.44,1.07,1.66,2.09,3.36,3.19,5,1.74,2.59,3.91,4.81,6.3,6.8,.75,.62,1.65,1.09,2.53,1.54,3.96,2.02,8.19,2.87,12.61,2.86,1.98,0,3.96-.07,5.94-.22,2.56-.19,5.12-.47,7.68-.72,.48-.05,.99-.1,1.42-.63-.76-.21-1.39-.38-2.02-.55-1.91-.52-3.82-1.01-5.71-1.58-1.21-.36-2.3-.99-3.23-1.86-2.17-2.01-2.5-4.44-.94-6.95,.49-.78,1.06-1.53,1.43-2.37,.36-.82,.52-1.73,.83-2.81,1.96,.26,3.97-.06,6.08,.31-.13,.52-.18,.9-.33,1.25-.38,.91-.82,1.8-1.19,2.72-.32,.79-.62,1.6-.85,2.42-.23,.83,0,1.52,.72,2.09,.94,.75,1.86,1.41,3.17,1.4,.98,0,1.97,.18,2.95,.31,2.74,.38,5.49,.73,8.21,1.2,2.22,.38,3.38,1.81,3.54,4.09,.03,.38,.09,.76,.14,1.12,.28,.11,.45,.21,.64,.24,4,.6,8.03,.48,12.05,.25,4.36-.25,8.71-.24,13.06-.03,3.23,.16,6.45,.44,9.68,.64,4.02,.25,8,.73,11.88,1.91,3.4,1.04,6.83,2,10.24,2.99,.63,.18,1.25,.37,1.97,.26Zm106.36-44.68c-.32-.55-.69-.65-1.09-.46-1.65,.8-3,1.92-3.68,3.68-.86,2.21-1.72,4.42-2.86,6.52-.19,.34-.3,.73-.44,1.1-.63,1.73-1.08,3.54-2.15,5.08-.14,.21-.18,.49-.24,.75-.2,.86-.7,1.54-1.23,2.23-.79,1.05-1.66,2.08-2.24,3.25-.9,1.81-2.15,3.31-3.55,4.72-.51,.51-.98,1.07-1.44,1.63-.91,1.13-1.82,2.24-3.1,3.01-.93,.56-1.55,1.42-1.74,2.53-.14,.84-.31,1.69-.42,2.53-.04,.28,.05,.59,.09,.99,.32-.17,.52-.22,.64-.35,2.65-2.78,6.07-4.14,9.68-5.04,1.76-.44,3.34-1.22,4.84-2.16,2.79-1.75,4.84-4.14,5.6-7.37,.44-1.85,1.16-3.48,2.29-4.97,.77-1.01,1.3-2.1,1.51-3.39,.25-1.51,.86-2.88,1.82-4.12,1.21-1.56,2.29-3.23,3.49-4.8,.56-.73,1.25-1.35,1.92-1.98,.22-.2,.58-.36,.87-.36,.84,.02,1.7-.12,2.61,.13,.03,.3,.12,.56,.07,.79-.38,1.53-.84,3.04-1.18,4.57-.25,1.09-.38,2.2-.53,3.31-.06,.46,.52,.88,.95,.7,.23-.1,.46-.24,.65-.41,1.28-1.14,2.47-2.37,3.58-3.68,.52-.62,.89-1.3,1.09-2.08,.43-1.73,.86-3.45,1.3-5.18,.11-.43,.28-.85,.42-1.25,1.71-.36,3.32-.7,4.93-1.04,.13-.03,.26-.05,.39-.05,.48-.02,.89,.34,.87,.85-.05,1.31-.1,2.63-.24,3.94-.24,2.27-1.24,4.32-2.28,6.29-1.86,3.56-4.35,6.6-7.99,8.54-1.16,.62-2.29,1.31-3.38,2.05-2.48,1.69-4.67,3.7-6.16,6.33-.74,1.31-1.18,2.78-1.8,4.16-.53,1.17-.84,2.4-.7,3.65,.21,1.96,.55,3.91,.88,5.85,.08,.44,.36,.85,.6,1.24,.42,.67,.88,1.32,1.33,1.97,.9,1.32,2.11,1.73,3.62,1.24,2.07-.67,4.15-1.28,6.12-2.25,2.55-1.25,5.18-2.28,7.88-3.15,2-.64,3.98-1.41,5.87-2.32,2.32-1.11,4.61-2.24,7.05-3.11,3.48-1.23,5.84-3.77,7.44-7.01,.4-.81,.59-1.75,.71-2.65,.14-1.04,.12-2.11,.11-3.16-.01-1.54-.35-3-1.07-4.38-.39-.76-.72-1.55-1.05-2.35-.68-1.68-1.68-3.14-3.09-4.29-1.87-1.54-2.96-3.64-4.23-5.58,.52-.66,1.14-1.19,.25-1.95-.14,.04-.32,.07-.49,.14-1.13,.43-1.43,.3-1.72-.75-.07-.25-.06-.53-.12-.78-.02-.1-.15-.17-.23-.26-.47,.24-.92,.47-1.3,.66-1.28-.5-1.06-1.68-1.48-2.64-1.29-.49-2.63-1.03-4-1.49-.33-.11-.79-.06-1.12,.09-.89,.39-1.52,.16-2.04-.61-.14-.2-.35-.35-.55-.55-.31,.11-.58,.15-.79,.28-.56,.36-1.06,.76-1.82,.46-.22-.09-.61,.15-.88,.32-.43,.26-.85,.31-1.31,.1-.28-.13-.58-.24-.87-.36-1.76,1.57-4.06,1.64-5.99,2.49-.89,2.21-2.52,3.58-4.58,4.5-.29,.13-.64,.22-.94,.18-.21-.03-.43-.28-.55-.49-.07-.12,.01-.43,.13-.53,.44-.37,.92-.69,1.23-.92,0-.57-.07-.96,.02-1.32,.11-.43,.49-.82-.15-1.29-.23,.15-.49,.33-.75,.5-1.56,1-3.23,1.78-4.98,2.4-.43,.15-.88,.29-1.33,.39-.36,.08-.83-.25-.9-.61-.08-.38,.14-.63,.46-.77,.67-.28,1.34-.56,2.03-.78,.6-.19,1.05-.53,1.39-1.11Zm-56.98,14.35c.63,.69,1.13,1.3,1.7,1.84,2.45,2.28,3.31,5.2,3.25,8.41-.05,2.38-.45,4.72-1.47,6.92-.42,.9-.83,1.8-1.19,2.72-.92,2.38-2.41,4.38-4.07,6.27-1.31,1.49-2.62,2.97-3.9,4.48-1.33,1.57-2.4,3.3-3.41,5.09-.92,1.63-1.12,3.34-.84,5.16,.16,1.04,.27,2.1,.26,3.14-.03,1.55,.63,2.68,1.87,3.48,.83,.53,1.72,.97,2.62,1.38,1.8,.83,3.54,1.75,5.16,2.91,.8,.58,1.67,1.06,2.53,1.54,1.33,.73,2.67,1.43,4.02,2.13,1.29,.67,2.58,1.33,3.86,2,.76,.4,1.56,.39,2.28,0,.63-.34,1.21-.8,1.74-1.27,.39-.35,.68-.8,.99-1.23,2.24-3.03,4.61-5.95,7.59-8.31,.79-.63,1.35-1.45,1.79-2.34,1.19-2.44,1.68-4.99,1.1-7.68-.07-.32-.15-.65-.16-.97-.06-2.24-.67-4.29-2.14-6.03-.04-.05-.08-.1-.12-.16-.65-.93-.76-1.95-.44-3.02,.09-.32,.18-.64,.3-.94,.32-.74,.14-1.44-.22-2.09-.22-.4-.51-.77-.81-1.11-1.48-1.67-3.14-3.2-4.39-5.07-.11-.16-.29-.27-.41-.43-1.34-1.69-2.61-3.44-4.15-4.97-.85-.84-1.26-2-1.57-3.16-.41-1.53-.76-3.08-1.26-4.57-.35-1.05-.83-2.09-1.41-3.03-.56-.92-1.03-1.94-1.78-2.61-.43,.37-.76,.88-1.1,.89-.53,.01-1.06-.32-1.63-.52-.25,.19-.5,.41-.78,.58-.66,.42-.73,.4-1.54-.21-.15-.11-.33-.18-.5-.28-.53,.32-1.04,.62-1.79,1.06Zm-48.52-8.46c.87,1.79,1.76,3.31,2.75,4.79,1.19,1.78,1.47,3.77,1.19,5.87-.27,2.02-1.2,3.59-2.95,4.68-2.27,1.4-3.36,3.63-4.23,6.02-.5,1.38-.17,2.6,.69,3.71,.82,1.05,1.87,1.85,2.99,2.56,.61,.38,1.24,.74,1.86,1.12,2.63,1.62,4.47,3.86,5.46,6.79,.42,1.25,.92,2.47,1.32,3.72,.44,1.36,1.27,2.19,2.65,2.68,1.48,.53,2.89,1.26,4.28,2.01,1.33,.72,2.61,1.55,3.88,2.37,1.16,.75,2.28,1.56,3.43,2.34,.24,.16,.51,.27,.81,.43,.12-.66,.19-1.19,.32-1.69,.32-1.23,.36-2.47,.24-3.73-.3-3.35-.58-6.7-.87-10.05-.12-1.41-.54-2.69-1.34-3.88-.66-.98-1.22-2.04-1.84-3.05-.48-.78-.97-1.57-1.49-2.32-.6-.87-1.27-1.69-1.84-2.58-.94-1.47-2.08-2.71-3.57-3.64-1.48-.93-2.6-2.23-3.56-3.66-.74-1.1-1.32-2.29-1.41-3.65-.18-2.65-1.04-5.16-1.6-7.73-.2-.94-.74-1.68-1.6-2.16-.52-.29-1.03-.58-1.55-.87-.89-.49-1.79-.77-2.79-.23-.27,.14-.64,.08-1.25,.15Zm74.15-1.21c-.1,.8-.31,1.51-.26,2.2,.18,2.46,.82,4.8,1.93,7.01,.32,.64,.56,1.32,.87,1.98,.67,1.43,1.27,2.9,2.06,4.26,.45,.77,1.21,1.38,1.87,2.02,.91,.88,1.79,1.74,2,3.09,.05,.3,.46,.55,.75,.88,.34-.29,.61-.48,.83-.72,1.21-1.33,2.19-2.81,2.93-4.44,.95-2.1,1.81-4.23,3.12-6.16,.78-1.14,1.31-2.43,1.39-3.86,.06-.94,.49-1.76,1.04-2.53,1.44-2,2.43-4.22,3.09-6.58,.16-.57,.4-1.11,.59-1.67,.07-.21,.28-.47-.12-.66-.15,.07-.32,.16-.49,.24-1.54,.81-3.11,1.18-4.92,1.06-1.88-.13-3.8,.22-5.56,1.33-1.45-.69-2.87,.38-4.2,.16-.56,.5-.93,1.04-1.44,1.23-.5,.19-1.13,.04-1.76,.04-.88,1.24-2.12,1.63-3.72,1.13Zm-198.81-12.97c.42,.66,.91,1.06,1.63,1.05,.86-.01,1.72-.03,2.56-.14,2.61-.34,5.22-.77,7.83-1.09,2.98-.36,5.85-1.01,8.37-2.74,.38-.26,.81-.45,1.22-.65,1.69-.82,3.42-1.27,5.34-1.14,2.45,.17,4.69-.59,6.67-2.06,.9-.67,1.77-1.38,2.64-2.09,.17-.14,.28-.36,.5-.67-2.19-.43-4.22-.64-6.25-.52-1.59,.09-2.99-.29-4.34-1.06-.69-.39-1.38-.78-2.11-1.09-1.66-.71-3.37-.59-5.03-.02-1.53,.52-2.79,1.39-3.52,2.96-.72,1.56-1.95,2.57-3.61,3.17-1.73,.62-3.41,1.4-5.07,2.2-2.02,.97-3.99,2.03-5.97,3.08-.33,.17-.56,.52-.87,.81Zm119.22,18.71c-.28-.42-.47-.88-.8-1.15-1.15-.93-1.94-2.15-2.73-3.36-.62-.94-1.21-1.89-1.83-2.82-.1-.15-.28-.26-.41-.37-.6,.15-1.16,.28-1.73,.42-.08,.35-.1,.7-.25,.97-.11,.2-.38,.4-.59,.41-.21,0-.52-.17-.63-.35-.26-.45-.42-.96-.57-1.31-.73-.45-1.52-.7-1.9-1.23-.89-1.25-2.06-1.53-3.02-1.47-1.27,.55-2.16,.93-3.08,1.32,.04,.19,.1,.37,.13,.55,.19,1.15-.15,1.64-1.23,1.76-.44,.05-.89,.04-1.38,.06-.04,.42-.09,.73-.09,1.06-.03,1.07-.61,1.63-1.57,2.04-1.08,.46-2.19,.4-3.3,.43-.98,.02-1.97-.13-2.89,.17-.45,1.45-.45,1.47-1.67,1.45-.61-.01-1.15-.05-1.56,.55-.14,.21-.58,.28-.89,.32-1.16,.13-2.33,.22-3.72,.34,.32,.34,.45,.58,.65,.69,1.01,.53,2.11,.72,3.24,.8,1.73,.13,3.42-.22,5.09-.59,1.61-.36,3.23-.62,4.88-.75,2.17-.17,4.34-.35,6.49-.65,1.53-.21,3.04-.14,4.53,.12,2.72,.49,5.5,.59,8.17,1.41,.85,.26,1.85,.29,2.68-.82Zm105.79,38.08c-.46-.96-.89-1.76-1.23-2.61-.55-1.36-.7-2.8-.75-4.26-.02-.72-.12-1.45-.32-2.14-.27-.96-.82-1.18-1.62-.62-1.34,.93-2.83,1.44-4.39,1.68-2.13,.32-3.77,1.4-5.25,2.89-1.39,1.4-1.85,2.98-1.39,4.87,.05,.19,.13,.38,.16,.57,.47,2.71,.54,5.38-.8,7.91-.8,1.52-1.8,2.91-2.87,4.25-1.07,1.34-2.07,2.73-3.08,4.11-.14,.19-.35,.41-.13,.68,.12,.01,.26,.07,.36,.02,1.67-.73,3.06-1.82,4.13-3.29,1.48-2.02,2.91-4.08,4.37-6.11,.5-.69,.92-1.52,1.58-2,1.64-1.21,3.2-2.49,4.69-3.88,1.13-1.06,2.69-1.33,4.19-1.62,.76-.15,1.52-.31,2.35-.47Zm67.09-44.97c-.09,1.96-.03,2.22,.92,3.41,.58,.72,1.17,1.43,1.8,2.1,1.76,1.89,3.37,3.88,4.76,6.05,.5,.77,1.06,1.52,1.68,2.19,1.41,1.5,3.35,1.68,5.23,1.93,.29,.04,.62-.18,.93-.29,.74-.27,1.51-.49,2.22-.83,1.46-.68,3.02-.91,4.59-1.07,.37-.04,.74-.04,1.18-.07-.16-.71-.32-1.28-.4-1.86-.08-.66-.42-1.11-.98-1.39-.53-.27-1.06-.54-1.62-.71-.69-.21-1.41-.4-2.12-.42-1.86-.07-3.06-1.15-4.02-2.53-.97-1.41-1.77-2.92-2.13-4.64-.17-.83-.35-1.68-.92-2.34-.79,.07-.87,.04-.99,.37-.34,.96-1.17,1.15-1.99,1.26-.19,.65-.36,1.22-.52,1.75-1.69,.47-2.48,.11-2.94-1.35-.19-.62-.23-1.3-.88-1.81-1.24,.08-2.54,.16-3.82,.24Zm-154.86-57.58c-1.91-.34-3.65,0-5.13,1.34-.24,.22-.5,.42-.77,.62-1.77,1.28-3.69,1.96-5.92,1.74-1.37-.13-2.77-.12-4.15-.05-2.14,.1-4.2-.26-6.22-.93-.75-.25-1.45-.63-2.2-.89-.68-.23-1.41-.55-2.09-.5-1.71,.13-3.38,.56-4.91,1.37-.65,.34-.76,.93-.26,1.47,.9,.98,1.93,1.77,3.21,2.23,1.89,.67,3.81,.99,5.81,.97,2.86-.03,5.65,.29,8.25,1.63,1.22,.63,2.53,.71,3.85,.36,2.29-.61,4.6-1.15,6.84-1.9,1.29-.44,2.48-1.2,3.67-1.9,.97-.58,1.34-1.61,1.55-2.66,.17-.86-.35-1.49-.89-2.09-.22-.24-.41-.51-.64-.8Zm134.48,13.13c-.32-1.04-.95-1.69-1.8-1.87-1.74-.37-3.42-.56-5.06,.69-2.32,1.77-4.96,2.35-7.79,1.13-.24-.1-.49-.2-.73-.29-1.36-.49-2.73-.96-4.09-1.45-1.63-.59-3.3-.86-5.04-.61-1.76,.26-3.52,.49-5.27,.76-.45,.07-.9,.19-1.31,.38-.25,.12-.42,.4-.77,.75,.64,.27,1.11,.49,1.58,.67,1.61,.58,3.22,1.13,4.83,1.72,1.73,.63,3.44,1.3,5.28,1.6,.91,.14,1.81,.32,2.72,.47,1.72,.29,3.28,.94,4.63,2.07,.4,.34,.81,.68,1.23,.99,.9,.66,1.18,.63,2.05-.15,.88-.79,1.75-1.59,2.66-2.35,.82-.69,1.77-1.16,2.83-1.32,1.95-.28,3.18-1.43,4.07-3.18Zm-119.81,68.91c.2-.68,.32-.99,.37-1.31,.39-2.63-.08-5.23-.32-7.84-.02-.19-.15-.36-.21-.55-.53-1.69-1.13-3.37-1.55-5.09-.45-1.83-1.43-3.38-2.38-4.95-.16-.27-.42-.54-.69-.68-.84-.42-1.48-1.08-2.17-1.68-.52-.45-1.04-1.01-1.86-.91-.06,1.03-.04,2.02-.19,2.99-.15,.97-.49,1.91-.67,2.88-.2,1.03-.31,2.08-.47,3.11-.22,1.48,.39,2.7,1.25,3.82,.28,.36,.64,.66,.95,1,.44,.49,.91,.96,1.27,1.5,.78,1.21,1.53,2.45,2.23,3.72,.43,.79,.94,1.41,1.88,1.57,.91,.15,1.53,.7,1.93,1.52,.11,.21,.28,.4,.64,.9Zm4.54-15.37c.49,2.16,.96,4.2,1.42,6.24,.27,1.22,.65,2.43,.78,3.66,.31,2.97,.31,5.92-1.56,8.52-.19,.26-.33,.57-.48,.86-.86,1.62-.87,3.24-.14,4.93,.44,1.02,.73,2.1,1.09,3.16,.09,.27-.07,.66,.32,.8,.09-.03,.17-.03,.2-.07,1.9-2.45,3.64-5.01,4.89-7.85,1.52-3.44,1.82-6.98,.51-10.57-.45-1.23-.94-2.46-1.48-3.66-.8-1.8-1.65-3.59-2.5-5.36-.25-.52-.38-1.15-1.15-1.42-.56,.23-1.21,.49-1.89,.77Zm170.99-20.87c.44,.86,1.17,1.33,1.93,1.68,1.37,.64,2.8,1.17,4.33,1.3,1.26,.1,2.48,.37,3.62,.92,2,.96,4.09,1.45,6.3,1.46,1.07,0,2.08,.3,3.05,.74,.6,.28,1.19,.57,1.78,.85,1.22,.57,2.5,.84,3.84,.72,.38-.04,.84-.11,1.1-.34,.68-.6,1.17-1.35,1.49-2.15-.17-.19-.25-.31-.35-.38-.32-.23-.66-.43-.98-.66-1.62-1.19-3.53-1.97-4.61-3.88-.67-1.19-1.97-1.47-3.32-1.06-.38,.11-.79,.2-1.1,.42-.93,.66-1.97,.68-3.03,.66-1.59-.03-3.14-.36-4.68-.7-2.2-.48-4.42-.75-6.67-.62-1,.06-1.93,.24-2.7,1.03Zm12.8,19.36c-.84,1.02-1.81,2.1-2.66,3.26-.45,.63-.76,1.38-1.02,2.12-.26,.77,.16,1.47,.93,1.68,.37,.1,.79,.13,1.17,.09,.78-.09,1.56-.22,2.34-.37,2.32-.45,4.63-1.03,6.97-1.34,2.42-.31,4.8-.79,7.17-1.31,1.6-.35,3.17-.85,4.8-1.12,1.97-.33,3.83-.95,5.45-2.14,.15-.11,.22-.32,.36-.54-.31-.41-.61-.83-.81-1.09-1.15-.19-2.11-.4-3.08-.48-1.22-.11-2.49-.41-3.49,.75-.41,.48-1.05,.51-1.66,.33-.36-.1-.71-.22-1.16-.36-.26,.63-.46,1.18-.7,1.7-.29,.63-.61,.74-1.46,.54-.18-.04-.35-.11-.54-.17-.14,.18-.25,.35-.39,.48-.8,.76-1.29,.71-1.87-.21-.17-.27-.3-.55-.46-.87-1.21,.3-2.27,.2-3.27-.51-.28-.2-.75-.19-1.14-.21-1.71-.09-3.41-.15-5.49-.23Zm-138.44,17.91c-.14-.23-.19-.35-.28-.46-1.3-1.61-2.38-3.31-2.52-5.47-.07-1.03-.6-1.87-1.3-2.61-.32-.33-.65-.65-.98-.98-1.85-1.8-3.06-3.96-3.47-6.52-.21-1.3-.36-2.61-.56-3.91-.03-.17-.18-.31-.28-.47-.54,.11-1.03,.2-1.49,.3-.27,1.47-.39,1.6-1.53,1.69-.44,.03-.88,.04-1.46,.06,.21,.42,.37,.7,.5,.99,.14,.32,.12,.64-.16,.9-.27,.26-.6,.3-.9,.11-.62-.38-1.2-.82-1.83-1.17-.3-.17-.63-.53-1.12-.1,.17,.26,.31,.56,.52,.78,1.01,1.07,1.76,2.29,2.32,3.65,.75,1.81,1.96,3.26,3.49,4.47,2.51,1.99,4.6,4.34,5.98,7.27,.22,.48,.48,.94,.72,1.41,.37,.72,.84,1.33,1.53,1.72,.92-.54,1.82-1.08,2.81-1.66Zm125.07-12.27c-.05-1.07-.13-2.17-.15-3.28-.03-1.11,0-2.23,0-3.48-1.72-.5-1.64-2.34-2.56-3.57-1.21-.09-2.43-.52-3.66,.03-.69,.3-1.3,.09-1.79-.44-.36-.38-.65-.82-.9-1.13-1.27,.24-2.32,.16-3.19,.93-.36,.32-.9,.1-1.27-.21-.45-.38-.86-.81-1.3-1.21-.96-.88-2.04-1.36-3.46-1.1,.03,.33,0,.61,.09,.83,.7,1.63,1.79,2.91,3.45,3.62,.66,.29,1.36,.5,2.02,.79,2.53,1.14,4.6,2.78,5.72,5.43,.18,.42,.4,.82,.61,1.25,1.97,.57,3.92,1.13,5.88,1.68,.11,.03,.24-.06,.5-.13Zm-326.4,1.35c-1.14,1.46-2.45,2.28-4.03,2.68-.66,.17-1.2,.52-1.75,1.29,.29,.2,.6,.45,.93,.64,1.18,.71,2.37,1.42,3.57,2.1,1.72,.97,3.45,1.9,5.18,2.86,.52,.29,1,.63,1.53,.9,.28,.14,.61,.22,.93,.27,.41,.05,.74-.39,.63-.79-.04-.13-.07-.25-.13-.37-.99-1.89-1.46-3.92-1.85-6-.23-1.27-.39-2.59-1.01-3.81-1.39-.39-2.6,.62-3.99,.24Zm78.53-1.79c-.65-1.08-1.5-1.58-2.22-2.23-.68-.61-1.3-1.3-1.89-2-.62-.74-1.3-1.47-1.58-2.51,1.07-.37,2.21-.17,3.37-.88-.96-.17-1.66-.36-2.38-.42-1.44-.13-2.75,.19-3.73,1.36-.59,.7-1.2,1.4-1.81,2.09-.6,.68-1.2,1.39-2.23,1.52-.33-.37-.63-.69-.95-1.04-.52,.35-1.01,.65-1.01,1.43,1.43,.87,2.92,1.72,4.34,2.65,1.36,.89,2.89,1.25,4.42,1.6,.31,.07,.66,.07,.97,0,1.54-.32,3.04-.79,4.69-1.55Zm254.64-6.77c-.87,.36-1.67,.64-2.43,1.01-.59,.29-1.14,.67-1.18,1.44-.08,1.58,.08,3.14,.41,4.69,.08,.39,.69,.56,.95,.25,.33-.4,.66-.82,.89-1.28,.85-1.73,1.97-3.24,3.34-4.58,.2-.2,.32-.49,.52-.82-.96-.27-1.77-.5-2.51-.71Zm-56.05-1.66c.57-.73,.61-1.64,.61-2.53,0-.75,.2-1.57-.45-2.3-1.15,.12-2.33,.22-3.49,.39-.25,.04-.47,.32-.78,.55,1.34,1.36,2.58,2.62,3.82,3.87,.03,.04,.12,.02,.29,.03Zm-141.79-2.84c.53,.61,.93,1.07,1.37,1.59,.61-.57,.74-1.12,.55-1.91-.62,.11-1.16,.2-1.92,.33Zm220.77-55.43c.01,.6,.25,.96,.83,1.07,.04,0,.15-.1,.14-.11-.18-.3-.37-.61-.58-.89-.05-.06-.2-.04-.4-.07Z"/><g><path class="cls-4" d="M16.64,264.21c-.09,.03-.17,.06-.26,.09,.11-.23,.07-.4-.19-.48-.71-.22-1.42-.43-2.13-.65-.3-.1-.62-.19-.87-.36-.14-.09-.27-.36-.24-.52,.03-.15,.28-.37,.43-.37,.47,0,.96,.03,1.41,.16,1.36,.41,2.71,.89,4.03,1.32,.28-.25,.51-.63,.81-.68,.29-.05,.63,.23,1.1,.43-.34-1.09,.55-1.61,.81-2.39,.09-.27,.35-.47,.62-.35,.21,.09,.45,.33,.5,.54,.1,.41,.07,.84,.1,1.26,.02,.3-.08,.64,.22,.88,.33,.11,.48-.11,.59-.35,.35-.77,.66-1.57,1.04-2.33,.52-1.05,1.38-1.73,2.48-2.12,.43-.15,.83-.24,1.18,.13,.26,.27,.18,.69-.19,1.14-.24,.29-.51,.54-.74,.83-.25,.32-.47,.66-.72,1.02,.18,.04,.3,.11,.37,.07,1.78-.82,3.59-1.59,5.45-2.21,.33-.11,.59-.42,.89-.64-.37-.59-.95-.76-1.43-1.07-.53-.34-.71-.69-.49-.99,.22-.31,.58-.35,1.14-.06,.52,.27,1.01,.59,1.52,.87,.36,.19,.74,.36,1.13,.54,.29-.37,.51-.66,.74-.95,.63-.79,1.26-1.58,1.9-2.36,.21-.26,.46-.46,.82-.3,.28,.12,.29,.56,0,.98-.34,.48-.73,.92-1.07,1.39-.13,.18-.44,.34-.2,.62,1.18-.26,2.11-1.28,3.46-1.05v.83c.85,.15,1.61-.16,2.38-.27,1.89-.27,3.77-.62,5.65-.98,.32-.06,.6-.27,1.14-.53-.84-.18-1.4-.29-1.97-.41-.21-.04-.45-.04-.61-.15-.15-.1-.31-.33-.31-.5,0-.17,.14-.41,.29-.51,.16-.11,.4-.15,.61-.13,.69,.04,1.37,.13,2.06,.19,.53,.04,1.05,.09,1.58,.09,.12,0,.23-.18,.38-.31-.18-.33-.36-.64-.5-.9,.18-.77,.93-.72,1.34-1.15-.15-.06-.3-.09-.42-.17-.46-.28-.5-.79-.05-.96,.44-.16,.92-.23,1.38-.3,.26-.04,.53,0,.8-.04,.28-.04,.61,.16,.84-.15-.03-.07-.04-.12-.06-.16-.15-.27-.46-.56-.42-.79,.05-.29,.39-.52,.63-.81-.19-.17-.41-.33-.57-.53-.32-.41-.17-.83,.33-.97,.25-.07,.51-.09,.83-.14-.19-.6-.37-1.15-.53-1.7-.1-.37,.06-.67,.37-.77,.36-.12,.65,.02,.8,.32,.19,.38,.29,.79,.44,1.19,.23,.63,.32,1.32,.86,1.92,.4-.29,.65-.59,.66-1.06,0-.48,0-.96,.07-1.43,.04-.24,.22-.62,.38-.65,.74-.12,1.4-.76,2.23-.31,.47-.69,.89-1.36,1.37-2,.41-.55,.84-1.1,1.34-1.57,.92-.87,1.74-.91,2.86-.27,.18,.1,.37,.2,.57,.3,.21-.07,.43-.12,.61-.22,.76-.41,1.5-.76,2.42-.62,.26,.04,.58-.2,.85-.36,.41-.25,.77-.58,1.19-.8,.61-.32,1.25-.63,1.97-.28,.39,.19,.72-.03,1.05-.2,.59-.31,1.2-.43,1.85-.3,.35,.07,.7,.2,1.03,.3,.39-.29,.72-.56,1.07-.79,.71-.46,1.48-.64,2.26-.19,.86,.5,1.69,.39,2.6,.15,.82-.22,1.62-.46,2.4-.81,.91-.41,1.84-.98,2.87-.82,1.29,.2,2.55-.01,3.8-.1,1.41-.1,2.79-.3,4.24-.14,1.24,.14,2.54-.17,3.79-.38,3.61-.61,7.22-1.18,10.89-1.48,5.86-.49,11.69-.18,17.53,.2,3.18,.2,6.29,1,9.36,1.85,.45,.13,.92,.3,1.31,.56,1.8,1.23,3.55,2.51,5.02,4.15,1.06,1.18,2.25,2.25,3.4,3.35,.59,.57,1.32,.9,2.09,1.11,1.39,.38,2.79,.67,4.25,.5,1.61-.18,3.17-.02,4.72,.46,4.4,1.36,8.38,3.36,11.27,7.1,.75,.97,1.75,1.56,2.92,1.81,1.24,.26,2.5,.41,3.65,.6,.74-.46,1.01-1.11,1.29-1.74,.23-.53,.43-1.09,.66-1.62,.12-.27,.35-.4,.64-.33,.3,.08,.46,.33,.4,.6-.13,.62-.31,1.23-.49,1.83-.11,.39-.53,.68-.34,1.29,.46-.45,.85-.86,1.27-1.24,.27-.25,.56-.48,.87-.68,.3-.19,.63-.14,.87,.13,.28,.31,.42,.69,.8,.95,.28,.19,.34,.71,.5,1.1,1-.08,2.02-.07,3.01-.26,2.09-.41,4.14-.08,6.19,.16,2.42,.28,4.83,.72,7.25,1.07,.46,.07,.94,.06,1.48,.09,.5-.8,.98-1.56,1.46-2.32,.17-.28,.37-.55,.75-.48,.44,.08,.58,.42,.61,.82,.04,.53,.05,1.06,.11,1.59,.02,.23,.13,.46,.19,.67,.22-.05,.34-.04,.42-.1,1.28-.83,2.63-1.1,4.09-.49,.37,.15,.73,.09,1.08-.06,.54-.23,1.06-.5,1.6-.72,.29-.12,.6-.21,.91-.25,.32-.05,.64,.26,.6,.59-.04,.35-.15,.69-.25,1.1,.51,.09,.97,.14,1.43,.25,.3,.07,.69,.14,.86,.35,.59,.73,1.35,.8,2.15,.67,1.25-.21,2.39,.37,3.6,.41,.15,0,.29,.12,.44,.18,.65,.23,1.3,.44,1.94,.7,1.58,.62,3.17,1.22,4.71,1.92,.77,.35,1.53,.71,2.36,.93,2,.53,3.66,1.67,5.16,3.05,.11,.1,.14,.28,.21,.44-.12,.28-.25,.56-.36,.83,.47,.66,1.37,.85,1.73,1.64-.14,.56-.27,1.11-.43,1.72h-1.41c.94,2.32,2.8,2.99,4.99,3.12,.64,.04,1.28-.02,1.91,.02,.9,.05,1.82,.04,2.69,.25,2.68,.65,5.34,1.36,8,2.12,1.44,.41,2.76,1.13,3.92,2.07,.98,.79,2.03,.82,3.16,.57,.41-.09,.8-.29,1.21-.41,.5-.15,.82,.13,.75,.67-.03,.23-.13,.46-.24,.84,1.13-.11,2.11-.2,3.06-.29,.15,.33,.26,.56,.37,.79q1.27,.26,1.74,1.36c.22,.02,.48,.04,.74,.05,.4,.02,.67,.21,.9,.56,.76,1.14,1.66,1.51,2.93,1.13,1.4-.42,2.81-.56,4.25-.48,.85,.05,1.69,.14,2.53,.28,.81,.14,1.58,.23,2.28-.31,.08-.06,.18-.1,.28-.16,.68-.38,1.33-.3,1.94,.14,.3,.22,.57,.48,.87,.69,.38,.28,.75,.63,1.18,.79,1.27,.48,2.37,1.18,3.36,2.09,.15,.14,.33,.27,.52,.36,1.3,.61,2.6,1.21,3.9,1.81,.46,.21,.93,.18,1.38-.07,.41-.24,.81-.51,1.23-.73,.28-.15,.58-.29,.88-.33,.17-.02,.43,.11,.53,.25,.1,.14,.12,.46,.02,.58-.22,.29-.53,.51-.81,.75-.18,.16-.5,.22-.42,.61,.86,.16,1.67,0,2.42-.47,.36-.23,.73-.43,1.1-.64,.33-.19,.62-.08,.84,.2,.2,.25,.1,.5-.08,.72-.42,.53-1.05,.9-1.28,1.64,.49,.56,1.08,.66,1.73,.46,.3-.09,.58-.25,.89-.34,.47-.13,.79,.2,.71,.74-.03,.19-.11,.37-.15,.49,2.39,1.37,4.69,2.68,7,3.99,.46,.26,.94,.49,1.4,.75,.68,.39,1.32,.32,1.95-.1,.31-.21,.59-.45,.88-.68,.17-.13,.33-.33,.51-.36,.23-.04,.53,0,.72,.12,.27,.18,.19,.49,0,.7-.38,.43-.79,.83-1.27,1.33,.68,.11,1.18,.29,1.3,1.03,.08,.5,.57,.75,1.03,.91,.4,.14,.82,.21,1.23,.32,.82,.23,1.65,.41,2.44,.72,.86,.34,1.63,.84,1.43,2,.44,.08,.82,.11,1.16,.23,.75,.27,1.49,.56,2.21,.89,.32,.14,.46,.49,.32,.8-.09,.2-.36,.36-.58,.46-.18,.08-.42,.03-.63,.07-.17,.04-.46-.07-.46,.36,.15,.06,.33,.15,.51,.21,1.11,.35,2.25,.63,3.33,1.06,.68,.27,1.32,.69,1.88,1.16,.64,.54,.53,1.1-.22,1.67-.12,.09-.23,.19-.4,.33,.04,.4-.06,.94,.16,1.2,.53,.64,1.15,1.21,1.6,1.93,.12,.19,.47,.22,.7,.33,.66,.33,1.36,.62,1.98,1.02,.89,.58,.86,1,.02,1.68-.11,.09-.19,.2-.3,.32,.19,.17,.37,.29,.51,.45,.27,.32,.65,.62,.75,.99,.09,.34-.14,.77-.23,1.18,.37,.24,.75,.45,1.08,.71,.47,.36,1.34,.52,1.08,1.35-.21,.7-.95,.53-1.51,.57-.2,.01-.4,.05-.61,.08,.24,.76,.47,1.45,.67,2.16,.19,.64,.14,1.31-.19,1.86-.22,.37-.68,.61-.96,.84-.25,.72-.36,1.45-.74,1.99-.64,.9-1.45,1.69-2.21,2.5-.11,.12-.42,.15-.58,.09-.16-.07-.32-.29-.36-.47-.05-.18,.04-.41,.08-.61,.08-.36,.17-.72,.24-1.08,.07-.34,.48-.6,.21-1.1-.6,.47-1.2,.89-1.74,1.39-.21,.19-.32,.53-.39,.82-.11,.41-.07,.86-.22,1.25-.14,.38-.37,.77-.66,1.06-.45,.46-.96,.33-1.27-.27-.11-.21,0-.56-.43-.64-.14,.18-.31,.37-.44,.59-.16,.28-.22,.61-.41,.86-.26,.35-.64,.58-1.11,.49-.42-.08-.62-.42-.67-.8-.08-.58-.08-1.16-.15-1.74-.03-.2-.19-.37-.44-.82-.05,.68-.06,1.05-.12,1.41-.05,.31-.12,.63-.25,.91-.18,.42-.54,.66-1.01,.65-.41-.02-.69-.29-.83-.65-.17-.44-.27-.92-.42-1.37-.18-.53-.31-1.09-.87-1.47-.06,.23-.09,.38-.13,.53-.06,.2-.09,.42-.19,.6-.25,.48-.82,.58-1.2,.19-.37-.38-.66-.83-1-1.23-.62-.74-1.28-1.41-2.29-1.63-2.18-.48-4.35-.98-6.53-1.46-.55-.12-1.11-.19-1.76-.04,.15,.23,.21,.38,.31,.47,1.14,.96,2.28,1.9,3.43,2.86,.2,.17,.44,.33,.57,.54,.09,.15,.11,.43,.03,.59-.08,.15-.34,.34-.49,.31-.41-.06-.83-.16-1.18-.37-.59-.35-1.13-.8-1.69-1.19-.26-.18-.53-.41-.82-.46-.65-.13-1.32-.16-2.08-.25,.19,.43,.4,.79,.51,1.17,.05,.16-.04,.44-.17,.55-.13,.12-.41,.17-.58,.12-.24-.07-.44-.27-.66-.42-.8-.51-1.61-1.03-2.42-1.53-.11-.07-.26-.08-.54-.16,.19,.5,.35,.87,.48,1.26,.11,.33,.02,.63-.24,.86-.31,.28-.66,.37-1.02,.15-.41-.25-.79-.53-1.18-.81-.37-.28-.73-.58-1.32-1.05,.11,.52,.12,.77,.21,.99,.22,.54,.51,1.06,.68,1.61,.05,.17-.15,.49-.33,.63-.11,.09-.45,.05-.57-.06-.35-.32-.63-.72-.96-1.06-.93-.95-1.62-1.02-2.2,.22-.04,.1-.1,.19-.15,.28-.62,.93-1.39,1.28-2.46,.94-.7-.22-1.34-.62-2-.96-.58-.31-1.14-.51-1.81-.07,.07,.4,.18,.76,.2,1.12,.02,.36,.04,.75-.07,1.09-.26,.82-1,.95-1.59,.31-.14-.15-.26-.33-.38-.51-.49-.73-1.07-1.3-2-1.45-.34-.05-.64-.34-.96-.52-.26-.15-.53-.29-.76-.41-.45,.45-.77,.89-1.19,1.16-.54,.35-1.1-.15-1.6-.22-.67,.74-1.26,1.42-1.88,2.08-1.08,1.14-2.36,1.95-3.85,2.47-1.4,.48-2.78,1.04-4.17,1.57-1.59,.6-3.16,1.28-4.91,1.27-.62,0-.96,.36-1.23,.86-.66,1.21-1.35,2.41-2.02,3.62-.99,1.79-2.23,3.31-3.85,4.61-2.16,1.75-4.6,2.63-7.3,2.85-1.75,.14-3.51,.17-5.26,.12-3.13-.09-6.26,.07-9.4,0-3.13-.07-6.27,.18-9.4,.29-.24,0-.54-.07-.72,.33,.12,.12,.23,.31,.39,.4,.71,.36,1.4,.79,2.15,1.02,2.33,.71,4.69,1.34,7.04,2.02,1.22,.35,2.44,.73,3.65,1.13,1.51,.51,2.99,1.09,4.51,1.59,1.32,.43,2.58,.98,3.8,1.62,1.46,.76,2.98,1.39,4.75,1.84,.15-.2,.29-.53,.54-.69,.24-.15,.59-.12,.92-.17-.06-.64,.28-.95,.71-1.33,.47-.42,.87-.21,1.37-.21,.02-.31-.01-.64,.08-.93,.07-.22,.28-.47,.49-.55,.33-.12,.62,.09,.78,.4,.12,.23,.19,.49,.27,.74,.11,.35,.21,.7,.32,1.07,.44,.07,.83,.14,1.37,.23-.13-.46-.21-.75-.31-1.03-.12-.35-.3-.68-.4-1.04-.07-.26-.03-.59,.27-.67,.22-.06,.57-.04,.73,.1,.27,.23,.43,.59,.65,.89,.27,.37,.25,.94,.74,1.12,.56-.26,1.07-.67,1.61-.72,.71-.06,1.34-.28,1.98-.52,.44-.16,.86-.16,1.17,.2,.26,.29-.03,.59-.1,.89,0,.03,.03,.08,0,.02,.93,0,1.82,.01,2.71-.02,1.07-.04,2.05-.35,2.91-1.04-.19-.48-.38-.86-.5-1.26-.19-.65,.06-1.05,.79-1.29,.2-.06,.4-.09,.55-.12,.27-.42,.45-.83,.75-1.11,.32-.3,.77-.48,1.16-.71,.02-.35-.19-.73,.2-1.02,.35-.26,.69-.2,1.05-.03,.46,.21,.92,.43,1.45,.68,.12-.8,.24-1.48,.34-2.16,.15-1.05,.33-1.36,.82-1.29,.75,.11,.65,.71,.67,1.24,.01,.19,.09,.38,.16,.68,.58-.46,1.05-.88,1.56-1.24,.55-.4,1.14-.74,1.77-1.15-.3-.36-.59-.67-.83-1.01-.2-.29-.21-.65,.08-.86,.18-.13,.5-.14,.72-.07,.24,.07,.45,.27,.66,.43,.46,.34,.92,.7,1.37,1.03,1.39-.16,2.7-.04,4,.31,.39,.11,.86,.36,1.23,.04,.75-.65,1.53-.13,2.29-.11,.51,.01,.76,.63,.5,1.1-.17,.3-.41,.56-.61,.83,.87,1.18,1.82,2.14,3.07,3.01,.17-.67,.16-1.18,.1-1.69-.04-.37-.08-.74-.07-1.11,.02-.46,.31-.73,.69-.71,.38,.02,.61,.25,.64,.59,.07,.69,.07,1.38,.11,2.07,.01,.19-.11,.43,.25,.6,.27-.24,.56-.52,.87-.77,.37-.3,.74-.6,1.16-.83,.29-.16,.62-.1,.86,.18,.26,.3,.19,.61-.02,.87-.51,.61-1.06,1.19-1.56,1.81-.14,.17-.41,.37-.13,.68,.41-.03,.83-.09,1.25-.07,.31,.02,.62,.12,.91,.24,.31,.14,.5,.41,.43,.77-.07,.38-.36,.49-.71,.49-.4,0-.83-.19-1.29,.21,.71,.61,1.53,.95,2.36,1.25,1.69,.61,3.41,1.17,5.16,1.76,.1-.05,.25-.1,.37-.19,.96-.73,2.08-1.04,3.23-1.27,.36-.07,.75-.07,1.1,0,.31,.06,.59,.26,.64,.63,.04,.35-.09,.65-.4,.8-.37,.19-.77,.32-1.26,.51,.67,.21,1.27,.36,1.83,.59,.6,.24,.79,.68,.72,1.41-.01,.14-.04,.29-.06,.41,.59,.44,1.16,.83,1.69,1.27,.54,.44,1,.96,1.25,1.63,.19,.5-.17,1.01-.7,.98-.25-.02-.53-.1-.73-.25-.29-.21-.53-.5-.78-.76-1.3,1.15-1.42,1.7-.66,3.03,.18,.32,.38,.65,.63,.92,.73,.77,1.46,1.54,2.23,2.27,.65,.62,1.4,1.15,2.03,1.8,.97,1.01,.91,2.28-.11,3.25-1.02,.97-2.23,1.63-3.65,1.81-.36,.05-.72,.08-.96,.11-.42,.61-.66,1.19-1.09,1.53-.48,.37-1.13,.52-1.77,.8-.09,.16-.19,.41-.34,.62-.65,.93-1.32,1-2.08,.2-.4-.42-.74-.88-1.17-1.39-.72,.36-1.38,.22-1.87-.38-.75-.92-1.7-1.02-2.72-.65-.72,.25-1.35,.14-1.99-.19-.43-.22-.85-.44-1.28-.64-.48-.22-.96-.48-1.56-.27-.15,.3-.28,.65-.48,.96-.44,.67-1.14,.83-1.78,.38-.43-.3-.81-.69-1.21-1.03-.64-.54-1.22-1.16-2.06-1.51-.59,.71-1.21,.58-1.86,.14-.22-.15-.44-.3-.67-.42-.22-.11-.39-.38-.76-.21-.08,.14-.19,.31-.28,.5-.23,.48-.41,.98-.67,1.44-.45,.79-1.04,1.36-2.07,1.02-.34-.11-.63,0-.87,.25-.52,.54-1.13,.53-1.77,.3-.31-.11-.6-.21-.91-.04-.66,.37-1.21,.22-1.68-.37-.08-.1-.28-.11-.48-.18-.49,.81-.53,1.73-.77,2.58-.1,.36-.15,.73-.26,1.08-.14,.44-.44,.74-.91,.78-.41,.03-.73-.2-.92-.53-.24-.41-.43-.85-.62-1.29-.22-.52-.42-1.06-.62-1.57-1.27,.22-1.37,.16-1.77-.83-.13-.33-.29-.65-.42-.94-1.04,.21-1.47,.91-1.84,1.71-.4,.86-.84,1.71-1.31,2.54-.18,.31-.46,.69-.76,.77-.69,.19-1.19,.59-1.7,1.04-.42,.37-1.04,.17-1.36-.34-.22-.35-.4-.72-.65-1.18-.36,.37-.6,.7-.91,.93-.48,.34-1.12,.08-1.25-.49-.06-.26-.02-.54-.11-.79-.16-.44-.28-.99-.61-1.27-.61-.52-.74-1.05-.62-1.82,.14-.87-.3-1.37-1.18-1.62-1.07-.3-2.14-.61-3.22-.88-.77-.19-1.54-.34-2.18-.48-.21,.09-.27,.09-.3,.13-.99,1.01-1.01,1.01-1.93-.01-.04-.04-.05-.09-.09-.13-.48-.5-.96-.62-1.57-.3-.37,.19-.69,.48-1.03,.73-.26,.19-.49,.42-.77,.55-.74,.34-1.43-.16-1.37-.97,.02-.26,.09-.52,.16-.78,.3-1.03,.4-2.07,.38-3.14-.02-.94,.14-1.9,.32-2.84,.4-2.05,1.22-3.95,2.29-5.84-.44-.17-.81-.36-1.21-.47-2.71-.76-5.43-1.48-8.13-2.25-1.58-.45-3.14-.97-4.71-1.45-.91-.28-1.83-.56-2.75-.78-1.4-.33-2.81-.57-4.21-.89-1.66-.38-3.27-.91-4.68-1.93-.99-.71-2.01-1.39-3.05-2.04-1.12-.71-2.25-1.41-3.43-2.03-1.38-.73-2.87-1.08-4.45-1.07-2.23,.02-4.47,.02-6.7,.03-3.89,0-7.75,.47-11.61,.85-1.85,.18-3.69,.51-5.53,.69-3.28,.32-6.54,.77-9.79,1.32-3.49,.59-6.82,1.63-9.94,3.29-3.66,1.94-7.27,3.97-10.9,5.97-3.77,2.09-7.4,4.4-11.02,6.73-2.45,1.59-4.49,3.55-6.23,5.87-.51,.68-1,1.38-1.58,2-2.1,2.23-3.76,4.73-5.06,7.5-.53,1.13-.91,2.26-.94,3.51-.02,1.17-.1,2.34-.09,3.5,.02,1.5-.12,2.97-.43,4.43-.64,3.02-1.54,5.96-2.46,8.9-.82,2.58-1.66,5.15-2.26,7.8-.56,2.51-.27,4.86,1.05,7.06,.77,1.28,1.55,2.54,2.38,3.77,1.69,2.52,3.44,4.99,4.91,7.65,1.18,2.14,2.35,4.29,3.56,6.41,1.57,2.75,2.68,5.66,3.36,8.74,.53,2.39,1.02,4.78,1.53,7.17,.26,1.25,.6,2.47,1.2,3.62,.91,1.74,1.82,3.49,2.61,5.28,.68,1.54,1.78,2.88,2.09,4.58,.02,.1,.1,.19,.17,.26,1.01,1.14,1.56,2.53,2.11,3.91,.64,1.6,1.49,3.06,2.57,4.38,1.21,1.48,2.46,2.94,3.77,4.33,1.21,1.28,2.38,2.58,3.37,4.04,1.17,1.72,2.44,3.35,3.87,4.86,.29,.31,.58,.63,.81,.98,.32,.47,.06,.99-.52,1.01-1.02,.04-2.01,.23-2.95,.61-1.21,.49-2.45,.71-3.74,.61-1.31-.1-2.56,.17-3.68,.81-1.98,1.13-4.1,1.36-6.32,1.2-3.47-.25-6.82-1.02-10.1-2.15-3.71-1.29-7.43-2.57-11.14-3.85-.9-.31-1.8-.63-2.69-.2-.56-.27-.5-.7-.52-1.13-.17-3.37-.72-6.66-2.35-9.67-.71-1.31-1.03-2.67-.99-4.13,.02-.9,.02-1.82,.15-2.71,.57-3.76,.25-7.54,.14-11.3-.01-.42-.11-.84-.19-1.26-.35-1.83-.68-3.66-1.05-5.48-.33-1.61-.65-3.23-1.27-4.77-1-2.48-2.26-4.8-3.98-6.87-2.15-2.59-4.05-5.33-5.28-8.49-.23-.59-.54-1.16-.85-1.71-1.31-2.36-2.01-4.91-2.33-7.57-.32-2.69-.62-5.38-.87-8.08-.14-1.43-.09-2.86,.16-4.29,.28-1.63,.35-3.28,.02-4.92-.71-3.49-1.41-6.98-2.15-10.46-.6-2.83-1.6-5.5-3.22-7.93-1.4-2.1-3.22-3.64-5.59-4.54-1.39-.53-2.76-1.12-4.15-1.64-2.38-.91-4.82-1.64-7.32-2.19-4.15-.91-8.28-1.88-12.42-2.83-4.19-.96-8.38-1.92-12.57-2.89-4.93-1.14-9.71-2.73-14.4-4.6-5.49-2.19-10.78-4.79-15.91-7.7-3.7-2.1-7.18-4.57-10.23-7.57-1.25-1.24-2.6-2.35-3.98-3.43-.83-.65-1.64-1.38-2.29-2.2-2.3-2.86-4.53-5.77-6.78-8.67-.39-.5-.77-1.02-1.1-1.57-1.16-1.92-2.55-3.64-4.09-5.27-1.6-1.7-3.5-2.57-5.78-2.59-1.29-.01-2.53-.25-3.78-.5-1.04-.21-2.09-.35-3.14-.52-.31-.05-.63-.08-.94-.14-2.44-.49-4.89-1-7.33-1.49-2.71-.54-5.24-1.42-6.95-3.8-.18-.26-.43-.47-.67-.69-.15-.14-.32-.34-.51-.37-.76-.13-1.17-.68-1.62-1.21-.2-.23-.47-.4-.66-.56-.6,.16-1.11,.4-1.62,.41-.55,.01-1.11-.19-1.67-.29-.36,.17-.73,.36-1.11,.54-.32,.16-.7,.28-.96,.51-.63,.58-1.22,.53-1.85,.03-.12-.1-.28-.14-.47-.24-.12,.17-.24,.34-.36,.5-.62,.86-1.1,.98-2.01,.52-.33-.17-.65-.36-.97-.54-.25-.13-.48-.18-.74,0-.68,.48-1.22,.14-1.66-.38-.42-.49-.81-.95-1.56-.95-.29,0-.63-.18-.86-.38-.79-.71-1.43-1.49-1.6-2.64-.33-2.26-.78-4.5-2.52-6.22-.55-.55-.67-1.3-.68-2.07-.01-1.21,.55-2.15,1.35-2.96,1.09-1.1,2.31-2.02,3.73-2.7,.96-.46,1.88-.98,2.8-1.51,.77-.45,1.2-1.14,1.39-2.03,.56-2.73,1.87-5.07,3.83-7.04,1.27-1.28,2.63-2.48,3.94-3.72,.69-.66,1.48-1.25,1.83-2.17,.55-1.47,1.46-2.71,2.38-3.94,.38-.51,.76-1.01,1.09-1.45-.35-1-.87-1.82-.89-2.73,.4-.83,1.47-.74,1.77-1.4-.23-.34-.5-.56-.54-.82-.03-.2,.19-.47,.36-.65,.14-.15,.35-.24,.55-.31,.75-.27,1.5-.52,2.25-.76,.52-.17,.96-.39,1.21-.93,.15-.31,.44-.59,.73-.81,.58-.44,1.17-.87,1.92-.96,.09-.39,.19-.69,.24-1.01,.14-.88,.06-1.84,1.13-2.29,.18-.08,.23-.46,.35-.69,.1-.18,.2-.4,.36-.51,.16-.1,.4-.12,.6-.08,.11,.02,.27,.21,.28,.33,.04,.36,.01,.72,.01,1.17,.7-.17,1.3-1.04,2.01-.21,.02,.02,.11,0,.15-.03,.55-.47,1.09-.16,1.6,.12,.77-.68,1.47-1.33,2.21-1.93,.32-.26,.7-.47,1.08-.65,.32-.14,.81,.17,.83,.53,.02,.4-.05,.8-.09,1.29,.46-.07,.88-.11,1.28-.19,2.4-.48,4.81-.84,7.27-.79,2.45,.05,4.89,.06,7.34,0,2.23-.06,4.43-.4,6.59-1.05-.55-1.29-.39-1.6,.93-1.81,.21-.03,.42-.04,.63-.06,.79-.1,1.57-.2,2.36-.31-.18-.2-.38-.24-.56-.29-.25-.07-.52-.11-.75-.23-.44-.22-.46-.81-.04-1.03,.23-.12,.49-.26,.74-.27,.63,0,1.27,.05,1.9,.09,.09-.03,.17-.06,.26-.09Zm22.38,56.04c-.03,1.06-.38,2.01-1.18,2.7-1.4,1.19-2.41,2.69-3.46,4.15-.85,1.18-1.89,2.14-3.04,3.03-.58,.45-1.16,.95-1.59,1.54-1.01,1.4-2.33,1.98-4.01,1.69-1.93-.33-3.86-.72-5.79-1.09-1.09-.21-2.17-.5-3.27-.69-1.23-.21-2.44-.07-3.59,.45-1.19,.53-1.52,1.16-1.1,2.41,.34,1,.74,2,1.28,2.91,1.64,2.8,3.39,5.52,5.73,7.82,.99,.98,2.04,1.84,3.28,2.49,1.27,.67,2.48,1.44,3.69,2.21,1.46,.93,2.57,2.25,3.5,3.67,.72,1.09,1.63,1.93,2.59,2.78,1.17,1.03,2.44,1.88,3.86,2.5,1.18,.51,2.4,.81,3.71,.77,1.43-.04,2.86-.12,4.29,.21,.99,.23,1.94,.52,2.85,.97,4.98,2.46,10.23,4.14,15.6,5.44,2.94,.71,5.92,1.23,8.89,1.82,1.87,.37,3.75,.74,5.63,1.06,.99,.17,2,.24,3,.38,1.74,.23,3.47,.48,5.21,.71,1,.13,2,.25,3,.38,2.9,.39,5.73,1.12,8.54,1.91,.39,.11,.79,.17,1.2,.26,.01-.16,.04-.23,.01-.26-1.56-2.1-3.25-4.08-5.43-5.55-2.03-1.36-4.11-2.62-6.44-3.47-1.79-.66-3.51-1.51-5.24-2.31-1.16-.53-2.35-.97-3.61-1.21-1.6-.31-3.02-.99-4.24-2.07-.76-.67-1.5-1.36-2.32-1.95-.64-.46-1.34-.86-2.07-1.16-3.09-1.28-6.18-2.56-9.31-3.73-2.77-1.04-5.11-2.57-6.8-5.04-.62-.9-1.51-1.51-2.5-1.92-1.1-.45-2.04-1.12-2.96-1.85-1.77-1.41-2.9-3.23-3.43-5.42-.8-3.3-1.58-6.61-1.98-10-.23-1.95-.62-3.87-1.4-5.7-.27-.63-.43-1.31-.66-1.96-.06-.18-.2-.33-.44-.7,0,.79,.01,1.31,0,1.84Zm132.47,28.29c2.75-.8,5.51-1.58,8.25-2.41,3.12-.95,6.33-1.34,9.57-1.54,2.6-.16,5.19-.39,7.79-.52,3.51-.17,7.01-.18,10.52,.02,3.23,.19,6.48,.28,9.7-.2,.15-.02,.29-.11,.51-.19,.04-.29,.09-.59,.11-.9,.13-1.84,1.07-2.99,2.85-3.3,2.2-.38,4.41-.66,6.62-.96,.79-.11,1.58-.26,2.37-.25,1.05,0,1.79-.52,2.55-1.13,.58-.46,.77-1.02,.58-1.68-.18-.66-.43-1.31-.68-1.95-.3-.74-.65-1.45-.95-2.19-.12-.28-.16-.59-.26-1.01,1.7-.3,3.32-.05,4.9-.25,.25,.87,.38,1.6,.67,2.26,.3,.67,.76,1.28,1.15,1.91,1.26,2.02,.99,3.97-.76,5.6-.75,.7-1.63,1.21-2.6,1.5-1.52,.46-3.07,.85-4.6,1.27-.51,.14-1.02,.28-1.63,.44,.35,.43,.76,.47,1.14,.51,2.06,.21,4.12,.43,6.19,.58,1.59,.11,3.19,.17,4.78,.17,3.56,.01,6.97-.68,10.16-2.3,.71-.36,1.43-.74,2.04-1.24,1.93-1.6,3.67-3.39,5.08-5.47,.89-1.32,1.71-2.69,2.57-4.03,.55-.86,.96-1.78,1.19-2.77,.07-.3,.05-.62,.07-.9-.33-.29-.55-.04-.75,.05-1.29,.57-2.47,.48-3.56-.47-.16-.14-.33-.27-.48-.42-1.38-1.34-2.99-1.18-4.62-.67-.32,.1-.56,.46-.84,.7-.36,.31-.7,.65-1.08,.92-.42,.29-.89,.31-1.35,.04-.42-.25-.56-.61-.48-1.08,.01-.08-.07-.18-.14-.35-.43,.19-.85,.4-1.28,.57-.81,.31-1.53,.97-2.53,.54-.22-.1-.59,.16-.9,.25-.74,.21-.88,.12-1.16-.9-.65,.38-1.27,.75-1.9,1.12-.52,.31-1.02,.6-1.58,.04-.11-.1-.4-.09-.58-.03-.45,.15-.88,.35-1.32,.53-.71,.29-.8,.26-1.47-.49-.49,0-1.03-.05-1.54,.01-1.02,.11-1.74-.29-2.28-1.26-1.9-.17-3.86,0-5.86-.11-.13,.15-.27,.31-.41,.46-.41,.44-.93,.53-1.46,.3-.63-.27-1.24-.6-1.96-.95-.72,.41-1.35,1.06-1.95,1.71-2.15,2.33-4.9,3.56-7.9,4.18-2.43,.5-4.75,0-6.74-1.64-1.16-.95-2.48-1.65-3.91-2.08-1.78-.53-3.59-.91-5.47-.95-1.32-.03-2.64-.27-3.96-.4-3.23-.33-6.48-.38-9.72-.23-1.11,.05-2.21,.26-3.32,.42-.31,.04-.62,.14-.92,.25-1.04,.36-1.58,1.05-1.53,2.14,.05,1,.19,2.01,.33,3,.08,.58,.26,1.14,.37,1.71,.58,3.04-.3,5.67-2.28,7.97-.45,.52-.93,1.02-1.43,1.51-1.29,1.28-2.34,2.75-3.31,4.28-.08,.13-.11,.28-.18,.48,.58,.09,1.08-.06,1.59-.21Zm-86.14-34.88c.56,.17,1.1,.4,1.64,.63,.26,.11,.43,.31,.37,.62-.06,.29-.44,.56-.73,.49-.36-.08-.72-.19-1.07-.31-1.41-.5-2.75-1.13-4.01-1.93-.21-.14-.42-.28-.61-.4-.51,.37-.21,.69-.12,1.04,.07,.29,.01,.61,.01,1.06,.25,.19,.64,.44,.99,.74,.1,.08,.16,.33,.11,.43-.09,.17-.27,.38-.44,.4-.24,.03-.52-.04-.75-.15-1.65-.74-2.97-1.84-3.69-3.62-1.55-.68-3.41-.74-4.82-2-.24,.1-.48,.19-.7,.29-.37,.17-.71,.14-1.06-.08-.22-.13-.53-.32-.71-.25-.61,.24-1.01-.08-1.46-.37-.17-.11-.39-.14-.63-.23-.16,.16-.34,.28-.45,.44-.42,.62-.92,.81-1.64,.49-.26-.12-.64-.16-.9-.07-1.1,.37-2.18,.81-3.22,1.2-.34,.78-.16,1.73-1.19,2.13-.3-.15-.67-.34-1.05-.53-.06,.07-.16,.13-.18,.21-.05,.21-.04,.42-.1,.63-.23,.85-.47,.95-1.38,.6-.14-.05-.28-.08-.4-.11-.72,.61-.22,1.04,.2,1.57-1.02,1.56-1.9,3.26-3.41,4.49-1.14,.93-1.93,2.1-2.49,3.46-.26,.64-.53,1.28-.84,1.89-.58,1.11-.85,2.29-.86,3.53,0,.85-.02,1.71,.09,2.55,.1,.73,.25,1.49,.57,2.14,1.29,2.62,3.19,4.66,5.99,5.65,1.96,.69,3.81,1.61,5.68,2.5,1.53,.73,3.12,1.35,4.73,1.87,2.18,.7,4.3,1.53,6.35,2.54,1.58,.78,3.26,1.27,4.93,1.81,1.21,.39,2.19,.06,2.91-1,.36-.53,.73-1.05,1.07-1.59,.2-.31,.43-.65,.49-1,.27-1.57,.54-3.14,.71-4.71,.11-1.01-.14-2-.56-2.94-.5-1.11-.85-2.3-1.45-3.35-1.2-2.11-2.97-3.74-4.96-5.1-.88-.6-1.79-1.15-2.72-1.65-2.93-1.57-4.94-4.01-6.44-6.88-.83-1.59-1.64-3.23-1.83-5.07-.11-1.05-.15-2.11-.19-3.17-.02-.41,.32-.7,.7-.68,.1,0,.21,.02,.31,.04,1.3,.27,2.59,.55,3.97,.84,.11,.32,.25,.66,.34,1.01,.36,1.39,.7,2.78,1.05,4.17,.16,.63,.45,1.18,.88,1.68,.89,1.05,1.85,2.04,2.88,2.96,.15,.14,.34,.25,.53,.33,.35,.15,.82-.19,.77-.56-.12-.89-.23-1.79-.42-2.67-.28-1.24-.65-2.45-.95-3.68-.05-.18,.03-.39,.05-.64,.73-.2,1.42-.09,2.1-.11,.24,0,.53,.12,.7,.29,.54,.5,1.1,1.01,1.55,1.59,.97,1.26,1.84,2.6,2.81,3.86,.77,1,1.27,2.1,1.46,3.32,.17,1.04,.6,1.92,1.22,2.73,.91,1.2,1.49,2.52,1.85,4.01,.62,2.6,2.27,4.53,4.51,5.94,1.21,.76,2.48,1.39,3.9,1.74,2.91,.73,5.66,1.82,7.8,4.06,.1,.1,.26,.15,.52,.28,.03-.32,.11-.57,.08-.8-.09-.68-.22-1.36-.34-2.04-.15-.9-.65-1.59-1.4-2.04-1.04-.62-1.76-1.51-2.5-2.43-.37-.45-.75-.9-1.16-1.31-1.13-1.14-2.14-2.34-2.86-3.8-.46-.94-1.16-1.77-1.8-2.62-.42-.56-.83-1.11-.99-1.8-.05-.21-.08-.44-.19-.6-.86-1.25-1.23-2.7-1.73-4.09-.11-.3-.2-.61-.35-.89-.92-1.68-1.61-3.47-2.3-5.25-.55-1.41-1.64-2.32-2.97-2.96-.32-.16-.62-.07-.88,.37,.28,.47,.64,.74,1.12,.9Zm43.33,9.81c-.14,.08-.28,.14-.4,.23-.65,.49-.7,.51-1.24,.17-.22-.14-.42-.32-.62-.47-.45,.16-.89,.43-1.31,.42-.28,0-.54-.42-.88-.72-.6,.54-.98,1.36-1.43,2.1-.46,.76-.85,1.6-1.13,2.44-.4,1.21-.69,2.45-1.02,3.68-.25,.93-.58,1.87-1.27,2.54-1.24,1.23-2.26,2.64-3.34,4-.1,.12-.24,.21-.33,.34-1.01,1.51-2.34,2.74-3.54,4.09-.24,.28-.48,.57-.65,.9-.29,.53-.43,1.08-.18,1.68,.1,.24,.17,.5,.24,.76,.26,.86,.17,1.68-.35,2.43-.03,.04-.06,.09-.1,.13-1.18,1.4-1.67,3.05-1.72,4.86,0,.26-.07,.53-.13,.78-.47,2.17-.07,4.22,.89,6.19,.35,.72,.8,1.38,1.44,1.89,2.4,1.9,4.31,4.25,6.11,6.69,.25,.34,.49,.71,.8,.99,.43,.39,.9,.76,1.4,1.03,.58,.31,1.22,.32,1.84,0,1.04-.54,2.08-1.07,3.11-1.61,1.08-.57,2.17-1.13,3.24-1.72,.7-.38,1.4-.78,2.04-1.24,1.3-.94,2.7-1.68,4.16-2.35,.72-.33,1.44-.69,2.11-1.11,1-.64,1.53-1.56,1.51-2.8-.01-.84,.08-1.7,.21-2.53,.23-1.47,.06-2.84-.67-4.16-.81-1.44-1.68-2.84-2.74-4.1-1.03-1.22-2.09-2.41-3.14-3.61-1.34-1.53-2.54-3.14-3.28-5.05-.29-.74-.62-1.47-.96-2.19-.82-1.77-1.15-3.66-1.18-5.57-.05-2.59,.64-4.94,2.62-6.77,.46-.43,.86-.93,1.37-1.48-.61-.36-1.01-.6-1.45-.85Zm39.52-6.08c-.8-.43-1.53-.21-2.25,.18-.42,.23-.83,.47-1.25,.7-.69,.39-1.12,.98-1.29,1.74-.45,2.07-1.14,4.09-1.29,6.23-.07,1.09-.54,2.05-1.14,2.94-.77,1.16-1.68,2.2-2.87,2.95-1.2,.75-2.12,1.75-2.87,2.93-.46,.71-1,1.37-1.48,2.08-.42,.61-.81,1.24-1.2,1.87-.5,.81-.95,1.66-1.48,2.45-.64,.95-.98,1.99-1.08,3.12-.23,2.7-.46,5.4-.7,8.09-.09,1.01-.06,2.01,.2,3,.11,.41,.16,.83,.26,1.36,.24-.13,.46-.21,.65-.34,.92-.62,1.82-1.28,2.76-1.88,1.02-.66,2.05-1.33,3.12-1.91,1.12-.6,2.26-1.2,3.45-1.62,1.11-.4,1.78-1.07,2.13-2.16,.32-1.01,.73-1.99,1.06-3,.8-2.36,2.28-4.17,4.4-5.47,.5-.31,1-.6,1.5-.91,.9-.57,1.75-1.21,2.41-2.06,.7-.89,.96-1.88,.56-2.99-.7-1.93-1.58-3.72-3.41-4.85-1.41-.87-2.16-2.14-2.38-3.77-.22-1.69,0-3.3,.96-4.73,.8-1.19,1.52-2.41,2.21-3.86-.49-.05-.79,0-1-.12Zm-61.72-1.76c-.5,0-1.01,.12-1.42-.03-.41-.16-.71-.59-1.16-.99-1.07,.18-2.22-.68-3.38-.13-1.42-.9-2.96-1.18-4.48-1.07-1.46,.1-2.72-.2-3.96-.85-.14-.07-.28-.14-.4-.2-.32,.15-.15,.36-.1,.53,.15,.45,.35,.89,.47,1.35,.54,1.91,1.33,3.69,2.49,5.3,.44,.62,.79,1.28,.83,2.04,.07,1.16,.5,2.19,1.12,3.11,1.06,1.55,1.75,3.27,2.52,4.96,.6,1.32,1.38,2.51,2.36,3.58,.17,.19,.39,.34,.67,.58,.24-.27,.57-.46,.6-.71,.17-1.08,.88-1.78,1.61-2.49,.53-.51,1.14-1,1.51-1.62,.64-1.09,1.12-2.28,1.66-3.43,.24-.53,.44-1.07,.7-1.59,.89-1.78,1.41-3.67,1.55-5.64,.04-.56-.13-1.13-.21-1.77-1.29,.4-2.29,.09-3-.91Zm162.44-10.2c-1.59-.85-3.18-1.7-4.81-2.48-1.34-.65-2.69-1.28-4.09-1.78-1.34-.48-2.32-1.3-2.91-2.55-.58-1.26-1.6-1.96-2.83-2.38-1.34-.46-2.71-.55-4.05,.02-.58,.25-1.14,.57-1.7,.88-1.09,.62-2.22,.93-3.5,.86-1.64-.1-3.27,.07-5.03,.42,.18,.25,.26,.43,.4,.54,.7,.57,1.4,1.14,2.13,1.68,1.59,1.19,3.4,1.8,5.37,1.66,1.55-.11,2.95,.26,4.3,.92,.33,.16,.68,.31,.99,.52,2.04,1.39,4.35,1.91,6.75,2.2,2.11,.26,4.2,.6,6.31,.88,.68,.09,1.38,.11,2.07,.12,.58,0,.97-.32,1.31-.85-.25-.24-.44-.52-.7-.66Zm-93.17,16.38c2.15-.66,4.39-.74,6.58-1.13,1.2-.21,2.41-.27,3.65-.1,1.73,.24,3.48,.38,5.23,.52,1.33,.1,2.63,.32,3.93,.6,1.35,.3,2.7,.58,4.1,.47,.91-.07,1.8-.22,2.61-.64,.16-.08,.27-.28,.52-.55-1.12-.1-2.06-.17-3-.28-.25-.03-.6-.09-.72-.26-.33-.49-.77-.46-1.26-.45-.99,.02-.99,0-1.35-1.17-.74-.24-1.54-.12-2.33-.14-.9-.02-1.79,.03-2.66-.34-.77-.33-1.24-.78-1.26-1.64,0-.26-.04-.52-.08-.85-.39-.02-.75,0-1.11-.05-.87-.09-1.14-.49-.99-1.42,.02-.15,.07-.29,.1-.44-.74-.32-1.46-.63-2.48-1.07-.77-.05-1.71,.18-2.43,1.18-.31,.43-.95,.63-1.53,.99-.12,.29-.25,.69-.46,1.06-.09,.15-.34,.29-.51,.28-.17,0-.39-.18-.47-.33-.12-.22-.13-.5-.2-.78-.45-.11-.9-.22-1.39-.34-.1,.09-.25,.17-.33,.3-.5,.75-.98,1.52-1.47,2.27-.64,.98-1.27,1.96-2.2,2.71-.27,.22-.42,.59-.64,.92,.67,.89,1.47,.87,2.16,.66Zm-85.48,30.4c1.2,.24,2.47,.46,3.37,1.31,1.2,1.12,2.45,2.15,3.78,3.13,.53,.39,.87,1.06,1.28,1.61,1.18,1.64,2.33,3.29,3.52,4.92,.86,1.18,1.98,2.06,3.33,2.65,.08,.03,.19-.01,.29-.02,.18-.22,0-.4-.1-.55-.82-1.11-1.62-2.23-2.48-3.31-.86-1.08-1.66-2.2-2.31-3.43-1.08-2.04-1.02-4.19-.64-6.37,.03-.16,.09-.31,.13-.46,.37-1.52,0-2.8-1.12-3.92-1.2-1.2-2.51-2.07-4.23-2.33-1.26-.19-2.46-.61-3.54-1.35-.64-.45-1.08-.27-1.3,.5-.16,.55-.24,1.14-.25,1.72-.04,1.18-.16,2.34-.6,3.43-.27,.68-.62,1.33-.99,2.1,.67,.14,1.28,.26,1.9,.38Zm-59.02-36.79c-.53,.41-.56,.96-.71,1.46-.37,1.18-1,1.47-2.37,1.09-.13-.43-.26-.88-.42-1.41-.66-.09-1.33-.24-1.6-1.02-.09-.26-.16-.24-.8-.3-.46,.54-.6,1.22-.74,1.89-.29,1.38-.93,2.6-1.72,3.73-.77,1.12-1.74,1.99-3.24,2.04-.57,.02-1.15,.18-1.71,.34-.45,.13-.88,.36-1.3,.57-.45,.23-.72,.59-.79,1.12-.06,.47-.19,.93-.32,1.5,.35,.02,.66,.02,.95,.05,1.27,.13,2.52,.31,3.7,.86,.57,.27,1.19,.45,1.79,.66,.25,.09,.51,.26,.75,.23,1.52-.2,3.08-.35,4.21-1.55,.51-.54,.96-1.14,1.36-1.77,1.12-1.75,2.42-3.36,3.84-4.88,.51-.54,.98-1.12,1.45-1.69,.77-.96,.82-1.17,.74-2.75-1.04-.06-2.08-.13-3.08-.19Zm127.3-45.54c-.44,.48-.86,.99-.72,1.69,.17,.84,.47,1.67,1.25,2.14,.95,.57,1.92,1.18,2.95,1.53,1.8,.61,3.67,1.04,5.51,1.53,1.06,.28,2.12,.22,3.1-.29,2.09-1.08,4.34-1.34,6.65-1.32,1.61,.02,3.16-.24,4.68-.78,1.04-.37,1.86-1,2.59-1.79,.4-.43,.31-.91-.21-1.18-1.24-.65-2.58-1-3.96-1.1-.55-.04-1.14,.22-1.68,.4-.6,.2-1.17,.51-1.77,.71-1.62,.54-3.28,.83-5.01,.75-1.11-.05-2.24-.07-3.34,.04-1.8,.18-3.35-.37-4.77-1.4-.21-.16-.42-.32-.62-.5-1.2-1.08-2.6-1.35-4.13-1.08-.19,.24-.34,.45-.52,.65Zm-104.53,12.49c.85,.12,1.62,.5,2.28,1.06,.73,.62,1.43,1.26,2.14,1.9,.7,.63,.92,.66,1.65,.12,.34-.25,.67-.52,.99-.8,1.08-.91,2.34-1.43,3.73-1.67,.73-.12,1.46-.26,2.19-.38,1.48-.23,2.86-.78,4.25-1.29,1.29-.47,2.59-.91,3.89-1.38,.39-.14,.76-.32,1.28-.54-.28-.28-.42-.51-.62-.6-.33-.15-.7-.25-1.06-.31-1.41-.22-2.83-.4-4.25-.61-1.4-.21-2.74,.02-4.06,.49-1.1,.39-2.2,.78-3.29,1.17-.2,.07-.4,.15-.59,.23-2.28,.98-4.4,.51-6.27-.91-1.32-1-2.68-.86-4.08-.56-.68,.15-1.2,.66-1.45,1.5,.71,1.41,1.71,2.33,3.28,2.56Zm93.74,52.22c.33-.66,.82-1.1,1.56-1.22,.76-.13,1.17-.62,1.52-1.26,.56-1.02,1.16-2.02,1.79-3,.28-.44,.67-.82,1.02-1.21,.25-.28,.54-.51,.76-.81,.7-.9,1.19-1.88,1.01-3.07-.12-.84-.22-1.68-.38-2.51-.15-.78-.43-1.54-.54-2.32-.12-.78-.11-1.58-.15-2.41-.66-.08-1.08,.37-1.5,.73-.56,.48-1.07,1.01-1.75,1.35-.22,.11-.43,.33-.56,.55-.76,1.27-1.56,2.51-1.92,3.99-.34,1.38-.83,2.73-1.25,4.1-.05,.15-.16,.29-.17,.44-.2,2.1-.57,4.2-.26,6.32,.04,.26,.14,.5,.3,1.05,.29-.4,.43-.55,.51-.72Zm-5.7-12.28c-.62,.22-.73,.73-.93,1.15-.69,1.43-1.37,2.87-2.01,4.32-.43,.97-.83,1.95-1.19,2.95-1.05,2.89-.81,5.75,.41,8.52,1.01,2.29,2.41,4.35,3.94,6.32,.03,.03,.09,.03,.16,.06,.31-.11,.18-.43,.25-.64,.29-.85,.52-1.72,.88-2.54,.58-1.36,.58-2.67-.12-3.97-.12-.23-.23-.48-.39-.69-1.51-2.09-1.5-4.46-1.25-6.86,.1-.99,.4-1.97,.63-2.95,.37-1.64,.75-3.29,1.15-5.02-.55-.22-1.08-.44-1.53-.62ZM3.7,305.28c-1.82-.1-3.61,.12-5.37,.5-1.25,.27-2.49,.54-3.77,.56-.86,.01-1.69,0-2.44-.53-.25-.18-.58-.25-.89-.34-1.09-.33-2.13-.11-2.67,.85-.87,1.54-2.41,2.17-3.71,3.12-.26,.19-.53,.35-.79,.53-.08,.06-.14,.15-.28,.31,.26,.64,.66,1.25,1.2,1.73,.21,.19,.58,.24,.89,.27,1.08,.1,2.11-.12,3.09-.58,.48-.22,.95-.46,1.44-.69,.78-.36,1.59-.59,2.46-.6,1.78-.02,3.47-.41,5.07-1.18,.92-.44,1.9-.66,2.92-.74,1.23-.1,2.38-.53,3.49-1.04,.62-.29,1.2-.66,1.56-1.36-.62-.64-1.37-.79-2.17-.83Zm-12.56,16.62c-.31,.02-.69,0-.92,.17-.8,.58-1.66,.65-2.63,.41-.13,.25-.24,.49-.37,.7-.46,.74-.86,.78-1.5,.17-.11-.11-.2-.24-.31-.39-.15,.05-.29,.11-.44,.14-.68,.16-.94,.08-1.17-.43-.2-.43-.36-.87-.57-1.37-.36,.11-.64,.2-.93,.29-.49,.14-1.01,.12-1.34-.27-.8-.93-1.83-.69-2.81-.6-.78,.07-1.55,.24-2.48,.39-.16,.21-.4,.54-.65,.88,.12,.18,.17,.35,.29,.44,1.31,.96,2.8,1.46,4.39,1.73,1.31,.22,2.57,.62,3.86,.9,1.91,.41,3.83,.8,5.78,1.05,1.89,.24,3.74,.72,5.62,1.08,.62,.12,1.25,.23,1.88,.3,.31,.03,.64,0,.94-.07,.62-.17,.96-.74,.75-1.35-.21-.59-.45-1.2-.82-1.71-.68-.94-1.46-1.81-2.14-2.63-1.67,.07-3.05,.12-4.42,.19Zm118.21,15.58c.55-.31,.93-.81,1.23-1.39,.19-.38,.4-.75,.58-1.13,1.11-2.36,2.79-4.25,4.81-5.86,1.23-.98,2.21-2.15,2.81-3.6,.45-1.09,1.06-2.08,1.87-2.94,.17-.18,.28-.42,.42-.63-.4-.35-.66-.06-.9,.08-.51,.28-.98,.64-1.47,.94-.25,.15-.51,.12-.73-.09-.22-.21-.23-.47-.13-.73,.1-.24,.23-.46,.4-.8-.47-.02-.82-.02-1.18-.05-.92-.07-1.01-.17-1.23-1.36-.37-.07-.77-.15-1.2-.24-.08,.13-.21,.25-.23,.38-.16,1.05-.28,2.1-.45,3.15-.33,2.07-1.3,3.8-2.79,5.25-.27,.26-.53,.52-.79,.79-.56,.59-.99,1.27-1.05,2.1-.11,1.74-.98,3.11-2.03,4.41-.07,.08-.11,.18-.22,.37,.8,.47,1.52,.9,2.27,1.34Zm-102.6-11.12c1.58-.44,3.15-.9,4.74-1.35,.17-.34,.35-.67,.5-1,.9-2.13,2.57-3.45,4.61-4.37,.53-.24,1.09-.41,1.63-.64,1.34-.58,2.21-1.6,2.78-2.92,.08-.18,.05-.4,.07-.67-1.14-.21-2.01,.17-2.78,.89-.35,.32-.68,.67-1.04,.97-.3,.25-.74,.43-1.02,.17-.7-.62-1.55-.55-2.57-.75-.2,.25-.44,.6-.72,.91-.39,.42-.88,.59-1.44,.35-.99-.44-1.97-.1-2.95-.02-.74,.99-.68,2.47-2.06,2.87,0,1.01,.02,1.91,0,2.81-.02,.89-.08,1.78-.12,2.64,.21,.06,.32,.13,.4,.11Zm259.3,.78c-.5,.99-.62,2.05-.81,3.07-.31,1.68-.69,3.31-1.49,4.83-.05,.09-.08,.2-.11,.3-.09,.32,.17,.68,.5,.63,.26-.03,.52-.1,.75-.21,.42-.22,.82-.49,1.23-.72,1.39-.77,2.79-1.52,4.17-2.3,.97-.54,1.92-1.12,2.87-1.69,.27-.16,.52-.36,.75-.52-.45-.62-.88-.91-1.41-1.04-1.27-.32-2.33-.98-3.25-2.15-1.12,.3-2.09-.51-3.21-.2Zm-56.27,0c.25,.05,.53,.06,.78,0,1.24-.28,2.47-.57,3.56-1.29,1.15-.75,2.34-1.44,3.5-2.14,0-.62-.4-.87-.81-1.15-.26,.28-.5,.54-.77,.84-.83-.1-1.31-.67-1.8-1.22-.49-.56-.98-1.11-1.46-1.68-.79-.95-1.84-1.2-3.01-1.1-.57,.05-1.14,.2-1.91,.34,.93,.57,1.85,.41,2.71,.71-.22,.84-.77,1.43-1.27,2.02-.47,.57-.98,1.12-1.52,1.61-.58,.52-1.27,.93-1.79,1.8,1.33,.61,2.53,.99,3.78,1.25ZM-1.14,321.02c.17,.27,.26,.5,.42,.66,1.1,1.09,2.01,2.3,2.69,3.69,.18,.37,.45,.71,.72,1.03,.21,.25,.7,.11,.76-.2,.27-1.24,.4-2.5,.33-3.78-.03-.62-.47-.93-.95-1.16-.61-.3-1.25-.53-1.96-.82-.59,.17-1.25,.36-2.02,.58Zm47.41-1.94c1-1.01,1.99-2.02,3.07-3.11-.25-.18-.43-.41-.63-.44-.94-.14-1.88-.22-2.81-.32-.52,.59-.36,1.25-.36,1.86,0,.72,.04,1.46,.49,2.04,.14-.01,.21,0,.24-.03Zm112.42-2.52c-.15,.64-.05,1.08,.44,1.54,.36-.41,.68-.78,1.11-1.28-.61-.1-1.05-.18-1.55-.26ZM-17.91,272.23c-.17,.23-.32,.47-.47,.72,0,0,.08,.09,.12,.09,.47-.09,.66-.37,.67-.86-.16,.02-.28,0-.32,.06Z"/><path class="cls-4" d="M13.03,204.32c.09-.03,.17-.06,.26-.09-.09,.03-.17,.06-.26,.09,0,0,0,0,0,0Z"/></g><path class="cls-4" d="M167.99,484.78c37.34-3.22,74.93-8.16,112.18-4.15,28.88,3.11,56.75,11.54,85.42,16.01,67.11,10.46,135.74-1.03,202.66-12.44,15.1-2.57,30.25-5.15,45.59-5.88,17.84-.84,35.69,.83,53.46,2.51,74.69,7.03,149.38,14.07,224.08,21.1,4.84,.46,9.92,.99,13.91,3.52,4.74,3,7.04,8.21,9.09,13.11,6.51,15.57,13.09,31.48,13.85,48.12,.76,16.64-5.31,34.45-19.93,44.49-14.74,10.12-34.68,10.51-53.15,10.48-160.3-.29-320.6-.58-480.9-.87,6.52,3.15-2.33,11.24-9.59,12.46-84.74,14.2-171.43,18.75-257.4,13.49-22.83-1.4-45.85-3.53-67.51-10.25-47.09-14.61-83.46-52.54-96.43-95.83-4.49-14.99-13.85-44.74,7.9-50.28,14.39-3.67,35.92,.16,50.94,.16,16.78,0,33.56-.08,50.33-.34,38.56-.6,77.12-2.1,115.52-5.42Z"/><path class="cls-5" d="M0,507.5c6.26-1.52,12.49-1.67,18.66,.48,2.91,1.02,5.9,1.51,9.01,1.38,5.19-.22,10.39-.38,15.59-.53,1.63-.05,3.26-.02,4.89,.04,3.37,.11,6.7-.02,10.05-.6,4.72-.82,9.48-1.25,14.28-1.42,3.87-.14,7.72-.62,11.58-.89,5.5-.39,10.99-.46,16.42,.83,2.57,.61,5.21,.96,7.79,1.53,10.81,2.39,21.04,6.32,30.72,11.65,6.24,3.43,12.88,5.5,19.9,6.49,3.53,.5,7.05,1.05,10.55,1.7,7.42,1.37,14.87,2.41,22.43,2.68,4.27,.15,8.54,.58,12.81,.89,.91,.07,1.83,.16,2.74,.2,10.28,.46,20.57,.92,30.85,1.38,6.62,.3,13.24,.72,19.86,.87,5.4,.12,10.8,0,16.2-.15,4.79-.13,9.57-.24,14.36,.16,10.67,.88,21.35,1.54,32.07,1.48,7.05-.04,14.04-.69,21.01-1.62,5.15-.69,10.3-1.33,15.44-2.08,5.94-.87,11.87-1.88,17.81-2.77,5.25-.79,10.54-1.16,15.85-1.02,6.83,.18,13.66,.33,20.47,.89,7,.57,13.95,1.68,20.81,3.29,7.43,1.74,14.82,3.68,22.27,5.33,8.25,1.83,16.51,3.59,24.82,5.11,9.75,1.78,19.62,2.23,29.53,2.15,9.18-.08,17.98-2.01,26.66-4.71,3.69-1.15,7.37-2.36,11-3.68,6.53-2.37,13.24-4.01,20.09-5.13,2.41-.39,4.82-.82,7.22-1.24,4.89-.84,9.76-.38,14.61,.33,7.91,1.17,15.82,1.3,23.77,.45,6.09-.65,12.06-1.94,18.09-2.94,10.75-1.78,21.38-4.18,32.05-6.37,5.49-1.13,10.9-2.59,16.19-4.4,7.35-2.52,14.92-4.02,22.54-5.4,7.14-1.29,14.35-1.94,21.57-2.2,4.16-.15,8.36,.15,12.51,.54,5.88,.56,11.72,1.47,17.59,2.09,5.59,.59,11.07,1.69,16.54,2.89,.69,.15,1.41,.42,2.1,.36,3.03-.27,5.86,.65,8.67,1.51,3.6,1.1,7.15,2.35,10.7,3.62,7.05,2.51,14.31,3.97,21.76,4.53,2.74,.21,5.49,.39,8.21,.78,4.96,.71,9.93,.94,14.94,.65,1.42-.08,2.86-.09,4.28-.03,.68,.03,1.36,.3,2.04,.46v67.73H0c0-29.09,0-58.17,0-87.26Z"/></g></g></svg>