<?xml version="1.0" encoding="UTF-8"?><svg id="Ebene_2" xmlns="http://www.w3.org/2000/svg" xmlns:xlink="http://www.w3.org/1999/xlink" viewBox="0 0 841.89 595.28"><defs><style>.cls-1{fill:none;}.cls-2{clip-path:url(#clippath);}.cls-3{fill:#f8f8f9;}.cls-4{fill:#dadada;}</style><clipPath id="clippath"><rect class="cls-1" width="841.89" height="595.28"/></clipPath></defs><g id="Ebene_1-2"><g class="cls-2"><path class="cls-4" d="M542.54,72.83c-.45-.61-.83-1.05-1.13-1.53-.55-.87-.48-1.45,.25-2.21,.41-.43,.87-.8,1.41-1.05,.85-.4,1.68-.87,2.57-1.14,2.69-.82,5.36-1.75,8.11-2.37,5.55-1.24,11.16-1.58,16.81-1.21,1.57,.1,3.15,.31,4.73,.4,1.41,.08,2.61-.29,3.8-1.08,2.8-1.87,5.88-3.19,9.1-4.17,2.92-.9,5.88-1.63,8.89-2.12,1.5-.25,3.01-.49,4.55-.46,2.18,.05,4.35-.06,6.53,.04,2.28,.1,4.56,.35,6.84,.54,.18,.01,.35,.05,.52,.06,2.4,.15,4.8,.32,7.21,.44,1.24,.06,2.45,.29,3.66,.5,.52,.09,1.04,.15,1.57,.21,1.41,.17,2.67-.23,3.82-1.04,.81-.58,1.66-1.12,2.44-1.74,1.32-1.04,2.84-1.66,4.43-2.1,2.32-.64,4.69-1.09,7.07-1.44,.92-.14,1.88-.1,2.82-.1,2.7,.01,5.4-.05,8.1,.28,1.39,.17,2.82,.06,4.23,.08,.49,0,.95-.13,1.32-.43,1.61-1.28,3.57-1.44,5.48-1.67,1.04-.13,2.11-.06,3.17-.05,1.47,.02,2.93-.03,4.39-.21,1.09-.13,1.92-.57,2.56-1.36,3.46-4.25,8.15-6.19,13.34-7.19,1.67-.32,3.36-.52,5.04-.79,2.69-.43,5.38-.29,8.08-.06,2.05,.18,4.09,.4,6.1,.83,1.15,.25,2.3,.45,3.44,.72,4.89,1.18,8.17,4.19,9.95,8.87,.19,.49,.34,1,.54,1.49,.14,.34,.41,.56,.8,.61,.76,.09,1.51,.24,2.27,.28,2.13,.11,4.17,.67,6.17,1.35,2.43,.83,4.39,2.24,5.53,4.61,.25,.51,.63,.83,1.09,1.11,.8,.49,1.6,.98,2.42,1.45,.92,.53,1.81,1.1,2.64,1.76,1.87,1.49,4.03,2.39,6.26,3.16,1,.35,1.96,.79,2.95,1.16,1.71,.63,3.06,1.71,4.16,3.14,1.08,1.4,2.14,2.79,2.81,4.45,.46,1.16,.47,2.25-.02,3.4-.81,1.9-2.02,3.41-3.86,4.41-2.21,1.2-4.59,1.79-7.04,2.12-2.79,.37-5.59,.67-8.39,1-.12,.01-.23,.02-.35,.03-2.94,.05-5.87,.13-8.8,.37-3.63,.29-7.29,.19-10.92,.47-2.58,.2-5.17,.17-7.74,.38-2.23,.18-4.46,.16-6.69,.35-2.98,.25-5.97,.37-8.93,.88-1.61,.28-3.27,.28-4.9,.5-2.34,.31-4.7,.15-7.03,.39-3.58,.37-7.17,.35-10.75,.2-3.52-.14-7.05-.17-10.57-.39-1.82-.11-3.65-.07-5.45-.32-2.69-.38-5.41-.08-8.08-.56-.17-.03-.35-.03-.53-.02-3,.08-5.99-.29-8.97-.48-3.69-.24-7.39-.36-11.07-.72-2.1-.2-4.22-.19-6.32-.53-1.21-.2-2.47-.14-3.7-.11-1.83,.04-3.63-.25-5.45-.28-3.23-.06-6.47-.02-9.7-.02-2.41,0-4.82,.14-7.21-.31-.57-.11-1.17-.05-1.76-.08-1.64-.07-3.29,0-4.93-.24-.69-.11-1.42-.11-2.11,0-1.64,.23-3.29,.12-4.93,.24-1.64,.13-3.27,.33-4.9,.5-.64,.07-1.28,.15-1.92,.2-2.46,.21-4.91,.42-7.37,.62-.47,.04-.94,.06-1.41,.07-1.71,.02-3.41,.06-5.12,.05-4-.02-7.97,.37-11.92,.96-2.38,.35-4.78,.52-7.17,.8-2.1,.25-4.2,.49-6.28,.82-1.94,.32-3.88,.25-5.8,.08-1.17-.1-2.34-.15-3.52-.16-2.7-.02-5.42,.11-8.11-.08-3.17-.22-6.33-.34-9.51-.34-.72,0-1.4-.21-2.07-.39-.85-.22-1.43-.84-1.78-1.6-.33-.73-.28-1.51,.29-2.15,.47-.52,.99-1,1.51-1.48,2.63-2.45,5.7-4.11,9.15-5.09,.96-.27,1.88-.66,2.81-1.03,4.05-1.6,8.22-2.79,12.49-3.65,1.2-.24,2.44-.4,3.67-.44,1.41-.05,2.76-.5,4.31-.39Z"/><path class="cls-4" d="M86.85,151.48c-.45-.61-.83-1.05-1.13-1.53-.55-.87-.48-1.45,.25-2.21,.41-.43,.87-.8,1.41-1.05,.85-.4,1.68-.87,2.57-1.14,2.69-.82,5.36-1.75,8.11-2.37,5.55-1.24,11.16-1.58,16.81-1.21,1.57,.1,3.15,.31,4.73,.4,1.41,.08,2.61-.29,3.8-1.08,2.8-1.87,5.88-3.19,9.1-4.17,2.92-.9,5.88-1.63,8.89-2.12,1.5-.25,3.01-.49,4.55-.46,2.18,.05,4.35-.06,6.53,.04,2.28,.1,4.56,.35,6.84,.54,.18,.01,.35,.05,.52,.06,2.4,.15,4.8,.32,7.21,.44,1.24,.06,2.45,.29,3.66,.5,.52,.09,1.04,.15,1.57,.21,1.41,.17,2.67-.23,3.82-1.04,.81-.58,1.66-1.12,2.44-1.74,1.32-1.04,2.84-1.66,4.43-2.1,2.32-.64,4.69-1.09,7.07-1.44,.92-.14,1.88-.1,2.82-.1,2.7,.01,5.4-.05,8.1,.28,1.39,.17,2.82,.06,4.23,.08,.49,0,.95-.13,1.32-.43,1.61-1.28,3.57-1.44,5.48-1.67,1.04-.13,2.11-.06,3.17-.05,1.47,.02,2.93-.03,4.39-.21,1.09-.13,1.92-.57,2.56-1.36,3.46-4.25,8.15-6.19,13.34-7.19,1.67-.32,3.36-.52,5.04-.79,2.69-.43,5.38-.29,8.08-.06,2.05,.18,4.09,.4,6.1,.83,1.15,.25,2.3,.45,3.44,.72,4.89,1.18,8.17,4.19,9.95,8.87,.19,.49,.34,1,.54,1.49,.14,.34,.41,.56,.8,.61,.76,.09,1.51,.24,2.27,.28,2.13,.11,4.17,.67,6.17,1.35,2.43,.83,4.39,2.24,5.53,4.61,.25,.51,.63,.83,1.09,1.11,.8,.49,1.6,.98,2.42,1.45,.92,.53,1.81,1.1,2.64,1.76,1.87,1.49,4.03,2.39,6.26,3.16,1,.35,1.96,.79,2.95,1.16,1.71,.63,3.06,1.71,4.16,3.14,1.08,1.4,2.14,2.79,2.81,4.45,.46,1.16,.47,2.25-.02,3.4-.81,1.9-2.02,3.41-3.86,4.41-2.21,1.2-4.59,1.79-7.04,2.12-2.79,.37-5.59,.67-8.39,1-.12,.01-.23,.02-.35,.03-2.94,.05-5.87,.13-8.8,.37-3.63,.29-7.29,.19-10.92,.47-2.58,.2-5.17,.17-7.74,.38-2.23,.18-4.46,.16-6.69,.35-2.98,.25-5.97,.37-8.93,.88-1.61,.28-3.27,.28-4.9,.5-2.34,.31-4.7,.15-7.03,.39-3.58,.37-7.17,.35-10.75,.2-3.52-.14-7.05-.17-10.57-.39-1.82-.11-3.65-.07-5.45-.32-2.69-.38-5.41-.08-8.08-.56-.17-.03-.35-.03-.53-.02-3,.08-5.99-.29-8.97-.48-3.69-.24-7.39-.36-11.07-.72-2.1-.2-4.22-.19-6.32-.53-1.21-.2-2.47-.14-3.7-.11-1.83,.04-3.63-.25-5.45-.28-3.23-.06-6.47-.02-9.7-.02-2.41,0-4.82,.14-7.21-.31-.57-.11-1.17-.05-1.76-.08-1.64-.07-3.29,0-4.93-.24-.69-.11-1.42-.11-2.11,0-1.64,.23-3.29,.12-4.93,.24-1.64,.13-3.27,.33-4.9,.5-.64,.07-1.28,.15-1.92,.2-2.46,.21-4.91,.42-7.37,.62-.47,.04-.94,.06-1.41,.07-1.71,.02-3.41,.06-5.12,.05-4-.02-7.97,.37-11.92,.96-2.38,.35-4.78,.52-7.17,.8-2.1,.25-4.2,.49-6.28,.82-1.94,.32-3.88,.25-5.8,.08-1.17-.1-2.34-.15-3.52-.16-2.7-.02-5.42,.11-8.11-.08-3.17-.22-6.33-.34-9.51-.34-.72,0-1.4-.21-2.07-.39-.85-.22-1.43-.84-1.78-1.6-.33-.73-.28-1.51,.29-2.15,.47-.52,.99-1,1.51-1.48,2.63-2.45,5.7-4.11,9.15-5.09,.96-.27,1.88-.66,2.81-1.03,4.05-1.6,8.22-2.79,12.49-3.65,1.2-.24,2.44-.4,3.67-.44,1.41-.05,2.76-.5,4.31-.39Z"/><circle class="cls-3" cx="327.16" cy="147.49" r="80.27"/><path class="cls-4" d="M351.08,164.47c-.45-.61-.83-1.05-1.13-1.53-.55-.87-.48-1.45,.25-2.21,.41-.43,.87-.8,1.41-1.05,.85-.4,1.68-.87,2.57-1.14,2.69-.82,5.36-1.75,8.11-2.37,5.55-1.24,11.16-1.58,16.81-1.21,1.57,.1,3.15,.31,4.73,.4,1.41,.08,2.61-.29,3.8-1.08,2.8-1.87,5.88-3.19,9.1-4.17,2.92-.9,5.88-1.63,8.89-2.12,1.5-.25,3.01-.49,4.55-.46,2.18,.05,4.35-.06,6.53,.04,2.28,.1,4.56,.35,6.84,.54,.18,.01,.35,.05,.52,.06,2.4,.15,4.8,.32,7.21,.44,1.24,.06,2.45,.29,3.66,.5,.52,.09,1.04,.15,1.57,.21,1.41,.17,2.67-.23,3.82-1.04,.81-.58,1.66-1.12,2.44-1.74,1.32-1.04,2.84-1.66,4.43-2.1,2.32-.64,4.69-1.09,7.07-1.44,.92-.14,1.88-.1,2.82-.1,2.7,.01,5.4-.05,8.1,.28,1.39,.17,2.82,.06,4.23,.08,.49,0,.95-.13,1.32-.43,1.61-1.28,3.57-1.44,5.48-1.67,1.04-.13,2.11-.06,3.17-.05,1.47,.02,2.93-.03,4.39-.21,1.09-.13,1.92-.57,2.56-1.36,3.46-4.25,8.15-6.19,13.34-7.19,1.67-.32,3.36-.52,5.04-.79,2.69-.43,5.38-.29,8.08-.06,2.05,.18,4.09,.4,6.1,.83,1.15,.25,2.3,.45,3.44,.72,4.89,1.18,8.17,4.19,9.95,8.87,.19,.49,.34,1,.54,1.49,.14,.34,.41,.56,.8,.61,.76,.09,1.51,.24,2.27,.28,2.13,.11,4.17,.67,6.17,1.35,2.43,.83,4.39,2.24,5.53,4.61,.25,.51,.63,.83,1.09,1.11,.8,.49,1.6,.98,2.42,1.45,.92,.53,1.81,1.1,2.64,1.76,1.87,1.49,4.03,2.39,6.26,3.16,1,.35,1.96,.79,2.95,1.16,1.71,.63,3.06,1.71,4.16,3.14,1.08,1.4,2.14,2.79,2.81,4.45,.46,1.16,.47,2.25-.02,3.4-.81,1.9-2.02,3.41-3.86,4.41-2.21,1.2-4.59,1.79-7.04,2.12-2.79,.37-5.59,.67-8.39,1-.12,.01-.23,.02-.35,.03-2.94,.05-5.87,.13-8.8,.37-3.63,.29-7.29,.19-10.92,.47-2.58,.2-5.17,.17-7.74,.38-2.23,.18-4.46,.16-6.69,.35-2.98,.25-5.97,.37-8.93,.88-1.61,.28-3.27,.28-4.9,.5-2.34,.31-4.7,.15-7.03,.39-3.58,.37-7.17,.35-10.75,.2-3.52-.14-7.05-.17-10.57-.39-1.82-.11-3.65-.07-5.45-.32-2.69-.38-5.41-.08-8.08-.56-.17-.03-.35-.03-.53-.02-3,.08-5.99-.29-8.97-.48-3.69-.24-7.39-.36-11.07-.72-2.1-.2-4.22-.19-6.32-.53-1.21-.2-2.47-.14-3.7-.11-1.83,.04-3.63-.25-5.45-.28-3.23-.06-6.47-.02-9.7-.02-2.41,0-4.82,.14-7.21-.31-.57-.11-1.17-.05-1.76-.08-1.64-.07-3.29,0-4.93-.24-.69-.11-1.42-.11-2.11,0-1.64,.23-3.29,.12-4.93,.24-1.64,.13-3.27,.33-4.9,.5-.64,.07-1.28,.15-1.92,.2-2.46,.21-4.91,.42-7.37,.62-.47,.04-.94,.06-1.41,.07-1.71,.02-3.41,.06-5.12,.05-4-.02-7.97,.37-11.92,.96-2.38,.35-4.78,.52-7.17,.8-2.1,.25-4.2,.49-6.28,.82-1.94,.32-3.88,.25-5.8,.08-1.17-.1-2.34-.15-3.52-.16-2.7-.02-5.42,.11-8.11-.08-3.17-.22-6.33-.34-9.51-.34-.72,0-1.4-.21-2.07-.39-.85-.22-1.43-.84-1.78-1.6-.33-.73-.28-1.51,.29-2.15,.47-.52,.99-1,1.51-1.48,2.63-2.45,5.7-4.11,9.15-5.09,.96-.27,1.88-.66,2.81-1.03,4.05-1.6,8.22-2.79,12.49-3.65,1.2-.24,2.44-.4,3.67-.44,1.41-.05,2.76-.5,4.31-.39Z"/></g></g></svg>