<?xml version="1.0" encoding="UTF-8"?><svg id="Ebene_2" xmlns="http://www.w3.org/2000/svg" xmlns:xlink="http://www.w3.org/1999/xlink" viewBox="0 0 841.89 595.28"><defs><style>.cls-1{fill:none;}.cls-2{clip-path:url(#clippath);}.cls-3{fill:#fff;}</style><clipPath id="clippath"><rect class="cls-1" width="841.89" height="595.28"/></clipPath></defs><g id="Ebene_1-2"><g class="cls-2"><path class="cls-3" d="M304.16,88.13c1.95,.14,4.48,.26,6.99,.51,1.45,.15,2.85,.59,4.21,1.14,3.27,1.33,6.61,2.48,9.67,4.28,.85,.5,1.58,.37,2.29-.3,2.41-2.29,5.26-3.95,8.11-5.63,3.2-1.89,6.7-2.58,10.33-2.82,1-.07,1.99-.09,2.99-.18,2.15-.19,4.14,.35,5.92,1.49,1.47,.93,2.26,2.35,1.84,4.12-.35,1.48-.15,2.81,.24,4.26,1.08,3.95,.51,7.58-2.55,10.62-1.53,1.52-3.15,2.92-4.83,4.26-.79,.62-1.65,1.12-2.6,1.45-.58,.2-1.14,.44-1.69,.7-.4,.19-.44,.61-.1,.95,.32,.33,.68,.62,1,.95,2.19,2.23,3.38,4.88,3.47,8.03,.09,3.34-.31,6.59-1.47,9.73-.4,1.08-.76,2.17-1.23,3.23-1.86,4.22-3.33,8.58-5.04,12.86-.54,1.35-1.13,2.7-1.87,3.95-1.57,2.66-2.7,5.51-3.95,8.31-1.56,3.5-3.21,6.97-5.42,10.13-.84,1.19-1.62,2.42-2.45,3.62-.26,.37-.57,.73-.92,1.01-.52,.41-1.13,.48-1.73,.18-.53-.26-.76-.75-.77-1.32,0-.38,.03-.77,.1-1.14,.82-4.45,1.35-8.96,2.74-13.29,.62-1.93,.87-3.89,.32-5.89-.12-.44-.11-.92-.22-1.36-.45-1.91-.4-3.8,.08-5.7,.2-.82,.32-1.66,.44-2.49,.03-.19-.07-.49-.21-.6-.22-.16-.42,.06-.55,.25-.82,1.2-1.62,2.42-2.46,3.61-1.85,2.64-3.69,5.28-5.58,7.9-.58,.81-1.26,1.54-1.93,2.28-1.34,1.48-2.7,2.94-4.04,4.42-1.35,1.49-2.87,2.77-4.52,3.91-1.01,.69-2.04,1.37-3.1,1.99-3.05,1.79-6,3.71-9,5.58-4.3,2.68-8.7,5.18-13.43,7.06-2.38,.95-4.84,1.47-7.41,1.44-1.53-.02-3.07,0-4.6,0-.69,0-1.38-.04-2.03-.33-.75-.33-1-1.08-.47-1.67,.51-.57,1.06-1.14,1.69-1.54,1.9-1.21,3.47-2.78,5.05-4.35,3.04-3.04,6.08-6.08,9.15-9.08,2.25-2.2,3.85-4.76,4.62-7.82,.48-1.89,1.44-3.55,2.52-5.14,1.04-1.52,2.07-3.05,2.78-4.76,.08-.2,.13-.47,.06-.66-.14-.33-.48-.32-.79-.25-1.94,.48-3.87,.98-5.8,1.45-4.27,1.04-8.6,1.48-13,1.47-4.31,0-8.57-.38-12.85-.78-2.21-.21-4.45-.06-6.67-.19-4.58-.28-9.21-.21-13.7-1.36-2.15-.55-4.32-1.09-6.41-1.85-1.72-.62-3.09-.19-4.13,1.06-2.31,2.78-5.09,5.11-7.4,7.89-2.51,3.03-5.36,5.69-8.49,8.07-1.36,1.03-2.87,1.78-4.47,2.34-2.24,.8-4.5,1.54-6.73,2.36-1.01,.37-1.95,.31-2.89-.16-1.03-.52-2.07-1-3.08-1.56-1.75-.96-2.82-2.36-2.7-4.45,.11-1.86-.32-3.67-.63-5.48-.27-1.62-.06-3.04,1.01-4.31,.56-.66,.81-1.46,1.04-2.29,.64-2.38,2.15-4.02,4.4-5,1.19-.52,2.38-1.07,3.57-1.6,1.19-.53,2.36-1.11,3.37-1.96,.95-.8,2.01-1.35,3.27-1.58,1.24-.23,1.61-1.04,1.12-2.22-.23-.56-.58-1.08-.93-1.58-1.45-2.1-1.29-3.73,1.34-5.64,1.16-.85,2.53-1.5,3.9-1.96,2.04-.68,3.69-1.89,5.15-3.36,2.01-2.02,4.17-3.85,6.3-5.73,1.56-1.38,3.32-2.47,5.1-3.54,1.26-.75,2.46-1.57,3.58-2.51,2.37-1.98,4.99-3.57,7.69-5.03,3.04-1.64,6.11-3.22,9.18-4.8,7.61-3.92,15.64-6.71,23.87-9,2.58-.72,5.1-1.71,7.78-2.07,3.73-.5,7.4-1.32,11.11-1.92,2.26-.37,4.55-.68,7.45-.62Z"/><g><path class="cls-3" d="M632.44,250.06c-.79-1.45-1.59-2.9-2.38-4.35-.18-.34-.8-.3-.87,.11-.16,.91-.33,1.84-.59,2.73-.05-.03-.1-.06-.17-.07-4.74-.5-9.49,2.39-12.01,6.25-.16,.25,.05,.69,.38,.65,3.05-.38,6.72-.35,9.46-1.91,1.32-.75,2.16-1.89,2.73-3.18,.96,.64,2.03,.8,3.18,.44,.29-.09,.42-.41,.28-.68Z"/><path class="cls-3" d="M618.03,229.67c-1.02,1.51-2.25,2.69-3.64,3.61-5.62-1.55-12.96-1.39-17.07,3.22-.17,.19-.06,.51,.21,.52,5.61,.1,12.04,0,16.86-2.95,1.26,.42,2.56,.75,3.82,1.13,.21,.06,.43-.11,.43-.33,0-1.68,.02-3.35,.02-5.03,0-.35-.46-.45-.64-.17Z"/><path class="cls-3" d="M596.66,226.3c-.79-1.45-1.59-2.9-2.38-4.35-.18-.34-.8-.3-.87,.11-.16,.91-.33,1.84-.59,2.73-.05-.03-.1-.06-.17-.07-4.74-.5-9.49,2.39-12.01,6.25-.16,.25,.05,.69,.38,.65,3.05-.38,6.72-.35,9.46-1.91,1.32-.75,2.16-1.89,2.73-3.18,.96,.64,2.03,.8,3.18,.44,.29-.09,.42-.41,.28-.68Z"/><path class="cls-3" d="M593.68,239.74c-.79-1.45-1.59-2.9-2.38-4.35-.18-.34-.8-.3-.87,.11-.16,.91-.33,1.84-.59,2.73-.05-.03-.1-.06-.17-.07-4.74-.5-9.49,2.39-12.01,6.25-.16,.25,.05,.69,.38,.65,3.05-.38,6.72-.35,9.46-1.91,1.32-.75,2.16-1.89,2.73-3.18,.96,.64,2.03,.8,3.18,.44,.29-.09,.42-.41,.28-.68Z"/><path class="cls-3" d="M569.76,223.54c-.79-1.45-1.59-2.9-2.38-4.35-.18-.34-.8-.3-.87,.11-.16,.91-.33,1.84-.59,2.73-.05-.03-.1-.06-.17-.07-4.74-.5-9.49,2.39-12.01,6.25-.16,.25,.05,.69,.38,.65,3.05-.38,6.72-.35,9.46-1.91,1.32-.75,2.16-1.89,2.73-3.18,.96,.64,2.03,.8,3.18,.44,.29-.09,.42-.41,.28-.68Z"/><path class="cls-3" d="M565.17,242.22c-.38-1.61-.76-3.22-1.14-4.83-.09-.37-.69-.5-.87-.12-.39,.83-.81,1.68-1.29,2.47-.04-.04-.08-.09-.15-.11-4.44-1.74-9.79-.22-13.24,2.83-.23,.2-.14,.68,.19,.73,3.04,.44,6.57,1.45,9.63,.68,1.48-.38,2.58-1.24,3.48-2.33,.75,.87,1.74,1.31,2.95,1.27,.3-.01,.52-.28,.45-.58Z"/><path class="cls-3" d="M555.47,236.82c-.38-1.61-.76-3.22-1.14-4.83-.09-.37-.69-.5-.87-.12-.39,.83-.81,1.68-1.29,2.47-.04-.04-.08-.09-.15-.11-4.44-1.74-9.79-.22-13.24,2.83-.23,.2-.14,.68,.19,.73,3.04,.44,6.57,1.45,9.63,.68,1.48-.38,2.58-1.24,3.48-2.33,.75,.87,1.74,1.31,2.95,1.27,.3-.01,.52-.28,.45-.58Z"/><path class="cls-3" d="M598.53,253.52c-.79-1.45-1.59-2.9-2.38-4.35-.18-.34-.8-.3-.87,.11-.16,.91-.33,1.84-.59,2.73-.05-.03-.1-.06-.17-.07-4.74-.5-9.49,2.39-12.01,6.25-.16,.25,.05,.69,.38,.65,3.05-.38,6.72-.35,9.46-1.91,1.32-.75,2.16-1.89,2.73-3.18,.96,.64,2.03,.8,3.18,.44,.29-.09,.42-.41,.28-.68Z"/><path class="cls-3" d="M582.25,205.91c-1.02,1.51-2.25,2.69-3.64,3.61-5.62-1.55-12.96-1.39-17.07,3.22-.17,.19-.06,.51,.21,.52,5.61,.1,12.04,0,16.86-2.95,1.26,.42,2.56,.75,3.82,1.13,.21,.06,.43-.11,.43-.33,0-1.68,.02-3.35,.02-5.03,0-.35-.46-.45-.64-.17Z"/><path class="cls-3" d="M572.8,256c-.79-1.45-1.59-2.9-2.38-4.35-.18-.34-.8-.3-.87,.11-.16,.91-.33,1.84-.59,2.73-.05-.03-.1-.06-.17-.07-4.74-.5-9.49,2.39-12.01,6.25-.16,.25,.05,.69,.38,.65,3.05-.38,6.72-.35,9.46-1.91,1.32-.75,2.16-1.89,2.73-3.18,.96,.64,2.03,.8,3.18,.44,.29-.09,.42-.41,.28-.68Z"/></g></g></g></svg>