<svg width="46" height="21" viewBox="0 0 46 21" fill="none" xmlns="http://www.w3.org/2000/svg">
<path d="M1.58789 5.35938H4.88281C5.63021 5.35938 6.26139 5.47331 6.77637 5.70117C7.2959 5.92904 7.6901 6.26628 7.95898 6.71289C8.23242 7.15495 8.36914 7.69954 8.36914 8.34668C8.36914 8.80241 8.27572 9.2194 8.08887 9.59766C7.90658 9.97135 7.64225 10.2904 7.2959 10.5547C6.9541 10.8145 6.54395 11.0081 6.06543 11.1357L5.69629 11.2793H2.59961L2.58594 10.2061H4.92383C5.39779 10.2061 5.79199 10.124 6.10645 9.95996C6.4209 9.79134 6.65788 9.56576 6.81738 9.2832C6.97689 9.00065 7.05664 8.68848 7.05664 8.34668C7.05664 7.96387 6.98145 7.62891 6.83105 7.3418C6.68066 7.05469 6.44368 6.83366 6.12012 6.67871C5.80111 6.51921 5.38867 6.43945 4.88281 6.43945H2.90723V15.3125H1.58789V5.35938ZM7.40527 15.3125L4.98535 10.8008L6.35938 10.7939L8.81348 15.2305V15.3125H7.40527ZM9.68848 11.6963V11.5391C9.68848 11.0059 9.76595 10.5114 9.9209 10.0557C10.0758 9.59538 10.2992 9.19661 10.5908 8.85938C10.8825 8.51758 11.2357 8.25326 11.6504 8.06641C12.0651 7.875 12.5299 7.7793 13.0449 7.7793C13.5645 7.7793 14.0316 7.875 14.4463 8.06641C14.8656 8.25326 15.221 8.51758 15.5127 8.85938C15.8089 9.19661 16.0345 9.59538 16.1895 10.0557C16.3444 10.5114 16.4219 11.0059 16.4219 11.5391V11.6963C16.4219 12.2295 16.3444 12.724 16.1895 13.1797C16.0345 13.6354 15.8089 14.0342 15.5127 14.376C15.221 14.7132 14.8678 14.9775 14.4531 15.1689C14.043 15.3558 13.5781 15.4492 13.0586 15.4492C12.5391 15.4492 12.0719 15.3558 11.6572 15.1689C11.2425 14.9775 10.887 14.7132 10.5908 14.376C10.2992 14.0342 10.0758 13.6354 9.9209 13.1797C9.76595 12.724 9.68848 12.2295 9.68848 11.6963ZM10.9531 11.5391V11.6963C10.9531 12.0654 10.9964 12.4141 11.083 12.7422C11.1696 13.0658 11.2995 13.3529 11.4727 13.6035C11.6504 13.8542 11.8714 14.0524 12.1357 14.1982C12.4001 14.3395 12.7077 14.4102 13.0586 14.4102C13.4049 14.4102 13.708 14.3395 13.9678 14.1982C14.2321 14.0524 14.4508 13.8542 14.624 13.6035C14.7972 13.3529 14.9271 13.0658 15.0137 12.7422C15.1048 12.4141 15.1504 12.0654 15.1504 11.6963V11.5391C15.1504 11.1745 15.1048 10.8304 15.0137 10.5068C14.9271 10.1787 14.7949 9.88932 14.6172 9.63867C14.444 9.38346 14.2253 9.18294 13.9609 9.03711C13.7012 8.89128 13.3958 8.81836 13.0449 8.81836C12.6986 8.81836 12.3932 8.89128 12.1289 9.03711C11.8691 9.18294 11.6504 9.38346 11.4727 9.63867C11.2995 9.88932 11.1696 10.1787 11.083 10.5068C10.9964 10.8304 10.9531 11.1745 10.9531 11.5391ZM18.001 4.8125H19.2725V13.877L19.1631 15.3125H18.001V4.8125ZM24.2695 11.5527V11.6963C24.2695 12.234 24.2057 12.7331 24.0781 13.1934C23.9505 13.6491 23.7637 14.0456 23.5176 14.3828C23.2715 14.7201 22.9707 14.9821 22.6152 15.1689C22.2598 15.3558 21.8519 15.4492 21.3916 15.4492C20.9222 15.4492 20.5098 15.3695 20.1543 15.21C19.8034 15.0459 19.5072 14.8112 19.2656 14.5059C19.0241 14.2005 18.8304 13.8314 18.6846 13.3984C18.5433 12.9655 18.4453 12.4779 18.3906 11.9355V11.3066C18.4453 10.7598 18.5433 10.2699 18.6846 9.83691C18.8304 9.40397 19.0241 9.03483 19.2656 8.72949C19.5072 8.4196 19.8034 8.1849 20.1543 8.02539C20.5052 7.86133 20.9131 7.7793 21.3779 7.7793C21.8428 7.7793 22.2552 7.87044 22.6152 8.05273C22.9753 8.23047 23.276 8.48568 23.5176 8.81836C23.7637 9.15104 23.9505 9.5498 24.0781 10.0146C24.2057 10.4749 24.2695 10.9876 24.2695 11.5527ZM22.998 11.6963V11.5527C22.998 11.1836 22.9639 10.8372 22.8955 10.5137C22.8271 10.1855 22.7178 9.89844 22.5674 9.65234C22.417 9.40169 22.2188 9.20573 21.9727 9.06445C21.7266 8.91862 21.4235 8.8457 21.0635 8.8457C20.7445 8.8457 20.4665 8.90039 20.2295 9.00977C19.9971 9.11914 19.7988 9.26725 19.6348 9.4541C19.4707 9.63639 19.3363 9.84603 19.2314 10.083C19.1312 10.3154 19.056 10.557 19.0059 10.8076V12.4551C19.0788 12.7741 19.1973 13.0817 19.3613 13.3779C19.5299 13.6696 19.7533 13.9089 20.0312 14.0957C20.3138 14.2826 20.6624 14.376 21.0771 14.376C21.4189 14.376 21.7106 14.3076 21.9521 14.1709C22.1982 14.0296 22.3965 13.8359 22.5469 13.5898C22.7018 13.3438 22.8158 13.0589 22.8887 12.7354C22.9616 12.4118 22.998 12.0654 22.998 11.6963ZM25.5342 11.6963V11.5391C25.5342 11.0059 25.6117 10.5114 25.7666 10.0557C25.9215 9.59538 26.1449 9.19661 26.4365 8.85938C26.7282 8.51758 27.0814 8.25326 27.4961 8.06641C27.9108 7.875 28.3757 7.7793 28.8906 7.7793C29.4102 7.7793 29.8773 7.875 30.292 8.06641C30.7113 8.25326 31.0667 8.51758 31.3584 8.85938C31.6546 9.19661 31.8802 9.59538 32.0352 10.0557C32.1901 10.5114 32.2676 11.0059 32.2676 11.5391V11.6963C32.2676 12.2295 32.1901 12.724 32.0352 13.1797C31.8802 13.6354 31.6546 14.0342 31.3584 14.376C31.0667 14.7132 30.7135 14.9775 30.2988 15.1689C29.8887 15.3558 29.4238 15.4492 28.9043 15.4492C28.3848 15.4492 27.9176 15.3558 27.5029 15.1689C27.0882 14.9775 26.7327 14.7132 26.4365 14.376C26.1449 14.0342 25.9215 13.6354 25.7666 13.1797C25.6117 12.724 25.5342 12.2295 25.5342 11.6963ZM26.7988 11.5391V11.6963C26.7988 12.0654 26.8421 12.4141 26.9287 12.7422C27.0153 13.0658 27.1452 13.3529 27.3184 13.6035C27.4961 13.8542 27.7171 14.0524 27.9814 14.1982C28.2458 14.3395 28.5534 14.4102 28.9043 14.4102C29.2507 14.4102 29.5537 14.3395 29.8135 14.1982C30.0778 14.0524 30.2965 13.8542 30.4697 13.6035C30.6429 13.3529 30.7728 13.0658 30.8594 12.7422C30.9505 12.4141 30.9961 12.0654 30.9961 11.6963V11.5391C30.9961 11.1745 30.9505 10.8304 30.8594 10.5068C30.7728 10.1787 30.6406 9.88932 30.4629 9.63867C30.2897 9.38346 30.071 9.18294 29.8066 9.03711C29.5469 8.89128 29.2415 8.81836 28.8906 8.81836C28.5443 8.81836 28.2389 8.89128 27.9746 9.03711C27.7148 9.18294 27.4961 9.38346 27.3184 9.63867C27.1452 9.88932 27.0153 10.1787 26.9287 10.5068C26.8421 10.8304 26.7988 11.1745 26.7988 11.5391ZM36.9502 7.91602V8.88672H32.9512V7.91602H36.9502ZM34.3047 6.11816H35.5693V13.4805C35.5693 13.7311 35.6081 13.9202 35.6855 14.0479C35.763 14.1755 35.8633 14.2598 35.9863 14.3008C36.1094 14.3418 36.2415 14.3623 36.3828 14.3623C36.4876 14.3623 36.597 14.3532 36.7109 14.335C36.8294 14.3122 36.9183 14.2939 36.9775 14.2803L36.9844 15.3125C36.8841 15.3444 36.752 15.374 36.5879 15.4014C36.4284 15.4333 36.2347 15.4492 36.0068 15.4492C35.6969 15.4492 35.4121 15.3877 35.1523 15.2646C34.8926 15.1416 34.6852 14.9365 34.5303 14.6494C34.3799 14.3577 34.3047 13.9658 34.3047 13.4736V6.11816ZM37.9619 11.6963V11.5391C37.9619 11.0059 38.0394 10.5114 38.1943 10.0557C38.3493 9.59538 38.5726 9.19661 38.8643 8.85938C39.1559 8.51758 39.5091 8.25326 39.9238 8.06641C40.3385 7.875 40.8034 7.7793 41.3184 7.7793C41.8379 7.7793 42.305 7.875 42.7197 8.06641C43.139 8.25326 43.4945 8.51758 43.7861 8.85938C44.0824 9.19661 44.3079 9.59538 44.4629 10.0557C44.6178 10.5114 44.6953 11.0059 44.6953 11.5391V11.6963C44.6953 12.2295 44.6178 12.724 44.4629 13.1797C44.3079 13.6354 44.0824 14.0342 43.7861 14.376C43.4945 14.7132 43.1413 14.9775 42.7266 15.1689C42.3164 15.3558 41.8516 15.4492 41.332 15.4492C40.8125 15.4492 40.3454 15.3558 39.9307 15.1689C39.516 14.9775 39.1605 14.7132 38.8643 14.376C38.5726 14.0342 38.3493 13.6354 38.1943 13.1797C38.0394 12.724 37.9619 12.2295 37.9619 11.6963ZM39.2266 11.5391V11.6963C39.2266 12.0654 39.2699 12.4141 39.3564 12.7422C39.443 13.0658 39.5729 13.3529 39.7461 13.6035C39.9238 13.8542 40.1449 14.0524 40.4092 14.1982C40.6735 14.3395 40.9811 14.4102 41.332 14.4102C41.6784 14.4102 41.9814 14.3395 42.2412 14.1982C42.5055 14.0524 42.7243 13.8542 42.8975 13.6035C43.0706 13.3529 43.2005 13.0658 43.2871 12.7422C43.3783 12.4141 43.4238 12.0654 43.4238 11.6963V11.5391C43.4238 11.1745 43.3783 10.8304 43.2871 10.5068C43.2005 10.1787 43.0684 9.88932 42.8906 9.63867C42.7174 9.38346 42.4987 9.18294 42.2344 9.03711C41.9746 8.89128 41.6693 8.81836 41.3184 8.81836C40.972 8.81836 40.6667 8.89128 40.4023 9.03711C40.1426 9.18294 39.9238 9.38346 39.7461 9.63867C39.5729 9.88932 39.443 10.1787 39.3564 10.5068C39.2699 10.8304 39.2266 11.1745 39.2266 11.5391Z" fill="currentColor" fill-opacity="1"/>
</svg>
