<svg width="16" height="16" viewBox="0 0 16 16" fill="currentColor" xmlns="http://www.w3.org/2000/svg">
<path  fill-rule="evenodd" clip-rule="evenodd" d="M7 3H3.5C3.22386 3 3 3.22386 3 3.5V12.5C3 12.7761 3.22386 13 3.5 13H12.5C12.7761 13 13 12.7761 13 12.5V9H14V12.5C14 13.3284 13.3284 14 12.5 14H3.5C2.67157 14 2 13.3284 2 12.5V3.5C2 2.67157 2.67157 2 3.5 2H7V3Z" />
<path fill-rule="evenodd" clip-rule="evenodd" d="M12.3536 2.3537C12.7106 1.99668 13.2895 1.99668 13.6465 2.3537C14.0035 2.71073 14.0035 3.28957 13.6465 3.6466L8.8965 8.3966L7.60361 7.1037L12.3536 2.3537ZM14.3536 1.6466C13.6061 0.89905 12.394 0.899051 11.6465 1.6466L6.6465 6.6466L6.56304 6.73006L6.52571 6.84204L5.68383 9.36769C5.48839 9.95401 6.04619 10.5118 6.63251 10.3164L9.15817 9.47449L9.27015 9.43717L9.35361 9.3537L14.3536 4.3537C15.1012 3.60616 15.1012 2.39414 14.3536 1.6466Z"/>
</svg>
