<svg width="72" height="72" viewBox="0 0 72 72" fill="none"
  xmlns="http://www.w3.org/2000/svg">
  <rect x="18" y="4" width="36" height="64" fill="white" fill-opacity="0.85"/>
  <rect x="18" y="4" width="36" height="64" fill="url(#paint0_linear_1101_132015)" fill-opacity="0.5"/>
  <rect x="18.5" y="4.5" width="35" height="63" stroke="black" stroke-opacity="0.25"/>
  <path fill-rule="evenodd" clip-rule="evenodd" d="M36 30C34.3705 30 34.1662 30.0069 33.5262 30.0361C32.8876 30.0652 32.4514 30.1667 32.0698 30.315C31.6752 30.4683 31.3406 30.6735 31.007 31.007C30.6735 31.3406 30.4683 31.6752 30.315 32.0698C30.1667 32.4514 30.0652 32.8876 30.0361 33.5262C30.0069 34.1662 30 34.3705 30 36C30 37.6295 30.0069 37.8338 30.0361 38.4738C30.0652 39.1124 30.1667 39.5486 30.315 39.9302C30.4683 40.3248 30.6735 40.6594 31.007 40.993C31.3406 41.3265 31.6752 41.5317 32.0698 41.685C32.4514 41.8333 32.8876 41.9348 33.5262 41.9639C34.1662 41.9931 34.3705 42 36 42C37.6295 42 37.8338 41.9931 38.4738 41.9639C39.1124 41.9348 39.5486 41.8333 39.9302 41.685C40.3248 41.5317 40.6594 41.3265 40.993 40.993C41.3265 40.6594 41.5317 40.3248 41.685 39.9302C41.8333 39.5486 41.9348 39.1124 41.9639 38.4738C41.9931 37.8338 42 37.6295 42 36C42 34.3705 41.9931 34.1662 41.9639 33.5262C41.9348 32.8876 41.8333 32.4514 41.685 32.0698C41.5317 31.6752 41.3265 31.3406 40.993 31.007C40.6594 30.6735 40.3248 30.4683 39.9302 30.315C39.5486 30.1667 39.1124 30.0652 38.4738 30.0361C37.8338 30.0069 37.6295 30 36 30ZM36 31.0811C37.6021 31.0811 37.7918 31.0872 38.4245 31.1161C39.0095 31.1428 39.3272 31.2405 39.5386 31.3226C39.8187 31.4315 40.0186 31.5615 40.2285 31.7715C40.4385 31.9814 40.5685 32.1813 40.6774 32.4614C40.7595 32.6728 40.8573 32.9905 40.8839 33.5755C40.9128 34.2082 40.9189 34.3979 40.9189 36C40.9189 37.6021 40.9128 37.7918 40.8839 38.4245C40.8573 39.0095 40.7595 39.3272 40.6774 39.5386C40.5685 39.8187 40.4385 40.0186 40.2285 40.2285C40.0186 40.4385 39.8187 40.5685 39.5386 40.6774C39.3272 40.7595 39.0095 40.8573 38.4245 40.8839C37.7919 40.9128 37.6022 40.9189 36 40.9189C34.3978 40.9189 34.2081 40.9128 33.5755 40.8839C32.9905 40.8573 32.6728 40.7595 32.4614 40.6774C32.1813 40.5685 31.9814 40.4385 31.7715 40.2285C31.5615 40.0186 31.4315 39.8187 31.3226 39.5386C31.2405 39.3272 31.1427 39.0095 31.116 38.4245C31.0872 37.7918 31.0811 37.6021 31.0811 36C31.0811 34.3979 31.0872 34.2082 31.116 33.5755C31.1427 32.9905 31.2405 32.6728 31.3226 32.4614C31.4315 32.1813 31.5615 31.9814 31.7715 31.7715C31.9814 31.5615 32.1813 31.4315 32.4614 31.3226C32.6728 31.2405 32.9905 31.1428 33.5755 31.1161C34.2082 31.0872 34.3979 31.0811 36 31.0811ZM36 32.9189C34.2984 32.9189 32.9189 34.2984 32.9189 36C32.9189 37.7016 34.2984 39.0811 36 39.0811C37.7016 39.0811 39.0811 37.7016 39.0811 36C39.0811 34.2984 37.7016 32.9189 36 32.9189ZM36 38C34.8954 38 34 37.1046 34 36C34 34.8954 34.8954 34 36 34C37.1046 34 38 34.8954 38 36C38 37.1046 37.1046 38 36 38ZM39.9228 32.7972C39.9228 33.1948 39.6004 33.5172 39.2028 33.5172C38.8052 33.5172 38.4828 33.1948 38.4828 32.7972C38.4828 32.3996 38.8052 32.0772 39.2028 32.0772C39.6004 32.0772 39.9228 32.3996 39.9228 32.7972Z" fill="#121A21" fill-opacity="0.7"/>
  <defs>
    <linearGradient id="paint0_linear_1101_132015" x1="36" y1="4" x2="36" y2="68" gradientUnits="userSpaceOnUse">
      <stop stop-color="white"/>
      <stop offset="1" stop-color="white" stop-opacity="0"/>
    </linearGradient>
  </defs>
</svg>
