<svg width="72" height="72" viewBox="0 0 72 72" fill="none"
  xmlns="http://www.w3.org/2000/svg">
  <rect x="8" y="22.999" width="56" height="26" fill="white" fill-opacity="0.85"/>
  <rect x="8" y="22.999" width="56" height="26" fill="url(#paint0_linear_1101_132023)" fill-opacity="0.5"/>
  <rect x="8.5" y="23.499" width="55" height="25" stroke="black" stroke-opacity="0.25"/>
  <path d="M43 31.4234C42.4852 31.664 41.9321 31.8265 41.3507 31.8999C41.9506 31.5215 42.3994 30.9257 42.6134 30.224C42.0498 30.577 41.4329 30.8254 40.7896 30.9586C40.357 30.4716 39.784 30.1488 39.1595 30.0403C38.5351 29.9318 37.8942 30.0438 37.3363 30.3587C36.7784 30.6737 36.3347 31.174 36.0741 31.7821C35.8135 32.3902 35.7506 33.0719 35.8952 33.7215C34.7531 33.6611 33.6358 33.3481 32.6159 32.8029C31.5959 32.2577 30.6961 31.4924 29.9748 30.5568C29.7282 31.0054 29.5864 31.5255 29.5864 32.0794C29.5861 32.578 29.7025 33.069 29.9254 33.5088C30.1483 33.9486 30.4706 34.3236 30.8639 34.6005C30.4078 34.5852 29.9618 34.4552 29.5629 34.2215V34.2605C29.5629 34.9598 29.7923 35.6377 30.2123 36.1789C30.6323 36.7202 31.2169 37.0916 31.8671 37.2302C31.444 37.3509 31.0004 37.3687 30.5698 37.2822C30.7532 37.8839 31.1105 38.4101 31.5917 38.7871C32.0729 39.1641 32.6538 39.373 33.2531 39.3846C32.2357 40.2268 30.9791 40.6836 29.6856 40.6816C29.4565 40.6816 29.2276 40.6675 29 40.6393C30.313 41.5294 31.8414 42.0018 33.4024 42C38.6864 42 41.5751 37.3855 41.5751 33.3835C41.5751 33.2535 41.572 33.1221 41.5665 32.9921C42.1283 32.5637 42.6134 32.0332 42.9988 31.4254L43 31.4234Z" fill="#121A21" fill-opacity="0.7"/>
  <defs>
    <linearGradient id="paint0_linear_1101_132023" x1="36" y1="22.999" x2="36" y2="48.999" gradientUnits="userSpaceOnUse">
      <stop stop-color="white"/>
      <stop offset="1" stop-color="white" stop-opacity="0"/>
    </linearGradient>
  </defs>
</svg>
