<svg width="48" height="48" viewBox="0 0 48 48" fill="none" xmlns="http://www.w3.org/2000/svg">
  <path
    d="M14.625 5C11.5184 5 9 7.55198 9 10.7V37.3C9 40.448 11.5184 43 14.625 43H33.375C36.4816 43 39 40.448 39 37.3V17.024C39 15.5123 38.4074 14.0625 37.3525 12.9935L31.1117 6.66949C30.0568 5.60053 28.626 5 27.1342 5H14.625Z"
    fill="#001E36" />
  <path
    d="M14.8125 33.5502V20.2087C14.8125 20.1114 14.8536 20.0627 14.9357 20.0626L15.0655 20.0622L15.2874 20.0598L15.5959 20.0536L16.6291 20.0314L17.737 20.0105C18.1267 20.0036 18.513 20.0001 18.8959 20C19.9351 20 20.8104 20.1322 21.5217 20.3967C22.1634 20.6175 22.7486 20.9812 23.2346 21.4615C23.6467 21.8777 23.9651 22.3799 24.168 22.9335C24.3598 23.4723 24.4571 24.0411 24.4553 24.6142C24.4553 25.7279 24.2022 26.6466 23.6962 27.3702C23.2013 28.0761 22.511 28.616 21.7133 28.921L21.6448 28.9465C20.8119 29.2627 19.8895 29.377 18.8779 29.3842L18.7207 29.3847L18.4874 29.3835L18.3697 29.3818L18.2386 29.3786L18.1595 29.3754L18.1115 29.3729L17.9934 29.3685L17.8489 29.3655L17.6315 29.3639L17.5832 29.3638V33.5293C17.5868 33.5549 17.5845 33.5809 17.5764 33.6054C17.5684 33.6298 17.5549 33.6521 17.537 33.6703C17.5191 33.6886 17.4972 33.7023 17.4732 33.7105C17.4492 33.7186 17.4236 33.7209 17.3985 33.7173H14.9562C14.8603 33.7174 14.8124 33.6617 14.8125 33.5502ZM17.5833 22.568V26.9195C17.7609 26.9335 17.9249 26.9405 18.0754 26.9404H18.7525C19.2192 26.9388 19.6833 26.868 20.1301 26.7304L20.2192 26.7021C20.6257 26.5793 20.9889 26.3401 21.2655 26.013C21.5225 25.7045 21.6557 25.2793 21.6649 24.7374L21.6655 24.6768C21.6763 24.2729 21.5731 23.8744 21.368 23.5285C21.1525 23.1939 20.8409 22.9351 20.4757 22.7872C19.9988 22.5985 19.4895 22.5098 18.9781 22.5263L18.7179 22.5271L18.5538 22.5285L18.3972 22.5306L18.1762 22.535L18.015 22.5396L17.9312 22.5428L17.8193 22.5481L17.724 22.5541L17.6696 22.5584L17.6227 22.5631L17.602 22.5655L17.5833 22.568ZM32.3868 26.1283C32.0289 25.9412 31.6494 25.8006 31.257 25.7098L31.1663 25.6899C30.7346 25.5891 30.294 25.5336 29.8512 25.5242L29.7406 25.5228C29.4811 25.5157 29.2219 25.5473 28.9714 25.6168C28.8119 25.653 28.6702 25.7454 28.5712 25.8777C28.5043 25.9836 28.4687 26.1068 28.4687 26.2327C28.4725 26.3548 28.5157 26.4722 28.5917 26.5667C28.7006 26.6962 28.8315 26.8048 28.9782 26.8873L29.0226 26.9112C29.3151 27.0715 29.6164 27.2144 29.9252 27.3392C30.6136 27.5739 31.2714 27.8929 31.8842 28.2892C32.3016 28.5573 32.6471 28.9268 32.8895 29.3645C33.0932 29.7789 33.1952 30.2373 33.1869 30.7006C33.1991 31.3125 33.0273 31.9135 32.6945 32.4232C32.3382 32.9406 31.8433 33.3428 31.2688 33.5818C30.667 33.8509 29.9282 33.99 29.0521 33.9991L28.9611 33.9996C28.418 34.0051 27.8757 33.9567 27.3418 33.8551L27.2276 33.8325C26.7781 33.7486 26.3406 33.6084 25.925 33.4149C25.8832 33.393 25.8479 33.3602 25.8227 33.3198C25.7974 33.2794 25.7832 33.233 25.7814 33.1851V30.9095C25.779 30.8874 25.7824 30.865 25.7915 30.8448C25.8005 30.8246 25.8148 30.8072 25.8328 30.7946C25.8504 30.7844 25.8706 30.78 25.8908 30.7818C25.9109 30.7837 25.93 30.7918 25.9455 30.8051C26.4363 31.0996 26.9692 31.3144 27.525 31.4419C28.015 31.5669 28.5175 31.6335 29.0226 31.6403C29.5011 31.6403 29.8533 31.5776 30.079 31.4523C30.1809 31.4048 30.2671 31.3282 30.3272 31.2319C30.3873 31.1355 30.4186 31.0236 30.4175 30.9095C30.4175 30.7287 30.315 30.5548 30.1098 30.3876C30.0238 30.3175 29.9005 30.2413 29.7399 30.159L29.6631 30.1206L29.5812 30.0813L29.5382 30.0614L29.4481 30.0208L29.4011 30.0001L29.3032 29.9583L29.2522 29.937L29.1464 29.8938L29.0914 29.872L28.9776 29.8273L28.8585 29.782C28.2143 29.554 27.6035 29.2379 27.0429 28.8425C26.6419 28.5587 26.3118 28.1833 26.0789 27.7463C25.8772 27.3349 25.7752 26.8803 25.7814 26.4205C25.7802 25.8681 25.9292 25.3261 26.2122 24.8546C26.5347 24.3355 26.9977 23.9222 27.5456 23.6647C28.1472 23.3586 28.8994 23.2055 29.802 23.2052C30.3307 23.2009 30.8589 23.2393 31.3816 23.3201C31.7601 23.369 32.1302 23.4709 32.4813 23.6228C32.5378 23.6394 32.5833 23.6818 32.6043 23.7377C32.6183 23.7887 32.6251 23.8413 32.6249 23.8943V26.0031C32.6279 26.0529 32.6043 26.1007 32.5634 26.1283C32.5359 26.1422 32.5057 26.1494 32.4751 26.1494C32.4445 26.1494 32.4142 26.1422 32.3868 26.1283Z"
    fill="#31A8FF" />
  <path fill-rule="evenodd" clip-rule="evenodd"
    d="M9 8C9 6.34315 10.3431 5 12 5H28.1716C28.9672 5 29.7303 5.31607 30.2929 5.87868L38.1213 13.7071C38.6839 14.2697 39 15.0328 39 15.8284V40C39 41.6569 37.6569 43 36 43H12C10.3431 43 9 41.6569 9 40V8ZM12 7C11.4477 7 11 7.44772 11 8V40C11 40.5523 11.4477 41 12 41H36C36.5523 41 37 40.5523 37 40V15.8284C37 15.5632 36.8946 15.3089 36.7071 15.1213L28.8787 7.29289C28.6911 7.10536 28.4368 7 28.1716 7H12Z"
    fill="#31A8FF" />
</svg>
  