<svg xmlns="http://www.w3.org/2000/svg" viewBox="0 0 2048 2048" style="enable-background:new 0 0 2048 2048" xml:space="preserve"><style>.st1{fill:#fff}</style><g id="Ebene_1"><circle cx="1024" cy="1024" r="868.12" style="fill:#e6ff00"/><path d="M1024 155.88c479.45 0 868.12 388.67 868.12 868.12s-388.67 868.12-868.12 868.12S155.88 1503.45 155.88 1024 544.55 155.88 1024 155.88M1024 0C885.83 0 751.71 27.1 625.37 80.54c-60.71 25.68-119.25 57.45-174 94.44-54.19 36.61-105.14 78.65-151.44 124.95s-88.34 97.25-124.95 151.44c-36.99 54.75-68.76 113.29-94.44 174C27.1 751.71 0 885.83 0 1024s27.1 272.29 80.54 398.63c25.68 60.71 57.45 119.25 94.44 174 36.61 54.19 78.65 105.14 124.95 151.44s97.25 88.34 151.44 124.95c54.75 36.99 113.29 68.76 174 94.44C751.71 2020.9 885.83 2048 1024 2048s272.29-27.1 398.63-80.54c60.71-25.68 119.25-57.45 174-94.44 54.19-36.61 105.14-78.65 151.44-124.95s88.34-97.25 124.95-151.44c36.99-54.75 68.76-113.29 94.44-174C2020.9 1296.29 2048 1162.17 2048 1024s-27.1-272.29-80.54-398.63c-25.68-60.71-57.45-119.25-94.44-174-36.61-54.19-78.65-105.14-124.95-151.44s-97.25-88.34-151.44-124.95c-54.75-36.99-113.29-68.76-174-94.44C1296.29 27.1 1162.17 0 1024 0z"/><path d="M1579.6 1142.34c0 275.47-248.75 498.78-555.6 498.78s-555.6-223.31-555.6-498.78h1111.2z"/><circle cx="1301.8" cy="801.47" r="170.47"/><circle class="st1" cx="1352.31" cy="760.43" r="46.3"/><circle cx="746.2" cy="801.47" r="170.47"/><circle class="st1" cx="796.71" cy="760.43" r="46.3"/><path id="SVGID_1_" d="M1579.6 1142.34c0 275.47-248.75 498.78-555.6 498.78s-555.6-223.31-555.6-498.78z" style="overflow:visible"/><path id="ellipse2938" style="fill:red" d="M1024 1432.47a383.62 172.63 0 0 0-346.678 99.505c95.044 68.242 215.508 109.144 346.678 109.144 131.38 0 252.024-41.028 347.139-109.469A383.62 172.63 0 0 0 1024 1432.47Z"/><path class="st1" d="M1212.36 1140.49h159.95v126.27h-159.95zm-536.66 0h159.95v126.27H675.7Z" id="path2930"/></g></svg>