<svg width="62" height="60" xmlns="http://www.w3.org/2000/svg"><g fill-rule="nonzero" fill="none"><g transform="translate(0 1)"><path d="M61.3 35.1c0 13-11.9 23.5-30.3 23.5S.7 48.1.7 35.1 12.6 2.6 31 2.6s30.3 19.5 30.3 32.5Z" fill="#F7910B"/><path d="M61.3 35.1c0 13-11.9 19.5-30.3 19.5S.7 48.1.7 35.1 12.6.6 31 .6s30.3 21.5 30.3 34.5Z" fill="#F7910B"/><path d="M31 .6c18.4 0 30.3 21.5 30.3 34.5S49.4 54.6 31 54.6" fill="#F9A908"/><path d="M61.3 35.1c0 13-11.9 19.5-30.3 19.5S.7 48.1.7 35.1 12.6 2.6 31 2.6s30.3 19.5 30.3 32.5Z" fill="#F9A908"/><path d="M.7 35.1C.7 22.1 12.6 2.6 31 2.6" fill="#F9C55D"/><path d="M31 2.6c18.4 0 30.3 19.5 30.3 32.5S49.4 58.6 31 58.6" fill="#F7910B"/><path d="M31 2.6c18.4 0 30.3 19.5 30.3 32.5" fill="#EA7103"/><path d="M26.8 27c0 1.2-3.5.7-7.8.7s-7.8.6-7.8-.7c0-1.2 3.5-2.2 7.8-2.2s7.8 1 7.8 2.2Z" fill="#F9C55D"/><path d="M50.8 27c0 1.2-3.5.7-7.8.7s-7.8.6-7.8-.7c0-1.2 3.5-2.2 7.8-2.2s7.8 1 7.8 2.2Z" fill="#F9A908"/><circle fill="#F7910B" cx="9.3" cy="32" r="1"/><circle fill="#F7910B" cx="4.8" cy="34" r="1.1"/><circle fill="#F7910B" cx="7.8" cy="30" r="1"/><circle fill="#F7910B" cx="12.4" cy="31.9" r="1"/><circle fill="#F9A908" cx="51.6" cy="32.4" r="1"/><circle fill="#F9A908" cx="54.1" cy="33.8" r="1"/><circle fill="#F9A908" cx="48.8" cy="25" r="1"/><circle fill="#F9A908" cx="48.3" cy="36.6" r="1.3"/><circle fill="#F9A908" cx="55.5" cy="36.7" r="1"/><circle fill="#F7910B" cx="8.3" cy="36.1" r="1"/><circle fill="#F7910B" cx="9.1" cy="27.7" r="1"/><circle fill="#F9A908" cx="3.8" cy="13.9" r="1.1"/><circle fill="#F9A908" cx="7" cy="10.4" r="1"/><circle fill="#F9A908" cx="58.2" cy="16.3" r="1"/><circle fill="#F9A908" cx="57.4" cy="13.4" r="1"/><circle fill="#F9A908" cx="60" cy="13.9" r="1"/><circle fill="#F9A908" cx="5" cy="16.9" r="1"/></g><path d="M15.7 21.4c.4 0 .8.2 1.2.5 1.4 1.4 3.7 1.4 5.1 0 .6-.6 1.7-.7 2.3 0 .6.6.7 1.7 0 2.3-2.7 2.7-7.1 2.7-9.8 0-.6-.6-.6-1.7 0-2.3.4-.3.8-.5 1.2-.5Z" fill="#1E4784"/><path d="M14.6 24.2c-.6-.6-.6-1.7 0-2.3.3-.3.7-.5 1.2-.5.4 0 .8.2 1.2.5 1.4 1.4 3.7 1.4 5.1 0 .6-.6 1.7-.7 2.3 0 .6.6.7 1.7 0 2.3" fill="#02243E"/><path d="M46.3 21.4c-.4 0-.8.2-1.2.5-1.4 1.4-3.7 1.4-5.1 0-.6-.6-1.7-.7-2.3 0-.6.6-.7 1.7 0 2.3 2.7 2.7 7.1 2.7 9.8 0 .6-.6.6-1.7 0-2.3-.4-.3-.8-.5-1.2-.5Z" fill="#1E4784"/><path d="M47.4 24.2c.6-.6.6-1.7 0-2.3-.3-.3-.7-.5-1.2-.5-.4 0-.8.2-1.2.5-1.4 1.4-3.7 1.4-5.1 0-.6-.6-1.7-.7-2.3 0-.6.6-.7 1.7 0 2.3" fill="#02243E"/><path d="M31 1.6C12.6 1.6.7 23.1.7 36.1S12.6 59.6 31 59.6s30.3-10.5 30.3-23.5S49.4 1.6 31 1.6ZM10.7 24.5c0-4 4.1-7.2 9.1-7.2s9.1 3.2 9.1 7.2-4.1 3.6-9.1 3.6-9.1.4-9.1-3.6ZM31 52.4c-7.1 0-12.9-5.6-12.9-12.5s5.8-7.6 12.9-7.6c7.1 0 12.9.7 12.9 7.6 0 6.9-5.8 12.5-12.9 12.5Zm11.2-24.3c-5 0-9.1.4-9.1-3.6s4.1-7.2 9.1-7.2 9.1 3.2 9.1 7.2-4.1 3.6-9.1 3.6Z" fill="#1E4784"/><path d="M30.9 1.6c-6 0-11.2 2.4-15.9 6v10.6c2-.6 3-1 4.7-1 5 0 9.1 3.2 9.1 7.2S24.6 28 19.6 28h-4.7v28.3c5 2.2 9.9 3.2 15.9 3.2C49.2 59.5 61.1 49 61.1 36S49.3 1.6 30.9 1.6Zm.1 50.8c-7.1 0-12.9-5.6-12.9-12.5s5.8-7.6 12.9-7.6c7.1 0 12.9.7 12.9 7.6 0 6.9-5.8 12.5-12.9 12.5Zm11.2-24.3c-5 0-9.1.4-9.1-3.6s4.1-7.2 9.1-7.2 9.1 3.2 9.1 7.2-4.1 3.6-9.1 3.6Z" fill="#00233F"/><ellipse fill="#2B63A5" transform="rotate(-19.403 8.793 32.903)" cx="8.793" cy="32.903" rx="4.8" ry="2.7"/><path fill="#F9A908" d="m6.9.4 1.5 3 3.3.5-2.4 2.3.5 3.2-2.9-1.5L4 9.4l.5-3.2-2.3-2.3 3.2-.5z"/><path fill="#AAD6C3" d="m15.3 8.1 1.5 3 3.3.5-2.4 2.3.6 3.2-3-1.5-2.9 1.5.6-3.2-2.4-2.3 3.3-.5zM44.4 13.8l3.2 1.1 2.6-2v3.3l2.7 1.9-3.2 1-1 3.2-1.9-2.7h-3.3l2-2.6z"/><path fill="#F7910B" d="m51.8 39.7 3.1 1 2.7-1.9-.1 3.3 2.7 1.9-3.1 1-1 3.1-1.9-2.7-3.4.1 2-2.7zM38.4 38.4c0 2.6-3.3 4.7-7.4 4.7-4.1 0-7.4-2.1-7.4-4.7"/><path d="M38 39H24c-.6 0-1-.4-1-1s.4-1 1-1h14c.6 0 1 .4 1 1s-.4 1-1 1Z" fill="#02243E"/></g></svg>