<svg width="62" height="58" xmlns="http://www.w3.org/2000/svg"><g fill-rule="nonzero" fill="none"><path d="M61.3 34.5C61.3 47.5 49.4 58 31 58S.7 47.5.7 34.5 12.6 2 31 2s30.3 19.5 30.3 32.5Z" fill="#F7910B"/><path d="M61.3 34.5C61.3 47.5 49.4 54 31 54S.7 47.5.7 34.5 12.6 0 31 0s30.3 21.5 30.3 34.5Z" fill="#F7910B"/><path d="M31 0c18.4 0 30.3 21.5 30.3 34.5S49.4 54 31 54" fill="#F9A908"/><path d="M61.3 34.5C61.3 47.5 49.4 54 31 54S.7 47.5.7 34.5 12.6 2 31 2s30.3 19.5 30.3 32.5Z" fill="#F9A908"/><path d="M.7 34.5C.7 21.5 12.6 2 31 2" fill="#F9C55D"/><path d="M31 2c18.4 0 30.3 19.5 30.3 32.5S49.4 58 31 58" fill="#F7910B"/><path d="M31 2c18.4 0 30.3 19.5 30.3 32.5" fill="#EA7103"/><g transform="translate(17 18)"><circle fill="#EA7103" cx="3.6" cy="4.7" r="3.2"/><circle fill="#EA7103" cx="24.4" cy="4.7" r="3.2"/><circle fill="#1E4784" cx="3.6" cy="3.8" r="3.2"/><path d="M3.6.6C5.4.6 6.8 2 6.8 3.8 6.8 5.6 5.4 7 3.6 7" fill="#00233F"/><circle fill="#1E4784" cx="24.4" cy="3.8" r="3.2"/><path d="M24.4.6c1.8 0 3.2 1.4 3.2 3.2 0 1.8-1.4 3.2-3.2 3.2" fill="#00233F"/></g><g fill="#19BCA4"><path d="M24.7 13c0 .9-1.4.5-3.3.6-1.8.1-3.3.6-3.3-.3 0-.9 1.4-1.6 3.2-1.7 1.9-.1 3.4.5 3.4 1.4ZM37.3 13c0 .9 1.4.5 3.3.6 1.8.1 3.3.6 3.3-.3 0-.9-1.4-1.6-3.2-1.7-1.9-.1-3.4.5-3.4 1.4Z"/></g><g fill="#109DA0"><path d="M24.7 13c0 .9-1.4.5-3.3.6-1.8.1-3.3.6-3.3-.3M37.3 13c0 .9 1.4.5 3.3.6 1.8.1 3.3.6 3.3-.3"/></g><path d="M26.8 27.8c0 1.2-3.5.7-7.8.7s-7.8.6-7.8-.7c0-1.2 3.5-2.2 7.8-2.2s7.8 1 7.8 2.2Z" fill="#F9C55D"/><path d="M50.8 27.8c0 1.2-3.5.7-7.8.7s-7.8.6-7.8-.7c0-1.2 3.5-2.2 7.8-2.2s7.8 1 7.8 2.2Z" fill="#F9A908"/><path d="M37.7 35.1c0 2.4-3 6.6-6.7 6.6s-6.7-4.3-6.7-6.6" fill="#F7910B"/><g fill="#02243E"><path d="M17.3 33.1c-.6 0-1-.4-1-1s.4-1 1-1c.8 0 1.4-.6 1.4-1.4 0-.6.4-1 1-1s1 .4 1 1c.1 1.9-1.5 3.4-3.4 3.4ZM44.7 33.1c-1.9 0-3.4-1.5-3.4-3.4 0-.6.4-1 1-1s1 .4 1 1c0 .8.6 1.4 1.4 1.4.6 0 1 .4 1 1s-.5 1-1 1Z"/></g><path d="M31 37.6c-4.8 0-9.3-1.9-12.7-5.2-.4-.4-.4-1 0-1.4.4-.4 1-.4 1.4 0 3 3 7 4.7 11.3 4.7 4.3 0 8.2-1.7 11.3-4.7.4-.4 1-.4 1.4 0 .4.4.4 1 0 1.4-3.4 3.4-7.9 5.2-12.7 5.2Z" fill="#02243E"/><path d="M36.3 32.6c0 1.1-2.4 2.1-5.3 2.1s-5.3-.9-5.3-2.1" fill="#F9C55D"/><circle fill="#F7910B" cx="9.3" cy="31.5" r="1"/><circle fill="#F7910B" cx="4.8" cy="33.5" r="1.1"/><circle fill="#F7910B" cx="7.8" cy="29.5" r="1"/><circle fill="#F7910B" cx="12.4" cy="31.3" r="1"/><circle fill="#F9A908" cx="51.6" cy="31.8" r="1"/><circle fill="#F9A908" cx="54.1" cy="33.2" r="1"/><circle fill="#F9A908" cx="48.8" cy="24.4" r="1"/><circle fill="#F9A908" cx="48.3" cy="36" r="1.3"/><circle fill="#F9A908" cx="55.5" cy="36.1" r="1"/><circle fill="#F7910B" cx="8.3" cy="35.5" r="1"/><circle fill="#F7910B" cx="9.1" cy="27.1" r="1"/><circle fill="#F9A908" cx="3.8" cy="13.3" r="1.1"/><circle fill="#F9A908" cx="7" cy="9.8" r="1"/><circle fill="#F9A908" cx="58.2" cy="15.7" r="1"/><circle fill="#F9A908" cx="57.4" cy="12.8" r="1"/><circle fill="#F9A908" cx="60" cy="13.3" r="1"/><circle fill="#F9A908" cx="5" cy="16.3" r="1"/></g></svg>