<svg width="64" height="64" xmlns="http://www.w3.org/2000/svg"><g fill-rule="nonzero" fill="none"><g transform="translate(0 23)" fill="#EA81B8"><ellipse cx="6.2" cy="8" rx="5.4" ry="7.7"/><ellipse cx="57.8" cy="8" rx="5.4" ry="7.7"/></g><g transform="translate(1 5)"><path d="M61.3 34.8c0 13-11.9 23.5-30.3 23.5S.7 47.8.7 34.8 12.6 2.3 31 2.3s30.3 19.6 30.3 32.5Z" fill="#F7910B"/><path d="M61.3 34.8c0 13-11.9 19.5-30.3 19.5S.7 47.8.7 34.8 12.6.3 31 .3s30.3 21.6 30.3 34.5Z" fill="#F7910B"/><path d="M31 .3c18.4 0 30.3 21.5 30.3 34.5S49.4 54.3 31 54.3" fill="#F9A908"/><path d="M61.3 34.8c0 13-11.9 19.5-30.3 19.5S.7 47.8.7 34.8 12.6 2.3 31 2.3s30.3 19.6 30.3 32.5Z" fill="#F9A908"/><path d="M.7 34.8C.7 21.8 12.6 2.3 31 2.3" fill="#F9C55D"/><path d="M31 2.3c18.4 0 30.3 19.5 30.3 32.5S49.4 58.3 31 58.3" fill="#F7910B"/><path d="M31 2.3c18.4 0 30.3 19.5 30.3 32.5" fill="#EA7103"/><path d="M26.8 32.7c0 1.2-3.5.7-7.8.7s-7.8.6-7.8-.7c0-1.3 3.5-2.2 7.8-2.2 4.3-.1 7.8.9 7.8 2.2Z" fill="#F9C55D"/><path d="M50.8 32.7c0 1.2-3.5.7-7.8.7s-7.8.6-7.8-.7c0-1.3 3.5-2.2 7.8-2.2 4.3-.1 7.8.9 7.8 2.2Z" fill="#F9A908"/><circle fill="#F7910B" cx="9.3" cy="31.8" r="1"/><circle fill="#F7910B" cx="4.8" cy="33.8" r="1.1"/><circle fill="#F7910B" cx="7.8" cy="29.8" r="1"/><circle fill="#F7910B" cx="12.4" cy="31.6" r="1"/><circle fill="#F9A908" cx="51.6" cy="32.2" r="1"/><circle fill="#F9A908" cx="54.1" cy="33.5" r="1"/><circle fill="#F9A908" cx="48.8" cy="24.7" r="1"/><circle fill="#F9A908" cx="48.3" cy="36.4" r="1.3"/><circle fill="#F9A908" cx="55.5" cy="36.4" r="1"/><circle fill="#F7910B" cx="8.3" cy="35.8" r="1"/><circle fill="#F7910B" cx="9.1" cy="27.4" r="1"/><circle fill="#F9A908" cx="3.8" cy="13.7" r="1.1"/><circle fill="#F9A908" cx="7" cy="10.1" r="1"/><circle fill="#F9A908" cx="58.2" cy="16" r="1"/><circle fill="#F9A908" cx="57.4" cy="13.1" r="1"/><circle fill="#F9A908" cx="60" cy="13.7" r="1"/><circle fill="#F9A908" cx="5" cy="16.6" r="1"/></g><g transform="translate(9 17)"><circle fill="#FFF" cx="11.7" cy="11.9" r="9.3"/><path d="M11.7 22.9c-6.1 0-11-4.9-11-11s4.9-11 11-11 11 4.9 11 11-5 11-11 11Zm0-18.7C7.5 4.2 4 7.6 4 11.9c0 4.3 3.4 7.7 7.7 7.7 4.2 0 7.7-3.4 7.7-7.7 0-4.3-3.5-7.7-7.7-7.7Z" fill="#756A49"/></g><path d="M52.7 28.9c0 5.2-4.2 9.3-9.3 9.3-5.2 0-9.3-4.2-9.3-9.3 0-5.1 4.2-9.3 9.3-9.3 5.1 0 9.3 4.1 9.3 9.3Z" fill="#FFF"/><path d="M43.3 39.9c-6.1 0-11-4.9-11-11s4.9-11 11-11 11 4.9 11 11-4.9 11-11 11Zm0-18.7c-4.2 0-7.7 3.4-7.7 7.7 0 4.3 3.4 7.7 7.7 7.7 4.2 0 7.7-3.4 7.7-7.7 0-4.3-3.4-7.7-7.7-7.7Z" fill="#756A49"/><g transform="translate(17 24)"><path d="M7.1 5.4c0 1.9-1.6 3.5-3.5 3.5S.1 7.3.1 5.4s1.6-3.5 3.5-3.5 3.5 1.6 3.5 3.5Z" fill="#CECDCC"/><circle fill="#CECDCC" cx="26.4" cy="5.4" r="3.5"/><path d="M7.1 4.4c0 1.9-1.6 3.5-3.5 3.5S.1 6.3.1 4.4 1.7.9 3.6.9s3.5 1.6 3.5 3.5Z" fill="#1E4784"/><path d="M3.6.9c1.9 0 3.5 1.6 3.5 3.5S5.5 7.9 3.6 7.9" fill="#00233F"/><circle fill="#1E4784" cx="26.4" cy="4.4" r="3.5"/><path d="M26.4.9c1.9 0 3.5 1.6 3.5 3.5s-1.6 3.5-3.5 3.5" fill="#00233F"/></g><path d="M2 30.5h9" fill="#FFF"/><path d="M11 32H2c-.8 0-1.5-.7-1.5-1.5S1.2 29 2 29h9c.8 0 1.5.7 1.5 1.5S11.8 32 11 32Z" fill="#756A49"/><path d="M53 30.5h9" fill="#FFF"/><path d="M62 32h-9c-.8 0-1.5-.7-1.5-1.5S52.2 29 53 29h9c.8 0 1.5.7 1.5 1.5S62.8 32 62 32Z" fill="#756A49"/><g fill="#00233F"><path d="M24 15.3c0 .6-1.5.2-3.2 0-1.8-.2-3.2 0-3.2-.6s.8-2.3 2.6-2.1c1.7.1 3.9 2.1 3.8 2.7ZM40 16.1c0 .6 1.5.2 3.2 0 1.8-.2 3.2 0 3.2-.6-.1-.6-.8-2.3-2.6-2.1-1.7.2-3.9 2.1-3.8 2.7Z"/></g><path d="M39.4 55.3c0 2.6-3.3 4.7-7.4 4.7-4.1 0-7.4-2.1-7.4-4.7" fill="#F7910B"/><path d="M34 55h-4c-.6 0-1-.4-1-1s.4-1 1-1h4c.6 0 1 .4 1 1s-.4 1-1 1Z" fill="#02243E"/><g fill="#00233F"><path d="m28.6 48-11.2 4.6L32 51.5l-.2-3.5zM35.4 48l11.2 4.6L32 51.5l.2-3.5z"/></g><path d="M38 42c0 7.2-2.7 7.3-6 7.3s-6-.1-6-7.3 2.7-13 6-13 6 5.9 6 13Z" fill="#F9B2DB"/><path d="M32 29c3.3 0 6 5.8 6 13s-2.7 7.3-6 7.3" fill="#EA81B8"/><path d="M47 7.5c0 .8-.7 1.5-1.5 1.5h-27c-.8 0-1.5-.7-1.5-1.5S17.7 6 18.5 6h27c.8 0 1.5.7 1.5 1.5Z" fill="#00233F"/><path d="M21.2 8.7c0-4.4 4.8-8 10.8-8 6 0 10.8 3.6 10.8 8" fill="#00233F"/></g></svg>