<svg width="24" height="24" viewBox="0 0 24 24" fill="none" xmlns="http://www.w3.org/2000/svg">
<g clip-path="url(#clip0_2001_32538)">
<rect x="2" y="2" width="20" height="20" rx="10" fill="white"/>
<rect x="2" y="2" width="20" height="20" rx="10" fill="url(#paint0_linear_2001_32538)"/>
<path d="M15.9 14.8L16.35 12H13.7V10.05C13.7 9.24999 14 8.64999 15.2 8.64999H16.5V6.09999C15.8 5.99999 15 5.89999 14.3 5.89999C12 5.89999 10.4 7.29999 10.4 9.79999V12H7.89999V14.8H10.4V21.85C10.95 21.95 11.5 22 12.05 22C12.6 22 13.15 21.95 13.7 21.85V14.8H15.9Z" fill="white"/>
</g>
<defs>
<linearGradient id="paint0_linear_2001_32538" x1="12.0005" y1="21.4015" x2="12.0005" y2="1.9963" gradientUnits="userSpaceOnUse">
<stop stop-color="#0062E0"/>
<stop offset="1" stop-color="#19AFFF"/>
</linearGradient>
<clipPath id="clip0_2001_32538">
<rect x="2" y="2" width="20" height="20" rx="10" fill="white"/>
</clipPath>
</defs>
</svg>
