<svg width="24" height="24" viewBox="0 0 24 24" fill="none" xmlns="http://www.w3.org/2000/svg">
<path d="M8.66747 12C8.66747 10.1601 10.1594 8.66825 12.0004 8.66825C13.8414 8.66825 15.3341 10.1601 15.3341 12C15.3341 13.8398 13.8414 15.3317 12.0004 15.3317C10.1594 15.3317 8.66747 13.8398 8.66747 12ZM6.86531 12C6.86531 14.8344 9.16429 17.132 12.0004 17.132C14.8365 17.132 17.1355 14.8344 17.1355 12C17.1355 9.16558 14.8365 6.86798 12.0004 6.86798C9.16429 6.86798 6.86531 9.16558 6.86531 12ZM16.1387 6.6645C16.1386 6.9017 16.2089 7.13361 16.3407 7.33089C16.4725 7.52817 16.6598 7.68196 16.8791 7.77283C17.0983 7.86369 17.3396 7.88754 17.5724 7.84135C17.8052 7.79517 18.0191 7.68103 18.187 7.51337C18.3549 7.34571 18.4693 7.13205 18.5157 6.89942C18.5621 6.66679 18.5384 6.42564 18.4477 6.20646C18.3569 5.98727 18.2032 5.7999 18.0059 5.66804C17.8086 5.53617 17.5766 5.46574 17.3393 5.46565H17.3388C17.0206 5.4658 16.7156 5.59213 16.4905 5.81692C16.2655 6.0417 16.139 6.34654 16.1387 6.6645V6.6645ZM7.96024 20.1352C6.98524 20.0908 6.4553 19.9285 6.10312 19.7914C5.63623 19.6097 5.30309 19.3934 4.95284 19.0438C4.60258 18.6942 4.38578 18.3616 4.20481 17.895C4.06752 17.5432 3.90512 17.0134 3.86079 16.039C3.81231 14.9855 3.80263 14.6691 3.80263 12.0001C3.80263 9.33108 3.81311 9.0155 3.86079 7.96113C3.9052 6.98672 4.0688 6.45797 4.20481 6.10513C4.38658 5.63851 4.60306 5.30558 4.95284 4.95553C5.30261 4.60549 5.63543 4.38881 6.10312 4.20795C6.45514 4.07075 6.98524 3.90844 7.96024 3.86414C9.01436 3.81569 9.33101 3.80602 12.0004 3.80602C14.6698 3.80602 14.9868 3.81649 16.0418 3.86414C17.0168 3.90852 17.5458 4.07203 17.8989 4.20795C18.3658 4.38881 18.6989 4.60597 19.0492 4.95553C19.3994 5.3051 19.6154 5.63851 19.7972 6.10513C19.9345 6.45693 20.0969 6.98672 20.1412 7.96113C20.1897 9.0155 20.1994 9.33108 20.1994 12.0001C20.1994 14.6691 20.1897 14.9846 20.1412 16.039C20.0968 17.0134 19.9336 17.543 19.7972 17.895C19.6154 18.3616 19.3989 18.6946 19.0492 19.0438C18.6994 19.393 18.3658 19.6097 17.8989 19.7914C17.5469 19.9286 17.0168 20.0909 16.0418 20.1352C14.9876 20.1836 14.671 20.1933 12.0004 20.1933C9.32981 20.1933 9.01404 20.1836 7.96024 20.1352V20.1352ZM7.87744 2.06611C6.81283 2.11456 6.08536 2.28327 5.45006 2.53033C4.79211 2.78547 4.23513 3.12776 3.67855 3.68313C3.12196 4.23849 2.78035 4.79602 2.52506 5.45357C2.27785 6.0889 2.10904 6.81553 2.06056 7.8795C2.01128 8.94514 2 9.28583 2 12C2 14.7141 2.01128 15.0548 2.06056 16.1205C2.10904 17.1845 2.27785 17.9111 2.52506 18.5464C2.78035 19.2036 3.12204 19.7617 3.67855 20.3169C4.23505 20.872 4.79211 21.2138 5.45006 21.4696C6.08656 21.7167 6.81283 21.8854 7.87744 21.9339C8.94428 21.9823 9.28461 21.9944 12.0004 21.9944C14.7162 21.9944 15.0571 21.9831 16.1234 21.9339C17.188 21.8854 17.915 21.7167 18.5507 21.4696C19.2083 21.2138 19.7657 20.8722 20.3223 20.3169C20.8788 19.7615 21.2197 19.2036 21.4757 18.5464C21.7229 17.9111 21.8926 17.1844 21.9402 16.1205C21.9887 15.054 22 14.7141 22 12C22 9.28583 21.9887 8.94514 21.9402 7.8795C21.8918 6.81545 21.7229 6.0885 21.4757 5.45357C21.2197 4.79642 20.878 4.23937 20.3223 3.68313C19.7665 3.12688 19.2083 2.78547 18.5515 2.53033C17.915 2.28327 17.188 2.11376 16.1242 2.06611C15.0579 2.01766 14.717 2.00558 12.0012 2.00558C9.28541 2.00558 8.94428 2.01686 7.87744 2.06611Z" fill="url(#paint0_radial_2001_32537)"/>
<path d="M8.66747 12C8.66747 10.1601 10.1594 8.66825 12.0004 8.66825C13.8414 8.66825 15.3341 10.1601 15.3341 12C15.3341 13.8398 13.8414 15.3317 12.0004 15.3317C10.1594 15.3317 8.66747 13.8398 8.66747 12ZM6.86531 12C6.86531 14.8344 9.16429 17.132 12.0004 17.132C14.8365 17.132 17.1355 14.8344 17.1355 12C17.1355 9.16558 14.8365 6.86798 12.0004 6.86798C9.16429 6.86798 6.86531 9.16558 6.86531 12ZM16.1387 6.6645C16.1386 6.9017 16.2089 7.13361 16.3407 7.33089C16.4725 7.52817 16.6598 7.68196 16.8791 7.77283C17.0983 7.86369 17.3396 7.88754 17.5724 7.84135C17.8052 7.79517 18.0191 7.68103 18.187 7.51337C18.3549 7.34571 18.4693 7.13205 18.5157 6.89942C18.5621 6.66679 18.5384 6.42564 18.4477 6.20646C18.3569 5.98727 18.2032 5.7999 18.0059 5.66804C17.8086 5.53617 17.5766 5.46574 17.3393 5.46565H17.3388C17.0206 5.4658 16.7156 5.59213 16.4905 5.81692C16.2655 6.0417 16.139 6.34654 16.1387 6.6645V6.6645ZM7.96024 20.1352C6.98524 20.0908 6.4553 19.9285 6.10312 19.7914C5.63623 19.6097 5.30309 19.3934 4.95284 19.0438C4.60258 18.6942 4.38578 18.3616 4.20481 17.895C4.06752 17.5432 3.90512 17.0134 3.86079 16.039C3.81231 14.9855 3.80263 14.6691 3.80263 12.0001C3.80263 9.33108 3.81311 9.0155 3.86079 7.96113C3.9052 6.98672 4.0688 6.45797 4.20481 6.10513C4.38658 5.63851 4.60306 5.30558 4.95284 4.95553C5.30261 4.60549 5.63543 4.38881 6.10312 4.20795C6.45514 4.07075 6.98524 3.90844 7.96024 3.86414C9.01436 3.81569 9.33101 3.80602 12.0004 3.80602C14.6698 3.80602 14.9868 3.81649 16.0418 3.86414C17.0168 3.90852 17.5458 4.07203 17.8989 4.20795C18.3658 4.38881 18.6989 4.60597 19.0492 4.95553C19.3994 5.3051 19.6154 5.63851 19.7972 6.10513C19.9345 6.45693 20.0969 6.98672 20.1412 7.96113C20.1897 9.0155 20.1994 9.33108 20.1994 12.0001C20.1994 14.6691 20.1897 14.9846 20.1412 16.039C20.0968 17.0134 19.9336 17.543 19.7972 17.895C19.6154 18.3616 19.3989 18.6946 19.0492 19.0438C18.6994 19.393 18.3658 19.6097 17.8989 19.7914C17.5469 19.9286 17.0168 20.0909 16.0418 20.1352C14.9876 20.1836 14.671 20.1933 12.0004 20.1933C9.32981 20.1933 9.01404 20.1836 7.96024 20.1352V20.1352ZM7.87744 2.06611C6.81283 2.11456 6.08536 2.28327 5.45006 2.53033C4.79211 2.78547 4.23513 3.12776 3.67855 3.68313C3.12196 4.23849 2.78035 4.79602 2.52506 5.45357C2.27785 6.0889 2.10904 6.81553 2.06056 7.8795C2.01128 8.94514 2 9.28583 2 12C2 14.7141 2.01128 15.0548 2.06056 16.1205C2.10904 17.1845 2.27785 17.9111 2.52506 18.5464C2.78035 19.2036 3.12204 19.7617 3.67855 20.3169C4.23505 20.872 4.79211 21.2138 5.45006 21.4696C6.08656 21.7167 6.81283 21.8854 7.87744 21.9339C8.94428 21.9823 9.28461 21.9944 12.0004 21.9944C14.7162 21.9944 15.0571 21.9831 16.1234 21.9339C17.188 21.8854 17.915 21.7167 18.5507 21.4696C19.2083 21.2138 19.7657 20.8722 20.3223 20.3169C20.8788 19.7615 21.2197 19.2036 21.4757 18.5464C21.7229 17.9111 21.8926 17.1844 21.9402 16.1205C21.9887 15.054 22 14.7141 22 12C22 9.28583 21.9887 8.94514 21.9402 7.8795C21.8918 6.81545 21.7229 6.0885 21.4757 5.45357C21.2197 4.79642 20.878 4.23937 20.3223 3.68313C19.7665 3.12688 19.2083 2.78547 18.5515 2.53033C17.915 2.28327 17.188 2.11376 16.1242 2.06611C15.0579 2.01766 14.717 2.00558 12.0012 2.00558C9.28541 2.00558 8.94428 2.01686 7.87744 2.06611Z" fill="url(#paint1_radial_2001_32537)"/>
<defs>
<radialGradient id="paint0_radial_2001_32537" cx="0" cy="0" r="1" gradientUnits="userSpaceOnUse" gradientTransform="translate(4.65723 22.0888) scale(26.1094 26.0937)">
<stop offset="0.09" stop-color="#FA8F21"/>
<stop offset="0.78" stop-color="#D82D7E"/>
</radialGradient>
<radialGradient id="paint1_radial_2001_32537" cx="0" cy="0" r="1" gradientUnits="userSpaceOnUse" gradientTransform="translate(14.1296 22.9843) scale(20.5778 20.5654)">
<stop offset="0.64" stop-color="#8C3AAA" stop-opacity="0"/>
<stop offset="1" stop-color="#8C3AAA"/>
</radialGradient>
</defs>
</svg>
