<svg version="1.1" id="Ebene_1" xmlns="http://www.w3.org/2000/svg" x="0" y="0" viewBox="0 0 1425 2048" style="enable-background:new 0 0 1425 2048" xml:space="preserve"><style>.st1{fill:#fff}</style><path d="M544.87 2040.54c68.97 10.89 408.68 7.71 458.8 3.86s127.23 7.71 119.52-65.54c-7.71-73.25-30.84-366.27-30.84-381.69 0-15.42-19.28-350.85-19.28-385.55 0-34.7 15.42-63.61 80.96-75.18 65.54-11.57 196.63-1.93 212.05-71.33 15.42-69.4-15.42-104.1-15.42-104.1s63.61-11.57 59.76-79.04c-2.68-46.83-21.2-75.18-21.2-75.18s48.19-25.06 32.77-86.75c-10.11-40.46-52.05-46.27-52.05-46.27s32.77-133.01-59.76-175.42c-92-42.17-213.98-69.4-279.52-65.54l-65.54 3.86s42.41-154.22 46.27-212.05c3.86-57.83 3.86-212.05-61.69-219.76S787.76-14.42 768.48 85.83c-19.28 100.24-80.96 239.04-107.95 277.59S490.89 571.61 421.49 598.6 310.28 653.45 245.1 702.7c-18.04 13.63-35.73 99.92-37.59 125.3-1.18 16.1-155.57-34.56-198.62 62.65-37.09 83.74 60.82 95.78 59.18 182.17-3.21 169.64 194.2 78.18 203.05 93.49 38.76 67.01 47.39 108.92 94.46 108.92 57.83 0 98.31-21.2 109.88-21.2 11.57 0 34.7-7.71 34.7 30.84.01 38.56-111.8 732.54 34.71 755.67z" style="fill:#ffff05"/><path d="M1098.76 1024.54S904.63 1054.63 813 1047.2s-94.74-38.63-220.53 22.29c-125.8 60.92-156.42 134.2-237.62 87.67-93.35-53.5-114.93-285.29-55.91-374.45s83.86-41.61 158.41-92.13c74.55-50.52 173.94-193.17 214.32-252.6S785.04 331 797.47 289.4s37.27-167.91 60.57-196.14c26.81-32.49 93.18-23.77 83.86 74.29-9.32 98.07-46.59 190.19-68.33 234.77s-31.06 95.1 24.85 104.01c55.91 8.92 164.62-5.94 226.75 11.89s177.05 53.49 186.37 115.9c9.32 62.41-24.85 95.1-83.86 104.01-59.02 8.92-99.4 41.61-189.47 11.89-90.08-29.72-165.79-81.35-131.62-111.07 34.17-29.72 94.35-1.86 144.05 10.03 49.7 11.89 186.37-32.69 186.37-32.69"/><path class="st1" d="M1099.53 1021.47c-43.72 6.77-87.71 12.16-131.73 16.55-64.62 6.46-130.54 12.22-194.85.26-22.58-4.2-44.97-9.85-68.12-8.6-33.99 1.84-66.71 15.41-97.28 29.39-41.05 18.76-79.06 41.93-116.1 67.6-13.42 9.3-26.77 18.82-40.89 27.04-10.88 6.33-22.59 12.09-35.13 14.14-26.37 4.32-54.26-8.66-73.43-26.15-20.76-18.94-34.63-44.52-44.72-70.43-23.71-60.87-30.59-130.3-22.77-194.96 3.38-27.96 9.64-56.66 22.77-81.8 8.21-15.7 19.22-30.7 31.51-43.44 9.3-9.64 19.88-17.8 32.48-22.59 10.49-3.99 21.75-5.61 32.68-7.92 13.91-2.94 27.53-7.07 40.4-13.15 31.21-14.75 57.33-38.19 81.27-62.66 52.62-53.81 97.72-115.1 140.68-176.73 8.16-11.7 15.98-23.67 24.31-35.25 12.73-17.7 27.63-33.71 42.96-49.18 14.29-14.42 29.09-28.33 43.14-43 11.44-11.95 23.07-24.52 30.94-39.19 5.78-10.78 8.35-22.91 11.33-34.68 3.82-15.11 7.45-30.26 11.19-45.39 8.13-32.88 16.17-66.11 28.02-97.89 6.77-18.16 15.84-39.11 36.41-43.32 22.47-4.6 40.1 13.57 46.98 33.19 6.14 17.52 6.45 36.67 4.75 54.96-2.36 25.41-6.71 50.65-12.39 75.53-9.79 42.85-23.6 84.84-40.63 125.36-12.33 29.33-31.46 58.79-32.28 91.47-.34 13.69 3.41 27.44 14.26 36.51 12.61 10.55 29.56 12.72 45.37 14.08 38.5 3.31 77.42.69 116 .82 20.21.07 40.51.5 60.61 2.77 16.57 1.87 32.36 5.75 48.31 10.48 33.27 9.86 66.44 21.01 97.53 36.57 26.68 13.36 57.77 31.87 69.38 61.01 5.98 15.01 6.34 33.38 3.47 49.1-2.7 14.83-9.53 28.6-20.61 38.94-24.81 23.15-60.28 23.24-91.29 31.74-15.65 4.29-31.14 9.24-47.05 12.51-17.88 3.68-36.13 4.84-54.32 3.12-24.12-2.28-47.38-9.51-69.97-17.97-21.74-8.15-43.06-17.66-63.23-29.19-15.61-8.92-31.25-19.09-43.46-32.45-7.08-7.75-14.99-18.94-11.23-30 5.02-14.77 24.98-19.6 38.61-19.81 21.41-.34 42.67 5.9 63.05 11.78 17.17 4.95 34.64 11.6 52.55 13.11 13.69 1.15 27.64-.09 41.23-1.82 31.36-4 62.33-11.42 92.81-19.7 14.98-4.07 29.93-8.35 44.69-13.16 1.59-.52 5.48-1.91 4.84-4.27-.6-2.24-4.84-1.76-6.33-1.28-16.5 5.38-33.22 10.12-49.99 14.59-30.9 8.23-62.38 15.72-94.27 18.77-12.25 1.17-25.09 1.93-37.2-.74-21.85-4.82-42.98-12.55-64.72-17.8-19.75-4.77-40.78-8.22-60.9-3.67-13.42 3.04-30.48 11.05-35.42 25.07-3.8 10.79 2.38 21.87 9.06 30.03 11.04 13.48 26.1 23.72 40.87 32.68 19.98 12.12 41.31 22.02 63.05 30.53 23.08 9.03 46.84 17.02 71.47 20.44 19.02 2.64 38.28 2.6 57.27-.32 16.56-2.55 32.66-7.1 48.74-11.71 16.53-4.74 32.96-8.2 49.83-11.4 16.97-3.21 33.91-8.6 48.46-18.12 12.62-8.27 22.89-19.45 29.09-33.28 6.89-15.36 8.08-32.6 6.39-49.18-1.5-14.78-6.74-27.64-16.1-39.22-10.05-12.42-23.06-22.24-36.51-30.69-30.48-19.14-64.85-31.89-98.97-42.87-14.89-4.79-29.93-9.76-45.16-13.34-18.6-4.37-37.84-5.97-56.88-6.84-41.63-1.9-83.29.65-124.93-.32-29.34-.68-71.88-1.09-76.76-38.31-2.15-16.37 2.86-33.39 8.73-48.51 5.99-15.45 13.88-30.15 20.44-45.37 17.4-40.38 31.54-82.29 41.76-125.07 5.98-25.05 10.58-50.46 13.31-76.07 2.06-19.31 2.71-39.34-2.77-58.19-6.55-22.51-23.57-41.34-48.29-41.47-21.52-.12-40.26 12.22-49.93 31.09-14.44 28.18-21.99 60.31-29.9 90.78-7.83 30.17-14.39 60.71-22.85 90.71-4.06 14.42-12.01 26.35-21.58 37.76-12.89 15.37-27.54 29.23-41.83 43.27-15.63 15.36-31.18 30.87-45.32 47.64-10.92 12.95-20.25 26.95-29.84 40.87-20.01 29.03-40.54 57.71-61.89 85.78-24.44 32.13-49.86 63.68-77.57 93.08-24.01 25.47-50.18 51.06-81.71 67.05-12.99 6.59-26.75 10.85-40.96 13.85-11.71 2.47-23.5 4.44-34.77 8.61-30.1 11.12-52.84 39.02-68.3 66.09-14.26 24.97-21.37 53.74-25.28 82.02-4.58 33.12-4.68 66.93-1.4 100.17 3.29 33.29 10.04 66.51 21.7 97.91 9.89 26.64 23.58 53.17 44.05 73.26 19.29 18.93 47.13 32.79 74.58 31.93 29.45-.92 55.13-17.51 78.71-33.57 35.55-24.22 70.58-48.78 109.28-67.87 33.26-16.41 69.48-34.04 106.99-37.35 23.25-2.06 45.91 4.03 68.58 8.22 30.45 5.64 61.01 7.6 91.93 6.96 67.17-1.39 134.31-9.24 200.82-18.24 12.89-1.74 25.78-3.53 38.63-5.52 1.77-.27 6.24-1.39 6.35-3.78.12-2.45-3.02-2.67-4.81-2.39z"/><path class="st1" d="M388.45 753.1c29.66 19.46 54.1 45.86 70.92 77.12 7.15 13.28 12.98 27.24 17.81 41.52 3.52 10.42 6.82 20.93 8.3 31.86 3.1 22.98 2.02 46.63-.14 69.65-2.49 26.54-6.94 53.1-14.48 78.69-3.7 12.56-8.14 25.07-14.38 36.62-4.5 8.31-10.07 17.05-18.12 22.36-1.7 1.13-3.09 2.93-.98 4.37 1.99 1.35 6.14.13 7.91-1.04 17.16-11.33 26.14-32.39 32.68-51.08 9.02-25.75 14.15-52.93 17.34-79.98 2.91-24.76 4.42-50.1 2.19-74.98-2.24-25.08-11.58-49.85-22.53-72.34-17.59-36.12-44.03-66.15-77.63-88.18-3.04-1.99-13.36 2.48-8.89 5.41zM350.12 880.8c1.45 26.83-9.1 53.17-8.53 80.03.58 27.42 13.36 54.41 34.52 72.91 8.62-23.16 20.75-52.5 21.68-77.07.9-23.72-9.58-44.32-21.58-65.09-3.03-5.24-7.32-10.46-13.43-11.77-6.11-1.31-13.61 3.65-12.24 9.49"/><path class="st1" d="M338.95 883.79c1.29 29.4-10.98 57.59-8.1 87.13 2.52 25.8 15.65 50.22 34.94 67.37 6.07 5.39 18.8 1.57 21.55-5.77 9.57-25.62 21.91-52.74 21.74-80.61-.09-14.84-4.17-28.87-10.43-42.23-3.12-6.67-6.67-13.15-10.31-19.55-3.18-5.59-6.55-10.84-12.2-14.24-11.87-7.15-39.17-1.15-36.75 16.39 1.16 8.43 23.61 3.18 22.34-5.99-.31-2.28-4.32.69-4.26.43.05-.23 4.8 4.1 5.26 4.68 4.45 5.54 7.68 12.44 10.88 18.75 6.6 13 11.96 26.92 12.9 41.6.91 14.09-2.78 28.49-6.85 41.85-4.26 14.01-9.65 27.63-14.76 41.34 7.18-1.92 14.36-3.85 21.55-5.77-19.06-16.93-31.33-40.29-33.39-65.81-2.32-28.78 9.51-56.68 8.24-85.56-.22-5-10-4.06-12.86-3.29-4.49 1.2-9.72 4.09-9.49 9.28zM637.35 878.9c82.22-45.93 158.22-111.87 191.05-202.63 9.08-25.12 14.38-51.51 15.26-78.22.06-1.9-11.06-.42-11.17 2.99-3.15 95.07-62.4 177.31-135.81 233.26-20.85 15.89-42.95 30.1-65.83 42.88-1.43.8-3.33 1.94-1.32 3.09 1.78 1.03 6.23-.49 7.82-1.37z"/><path class="st1" d="M725.65 822.96c19.21-3.52 37.03-13.47 56.7-14.54 18.37-1 36.54 5.19 50.75 16.78 4.1 3.35 13.67-2.52 8.54-6.7-15.49-12.63-35.27-19.1-55.2-18.85-22.06.28-41.64 11.24-62.99 15.15-2.36.43-5.2 2.96-4.49 5.57.79 2.91 4.35 3.02 6.69 2.59zM913.8 665.17c13.4.03 26.52 4.86 36.64 13.71 8.51 7.45 21.47 23.66 13.38 35.19-1.58 2.25 1.36 3.61 3.16 3.76 2.64.23 5.79-.97 7.34-3.18 9.38-13.36-3.39-31.45-13.55-40.34-11.81-10.33-27.09-16.06-42.78-16.09-2.36-.01-6.22.71-7.34 3.18-1.05 2.3.89 3.77 3.15 3.77zM1101.24 645.26c-2.51-27.13 3.24-52.63 17.43-75.91 2.79-4.57-8.43-3.69-10.45-.39-14.85 24.36-20.79 50.92-18.16 79.3.36 3.87 11.59 1.43 11.18-3zM1032.66 635.42c-3.32-20.26-12.73-38.98-26.7-53.99-2.91-3.13-13.57 1.07-10.32 4.56 13.64 14.66 22.61 32.64 25.85 52.42.69 4.26 11.92 1.56 11.17-2.99zM839.39 195.13c18.07-13.63 33.42-30.62 44.82-50.21 7.94-13.64 26.49-47.9-.06-53.12-5.36-1.06-11.35 6.44-3.93 7.91 4.25.84 6.39 5.91 6.59 9.76.28 5.23-1.8 10.28-3.75 15.03-3.52 8.61-7.84 16.89-12.84 24.74-10.1 15.86-23.2 29.7-38.19 41.01-6.04 4.56 3.05 8.14 7.36 4.88zM1092.08 751.76c.24-13-1.27-25.83-4.51-38.42-1.22-4.74-23.61 1.06-22.34 5.99a143.01 143.01 0 0 1 4.51 38.42c-.07 3.24 22.22.35 22.34-5.99zM1114.9 755.59l4.44-38.49c.37-3.21-21.54-1.02-22.34 5.99l-4.44 38.49c-.37 3.21 21.53 1.02 22.34-5.99zM874.86 316.38c20.44-3.74 38.17-16.79 48.37-34.75 2.79-4.91-2.51-9.13-6.9-9.73-5.71-.78-11.69 1.93-14.53 6.93-6.75 11.89-18.17 19.38-31.17 21.76-4.59.84-10.44 5.71-9.06 10.89 1.53 5.71 8.76 5.73 13.29 4.9z"/><path d="M634.09 1485.84c5.17 6.81 10.16 11.74 14.97 14.79 4.81 3.06 9.21 5.99 13.21 8.8 3.99 2.82 7.39 6.51 10.21 11.09 2.82 4.58 4.81 11.8 5.99 21.66 1.17 9.86.88 19.55-.88 29.06-1.76 9.5-4.4 18.96-7.92 28.34-1.17 3.29-2.82 6.46-4.93 9.51a61.125 61.125 0 0 1-7.04 8.46c-1.65 1.88-4.11 3.34-7.39 4.4-3.29 1.05-6.75 1.64-10.39 1.76-3.64.11-7.22-.06-10.74-.53-3.52-.47-6.34-1.41-8.46-2.82-5.63-3.52-10.21-8.16-13.73-13.92-3.52-5.75-6.22-12.15-8.09-19.19-1.88-7.05-3.23-14.44-4.05-22.19-.83-7.75-1.58-15.37-2.29-22.89-.23-2.58-.11-5.05.35-7.39.47-2.34.93-4.69 1.41-7.04.7-2.34 2.11-4.81 4.22-7.39 4.69-4.69 10.09-5.63 16.2-2.82 2.82 1.17 4.64 2.58 5.46 4.22s.88 4.22.18 7.75c-3.52 17.61-1.65 34.63 5.63 51.06 3.75 7.75 6.69 12.03 8.8 12.85 2.12.83 3.75-.41 4.93-3.7 1.17-3.28 2.11-7.75 2.82-13.38a292.1 292.1 0 0 1 2.46-16.2c.47-3.52.88-7.05 1.23-10.56.35-3.52.76-7.05 1.23-10.56.23-11.27-4.7-20.08-14.8-26.42-1.17-.7-2.17-1.41-2.99-2.12-.83-.7-1.82-1.29-3-1.75-17.14-10.1-27.7-24.42-31.69-42.97-2.35-11.27-2.35-22.12 0-32.58 2.35-10.44 7.75-20.13 16.2-29.05 3.75-3.99 8.22-7.52 13.38-10.56 11.73-6.57 22.77-5.75 33.1 2.46 4.22 3.29 7.75 7.17 10.56 11.63 3.52 5.4 6.34 11.68 8.45 18.84 2.12 7.16 3.29 14.5 3.52 22.01.23 7.52-.47 15.02-2.12 22.54-1.64 7.52-4.22 14.44-7.75 20.78-3.29-1.64-5.99-2.7-8.09-3.17-2.12-.47-3.82-1.17-5.11-2.12-1.3-.93-2.18-2.4-2.64-4.4-.47-2-.47-5.34 0-10.04 0-1.17.05-3.93.17-8.28.12-4.34.18-9.21.18-14.62 0-5.4-.3-10.8-.88-16.2-.59-5.4-1.53-9.92-2.82-13.56-1.3-3.64-3.17-5.87-5.64-6.69-2.46-.82-5.69.76-9.68 4.75-3.76 3.76-6.51 8.63-8.28 14.62-1.76 5.99-2.64 12.21-2.64 18.66 0 6.46.81 12.85 2.46 19.19 1.68 6.37 3.91 11.66 6.72 15.88zM712.63 1417.17c-4.7-.23-8.92-.58-12.67-1.05-2.82 0-5.29-.71-7.39-2.12-2.35-1.17-4.23-2.93-5.64-5.28-1.41-2.34-1.99-4.69-1.76-7.04.71-5.17 4.11-8.1 10.22-8.81 13.61-.93 27.47-1.63 41.55-2.11 3.99-.23 7.98-.18 11.97.17s7.98.77 11.97 1.23c2.58.47 4.98 1.3 7.22 2.46 2.23 1.18 4.52 2.35 6.87 3.52 1.88.94 3.34 2.35 4.41 4.22 1.05 1.88 1.23 4.34.53 7.39-5.87.24-11.69.65-17.43 1.23-5.76.59-11.69 1.82-17.79 3.7.23 34.99.29 69.55.17 103.71-.12 34.16-.06 68.49.18 103.01-5.41 3.05-10.92 3.7-16.55 1.94s-10.1-5.57-13.38-11.45c-2.59-3.98-4.23-8.16-4.93-12.5-.71-4.34-1.05-8.86-1.05-13.55v-11.8c0-3.88.11-7.8.35-11.8.47-23.24 1.06-46.36 1.76-69.38.71-23 1.29-46.13 1.76-69.38.23-1.17.23-2.23 0-3.17-.25-.9-.37-1.96-.37-3.14zM811.23 1520c.47 15.03.76 30.05.88 45.08.12 15.03.29 30.06.53 45.08 0 7.75-3.52 10.56-10.56 8.46-7.52-2.12-11.97-6.81-13.38-14.09-1.88-8.45-2.94-16.91-3.17-25.35-1.17-17.14-1.94-34.22-2.29-51.24-.35-17.02-.17-34.1.53-51.24.47-8.46.93-16.91 1.41-25.35.47-8.46 1.17-16.91 2.11-25.36.47-4.69 1.88-9.27 4.22-13.73 2.58-4.7 5.99-6.93 10.22-6.69 4.22.23 7.51 2.7 9.86 7.39 1.88 3.29 3 6.57 3.34 9.86.35 3.29.41 6.69.18 10.21-.47 11.74-.94 23.36-1.41 34.86-.47 11.51-.94 23.13-1.41 34.86V1520h-1.06zM917.57 1622.13c-5.4 0-11.27.05-17.61.17-6.34.11-12.21.05-17.61-.17-4.47-.24-8.81-.71-13.03-1.42-4.22-.7-8.45-1.29-12.67-1.75a79.59 79.59 0 0 1-3.88-.88c-1.41-.35-2.7-.76-3.87-1.23-5.41-1.88-9.34-3.46-11.8-4.75-2.46-1.29-3.7-4.76-3.7-10.39 0-6.57.05-13.03.17-19.37.12-6.34.29-12.79.53-19.37.93-24.18 1.81-48.37 2.64-72.55s1.81-48.37 3-72.55c0-5.87 1.05-11.27 3.17-16.2 2.34-6.11 6.45-7.16 12.33-3.17 6.33 4.22 10.09 10.1 11.27 17.61.93 5.17 1.7 10.39 2.29 15.67.59 5.29.99 10.63 1.23 16.02.23 19.95.29 39.74.17 59.34-.12 19.61-.06 39.39.18 59.34 0 7.99.7 15.85 2.11 23.6 1.17 5.4 4.1 8.69 8.8 9.86 4.7 1.18 9.98 2.12 15.85 2.82 3.75.47 7.63 1.18 11.62 2.12 7.76 2.34 10.69 8.1 8.81 17.25zM1008.43 1622.13c-5.4 0-11.27.05-17.61.17-6.34.11-12.21.05-17.61-.17-4.47-.24-8.81-.71-13.03-1.42-4.22-.7-8.45-1.29-12.67-1.75a79.59 79.59 0 0 1-3.88-.88c-1.41-.35-2.7-.76-3.87-1.23-5.41-1.88-9.34-3.46-11.8-4.75-2.46-1.29-3.7-4.76-3.7-10.39 0-6.57.05-13.03.17-19.37s.29-12.79.53-19.37c.93-24.18 1.81-48.37 2.64-72.55s1.81-48.37 3-72.55c0-5.87 1.05-11.27 3.17-16.2 2.34-6.11 6.45-7.16 12.33-3.17 6.33 4.22 10.09 10.1 11.27 17.61.93 5.17 1.7 10.39 2.29 15.67.59 5.29.99 10.63 1.23 16.02.23 19.95.29 39.74.17 59.34-.12 19.61-.06 39.39.18 59.34 0 7.99.7 15.85 2.11 23.6 1.17 5.4 4.1 8.69 8.8 9.86 4.7 1.18 9.98 2.12 15.85 2.82 3.75.47 7.63 1.18 11.62 2.12 7.76 2.34 10.69 8.1 8.81 17.25zM678.3 1927.4c-4.47 3.28-8.16 4.52-11.09 3.7-2.94-.83-5.69-3.7-8.28-8.63-1.88-3.52-3.06-7.16-3.52-10.92-.47-3.75-.82-7.63-1.05-11.62-.24-3.28-.41-6.39-.53-9.33-.12-2.94-.3-6.05-.53-9.34-.24-1.41-.59-2.82-1.06-4.22-.47-1.41-.94-2.82-1.41-4.22-2.58-5.87-6.22-9.34-10.92-10.39s-9.16.65-13.38 5.11c-5.4 5.64-8.8 12.68-10.21 21.13-.71 4.22-1.3 8.52-1.76 12.85-.47 4.35-1.05 8.63-1.76 12.85-.47 3.06-1.17 5.93-2.11 8.63-.94 2.7-2.35 5.35-4.22 7.92-1.88 2.82-4.05 4.58-6.52 5.29-2.46.7-5.58-.59-9.33-3.88-3.52-3.04-5.52-7.39-5.99-13.03v-7.39c0-2.34.11-4.69.35-7.04 2.82-23.25 4.75-46.31 5.81-69.2 1.06-22.89 3-45.96 5.81-69.2.47-14.56 3.4-27 8.8-37.33 5.4-10.33 15.5-17.37 30.29-21.13 8.68-.23 15.55 1.41 20.6 4.93 5.05 3.52 8.8 7.87 11.27 13.03 2.46 5.17 4.04 10.69 4.75 16.55.7 5.87 1.05 10.92 1.05 15.14-.47 9.63-.7 18.02-.7 25.18s.11 14.15.35 20.95c.23 6.81.65 13.86 1.23 21.13.59 7.28 1.23 15.74 1.94 25.36.94 12.67 1.17 25.12.71 37.33-.47 12.21-.12 24.65 1.05 37.33 0 1.17.12 1.99.36 2.46zm-53.54-135.59h.35c0 6.34-.06 12.74-.17 19.19-.12 6.46-.06 12.85.17 19.19 0 5.41 2.23 8.1 6.69 8.1 3.99.47 7.51-.76 10.56-3.7 3.05-2.94 4.92-6.75 5.63-11.45.47-3.05.71-6.05.71-8.98v-8.98c.23-6.81.11-13.61-.35-20.43-.47-6.81-.59-13.61-.35-20.42.93-5.87.35-11.21-1.76-16.02-2.11-4.81-4.7-8.1-7.75-9.86s-6.05-1.52-8.98.71c-2.94 2.23-4.53 7.57-4.76 16.02v36.63zM775.13 1930.57c-5.4 0-11.27.05-17.61.17-6.34.11-12.21.05-17.61-.17-4.47-.24-8.81-.71-13.03-1.42-4.22-.7-8.45-1.29-12.67-1.75a79.59 79.59 0 0 1-3.88-.88c-1.41-.35-2.7-.76-3.87-1.23-5.41-1.88-9.34-3.46-11.8-4.75-2.46-1.29-3.7-4.76-3.7-10.39 0-6.57.05-13.03.17-19.37.12-6.34.29-12.79.53-19.37.93-24.18 1.81-48.37 2.64-72.55.82-24.18 1.81-48.37 3-72.55 0-5.87 1.05-11.27 3.17-16.2 2.34-6.11 6.45-7.16 12.33-3.17 6.33 4.22 10.09 10.1 11.27 17.61.93 5.17 1.7 10.39 2.29 15.67.59 5.29.99 10.63 1.23 16.02.23 19.96.29 39.74.17 59.34-.12 19.61-.06 39.39.18 59.34 0 7.99.7 15.85 2.11 23.6 1.17 5.4 4.1 8.69 8.8 9.86 4.7 1.18 9.98 2.12 15.85 2.82 3.75.47 7.63 1.18 11.62 2.12 7.76 2.34 10.69 8.09 8.81 17.25zM810 1828.44c.47 15.03.76 30.05.88 45.08.12 15.03.29 30.06.53 45.08 0 7.75-3.52 10.56-10.56 8.46-7.52-2.12-11.97-6.81-13.38-14.09-1.88-8.45-2.94-16.91-3.17-25.35-1.17-17.14-1.94-34.22-2.29-51.24-.35-17.02-.17-34.1.53-51.24.47-8.46.93-16.91 1.41-25.35.47-8.46 1.17-16.91 2.11-25.36.47-4.69 1.88-9.27 4.22-13.73 2.58-4.7 5.99-6.93 10.22-6.69 4.22.23 7.51 2.7 9.86 7.39 1.88 3.29 3 6.57 3.34 9.86.35 3.29.41 6.69.18 10.21-.47 11.74-.94 23.36-1.41 34.86-.47 11.51-.94 23.13-1.41 34.86v17.25H810zM832.18 1711.52c3.75-3.29 7.39-5.05 10.92-5.29 3.52-.23 7.15.71 10.92 2.82 11.73 6.11 18.07 16.44 19.01 30.99v10.91c0 6.11-.12 13.45-.35 22.01-.23 8.58-.47 17.79-.7 27.65-.24 9.86-.41 19.07-.53 27.64s-.17 15.9-.17 22.01c0 6.11.11 9.74.35 10.91.47 2.82 1.46 5.35 2.99 7.58 1.53 2.24 4.05 3.58 7.58 4.05.7-.93 1.41-4.41 2.11-10.39.71-5.99 1.42-13.21 2.12-21.66.71-8.45 1.35-17.55 1.94-27.29.59-9.74 1.11-18.9 1.59-27.47.47-8.57.82-15.9 1.05-22.01.23-6.11.47-9.74.71-10.92.47-3.52.81-7.04 1.05-10.56.23-3.52.7-7.04 1.41-10.56 1.64-10.33 7.16-17.02 16.55-20.08 4.93-1.63 8.86-1.05 11.8 1.76 2.93 2.82 4.05 7.17 3.34 13.03-.71 5.4-1.53 10.63-2.46 15.67-.94 5.05-2 10.27-3.17 15.67l-27.47 154.25c-.47 1.88-.71 3.4-.71 4.58-.7 4.7-2 8.68-3.87 11.97-1.88 3.28-5.05 5.51-9.51 6.69-3.76.71-7.75-.12-11.97-2.46-4.22-2.35-7.28-5.87-9.16-10.56-2.82-7.04-4.58-14.56-5.28-22.54-.71-10.8-1.3-21.54-1.76-32.22-.47-10.69-1.05-21.54-1.76-32.58a746.478 746.478 0 0 0-5.81-58.99c-2.7-19.37-6.05-38.79-10.03-58.28-.24-.93-.35-1.94-.35-2.99s-.14-2.16-.38-3.34zM979.03 1911.55c5.63.47 10.26.94 13.91 1.41 3.64.47 6.69 1.23 9.16 2.29 2.46 1.05 4.58 2.47 6.34 4.22 1.76 1.76 3.7 4.05 5.81 6.87 1.64 1.88.35 3.52-3.87 4.93-4.22 1.41-9.68 2.4-16.38 3-6.69.58-13.61.7-20.78.35-7.16-.35-12.62-1.23-16.38-2.64-2.82-.94-4.92-2.64-6.33-5.11a27.006 27.006 0 0 1-3-7.92c-.59-2.82-.88-5.51-.88-8.09s-.12-4.58-.35-5.99c-.47-24.18-1.05-48.19-1.75-72.02-.71-23.83-1.41-47.83-2.12-72.02-.23-5.63-.35-11.33-.35-17.08s-.12-11.57-.35-17.43c0-2.58.23-4.98.71-7.22.47-2.23 1.29-4.41 2.46-6.51 1.41-1.88 2.76-3.17 4.05-3.88 1.29-.7 3.11-.47 5.46.71 2.82 1.41 6.63 2.29 11.45 2.64s8.74.41 11.8.17c3.04 0 6.04-.05 8.98-.17s5.93-.06 8.98.17c3.52.24 6.81 1 9.86 2.29 3.05 1.3 5.51 3.46 7.39 6.51 1.88 3.06 2.35 5.76 1.41 8.1-.94 2.35-3.29 3.52-7.04 3.52-1.88.23-3.7.12-5.46-.35-1.76-.47-3.58-.82-5.46-1.05-1.17-.47-2.41-.82-3.7-1.06-1.29-.23-2.52-.35-3.7-.35-4.7-.47-7.98.24-9.86 2.12-1.88 1.88-2.94 5.17-3.17 9.86a167.083 167.083 0 0 0 .7 15.49c.47 8.93.82 17.73 1.06 26.42.23 8.69.58 17.37 1.05 26.06.23 3.29.76 5.45 1.58 6.51.82 1.05 2.76 2.06 5.81 2.99 1.41.47 2.82.71 4.22.71s2.7.12 3.88.35c3.28.23 6.45.7 9.5 1.41 1.41.47 2.64 1.11 3.7 1.94 1.06.82 1.7 2.17 1.94 4.05.93 3.76-.24 6.22-3.52 7.39-1.88.94-3.58 1.47-5.11 1.58-1.53.12-3.34.53-5.46 1.23-1.17.23-2.29.35-3.34.35-1.06 0-2.18.12-3.35.35-3.05.71-5.34 2.18-6.87 4.41-1.53 2.24-2.41 4.87-2.64 7.92-.24 10.1-.3 20.14-.18 30.11.13 9.98.19 20.13.19 30.46zM979.95 728.11c-29.74-5.76-58.73 5.28-66.39 31.2-8.37 28.31 65.62 56.47 123.08 84 57.46 27.52 125.54 21.43 194.13 10.01 187.92-31.28 32.61-122.61 32.61-122.61s-155.62 42.67-185.18 33.68c-29.55-9-98.25-36.28-98.25-36.28z"/><path class="st1" d="M981.85 723.93c-21.36-3.94-45.75-.51-61.81 15.23-6.19 6.06-12.26 15.17-12.78 24.11-.38 6.67 2.87 12.82 7.06 17.78 13.03 15.44 33.09 25.02 50.78 33.94 23.48 11.83 47.52 22.74 71.45 33.63 51.74 23.55 111.02 20.8 166 13.18 25.33-3.51 51.04-7.28 75.38-15.4 14.63-4.88 29.75-11.28 40.74-22.46 32.03-32.61-15.26-72.33-40.84-89.94-3.25-2.24-6.57-4.78-10.11-6.55-4.66-2.33-12.12 1.12-16.78 2.35-28.33 7.47-56.8 14.44-85.46 20.51-15.88 3.37-31.84 6.51-47.92 8.75-11 1.54-23.34 3.39-33.65 1.94-2.49-.35-1.98-.3-4.97-1.24-4.16-1.31-8.3-2.7-12.42-4.12-9.13-3.15-18.2-6.46-27.26-9.82-16.13-5.99-32.19-12.17-48.21-18.45-2.63-1.03-5.26-2.07-7.89-3.11-4.89-1.94-13.02 5.09-6.4 7.72 18.23 7.24 36.54 14.28 54.92 21.12 12.51 4.66 25.06 9.27 37.76 13.4 7.48 2.43 14.24 3.5 22.12 3.34 21.24-.44 42.59-4.84 63.36-8.98 23.57-4.71 46.99-10.18 70.31-15.99 13.11-3.27 26.2-6.61 39.22-10.18-1.78-.22-3.57-.45-5.35-.67 13.28 7.82 25.99 17.49 36.96 28.3 14.01 13.79 31.07 36.54 15.89 55.18-11.26 13.83-31.15 19.96-47.63 24.47-32.12 8.79-66.17 13.15-99.32 15.61-33.02 2.45-66.94 1.62-98.87-7.98-15.37-4.62-29.57-11.77-44.08-18.48-14.27-6.6-28.59-13.07-42.73-19.96-12.39-6.04-24.73-12.36-36.29-19.91-8.15-5.33-17.13-11.51-22.08-20.16-4.76-8.3-.87-17.29 4.69-24.27 7.75-9.73 19.85-14.6 32-15.68 6.86-.61 13.64-.09 20.4 1.16 5.66 1.02 11.26-6.99 3.81-8.37z"/><path class="st1" d="M930.97 777.6c7.19.71 15.29-2.7 22.12-.23 6.15 2.22 10.96 7.5 16.16 11.28 9.56 6.93 26.02 17.13 18.85 31.28-1.06 2.1 3.85 1.83 4.64 1.72 2.21-.31 5.35-1.25 6.45-3.41 7.65-15.11-9.22-26.21-19.49-33.68-5.52-4.01-10.48-9.18-16.88-11.79-8.4-3.43-16.29.37-24.81-.47-2.45-.24-6.05.34-7.9 2.12-1.46 1.4-1.65 2.93.86 3.18zM1126.7 851.86v-21.2c0-5.17-5.64-6.17-9.9-5.73-3.59.37-12.55 3.12-12.55 8.12v21.2c0 5.17 5.64 6.17 9.9 5.73 3.58-.37 12.55-3.11 12.55-8.12zM1157.68 856.23v-28.92c0-12.3-22.72-9.49-22.72 1.38v28.92c0 12.29 22.72 9.49 22.72-1.38z"/><path d="M1110.41 859.61s-69.11-5.56-129.68-23.78c-60.57-18.22-79.38 6.4-71.44 33.64 7.77 26.64 69.89 57.48 111.82 77.1 41.93 19.63 112.3 20.02 158.41 14.02 183.26-23.83 128.9-128.85 128.9-128.85s-156.82 33.14-198.01 27.87z"/><path class="st1" d="M1112.59 856.49c-24.65-2-49.28-5.8-73.55-10.45-21.28-4.08-41.85-10.08-62.81-15.4-15.53-3.95-32.79-6.36-48.49-1.83-10.13 2.92-19.6 8.91-23.7 18.99-3.61 8.87-2.56 20.18 1.91 28.56 6.55 12.29 18.7 21.32 29.91 29.08 14.94 10.34 30.9 19.15 47.06 27.42 15.27 7.81 30.83 16.23 47.11 21.73 16.99 5.74 34.75 8.8 52.56 10.59 36.89 3.71 74.62 2.34 111.19-3.75 44.79-7.46 104.76-23.62 123.12-71 6.93-17.87 6.72-41.87-2.42-59.17-.17-.32-.31-.66-.47-.98-1.14-2.21-4.35-1.66-6.32-1.24-50.76 10.72-102.59 20.67-154.46 26.12-12.77 1.34-27.05 2.99-39.39 1.48-2.52-.31-6.06.13-7.9 2.12-1.4 1.52-1.57 3.56 1.04 3.88 12.23 1.5 24.76.46 36.99-.64 16.52-1.48 32.97-3.76 49.36-6.26 31.9-4.87 63.64-10.74 95.28-17.03 6.86-1.36 13.71-2.74 20.55-4.18-2.11-.41-4.21-.83-6.32-1.24 7 13.57 9.08 30.81 6.48 45.7-7.11 40.75-48.55 60.51-84.64 70.12-33.83 9.01-69.3 12.28-104.25 11.76-34.73-.52-69.35-4.84-100.99-19.8-30.15-14.26-62.24-29.01-87.66-51.01-8.68-7.52-16.38-16.01-18.18-27.7-1.29-8.37.37-17.71 7.05-23.48 8.87-7.67 22.83-6.78 33.62-5.25 20.19 2.87 39.69 10.28 59.6 14.68 29.4 6.5 59.27 11.09 89.23 14 1.7.17 3.41.33 5.12.47 4.23.29 11.88-5.68 4.37-6.29z"/><path class="st1" d="M933.43 877.48c13.9-14.58 34.92-2.81 44.12 11.01 4.05 6.09 5.84 12.06 6.48 19.24.56 6.27 1.16 13.26-.36 19.44-1.01 4.12 10.23 2.46 11.17-1.39 1.87-7.65.99-16.78-.01-24.49-1.18-9.08-6.07-17.5-12.41-24.03-14.99-15.44-42.44-17.94-57.96-1.66-4.5 4.73 6.38 4.6 8.97 1.88zM1119.01 957.97v-40.48c0-5.26-5.59-6.52-10-6.1-3.76.36-12.5 3.2-12.5 8.33v40.48c0 5.26 5.59 6.52 10 6.1 3.76-.36 12.5-3.2 12.5-8.33zM1145.92 961.88V921.4c0-6.79-22.34-2.63-22.34 5.99v40.48c0 6.78 22.34 2.62 22.34-5.99z"/><path d="M949.66 913.47c-59.02-16.34-83.86 29.72 29.51 81.72 35.87 16.45 158.19 41.48 218.59 31.58 135.89-22.29 73.38-93.61 73.38-93.61s-142.82 44.56-190.37 31.71c-47.54-12.85-131.11-51.4-131.11-51.4z"/><path class="st1" d="M953.03 910.22c-15.18-4.13-33.75-6.26-48.02 1.97-11.26 6.49-13.22 18.21-7.39 29.3 10.59 20.12 33.43 33.69 52.61 44.26 20.77 11.45 41.85 19.55 64.72 25.54 25.86 6.76 52.2 11.79 78.66 15.56 26.63 3.79 53.63 6.37 80.55 5.41 26.19-.93 53.53-6.37 77.51-17.11 15.09-6.76 30.62-16.96 36.85-33 6.43-16.56.04-37.37-11.48-50.38-.25-.28-.47-.59-.72-.87-1.31-1.5-4.29-1.36-6-.83-35.6 11.1-72.05 20.47-108.72 27.22-22.7 4.17-47.2 8.73-70.33 5.74-11.7-1.51-23.29-6.14-34.36-10.02-14.76-5.18-29.33-10.9-43.81-16.82-19.84-8.12-39.56-16.58-59.02-25.56-2.46-1.14-5.73-.56-7.94.94-1.48 1-3.39 3.62-.87 4.78 16.72 7.71 33.64 15.02 50.64 22.1 14.69 6.12 29.47 12.02 44.4 17.51 12.94 4.76 26.22 9.91 39.73 12.81 22.26 4.77 46.72.89 68.85-2.72 26.5-4.33 52.71-10.39 78.67-17.2 14.88-3.9 29.73-7.99 44.42-12.57-2-.28-4-.56-6-.83 8.52 9.76 14.77 23.9 13.81 37.07-.94 12.77-8.76 22.93-19.08 29.97-19.36 13.21-44.83 18.86-67.71 21.7-23.09 2.86-46.75 1.29-69.8-1.07-25.77-2.64-51.39-6.89-76.7-12.4-19.35-4.21-39.06-8.79-57.52-16.08-12.79-5.05-25.16-11.65-37-18.61-10.74-6.32-21.23-13.33-30.33-21.89-7.62-7.17-20.57-20.91-15.11-32.52 1.87-3.98 5.37-5.76 8.31-6.64 5.68-1.7 12.76-1.66 19.31-.8 4.11.54 8.16 1.48 12.16 2.57 2.49.68 6.12-.19 7.9-2.12 1.62-1.8 1.24-3.74-1.19-4.41z"/><path class="st1" d="M917.71 941.55c12.51-.11 25.65 6.76 35.31 14.31 9.16 7.15 16.61 19.06 12.73 31.01-2 6.15 9.14 6.11 10.69 1.32 10.27-31.56-31.34-55.13-57.76-54.9-6.4.05-8.56 8.32-.97 8.26zM1115.1 1021.63c-.19-1.44-.11-2.39.44-4.24.1-.34.21-.67.34-1-.28.63-.22.57.16-.19.24-.41.49-.8.77-1.17-.7.74-.72.76-.05.07 1.23-1.27 2.68-3.08 2.16-5.03-.49-1.85-2.7-2.94-4.39-3.28-5.01-1.03-12.1.43-15.8 4.23-4.48 4.61-6.85 10.13-5.99 16.6.25 1.85 2.95 2.93 4.39 3.28 2.57.62 5.86.34 8.36-.4 3.86-1.12 10.28-3.86 9.61-8.87z"/><path class="st1" d="M1130.51 1031.36c7.18-6.68 11.94-15.44 13.8-25.06 2-10.3-20.75-7.2-22.54 2.05-1.33 6.89-4.59 12.57-9.72 17.33-3.75 3.49-1.81 8.48 2.66 9.91 5.49 1.75 11.75-.47 15.8-4.23z"/><path d="M178.8 1053.71c6.53-11.98-3.56-27.19-16.13-32.5s-26.77-4.33-40.25-6.45c-30.89-4.85-58.91-28.74-65.14-59.38-6.23-30.64 12.47-65.38 42.54-73.96s66.03 14.01 68.42 45.18c.95 12.46-.01 29.51 12.12 32.52 3.8.94 7.77-.1 11.54-1.14 55.67-15.29 111.34-30.58 167-45.87 0 0 28.35-17.48 34.15 12.04 5.8 29.52 13.7 73.61-23.04 76.69-17.48 1.46-35.16.25-52.08 4.91-19.81 5.45-51.66 14.69-60.31 33.33-10.74 23.15.96 39.52-12.74 61.99-12.38 20.3-44.05 17.27-67.78 15.9-22.72-1.31-48.1-6.95-60.1-26.29-14.48-23.33 11.16-53.36 24-77.63"/><path class="st1" d="M184.04 1053.99c8.85-17.87-8.6-34.05-24.7-38.29-11.44-3.01-23.38-2.4-34.96-4.44-9.26-1.63-18.09-4.98-26.17-9.75-16.07-9.49-29.02-24.72-34.16-42.82-4.97-17.5-1.57-36.55 8.24-51.77 9.53-14.78 25.3-25.28 43.35-23.7 16.73 1.46 32.91 11.85 41.3 26.38 4.2 7.27 5.56 15.07 6.01 23.34.42 7.67.45 16.31 4.78 22.99 4.78 7.37 13.92 7.77 21.73 6.01 12.71-2.87 25.26-6.88 37.83-10.33 24.95-6.85 49.91-13.71 74.86-20.56 12.48-3.43 24.95-6.85 37.43-10.28 7.85-2.16 16.66-3.5 23.87-7.29-1.53.8.65-.31 1.01-.46.78-.35 1.56-.7 2.36-1.02 1.23-.48 3.42-1.16 5.17-1.4 5.06-.69 9.32 1.46 12.1 5.75 4.01 6.22 4.56 15.05 5.77 22.21 1.21 7.17 2.2 14.42 2.49 21.69.46 11.62-.56 28.43-12.24 34.73-8.08 4.36-19.34 3.08-28.18 3.41-11.74.44-23.43 1.22-34.83 4.26-16.32 4.35-33.21 9.43-47.58 18.57-6.57 4.18-13.03 9.58-16.66 16.61-4.63 8.98-5.89 18.86-6.05 28.82-.29 17.82-2.47 39.23-22.34 45.33-16.1 4.94-35.22 2.65-51.72 1.07-18.35-1.76-39.03-7.13-49.82-23.43-11.01-16.64.2-36.95 8.94-51.88 4.77-8.14 9.91-16.07 14.37-24.39 2.65-4.95-8.57-4.13-10.49-.56-9.52 17.77-23.48 34.62-27.73 54.74-4.04 19.15 7.37 34.81 24.12 43.13 17.66 8.78 37.95 9.76 57.29 10.56 17.25.72 37.3.57 51.79-10.24 7.92-5.91 12.87-15.05 15.13-24.57 2.38-10.03 1.08-20.35 2.16-30.52 1.01-9.55 3.98-18.94 11.16-25.6 6.69-6.2 15.35-10.13 23.76-13.41 8.24-3.22 16.79-5.73 25.33-8.01 12.51-3.34 25.51-3.42 38.37-3.93 16.36-.64 34.31-2.72 42.12-19.35 6.3-13.42 4.79-29.57 2.76-43.8-1.83-12.78-2.54-32.56-17.28-37.22-10.42-3.3-19.64 1.47-28.94 5.36-.91.38.07-.31.35-.4-3.18.95-6.4 1.76-9.6 2.64-7.04 1.93-14.08 3.87-21.12 5.8l-40.31 11.07c-26.23 7.21-52.47 14.41-78.7 21.62-6.07 1.67-12.41 4.09-18.63 5.06-5.29.82-8.76-1.63-10.76-6.42-3.33-7.97-2.41-17.09-3.33-25.49-4.12-37.77-50.1-56.69-82.53-42.73-35.6 15.33-50.78 60.34-32.76 94.26 8.95 16.84 24.22 30.08 41.82 37.29 9.91 4.06 20.1 5.86 30.73 6.76 11.77 1 25.26 1.19 34.74 9.26 6.93 5.9 12.24 15.89 7.84 24.78-2.49 5.08 8.71 4.2 10.51.56z"/></svg>