<svg version="1.1" id="Ebene_1" xmlns="http://www.w3.org/2000/svg" x="0" y="0" viewBox="0 0 854 2048" style="enable-background:new 0 0 854 2048" xml:space="preserve"><style>.st1{fill:#fff}</style><path d="M182.09 2032.76c91.74 24.79 315.83 13.44 366.23 6.72 50.4-6.72 97.44-13.44 97.44-53.76s-6.72-188.16-6.72-225.12c0-36.96 30.24-218.4 23.52-255.35-6.72-36.96-40.32-161.28-23.52-221.76 16.8-60.48 13.44-131.04 73.92-255.35s126.76-291.07 137.76-406.55c13.44-141.12-20.16-278.87-80.64-258.71-60.48 20.16-131.04 154.56-131.04 154.56l-6.72-147.84s67.2-194.88 70.56-225.12C706.24 114.24 696.16 0 625.6 0S504.64 73.92 504.64 73.92s-43.68-63.84-90.72-57.12S340 77.28 340 77.28s-53.76-20.16-94.08-3.36-84 50.4-80.64 120.96l3.36 70.56S71.2 235.2 40.96 299.04c-26.87 56.73-60.48 117.6-26.88 228.48s117.6 278.87 117.6 352.79 6.72 329.27 3.36 376.31c-3.36 47.04 43.68 137.76 43.68 137.76s-36.96 73.92-40.32 154.56c-3.35 80.63-80.63 450.22 43.69 483.82z" style="fill:#ff8500"/><path d="M253.81 1508.72c-1.03 5.32-1.95 10.59-2.76 15.81-.82 5.22-1.54 10.49-2.15 15.8-2.46 19.85-3.89 39.7-4.3 59.54-.41 19.84.41 39.9 2.45 60.15.2 1.64.46 3.22.77 4.76.31 1.54.77 2.91 1.38 4.14 1.23 2.66 2.61 4.04 4.15 4.15 1.54.11 3.12-.97 4.76-3.22 7.16-10.64 10.94-22.4 11.35-35.3.2-6.95-1.38-13.55-4.76-19.79-3.37-6.24-7.01-12.32-10.89-18.26-.21-.41-.31-.77-.31-1.07 0-.31-.11-.66-.31-1.08 1.02-1.84 2.71-3.43 5.07-4.76 2.35-1.33 4.86-2.35 7.52-3.07 2.66-.71 5.37-1.12 8.13-1.23 2.76-.1 5.07.16 6.9.77 3.48.82 6.34 2.45 8.6 4.92 2.24 2.45 3.37 5.73 3.37 9.82-.2 6.96-.46 13.87-.77 20.72-.3 6.86-.87 13.76-1.69 20.72-.61 8.59-2.05 17.59-4.3 27-1.64 5.73-3.99 10.85-7.05 15.34-1.64 2.26-3.79 4.1-6.44 5.53-2.66 1.44-5.58 2.56-8.75 3.38-3.18.82-6.4 1.23-9.67 1.23-3.28 0-6.14-.31-8.6-.93-7.36-2.04-13.15-5.68-17.34-10.89-4.2-5.22-7.32-11.51-9.36-18.87-.82-2.86-1.43-5.93-1.84-9.21l-1.23-9.82c-1.44-19.65-1.44-39.08 0-58.31a539.82 539.82 0 0 1 7.36-57.39c.81-3.47 1.84-6.85 3.07-10.13 1.23-3.27 2.55-6.54 3.99-9.82 2.86-6.75 7.87-11.86 15.03-15.35 2.87-1.23 6.14-1.99 9.82-2.3 3.68-.31 7.31-.05 10.89.76 3.58.82 6.9 2.15 9.97 3.99 3.07 1.84 5.32 4.2 6.75 7.06 1.43 2.87 2.5 5.89 3.22 9.06.72 3.17 1.27 6.39 1.69 9.67.41 4.09.56 8.13.46 12.12-.11 3.99-.35 8.03-.77 12.12-.2 2.05-.77 3.99-1.69 5.83-.92 1.84-1.99 3.58-3.22 5.22-.82 1.43-1.99 2.45-3.53 3.07-1.54.61-3.17.87-4.91.77-1.74-.1-3.37-.56-4.91-1.38-1.54-.81-2.72-1.94-3.53-3.37-1.44-2.05-2.3-4.25-2.61-6.6-.3-2.35-.35-4.76-.15-7.21.2-1.84.51-3.63.92-5.37.41-1.74.51-3.53.31-5.37-.2-2.65-.41-5.37-.61-8.13-.21-2.76-.62-5.47-1.23-8.13-1-4.13-3.76-6.48-8.25-7.09zM313.35 1619.2c-.41-7.16-.72-13.81-.92-19.95-.21-6.14-.26-12.02-.16-17.65.1-5.62.35-11.2.77-16.73.41-5.52 1.02-11.25 1.84-17.19.61-4.91 1.58-9.67 2.91-14.27 1.33-4.61 3.32-9.06 5.98-13.35 2.66-4.5 5.77-8.33 9.36-11.5 3.58-3.17 7.83-5.57 12.74-7.21 12.07-3.69 21.99-.62 29.77 9.21 2.46 2.87 4.35 5.98 5.68 9.36 1.33 3.38 2.5 6.9 3.52 10.59 1.64 7.16 2.92 14.32 3.84 21.48.92 7.17 1.27 14.33 1.08 21.49-.41 14.73-.51 29.31-.31 43.73.2 14.42.1 28.9-.31 43.43-.2 4.09-.66 7.57-1.38 10.43-.72 2.87-1.8 6.24-3.22 10.13-1.64 4.5-4.55 8.13-8.75 10.89s-8.85 4.61-13.96 5.53c-5.12.92-10.34.87-15.65-.15-5.32-1.03-9.93-3.07-13.81-6.14-4.09-3.06-7.26-7.21-9.51-12.43-2.26-5.22-3.99-11.04-5.22-17.49-1.23-6.45-2.15-13.3-2.76-20.57-.61-7.26-1.13-14.47-1.53-21.64zm50.02 41.74c.2-6.14.35-12.43.46-18.87.1-6.44.15-12.84.15-19.18 0-5.52.1-11.56.31-18.11.2-6.54.41-13.2.62-19.95.2-6.75.35-13.35.46-19.79.1-6.44.15-12.43.15-17.95-.41-3.07-.82-6.34-1.23-9.82-.41-3.47-1.23-6.64-2.45-9.51-.62-2.05-2.36-3.38-5.22-3.99-2.87-.62-5.43-.72-7.67-.31-2.45.61-4.45 2.05-5.98 4.3-1.54 2.25-2.51 4.29-2.91 6.14-1.44 7.78-2.66 16.11-3.69 25.01-1.02 8.91-1.79 17.91-2.3 27.01-.52 9.11-.67 18.11-.47 27 .2 8.91.93 17.34 2.15 25.32.81 7.16 2.35 14.12 4.6 20.87s4.76 11.86 7.52 15.34c2.76 3.48 5.57 4.5 8.44 3.07 2.86-1.44 5.22-6.96 7.06-16.58zM413.39 1619.2c-.41-7.16-.72-13.81-.92-19.95-.21-6.14-.26-12.02-.16-17.65.1-5.62.35-11.2.77-16.73.41-5.52 1.02-11.25 1.84-17.19.61-4.91 1.58-9.67 2.91-14.27 1.33-4.61 3.32-9.06 5.98-13.35 2.66-4.5 5.77-8.33 9.36-11.5 3.58-3.17 7.83-5.57 12.74-7.21 12.07-3.69 21.99-.62 29.77 9.21 2.46 2.87 4.35 5.98 5.68 9.36 1.33 3.38 2.5 6.9 3.52 10.59 1.64 7.16 2.92 14.32 3.84 21.48.92 7.17 1.27 14.33 1.08 21.49-.41 14.73-.51 29.31-.31 43.73.2 14.42.1 28.9-.31 43.43-.2 4.09-.66 7.57-1.38 10.43-.72 2.87-1.8 6.24-3.22 10.13-1.64 4.5-4.55 8.13-8.75 10.89s-8.85 4.61-13.96 5.53c-5.12.92-10.34.87-15.65-.15-5.32-1.03-9.93-3.07-13.81-6.14-4.09-3.06-7.26-7.21-9.51-12.43-2.26-5.22-3.99-11.04-5.22-17.49-1.23-6.45-2.15-13.3-2.76-20.57-.61-7.26-1.12-14.47-1.53-21.64zm50.03 41.74c.2-6.14.35-12.43.46-18.87.1-6.44.15-12.84.15-19.18 0-5.52.11-11.56.31-18.11.2-6.54.41-13.2.62-19.95.2-6.75.35-13.35.46-19.79.1-6.44.15-12.43.15-17.95-.41-3.07-.82-6.34-1.23-9.82-.41-3.47-1.23-6.64-2.45-9.51-.62-2.05-2.36-3.38-5.22-3.99-2.87-.62-5.43-.72-7.67-.31-2.45.61-4.45 2.05-5.98 4.3-1.54 2.25-2.51 4.29-2.91 6.14-1.44 7.78-2.66 16.11-3.69 25.01-1.02 8.91-1.79 17.91-2.3 27.01-.52 9.11-.67 18.11-.47 27 .2 8.91.93 17.34 2.15 25.32.81 7.16 2.35 14.12 4.6 20.87 2.25 6.75 4.76 11.86 7.52 15.34 2.76 3.48 5.57 4.5 8.44 3.07 2.86-1.44 5.21-6.96 7.06-16.58zM578.19 1622.58c-.41 5.93-.82 12.17-1.23 18.72-.41 6.56-1.03 13.2-1.84 19.95-.41 3.27-1.02 6.5-1.84 9.67-.82 3.18-1.84 6.29-3.06 9.36-4.92 13.71-14.53 19.64-28.85 17.8-3.28-.41-6.5-1.02-9.67-1.84-3.17-.82-6.29-1.75-9.36-2.76-4.91-1.63-8.34-3.99-10.28-7.06-1.94-3.07-2.91-7.26-2.91-12.58.41-12.48.66-24.91.77-37.29.1-12.38.35-24.7.77-36.98.2-13.51.41-27 .61-40.51s.41-27.01.62-40.51c.2-.82.31-1.64.31-2.46v-2.76c1.02-8.6 5.32-13.2 12.89-13.81 4.71-.61 9.41-.87 14.12-.77 4.71.1 9.41.77 14.12 1.99 5.32 1.44 9.82 3.84 13.51 7.21 3.68 3.38 6.14 8.03 7.37 13.96 1.02 5.32 1.89 10.7 2.61 16.11.72 5.43 1.28 10.8 1.69 16.12 1.02 11.04 1.38 22.2 1.08 33.45-.36 11.25-.82 22.91-1.43 34.99zm-22.1-24.87c.41-8.59.66-17.03.77-25.32.1-8.29.26-16.73.46-25.32 0-3.07-.26-6.08-.76-9.06-.52-2.96-1.59-5.88-3.23-8.75-1.84-3.68-4.45-5.72-7.82-6.14-3.38-.41-6.5.92-9.36 3.99-2.46 2.05-3.99 4.61-4.61 7.67a48.625 48.625 0 0 0-.92 14.42c.81 11.46 1.48 22.92 1.99 34.37.51 11.46.46 23.02-.16 34.68-.41 8.59-.92 17.03-1.53 25.32-.62 8.29-1.13 16.63-1.54 25.02-.21 1.84-.11 3.06.3 3.68.41.61 1.43 1.02 3.07 1.23 2.45.41 4.91.1 7.37-.92 6.14-2.25 10.13-6.55 11.96-12.9 1.43-5.72 2.35-11.86 2.76-18.41.41-7.16.72-14.37.93-21.64.21-7.23.32-14.55.32-21.92zM301.53 1963.8c-4.71 0-9.82.05-15.34.15-5.53.1-10.64.05-15.34-.15-3.89-.21-7.68-.62-11.36-1.23-3.68-.61-7.36-1.12-11.04-1.53-1.03-.2-2.15-.47-3.38-.77-1.23-.31-2.36-.66-3.37-1.08-4.71-1.63-8.14-3.02-10.28-4.14-2.15-1.12-3.22-4.15-3.22-9.06 0-5.72.05-11.35.15-16.88s.26-11.15.47-16.88c.81-21.07 1.58-42.15 2.3-63.22.72-21.07 1.58-42.15 2.61-63.22 0-5.11.92-9.82 2.76-14.12 2.04-5.32 5.62-6.24 10.74-2.76 5.52 3.68 8.79 8.8 9.82 15.34.81 4.5 1.48 9.06 1.99 13.66.51 4.61.87 9.26 1.08 13.96.2 17.39.25 34.63.15 51.71-.11 17.09-.05 34.33.16 51.71 0 6.96.61 13.81 1.84 20.57 1.02 4.71 3.58 7.57 7.67 8.59 4.09 1.03 8.7 1.84 13.81 2.45 3.27.41 6.65 1.03 10.13 1.84 6.73 2.07 9.28 7.08 7.65 15.06zM346.95 1940.78c2.86.41 4.86-2.2 5.98-7.83 1.12-5.62 1.84-12.38 2.15-20.25.31-7.87.41-15.96.31-24.25-.1-8.28-.05-14.78.15-19.48.62-11.67 1.02-23.22 1.23-34.68s.51-23.02.93-34.68c.2-2.86.56-5.77 1.07-8.75.51-2.96 1.28-5.87 2.3-8.74 1.63-4.3 4.34-7.47 8.14-9.52 3.78-2.04 7.82-2.86 12.12-2.45 3.06.41 5.11 1.23 6.14 2.45 1.02 1.23 1.33 3.37.92 6.44-.61 9.21-1.33 18.32-2.15 27.31-.82 9-1.64 18.11-2.45 27.31a453.96 453.96 0 0 0-1.99 45.73c.1 15.14-.67 30.38-2.3 45.73-.41 4.09-.87 8.13-1.38 12.12a93.1 93.1 0 0 1-2.3 11.82c-1.23 4.71-3.33 8.64-6.29 11.81-2.97 3.17-6.44 5.53-10.43 7.06-3.99 1.54-8.24 2.2-12.74 1.99-4.5-.21-9-1.33-13.5-3.38-4.71-2.25-8.8-5.06-12.28-8.44-3.48-3.37-6.04-7.51-7.67-12.43-1.44-4.09-2.72-8.39-3.84-12.89-1.13-4.5-1.69-8.9-1.69-13.2 0-34.78.62-69.67 1.84-104.65.41-5.11.71-10.23.92-15.35.2-5.11 1.12-10.13 2.76-15.03.81-4.5 2.66-8.08 5.53-10.74 2.86-2.66 5.72-4.14 8.59-4.45 2.86-.31 5.32.77 7.36 3.22 2.05 2.45 2.66 6.65 1.84 12.58.62 7.98.92 15.76.92 23.33-.41 16.37-.3 32.63.31 48.79.62 16.17.72 32.33.31 48.5.2 2.05.2 5.06 0 9.05-.21 3.99-.15 7.98.15 11.97.31 3.99 1.08 7.42 2.3 10.28 1.22 2.89 3.47 4.12 6.74 3.7zM463.87 1880.93c.41 9.01.92 17.8 1.54 26.39.61 8.6.51 17.29-.31 26.09-.82 5.73-2.3 10.33-4.45 13.81-2.15 3.48-5.48 6.96-9.97 10.43a21.697 21.697 0 0 1-9.06 4.61c-3.37.82-6.81 1.07-10.28.77-3.48-.31-6.81-1.17-9.97-2.61-3.18-1.43-5.79-3.48-7.83-6.14-3.48-4.3-6.29-8.33-8.44-12.13-2.15-3.78-3.33-8.33-3.53-13.66.2-11.86.72-23.68 1.54-35.44.81-11.77 1.33-23.68 1.54-35.76.2-6.95.31-13.91.31-20.87 0-6.95.1-14.01.31-21.18 0-8.18 1.42-16.26 4.29-24.24 3.27-9.21 8.7-16.06 16.27-20.57 3.07-1.63 6.39-2.65 9.97-3.06 3.58-.41 7.05-.2 10.43.61 3.37.82 6.49 2.3 9.36 4.45 2.87 2.15 5.11 4.86 6.75 8.14 3.07 5.73 4.91 11.56 5.53 17.49.61 5.94.61 12.18 0 18.72 0 1.23-.31 2.45-.92 3.68-.62 1.23-1.59 2.46-2.92 3.69s-2.82 2.2-4.45 2.91c-1.64.72-3.22 1.18-4.76 1.38-1.53.21-2.82-.2-3.83-1.23-2.26-2.45-3.48-5.98-3.68-10.59-.21-4.61-.31-8.75-.31-12.43-.62-7.57-1.8-12.07-3.53-13.51-1.74-1.43-3.58-1.08-5.53 1.08-1.95 2.15-3.68 5.47-5.22 9.97-1.54 4.5-2.3 8.9-2.3 13.2-.2 6.55-.66 13.09-1.38 19.64-.72 6.55-.87 13.2-.46 19.95.41 11.04.81 22.1 1.23 33.14.41 11.05.81 22.1 1.23 33.15 0 1.44.05 2.41.15 2.91.11.52.2.98.31 1.38.1.41.2.87.31 1.38.1.52.15 1.49.15 2.92.2 1.43.41 2.82.62 4.14.2 1.33.61 2.72 1.23 4.14 1.63 4.3 3.78 4.4 6.44.31 1.43-2.86 2.15-5.72 2.15-8.59.2-3.07.46-5.62.77-7.68.31-2.04.56-3.98.77-5.83.2-1.84.35-3.79.46-5.83.11-2.04.26-4.6.46-7.67.41-2.86.93-6.24 1.54-10.13.62-3.88 1.74-6.96 3.38-9.21 1.23-2.04 3.17-3.02 5.83-2.91 2.63.14 5.4.39 8.26.79zM516.66 1847.79c3.48-2.66 6.19-5.47 8.13-8.44 1.94-2.97 3.43-6.19 4.46-9.67 1.23-3.68 2.3-7.36 3.22-11.04.92-3.68 1.89-7.47 2.91-11.36 1.02-3.27 2.04-6.54 3.07-9.82a65.29 65.29 0 0 1 3.99-9.82c1.84-4.09 4.7-7.57 8.59-10.43 3.48-2.86 6.9-3.58 10.28-2.15 3.37 1.43 5.16 4.5 5.37 9.21.2 2.45.05 4.96-.46 7.52-.51 2.56-1.28 4.96-2.3 7.21-4.09 11.46-8.18 22.82-12.27 34.07-4.1 11.25-8.39 22.51-12.9 33.76-5.32 13.1-5.22 26.19.31 39.28 1.84 4.09 3.73 8.24 5.68 12.43 1.94 4.2 3.94 8.45 5.98 12.74 1.63 3.68 3.07 7.47 4.3 11.36 1.23 3.89 2.04 7.87 2.45 11.97.2 2.66.15 5.32-.15 7.97-.31 2.66-1.28 5.42-2.92 8.29-5.93-4.5-10.89-9.52-14.88-15.03-3.99-5.53-7.42-11.36-10.28-17.5-2.87-6.14-5.33-12.53-7.37-19.18-2.05-6.65-4.09-13.35-6.14-20.1-.62.82-1.18 1.54-1.69 2.15-.52.62-.98 1.23-1.38 1.84-6.55 12.89-8.59 26.7-6.14 41.43.41.82.61 1.54.61 2.15.82 3.48.93 6.09.31 7.82-.61 1.74-2.15 3.22-4.6 4.45-2.87 1.23-5.74 1.64-8.6 1.23-2.87-.41-5.12-1.73-6.75-3.99-1.02-1.63-1.99-3.47-2.91-5.52-.92-2.05-1.49-4.09-1.69-6.14-.41-3.48-.56-6.85-.46-10.13.1-3.27.35-6.65.77-10.13l11.04-110.48c.41-5.73.51-11.36.31-16.88-.21-5.52-1.54-11.04-3.99-16.57-1.84-4.09-.92-7.78 2.76-11.05 3.48-3.47 7.67-4.29 12.58-2.45 3.48 1.44 6.14 3.53 7.98 6.29 1.84 2.76 3.07 5.89 3.68 9.36.41 2.26.66 4.51.77 6.75.1 2.26.05 4.5-.15 6.75-.2 7.57-.41 15.09-.62 22.55-.2 7.47-.51 14.99-.92 22.56v6.74zM429.24 387.46S388.8 213.33 380.52 171.3c-7.28-36.96 44.24-105.28 72.24-50.4C478.14 170.65 483 234.02 483 234.02"/><path class="st1" d="M434.11 386.15c-11.89-51.21-23.67-102.45-35.18-153.74-3.27-14.6-6.53-29.21-9.67-43.85-2.47-11.51-5.78-22.9-3.7-34.73 2.87-16.29 11.64-32.86 24.33-43.63 4.66-3.96 10.69-7.72 17.08-6.93 7.86.97 13.83 7.46 17.93 13.72 7.49 11.47 12.31 25.28 16.61 38.21 4.25 12.76 7.64 25.8 10.37 38.97 2.81 13.55 5.19 27.35 6.26 41.16.25 3.26 10.03 1.19 9.74-2.61-2.87-36.92-12.06-75.35-28.07-108.74-7.62-15.88-19.55-30.08-38.89-25.54-16.2 3.81-28.54 17.93-36.18 31.98-7.59 13.96-11.66 29.42-8.47 45.19 2.58 12.74 5.39 25.43 8.2 38.12 7.83 35.39 15.9 70.73 24.01 106.06 3.41 14.87 6.84 29.74 10.27 44.61 1.76 7.61 2.84 15.87 5.38 23.26.12.35.17.74.26 1.1.79 3.45 10.55.96 9.72-2.61z"/><path d="M536.76 382.98s36.96 314.15 47.04 332.63c10.08 18.48 26.88 62.16 42 20.16 15.12-42 58.8-146.16 80.64-199.92 21.84-53.76 60.48-58.8 68.88-38.64 8.4 20.16-16.8 230.16-47.04 275.51-30.24 45.36-99.12 176.4-112.56 220.08-13.44 43.68-55.44 184.8-57.12 230.16-1.68 45.36 29.68 77.28-66.64 99.68-105.83 24.61-284.47 38.08-266.55-31.36 19.3-74.79 4.48-159.04 4.48-192.64s-6.72-217.28-47.04-340.47-100.8-293.43-96.32-338.23 20.16-94.08 56-53.76 132.16 315.83 132.16 315.83-48.16-351.67-43.68-443.51c4.48-91.84 37.19-97.83 62.72-98.56 78.4-2.24 48.16 465.91 61.6 477.11 13.44 11.2 78.4-273.27 127.68-383.03s78.4-156.8 105.28-143.36 47.04 35.84-4.48 161.28-125.45 394.23-125.45 394.23"/><path class="st1" d="M531.89 384.28c3.17 26.96 6.46 53.91 9.8 80.85 6.38 51.59 12.94 103.16 20.19 154.64 2.99 21.23 6.05 42.45 9.64 63.58 1.81 10.67 2.83 22.82 7.09 32.89 4.7 11.11 10.92 23.74 18.7 32.99 8.5 10.1 20.4 10.19 27.77-1.37 3.89-6.11 5.98-13.16 8.5-19.9 2.4-6.41 4.87-12.8 7.36-19.17 6.21-15.88 12.59-31.7 19-47.5 13.75-33.86 27.74-67.63 41.62-101.44 6.62-16.12 12.25-33.22 22.54-47.45 7.25-10.02 18.25-21.4 31.43-22.3 17.23-1.18 16.64 16.64 16.44 28.66-.4 23.59-2.92 47.2-5.72 70.61-3.55 29.55-8.04 59.02-13.75 88.24-4.93 25.23-10.36 50.79-19.48 74.89-7.51 19.85-20.76 37.16-31.32 55.47-16.63 28.82-32.33 58.19-47.38 87.86-13.44 26.49-26.77 53.25-37.72 80.89-8.32 20.99-14.01 43.15-20.31 64.81-9.13 31.35-17.91 62.82-25.87 94.5-6.64 26.45-13.72 53.45-16.31 80.67-.97 10.17-.29 20.29.94 30.41 1.11 9.13 2.81 18.41 1.98 27.64-2.39 26.54-32.75 35.64-54.46 41.51-32.57 8.82-66.35 14.16-99.84 18.01-32.62 3.75-65.8 6.01-98.62 3.76-21.46-1.47-48.66-3.72-65.72-18.52-6.02-5.22-9.56-12.47-9.27-20.5.26-7.06 2.77-13.96 4.18-20.83 2.35-11.38 3.99-22.9 5.09-34.47 3.85-40.49.77-80.94-2.31-121.36-1.47-19.3-1.35-38.64-2.17-57.98-2.89-68.22-9.4-136.57-21.27-203.83-6.66-37.73-15.46-74.88-27.43-111.28-12.61-38.37-25.54-76.64-38.15-115.01-12.29-37.39-24.41-74.85-35.31-112.68-7.88-27.34-15.98-55.23-19.55-83.53-1.41-11.2-.65-21.62 1.1-32.8 2.34-15.01 5.44-35.55 16.97-46.7 10.21-9.87 23.77 4.46 30 12.48 4.44 5.72 8.08 12.07 11.57 18.4 24.04 43.63 41.91 91.05 60 137.36 17.42 44.57 34.05 89.45 50.16 134.51 2.62 7.34 5.24 14.68 7.82 22.04 1.63 4.65 10.39 2.16 9.74-2.61-2.39-17.45-4.67-34.92-6.94-52.39-5.29-40.83-10.36-81.7-15.15-122.6-5.58-47.72-10.83-95.5-15.16-143.35-3.37-37.25-6.83-74.78-6.65-112.22.11-24.34 1.99-50.16 10.86-73.03 5.52-14.24 14.69-27.28 30.07-31.44 5.39-1.46 11.16-2.04 16.74-2.03 1.95 0 5.26.77 7.66 2.27 7.16 4.49 11.79 12.72 15.24 20.41 12.27 27.43 16.21 58.95 19.7 88.51 4.78 40.48 6.81 81.28 8.11 122.01 1.3 40.62 1.67 81.27 1.88 121.91.15 30.25-.1 60.55 1.01 90.79.21 5.81-1.22 40.84 13.7 29.68 6.27-4.68 9.05-15.56 11.6-22.46 5.79-15.68 10.66-31.71 15.5-47.71 14.05-46.47 27.05-93.25 40.79-139.82 14.09-47.77 28.4-95.63 45.98-142.25 9.71-25.75 21.27-50.72 33.12-75.54 12.11-25.36 24.53-51.26 40.87-74.24 6.61-9.3 17.67-24.91 29.68-25.05 7.53-.09 17.31 6.92 22.48 12.66 8.15 9.07 10.3 21.43 10.13 33.26-.35 24.3-7.91 48.51-15.72 71.29-9.22 26.86-20.66 52.88-30.51 79.51-9.05 24.47-17.54 49.16-25.76 73.92-17.27 52.03-33.38 104.44-48.98 157a7490.295 7490.295 0 0 0-31.73 109.91c-1.57 5.59-3.13 11.19-4.67 16.79-1.32 4.79 8.67 3.77 9.89-.66.45-1.64.42-1.52 1.13-4.09 1.23-4.44 2.47-8.87 3.72-13.3 4.45-15.86 8.96-31.7 13.52-47.53 14.07-48.87 28.58-97.62 43.75-146.17 16.11-51.57 32.76-103.06 51.84-153.62 10.63-28.17 22.8-55.74 31.73-84.53 6.45-20.77 12.69-43.11 11.56-65.09-.62-11.93-3.82-23.71-12.33-32.46-6.59-6.78-16.71-13.56-26.33-14.27-14.15-1.05-25.81 9.73-34.27 19.77-15.9 18.88-27.48 41.63-38.54 63.54-24.35 48.25-44.95 97.45-61.81 148.76-16.44 50.05-31.02 100.69-45.62 151.3-11.65 40.35-22.58 81.09-36.42 120.77-2 5.74-4.07 11.48-6.51 17.06-.83 1.9-1.7 3.79-2.69 5.62-.84 1.56-1.33 1.25-1.92 2.9-.17.48.06-.2.61-.36 1.6-.48 3.02-.42 4.44.12.36.14.31.7.09-.19-.58-2.35-1.02-4.66-1.3-7.07-2.71-23.38-1.83-48.03-1.97-71.74-.23-38.76-.29-77.53-1-116.28-.77-42.26-2.17-84.54-5.46-126.69-2.74-35.08-6.19-70.79-15.41-104.86-4.67-17.22-12.21-44.05-31.72-50.1-10.16-3.15-23.72-.46-33.34 3.28-15.74 6.11-25.93 19.92-31.88 35.27-14.91 38.45-12.15 82.64-9.71 123.1 2.72 45.08 7.17 90.06 11.94 134.96 5 47.07 10.54 94.08 16.38 141.05 3.92 31.59 7.98 63.16 12.2 94.71.61 4.55 1.22 9.09 1.84 13.64l9.74-2.61c-9.99-28.56-20.36-56.99-30.9-85.35-19.47-52.44-39.45-104.78-61.91-156.02-8.68-19.81-17.58-39.71-28.38-58.47-9.2-16.01-27.14-41.18-48.42-31.25-13.04 6.08-18.58 22.37-22.09 35.16-3.84 13.99-7.02 29.32-6.44 43.92 1.01 25.92 8.57 51.92 15.35 76.78 21.08 77.31 47.82 153.05 73 229.08 12.22 36.91 22.73 73.87 30.1 112.08 7.5 38.87 12.83 78.16 16.84 117.54 3.25 31.87 5.64 63.83 7.1 95.83.9 19.59.66 39.24 2.07 58.8 2.89 40.05 6.34 80.02 3.1 120.18-.96 11.92-2.48 23.81-4.71 35.56-1.5 7.92-4.38 15.85-4.97 23.9-.62 8.39 1.96 16.58 7.58 22.88 14.48 16.26 40.12 20.46 60.57 22.83 32.05 3.72 64.75 2.32 96.8-.63 33.7-3.1 67.3-8.27 100.36-15.53 17.71-3.89 35.74-8.28 52.09-16.35 10.25-5.06 20.21-11.96 25.79-22.22 9.14-16.79 2.5-37.25 1.27-55.08-1.68-24.24 4.78-49.04 10.16-72.48 7.55-32.9 16.42-65.51 25.65-97.98 6.98-24.54 13.73-49.27 21.79-73.48 8.66-26 21.25-50.91 33.36-75.43 15.24-30.86 31.29-61.33 48.14-91.34 7.06-12.57 14.26-25.07 21.83-37.34 4.95-8.03 10.45-15.64 14.31-24.29 9.91-22.19 15.33-46.64 20.37-70.31 11.59-54.43 20.09-110.66 22.27-166.32.5-12.74 3.22-31.14-9.42-39.15-8.72-5.53-19.94-4.09-29-.25-13.94 5.91-24.51 18.07-32.22 30.72-8.99 14.75-14.6 31.66-21.14 47.59-7.02 17.08-14.06 34.16-21.08 51.24-13.52 32.9-27.08 65.8-39.91 98.99-2.34 6.06-4.66 12.14-6.89 18.24-1.32 3.63-5.11 17.48-10.37 16.67-5.09-.79-9.82-10.6-12.06-14.48-3.68-6.36-6.8-13.02-10.21-19.52-1.12-2.13-1.13-1.89-2-4.77-.65-2.13-1.14-4.31-1.63-6.48-1.54-6.85-2.77-13.78-3.97-20.7-8.2-47.46-14.24-95.33-20.44-143.08-5.89-45.41-11.52-90.85-16.98-136.3-.9-7.48-1.8-14.97-2.68-22.45-.56-4.67-10.32-2.26-9.75 2.6z"/><path class="st1" d="M96.46 390.86c9.14.14 12.97 14.02 15.11 20.95 3.06 9.92 4.65 20.24 5.79 30.54 1 9.08 3.06 19.35 1.09 28.4-2.38 10.93-12.57 10.37-21.58 9.48-4.29-.43-10.14 5.68-3.57 6.33 10.2 1.02 22.33 1.11 29.97-6.94 8.16-8.6 5.53-22.15 4.54-32.77-1.26-13.56-2.97-27.21-7.32-40.18-3.27-9.75-8.46-21.96-20.46-22.15-2.11-.03-5.42.62-6.38 2.83-.89 2.04.77 3.48 2.81 3.51zM274.83 170.05c-8.5 13.46-13.95 28.52-15.93 44.32-1.63 13.04-2.75 32.33 10.18 40.33 9.52 5.89 24.67 2.49 29.73-7.8 2.71-5.51 2.93-12.04 3.18-18.05.36-8.72.66-17.47.15-26.2-.71-12.03-2.46-36.14-19.62-34.59-1.49.13-5.84.7-6.52 2.31-.69 1.63.57 1.69 2.28 1.54 6.81-.62 10.29 9.93 11.52 14.95 2.07 8.45 2.74 17.19 2.85 25.87.11 8.17 0 16.49-.73 24.63-.4 4.46-1.96 16.16-8.15 16.14-7.53-.02-12.72-8.92-14.42-15.08-2.06-7.43-1.79-15.59-1.09-23.2 1.52-16.71 7.23-32.75 16.16-46.91.94-1.48-3.5-.96-3.88-.89-1.77.3-4.66.96-5.71 2.63zM419.75 126.66c-15.92 4.97-16.74 22.22-15.34 36.36.8 8.07 1.77 16.87 4.42 24.59 2.09 6.1 6.16 11.1 12.84 12.04 6.65.94 13.88-1.78 18.65-6.43 5.46-5.32 6.94-13.07 6.98-20.41.09-16.83-5.8-33.12-15.74-46.59-1.91-2.59-11.33.69-9.05 3.78 7.22 9.78 12.09 21.09 14.06 33.1 1.02 6.22 1.54 12.8.32 19.04-.94 4.79-4.4 13.63-10.74 11.99-9.78-2.53-10.39-21.35-11.44-29.06-.91-6.66-1.5-13.53-.59-20.22.56-4.12 2.24-11.98 6.91-13.44 1.37-.43 4.78-1.65 4.23-3.68-.53-1.94-4.24-1.47-5.51-1.07zM519.43 178.32c18.72 4.93 30.27-11.08 38.62-25.05 4.83-8.08 9.44-16.56 11.61-25.78.96-4.06 1.41-8.29 1.19-12.46-.1-1.9-.06-5.44-1.22-7.07-.94-1.31-4.02-2.04-5.42-2.66-2.53-1.12-11.45 2.73-7.85 4.32 3.72 1.64 4.37 3.09 4.69 7.16.28 3.5-.01 7-.7 10.44-1.27 6.37-3.81 12.42-6.76 18.18-3.06 5.98-6.59 11.79-10.32 17.37-3.44 5.15-8.8 13.11-15.99 11.22-2.19-.58-4.93-.17-6.86 1.05-.87.56-3.33 2.67-.99 3.28zM774.43 522.59c-25.79 6.32-34.28 32.75-37.96 56.02-3.51 22.22-7.05 54.25 19.51 63.89 4.1 1.49 11.41-4.41 5.64-6.5-22.63-8.21-18.41-37.98-15.56-56.4 2.94-18.97 8.24-45.06 30.14-50.42 6.04-1.48 4.26-8.06-1.77-6.59zM697.05 733.18c5.96 12.4 18.11 20.08 31.78 20.9 4.6.28 10.08-.73 13.77-3.69 2.78-2.23 2.71-5.21-1.46-5.47-10.7-.64-20-7.37-24.62-16.96-2.71-5.64-21.59.8-19.47 5.22zM719.02 711.17c5 7.15 11.14 13.21 18.49 17.94 3.23 2.08 9.31.04 12.53-1.13 1.04-.38 8.68-3.65 5.82-5.49-6.82-4.39-12.72-9.9-17.37-16.54-3.3-4.71-20.98 3.07-19.47 5.22zM471.69 286.29c9.9-1.35 19.12 1.66 27.24 7.29 5.47 3.8 23.37-4.19 15.42-9.7-11.68-8.11-26.18-10.8-40.15-8.91-3.6.49-10.32 2.44-11.01 6.8-.7 4.4 5.63 4.91 8.5 4.52zM471.11 308.13c5.08-1.01 10.38 1.35 14.52 4.04 6.04 3.93 23.74-4.65 15.3-10.15-9.91-6.45-21.45-7.33-32.81-5.07-3.36.67-9.26 3.99-8.24 8.2 1.08 4.49 8.16 3.59 11.23 2.98zM278.96 361.89h26.88c4.35 0 10.26-3.39 10.66-8.12.44-5.16-5.04-6.83-9.12-6.83H280.5c-4.35 0-10.26 3.39-10.66 8.12-.44 5.17 5.04 6.83 9.12 6.83zM277.9 391.22h13.44c4.58 0 10.42-1.24 12.74-5.75 2.05-3.99-1.79-7.38-5.72-7.38h-13.44c-4.58 0-10.42 1.24-12.74 5.75-2.05 3.99 1.78 7.38 5.72 7.38zM131.11 560.42c5.54-5.1 11.08-10.21 16.62-15.31.93-.85 2.47-2.2 2.06-3.71-.39-1.46-2.42-1.99-3.64-2.19-4.19-.66-10.56.73-13.77 3.69-5.54 5.1-11.08 10.21-16.62 15.31-.93.85-2.47 2.2-2.06 3.71.39 1.46 2.42 1.99 3.64 2.19 4.19.66 10.56-.73 13.77-3.69zM135.97 587.77c10.53-5.44 20.01-12.22 27.97-21.04 2.8-3.1-2.52-3.13-4.53-2.95-3.82.33-10.27 1.52-13.05 4.59-6.18 6.84-13.31 12.87-21.53 17.13-1.89.98-6.36 3.4-2.45 4.82 3.59 1.31 10.42-.91 13.59-2.55zM430.77 306.67c-.27 1.04 0 .05.19-.44.17-.43.36-.85.57-1.27.33-.65.74-1.28.09-.32.33-.48.69-.94 1.07-1.38.14-.16 1.16-1.33.36-.47-.87.93.54-.39.74-.57 1.09-.96.02.27-.4.15.14.04 1.7-.85 1.88-.92 3.43-1.51 7.62-6.43 4.57-10.14-3.2-3.9-9.12-3.33-13.24-1.52-7.87 3.46-13.42 10.07-15.56 18.32-.47 1.82 1.02 3.98 2.38 4.95 1.77 1.27 4.54 1.77 6.65 1.55 4.86-.5 9.42-3 10.7-7.94z"/></svg>