<svg version="1.1" id="Ebene_1" xmlns="http://www.w3.org/2000/svg" x="0" y="0" viewBox="0 0 1769 2048" style="enable-background:new 0 0 1769 2048" xml:space="preserve"><style>.st0{fill:#fff}</style><path class="st0" d="M938.49 294.37 764.75 142.26l-15.14 291.79"/><path d="M749.66 486.56c-.92 0-1.84-.02-2.77-.07-28.96-1.5-51.22-26.2-49.71-55.16l15.14-291.79a52.5 52.5 0 0 1 31.99-45.64c18.52-7.84 39.9-4.39 55.03 8.86l173.73 152.1c21.82 19.1 24.02 52.27 4.92 74.09-19.11 21.81-52.28 24.01-74.09 4.92l-92.32-80.82-9.53 183.72c-1.45 28.04-24.64 49.79-52.39 49.79z"/><path class="st0" d="M1224.93 794.4c-34.03-194.28-162.49-358.44-355.51-367.49-137.78-6.46-260.07 63.53-329.76 171.99L74.19 1281.84c-24.76 57.16-29.56 123.84-7.79 188.7 39.94 118.98 160.55 191.9 281.87 170.37 45.35-8.05 85.26-27.68 117.87-55.09l331.51-271.73c1.2-.93 187.6 14.09 331.07-121.18s118.63-270.53 96.21-398.51z"/><path d="M306.17 1697.68c-128.23 0-247.61-83.75-290.08-210.25-25-74.47-21.66-154.97 9.4-226.68l2-4.63 467.92-686.53c83.64-129.69 224.34-202.74 376.5-195.69 105.48 4.95 200.28 50.44 274.13 131.57 66.55 73.11 111.91 169.85 131.16 279.77l.44 2.57c22.62 129.08 50.78 289.73-112.53 443.71-123.61 116.55-274.84 134.56-348.52 135.64l-316.83 259.69c-40.32 33.9-89.68 56.97-142.24 66.3a292.248 292.248 0 0 1-51.35 4.53zm-185.13-390.36c-18.9 46.5-20.47 98.27-4.33 146.33 31.51 93.86 127.1 151.92 222.29 135.01 34.73-6.16 66.02-20.78 92.99-43.46L765 1272.26c14.93-11.65 29.94-11.33 37.12-11.24 52.16 1.08 184.9-7.44 290.19-106.72 121.7-114.75 102.75-222.92 80.8-348.17l-.46-2.58c-40.32-230.19-189.89-318.21-305.72-323.64-114.19-5.34-219.78 49.85-282.64 147.67l-.79 1.2-462.46 678.54z"/><circle cx="775.94" cy="824.35" r="114.84"/><circle class="st0" cx="809.96" cy="796.71" r="31.19"/><circle cx="401.65" cy="824.35" r="114.84"/><circle class="st0" cx="435.67" cy="796.71" r="31.19"/><circle cx="222.02" cy="1340.06" r="31.28"/><circle cx="358.67" cy="1340.06" r="31.28"/><path class="st0" d="M1221.65 775.84c-31.04 183.14-124.17 245.23-124.17 245.23s21.73-313.52-127.27-415.95C787.04 479.18 615.88 596 609.67 574.27c0 0 25.3-264.06 326.4-276.47 170.61-7.04 332.13 14.85 537.01 235.91 235.91 254.54 266.96 599.1 6.21 1036.78-81.15 136.21-301.1 372.5-301.1 372.5s235.91-415.95 186.25-580.47L1054.03 1645s173.83-189.35 183.14-502.87c6.06-203.96-15.52-366.29-15.52-366.29z"/><path d="M1178.18 1995.5c-10.83 0-21.71-3.34-31.03-10.17-21.47-15.75-27.76-45.07-14.63-68.24 65.66-115.86 153.75-305.21 179.32-435.72l-222.47 202.45c-20.77 18.91-52.74 18.12-72.55-1.79-19.81-19.9-20.46-51.87-1.47-72.56 1.51-1.66 160.77-180.33 169.34-468.92 1.42-47.7 1.29-93.15.26-134.67-28.33 37.74-53.02 55.31-58.34 58.85a52.497 52.497 0 0 1-55.49 1.72 52.519 52.519 0 0 1-26.02-49.04c5.33-78.94-3.07-299.23-104.64-369.06-113.83-78.26-221.13-45.99-278.77-28.66-28.99 8.72-51.89 15.6-75.57 2.66-13.24-7.23-22.8-19.19-26.94-33.68-1.8-6.31-2.41-12.9-1.78-19.43.31-3.22 8.14-79.73 58.55-157.21C662.8 340.05 756 252.68 933.91 245.34c79.84-3.27 175.05-1.63 276 35.62 102.79 37.94 201.48 108.94 301.69 217.06 130.04 140.31 198.45 303.15 203.33 483.99 5.06 187.62-59.04 394.66-190.52 615.36-83.05 139.42-298.64 371.58-307.78 381.4-10.28 11.04-24.31 16.73-38.45 16.73zm186.27-685.49c4.66 0 9.37.62 13.98 1.9a52.512 52.512 0 0 1 36.28 35.44c21.06 69.76 1.24 171.55-32.52 272.86 20.35-27.49 38.32-53.62 52-76.58 234.53-393.67 234.66-721.45.39-974.22-197.54-213.14-347.54-225.29-496.34-219.14-106.91 4.41-185.73 44.47-234.27 119.07-7.84 12.05-14.26 24.06-19.51 35.46 76.11-17.19 193.99-26.5 315.5 57.05 74.35 51.12 122.04 146.04 141.73 282.14.92 6.32 1.74 12.58 2.5 18.76 10.19-26.39 19.31-58.03 25.69-95.68 4.29-25.29 26.2-43.73 51.75-43.73.32 0 .64 0 .95.01 25.97.46 47.69 19.84 51.11 45.58.9 6.8 22.07 168.91 15.96 374.77-2.89 97.27-20.6 183.21-44.31 256.21l83.75-76.21a52.53 52.53 0 0 1 35.36-13.69z"/><path class="st0" d="M1221.65 775.84c-31.04 183.14-124.17 245.23-124.17 245.23s21.73-313.52-127.27-415.95C787.04 479.18 615.88 596 609.67 574.27c0 0 25.3-264.06 326.4-276.47 170.61-7.04 332.13 14.85 537.01 235.91 235.91 254.54 266.96 599.1 6.21 1036.78-81.15 136.21-301.1 372.5-301.1 372.5s235.91-415.95 186.25-580.47L1054.03 1645s173.83-189.35 183.14-502.87c6.06-203.96-15.52-366.29-15.52-366.29z"/><path d="M984.51 296.73c153.26 0 303.16 36.94 488.57 236.99 235.91 254.54 266.96 599.1 6.21 1036.78-81.15 136.21-301.1 372.5-301.1 372.5s235.91-415.95 186.25-580.47L1054.03 1645s173.83-189.35 183.14-502.87c6.06-203.96-15.52-366.29-15.52-366.29-31.04 183.14-124.17 245.23-124.17 245.23s21.73-313.52-127.27-415.95c-66.43-45.67-131.29-59.41-187.27-59.42-84.57 0-148.87 31.36-167.76 31.36-3.08 0-4.96-.84-5.51-2.78 0 0 25.3-264.06 326.4-276.47 16.22-.68 32.35-1.08 48.44-1.08m0-105.02c-16.5 0-33.76.38-52.77 1.16-200.29 8.26-306.21 108.18-359.81 190.54-56.39 86.67-65.9 171.45-66.8 180.84-1.25 13.06-.04 26.24 3.56 38.86 13.49 47.22 56.28 78.95 106.49 78.95 21.51 0 40.11-5.59 61.64-12.07 27.07-8.14 64.15-19.29 106.12-19.29 45.92 0 87.72 13.39 127.78 40.94 34.61 23.8 61.79 86.31 74.57 171.51 11.91 79.4 7.46 150.13 7.42 150.83-2.77 39.94 17.42 77.89 52.04 97.99 16.3 9.46 34.46 14.15 52.6 14.15 11.97 0 23.93-2.04 35.34-6.11-.13 6.28-.3 12.62-.48 18.99-7.93 266.96-154.06 433.36-155.54 434.97-37.98 41.37-36.69 105.31 2.94 145.11 20.47 20.56 47.43 30.92 74.43 30.92 25.27 0 50.58-9.07 70.66-27.35l77.39-70.42c-2.6 6.36-5.31 12.88-8.12 19.53-49.77 117.79-106.57 218.43-107.14 219.44-26.24 46.33-13.66 104.99 29.29 136.47 18.62 13.65 40.4 20.32 62.05 20.32 28.28 0 56.34-11.38 76.89-33.46 9.29-9.98 228.57-246.13 314.45-390.3 341.98-574.04 178.21-948.7-19.41-1161.91-96.68-104.31-192.18-175.83-291.96-218.64-108.59-46.58-208.17-51.97-273.63-51.97z"/><path id="path1945" style="fill:#ff8000" d="M690.37-316.793c-134.283 31.12-169.456 50.694-254.887 189.548 66.134-18.843 148.567-11.61 270.64 72.322 149 102.43 123.417 192.47 123.417 192.47s50.746 119.007 81.786-64.133c0 0 168 158.477 161.94 362.437-9.31 313.52-29.017 136.824-29.017 136.824l86.93 125.95c49.66 164.52-120.747 403.227-120.747 403.227s73.531-8.957 154.681-145.166c260.75-437.68 229.7-782.24-6.21-1036.78-177.324-191.326-322.167-233.39-468.534-236.699Z" transform="translate(314.177 613.805)"/><path id="path1947" style="fill:#aaf" d="M683.479-316.926c-20.46-.296-40.954.07-61.586.922-301.1 12.41-326.399 276.469-326.399 276.469 6.21 21.73 177.37-95.09 360.54 30.85 149 102.43 127.269 415.95 127.269 415.95s93.13-62.09 124.17-245.23c0 0 21.581 162.331 15.521 366.291-9.31 313.52-183.14 502.87-183.14 502.87l310.41-282.481c49.66 164.52-186.25 580.47-186.25 580.47s151.345-163.015 249.244-296.39c86.568-167.582 141.885-363.907 141.885-547.93 0-367.612-241.267-728.768-571.664-801.79z" transform="translate(314.177 613.805)"/><path id="ellipse1949" style="fill:indigo" d="M858.339 389.062c-5.43.195-10.86.384-16.281.769-4.534.272-9.059.69-13.58 1.11-5.1.53-10.193 1.104-15.27 1.817-4.46.59-8.904 1.31-13.342 2.046-5.065.882-10.12 1.818-15.15 2.884-4.413.901-8.802 1.924-13.183 2.967-5.047 1.244-10.08 2.54-15.08 3.962-4.359 1.21-8.686 2.532-13.005 3.875-5.043 1.613-10.069 3.277-15.054 5.063-4.265 1.503-8.494 3.113-12.713 4.738-4.99 1.97-9.958 3.992-14.878 6.13-4.23 1.812-8.417 3.724-12.593 5.657-4.92 2.32-9.814 4.692-14.655 7.173-4.154 2.107-8.262 4.306-12.355 6.53l-8 4.457c-16.62 27.489-29.299 57.333-37.791 88.304-3.197 11.787-5.884 23.736-7.524 35.846-.074.993-.468 2.036.05 2.97.847 2.288 3.319 3.439 5.62 3.603 4.002.335 7.972-.594 11.854-1.458 9.8-2.392 19.4-5.515 29.076-8.353 9.717-2.9 19.57-5.692 29.338-8.172 10.242-2.593 20.493-4.881 30.89-6.801 12.021-2.21 24.259-3.942 36.481-5.033a363.119 363.119 0 0 1 18.666-1.2c18.502-.704 37.217.086 55.641 2.5 12.195 1.615 24.457 3.94 36.45 6.999a320.42 320.42 0 0 1 7.65 2.044c2.53.71 4.903 1.422 7.427 2.187 1.997.635 3.913 1.218 5.851 1.872 19.292 6.34 37.844 14.534 55.652 24.338a359.601 359.601 0 0 1 22.01 13.182c4.072 2.653 8.158 5.375 12.049 8.178 9.861 7.127 19.057 15.312 27.435 24.213 13.69 14.524 25.348 31.066 35.185 48.479 4.29 7.583 8.263 15.399 11.948 23.337a390.216 390.216 0 0 1 7.398 17.057c5.054 12.512 9.486 25.27 13.4 38.184a544.951 544.951 0 0 1 3.48 12.035c4.41 15.96 8.129 32.316 11.205 48.594 5 26.485 8.43 53.135 10.696 79.975a904.613 904.613 0 0 1 1.72 24.544c1.41 24.988 1.88 50.108 1.258 75.2-.167 6.474-.411 13.027-.792 19.474l-.305 4.71c3.676-2.45 7.249-5.054 10.615-7.918 11.71-9.855 22.165-21.127 31.78-33.014 19.808-24.629 35.794-52.178 48.678-80.994 16.22-36.354 27.483-74.797 34.966-113.856 3.328 29.295 5.915 58.67 8.047 88.084 2.419 33.331 4.178 66.74 5.341 100.167 1.885 54.597 2.145 109.306.543 163.934a838.207 838.207 0 0 1-1.182 26.595 886.053 886.053 0 0 1-1.775 24.214 869.197 869.197 0 0 1-7.58 61.185 868.896 868.896 0 0 1-6.813 37.197 858.542 858.542 0 0 1-59.274 181.96 843.121 843.121 0 0 1-30.737 60.95c-8.069 14.474-16.538 28.679-25.511 42.65-11.179 17.388-23.118 34.482-35.922 50.794-4.474 5.67-9.034 11.28-13.85 16.666l-1.672 4.512c1.52-.599 3.092-1.11 4.578-1.763l307.955-280.247c1.69 6.125 2.928 12.369 3.846 18.654.098.74.258 1.893.36 2.635.384 3.056.722 6.176.955 9.167.34 4.098.541 8.15.662 12.298.042 1.958.083 4.116.086 6.152.01 3.934-.064 7.806-.215 11.7a329.92 329.92 0 0 1-.677 11.871c-1.066 14.206-2.98 28.383-5.446 42.452-5.354 30.42-13.186 60.378-22.242 89.951-7.969 25.974-16.994 51.8-26.623 77.22-17.111 45.15-36.255 89.547-56.59 133.362-.63 1.166-.53 2.551-.81 3.823l-.32 2.14c1.426-1.125 2.96-2.143 4.32-3.336 4.062-5.453 8.109-10.917 12.034-16.47 3.293-4.61 6.508-9.278 9.695-13.962a813.147 813.147 0 0 0 10.945-16.622 793.622 793.622 0 0 0 9.055-14.494c3.972-6.5 7.83-13.068 11.63-19.67 3.412-6.004 6.783-12.031 10.054-18.114a849.323 849.323 0 0 0 8.162-15.51c3.196-6.229 6.311-12.499 9.365-18.799a900.09 900.09 0 0 0 9.97-21.37c2.548-5.62 5.009-11.28 7.44-16.951a997.883 997.883 0 0 0 8.28-20.044 995.102 995.102 0 0 0 8.801-22.904 935.04 935.04 0 0 0 6.298-17.547c2.466-7.063 4.827-14.161 7.147-21.274a1105.335 1105.335 0 0 0 7.328-23.72 1015.45 1015.45 0 0 0 6.742-23.867c1.756-6.453 3.414-12.933 5.042-19.42a1109.933 1109.933 0 0 0 5.828-24.633c1.666-7.521 3.283-15.053 4.799-22.606 1.67-8.304 3.25-16.627 4.717-24.97 1.193-6.67 2.297-13.357 3.36-20.049 1.358-8.603 2.61-17.222 3.775-25.853 1.03-7.765 1.987-15.538 2.868-23.32.964-8.664 1.846-17.338 2.614-26.022.595-6.678 1.13-13.362 1.6-20.05.623-8.731 1.133-17.47 1.558-26.214.379-7.957.662-15.917.891-23.88.224-8.764.36-17.532.394-26.3.097-30.565-1.096-61.131-3.484-91.601-6.227-78.901-20.672-157.216-43.963-232.879-20.837-67.6-48.769-133.145-84.657-194.157-32.653-55.457-71.964-107.22-118.43-151.854-41.827-40.183-89.6-74.517-142.23-99.11-39.733-18.603-82.2-31.529-125.71-37.39-18.679-2.519-37.535-3.79-56.386-3.675l-7.904.11z"/><path d="m665.98 473.55-410.3-368.54L584.05 549.9s33.52 47.95 78.21 3.26c44.69-44.69 3.72-79.61 3.72-79.61z" style="fill:#f0047f"/><path d="m255.67 105.01 410.31 368.54s40.97 34.92-3.72 79.61c-14.21 14.21-27.28 19.05-38.52 19.05-24.1 0-39.7-22.31-39.7-22.31L255.67 105.01M255.68 0c-25.3 0-50.59 9.1-70.61 27.28-39.88 36.22-45.88 96.75-13.88 140.1l327.84 444.17c23.01 32.03 67.49 65.68 124.72 65.68 28.72 0 71.6-8.64 112.77-49.81 44.83-44.83 52.76-91.5 51.52-122.75-2.38-59.87-38.65-97.52-52.27-109.6L325.85 26.89C305.89 8.96 280.78 0 255.68 0z"/><path class="st0" d="m1175.06 421.18 173.73-152.11 15.14 291.79"/><path d="M1363.88 613.37c-27.75 0-50.93-21.75-52.39-49.79l-9.53-183.72-92.31 80.82c-21.82 19.1-55 16.9-74.09-4.92-19.11-21.82-16.9-54.99 4.92-74.09l173.73-152.1c15.14-13.25 36.51-16.69 55.03-8.86 18.53 7.83 30.95 25.56 32 45.64l15.14 291.79c1.5 28.96-20.76 53.66-49.72 55.16-.94.05-1.87.07-2.78.07zM300.72 1533.01c-61.78 0-112.05-46.57-112.05-103.81h63.01c0 22.5 22 40.8 49.04 40.8s49.04-18.3 49.04-40.8h63.01c0 57.24-50.27 103.81-112.05 103.81z"/></svg>