<svg xmlns="http://www.w3.org/2000/svg" width="41" height="44" fill="none">
  <g filter="url(#a)">
    <path
      d="M13 4.2a4.7 4.7 0 0 0-4.8 4.7v22.2c0 2.6 2.1 4.7 4.7 4.7h15.7c2.5 0 4.6-2 4.6-4.7V14c0-1.2-.5-2.4-1.3-3.3l-5.2-5.2c-1-1-2.1-1.4-3.3-1.4H12.9Z"
      fill="#49021F" />
    <path
      d="M17.2 17v11l-.1.2h-2l-.2-.2V17c0-.2 0-.2.2-.2h2.1v.1Zm6 11.3a5 5 0 0 1-2.2-.5c-.7-.3-1.2-.8-1.6-1.4-.4-.7-.6-1.5-.6-2.4 0-.9.2-1.7.6-2.4.4-.6 1-1.2 1.6-1.6.8-.4 1.6-.7 2.7-.7h.5V16l.1-.2h2.1l.1.1V27.7a8 8 0 0 1-3.2.6Zm1-2.1v-4.8h-.6c-.4 0-.8 0-1.2.2l-.9.8c-.2.4-.3.8-.3 1.4 0 .4 0 .8.2 1.1 0 .3.2.6.4.8l.7.4.9.2a5 5 0 0 0 .8-.1Z"
      fill="#F36" />
    <path fill-rule="evenodd" clip-rule="evenodd"
      d="M8 7a3 3 0 0 1 3-3h13a3 3 0 0 1 2.2.9l6.3 6.3c.6.6 1 1.3 1 2.1V33a3 3 0 0 1-3 3H11a3 3 0 0 1-3-3V7Zm3-1a1 1 0 0 0-1 1v26c0 .6.5 1 1 1h19.4c.6 0 1-.4 1-1V13.3a1 1 0 0 0-.3-.7l-6.3-6.3A1 1 0 0 0 24 6H11Z"
      fill="#F36" />
  </g>
  <defs>
    <filter id="a" x="-3.3" y="-2" width="48" height="50" filterUnits="userSpaceOnUse"
      color-interpolation-filters="sRGB">
      <feFlood flood-opacity="0" result="BackgroundImageFix" />
      <feColorMatrix in="SourceAlpha" values="0 0 0 0 0 0 0 0 0 0 0 0 0 0 0 0 0 0 127 0"
        result="hardAlpha" />
      <feMorphology radius="2" in="SourceAlpha" result="effect1_dropShadow_2284_4441" />
      <feOffset dy="1" />
      <feGaussianBlur stdDeviation=".9" />
      <feComposite in2="hardAlpha" operator="out" />
      <feColorMatrix values="0 0 0 0 0.0862745 0 0 0 0 0.0862745 0 0 0 0 0.0901961 0 0 0 0.12 0" />
      <feBlend in2="BackgroundImageFix" result="effect1_dropShadow_2284_4441" />
      <feColorMatrix in="SourceAlpha" values="0 0 0 0 0 0 0 0 0 0 0 0 0 0 0 0 0 0 127 0"
        result="hardAlpha" />
      <feMorphology radius="2" in="SourceAlpha" result="effect2_dropShadow_2284_4441" />
      <feOffset dy="2" />
      <feGaussianBlur stdDeviation="1.3" />
      <feComposite in2="hardAlpha" operator="out" />
      <feColorMatrix values="0 0 0 0 0.0862745 0 0 0 0 0.0862745 0 0 0 0 0.0901961 0 0 0 0.12 0" />
      <feBlend in2="effect1_dropShadow_2284_4441" result="effect2_dropShadow_2284_4441" />
      <feColorMatrix in="SourceAlpha" values="0 0 0 0 0 0 0 0 0 0 0 0 0 0 0 0 0 0 127 0"
        result="hardAlpha" />
      <feMorphology radius="2" in="SourceAlpha" result="effect3_dropShadow_2284_4441" />
      <feOffset dy="4" />
      <feGaussianBlur stdDeviation="3" />
      <feComposite in2="hardAlpha" operator="out" />
      <feColorMatrix values="0 0 0 0 0.0862745 0 0 0 0 0.0862745 0 0 0 0 0.0901961 0 0 0 0.12 0" />
      <feBlend in2="effect2_dropShadow_2284_4441" result="effect3_dropShadow_2284_4441" />
      <feColorMatrix in="SourceAlpha" values="0 0 0 0 0 0 0 0 0 0 0 0 0 0 0 0 0 0 127 0"
        result="hardAlpha" />
      <feOffset />
      <feGaussianBlur stdDeviation="1" />
      <feComposite in2="hardAlpha" operator="out" />
      <feColorMatrix values="0 0 0 0 0.0862745 0 0 0 0 0.0862745 0 0 0 0 0.0901961 0 0 0 0.25 0" />
      <feBlend in2="effect3_dropShadow_2284_4441" result="effect4_dropShadow_2284_4441" />
      <feBlend in="SourceGraphic" in2="effect4_dropShadow_2284_4441" result="shape" />
    </filter>
  </defs>
</svg>