<svg width="16" height="16" viewBox="0 0 16 16" fill="none" xmlns="http://www.w3.org/2000/svg">
  <path fill-rule="evenodd" clip-rule="evenodd" d="M7 3V4V5.12602V6.17071C5.83481 6.58254 5 7.69378 5 9C5 10.6569 6.34315 12 8 12C9.65685 12 11 10.6569 11 9C11 7.69378 10.1652 6.58254 9 6.17071V5.12602V4V3H7ZM10 5.5V3H10.5H11V2H10.5H10H9H7H6H5.5H5V3H5.5H6V5.5V5.53513C4.8044 6.22675 4 7.51944 4 9C4 11.2091 5.79086 13 8 13C10.2091 13 12 11.2091 12 9C12 7.51944 11.1956 6.22675 10 5.53513V5.5Z" fill="currentColor" fill-opacity="0.9" />
  <path opacity="0.75" fill-rule="evenodd" clip-rule="evenodd" d="M8 11C9.10457 11 10 10.1046 10 9C10 8.63571 9.90261 8.29417 9.73244 8H6.26756C6.09739 8.29417 6 8.63571 6 9C6 10.1046 6.89543 11 8 11Z" fill="currentColor" fill-opacity="0.9" />
</svg>