<svg width="16" height="16" viewBox="0 0 16 16" fill="none" xmlns="http://www.w3.org/2000/svg">
  <path fill-rule="evenodd" clip-rule="evenodd" d="M4.61579 1.18066L2.11579 4.18262C1.96137 4.36804 1.96141 4.6373 2.11589 4.82268L4.61589 7.82268L5.38411 7.18249L3.56561 5.00029H8.5C10.433 5.00029 12 6.56729 12 8.50029C12 10.4333 10.433 12.0003 8.5 12.0003C7.03193 12.0003 5.77381 11.0963 5.25423 9.81268L4.32729 10.1879C4.99448 11.8361 6.61069 13.0003 8.5 13.0003C10.9853 13.0003 13 10.9856 13 8.50029C13 6.01501 10.9853 4.00029 8.5 4.00029H3.56899L5.38421 1.8206L4.61579 1.18066ZM10.3536 7.35384L9 8.7074V11.0003H8V8.50029V8.29318L8.14645 8.14674L9.64645 6.64674L10.3536 7.35384Z" fill="currentColor" />
</svg>