<svg width="16" height="16" viewBox="0 0 16 16" fill="none" xmlns="http://www.w3.org/2000/svg">
  <path fill-rule="evenodd" clip-rule="evenodd" d="M7.5 3C5.01472 3 3 5.01472 3 7.5C3 9.98528 5.01472 12 7.5 12C9.98528 12 12 9.98528 12 7.5C12 5.01472 9.98528 3 7.5 3ZM2 7.5C2 4.46243 4.46243 2 7.5 2C10.5376 2 13 4.46243 13 7.5C13 8.74835 12.5841 9.89957 11.8833 10.8226L12.0303 10.9697L13.5303 12.4697L14.0607 13L13 14.0607L12.4697 13.5303L10.9697 12.0303L10.8226 11.8833C9.89957 12.5841 8.74835 13 7.5 13C4.46243 13 2 10.5376 2 7.5ZM10 7H5V8H10V7Z" fill="currentColor" fill-opacity="0.9" />
</svg>