<svg width="16" height="16" viewBox="0 0 16 16" fill="none" xmlns="http://www.w3.org/2000/svg">
  <path fill-rule="evenodd" clip-rule="evenodd" d="M3 7.5C3 5.01472 5.01472 3 7.5 3C9.98528 3 12 5.01472 12 7.5C12 9.98528 9.98528 12 7.5 12C5.01472 12 3 9.98528 3 7.5ZM7.5 2C4.46243 2 2 4.46243 2 7.5C2 10.5376 4.46243 13 7.5 13C8.74835 13 9.89957 12.5841 10.8226 11.8833L10.9697 12.0303L12.4697 13.5303L13 14.0607L14.0607 13L13.5303 12.4697L12.0303 10.9697L11.8833 10.8226C12.5841 9.89957 13 8.74835 13 7.5C13 4.46243 10.5376 2 7.5 2ZM7 7V5H8V7H10V8H8V10H7V8H5V7H7Z" fill="currentColor" fill-opacity="0.9" />
</svg>