<svg width="62" height="58" xmlns="http://www.w3.org/2000/svg"><g fill-rule="nonzero" fill="none"><path d="M61.3 34.5C61.3 47.5 49.4 58 31 58S.7 47.5.7 34.5 12.6 2 31 2s30.3 19.5 30.3 32.5Z" fill="#F7910B"/><path d="M61.3 34.5C61.3 47.5 49.4 54 31 54S.7 47.5.7 34.5 12.6 0 31 0s30.3 21.5 30.3 34.5Z" fill="#F7910B"/><path d="M31 0c18.4 0 30.3 21.5 30.3 34.5S49.4 54 31 54" fill="#F9A908"/><path d="M61.3 34.5C61.3 47.5 49.4 54 31 54S.7 47.5.7 34.5 12.6 2 31 2s30.3 19.5 30.3 32.5Z" fill="#F9A908"/><path d="M.7 34.5C.7 21.5 12.6 2 31 2" fill="#F9C55D"/><path d="M31 2c18.4 0 30.3 19.5 30.3 32.5S49.4 58 31 58" fill="#F7910B"/><path d="M31 2c18.4 0 30.3 19.5 30.3 32.5" fill="#EA7103"/><circle fill="#F7910B" cx="9.3" cy="31.5" r="1"/><circle fill="#F7910B" cx="4.8" cy="33.5" r="1.1"/><circle fill="#F7910B" cx="7.8" cy="29.5" r="1"/><circle fill="#F7910B" cx="12.4" cy="31.3" r="1"/><circle fill="#F9A908" cx="51.6" cy="31.8" r="1"/><circle fill="#F9A908" cx="54.1" cy="33.2" r="1"/><circle fill="#F9A908" cx="48.8" cy="24.4" r="1"/><circle fill="#F9A908" cx="48.3" cy="36" r="1.3"/><circle fill="#F9A908" cx="55.5" cy="36.1" r="1"/><circle fill="#F7910B" cx="8.3" cy="35.5" r="1"/><circle fill="#F7910B" cx="9.1" cy="27.1" r="1"/><circle fill="#F9A908" cx="3.8" cy="13.3" r="1.1"/><circle fill="#F9A908" cx="7" cy="9.8" r="1"/><circle fill="#F9A908" cx="58.2" cy="15.7" r="1"/><circle fill="#F9A908" cx="57.4" cy="12.8" r="1"/><circle fill="#F9A908" cx="60" cy="13.3" r="1"/><circle fill="#F9A908" cx="5" cy="16.3" r="1"/><path d="M38.2 44.9c0 2.6-3.3 7.2-7.4 7.2-4.1 0-7.4-4.6-7.4-7.2" fill="#F7910B"/><g transform="translate(15 17)"><circle fill="#D87703" cx="4.6" cy="6" r="3.5"/><path d="M30.9 6c0 1.9-1.6 3.5-3.5 3.5S23.9 7.9 23.9 6s1.6-3.5 3.5-3.5c2 0 3.5 1.6 3.5 3.5Z" fill="#D87703"/><circle fill="#1E4784" cx="4.6" cy="5" r="3.5"/><path d="M4.6 1.5c1.9 0 3.5 1.6 3.5 3.5S6.5 8.5 4.6 8.5" fill="#00233F"/><path d="M30.9 5c0 1.9-1.6 3.5-3.5 3.5S23.9 6.9 23.9 5s1.6-3.5 3.5-3.5c2 0 3.5 1.6 3.5 3.5Z" fill="#1E4784"/><path d="M27.4 1.5c1.9 0 3.5 1.6 3.5 3.5s-1.6 3.5-3.5 3.5" fill="#00233F"/><path d="M.5 4.7C.5 2.4 2.3.6 4.6.6s4.1 1.8 4.1 4.1" fill="#F9A908"/><path d="M23.3 4.7c0-2.3 1.8-4.1 4.1-4.1s4.1 1.8 4.1 4.1" fill="#F7910B"/></g><path d="M26.8 27.8c0 1.2-3.5.7-7.8.7s-7.8.6-7.8-.7c0-1.2 3.5-2.2 7.8-2.2s7.8 1 7.8 2.2Z" fill="#F9C55D"/><path d="M50.8 27.8c0 1.2-3.5.7-7.8.7s-7.8.6-7.8-.7c0-1.2 3.5-2.2 7.8-2.2s7.8 1 7.8 2.2Z" fill="#F9A908"/><g fill="#19BCA4"><path d="M22.2 9.5c0 1-.1.5-1.5.5s-2.5.5-2.5-.5 1.1-1.7 2.5-1.7 1.5.8 1.5 1.7ZM39.8 9.5c0 1 .1.5 1.5.5s2.5.5 2.5-.5-1.1-1.7-2.5-1.7-1.5.8-1.5 1.7Z"/></g><g fill="#00233F"><path d="M8.9 17c-.1 1-.2 1.2-.2 1.8 0 4.5 1.3 8.2 5.8 8.2H22c4.5 0 5.8-3.7 5.8-8.2 0-.6-.1-.8-.2-1.8H8.9Z"/><path d="M28.4 17.5c0 .7-.6 1.5-1.3 1.5H9.5c-.7 0-1.3-.8-1.3-1.5S8.8 16 9.5 16h17.6c.7 0 1.3.8 1.3 1.5Z"/><path d="M18.2 17c0 .5-.4 2-.8 2H5.3c-.5 0-.8-1.6-.8-2 0-.5.4-1 .8-1h12.1c.4 0 .8.5.8 1ZM53.1 17c.1 1 .2 1.2.2 1.8 0 4.5-1.3 8.2-5.8 8.2H40c-4.5 0-5.8-3.7-5.8-8.2 0-.6.1-.8.2-1.8h18.7Z"/><path d="M33.6 17.5c0 .7.6 1.5 1.3 1.5h17.6c.7 0 1.3-.8 1.3-1.5s-.6-1.5-1.3-1.5H34.9c-.7 0-1.3.8-1.3 1.5Z"/><path d="M43.8 17c0 .5.4 2 .8 2h12.1c.5 0 .8-1.6.8-2 0-.5-.4-1-.8-1H44.6c-.4 0-.8.5-.8 1ZM41 17c0 .6-.4 1-1 1H23c-.6 0-1-.4-1-1s.4-1 1-1h17c.6 0 1 .4 1 1Z"/></g><path d="M38.4 35.2c0 2.6-3.3 4.7-7.4 4.7-4.1 0-7.4-2.1-7.4-4.7" fill="#F7910B"/><g fill="#02243E"><path d="M26.8 37c-3.2 0-6.6-1.9-9.2-4.6-.4-.4-.4-1.1 0-1.6.4-.4 1.1-.4 1.6 0 2.5 2.5 7.7 5.9 11.1 2.5.4-.4 1.1-.4 1.6 0 .4.4.4 1.1 0 1.6-1.6 1.5-3.3 2.1-5.1 2.1Z"/><path d="M35.2 37c-1.8 0-3.5-.6-5-2.1-.4-.4-.4-1.1 0-1.6.4-.4 1.1-.4 1.6 0 3.4 3.4 8.6 0 11.1-2.5.4-.4 1.1-.4 1.6 0 .4.4.4 1.1 0 1.6-2.7 2.7-6.1 4.6-9.3 4.6Z"/></g><g fill="#02243E"><path d="M16 33.1c-.6 0-1.1-.5-1.1-1.1 0-.6.5-1.1 1.1-1.1.9 0 1.6-.7 1.6-1.6 0-.6.5-1.1 1.1-1.1.6 0 1.1.5 1.1 1.1-.1 2.1-1.8 3.8-3.8 3.8ZM46 33.1c-2.1 0-3.8-1.7-3.8-3.8 0-.6.5-1.1 1.1-1.1.6 0 1.1.5 1.1 1.1 0 .9.7 1.6 1.6 1.6.6 0 1.1.5 1.1 1.1 0 .6-.5 1.1-1.1 1.1Z"/></g><path d="M28.4 33.6c-.2.7-2.1.6-4.2-.2s-3.5-1.9-3.3-2.6c.2-.7 1.9 0 4 .7 2.1.8 3.7 1.4 3.5 2.1Z" fill="#F9C55D"/><path d="M33.9 33.6c.2.7 2.1.6 4.2-.2s3.5-1.9 3.3-2.6c-.2-.7-1.9 0-4 .7-2.1.8-3.8 1.4-3.5 2.1Z" fill="#F9A908"/></g></svg>