<svg width="17" height="16" viewBox="0 0 17 16" fill="none" xmlns="http://www.w3.org/2000/svg">
<path fill-rule="evenodd" clip-rule="evenodd" d="M6.61608 5.46963L5.96963 6.11608C5.48148 6.60423 5.48148 7.39569 5.96963 7.88385L12.1161 14.0303C12.6042 14.5184 13.3957 14.5184 13.8838 14.0303L14.5303 13.3838C15.0184 12.8957 15.0184 12.1042 14.5303 11.6161L8.38385 5.46963C7.89569 4.98148 7.10424 4.98148 6.61608 5.46963ZM6.67674 7.17674C6.57911 7.07911 6.57911 6.92082 6.67674 6.82319L7.32319 6.17674C7.42082 6.07911 7.57911 6.07911 7.67674 6.17674L9.49996 7.99996L8.49996 8.99996L6.67674 7.17674Z" fill="#471AFF" fill-opacity="0.65"/>
<circle cx="3.25" cy="6.75" r="0.75" fill="#471AFF" fill-opacity="0.65"/>
<circle cx="5.25" cy="1.75" r="0.75" fill="#471AFF" fill-opacity="0.65"/>
<circle cx="8" cy="2.5" r="0.5" fill="#471AFF" fill-opacity="0.65"/>
<circle cx="2" cy="3.5" r="0.5" fill="#471AFF" fill-opacity="0.65"/>
</svg>
