<svg width="17" height="16" viewBox="0 0 17 16" fill="none" xmlns="http://www.w3.org/2000/svg">
<path fill-rule="evenodd" clip-rule="evenodd" d="M10.0202 4.3537C10.3773 3.99668 10.9561 3.99668 11.3131 4.3537C11.6702 4.71073 11.6702 5.28957 11.3131 5.6466L6.56313 10.3966L5.27023 9.1037L10.0202 4.3537ZM12.0202 3.6466C11.2727 2.89905 10.0607 2.89905 9.31313 3.6466L4.31313 8.6466L4.22967 8.73006L4.19234 8.84204L3.35045 11.3677C3.15501 11.954 3.71282 12.5118 4.29914 12.3164L6.8248 11.4745L6.93677 11.4372L7.02023 11.3537L12.0202 6.3537C12.7678 5.60616 12.7678 4.39414 12.0202 3.6466Z" fill="#471AFF" fill-opacity="0.65"/>
<rect opacity="0.75" x="7.66663" y="12" width="7" height="1" fill="#471AFF" fill-opacity="0.65"/>
</svg>
