<svg xmlns="http://www.w3.org/2000/svg" viewBox="0 0 2048 2048" style="enable-background:new 0 0 2048 2048" xml:space="preserve"><style>.st0{display:none}.st1{display:inline}.st2{fill:#e6ff00}.st3{fill:#fff}.st6{fill:#00ffc1}.st8{fill:#e6d200}</style><g id="Ebene_5"><circle class="st2" cx="1024" cy="1024" r="868.12"/><path d="M1024 155.88c479.45 0 868.12 388.67 868.12 868.12s-388.67 868.12-868.12 868.12S155.88 1503.45 155.88 1024 544.55 155.88 1024 155.88M1024 0C459.36 0 0 459.36 0 1024s459.36 1024 1024 1024 1024-459.36 1024-1024S1588.64 0 1024 0z"/><circle cx="1529.09" cy="801.47" r="170.47"/><circle class="st3" cx="1456.19" cy="760.43" r="46.3"/><circle cx="523.12" cy="801.47" r="170.47"/><circle class="st3" cx="602.11" cy="760.43" r="46.3"/><path d="M763.61 1904.24c0-384.05 19.48-723.86 285.18-723.86 236.14 0 260.03 339.81 260.03 723.86"/></g></svg>