{
  "accessors": [
    {
      "bufferView": 2,
      "componentType": 5126,
      "count": 739,
      "max": [
        6.926194667816162,
        15.715643882751465,
        13.02287483215332
      ],
      "min": [
        -7.2589640617370605,
        -8.943140029907227,
        -2.088118076324463
      ],
      "type": "VEC3"
    },
    {
      "bufferView": 2,
      "byteOffset": 8868,
      "componentType": 5126,
      "count": 739,
      "max": [
        0.9999722242355347,
        0.9999985694885254,
        1.0
      ],
      "min": [
        -0.9999722242355347,
        -0.9999985694885254,
        -1.0
      ],
      "type": "VEC3"
    },
    {
      "bufferView": 3,
      "componentType": 5126,
      "count": 739,
      "max": [
        1.0,
        0.9630450010299683,
        0.963637113571167,
        1.0
      ],
      "min": [
        -1.0,
        -0.9837480187416077,
        -0.9966130256652832,
        1.0
      ],
      "type": "VEC4"
    },
    {
      "bufferView": 1,
      "componentType": 5126,
      "count": 739,
      "max": [
        0.9860596060752869,
        0.9744183421134949
      ],
      "min": [
        0.007718697655946016,
        0.027288377285003662
      ],
      "type": "VEC2"
    },
    {
      "bufferView": 1,
      "byteOffset": 5912,
      "componentType": 5126,
      "count": 739,
      "max": [
        0.9860596060752869,
        0.9744183421134949
      ],
      "min": [
        0.007718697655946016,
        0.027288377285003662
      ],
      "type": "VEC2"
    },
    {
      "bufferView": 1,
      "byteOffset": 11824,
      "componentType": 5126,
      "count": 739,
      "max": [
        0.9860596060752869,
        0.9744183421134949
      ],
      "min": [
        0.007718697655946016,
        0.027288377285003662
      ],
      "type": "VEC2"
    },
    {
      "bufferView": 0,
      "componentType": 5125,
      "count": 3240,
      "type": "SCALAR"
    }
  ],
  "asset": {
    "extras": {
      "author": "Nick Pekarsky (https://sketchfab.com/kolumba1991)",
      "license": "CC-BY-4.0 (http://creativecommons.org/licenses/by/4.0/)",
      "source": "https://sketchfab.com/3d-models/dippers-cap-6b247c088f034d09908d4ee78c39dd18",
      "title": "Dipper's cap"
    },
    "generator": "Sketchfab-12.65.0",
    "version": "2.0"
  },
  "bufferViews": [
    {
      "buffer": 0,
      "byteLength": 12960,
      "name": "floatBufferViews",
      "target": 34963
    },
    {
      "buffer": 0,
      "byteLength": 17736,
      "byteOffset": 12960,
      "byteStride": 8,
      "name": "floatBufferViews",
      "target": 34962
    },
    {
      "buffer": 0,
      "byteLength": 17736,
      "byteOffset": 30696,
      "byteStride": 12,
      "name": "floatBufferViews",
      "target": 34962
    },
    {
      "buffer": 0,
      "byteLength": 11824,
      "byteOffset": 48432,
      "byteStride": 16,
      "name": "floatBufferViews",
      "target": 34962
    }
  ],
  "buffers": [
    {
      "byteLength": 60256,
      "uri": "scene.bin"
    }
  ],
  "images": [
    {
      "uri": "textures/Material_baseColor.png"
    },
    {
      "uri": "textures/Material_metallicRoughness.png"
    },
    {
      "uri": "textures/Material_normal.png"
    }
  ],
  "materials": [
    {
      "doubleSided": true,
      "name": "Material",
      "normalTexture": {
        "index": 2
      },
      "pbrMetallicRoughness": {
        "baseColorTexture": {
          "index": 0
        },
        "metallicFactor": 0.0,
        "metallicRoughnessTexture": {
          "index": 1
        }
      }
    }
  ],
  "meshes": [
    {
      "name": "LOW_Material_0",
      "primitives": [
        {
          "attributes": {
            "NORMAL": 1,
            "POSITION": 0,
            "TANGENT": 2,
            "TEXCOORD_0": 3,
            "TEXCOORD_1": 4,
            "TEXCOORD_2": 5
          },
          "indices": 6,
          "material": 0,
          "mode": 4
        }
      ]
    }
  ],
  "nodes": [
    {
      "children": [
        1
      ],
      "matrix": [
        1.0,
        0.0,
        0.0,
        0.0,
        0.0,
        2.220446049250313e-16,
        -1.0,
        0.0,
        0.0,
        1.0,
        2.220446049250313e-16,
        0.0,
        0.0,
        0.0,
        0.0,
        1.0
      ],
      "name": "Sketchfab_model"
    },
    {
      "children": [
        2
      ],
      "matrix": [
        1.0,
        0.0,
        0.0,
        0.0,
        0.0,
        0.0,
        1.0,
        0.0,
        0.0,
        -1.0,
        0.0,
        0.0,
        0.0,
        0.0,
        0.0,
        1.0
      ],
      "name": "57612fcff64b4ddc904dcd675f4ab532.fbx"
    },
    {
      "children": [
        3,
        5
      ],
      "name": "RootNode"
    },
    {
      "children": [
        4
      ],
      "matrix": [
        100.0,
        -4.755506671064924e-15,
        -5.152180885660542e-16,
        0.0,
        5.152188242058711e-16,
        21.416900084816703,
        -97.67966211426501,
        0.0,
        4.755506591364644e-15,
        97.67966211426501,
        21.416900084816703,
        0.0,
        17.043275833129883,
        0.0,
        0.0,
        1.0
      ],
      "name": "LOW"
    },
    {
      "mesh": 0,
      "name": "LOW_Material_0"
    },
    {
      "children": [
        6
      ],
      "matrix": [
        -81.63829767147058,
        -29.597613600632723,
        -49.58999996544824,
        0.0,
        -25.29643577248657,
        95.5195254555864,
        -15.365840948974979,
        0.0,
        51.916058831867986,
        9.151719379650408e-05,
        -85.46766236114571,
        0.0,
        1437.1038818359375,
        1021.5952758789063,
        917.6209716796875,
        1.0
      ],
      "name": "Camera"
    },
    {
      "name": "Object_6"
    }
  ],
  "samplers": [
    {
      "magFilter": 9729,
      "minFilter": 9987,
      "wrapS": 10497,
      "wrapT": 10497
    }
  ],
  "scene": 0,
  "scenes": [
    {
      "name": "Sketchfab_Scene",
      "nodes": [
        0
      ]
    }
  ],
  "textures": [
    {
      "sampler": 0,
      "source": 0
    },
    {
      "sampler": 0,
      "source": 1
    },
    {
      "sampler": 0,
      "source": 2
    }
  ]
}
