<svg viewBox="0 0 2048 1353" xml:space="preserve" xmlns="http://www.w3.org/2000/svg"><style>.st0{fill:red}</style><path class="st0" d="M1929 646.68s-337.08 604.16-902.96 604.16c-522.46 0-902.96-604.16-902.96-604.16S482.97 167.47 800.4 101.87c63.24-13.07 173.82 115.19 225.64 115.19 64.87 0 202.88-124.31 284.05-104.18C1619.3 189.54 1929 646.68 1929 646.68z"/><path d="M809.89 100.93c64.3 0 166.81 116.13 216.12 116.13 60.01 0 182.62-106.38 264.91-106.39 6.66 0 13.06.7 19.14 2.2 309.22 76.66 618.91 533.8 618.91 533.8s-337.08 604.16-902.96 604.16c-522.46 0-902.96-604.16-902.96-604.16s359.89-479.21 677.32-544.81c3.07-.63 6.25-.93 9.52-.93m0-101.43c-10.19 0-20.3 1.02-30.04 3.03-151.14 31.24-322.2 140.3-508.43 324.16C137.96 458.45 45.81 580.63 41.95 585.77L0 641.62l37.23 59.11c4.17 6.61 103.94 163.8 271.86 321.88 99.97 94.12 203.83 169.43 308.71 223.86 135.28 70.21 272.63 105.8 408.22 105.8 145.23 0 288.51-35.48 425.86-105.45 107.47-54.75 211.3-130.59 308.61-225.41 163.71-159.52 253.33-318.61 257.07-325.31l30.45-54.57-35.05-51.74c-3.34-4.94-83.29-122.39-203.46-250.62-167.65-178.9-327.47-288.16-475.02-324.74-13.88-3.44-28.53-5.18-43.54-5.18-70.51 0-139.94 38.29-201.2 72.08-17.46 9.63-41.66 22.98-57.82 30.16-12.05-7.73-28.49-19.76-40.59-28.6C937.88 43.8 877.3-.5 809.89-.5z"/><path class="st0" d="M89.8 642.21s608.63 216.38 953.42 216.38c338.79 0 947.43-216.38 947.43-216.38"/><path d="M1043.2 909.31c-349.52 0-945.23-210.36-970.42-219.32l33.98-95.57c6.01 2.14 604.43 213.45 936.44 213.45 326.27 0 924.43-211.32 930.43-213.45l33.98 95.57c-25.19 8.96-620.83 219.32-964.41 219.32z"/><path d="M463.08 708.17c169.4 13.49 370.28-175.39 559.16-175.39s382.27 214.34 505.19 199.38c122.93-14.96-346.29 110.93-346.29 110.93l-329.8-8.99S293.68 694.68 463.08 708.17z"/><path d="M463.08 735.22c169.4 13.49 370.28-202.44 559.16-202.44s382.27 241.39 505.19 226.43c122.93-14.96-346.29 83.88-346.29 83.88l-329.8-8.99s-557.66-112.37-388.26-98.88z" fill="none" stroke="#000" stroke-miterlimit="10" stroke-width="60.858"/><path d="M1042.5 533.76v193.1h224.86v-96.578c-71.972-46.812-148.56-89.835-224.86-96.525zm-63.031 2.627c-74.51 11.723-150.28 51.4-224.86 92.303v98.174h224.86v-190.48z" clip-path="url(#SVGID_2_)" style="clip-path:url(#SVGID_2_);fill:#fff"/></svg>