<svg version="1.1" id="Ebene_1" xmlns="http://www.w3.org/2000/svg" x="0" y="0" viewBox="0 0 2048 1661" style="enable-background:new 0 0 2048 1661" xml:space="preserve"><style>.st1{fill:red}</style><path d="M411.41 514.9c-91.22-81.09-192.58-121.63-253.39-50.68s-30.41 187.51 60.81 293.93 212.85 177.37 212.85 177.37S643.81 752.5 685.07 702.4c70.95-86.15 92.91-233.12-33.79-278.73-117.95-42.45-239.87 91.23-239.87 91.23z"/><path d="M602.89 415.35c15.99 0 32.24 2.51 48.4 8.33 126.7 45.61 104.74 192.58 33.79 278.73-41.26 50.1-253.39 233.12-253.39 233.12s-121.63-70.95-212.85-177.37-121.63-222.98-60.81-293.94c21.85-25.49 48.93-36.59 78.89-36.59 53.44 0 116.05 35.31 174.5 87.27-.01 0 90.78-99.55 191.47-99.55m0-126.41c-39.56 0-80.11 8.44-120.52 25.07-25.17 10.36-50.42 23.97-75.22 40.53a456.342 456.342 0 0 0-26.82-15.04c-49.12-25.39-97.37-38.27-143.42-38.27-33.32 0-65.07 6.68-94.37 19.87-30.61 13.78-57.69 34.25-80.5 60.86C6.68 446.55-12.5 532.97 8.02 625.31c15.92 71.65 55.64 146.04 114.84 215.12 103.9 121.22 239.41 200.96 245.13 204.3l77.95 45.47 68.32-58.95c2.2-1.9 54.55-47.08 112.9-99.24 109.53-97.91 140.64-131.18 155.5-149.23 33.11-40.2 58.21-87.76 72.59-137.53 16.64-57.59 17.93-115.34 3.73-167.02-10.94-39.81-30.5-75-58.13-104.57-28.48-30.48-64.39-53.67-106.74-68.91-29.13-10.49-59.82-15.81-91.22-15.81zM1563.91 480.91c-98.59-87.64-208.14-131.46-273.87-54.77s-32.86 202.66 65.73 317.69 230.05 191.71 230.05 191.71 229.28-197.81 273.87-251.96c76.68-93.12 100.42-251.96-36.52-301.26-127.49-45.9-259.26 98.59-259.26 98.59z"/><path d="M1770.87 373.31c17.28 0 34.84 2.72 52.31 9 136.94 49.3 113.2 208.14 36.52 301.26-44.59 54.15-273.87 251.96-273.87 251.96s-131.46-76.68-230.05-191.71c-98.59-115.02-131.46-241-65.73-317.69 23.61-27.55 52.88-39.54 85.26-39.54 57.76 0 125.43 38.16 188.61 94.32-.01 0 98.11-107.6 206.95-107.6m0-126.41c-41.41 0-83.93 8.86-126.37 26.33-28.41 11.69-56.94 27.32-84.92 46.5-11.35-7.06-22.68-13.51-33.95-19.34-51.62-26.69-102.2-40.22-150.32-40.22-34.55 0-67.46 6.92-97.8 20.58-31.7 14.27-59.78 35.5-83.44 63.11-57.69 67.31-77.64 157.57-56.18 254.16 16.85 75.81 59 154.68 121.91 228.07 111.19 129.72 256.21 215.06 262.33 218.63l77.95 45.47 68.32-58.95c2.38-2.05 58.89-50.83 121.88-107.14 119.2-106.55 152.39-142.44 166.99-160.17 34.91-42.38 61.37-92.52 76.53-144.98 17.46-60.43 18.84-120.93 4-174.97-23.35-84.99-84.37-149.12-171.8-180.6-30.38-10.93-62.38-16.48-95.13-16.48z"/><circle cx="1004.68" cy="829.89" r="703.98" style="fill:#e6ff00"/><path d="M1004.68 125.91c388.8 0 703.98 315.18 703.98 703.98s-315.18 703.98-703.98 703.98S300.7 1218.69 300.7 829.89s315.18-703.98 703.98-703.98m0-126.41c-112.05 0-220.81 21.97-323.27 65.31-98.9 41.83-187.69 101.69-263.91 177.91-76.22 76.22-136.08 165.01-177.91 263.91-43.34 102.46-65.31 211.22-65.31 323.27s21.97 220.81 65.31 323.27c41.83 98.9 101.69 187.69 177.91 263.91 76.22 76.22 165.01 136.08 263.91 177.91 102.46 43.34 211.22 65.31 323.27 65.31 112.05 0 220.81-21.97 323.27-65.31 98.9-41.83 187.69-101.69 263.91-177.91 76.22-76.22 136.08-165.01 177.91-263.91 43.34-102.46 65.31-211.22 65.31-323.27s-21.97-220.81-65.31-323.27c-41.83-98.9-101.69-187.69-177.91-263.91-76.22-76.22-165.01-136.08-263.91-177.91C1225.49 21.47 1116.73-.5 1004.68-.5z"/><path class="st1" d="M411.41 514.9c-91.22-81.09-192.58-121.63-253.39-50.68s-30.41 187.51 60.81 293.93 212.85 177.37 212.85 177.37S643.81 752.5 685.07 702.4c70.95-86.15 92.91-233.12-33.79-278.73-117.95-42.45-239.87 91.23-239.87 91.23zM1563.91 480.91c-98.59-87.64-208.14-131.46-273.87-54.77s-32.86 202.66 65.73 317.69 230.05 191.71 230.05 191.71 229.28-197.81 273.87-251.96c76.68-93.12 100.42-251.96-36.52-301.26-127.49-45.9-259.26 98.59-259.26 98.59z"/><path d="M1282.85 895.95c0 193.69-124.54 350.72-278.17 350.72s-278.17-157.02-278.17-350.72h556.34z"/><path d="M1004.68 1274.83c-83.08 0-160.77-40.27-218.76-113.39-56.47-71.2-87.57-165.49-87.57-265.49v-28.16h612.67v28.16c0 100.01-31.1 194.3-87.57 265.49-58 73.12-135.69 113.39-218.77 113.39zM755.61 924.11c11.09 164.72 118.56 294.39 249.07 294.39s237.97-129.67 249.07-294.39H755.61z"/></svg>