<svg version="1.1" id="Ebene_14" xmlns="http://www.w3.org/2000/svg" x="0" y="0" viewBox="0 0 985.4 1024" style="enable-background:new 0 0 985.4 1024" xml:space="preserve"><style>.st1{fill:#fff}</style><path d="M593.7 687.4c3.5 0 7.3.3 11.4.9 27 3.7 99.2 26.7 179.4 68 96.2 49.6 149 107.3 115.9 167.8-7.4 13.5-27 25.6-51.7 25.6-31.8 0-72.1-19.9-106-82.5-48.9-90.2-96.2-111.8-133-127-36.8-15.1-44.8-25.7-41.8-37.8 2.4-9.8 11-15 25.8-15m0-74.3c-20.7 0-39.2 4.7-55.1 14-21.6 12.6-36.8 33-42.9 57.3-8.1 32.5 1.5 65 26.4 89.2 13.7 13.2 32 24.2 59.3 35.4 27.2 11.2 58.1 23.9 95.9 93.6 21.2 39.1 47 69.5 76.5 90.2 29.2 20.4 62 31.2 94.9 31.2 23.6 0 46.8-5.6 67.1-16.3 21.7-11.5 39-28 49.8-47.9 20-36.6 24.4-76.3 12.6-114.8-17.7-57.9-69.9-108.5-159.6-154.8-86.5-44.6-166-70.4-203.3-75.6-7.4-1-14.7-1.5-21.6-1.5z"/><circle cx="492.7" cy="492.7" r="417.7" style="fill:#e6ff00"/><path d="M492.7 75c230.7 0 417.7 187 417.7 417.7s-187 417.7-417.7 417.7S75 723.4 75 492.7 262 75 492.7 75m0-75C221 0 0 221 0 492.7s221 492.7 492.7 492.7 492.7-221 492.7-492.7S764.4 0 492.7 0z"/><circle cx="360.1" cy="382.6" r="82"/><circle class="st1" cx="384.4" cy="362.9" r="22.3"/><circle cx="625.3" cy="382.6" r="82"/><circle class="st1" cx="649.6" cy="362.9" r="22.3"/><circle cx="592.4" cy="708" r="75.3"/><path d="M605.2 688.3c27 3.7 99.2 26.7 179.4 68 96.2 49.6 149 107.3 115.9 167.8-16.9 30.9-97.5 54.2-157.7-56.9-48.9-90.2-96.2-111.8-133-127-36.8-15.1-44.8-25.7-41.8-37.8s15.3-17.1 37.2-14.1z" style="fill:red"/></svg>