<svg width="64" height="60" xmlns="http://www.w3.org/2000/svg"><g fill-rule="nonzero" fill="none"><path d="M21 49.1c0 5-8 8.5-13 8.5s-4-3.2-4-8.2c0-5 3-9.3 8-9.3 4.9 0 9 4 9 9Z" fill="#EA7103"/><g transform="translate(1)"><path d="M60.8 34.8c0 13-11.9 23.5-30.3 23.5S.2 47.8.2 34.8 12.1 2.3 30.5 2.3s30.3 19.5 30.3 32.5Z" fill="#F7910B"/><path d="M60.8 34.8c0 13-11.9 19.5-30.3 19.5S.2 47.8.2 34.8 12.1.3 30.5.3s30.3 21.5 30.3 34.5Z" fill="#F7910B"/><path d="M30.5.3c18.4 0 30.3 21.5 30.3 34.5S48.9 54.3 30.5 54.3" fill="#F9A908"/><path d="M60.8 34.8c0 13-11.9 19.5-30.3 19.5S.2 47.8.2 34.8 12.1 2.3 30.5 2.3s30.3 19.5 30.3 32.5Z" fill="#F9A908"/><path d="M.2 34.8c0-13 11.9-32.5 30.3-32.5" fill="#F9C55D"/><path d="M30.5 2.3c18.4 0 30.3 19.5 30.3 32.5S48.9 58.3 30.5 58.3" fill="#F7910B"/><path d="M30.5 2.3c18.4 0 30.3 19.5 30.3 32.5" fill="#EA7103"/><g fill="#19BCA4"><path d="M35.8 11.5c0 .9-1.4.5-3.3.6-1.8.1-3.3.6-3.3-.3 0-.9 1.4-1.6 3.2-1.7 1.9-.1 3.4.5 3.4 1.4ZM48.4 11.5c0 .9 1.4.5 3.3.6 1.8.1 3.3.6 3.3-.3 0-.9-1.4-1.6-3.2-1.7-1.8-.1-3.3.5-3.4 1.4Z"/></g><g fill="#109DA0"><path d="M35.8 11.5c0 .9-1.4.5-3.3.6-1.8.1-3.3.6-3.3-.3M48.4 11.5c0 .9 1.4.5 3.3.6 1.8.1 3.3.6 3.3-.3"/></g><path d="M33.8 30c0 1.2-3.5.7-7.8.7s-7.8.6-7.8-.7c0-1.3 3.5-2.2 7.8-2.2s7.8.9 7.8 2.2Z" fill="#F9C55D"/><path d="M57.8 30c0 1.2-3.5.7-7.8.7s-7.8.6-7.8-.7c0-1.3 3.5-2.2 7.8-2.2s7.8.9 7.8 2.2Z" fill="#F9A908"/><circle fill="#F7910B" cx="8.8" cy="31.7" r="1"/><circle fill="#F7910B" cx="4.3" cy="33.7" r="1.1"/><circle fill="#F7910B" cx="7.3" cy="29.7" r="1"/><circle fill="#F7910B" cx="11.9" cy="31.6" r="1"/><circle fill="#F9A908" cx="51.1" cy="32.1" r="1"/><circle fill="#F9A908" cx="53.6" cy="33.5" r="1"/><circle fill="#F9A908" cx="48.3" cy="24.7" r="1"/><circle fill="#F9A908" cx="47.8" cy="36.3" r="1.3"/><circle fill="#F9A908" cx="55" cy="36.4" r="1"/><circle fill="#F7910B" cx="7.8" cy="35.8" r="1"/><circle fill="#F7910B" cx="8.6" cy="27.4" r="1"/><circle fill="#F9A908" cx="3.3" cy="13.6" r="1.1"/><circle fill="#F9A908" cx="6.5" cy="10.1" r="1"/><circle fill="#F9A908" cx="57.7" cy="16" r="1"/><circle fill="#F9A908" cx="56.9" cy="13.1" r="1"/><circle fill="#F9A908" cx="59.5" cy="13.6" r="1"/><circle fill="#F9A908" cx="4.5" cy="16.6" r="1"/></g><g transform="translate(3 34)"><path d="M7.8 23.6c0 1.2-1 2.1-2.1 2.1H2.1c-1.2 0-2.1-1-2.1-2.1L2.7 13c0-1.2 1-2.1 2.1-2.1h3.6c1.2 0 2.1 1 2.1 2.1L7.8 23.6Z" fill="#454949"/><path d="M29.4 8.8H2.7v4.3L0 23.6c0 1.2 1 2.1 2.1 2.1h3.6c1.2 0 2.1-1 2.1-2.1l1.5-5.7h7c1.2 0 1.5-1 1.5-2.1v-2.7h11.6V8.8Zm-14 5.9c0 .9-.2 1.7-1.1 1.7H9.7l.9-3.3h4.8v1.6Z" fill="#454949"/><path d="M9.3 17.9h7c1.2 0 1.5-1 1.5-2.1v-2.7h11.6V8.8H2.7v4.3l6.6 4.8Zm6.1-3.2c0 .9-.2 1.7-1.1 1.7H9.7l.9-3.3h4.8v1.6Z" fill="#252828"/><path fill="#2ABA9E" d="M13.1 16h-1l-.7-2.6h1.7z"/><path fill="#1A9992" d="M11.4 13.4h1.7V16"/><path fill="#2ABA9E" d="m31.5.7-.7 2.5H3.9L2.7 8h29.8V.7z"/><g fill="#2ABA9E"><path d="M5.3 15H2.2l-.2.9h3.3c.2 0 .4-.2.4-.4 0-.3-.2-.5-.4-.5ZM4.9 17.2H1.6l-.2.9h3.5c.2 0 .4-.2.4-.4s-.1-.5-.4-.5ZM.8 20.3h3.4c.2 0 .4-.2.4-.4s-.2-.4-.4-.4H1.1l-.3.8Z"/></g><path d="M30.2 12.4c0 .4-.3.7-.7.7-.4 0-.7-.3-.7-.7V9.5c0-.4.3-.7.7-.7.4 0 .7.3.7.7v2.9Z" fill="#252828"/><path fill="#1A9992" d="m3.5 5-.8 3h29.8V5z"/><path d="M32.5 7.5c0 .3-.2.5-.5.5s-.5-.2-.5-.5V5.4c0-.3.2-.5.5-.5s.5.2.5.5v2.1Z" fill="#2ABA9E"/><circle fill="#2ABA9E" cx="16.9" cy="10.8" r="1"/><circle fill="#2ABA9E" cx="19.8" cy="10.8" r="1"/><path d="M23.4 10.8c0 .3-.3.6-.6.6s-.6-.3-.6-.6.3-.6.6-.6c.4 0 .6.3.6.6Z" fill="#2ABA9E"/><path d="M33.2 13.2c-1.3 0-2.4-1.1-2.4-2.4 0-1.3 1.1-2.4 2.4-2.4" fill="#EA1F0A"/><path d="M60 10.3H34.3c-1.3 0-2.4.2-2.4.5s1.1.5 2.4.5H60v-1Z" fill="#FF5512"/></g><g fill="#00233F"><path d="M22.6 19.1c-.1.6-.2 1.1-.2 1.7 0 4.5 1.3 8.2 5.8 8.2h7.5c4.5 0 5.8-3.7 5.8-8.2 0-.6-.1-1.2-.2-1.7H22.6Z"/><path d="M42.1 18.8c0 .7-.6 1.3-1.3 1.3H23.2c-.7 0-1.3-.6-1.3-1.3 0-.7.6-1.3 1.3-1.3h17.6c.8 0 1.3.6 1.3 1.3Z"/><path d="M32 18.4c0 .5-.4 1.9-.8 1.9H1.3c-.5 0-.8-1.5-.8-1.9 0-.5.4-.8.8-.8h29.8c.5-.1.9.3.9.8ZM60.5 19.1c.1.6.1 1.1.1 1.7 0 4.5-.9 8.2-3.9 8.2h-5.1c-3.1 0-3.9-3.7-3.9-8.2 0-.6 0-1.2.1-1.7h12.7Z"/><path d="M47.4 18.8c0 .7.4 1.3.9 1.3h11.9c.5 0 .9-.6.9-1.3 0-.7-.4-1.3-.9-1.3h-12c-.5 0-.8.6-.8 1.3Z"/><path d="M54.2 18.4c0 .5.2 1.9.6 1.9H63c.3 0 .6-1.5.6-1.9 0-.5-.2-.8-.6-.8h-8.2c-.3-.1-.6.3-.6.8ZM54.1 18.6c0 .6-.5 1.1-1.1 1.1H36.4c-.6 0-1.1-.5-1.1-1.1 0-.6.5-1.1 1.1-1.1h16.7c.6 0 1 .5 1 1.1Z"/></g><path d="M46.6 34.5h-3c-.6 0-1.1-.5-1.1-1.1 0-.6.5-1.1 1.1-1.1h3c.6 0 1.1.5 1.1 1.1 0 .6-.5 1.1-1.1 1.1Z" fill="#02243E"/></g></svg>