<svg width="62" height="59" xmlns="http://www.w3.org/2000/svg"><g fill-rule="nonzero" fill="none"><path d="M61.3 34.5C61.3 47.5 49.4 58 31 58S.7 47.5.7 34.5 12.6 2 31 2s30.3 19.5 30.3 32.5Z" fill="#F7910B"/><path d="M61.3 34.5C61.3 47.5 49.4 54 31 54S.7 47.5.7 34.5 12.6 0 31 0s30.3 21.5 30.3 34.5Z" fill="#F7910B"/><path d="M31 0c18.4 0 30.3 21.5 30.3 34.5S49.4 54 31 54" fill="#F9A908"/><path d="M61.3 34.5C61.3 47.5 49.4 54 31 54S.7 47.5.7 34.5 12.6 2 31 2s30.3 19.5 30.3 32.5Z" fill="#F9A908"/><path d="M.7 34.5C.7 21.5 12.6 2 31 2" fill="#F9C55D"/><path d="M31 2c18.4 0 30.3 19.5 30.3 32.5S49.4 58 31 58" fill="#F7910B"/><path d="M31 2c18.4 0 30.3 19.5 30.3 32.5" fill="#EA7103"/><circle fill="#F7910B" cx="9.3" cy="31.5" r="1"/><circle fill="#F7910B" cx="4.8" cy="33.5" r="1.1"/><circle fill="#F7910B" cx="7.8" cy="29.5" r="1"/><circle fill="#F7910B" cx="12.4" cy="31.3" r="1"/><circle fill="#F9A908" cx="51.6" cy="31.8" r="1"/><circle fill="#F9A908" cx="54.1" cy="33.2" r="1"/><circle fill="#F9A908" cx="48.8" cy="24.4" r="1"/><circle fill="#F9A908" cx="48.3" cy="36" r="1.3"/><circle fill="#F9A908" cx="55.5" cy="36.1" r="1"/><circle fill="#F7910B" cx="8.3" cy="35.5" r="1"/><circle fill="#F7910B" cx="9.1" cy="27.1" r="1"/><circle fill="#F9A908" cx="3.8" cy="13.3" r="1.1"/><circle fill="#F9A908" cx="7" cy="9.8" r="1"/><circle fill="#F9A908" cx="58.2" cy="15.7" r="1"/><circle fill="#F9A908" cx="57.4" cy="12.8" r="1"/><circle fill="#F9A908" cx="60" cy="13.3" r="1"/><circle fill="#F9A908" cx="5" cy="16.3" r="1"/><path d="M38.4 26.2c0 2.6-3.3 7.2-7.4 7.2-4.1 0-7.4-4.6-7.4-7.2" fill="#F7910B"/><g transform="translate(15 11)"><circle fill="#D87703" cx="4.6" cy="7.3" r="3.5"/><path d="M30.9 7.3c0 1.9-1.6 3.5-3.5 3.5s-3.5-1.6-3.5-3.5 1.6-3.5 3.5-3.5c2 0 3.5 1.6 3.5 3.5Z" fill="#D87703"/><circle fill="#1E4784" cx="4.6" cy="6.3" r="3.5"/><path d="M4.6 2.8c1.9 0 3.5 1.6 3.5 3.5S6.5 9.8 4.6 9.8" fill="#00233F"/><path d="M30.9 6.3c0 1.9-1.6 3.5-3.5 3.5s-3.5-1.6-3.5-3.5 1.6-3.5 3.5-3.5c2 0 3.5 1.6 3.5 3.5Z" fill="#1E4784"/><path d="M27.4 2.8c1.9 0 3.5 1.6 3.5 3.5s-1.6 3.5-3.5 3.5" fill="#00233F"/><path d="M.5 5.6C.5 3.3 2.3.5 4.6.5s4.1 2.8 4.1 5.1" fill="#F9A908"/><path d="M23.3 5.6c0-2.3 1.8-5.1 4.1-5.1s4.1 2.8 4.1 5.1" fill="#F7910B"/></g><path d="M26.8 23.1c0 1.2-3.5.7-7.8.7s-7.8.6-7.8-.7c0-1.3 3.5-2.2 7.8-2.2s7.8 1 7.8 2.2Z" fill="#F9C55D"/><path d="M50.8 23.1c0 1.2-3.5.7-7.8.7s-7.8.6-7.8-.7c0-1.3 3.5-2.2 7.8-2.2s7.8 1 7.8 2.2Z" fill="#F9A908"/><g fill="#19BCA4"><path d="M25.6 16.4c-.3 1.1-2.3-.1-5-.8-2.7-.8-5-.8-4.7-1.9.3-1.1 2.7-1.3 5.4-.6 2.6.7 4.6 2.2 4.3 3.3ZM36.8 13.3c.4 1 2.3-.4 4.9-1.5 2.6-1.1 4.9-1.5 4.4-2.5-.4-1-2.9-1-5.5.2-2.5 1.1-4.2 2.8-3.8 3.8Z"/></g><path d="M33.2 26.8h-4.3c-.6 0-1.1-.5-1.1-1.1 0-.6.5-1.1 1.1-1.1h4.3c.6 0 1.1.5 1.1 1.1 0 .6-.5 1.1-1.1 1.1Z" fill="#02243E"/><g transform="translate(0 19)"><path d="M2.7 4.8v30.8c0 2.6 2.5 3.5 5.6 3.5h13.9c3.1 0 5.6-.9 5.6-3.5V4.8H2.7Z" fill="#FFFCEE"/><path d="M22.2 39c3.1 0 5.6-.9 5.6-3.5V4.8H2.7" fill="#E8E3CD"/><path d="M4.9 10.9v23.5c0 2.1 2.1 2.9 4.6 2.9H21c2.6 0 4.6-.7 4.6-2.9V10.9H4.9Z" fill="#F4CF31"/><path d="M21 37.3c2.6 0 4.6-.7 4.6-2.9V10.9H4.9" fill="#F2B233"/><g fill="#F7DF77"><path d="M10.1 33.3c0 .6-.4 1.1-.9 1.1s-.9-.5-.9-1.1V8.8c0-.6.4-1.1.9-1.1s.9.5.9 1.1v24.5ZM16.2 33.3c0 .6-.4 1.1-.9 1.1s-.9-.5-.9-1.1V8.8c0-.6.4-1.1.9-1.1s.9.5.9 1.1v24.5ZM22.2 33.3c0 .6-.4 1.1-.9 1.1s-.9-.5-.9-1.1V8.8c0-.6.4-1.1.9-1.1s.9.5.9 1.1v24.5Z"/></g><ellipse fill="#FCF0BE" cx="12.1" cy="5.8" rx="4" ry="3.3"/><path d="M28.7 3.8c.4-.4.6-.9.6-1.4 0-1.3-1.2-2.3-2.8-2.3-.7 0-1.2.2-1.7.5-.5-.3-1.1-.4-1.8-.4-.8 0-1.6.3-2.2.7-.5-.5-1.3-.8-2.1-.8-.6 0-1.2.2-1.6.5-.3-.1-.7-.2-1-.2-.3 0-.5 0-.8.1-.2-.1-.5-.1-.8-.1-.4 0-.7.1-1 .2-.5-.3-1-.5-1.6-.5-.9 0-1.6.3-2.1.8C9.2.5 8.5.2 7.6.2 7 .2 6.4.4 5.9.6 5.4.3 4.8.1 4.2.1c-1.5 0-2.8 1-2.8 2.3 0 .5.2 1 .6 1.4C1.3 4.4.8 5.2.8 6.2c0 1.8 1.8 3.3 4 3.3.5 0 1.1-.1 1.5-.3.7.8 1.8 1.3 3.1 1.3 1.4 0 2.5-.6 3.3-1.4.4.6 1.3 1 2.2 1 .2 0 .4 0 .6-.1.2 0 .4.1.6.1.9 0 1.7-.4 2.2-1 .7.9 1.9 1.4 3.3 1.4 1.3 0 2.4-.5 3.1-1.3.5.2 1 .3 1.5.3 2.2 0 4-1.5 4-3.3-.3-1-.8-1.8-1.5-2.4Z" fill="#F9F9D9"/><path d="M13.4 14.2c0 .4-.3.6-.8.6s-.8-.3-.8-.6c0-.4.3-.6.8-.6s.8.3.8.6Z" fill="#FFF399"/><circle fill="#F2B233" cx="12" cy="29.2" r="1"/><circle fill="#FFF399" cx="11.7" cy="16.7" r="1"/><circle fill="#FFF399" cx="11.4" cy="24.7" r="1"/><path d="M12.9 18.1c0 .2-.2.3-.4.3s-.4-.1-.4-.3c0-.2.2-.3.4-.3s.4.1.4.3Z" fill="#FFF399"/><circle fill="#F2B233" cx="11" cy="23.2" r="1"/><circle fill="#FFF399" cx="13.5" cy="27.7" r="1"/><circle fill="#FFF399" cx="11.8" cy="26.7" r="1"/><circle fill="#F2B233" cx="12.2" cy="25.5" r="1"/><path d="M6.6 34.4c0 .2-.2.4-.5.4s-.5-.2-.5-.4V20.5c0-.2.2-.4.5-.4s.5.2.5.4v13.9ZM6.6 18.7c0 .1-.2.1-.5.1s-.5-.1-.5-.1v-4.5c0-.1.2-.1.5-.1s.5.1.5.1v4.5Z" fill="#FFF0B3"/><path d="M28.7 3.8c.4-.4.6-.9.6-1.4 0-1.3-1.2-2.3-2.8-2.3-.7 0-1.2.2-1.7.5-.5-.3-1.1-.4-1.8-.4-.8 0-1.6.3-2.2.7-.5-.5-1.3-.8-2.1-.8-.6 0-1.2.2-1.6.5-.3-.1-.7-.2-1-.2-.2 0-.5 0-.7.1V10c.2 0 .3.1.5.1.9 0 1.7-.4 2.2-1 .7.9 1.9 1.4 3.3 1.4 1.3 0 2.4-.5 3.1-1.3.5.2 1 .3 1.5.3 2.2 0 4-1.5 4-3.3-.1-1-.6-1.8-1.3-2.4Z" fill="#FCF0BE"/><path d="M28.1 11.2h-.2v1.9h.2c1.5 0 2.7 1 2.7 2.3v12.4c0 1.2-1.2 2.3-2.7 2.3h-.2V32h.2c2.7 0 4.9-1.8 4.9-4.1V15.3c0-2.2-2.2-4.1-4.9-4.1Z" fill="#FFFCEE"/><ellipse fill="#FFF" cx="3.9" cy="1.9" rx="1.2" ry="1"/><path d="M9.5 2.5c0 .6-.5 1-1.2 1s-1.2-.4-1.2-1c0-.5.5-1 1.2-1s1.2.5 1.2 1Z" fill="#FFF"/><circle fill="#FFF" cx="3.5" cy="6" r="1"/></g></g></svg>