<svg width="62" height="58" xmlns="http://www.w3.org/2000/svg"><g fill-rule="nonzero" fill="none"><path d="M61.3 34.5C61.3 47.5 49.4 58 31 58S.7 47.5.7 34.5 12.6 2 31 2s30.3 19.5 30.3 32.5Z" fill="#F7910B"/><path d="M61.3 34.5C61.3 47.5 49.4 54 31 54S.7 47.5.7 34.5 12.6 0 31 0s30.3 21.5 30.3 34.5Z" fill="#F7910B"/><path d="M31 0c18.4 0 30.3 21.5 30.3 34.5S49.4 54 31 54" fill="#F9A908"/><path d="M61.3 34.5C61.3 47.5 49.4 54 31 54S.7 47.5.7 34.5 12.6 2 31 2s30.3 19.5 30.3 32.5Z" fill="#F9A908"/><path d="M38.4 44.2c0 2.6-3.3 7.3-7.4 7.3-4.1 0-7.4-4.7-7.4-7.3" fill="#F7910B"/><path d="M.7 34.5C.7 21.5 12.6 2 31 2" fill="#F9C55D"/><path d="M31 2c18.4 0 30.3 19.5 30.3 32.5S49.4 58 31 58" fill="#F7910B"/><path d="M31 2c18.4 0 30.3 19.5 30.3 32.5" fill="#EA7103"/><path d="M23.9 12.3c.3.8-1 .8-2.4 1.4-1.4.5-2.4 1.4-2.7.6-.3-.8.6-1.9 2-2.4 1.4-.6 2.8-.4 3.1.4Z" fill="#19BCA4"/><path d="M23.9 12.3c.3.8-1 .8-2.4 1.4-1.4.5-2.4 1.4-2.7.6" fill="#109DA0"/><path d="M38.1 12.3c-.3.8 1 .8 2.4 1.4 1.4.5 2.4 1.4 2.7.6.3-.8-.6-1.9-2-2.4-1.4-.6-2.8-.4-3.1.4Z" fill="#19BCA4"/><path d="M38.1 12.3c-.3.8 1 .8 2.4 1.4 1.4.5 2.4 1.4 2.7.6" fill="#109DA0"/><path d="M26.8 27.8c0 1.2-3.5.7-7.8.7s-7.8.6-7.8-.7c0-1.2 3.5-2.2 7.8-2.2s7.8 1 7.8 2.2Z" fill="#F9C55D"/><path d="M50.8 27.8c0 1.2-3.5.7-7.8.7s-7.8.6-7.8-.7c0-1.2 3.5-2.2 7.8-2.2s7.8 1 7.8 2.2Z" fill="#F9A908"/><circle fill="#F7910B" cx="9.3" cy="31.5" r="1"/><circle fill="#F7910B" cx="4.8" cy="33.5" r="1.1"/><circle fill="#F7910B" cx="7.8" cy="29.5" r="1"/><circle fill="#F7910B" cx="12.4" cy="31.3" r="1"/><circle fill="#F9A908" cx="51.6" cy="31.8" r="1"/><circle fill="#F9A908" cx="54.1" cy="33.2" r="1"/><circle fill="#F9A908" cx="48.8" cy="24.4" r="1"/><circle fill="#F9A908" cx="48.3" cy="36" r="1.3"/><circle fill="#F9A908" cx="55.5" cy="36.1" r="1"/><circle fill="#F7910B" cx="8.3" cy="35.5" r="1"/><circle fill="#F7910B" cx="9.1" cy="27.1" r="1"/><circle fill="#F9A908" cx="3.8" cy="13.3" r="1.1"/><circle fill="#F9A908" cx="7" cy="9.8" r="1"/><circle fill="#F9A908" cx="58.2" cy="15.7" r="1"/><circle fill="#F9A908" cx="57.4" cy="12.8" r="1"/><path d="M60.5 13.3c0 .3-.2.5-.5.5s-.5-.2-.5-.5.2-.5.5-.5c.2 0 .5.3.5.5Z" fill="#F9A908"/><circle fill="#F9A908" cx="5" cy="16.3" r="1"/><path d="M22.9 25c-.4-.1-.8-.3-1.1-.7-1.1-1.6-3.4-2-5-.9-.8.5-1.8.3-2.3-.4-.5-.7-.3-1.8.4-2.3 3.1-2.2 7.4-1.4 9.6 1.8.5.7.3 1.8-.4 2.3-.4.2-.8.2-1.2.2Z" fill="#1E4784"/><path d="M24.5 22.4c.5.7.3 1.8-.4 2.3-.4.3-.8.3-1.2.3-.4-.1-.8-.3-1.1-.7-1.1-1.6-3.4-2-5-.9-.8.5-1.8.3-2.3-.4-.5-.7-.3-1.8.4-2.3" fill="#02243E"/><path d="M39.1 25c.4-.1.8-.3 1.1-.7 1.1-1.6 3.4-2 5-.9.8.5 1.8.3 2.3-.4.5-.7.3-1.8-.4-2.3-3.1-2.2-7.4-1.4-9.6 1.8-.5.7-.3 1.8.4 2.3.4.2.8.2 1.2.2Z" fill="#1E4784"/><path d="M37.5 22.4c-.5.7-.3 1.8.4 2.3.4.3.8.3 1.2.3.4-.1.8-.3 1.1-.7 1.1-1.6 3.4-2 5-.9.8.5 1.8.3 2.3-.4.5-.7.3-1.8-.4-2.3" fill="#02243E"/><path d="M15.1 35c.5 5 7.4 11.6 15.9 11.6S46.4 40 46.9 35H15.1Z" fill="#CE1906"/><path d="M31 46.6c8.5 0 15.4-6.6 15.9-11.6H31" fill="#A80B0B"/><path d="M35.9 27.1c-2 0-3.7.7-4.9 1.9-1.3-1.2-2.9-1.9-4.9-1.9-4.3 0-9 2.9-10.9 7.9h31.4c-1.9-5-6.3-7.9-10.7-7.9Z" fill="#CE1906"/><path d="M34 35h12.9c-1.9-5-6.6-7.9-10.9-7.9-2 0-3.6.7-4.9 1.9" fill="#B51104"/><path d="M24.7 28.3c.4.4-.6 1.6-2.2 2.5-1.6.9-3.1 1.3-3.4.9-.4-.4.6-1.6 2.2-2.5 1.6-1 3.1-1.4 3.4-.9ZM19.2 38.3c.6-.4 2.3.4 3.9 1.9s2.4 3.1 1.8 3.5c-.6.4-2.3-.4-3.9-1.9s-2.4-3.1-1.8-3.5Z" fill="#E55145"/><path d="M40.3 35c-1.1-1-3.9-1.6-6.4-1.6-1.2 0-2.1.2-2.9.4-.7-.3-1.7-.4-2.9-.4-2.5 0-5.3.6-6.4 1.6.3 1 4.3 2.4 9.2 2.4 5 0 9-1.4 9.4-2.4Z" fill="#540200"/><path d="M40 35h.3c-1.1-1-3.9-1.6-6.4-1.6-1.2 0-2.1.2-2.9.4-.7-.3-1.7-.4-2.9-.4-2.5 0-5.3.6-6.4 1.6h.3" fill="#300101"/></g></svg>