<svg width="24" height="24" viewBox="0 0 24 24" fill="none" xmlns="http://www.w3.org/2000/svg">
  <path d="M7.5 5H4V7H7.5V5Z" fill="#282F35" />
  <path d="M13.5 7V5H20V7H13.5Z" fill="#282F35" />
  <path d="M11.5 11H4V13H11.5V11Z" fill="#282F35" />
  <path d="M17.5 13V11H20V13H17.5Z" fill="#282F35" />
  <path d="M5.5 17H4V19H5.5V17Z" fill="#282F35" />
  <path d="M11.5 19H20V17H11.5V19Z" fill="#282F35" />
  <path
    d="M10.5 3.5C9.67157 3.5 9 4.17157 9 5V7C9 7.82843 9.67157 8.5 10.5 8.5C11.3284 8.5 12 7.82843 12 7V5C12 4.17157 11.3284 3.5 10.5 3.5Z"
    fill="#282F35" />
  <path
    d="M13 11C13 10.1716 13.6716 9.5 14.5 9.5C15.3284 9.5 16 10.1716 16 11V13C16 13.8284 15.3284 14.5 14.5 14.5C13.6716 14.5 13 13.8284 13 13V11Z"
    fill="#282F35" />
  <path
    d="M7 17C7 16.1716 7.67157 15.5 8.5 15.5C9.32843 15.5 10 16.1716 10 17V19C10 19.8284 9.32843 20.5 8.5 20.5C7.67157 20.5 7 19.8284 7 19V17Z"
    fill="#282F35" />
</svg>
  