<svg width="24" height="24" viewBox="0 0 24 24" fill="none" xmlns="http://www.w3.org/2000/svg">
  <path fill-rule="evenodd" clip-rule="evenodd"
    d="M8.00033 8.00011L8.00001 2L6.00001 2.00011L6.00022 6.00015L2.00002 6.00011L2 8.00011L6.00033 8.00015L6.0007 15.0001C6.00079 16.6569 7.34389 17.9999 9.00067 17.9999L15.9998 18L16 22.0002L18 22.0001L17.9998 18L22 18.0001L22 16.0001L16 16V14.0001H17.9996L17.9993 9.00008C17.9992 7.3433 16.6561 6.00026 14.9993 6.00024L10 6.00019V8.00011H8.00033ZM8.00033 8.00011L8.0007 15C8.00073 15.5522 8.44843 15.9999 9.00069 15.9999L16 16L15.9993 9.00019C15.9993 8.44793 15.5516 8.00025 14.9993 8.00024L8.00033 8.00011Z"
    fill="#121A21" />
</svg>
  