<svg width="24" height="24" viewBox="0 0 24 24" fill="none" xmlns="http://www.w3.org/2000/svg">
  <path fill-rule="evenodd" clip-rule="evenodd"
    d="M13.25 6H13.5V9.25H14.6352C16.0548 10.1321 17 11.7057 17 13.5C17 16.2614 14.7614 18.5 12 18.5C9.23858 18.5 7 16.2614 7 13.5C7 11.7057 7.94517 10.1321 9.36479 9.25H10.5V6H10.75V4.75H13.25V6ZM15.25 7.2986V4.75H15.75H16.75V2.75H15.75H15.25H13.25H10.75H8.75H8.25H7.25V4.75H8.25H8.75V7.2986C6.5206 8.46937 5 10.8071 5 13.5C5 17.366 8.13401 20.5 12 20.5C15.866 20.5 19 17.366 19 13.5C19 10.8071 17.4794 8.46937 15.25 7.2986Z"
    fill="white" />
  <path opacity="0.75" fill-rule="evenodd" clip-rule="evenodd"
    d="M12 16.5C13.6569 16.5 15 15.1569 15 13.5C15 12.9536 14.8539 12.4413 14.5987 12H9.40135C9.14609 12.4413 9 12.9536 9 13.5C9 15.1569 10.3431 16.5 12 16.5Z"
    fill="white" />
</svg>
  