<svg width="64" height="58" xmlns="http://www.w3.org/2000/svg"><g fill-rule="nonzero" fill="none"><g transform="translate(1)"><path d="M61.3 34.5C61.3 47.5 49.4 58 31 58S.7 47.5.7 34.5 12.6 2 31 2s30.3 19.5 30.3 32.5Z" fill="#F7910B"/><path d="M61.3 34.5C61.3 47.5 49.4 54 31 54S.7 47.5.7 34.5 12.6 0 31 0s30.3 21.5 30.3 34.5Z" fill="#F7910B"/><path d="M31 0c18.4 0 30.3 21.5 30.3 34.5S49.4 54 31 54" fill="#F9A908"/><path d="M61.3 34.5C61.3 47.5 49.4 54 31 54S.7 47.5.7 34.5 12.6 2 31 2s30.3 19.5 30.3 32.5Z" fill="#F9A908"/><path d="M.7 34.5C.7 21.5 12.6 2 31 2" fill="#F9C55D"/><path d="M31 2c18.4 0 30.3 19.5 30.3 32.5S49.4 58 31 58" fill="#F7910B"/><path d="M31 2c18.4 0 30.3 19.5 30.3 32.5" fill="#EA7103"/><path d="M26.8 32.3c0 1.2-3.5.7-7.8.7s-7.8.6-7.8-.7c0-1.2 3.5-2.2 7.8-2.2s7.8 1 7.8 2.2Z" fill="#F9C55D"/><path d="M50.8 32.3c0 1.2-3.5.7-7.8.7s-7.8.6-7.8-.7c0-1.2 3.5-2.2 7.8-2.2s7.8 1 7.8 2.2Z" fill="#F9A908"/><circle fill="#F7910B" cx="9.3" cy="31.5" r="1"/><circle fill="#F7910B" cx="4.8" cy="33.5" r="1.1"/><circle fill="#F7910B" cx="7.8" cy="29.5" r="1"/><circle fill="#F7910B" cx="12.4" cy="31.3" r="1"/><circle fill="#F9A908" cx="51.6" cy="31.8" r="1"/><circle fill="#F9A908" cx="54.1" cy="33.2" r="1"/><circle fill="#F9A908" cx="48.8" cy="24.4" r="1"/><circle fill="#F9A908" cx="48.3" cy="36" r="1.3"/><circle fill="#F9A908" cx="55.5" cy="36.1" r="1"/><circle fill="#F7910B" cx="8.3" cy="35.5" r="1"/><circle fill="#F7910B" cx="9.1" cy="27.1" r="1"/><circle fill="#F9A908" cx="3.8" cy="13.3" r="1.1"/><circle fill="#F9A908" cx="7" cy="9.8" r="1"/><circle fill="#F9A908" cx="58.2" cy="15.7" r="1"/><circle fill="#F9A908" cx="57.4" cy="12.8" r="1"/><circle fill="#F9A908" cx="60" cy="13.3" r="1"/><circle fill="#F9A908" cx="5" cy="16.3" r="1"/></g><g transform="translate(9 12)"><circle fill="#FFF" cx="11.7" cy="11.6" r="9.3"/><path d="M11.7 22.5c-6.1 0-11-4.9-11-11s4.9-11 11-11 11 4.9 11 11-5 11-11 11Zm0-18.6C7.5 3.9 4 7.3 4 11.6c0 4.3 3.4 7.7 7.7 7.7 4.2 0 7.7-3.4 7.7-7.7 0-4.3-3.5-7.7-7.7-7.7Z" fill="#756A49"/></g><path d="M52.7 23.6c0 5.2-4.2 9.3-9.3 9.3-5.2 0-9.3-4.2-9.3-9.3 0-5.1 4.2-9.3 9.3-9.3 5.1-.1 9.3 4.1 9.3 9.3Z" fill="#FFF"/><path d="M43.3 34.5c-6.1 0-11-4.9-11-11s4.9-11 11-11 11 4.9 11 11-4.9 11-11 11Zm0-18.6c-4.2 0-7.7 3.4-7.7 7.7 0 4.3 3.4 7.7 7.7 7.7 4.2 0 7.7-3.4 7.7-7.7 0-4.3-3.4-7.7-7.7-7.7Z" fill="#756A49"/><g transform="translate(17 19)"><circle fill="#CECDCC" cx="3.6" cy="5.1" r="3.5"/><circle fill="#CECDCC" cx="26.4" cy="5.1" r="3.5"/><circle fill="#1E4784" cx="3.6" cy="4.1" r="3.5"/><path d="M3.6.6c1.9 0 3.5 1.6 3.5 3.5S5.5 7.6 3.6 7.6" fill="#00233F"/><circle fill="#1E4784" cx="26.4" cy="4.1" r="3.5"/><path d="M26.4.6c1.9 0 3.5 1.6 3.5 3.5s-1.6 3.5-3.5 3.5" fill="#00233F"/></g><path d="M2 25.5h9" fill="#FFF"/><path d="M11 27H2c-.8 0-1.5-.7-1.5-1.5S1.2 24 2 24h9c.8 0 1.5.7 1.5 1.5S11.8 27 11 27Z" fill="#756A49"/><path d="M53 25.5h9" fill="#FFF"/><path d="M62 27h-9c-.8 0-1.5-.7-1.5-1.5S52.2 24 53 24h9c.8 0 1.5.7 1.5 1.5S62.8 27 62 27Z" fill="#756A49"/><g fill="#109DA0"><path d="M24 9.9c0 .6-1.5.2-3.2 0-1.8-.2-3.2 0-3.2-.6s.8-2.3 2.6-2.1c1.7.2 3.9 2.2 3.8 2.7ZM40 10.7c0 .6 1.5.2 3.2 0 1.8-.2 3.2 0 3.2-.6-.1-.6-.8-2.3-2.6-2.1-1.7.2-3.9 2.2-3.8 2.7Z"/></g><path d="M39.4 38c0 2.6-3.3 4.7-7.4 4.7-4.1 0-7.4-2.1-7.4-4.7" fill="#F7910B"/><path d="M34 38h-4c-.6 0-1-.4-1-1s.4-1 1-1h4c.6 0 1 .4 1 1s-.4 1-1 1Z" fill="#02243E"/></g></svg>