<svg width="40" height="40" viewBox="0 0 40 40" fill="none" xmlns="http://www.w3.org/2000/svg">
<path d="M23.6625 21.625L21.2213 3.75H21.0388C16.7768 3.75724 12.6911 5.45143 9.67469 8.46225C6.65826 11.4731 4.95645 15.5556 4.94125 19.8175V20L23.6625 21.625Z" fill="#ED6C47"/>
<path d="M21.4038 3.75H21.2213V20L29.36 23.25L37.5 20V19.8175C37.4848 15.5558 35.7832 11.4735 32.767 8.46269C29.7509 5.45191 25.6655 3.75757 21.4038 3.75Z" fill="#FF8F6B"/>
<path d="M37.5 20V20.1787C37.4842 24.4412 35.7819 28.5241 32.7652 31.5355C29.7485 34.5468 25.6625 36.2418 21.4 36.25H21.0413C16.779 36.2411 12.6934 34.546 9.6768 31.5348C6.66021 28.5236 4.95776 24.441 4.94125 20.1787V20H37.5Z" fill="#D35230"/>
<path opacity="0.1" d="M22.035 11.7353V29.074C22.0328 29.369 21.9436 29.6568 21.7786 29.9014C21.6136 30.1459 21.3802 30.3364 21.1075 30.449C20.9291 30.5228 20.7381 30.5614 20.545 30.5628H8.78377C8.55549 30.3011 8.33822 30.03 8.13252 29.7503C6.05953 26.9901 4.93955 23.631 4.94127 20.179V19.8215C4.93697 16.7076 5.84854 13.6612 7.56252 11.0615C7.74047 10.7824 7.93066 10.5113 8.13252 10.249H20.545C20.9387 10.2516 21.3156 10.4089 21.5944 10.687C21.8732 10.9651 22.0314 11.3416 22.035 11.7353Z" fill="black"/>
<path opacity="0.2" d="M21.2213 12.55V29.8887C21.2196 30.081 21.181 30.2711 21.1075 30.4487C20.9947 30.7212 20.8042 30.9544 20.5596 31.1191C20.3151 31.2838 20.0274 31.3728 19.7325 31.375H9.52502C9.26752 31.1133 9.02043 30.8425 8.78377 30.5625C8.55549 30.3008 8.33822 30.0298 8.13252 29.75C6.05953 26.9898 4.93955 23.6307 4.94127 20.1787V19.8212C4.93721 16.7078 5.84877 13.6619 7.56252 11.0625H19.7313C20.1252 11.0651 20.5023 11.2226 20.7811 11.5009C21.0599 11.7792 21.218 12.1561 21.2213 12.55Z" fill="black"/>
<path opacity="0.2" d="M21.2213 12.55V28.2638C21.2177 28.6575 21.0594 29.034 20.7807 29.312C20.5019 29.5901 20.125 29.7474 19.7313 29.75H8.13252C6.05953 26.9898 4.93955 23.6307 4.94127 20.1787V19.8213C4.93721 16.7078 5.84877 13.6619 7.56252 11.0625H19.7313C20.1252 11.0651 20.5023 11.2226 20.7811 11.5009C21.0599 11.7792 21.218 12.1561 21.2213 12.55Z" fill="black"/>
<path opacity="0.2" d="M20.4075 12.55V28.2638C20.4039 28.6575 20.2457 29.034 19.9669 29.312C19.6881 29.5901 19.3112 29.7474 18.9175 29.75H8.13252C6.05953 26.9898 4.93955 23.6307 4.94127 20.1787V19.8213C4.93721 16.7078 5.84877 13.6619 7.56252 11.0625H18.9175C19.3115 11.0651 19.6885 11.2226 19.9673 11.5009C20.2461 11.7792 20.4042 12.1561 20.4075 12.55Z" fill="black"/>
<path d="M3.99247 11.0625H18.915C19.3103 11.0622 19.6895 11.2188 19.9694 11.498C20.2492 11.7771 20.4068 12.156 20.4075 12.5513V27.4488C20.4068 27.844 20.2492 28.2229 19.9694 28.5021C19.6895 28.7812 19.3103 28.9378 18.915 28.9375H3.99247C3.7966 28.9382 3.60253 28.9001 3.4214 28.8256C3.24027 28.7511 3.07565 28.6415 2.93697 28.5032C2.7983 28.3648 2.68831 28.2005 2.61332 28.0195C2.53832 27.8386 2.4998 27.6446 2.49997 27.4488V12.5513C2.4998 12.3554 2.53832 12.1614 2.61332 11.9805C2.68831 11.7995 2.7983 11.6352 2.93697 11.4969C3.07565 11.3585 3.24027 11.249 3.4214 11.1744C3.60253 11.0999 3.7966 11.0618 3.99247 11.0625Z" fill="url(#paint0_linear_5550_57261)"/>
<path d="M11.6163 15.0363C12.5875 14.9723 13.5501 15.2539 14.3338 15.8313C14.6557 16.1179 14.9082 16.4741 15.0719 16.8728C15.2357 17.2715 15.3064 17.7023 15.2788 18.1325C15.2894 18.7384 15.1277 19.3349 14.8125 19.8525C14.4928 20.3612 14.0332 20.767 13.4888 21.0213C12.8664 21.3102 12.1861 21.453 11.5 21.4388H9.60877V24.9388H7.67627V15.0363H11.6163ZM9.60752 19.9263H11.2713C11.7987 19.9637 12.3217 19.8077 12.7425 19.4875C12.9145 19.3235 13.0484 19.1238 13.1348 18.9024C13.2211 18.681 13.2579 18.4434 13.2425 18.2063C13.2425 17.1154 12.6071 16.5696 11.3363 16.5688H9.60752V19.9263Z" fill="white"/>
<defs>
<linearGradient id="paint0_linear_5550_57261" x1="5.61747" y1="9.89251" x2="17.29" y2="30.1075" gradientUnits="userSpaceOnUse">
<stop stop-color="#CA4C28"/>
<stop offset="0.5" stop-color="#C5401E"/>
<stop offset="1" stop-color="#B62F14"/>
</linearGradient>
</defs>
</svg>
