<svg width="10" height="12" viewBox="0 0 10 12" fill="none" xmlns="http://www.w3.org/2000/svg">
  <path fill-rule="evenodd" clip-rule="evenodd" d="M1.5 0C0.671573 0 0 0.671573 0 1.5V10.5C0 11.3284 0.671573 12 1.5 12H8.5C9.32843 12 10 11.3284 10 10.5V3.91421C10 3.51639 9.84196 3.13486 9.56066 2.85355L7.14645 0.43934C6.86514 0.158035 6.48361 0 6.08579 0H1.5ZM1 1.5C1 1.22386 1.22386 1 1.5 1H5V3.5C5 4.32843 5.67157 5 6.5 5H9V10.5C9 10.7761 8.77614 11 8.5 11H1.5C1.22386 11 1 10.7761 1 10.5V1.5ZM9 4V3.91421C9 3.78161 8.94732 3.65443 8.85355 3.56066L6.43934 1.14645C6.34557 1.05268 6.21839 1 6.08579 1H6V3.5C6 3.77614 6.22386 4 6.5 4H9Z" fill="currentColor" />
</svg>