<svg width="16" height="16" viewBox="0 0 16 16" fill="none" xmlns="http://www.w3.org/2000/svg">
  <path fill-rule="evenodd" clip-rule="evenodd" d="M10 3H2V5H5V12H7V5H10V3Z" fill="currentColor" />
  <path opacity="0.75" fill-rule="evenodd" clip-rule="evenodd" d="M8.15564 14.1973C8.36658 14.3848 8.65564 14.4785 9.02283 14.4785C9.96033 14.4785 10.6908 13.8633 11.2142 12.6328C11.5447 11.8536 11.9541 10.3094 12.4426 8H14V7H12.645L12.7084 6.61523L12.931 5.76562C13.0834 5.17969 13.2474 4.73438 13.4232 4.42969C13.6029 4.125 13.8021 3.97266 14.0209 3.97266C14.099 3.97266 14.1537 3.99219 14.1849 4.03125C14.2123 4.07422 14.226 4.10938 14.226 4.13672C14.226 4.15625 14.1927 4.22266 14.1263 4.33594C14.0638 4.44531 14.0326 4.55273 14.0326 4.6582C14.0326 4.81055 14.0912 4.94336 14.2084 5.05664C14.3256 5.16992 14.4642 5.22656 14.6244 5.22656C14.7885 5.22656 14.9291 5.16992 15.0463 5.05664C15.1674 4.93945 15.2279 4.78516 15.2279 4.59375C15.2279 4.26953 15.1107 4.02539 14.8763 3.86133C14.6459 3.69727 14.349 3.61523 13.9857 3.61523C13.5326 3.61523 13.0912 3.80078 12.6615 4.17188C12.306 4.48438 12.0131 4.89648 11.7826 5.4082C11.556 5.91602 11.4076 6.31836 11.3373 6.61523L11.2513 7H10V8H11.0161L10.7338 9.19336C10.2416 11.5059 9.91736 12.9004 9.76111 13.377C9.60486 13.8574 9.37634 14.0977 9.07556 14.0977C9.01697 14.0977 8.96814 14.0859 8.92908 14.0625C8.88611 14.0391 8.86462 14.0059 8.86462 13.9629C8.86462 13.9277 8.89783 13.8613 8.96423 13.7637C9.02673 13.6699 9.05798 13.5742 9.05798 13.4766C9.05798 13.293 8.99744 13.1465 8.87634 13.0371C8.75134 12.9316 8.61072 12.8789 8.45447 12.8789C8.29431 12.8789 8.15173 12.9375 8.02673 13.0547C7.89783 13.1719 7.83337 13.3262 7.83337 13.5176C7.83337 13.7832 7.9408 14.0098 8.15564 14.1973Z" fill="currentColor" />
</svg>