<svg xmlns="http://www.w3.org/2000/svg" viewBox="0 0 2048 2048" style="enable-background:new 0 0 2048 2048" xml:space="preserve"><style>.st0{display:none}.st1{display:inline}.st2{fill:#e6ff00}.st3{fill:#fff}.st6{fill:#00ffc1}.st8{fill:#e6d200}</style><g id="Ebene_2"><circle class="st2" cx="1024" cy="1024" r="868.12"/><path d="M1024 155.88c479.45 0 868.12 388.67 868.12 868.12s-388.67 868.12-868.12 868.12S155.88 1503.45 155.88 1024 544.55 155.88 1024 155.88M1024 0C459.36 0 0 459.36 0 1024s459.36 1024 1024 1024 1024-459.36 1024-1024S1588.64 0 1024 0z"/><circle cx="1301.8" cy="801.47" r="170.47"/><circle class="st3" cx="1352.31" cy="760.43" r="46.3"/><circle cx="746.2" cy="801.47" r="170.47"/><circle class="st3" cx="796.71" cy="760.43" r="46.3"/><path class="st2" d="M511.02 463.78h1025.97v243.08H511.02z"/><path d="M469.79 598.65h1108.42v155.88H469.79zM403.68 1155.71h1240.63v93.53H403.68z"/></g></svg>