<svg xmlns="http://www.w3.org/2000/svg" viewBox="0 0 1965 2048" style="enable-background:new 0 0 1965 2048" xml:space="preserve"><style>.st0{display:none}.st1{display:inline}.st2{fill:#e6ff00}.st3{fill:#fff}.st6{fill:#00ffc1}.st8{fill:#e6d200}</style><g id="Ebene_9"><path d="M1815.23 982.39c0 459.97-372.88 420.97-832.84 420.97s-832.84 39-832.84-420.97 372.88-832.84 832.84-832.84 832.84 372.88 832.84 832.84z" style="fill:#e5e5e5"/><path d="M982.39 149.55c459.97 0 832.84 372.88 832.84 832.84 0 393.26-272.62 421.79-639.15 421.79-62.17 0-126.99-.82-193.69-.82-66.68 0-131.55.82-193.69.82-366.57 0-639.15-28.5-639.15-421.79 0-459.96 372.88-832.84 832.84-832.84m0-149.55C440.7 0 0 440.7 0 982.39c0 239.79 89.31 405.48 265.44 492.47 147.37 72.78 339.3 78.87 523.26 78.87 30.84 0 62.34-.2 94.39-.4 32.56-.21 65.7-.42 99.3-.42 33.62 0 66.75.21 99.3.42 32.05.2 63.54.4 94.39.4 183.94 0 375.86-6.09 523.25-78.88 176.14-86.99 265.45-252.68 265.45-492.45 0-541.7-440.7-982.4-982.39-982.4z"/><circle cx="1336.54" cy="768.9" r="249.87"/><circle cx="628.24" cy="768.9" r="249.87"/><path class="st3" d="M524.33 1540.65h916.12v357.81H524.33z"/><path d="M1440.45 1540.65v357.81H524.33v-357.81h916.12m0-149.55H524.33c-82.59 0-149.55 66.96-149.55 149.55v357.81c0 82.59 66.96 149.55 149.55 149.55h916.12c82.59 0 149.55-66.96 149.55-149.55v-357.81c0-82.6-66.96-149.55-149.55-149.55z"/><path d="M723.61 1965.38c-24.78 0-44.86-20.09-44.86-44.86v-427.43c0-24.78 20.09-44.86 44.86-44.86 24.78 0 44.86 20.09 44.86 44.86v427.43c.01 24.78-20.08 44.86-44.86 44.86zM982.38 1965.38c-24.78 0-44.86-20.09-44.86-44.86v-427.43c0-24.78 20.09-44.86 44.86-44.86 24.78 0 44.86 20.09 44.86 44.86v427.43c0 24.78-20.08 44.86-44.86 44.86zM1241.14 1965.38c-24.78 0-44.86-20.09-44.86-44.86v-427.43c0-24.78 20.09-44.86 44.86-44.86 24.78 0 44.86 20.09 44.86 44.86v427.43c0 24.78-20.08 44.86-44.86 44.86zM1023.52 1031.85l123.6 123.6L876 1179.37z"/><path d="m1023.52 1031.85 123.6 123.6L876 1179.37l147.52-147.52m0-39.88c-10.21 0-20.41 3.89-28.2 11.68L847.8 1151.17c-11.86 11.86-15.03 29.87-7.94 45.07 6.59 14.12 20.75 23.01 36.12 23.01 1.17 0 2.34-.05 3.52-.16l271.12-23.92a39.872 39.872 0 0 0 33.97-26.1 39.908 39.908 0 0 0-9.28-41.83l-123.6-123.6c-7.77-7.78-17.98-11.67-28.19-11.67z"/></g></svg>