<svg version="1.1" id="Ebene_1" xmlns="http://www.w3.org/2000/svg" x="0" y="0" viewBox="0 0 1753 2048" style="enable-background:new 0 0 1753 2048" xml:space="preserve"><style>.st1{fill:#ff0097}.st2{fill:#fff}</style><path d="M860.46 133.36c6.62 0 13.23.02 19.9.05 317.7 1.47 575.09 37.73 574.89 80.98-.2 42.35-247.24 75.7-555.72 75.7-6.62 0-13.23-.02-19.9-.05-317.7-1.47-575.09-37.73-574.89-80.98.2-42.34 247.24-75.7 555.72-75.7m0-133.36C705.21 0 559.1 8.24 449.05 23.19c-59.6 8.1-106.01 17.69-141.9 29.33-117.67 38.15-135.57 114.07-135.76 155.93-.2 42.24 17.34 118.95 136.97 158.07 36.36 11.89 85.48 22.24 146.01 30.77 114.35 16.11 265.16 25.39 424.64 26.12 6.88.03 13.69.05 20.51.05 155.25 0 301.36-8.23 411.42-23.19 59.6-8.1 106.02-17.69 141.9-29.33 117.67-38.16 135.56-114.08 135.76-155.93.2-42.24-17.34-118.95-136.97-158.07-36.35-11.89-85.48-22.24-146.01-30.77C1191.27 10.06 1040.46.79 880.98.05 874.1.02 867.28 0 860.46 0z"/><circle cx="875.55" cy="1171.95" r="742.69" style="fill:#ff73ff"/><path d="M875.48 429.25c1.18 0 2.33 0 3.51.01 410.17 1.9 741.15 335.95 739.25 746.12-1.89 409-334.05 739.26-742.61 739.26-1.18 0-2.33 0-3.51-.01-410.17-1.9-741.15-335.95-739.25-746.12 1.89-409 334.05-739.25 742.61-739.26m0-133.36c-233.14.01-452.57 90.6-617.87 255.09C92.25 715.52.59 934.61-.49 1167.89c-2.24 483.05 388.94 877.86 871.99 880.1l4.13.01c233.14 0 452.57-90.59 617.88-255.08 165.36-164.55 257.02-383.64 258.1-616.92 2.24-483.05-388.94-877.86-871.99-880.1l-4.14-.01z"/><path d="M885.76 1392.6h-.72c-78.46-.37-142.02-59.81-141.68-132.49l80.02.36c-.13 28.57 27.7 51.95 62.04 52.11h.35c34.18 0 62.04-23.05 62.17-51.53l80.02.36c-.35 72.48-64.07 131.18-142.2 131.19z"/><circle class="st1" cx="406.53" cy="1314.15" r="164.74"/><circle class="st1" cx="1346.37" cy="1318.5" r="164.74"/><circle cx="1252.82" cy="979.08" r="230.95"/><path class="st2" d="M1252.79 748.13h1.09c127.55.59 230.47 104.47 229.88 232.02-.59 127.18-103.88 229.88-230.93 229.88h-1.09c-127.55-.59-230.47-104.47-229.88-232.02.6-127.18 103.89-229.88 230.93-229.88m0-64.31c-162.04 0-294.48 131.84-295.23 293.89-.37 78.87 30 153.15 85.51 209.18 55.51 56.02 129.51 87.08 208.38 87.44h1.39c162.04 0 294.48-131.84 295.23-293.89.37-78.87-30-153.15-85.51-209.18-55.51-56.02-129.51-87.08-208.38-87.44h-1.39z"/><circle class="st2" cx="1321.5" cy="923.8" r="62.73"/><circle cx="500.09" cy="975.6" r="230.95"/><path class="st2" d="M500.07 744.65h1.09c127.55.59 230.47 104.47 229.88 232.02-.59 127.18-103.88 229.88-230.93 229.88h-1.09c-127.55-.59-230.47-104.47-229.88-232.02.59-127.18 103.88-229.88 230.93-229.88m0-64.31c-162.04 0-294.48 131.84-295.23 293.89-.75 162.8 131.08 295.87 293.89 296.62h1.39c162.04 0 294.48-131.84 295.23-293.89.37-78.87-30-153.15-85.51-209.18-55.51-56.02-129.51-87.08-208.38-87.44h-1.39z"/><circle class="st2" cx="568.78" cy="920.32" r="62.73"/><circle class="st2" cx="1325.93" cy="1038.05" r="18.53"/><circle class="st2" cx="1264.66" cy="1013.82" r="18.53"/><circle class="st2" cx="564.42" cy="1034.52" r="18.53"/><circle class="st2" cx="503.15" cy="1010.3" r="18.53"/><path d="M862.94 163.48c9.04 0 18.11.02 27.27.06 301.19 1.39 545.25 25.47 545.12 53.77-.13 27.44-229.8 48.79-518.32 48.79-9.04 0-18.12-.02-27.28-.06-301.19-1.39-545.25-25.47-545.12-53.77.13-27.45 229.82-48.79 518.33-48.79m0-44.46c-141.21 0-273.13 5.08-371.46 14.3-49.33 4.62-88.4 10.13-116.15 16.37-22.43 5.04-74.96 16.86-75.17 62.37-.21 46.09 52.19 57.99 77.38 63.7 29.24 6.64 70.38 12.6 122.28 17.72 104.3 10.29 242.7 16.33 389.71 17.01 9.22.04 18.37.06 27.48.06 141.21 0 273.13-5.08 371.45-14.3 49.32-4.62 88.4-10.13 116.15-16.37 22.43-5.04 74.96-16.86 75.17-62.37.21-46.09-52.19-57.99-77.38-63.7-29.24-6.64-70.38-12.6-122.28-17.72-104.3-10.29-242.7-16.33-389.71-17.01-9.22-.04-18.35-.06-27.47-.06z" style="fill:#e6ff00"/></svg>