<svg xmlns="http://www.w3.org/2000/svg" viewBox="0 0 2048 2048" style="enable-background:new 0 0 2048 2048" xml:space="preserve"><style>.st0{display:none}.st1{display:inline}.st2{fill:#e6ff00}.st3{fill:#fff}.st6{fill:#00ffc1}.st8{fill:#e6d200}</style><g id="Ebene_16"><circle cx="1024" cy="1024" r="868.12" style="fill:#8aff00"/><path d="M1024 155.88c479.45 0 868.12 388.67 868.12 868.12s-388.67 868.12-868.12 868.12S155.88 1503.45 155.88 1024 544.55 155.88 1024 155.88M1024 0C459.36 0 0 459.36 0 1024s459.36 1024 1024 1024 1024-459.36 1024-1024S1588.64 0 1024 0z"/><circle cx="1265.89" cy="803.34" r="170.47"/><circle class="st3" cx="1265.89" cy="803.34" r="91.08"/><circle cx="782.11" cy="803.34" r="170.47"/><circle class="st3" cx="782.11" cy="803.34" r="91.08"/><path d="m1358.14 1582.16-42.18-20.18c-75.08-35.91-123.6-112.87-123.6-196.06 0-87.49 52.07-166.05 132.66-200.14l43.07-18.22 36.43 86.14-43.07 18.22c-45.9 19.42-75.57 64.17-75.57 114 0 47.38 27.65 91.23 70.42 111.69l42.19 20.18-40.35 84.37zM689.86 1582.16l-40.35-84.38 42.19-20.18c42.78-20.46 70.42-64.3 70.42-111.69 0-49.84-29.66-94.59-75.56-114l-43.07-18.22 36.43-86.14 43.07 18.22c80.59 34.09 132.66 112.65 132.66 200.14 0 83.19-48.52 160.15-123.6 196.06l-42.19 20.19z"/><path d="M761.18 1328.98h522.2v93.53h-522.2z"/><path transform="rotate(-50.612 1383.79 490.245)" d="M1305.91 348.67h155.88v283.19h-155.88z"/><path transform="rotate(-39.388 664.125 490.248)" d="M522.55 412.33h283.19v155.88H522.55z"/></g></svg>