<svg version="1.1" id="Ebene_1" xmlns="http://www.w3.org/2000/svg" x="0" y="0" viewBox="0 0 1551 2048" style="enable-background:new 0 0 1551 2048" xml:space="preserve"><style>.st1{fill:#00ffc1}.st2{fill:#fff}</style><circle cx="774.99" cy="775.49" r="657.44" style="fill:#e6ff00"/><path d="M774.99 118.05c363.09 0 657.44 294.35 657.44 657.44s-294.35 657.44-657.44 657.44c-363.09 0-657.44-294.35-657.44-657.44S411.9 118.05 774.99 118.05m0-118.05C347.39 0-.5 347.89-.5 775.49s347.89 775.49 775.49 775.49 775.49-347.89 775.49-775.49S1202.6 0 774.99 0z"/><path d="M398.63 938.45s219.93 48.24 478.07 55.83c237.29 6.98 373.38-56.72 373.38-56.72s-240.57 319.31-505.99 257.38c-261.71-61.08-345.46-256.49-345.46-256.49z"/><path d="M812.94 1238.19c-26.11 0-51.78-2.91-76.88-8.77-275.99-64.4-366.27-268.37-369.97-277.02l-27.12-63.28 67.25 14.73c2.17.47 219.97 47.62 471.53 55.03 226.22 6.66 356.04-52.8 357.32-53.4l129.03-60.39-85.73 113.78c-2.57 3.41-64.11 84.48-160.09 158.63-103.28 79.77-207.4 120.69-305.34 120.69zm-341.4-249.83c44.91 57.27 131.47 137.29 280.61 172.08 150.49 35.11 296.29-69.01 384.5-152.07-64.76 13.45-152.72 24.49-260.99 21.31-166.96-4.91-316.61-26.27-404.12-41.32z"/><path class="st1" d="M932.17 1028.3c-88.98-5.23-109.52 36.84-109.52 52 0 0-204.18-14.49-207.67 15.17s207.67 76.77 207.67 76.77v171.46c0 15.16 12.4 27.56 27.56 27.56 5.25 0 10.12-1.56 14.31-4.14v105.53c0 21.88 17.9 39.78 39.78 39.78 11.5 0 21.8-5.02 29.08-12.89v80.62c0 27.12 22.19 49.3 49.3 49.3 27.12 0 49.3-22.18 49.3-49.3v-471.15c.01-27.1-25.78-76.35-99.81-80.71z"/><path d="M917.38 1027.86c4.7 0 9.64.14 14.79.45 74.03 4.35 99.82 53.6 99.82 80.72v471.15c0 27.12-22.19 49.3-49.3 49.3-27.12 0-49.3-22.19-49.3-49.3v-80.62c-7.28 7.86-17.59 12.89-29.08 12.89-21.88 0-39.78-17.9-39.78-39.78v-105.53c-4.19 2.57-9.06 4.14-14.31 4.14-15.16 0-27.56-12.4-27.56-27.56v-171.46s-211.16-47.11-207.67-76.77c1.77-15 54.87-18.71 106.94-18.71 50.86 0 100.73 3.54 100.73 3.54 0-14.29 18.21-52.46 94.72-52.46m0-52.84c-66.48 0-109.78 4.08-135.37 32.2-17.64-.71-38.71-1.29-60.09-1.29-34.08 0-60.95 1.44-82.16 4.41-72.34 10.13-91.66 47.39-95.13 76.85-4.84 41.13 19.56 73.94 72.53 97.5 20.18 8.97 46.43 18.2 80.25 28.21 18.92 5.6 37.78 10.7 54.4 15v115.8c0 33.24 16.56 62.68 41.87 80.5v48.45c0 46.23 28.51 85.92 68.86 102.43v5.08c0 66.24 53.89 120.13 120.13 120.13s120.13-53.89 120.13-120.13v-471.15c0-68.66-58.35-127.07-166.49-133.43-6.43-.38-12.81-4.57-18.95-4.57v4.01z"/><circle class="st1" cx="992.97" cy="1920.76" r="56.41"/><path d="M992.97 1864.36c31.15 0 56.41 25.25 56.41 56.41 0 31.15-25.25 56.41-56.41 56.41-31.15 0-56.41-25.25-56.41-56.41 0-31.16 25.25-56.41 56.41-56.41m0-70.84c-70.16 0-127.24 57.08-127.24 127.24S922.81 2048 992.97 2048s127.24-57.08 127.24-127.24c-.01-70.16-57.08-127.24-127.24-127.24z"/><circle cx="585.19" cy="684.52" r="129.1"/><circle class="st2" cx="623.44" cy="653.45" r="35.06"/><circle cx="1061.74" cy="684.52" r="129.1"/><circle class="st2" cx="1100" cy="653.45" r="35.06"/><path class="st1" d="m902.88 540.64 355.93 68.04"/><path transform="rotate(-79.176 1080.87 574.661)" d="M1021.82 393.47h118.06v362.38h-118.06z"/><path class="st1" d="m755.57 556.38-355.94 68.04"/><path transform="rotate(-10.827 577.433 590.3)" d="M396.41 531.37h362.38v118.06H396.41z"/></svg>