<svg version="1.1" id="Ebene_1" xmlns="http://www.w3.org/2000/svg" x="0" y="0" viewBox="0 0 2048 1036" style="enable-background:new 0 0 2048 1036" xml:space="preserve"><style>.st0{stroke:#fff;stroke-miterlimit:10}.st0,.st1{fill:#fff}</style><path class="st0" d="M1134.59 5.76c-113.04-16.91-221.47 4.72-326.03 48.56-88.09 36.94-173.88 87.57-237.45 160.03-72.99 83.2-97.75 187.68-100.68 296.33-2.97 110.31 38.07 203.29 119.72 277.29 81.8 74.15 189.43 128.34 290.85 170.41 91.89 38.11 187.42 48.57 280.68 9.27 179.17-75.5 312.52-287.1 317.25-479.21 3.22-130.55-76.16-231.06-126.86-345.32-45.17-101.83-144.39-124.77-246-138.52-4.66-.63-10.16 5.96-3.51 6.86 99.16 13.43 194.84 35.28 239.63 134.3 17.61 38.95 33.96 76.53 55.49 113.69 27.86 48.09 54.33 95.61 64.93 150.73 35.69 185.61-74.06 393.71-221.05 503.25-89.34 66.57-194.78 90.17-302.53 57.53-96.19-29.14-194.09-82.42-277.19-138.73-80.84-54.77-152.83-130.52-174.2-228.71-22.05-101.33-5.25-232.16 45.89-322.54 51.14-90.37 139.05-154.05 230.59-199.12 115.06-56.65 238.6-88.43 366.95-69.24 4.67.7 10.16-5.87 3.52-6.86z"/><path class="st0" d="M514.21 298.24c-76.88-12.54-157.38-24.44-234.55-7.3-48.42 10.75-147.24 45.96-118.25 112.11 31.01 70.77 134.26 99.84 202.07 115.98 96.1 22.88 188.98 42.4 282.07 77 92.49 34.38 183.93 65.54 281.65 81.68 100.68 16.62 202.85 21.57 304.72 24.1 107.18 2.66 214.5 2.42 321.52 9.68 74.18 5.04 154.71 19.53 224.02-15.93 61.42-31.42 105.98-126.41 33.81-173.83-38.96-25.6-95.9-29.83-140.4-38.64-62.94-12.45-126.39-21.78-190.16-28.72-2.27-.25-10.52 3.44-8.17 3.69 83.41 9.07 166.23 22.46 248.07 40.99 37.76 8.55 84.27 14.69 105.74 51.34 17.09 29.16 14.44 66.89-1.85 95.77-56.51 100.13-206.64 64.32-300.97 59.31-85.22-4.53-170.58-5.07-255.89-6.85-168.65-3.52-338.81-12.43-500.31-65.3-76.09-24.91-149.61-57.34-226.6-79.57-67.15-19.39-136.87-28-203.97-47.47-53.93-15.64-235.47-92.27-149.9-169.54 82.63-74.61 219.81-51.02 319.19-34.82 2.25.38 10.61-3.28 8.16-3.68z"/><path class="st0" d="M488.26 325.04c-85.66-.26-183.56 1.04-263.21 36.83-23.92 10.75-66.44 33.04-73.2 61.66-7.06 29.88 32.3 68.03 49.79 87.45 63.72 70.81 159.87 96.85 246.82 127.36 100.77 35.36 202.34 63.97 307.79 81.39 224.51 37.09 455.39 55.52 682.68 64.13 153.63 5.82 381.62 15.8 488.27-121.09 22.8-29.27 36.07-65.27 17.05-99.92-22.13-40.32-69.48-53.12-111.17-61.24-122.16-23.79-245.96-41.18-369.21-58.19-4.36-.6-10.28 5.49-3.64 6.41 89.2 12.31 178.24 25.76 267.06 40.56 68.87 11.48 256.93 24.22 209.26 140.21-33.31 81.05-133.77 117.24-212.83 132.57-89.75 17.4-182.7 17.75-273.72 14.54-184.89-6.53-370.01-23.61-553.67-45.48-90.75-10.81-181.41-23.95-270.09-46.45-86.6-21.97-170.95-52.47-254.77-83.18-44.08-16.15-88.78-33.55-126.01-62.87-35.74-28.14-95.51-84.78-72.49-134.05 9.37-20.05 47.23-35.64 67.3-43.45 27.46-10.68 56.74-16.35 85.8-20.5 52.53-7.5 105.54-10.44 158.57-10.28 4.22.01 10.29-6.39 3.62-6.41z"/><path class="st0" d="M491.47 286.29c-106.87-.31-212.72 18.64-312.21 57.99-50.42 19.94-164.91 72.46-90.6 138.21 35.43 31.35 86.49 50.26 129.39 69.38 50.87 22.68 103.04 42.4 155.99 59.65 104.78 34.13 212.52 58.52 320.96 77.74 229.78 40.71 463.62 64.88 695.35 91.83 119.67 13.91 241.06 22.77 361.1 7.99 78.13-9.61 168.94-30.56 217.86-98.34 25.68-35.57 27.36-65.56 3.97-101.71-26.78-41.39-56.5-78.18-104.16-95.27-59.46-21.32-126.79-27-188.66-38.53-71.56-13.33-143.11-26.67-214.67-40-4.74-.88-10.07 5.75-3.48 6.98l310.9 57.93c53.51 9.97 108.94 16.82 148.89 57.54 33.36 34.01 74.14 84.72 49.69 132.89-44.57 87.83-161.52 106.68-249.24 114.69-107.06 9.78-214.69 1.87-321.21-10.28-194.17-22.15-389.01-44.99-582.37-73.33-185.7-27.22-371.27-64.98-545.91-135.37-52.31-21.09-106.06-43.7-154.21-73.29-26.04-16.01-51.23-38.14-40.78-71.53 9.11-29.1 41.91-43.64 67.48-55.4 108.03-49.71 226.34-73.09 344.97-72.75 5.57 0 7.68-7 .95-7.02z"/><path class="st0" d="M507.02 270.39c-24.26 4.15-48.52 8.29-72.78 12.44-3.52.6-8.87 6.01-2.33 6.56 29.53 2.5 56.89.22 85.61-7.05 3.61-.91 6.34-5.83.98-6.31-101.29-9.19-205.9-7.14-303.09 25.88-63.37 21.53-179.19 71.66-172.67 154.75 8.54 109 168.96 120.96 247.58 138.6 130.96 29.38 262.01 58.39 393.5 85.32 254.87 52.2 512.21 99.03 772.16 116.05 120.63 7.9 245.94 13.74 366.34-.41 81.82-9.61 169.04-40.76 200.87-123.93 15.23-39.79 14.01-85.76-13.91-119.61-30.94-37.49-81.56-49.32-126.88-59.04-141.72-30.37-284.77-55.1-428.12-76.35-4.47-.66-10.23 5.59-3.59 6.57 118 17.49 235.59 37.68 352.59 60.96 84.42 16.8 229.51 30.82 219.4 148.87-10.2 119.09-137.97 152.83-237.21 159.28-115.83 7.54-232.83 3.88-348.51-4.49-228.82-16.55-455.48-55.85-680.27-100.54-109.28-21.73-218.23-45.1-327.03-69.11-54.41-12.01-108.77-24.19-163.13-36.4-54.58-12.27-120.5-19.29-166.9-52.74-147.34-106.18 74.36-213.9 164.44-235.21 57.65-13.64 117.26-17.81 176.38-16.45 9.05.21 59.37 7.04 61.92 1.66-4.69 9.9-48.15.13-54.63 7.19 6.87-7.48 47.62-8.14 58.22-9.95 5.11-.87 7.81-7.7 1.06-6.54z"/><path class="st0" d="M469.89 291.73c-74.75 6.1-148.19 20.93-219.08 45.57a860.676 860.676 0 0 0-105.63 44.79c-6.18 3.12-12.32 6.34-18.42 9.61-5.68 3.05-25.23 16.84-10.09 9.46 21.59-10.53 41.76-31.24 61.01-45.64 4.17-3.12-3.94-3.67-5.89-2.71-37.65 18.61-71.84 46.73-90.05 85.53-15.89 33.84-12.44 76.83 29.22 86.65 3.07.72 11.61-3.96 6.09-5.26-64.15-15.12-24.9-92.03 1.88-121.19 8.58-9.34 17.24-15.57 26.68-23.82 1.57-1.37 22.82-16.78 5.86-7.02-19.25 11.09-37.13 27.77-54.91 41.07-4.5 3.37 5 3.31 7 2.15 112.21-64.85 235.77-103.34 364.93-113.88 4.8-.38 8.28-5.87 1.4-5.31z"/><path class="st0" d="M106.46 413.63c-5.73 28.32 16.91 48.12 37.54 63.65 25.43 19.14 53.11 34.47 82.42 46.79 2.6 1.09 11.64-2.86 7.98-4.4-26.3-11.06-51.33-24.54-74.54-41.2-21.55-15.47-49.64-36.18-43.55-66.27.63-3.18-9.25-1.56-9.85 1.43z"/><path class="st0" d="M95.83 438.39c32.44 35.12 70.17 63.58 112.86 85.11 2.56 1.29 10.49-2.78 9.32-3.37-42.68-21.54-80.42-50-112.86-85.11-1.68-1.83-10.85 1.71-9.32 3.37z"/><path class="st0" d="M158.77 332.07c-24.74 26.06-48.42 53.02-70.51 81.38-16.19 20.78-39.23 44.78-44.71 71.63-10.68 52.37 54.13 79.36 91.29 97.67 127.94 63.01 265.21 105.24 404.66 133.88 306.49 62.94 625.37 67.06 937.02 80.7 137.91 6.03 281.34-3.02 397.31-85.83 4.29-3.06-5.59-2.54-7.76-.99-126.87 90.59-285.39 87.88-434.24 79.44-136.87-7.77-273.89-12.93-410.72-21.26-265.32-16.16-534.29-47.4-782.66-147.58-32.38-13.06-64.29-27.27-95.61-42.7-28.67-14.12-73.46-31.51-86.38-64.55-14.73-37.67 19.46-73.19 40.89-100.66 22.1-28.34 45.77-55.32 70.51-81.38 2.5-2.62-7.16-1.78-9.09.25z"/><path class="st0" d="M178.67 526.66c9.81 20.81 26.28 28.04 46.52 37.68 31.67 15.09 64.46 27.99 97.68 39.23 64.83 21.93 131.61 36.31 199.55 44.31 5.03.59 10.01-6.67 3.35-7.46-57.83-6.82-114.79-18.12-170.51-35.14a950.945 950.945 0 0 1-72.87-25.53c-27.89-11.07-80.25-26.94-93.82-55.75-2.11-4.46-11.92-1.63-9.9 2.66z"/><path class="st0" d="M140.28 567.19c133.39 67.28 275.22 114.26 422.44 139.77 3.27.57 11.99-3.89 5.89-6.02-66.01-22.97-132.03-45.95-198.04-68.92-33.01-11.49-66.01-22.97-99.02-34.46-17.67-6.15-38.12-17.01-56.58-19.69-28.18-4.09-18.41.63 1.31 6.21 130.18 36.83 261.07 82.11 395.9 98.05 3.14.37 10.38-4.31 4.76-6.21-80.37-27.2-160.75-54.41-241.12-81.61-64.13-21.71-163.36-36.27-203.21-96.74l-7.5 5.07c95.74 26.82 191.47 53.63 287.21 80.45 3.54.99 11.71-3.83 5.89-6.02a6927.949 6927.949 0 0 0-318.56-111.13c-2.74-.88-11.39 3.38-6.82 5.63 145.53 71.62 292.24 142.63 451.16 179.21 3.43.79 11.79-3.63 5.89-6.02-81.39-32.89-164.1-62.26-248.19-87.47-18.68-5.6-37.42-10.99-56.21-16.19-.89-.24-25.11-8.93-28.23-7.65-16.56 6.83 6.89 7.61 9.55 8.96 17.7 9.01 46.83 10.87 66.41 15.6 24.56 5.94 49.07 12.06 73.54 18.36 41.59 10.71 83.05 21.94 124.37 33.68 43.06 12.24 86.88 30.25 130.72 39.04-10.07-2.02 23.84 9.41 20.39-.7-.5-1.45-24.66-6.72-28.75-7.86-21.53-6-42.99-12.25-64.39-18.71-42.79-12.94-85.3-26.8-127.49-41.58-10.49-3.68-61.88-18.3-26.83-3.58 17.59 7.39 38.01 10.48 56.49 15.29a3074.31 3074.31 0 0 0 128.1 30.43c81.43 17.5 163.57 31.69 246.14 42.59 164.8 21.77 331.38 30.19 497.54 25.28 97.5-2.88 194.85-10.36 291.64-22.47 75.08-9.39 154.36-16.37 221.18-54.72 5.25-3.01-1.7-6.15-5.25-4.33-73 37.34-151.14 62.49-232.62 72.65-40.56 5.06-81.55 6.54-122.36 4.27-10.91-.61-50.08-3.8-15.53 3.08 13.36 2.66 31.26-.22 45.12-.55 38.98-.93 77.93-3.08 116.78-6.45 17.38-1.51 97.76-2.33 101.74-16.39-1.41 4.96-67.66 14.09-70.01 14.51-19.12 3.37-38.33 6.27-57.58 8.77-38.55 5.01-77.32 8.35-116.14 10.34-161.93 8.27-323.81-7.56-484.41-26.87-79.37-9.54-158.64-20-238.09-28.87-39.71-4.43-79.47-8.5-119.29-11.85-40.26-3.39-81.63-3.03-117.74-23.58-2.27 1.88-4.55 3.75-6.82 5.63a6400.649 6400.649 0 0 0 662.88 111.18c4.32.49 10.31-5.52 3.64-6.4-207.16-27.32-414.33-54.65-621.49-81.97-3.28-.43-10.33 5.18-4.76 6.21l239.98 44.46 119.99 22.23c8.2 1.52 56.64 9.17 21.4 1.45-17.73-3.89-38.41-2.46-56.58-4.43-146.19-15.81-289.04-60.77-437.38-45.46-2.57.27-8.88 4.78-3.5 6.19 230.83 60.32 469.41 72.99 706.81 81.62.26.01 37.96 4.9 32.87-5.22-.91-1.8-42.98-1.34-45.77-1.44A6981.923 6981.923 0 0 1 897.4 726.9c-126.88-9.41-253.44-22.43-379.63-38.61-3.21-.41-10.39 4.99-4.76 6.21 246.76 53.29 498.78 82.24 751.38 80.34 123.79-.93 247.53-9 370.3-25.01 56.47-7.36 114.16-14.39 169.62-27.66 34.82-8.33 65.67-21.41 86.42-51.62 2.27-3.31-3.78-3.65-5.45-3.26-136.39 31.74-276.05 47.05-416.11 44.14-67.92-1.41-135.76-6.96-203.01-16.65a1623.547 1623.547 0 0 1-84.96-14.55c-7.93 7.45-4.27 9.99 10.97 7.6 28.56 10.11 67.82 7.81 97.9 10.11 68.04 5.2 136.29 6.93 204.51 7.3 34.11.19 72.64 4.78 106.24-.27 10-1.5 33.65-1.57 3.09-2.25-16.81-.38-35.16 4.37-51.98 6.01-141.43 13.74-283.74 6.7-425.33-.3-4.18-.21-10.44 5.54-3.64 6.4 154.96 19.46 310.9 25.9 466.93 19.41 3.91-.16 8.53-6.3 2.38-6.38-134.33-1.66-268.65-.37-402.93 3.84-4.01.13-8.46 5.5-2.38 6.38 172.35 24.68 346.55 21.95 518.04-8.14 3.42-.6 8.93-5.85 2.38-6.38-87.43-6.96-174.55-4.43-261.43 7.64-3.53.49-8.83 6.16-2.38 6.38 117.15 3.84 242.39 7.1 351.04-43.98 41.5-19.51 91.74-49.27 109.05-94.58 13.67-35.76.52-76.12-36.26-89.89-2.31-.87-5.27.38-7 1.87-19.07 16.51-6.71 37.23 5.18 54.8 4.25 6.28 20.77 22.3 17.61 28.72-9.5 4.19-18.99 8.37-28.49 12.56-4.79-7.23-8.67-14.89-11.64-22.98-10.36-23.16-19.08-47.32-28.56-70.86-2.63 1.44-5.26 2.89-7.89 4.33 58.66 13.52 73.84 80.58 47.63 128.79-30.74 56.55-95.82 77.61-153.2 95.63-4.44 1.4-5.86 6.83.23 6.11 109.55-13.05 205.24-78.9 255.41-177.37-3.22.06-6.43.11-9.65.17-37.19 100.85-143.04 135.43-237.25 162.63-3.21.93-6.62 6.15-1.03 6.13 88.19-.37 280.56-36.48 278.67-156.24-.07-4.64-9.86-2.86-9.96 1-1.42 58.36-78.9 100.76-124.86 124.38-51.24 26.34-106.44 41.56-163.66 47.16-5.18.51-7.97 6.69-1.12 6.35 127.62-6.21 321.53-33.8 328.58-199.16.2-4.68-9.31-2.76-9.96 1-19.8 115.29-137.83 155.36-236.22 183.37-4.54 1.29-5.78 6.92.23 6.11 43.92-5.93 85.9-18.83 124.56-40.79 35.07-19.91 83.55-52.17 95.79-93.37 9.74-32.79-6.46-56.48-37.15-67.17-57.13-19.89-118.62-30.7-178.2-40.15-4.35-.69-10.25 5.35-3.64 6.4 43.19 6.85 86.02 15.43 128.36 26.39 35.67 9.23 89.81 16.82 82.95 65.81-5.65 40.38-51.77 72.26-83.45 91.85a315.522 315.522 0 0 1-67.06 31.25c-10.23 3.37-43.24 14.47-48.1 13.77 19.91 2.84 56.64-14.79 78.61-23.54 26.58-10.58 52.41-23.42 75.41-40.55 40.24-29.97 69.3-70.51 77.87-120.39-3.32.33-6.64.67-9.96 1-3.25 76.14-59.58 134.54-127.9 161.87-42.47 16.99-88.26 23.16-133.56 26.7-6.37.5-46.88-1.74-44.78 8.38.2.95 27.07-3.93 32.08-4.86 55.92-10.43 109.73-31.4 158.01-61.5 38.97-24.3 95.87-60.02 97.12-111.32-3.32.33-6.64.67-9.96 1 1.04 65.7-66.66 101.69-120.03 122.52-33.82 13.2-68.89 20.36-104.82 24.69-6.51.78-46.38 10.39-14.53-.02 13.25-4.33 26.64-8.08 39.83-12.62 76.78-26.43 149.73-69.51 179.08-149.1 1.46-3.97-8.26-2.56-9.65.17-32.49 63.78-84.27 115.12-149.47 145.32-23.05 10.68-63.99 25.95-82.65 28.51 24.73-3.39 54.47-18.35 76.02-29.89 42.13-22.55 83.12-61.66 86.32-112.37 2.66-42.23-23.85-80.59-65.05-90.08-2-.46-9.31.82-7.89 4.33 6.29 15.61 44.51 149.53 84.97 103.55 10.9-12.39 3.81-29.54-3.26-41.92-4.11-7.2-10.13-12.76-14.64-19.63-9.09-13.87-9.11-39.39 13.94-26.03 23 13.33 13.14 59.14 3.88 76.96-46.89 90.25-187.05 114.96-277.66 121.59-42.13 3.08-84.42 2.92-126.63 1.92-5.85-.14-25.74-5.27-26.01 3.25.02-.52 25.15-3.05 28.78-3.43 28.82-3.06 57.76-5.03 86.73-5.87 28.54-.83 57.14-.56 85.67.81-.59-.03 27.58-.04 28.93 1.74l2.21-2.66c-9.75 1.66-19.51 3.23-29.29 4.72a1605.154 1605.154 0 0 1-154.88 15.75c-51.43 2.71-102.97 2.93-154.41.64-18.14-.81-147.03-17.45-149.27-9.68 2.26-7.84 156.54-3.39 168.66-3.53 51.5-.58 103-.71 154.5-.39 9.88.06 75.9-1.39 34.09-4.61-29.22-2.25-59.61 1.47-89.04 1.47-55.19.01-110.39-1.7-165.48-5.07-27.55-1.69-55.07-3.8-82.55-6.33-12.49-1.15-24.98-2.37-37.45-3.69-7.82-.83-37.72-7.93-44.87-5.13-18.55 7.28 27.42 6.77 26.34 6.72 14.99.71 29.97 1.41 44.96 2.05 29.99 1.27 59.98 2.38 89.99 3.07 110.24 2.55 220.46-.66 329.59-17.44 3.47-.53 8.83-6.43 2.38-6.38-156.69 1.3-313.6 1.84-468.98-21.18-3.29-.49-10.32 5.08-4.76 6.21 167.47 34.06 339.17 43.55 509.28 26.3 41.04-4.16 81.91-9.87 122.53-17.06 17.17-3.04 34.3-6.33 51.37-9.9-2.24.47 28.3-6.54 28.44-6.22 5.15 11.08-31.93 27.6-38.81 30.54-42.6 18.18-93.95 21.35-139.4 28.24-46.35 7.02-92.88 12.88-139.52 17.64-183.8 18.78-369.21 20.27-553.41 6.46-88.73-6.65-177.2-16.85-265.14-30.38a3534.22 3534.22 0 0 1-144.92-25.42c-11.99-2.36-52.79-15.95-60.13-9.41-8.19 7.29 16.15 4.8 20.67 5.36 15.15 1.88 30.31 3.7 45.47 5.48 209.77 24.58 420.57 39.42 631.69 45.14 4.24.11 10.35-6.16 3.64-6.4-214.32-7.59-430.06-15.18-640.89-57.67a1853.92 1853.92 0 0 1-72.25-16.03c-4.23-1.03-25.74-5.78-25.32-4.39-.25-.84 61.21-2.17 55.04-2.2 49.48.29 98.74 6.36 147.54 14.07 100.88 15.93 200.55 38.77 303.13 40.2 2.78.04 10.7-5.11 4.76-6.21-69.99-12.97-139.99-25.94-209.98-38.9-22.32-4.14-176.72-44.01-184.59-27.92 2.49-5.1 92.64 12.22 106.11 13.99 35.37 4.66 70.74 9.33 106.11 13.99 68.21 9 136.43 17.99 204.64 26.99 32.84 4.33 65.69 8.66 98.53 13 17.68 2.33 35.37 4.66 53.05 7l22.74 3c7.38-8.18 3.54-10.82-11.52-7.9-30.36-11.04-74.06-9.09-105.95-13.41a6368.81 6368.81 0 0 1-98.17-14.07c-142.96-21.65-285.06-48.45-426.19-79.82-2.42-.54-11.59 2.92-6.82 5.63 33.23 18.91 69.52 20.48 106.91 23.5 54.77 4.42 109.43 10.14 164.01 16.48 111.67 12.98 223.05 28.43 334.92 39.58 207.13 20.65 417.44 25.18 620.92-24.89 4.66-1.15 5.69-6.97-.23-6.11-101.03 14.81-202.65 21.7-304.76 20.51-4.06-.05-10.53 5.66-3.64 6.4 106.46 11.38 213.99-.15 315.04-36.06 19.4-6.89 55.64-14.84 70.41-29.49 7.99-7.92 1.15-3.96-7.98-2.28-6.75 1.24-16.68 6.81-22.84 9-15.81 5.61-31.86 9.88-48.27 13.35-61.3 12.97-124.58 19.44-186.84 25.88-249.43 25.81-501.96 20.85-750.24-14.28-144.57-20.46-287.36-51.51-427.62-92.03-3.57-1.03-11.7 3.89-5.89 6.02a3251.912 3251.912 0 0 0 284.11 89.63c3.58.95 11.75-4.15 5.89-6.02a5330.872 5330.872 0 0 0-453.51-122.47c-3.58-.8-11.79 4.47-5.89 6.02 66.03 17.32 131.46 36.74 196.09 58.75 32.3 11 64.4 22.6 96.27 34.8 10.73 4.1 36.97 20.8 46.38 12.26-3.93 3.56-42.04-10.88-48.26-12.65-135.04-38.53-261.55-100.79-387.12-162.58-2.27 1.88-4.55 3.75-6.82 5.63 48.88 15.73 97.61 31.92 146.13 48.72 46.65 16.16 96.72 42.56 144.96 52.1 6.78 1.34 27.77 8.48 11.82-1.75-9.28-5.95-24.98-7-35.9-10.06-23.93-6.7-47.87-13.41-71.8-20.11l-157.97-44.25c-2.43-.68-9.97 1.32-7.5 5.07 30.85 46.82 90.77 59.49 140.69 76.39 80.37 27.2 160.75 54.41 241.12 81.61 15.65 5.3 38.01 17.14 53.47 15.81-8.23.71-44.98-8.91-62.32-12.47-38.81-7.98-77.12-18.12-115.27-28.72-78.26-21.74-156.34-44.17-234.5-66.28-3.57-1.01-11.72 3.99-5.89 6.02 66.01 22.97 132.03 45.95 198.04 68.92 33.01 11.49 66.01 22.97 99.02 34.46 18.09 6.3 37.78 16.2 56.58 19.69 27.06 5.03 19.79 1.46-.08-2.38C400 668.83 270.29 623.62 148.11 562c-3.41-1.74-12.33 2.92-7.83 5.19z"/><path class="st0" d="M1476.87 461.35c58.96 51.49 145.52 46.46 211.26 87.13 33.22 20.55 78.9 53.69 91.22 92.35 10.17 31.9-16.99 52.62-36.75 58.99 17.13-5.52 34.04-15.89 49.15-25.56 26.28-16.81 54.74-38.68 71.57-65.33 21.72-34.39.69-55.34-30.69-70.95-77.16-38.38-162.59-56.67-248.44-58.07-1.3-.02-10.85 2.66-7.23 4.11 51.9 20.79 108.16 31.17 157.9 57.22 30.62 16.04 111.22 74.04 71.88 115.86 3.15-.54 6.3-1.08 9.44-1.63-84.25-116.62-229.23-174.65-370.68-150.49-2.44.42-9.27 4.51-2.99 4.08 105.62-7.37 218.22-14.85 315.98 33.8 14.82 7.37 102.77 58.17 87.12 80.19-6.54 9.21-13.4-6.2-20.24-13.68-7.46-8.16-14.71-16.5-21.78-25-18.3-22.01-34.93-45.17-50.57-69.13-2.71 1.15-5.42 2.3-8.13 3.44 7.85.17 99.68 10.34 84.98 31.33-.81 1.16 8.06.79 9.78-1.67 16.29-23.27-77.19-33.65-88.4-33.9-.95-.02-9.39 1.51-8.13 3.44 29.26 44.81 62.64 85.78 100.65 123.47 1.7 1.68 7.85-.4 9.15-2.02 32.58-40.67-70.57-93.69-97.02-105.5-70.87-31.63-149.41-36.46-225.96-33.84-21.37.73-47.38-1.25-68.11 3.78-18.56 4.51 10.48 1.02 14.24.7 12.75-1.1 25.56-1.43 38.36-1.1 37.34.95 74.45 7.9 109.78 19.97 73.41 25.08 136.71 71.97 182.08 134.78 1.66 2.3 7.92-.01 9.44-1.63 34.47-36.64-23.09-88.33-52.01-107.27-23.59-15.45-49.85-25.88-76.42-34.93-17.03-5.8-34.35-10.7-51.49-16.18-9.72-3.1-33.99-6.83-41.22-13.41-7.54-.79-3.92-.72 10.86.23a563.444 563.444 0 0 1 94.87 13.22c40.14 9.11 79.64 22.43 116.78 40.24 16.12 7.73 39.09 16.69 44.86 35.98 6.95 23.22-12.78 43.41-26.94 58.22-30.08 31.48-67.95 54.06-108.37 69.5-4.19 1.6-3.52 3.9.86 3.22 20.73-3.22 46.49-7.4 59.1-26.54 23.8-36.14-20.32-78.74-44.63-100.32-34.05-30.23-73.35-52.6-117.02-65.47-48.62-14.33-99.24-20.52-138.81-55.08-2.05-1.8-10.97 1.98-9.28 3.45zM112.38 486.55c-.49-116.58 168.32-138.22 255.51-135.58 22.91.69 45.75 3.53 68.25 7.82 5.35 1.02 19.6 1.58 23.7 4.6 4.02 2.96-10.06 1.16-16.26 1.73-29.12 2.68-58.12 6.79-86.73 12.87-56.18 11.93-111.61 31.23-160.73 61.38-21.36 13.11-103.94 75.47-63.72 103.94 2.03 1.44 8.55-.24 9.54-2.56 13.22-31.02 7.27-62.88 16.12-94.76 11.89-42.81 51.29-63.32 90.37-77.33 12.1-4.34 114.24-30.01 114.4-26.89.17 3.24-79.01 33.22-87.92 37.27-33 15.02-65.55 31.02-97.58 48.01-8.54 4.53-17.05 9.13-25.51 13.8-14.67 5.07-17.29 7.56-7.87 7.46 16.26-4.32 40.72-26.53 55.18-34.43C275.59 372.09 360 349.4 446.82 344.7c2.79-.15 10.74-4.58 4.22-4.22C333 346.88 221.35 386.21 125.6 455.6c-4.14 3 5.21 1.86 6.7 1.02 79.67-45.19 162.15-84.4 247.54-117.56 4.25-1.65 3.47-3.75-.86-3.22-80.19 9.72-221.03 29.6-233.81 130.19-2.04 16.08.95 39.35-5.27 53.94-11.87 27.84-4.32-8.5-.56-17.42 15.48-36.75 58.28-60.79 91.93-77.9 74.63-37.93 157.83-52.56 240.68-57.7.96-.06 9.77-3.14 6.16-4.1-80.63-21.32-164.79-21.94-245.18 1.12-61.55 17.65-130.75 51.67-130.44 125.24.01 1.81 9.9.33 9.89-2.66z"/><path class="st0" d="M1135.45 3.45c-62.75-2.31-123.9 4.69-184.49 21.19 1.87 3.45 3.73 6.91 5.6 10.36 59.01-22.84 120.24-28.39 182.46-16.92 3.21-4.02 6.41-8.04 9.62-12.06-147.03-7.48-299.99 10.55-422.16 99.18-9.88 7.16 3.45 11.89 10.38 8.26 102.09-53.53 213.61-80.9 328.93-79.89 2.46-4.14 4.92-8.27 7.38-12.41-7.3-.06-14.6-.11-21.9-.17-.73 3.95-1.45 7.89-2.18 11.84 54.51-17.8 109.42-13.32 160.47 12.54 3.82-3.78 7.65-7.56 11.47-11.34-192.39-13.17-397.93-5.2-563.4 105.79-140.84 94.47-230.49 268.06-174.38 436.44 6.6-1.77 13.19-3.53 19.79-5.3-48.27-110.24 34.11-235.36 102.69-318.27C676.94 166.6 767.48 99.18 871.82 58.83c10.96-4.24 3.78-12.86-5.6-10.36-201.5 53.73-430.34 254.47-330.66 484.04 6.34-2.24 12.69-4.47 19.03-6.71-56.42-58.72-37.87-139.95-18.61-210.51-6.63.71-13.26 1.41-19.88 2.12-16.58 74.75-19.5 150.17-9 225.96 1.07 7.7 18.87 2.46 19.84-3.71 6.34-40.45-1.45-76.57-23.65-111.02-3.69-5.73-20.62-.57-19.03 6.71l22.2 102.14c6.34-2.24 12.69-4.47 19.03-6.71-11.52-19.27-16.56-36.14-18.43-58.09-6.6 1.77-13.19 3.53-19.79 5.3 2.28 14.76 4.55 29.51 6.83 44.27 6.6-1.77 13.19-3.53 19.79-5.3-2.4-13.6-5.62-24.51-11-37.23-2.97-7.03-18.72-3.17-19.84 3.71-3.17 19.56-4.09 38.28-3.18 57.97.33 7.2 19.34 2.9 19.84-3.71 1.14-15.27 2.28-30.55 3.43-45.82-5.29 2.31-10.58 4.61-15.87 6.92 10.16 3.38 20.28 7.34 29.52 12.8 8.83 5.21 20.61 21.27 29.53 24.04 8.43 2.61 2.94-2.32 2.16-12.69-.99-13.05-1.56-25.63 1.06-38.56 8.05-39.8 31.44-76.98 50.24-112.51 37.88-71.6 76.12-150.39 133.79-208.39C795.04 101.68 890.23 77.1 972.09 54.3c90.32-25.16 183.12-31.33 276.08-19.88.73-3.95 1.45-7.89 2.18-11.84-42.01 14.57-82.55 8.82-125.25 1.47-2.37 4-4.74 8-7.1 12 56.26-6.47 112.55 3.7 161.85 32.14 12.02 6.94 27.22 15.37 36.58 25.92 12.12 13.65 7.49 20 8.85 35.85 1.55 17.99 7.59 31.57 16.69 46.92 13.72 23.16 25.53 42.39 28.46 69.58 2.67 24.81 1.11 48.68 7.16 73.19 11.15 45.15 35.92 85.47 59.94 124.74 3.47 5.67 21.86.06 19.03-6.71-28.08-67.18-2.32-155.91-64.15-207.35-5.64 3.06-11.28 6.12-16.92 9.19 52.26 40.61 83.22 98.23 89.68 163.9 6.6-1.77 13.19-3.53 19.79-5.3-34.92-103.07-74.13-213.5-166.59-279.24-97.05-69.01-223.47-73.72-337.49-60.19-66.53 7.89-132.75 20.38-198.62 32.44-52.87 9.68-105.16 23.48-148.87 56.18-90.88 67.99-146.62 188.72-183.69 292.72-2.67 7.5 17.3 5.14 19.88-2.12 35.97-100.92 91.77-222.91 181.49-287.2 48.88-35.02 109.02-43.96 166.82-53.89 58.29-10.01 116.46-21.33 175.32-27.53 112.69-11.87 238.01-2.12 328.18 74.23 77.71 65.8 112.15 166.46 143.79 259.88 2.64 7.8 20.57 2.6 19.79-5.3-6.72-68.29-39.85-126.87-93.91-168.87-5.17-4.02-22.85 4.25-16.92 9.19 60.62 50.44 35.07 138.59 62.64 204.54 6.34-2.24 12.69-4.47 19.03-6.71-35.86-58.64-60.74-110.71-64.87-179.8-1.41-23.56-4.47-43.01-15.88-63.66-5.46-9.88-12.3-18.95-17.74-28.85-11.72-21.34-8.82-26.41-11.48-49.74-4.46-39.12-52.14-59.84-85.04-73.02-44.95-18.01-92.58-22.96-140.46-17.45-4.63.53-18.05 10.11-7.1 12 47.46 8.18 93.73 14.18 140.13-1.91 6.62-2.3 13.14-10.49 2.18-11.84-91.23-11.24-183.16-6-272.23 17.15-79.69 20.71-175.69 45.6-241.3 97.94-63.24 50.45-102.41 126.51-140.6 196.08-32.69 59.54-102.88 153.07-60.85 222.32 1.38 2.28 5.77 2.33 7.97 2.08 11.54-1.28 14.78-2.19 24.07-9.23 2.29-1.74 5.1-4.66 2.84-7.58-20.3-26.24-44.89-43.2-76.33-53.67-4.38-1.46-15.43 1.02-15.87 6.92-1.14 15.27-2.28 30.55-3.43 45.82 6.61-1.24 13.22-2.47 19.84-3.71-.91-19.59.2-35.84 3.27-54.79-6.61 1.24-13.22 2.47-19.84 3.71 5.38 12.72 8.6 23.63 11 37.23 1.35 7.66 21.04 2.79 19.79-5.3-2.28-14.76-4.55-29.51-6.83-44.27-1.2-7.75-20.47-2.73-19.79 5.3 1.94 22.69 8.33 41.47 19.94 60.9 3.51 5.88 20.6.5 19.03-6.71l-22.2-102.14c-6.34 2.24-12.69 4.47-19.03 6.71 21.13 32.78 28.1 66.44 22.05 105.03 6.61-1.24 13.22-2.47 19.84-3.71-10.39-74.99-7.28-148.93 9.09-222.77 1.87-8.45-17.93-5.06-19.88 2.12-19.83 72.64-37.68 156.24 20.21 216.5 4.09 4.26 22.24.68 19.03-6.71C459.63 306.8 673.8 111.84 869.22 59.72c-1.87-3.45-3.73-6.91-5.6-10.36-110.98 42.92-207.4 115.73-281.68 208.49-67.27 84-146.99 208.17-98.72 318.4 3.2 7.31 22.32 2.3 19.79-5.3-54.32-163.01 30.2-332.19 167.19-424.08C829.83 39.81 1028.29 33.74 1213.64 46.43c3.92.27 20.46-6.78 11.47-11.34-56.74-28.75-118.65-33.27-179.05-13.55-6.06 1.98-13.54 11.75-2.18 11.84 7.3.06 14.6.11 21.9.17 8.22.06 20.73-12.29 7.38-12.41-120.56-1.05-237.66 26.83-344.48 82.84 3.46 2.75 6.92 5.5 10.38 8.26 116.69-84.65 261.86-100.96 402.18-93.82 5.71.29 21.14-9.94 9.62-12.06C1081.53-6.42 1014.1.1 948.37 25.54c-10.93 4.23-3.79 12.92 5.6 10.36 57.24-15.58 114.8-22.23 174.09-20.05 8.31.31 20.75-11.91 7.39-12.4zM524.9 714.88c-61.56 37.19 90.77 139.09 119.13 155.54 92.07 53.37 197.08 104.09 301.49 126.48 95.61 20.5 188.23 4.69 275.58-37.69 44.96-21.81 87.54-48.52 128.61-76.9 34.89-24.11 68.66-51.3 75.79-95.38 1.25-7.71-15.27-1.77-17.7.09l-142.79 109.07c5.23.85 10.46 1.71 15.68 2.56 31.89-30.31 63.78-60.62 95.67-90.94 8.1-7.7-11.35-6.6-15.68-2.56-23.84 22.22-47.69 44.44-71.53 66.66-8.38 7.81 11.41 5.94 15.68 2.56l43.37-34.34c-5.23-.85-10.46-1.71-15.68-2.56-124.98 118.81-300.35 197.86-470.64 131.6-69.85-27.18-138.46-66.14-201.45-106.62-61.93-39.81-117.23-89.09-147.8-157.37-6.37 2.13-12.74 4.26-19.12 6.39 34.83 53.86 77.67 99.55 129.18 137.78 4.28 3.18 23.41-1.45 18.45-7.49-21.46-26.09-46.76-41.58-79.25-50.19-3.15-.84-20.45 3.39-15.37 8.77 55.88 59.27 120.8 106.99 193.91 142.84 5.17 2.54 23.58-5.03 15.88-9.08-47.1-24.76-90.83-53.88-131.87-87.7-6.15 2.5-12.3 4.99-18.45 7.49 93.95 59.6 194.1 106.89 299.95 141.21 4.59 1.49 24.17-4.82 15.88-9.08-99.94-51.41-233.13-70.22-288.25-180.51-6.37 2.13-12.74 4.26-19.12 6.39 75.96 104.96 189.1 174.75 316.68 196.62 3.7.64 22.41-5.53 14.09-9.57-97.7-47.47-195.42-94.95-293.13-142.43-3.84-1.86-22.52 3.4-17.16 8.28 142.34 129.75 339.54 226.31 528 134.08 7.81-3.82 1.54-8.47-4.55-7.52-76.38 11.95-153.08 18.49-230.38 19.61-6.84.1-21.2 10.51-7.92 10.38 187.84-1.78 367.81-80.63 495.77-218.27 5.62-6.04-13.71-4.19-16.99-1.24-103.25 93.07-222.54 163.85-353.78 209.73-8.61 3.01-6.58 10.18 2.31 8.61 138.84-24.63 262.97-98.86 348.48-211.3 5.4-7.1-14.82-3.45-18.29.07-101.91 103.35-228.54 193.22-378.35 199.78-6.79.3-21.13 10.96-7.92 10.38 160.22-7.01 295.18-99.3 404.56-210.23-6.1.02-12.2.05-18.29.07-80.41 105.73-196.19 177.96-327.23 201.21l2.31 8.61c133.98-46.84 256.46-119.32 361.89-214.36-5.66-.41-11.33-.83-16.99-1.24-121.32 130.5-291.3 206.12-469.56 207.81l-7.92 10.38c78.93-1.14 157.35-7.78 235.35-19.98-1.52-2.51-3.03-5.01-4.55-7.52-177.51 86.87-366.04-16.7-497.5-136.53l-17.16 8.28c97.71 47.48 195.42 94.96 293.14 142.45 4.7-3.19 9.39-6.38 14.09-9.57-125.49-21.51-235.96-91-310.54-194.05-3.22-4.45-21.67 1.28-19.12 6.39 56.28 112.61 190.16 131.81 292.16 184.29 5.29-3.03 10.59-6.05 15.88-9.08C817 952.03 717.51 905.46 624.45 846.42c-4.73-3-23.78 3.09-18.45 7.49 41.83 34.46 86.48 64.09 134.44 89.29 5.29-3.03 10.59-6.05 15.88-9.08-72.26-35.44-136.16-82.71-191.34-141.24-5.12 2.92-10.25 5.85-15.37 8.77 30.07 7.97 53.48 23.76 73.1 47.62 6.15-2.5 12.3-4.99 18.45-7.49-51.52-38.23-94.36-83.92-129.19-137.78-2.98-4.6-21.49 1.1-19.12 6.39 33.57 74.97 95.9 126.88 164.5 169.25 74.04 45.73 155.75 94.55 240.91 115.19 164.86 39.97 332.67-43.32 449.94-154.8 8.33-7.92-11.44-5.92-15.68-2.56l-43.37 34.34c5.23.85 10.46 1.71 15.68 2.56 23.84-22.22 47.69-44.44 71.53-66.66-5.23-.85-10.46-1.71-15.68-2.56-31.89 30.31-63.78 60.63-95.67 90.94-8.39 7.98 11.48 5.77 15.68 2.56l142.79-109.07-17.7.09c-7.41 45.78-44.95 72.07-81.02 96.33-33.44 22.49-67.74 44.02-103.73 62.23-97.18 49.19-197.76 59.73-302.36 28.47-76.47-22.86-150-58.65-220.91-94.92-35.69-18.26-70.73-38.42-101.63-64.13-12.95-10.78-89.29-79.55-59.2-97.73 11.4-6.88-6.08-8.63-12.03-5.04z"/><path class="st0" d="M1438.15 439.48c14.11 85.75 1.08 170.39-37.9 247.97-2.45 4.88 16.37 1.97 18.9-1.79 54.75-81.14 83.16-173.85 83.11-271.73 0-6.04-18.02.74-19.72 4.15-38.02 76.14-12.53 169.71-61.58 241.36-4.43 6.47 15 3.82 18.16-.57 26.37-36.6 41.94-76.09 47.05-121.05.73-6.44-18.55-2.49-19.65 3-9.38 47.08-21.99 93.01-37.98 138.27-2 5.66 17.21 1.79 19.65-3 33.07-64.93 65.43-134.16 60.94-208.87-2.23-37.16-14.84-69.28-34.66-100.5-18.94-29.84-39.11-56.9-44.91-92.54-6.6 1.77-13.19 3.53-19.79 5.3 21.28 42.97 31.96 87.13 32.68 135.08 6.6-1.77 13.19-3.53 19.79-5.3-19.9-30.6-33.62-62.42-42.2-97.9-1.43-5.9-18.38-.13-19.72 4.15-5.01 16.02-5.9 28.39-3.28 44.91.97 6.14 18.16-.3 19.72-4.15 15.25-37.63-6.18-70.24-23.7-103.28-19.89-37.52-25.65-82.17-49.21-117.59-39.13-58.84-116.9-70.27-181.54-78.29-4.16 3.12-8.33 6.24-12.49 9.36 77.43 8.14 166.35 22.42 201.43 101.76 5.97-2.31 11.93-4.63 17.9-6.94-71.68-30.29-137.19-70.85-196.34-121.37-5.17 2.76-10.33 5.53-15.5 8.29 174.23 25.15 250.63 200.9 300.94 348.25 6.6-1.77 13.19-3.53 19.79-5.3-28.61-52.98-57.21-105.96-85.83-158.93-21.77-40.3-43.03-82.87-76.65-114.86-63.69-60.62-157.83-64.04-240.64-66.05-6.4-.16-21.35 9.21-8.15 9.53 88.94 2.16 185.35 8.42 246.86 81.51 28.79 34.21 48.39 75.92 69.52 115.04 25.04 46.36 50.07 92.71 75.1 139.07 2.82 5.22 21.64.12 19.79-5.3-51.67-151.3-130.27-326.62-308.24-352.31-2.41-.35-20.67 3.88-15.5 8.29 59.91 51.16 126.3 92.07 198.84 122.73 3.01 1.27 20.31-1.5 17.9-6.94-36.44-82.4-128.5-97.38-208.73-105.82-5.07-.53-23.06 8.05-12.49 9.36 71.77 8.91 152.05 23.16 185.81 95.53 13.78 29.53 19.85 61.76 34.75 90.94 17.22 33.71 42.56 67.26 26.73 106.33 6.57-1.38 13.15-2.77 19.72-4.15-2.36-14.88-1.36-28.23 3.14-42.61-6.57 1.38-13.15 2.77-19.72 4.15 8.58 35.48 22.3 67.3 42.2 97.9 3.28 5.04 19.88 1.03 19.79-5.3-.72-47.94-11.4-92.11-32.68-135.08-2.61-5.27-20.76-.67-19.79 5.3 10.87 66.85 69.96 110.8 78.39 179.84 9.56 78.35-25.05 151.88-59.62 219.76l19.65-3c15.99-45.26 28.6-91.19 37.98-138.27l-19.65 3c-4.99 43.89-19.68 82.69-45.56 118.62l18.16-.57c49.85-72.82 24.52-166.6 63.07-243.79-6.57 1.38-13.15 2.77-19.72 4.15.05 95.98-27.8 187.44-81.48 267 6.3-.6 12.6-1.19 18.9-1.79 39.35-78.33 52.26-163.85 38.04-250.28-.87-5.3-20.79-.82-19.78 5.32zM751.17 132.92c69.24-13.35 138.91-16.71 209.15-10.62.68-4.1 1.37-8.21 2.05-12.31-55.62 10.77-110.84 10.11-166.22-1.54l-6.99 12.42c50.94-4.51 101.92-7.54 153.03-9.09 7.92-.24 17-12.65 4.74-12.81-10.52.36-20.94-.65-31.25-3.02-7.41-1.43-23.39 9.84-11.76 12.08 12.1 2.33 23.35 3.63 35.75 3.79l4.74-12.81c-51.11 1.55-102.09 4.58-153.03 9.09-5.1.45-17.83 10.14-6.99 12.42 60.78 12.78 120.21 13.03 181.14 1.24 7.46-1.44 12.49-11.41 2.05-12.31-73.83-6.4-146.82-2.34-219.57 11.69-12.33 2.38-8.96 14.11 3.16 11.78z"/><path class="st0" d="M793.18 83.3h217.6c6.93 0 21.18-10.42 7.91-10.42l-131.43-.03c-2.64 3.47-5.27 6.95-7.91 10.42 30.86-.37 61.19 1.83 91.7 6.66 3.37-3.42 6.74-6.84 10.1-10.26-91.28 3.43-182.55 6.85-273.83 10.28-4.14.16-21.32 8.79-10.1 10.26l105.63 13.83 7.62-10.08c-47.45 7.55-94.9 15.09-142.35 22.64-5.83.93-18.26 10.13-5.43 10.24l92.21.78c.92-3.23 1.84-6.46 2.75-9.7-27.05 8.95-54.11 17.9-81.16 26.85-5.73 1.89-13.85 9.2-2.75 9.7 24.54 1.1 47.91-.34 72.14-4.37-.77-2.88-1.54-5.77-2.32-8.65-27.37 10.1-54.74 20.2-82.1 30.3-5.85 2.16-8.85 9.16-.17 8.83l97.63-3.66c.92-3.23 1.84-6.46 2.75-9.7-39.24 9.21-78.48 18.41-117.73 27.62-8.89 2.09-12.1 10.78-.27 9.51 41.85-4.46 83.7-8.93 125.55-13.39l.27-9.51c-40.9 8.53-81.8 17.05-122.69 25.58-8.97 1.87-12.05 10.87-.27 9.51 63.55-7.32 127.22-11.38 191.18-12.25.06-2.94.11-5.89.17-8.83-21.68 7.37-41.61 10.34-64.08 10.43-6.92.03-21.18 10.48-7.91 10.42 27.71-.11 53.41-4.72 79.57-13.62 6.1-2.08 8.67-8.95.17-8.83-65.63.89-130.94 5.11-196.15 12.62l-.27 9.51c40.9-8.53 81.8-17.05 122.69-25.58 9-1.88 12.03-10.77.27-9.51-41.85 4.46-83.7 8.93-125.55 13.39l-.27 9.51c39.24-9.21 78.48-18.41 117.73-27.62 5.94-1.39 13.65-10.1 2.75-9.7l-97.63 3.66c-.06 2.94-.11 5.89-.17 8.83 27.37-10.1 54.74-20.2 82.1-30.3 8.55-3.16 6.62-10.14-2.32-8.65-22.51 3.74-44.44 5.02-67.17 4.01-.92 3.23-1.84 6.46-2.75 9.7 27.05-8.95 54.11-17.9 81.16-26.85 5.5-1.82 14-9.6 2.75-9.7l-92.21-.78c-1.81 3.41-3.62 6.83-5.43 10.24 47.45-7.55 94.9-15.09 142.35-22.64 3.43-.55 18.31-8.68 7.62-10.08L709.5 90.09c-3.37 3.42-6.74 6.84-10.1 10.26 91.28-3.43 182.55-6.85 273.83-10.28 4.09-.15 21.38-8.47 10.1-10.26-31.99-5.06-63.68-7.37-96.08-6.99-6.84.08-21.24 10.42-7.91 10.42l131.43.03c2.64-3.47 5.27-6.95 7.91-10.42h-217.6c-6.91.03-21.17 10.45-7.9 10.45z"/><path class="st0" d="M678.79 201.41c16.9-30.82 101.45-20.84 130.51-19.28 4.37.24 10.35-5.99 3.57-6.65-5.79-.57-11.58-1.13-17.36-1.7-4.5-.44-10.25 6-3.57 6.65 5.79.57 11.58 1.13 17.36 1.7 1.19-2.22 2.38-4.44 3.57-6.65-33.79-1.82-68.48-2.14-102.07 2.6-17.16 2.42-32.65 6.57-41.39 22.51-2.54 4.63 7.46 4.31 9.38.82z"/><path class="st0" d="M751.22 161.53c24.28-2.9 47.23-3.25 71.6-1.15l10.24-9.73c-32.08.13-64.16.25-96.24.38-.97 3.02-1.95 6.05-2.92 9.07 30.98-8.82 61.24-13.27 93.39-13.78 4.27-.07 20.88-8.93 10.24-9.73-12.58-.95-25.15-1.91-37.73-2.86-2.59 3.17-5.18 6.35-7.77 9.52 15.61-2.85 31.31-3.43 47.1-1.75 2.59-3.17 5.18-6.35 7.77-9.52-92.03 14.29-172.99 48.38-256.66 87.7-2.54 1.19-6.11 4.85-2.03 6.63 10.22 4.47 19.2 5.52 9.78 14.37-4.14 3.89-.85 5.95 3.75 5.98l45.27.36c.97-3.02 1.95-6.05 2.92-9.07-12.19 3.67-22.48 8.07-33.22 14.89-3.53 2.25-6.16 6-.26 7.06l26.92 4.8c.84-2.7 1.67-5.41 2.51-8.11-14.35 6.18-28.69 12.36-43.04 18.55-8.28 3.57-6.9 9.16 2.15 8.01l36.01-4.59 3.12-9.42c-19.45 3.22-36.83 8.18-55.02 16.05-3.03 1.31-10.49 7.69-2.51 8.11 15.86.82 31.72 1.65 47.57 2.47.84-2.7 1.67-5.41 2.51-8.11-18.56 7.45-37.12 14.89-55.69 22.34-5.85 2.34-8.92 8.13-.33 8.22 12.4.13 24.8.25 37.2.38l.33-8.22c-17.64 7.67-32.74 16.41-48.05 28.25-4.84 3.74-.2 5.84 3.75 5.98 4.88.18 51.92-.68 52.81 1.96-.35-1.03-27.44 13.2-31.88 15.48-7.84 4.02-1.52 7.64 4.4 6.96 20.95-2.44 37.88-7.91 56.37-18.03 5.55-3.04 4.38-7.3-1.92-7.17l-68.22 1.38-.33 8.22c29.72-13.61 59.45-27.22 89.17-40.83 1.74-.79 8.66-4.07 5.54-6.96-5.83-5.4-11.66-10.8-17.49-16.19-1.85 2.32-3.69 4.64-5.54 6.96 18.06-7.52 35.08-16.06 51.83-26.2 5.11-3.09 4.73-7.54-1.92-7.17-21.42 1.2-42.83 2.4-64.25 3.59-.97 3.02-1.95 6.05-2.92 9.07 21.41-5.94 39.98-14.64 58.21-27.41 3.1-2.17 2.47-5.59-1.57-5.87l-28.44-2.01c-1.7 2.99-3.4 5.97-5.1 8.96 27.44-6.65 54.88-13.31 82.32-19.96 8.69-2.11 12.31-10.17.45-8.86-31.03 3.41-62.06 6.83-93.09 10.24.72 2.67 1.43 5.34 2.15 8.01 16.84-5.59 33.69-11.17 50.53-16.76 8.61-2.85 6.67-9.72-2.15-8.01-14.31 2.79-28.62 5.57-42.93 8.36-5.29 1.03-18.41 10.47-5.59 9.63 2.28-.15 21.13-2.8 21.96-1.43.31.51-16.96 11.37-18.65 12.42-7.93 4.95-15.4 7.79-21.31 15.58-4.5 5.93-4.23 12.35-6.97 18.13-3.89 8.23-2.11 9.59-9.45 16.48-7.46 7-20.92 12.74-29.44 17.93-1.53.93-5.74 3.74-3.29 5.91 14.12 12.51-20.03 22.45-27.96 26.66-5.39 2.86-4.51 7.68 1.92 7.17 24.07-1.9 43.77-8.58 63.57-22.64 3.4-2.42 2.15-5.15-1.57-5.87-14.17-2.74-43.25-3.21-54.3-13.27-18.2-16.59 18.17-29.39 34.71-34.87l-9.66-5.55c-18.97 12.28-31.65 25.96-41.39 46.54-1.06 2.23 2.29 3.08 3.63 3.36 6.54 1.38 29.05 1.92 30.03 11.21.57 5.36-39.3 24.44-44.04 26.97-7.51 3.99-1.79 8.02 4.4 6.96 12.57-2.16 25.13-4.33 37.7-6.49-1.47-2.32-2.93-4.64-4.4-6.96-21.46 10.67-42.93 21.34-64.39 32.01-8 3.98-1.38 7.53 4.4 6.96 25.45-2.52 50.89-5.04 76.33-7.57-1.47-2.32-2.93-4.64-4.4-6.96-10.61 6.2-21.22 12.4-31.84 18.6-5.66 3.3-4.27 6.91 1.92 7.17 5.8.25 22.88.31 23.52 1.84.19.47-23.98 15.66-22.75 14.86-1.48.96-3.06 3.14-1.46 4.72l1.92 10.37c-1.46.56-8.96 4.46-5.54 6.96 11.73 7.22 13.41 17.07 5.06 29.56-1.44 1.91-.78 3.15 1.12 4.19 16.67 9.15 32.88 15.03 51.25 19.21l10.24-9.73c-18.76-.55-35.07 1.83-52.89 7.6-1.51.49-14.03 6.65-6.87 8.54 8.34 2.2 16.69 4.4 25.03 6.59 4.01-3.1 8.01-6.21 12.02-9.31-27.52 1.49-51.38 7.84-76.03 20.12-5.98 2.98-4.02 7.04 1.92 7.17 12.15 2.2 24.31 4.39 36.46 6.59l9.54-9.09c-7.67 1.58-15.34 3.17-23.01 4.75-2.84.59-18.48 8.57-7.77 9.52l22.78 2.01c3.15.28 22.37-5.05 14.19-9.2-10-5.07-20.01-10.15-30.01-15.22-4.73 3.07-9.46 6.13-14.19 9.2 28.62 3.78 57.23 7.55 85.85 11.33 3.51.46 22.2-6.26 14.19-9.2-17.36-6.37-34.73-12.74-52.09-19.11-4.01 3.1-8.01 6.21-12.02 9.31l49.77-2.34c2.66-.13 19.82-5.14 12.02-9.31-18.06-9.64-34.08-21.13-47.98-36.21-18.84-20.44-3.3-24.65 17.35-34.68 1.5-.73 5.79-3.93 3.29-5.91-16.39-12.93-33.57-18.55-11.91-36.13 1.05-.85 3.48-3.37 1.46-4.72-10.03-6.75-18.38-10.72-30.28-13.87-2.29 2.85-4.58 5.69-6.87 8.54 8.44-2.46 16.88-4.93 25.32-7.39 3.56-1.04 14.18-7.49 5.1-8.96-8.91-1.45-12.25-1.32-21.23-.25-5.84.69-18.15 9.95-5.59 9.63 19.14-.48 35.55-3.72 53.57-10.16 4-1.43 9.77-6.75 2.51-8.11-6.73-1.26-13.46-2.51-20.19-3.77l-10.24 9.73c22.48.02 11.18 4.1-1.8 12.01-6.58 4.01-11.77 7.63-18.35 12.19-1.46 1.01-3.08 3.11-1.46 4.72 6.75 6.73 13.5 13.46 20.26 20.19 2.71-2.6 5.42-5.21 8.13-7.81-17.16 3.65-34.32 7.29-51.48 10.94-3.8.81-14.01 7.63-5.1 8.96 12.74 1.9 25.47 3.8 38.21 5.69l10.24-9.73c-15.6.92-29.25 3.29-44.11 8.08-1.55.5-14 6.58-6.87 8.54l28.31 7.77c2.29-2.85 4.58-5.69 6.87-8.54-13.1 3.26-26.19 6.51-39.29 9.77-6.08 1.51-13.59 8.57-2.92 9.07 28.36 1.34 56.71 2.68 85.07 4.01 4.73.22 20.59-8.88 10.24-9.73-15.78-1.29-31.55-2.59-47.33-3.88-3.14-.26-22.45 6.07-14.19 9.2 11.48 4.34 50.82 25.18 24.04 41.66-1.56.96-5.71 3.7-3.29 5.91 4.5 4.1 8.99 8.2 13.49 12.29 1.85-2.32 3.69-4.64 5.54-6.96-6.33 2.93-12.66 5.85-18.99 8.78-1.82.84-8.57 3.99-5.54 6.96 7.85 7.7 14.49 11.95 24.43 16.12 2.29-2.85 4.58-5.69 6.87-8.54-14.47 3.75-28.94 7.49-43.41 11.24-2.4.62-13.34 5.66-6.87 8.54 16.18 7.2 30.3 10.02 47.9 10.48 4.58.12 20.69-8.88 10.24-9.73l-59.4-4.86c-2.59 3.17-5.18 6.35-7.77 9.52 24.45-2.85 45.69-9.45 67.58-20.54 2.84-1.44 5.78-4.49 2.03-6.63-13.3-7.58-22.71-14.96-33.35-25.36-1.85 2.32-3.69 4.64-5.54 6.96 11.22-3.91 22.44-7.82 33.66-11.74 1.72-.6 10.23-6.05 4.28-7.68-21.4-5.89-65.19-16.44-65.31-40.55-.16-32.98 46.97-54.1 73.13-59.74 11.9-2.57 9.61-10.86-2.22-8.3-44.84 9.67-80.01 35.89-100.12 77.47-.27.86-.08 1.6.59 2.21 24.05 17.51 49.19 29.76 77.97 37.68 1.43-2.56 2.85-5.12 4.28-7.68-11.22 3.91-22.44 7.82-33.66 11.74-1.94.68-8.48 4.09-5.54 6.96 3.99 3.9 22.99 16.36 25.16 20.69 5.7 11.4-30.45 14.01-39.81 15.1-3.46.4-18.07 8.67-7.77 9.52l59.4 4.86 10.24-9.73c-14.35.28-27.69-2.85-40.01-9.4-2.29 2.85-4.58 5.69-6.87 8.54 14.47-3.75 28.94-7.49 43.41-11.24 2.29-.59 13.44-5.78 6.87-8.54-8.8-2.85-16.1-7.74-21.91-14.67-1.85 2.32-3.69 4.64-5.54 6.96 6.33-2.93 12.66-5.85 18.99-8.78 1.71-.79 8.69-4.09 5.54-6.96-15.29-13.94-2.22-10.79-1.82-27.89.46-19.7-19.4-27.54-34.94-33.42-4.73 3.07-9.46 6.13-14.19 9.2 15.78 1.29 31.55 2.59 47.33 3.88l10.24-9.73c-28.36-1.34-56.71-2.68-85.07-4.01-.97 3.02-1.95 6.05-2.92 9.07 13.1-3.26 26.19-6.51 39.29-9.77 1.78-.44 13.86-6.62 6.87-8.54l-28.31-7.77c-2.29 2.85-4.58 5.69-6.87 8.54l33.81-6.54c3.73-.22 21.35-8.08 10.24-9.73-12.74-1.9-25.47-3.8-38.21-5.69-1.7 2.99-3.4 5.97-5.1 8.96 17.16-3.65 34.32-7.29 51.48-10.94 1.85-.39 11.72-4.23 8.13-7.81-21.31-21.25 3.46-31.84 22.27-40.64 2-.93 6.62-5.42 2.03-6.63-11.4-3.02-21.58-4.37-33.37-4.38-4.12 0-21.11 7.71-10.24 9.73 6.73 1.26 13.46 2.51 20.19 3.77.84-2.7 1.67-5.41 2.51-8.11-12.7 2.3-25.4 4.6-38.1 6.91-1.86 3.21-3.73 6.42-5.59 9.63 3.98.15 7.95.3 11.93.46 1.7-2.99 3.4-5.97 5.1-8.96-8.44 2.46-16.88 4.93-25.32 7.39-1.61.47-13.96 6.66-6.87 8.54 17.98 4.75 20.97 14.39 6.67 26-.95.77-3.57 3.48-1.46 4.72 7.31 4.3 22.89 9.39 23.07 18.54.16 8.32-17.84 13.2-24.75 16.56-2.24 1.09-5.04 3.4-3.29 5.91 18.01 25.8 40.16 45.03 67.82 59.8 4.01-3.1 8.01-6.21 12.02-9.31l-49.77 2.34c-2.23.11-20.26 6.28-12.02 9.31 17.36 6.37 34.73 12.74 52.09 19.11 4.73-3.07 9.46-6.13 14.19-9.2-28.62-3.78-57.23-7.55-85.85-11.33-3.37-.44-22.21 5.13-14.19 9.2 10 5.07 20.01 10.15 30.01 15.22 4.73-3.07 9.46-6.13 14.19-9.2l-22.78-2.01c-2.59 3.17-5.18 6.35-7.77 9.52 7.67-1.58 15.34-3.17 23.01-4.75 2.08-.43 17.19-6.49 9.54-9.09-21.61-7.35-72.26-10.6 13.62-15.26 2.18-.12 20.26-7.14 12.02-9.31-8.34-2.2-16.69-4.4-25.03-6.59-2.29 2.85-4.58 5.69-6.87 8.54 13.9-5.41 28.1-7.43 42.6-6.06 4.3.13 20.97-7.29 10.24-9.73-10.86-2.47-33.31-5.43-38.98-16.17-8.06-15.25 4.7 7.95-.55-13.09-2.59-10.37-2.95-14.94-11.83-21.42-1.85 2.32-3.69 4.64-5.54 6.96 8.69-3.35 9.42-4.55 14.17-12.11 1.27-2.01-1.46-7.3-.97-8.18 5.33-9.57 18.26-14.73 26.94-20.38 5.37-3.5-.29-5.84-3.75-5.98-27.86-1.19-28.88 2-3.2-13 7.51-4.39 1.75-7.56-4.4-6.96-25.45 2.52-50.89 5.04-76.33 7.57 1.47 2.32 2.93 4.64 4.4 6.96 21.46-10.67 42.93-21.34 64.39-32.01 7.69-3.82 1.67-8-4.4-6.96-12.57 2.16-25.13 4.33-37.7 6.49 1.47 2.32 2.93 4.64 4.4 6.96 20.69-11 39.79-23.29 58.4-37.52 3.3-2.53 2.23-5.07-1.57-5.87-9.4-1.98-18.8-3.95-28.2-5.93-4.48-18.49 3.24-31.41 23.15-38.75 10.71-6.93-4.32-7.32-9.66-5.55-24.92 8.26-44.69 20.92-62.67 40.03-1.47 1.56-.83 3.53 1.12 4.19 15.58 5.29 36.59 7.29 51 14.92 4.18.93 8.35 1.85 12.53 2.78-5.45 4.34-10.9 8.68-16.36 13.02 1.73.98 29.73-15.77 31.9-16.93 1.6-.85 5.69-3.78 3.29-5.91-14.49-12.83 25.04-28.22 32.52-32.77.95-.58 5.12-3.05 3.94-4.9-14.15-22.16 34.67-40.17 46.99-57.29 2.57-3.57-2.2-4.92-5.07-4.73-10.98.72-21.96 1.43-32.94 2.15-1.86 3.21-3.73 6.42-5.59 9.63 14.31-2.79 28.62-5.57 42.93-8.36-.72-2.67-1.43-5.34-2.15-8.01-16.84 5.59-33.69 11.17-50.53 16.76-8.98 2.98-6.4 8.95 2.15 8.01 31.03-3.41 62.06-6.83 93.09-10.24l.45-8.86c-27.44 6.65-54.88 13.31-82.32 19.96-3.41.83-14.26 8.31-5.1 8.96 32.1 2.27-5.16 13.8-18.01 17.36-5.42 1.5-14 9.69-2.92 9.07 13.15-.74 32.18-5.43 44.97-2.52 6.44.96 8.26.61 5.44-1.04a256.569 256.569 0 0 1-35.42 16.89c-1.78.74-8.63 4.1-5.54 6.96 5.83 5.4 11.66 10.8 17.49 16.19 1.85-2.32 3.69-4.64 5.54-6.96-29.72 13.61-59.45 27.22-89.17 40.83-5.38 2.46-9.26 8.4-.33 8.22 16.24-.33 92.95-3.37 24.95 4.55 1.47 2.32 2.93 4.64 4.4 6.96 14.39-7.39 28.77-14.77 43.16-22.16 5.98-3.07 4.01-6.95-1.92-7.17-25.53-.95-86.88 7.82-22.37-20.24 5.67-2.47 9.05-8.13.33-8.22-12.4-.13-24.8-.25-37.2-.38l-.33 8.22c18.56-7.45 37.12-14.89 55.69-22.34 3.16-1.27 10.41-7.7 2.51-8.11-15.86-.82-31.72-1.65-47.57-2.47-.84 2.7-1.67 5.41-2.51 8.11 14.01-6.84 28.84-11.25 44.5-13.24 8.71-1.44 17.08-11.2 3.12-9.42l-36.01 4.59c.72 2.67 1.43 5.34 2.15 8.01 14.35-6.18 28.69-12.36 43.04-18.55 3.69-1.59 10.01-6.77 2.51-8.11-16.64.21-17.85-2.73-3.64-8.83 5.55-1.67 13.97-8.99 2.92-9.07-9.26-.07-42.75 6.78-30.16-5.05 1.9-1.78 3.31-4.08.2-5.45-21.82-9.54.67-13.63 13.86-19.83 22.16-10.42 44.26-20.92 67.15-29.67 44.55-17.04 90.58-28.49 137.67-35.8 3.19-.49 18.23-8.77 7.77-9.52-19.13-1.37-37.41-.79-56.4 1.95-3.26.47-18.19 8.73-7.77 9.52 12.58.95 25.15 1.91 37.73 2.86l10.24-9.73c-35.48.57-69.57 5.61-103.68 15.33-5.58 1.59-13.94 9.12-2.92 9.07 32.08-.13 64.16-.25 96.24-.38 4.32-.02 20.87-8.82 10.24-9.73-27.17-2.34-53.82-1.88-80.9 1.35-8.96 1.08-16.97 11.08-3.13 9.43zM578.24 751.35c27.62-.61 54.5 1.19 81.81 5.47 2.45-4.19 4.89-8.38 7.34-12.57-29.86-3.9-59.71-7.8-89.57-11.69-2.45 4.19-4.89 8.38-7.34 12.57l87.07 10.74c2.45-4.19 4.89-8.38 7.34-12.57-23.56-2.12-46.52-2.27-70.11-.63-7.83.54-17.04 10.57-4.82 12.52 25.71 4.09 51.41 8.18 77.12 12.28l2.13-12.02c-11.35 3.31-22.7 6.62-34.06 9.94-5.53 1.61-12.84 8.4-4.38 11.66 13.89 5.33 25.11 7.46 39.74 7.9l2.13-12.02c-9.59 2.33-19.18 4.65-28.77 6.98-4.94 1.2-13.45 9.47-4.38 11.66 19.68 4.73 38.11 7.19 58.32 7.64l2.13-12.02c-16.49 3.9-32.97 7.79-49.46 11.69-7.25 1.71-12.65 10.9-2.13 12.02 17.35 1.84 34.7 3.69 52.04 5.53l2.13-12.02c-14.78 4.01-29.55 8.02-44.33 12.04-6.53 1.77-13.19 11.93-2.13 12.02l58.95.48c-.15-3.7-.3-7.4-.44-11.11-14.37 5.3-28.75 10.61-43.12 15.91-9.47 3.49-5.57 11.27 2.96 11.05 23.85-.62 47.7-1.25 71.55-1.87l-.39-11.96c-14.76 4.25-26.21 9.59-38.73 18.44-7.17 5.07-1.74 10.21 5.17 9.84 18.21-.98 36.43-1.96 54.64-2.93-.99-3.68-1.97-7.37-2.96-11.05-6.64 2.37-13.28 4.73-19.92 7.1-7.33 2.61-7.35 9.9.44 11.11 15.76 2.44 28.19 2.23 43.65-.54l-.39-11.96c-13.8 4.78-27.6 9.55-41.41 14.33-8.88 3.07-11.83 12.65.39 11.96 23.05-1.3 45.53-4.32 68.16-8.8-1.02-3.82-2.05-7.64-3.07-11.46-12.46 3.91-24.93 7.83-37.39 11.74-9.24 2.9-11.56 12.42.39 11.96 13.65-.53 63.23-7.03 43.93 17.34-5.61 7.08 4 9.29 9.62 7.91 13.09-3.21 26.19-6.43 39.28-9.64 12.16-2.98 9.02-14.12-3.07-11.46-24.42 5.38-48.85 10.75-73.27 16.13-9.67 2.13-11.26 12.72.39 11.96 21.42-1.4 41.76-4.8 62.5-10.31 9.12-2.42 11.52-13.89-.39-11.96-14.19 2.31-18.23 3.38-31.59 8.7-6.87 2.74-7.76 10.17.44 11.11 12.85 1.46 24.53 1.53 37.34.42-2.31-2.8-4.62-5.6-6.93-8.41-3.24 2.22-6.48 4.43-9.72 6.65-5.08 2.04-8.81 8.52-1.8 10.75 50.34 15.98 101.28 28.9 153.15 38.85 2.35-4.05 4.71-8.1 7.06-12.16-30.94 1.75-60.74 6.13-90.89 13.09-6.75 1.56-13 12.18-2.13 12.02 33.64-.52 67.28-1.03 100.92-1.55 1.61-4.17 3.21-8.34 4.82-12.52l-129.87 9.66c-5.34.4-17.52 9.15-7.06 12.16 17.4 5.01 33.4 6.3 51.44 4.4 5.36-.57 17.46-8.77 7.06-12.16-64.85-21.1-128.63-44.86-191.44-71.44-4.56 3.7-9.12 7.41-13.68 11.11 40.07 11 80.14 22 120.2 33.01 5.03 1.38 22.85-5.81 13.68-11.11-41.03-23.7-83.42-43.87-127.58-60.99l-11.82 11.85c42.13 13.74 84.27 27.49 126.4 41.23l11.82-11.85c-28.94-6.81-56.13-16.71-82.65-30.24-4.56 3.7-9.12 7.41-13.68 11.11 41.13 10.4 76.15 28.91 107.72 57.15 5.63-3.09 11.27-6.17 16.9-9.26-53.99-23.4-107.14-48.57-159.21-76a2204.028 2204.028 0 0 1-77.21-42.68c-21.8-12.62-60.57-27.29-61.83-55.7l-13.56 8.94c22.99.02 32.62 14.11 52.13 17.43 4.3.73 9.33 2.1 13.65.6 7.71-2.68 11.39-7.55 10.34-15.45-.24-1.78-2.59-2.82-3.98-3.28l-3-.99c-5.02-1.66-19.48 2.67-15.04 10.01 6.78 11.2 13.55 22.39 20.33 33.59 5.01-3.34 10.03-6.67 15.04-10.01-20.68-3.68-39.2-9.99-57.82-19.98-5.18 3.45-10.36 6.91-15.54 10.36 18.08 9.21 36.16 18.41 54.24 27.62 6.11 3.11 24.55-4.81 15.54-10.36-12.99-8-25.98-15.99-38.97-23.99-5.01-3.09-23.33 3.83-16.9 9.26 9.36 7.92 17.92 13.69 29.1 19.06 3.89 1.86 21.2-.36 17.66-7.83-2.67-5.65-5.34-11.29-8.01-16.94-6.34 2.24-12.68 4.49-19.03 6.73 55.24 45.57 115.98 83.07 182.33 110.24 34.45 14.11 69.97 25.52 106.26 33.89 32.82 7.58 94.03 6.36 106.46 44.88.85 2.63 3.78 3.43 6.23 3.63 24.91 2.1 46.18-.22 70.05-7.67 8.9-2.78 11.77-13.24-.39-11.96-61.12 6.43-121.37 4.3-181.82-6.7-7.21-1.31-23.37 9.75-11.82 11.85 63.68 11.58 126.99 14.07 191.35 7.3l-.39-11.96c-14.3 4.46-37.69 11.69-51.3 4.8-6.23-3.16-5.24-7.07-10.03-11.3-8.02-7.08-14.55-12.21-24.73-16.56-35.09-14.97-76.84-15.92-113.59-26.31-91.92-25.98-176.75-71.61-250.33-132.31-4.1-3.38-22.75-1.14-19.03 6.73 2.67 5.65 5.34 11.29 8.01 16.94 5.89-2.61 11.78-5.22 17.66-7.83-9.8-3.94-18.59-9.55-26.37-16.85-5.63 3.09-11.27 6.17-16.9 9.26 12.99 8 25.98 15.99 38.97 23.99 5.18-3.45 10.36-6.91 15.54-10.36-18.08-9.21-36.16-18.41-54.24-27.62-6.39-3.26-24.49 5.56-15.54 10.36 19.95 10.71 39.1 17.48 61.53 21.47 4.83.86 19.76-2.21 15.04-10.01-6.78-11.2-13.55-22.39-20.33-33.59-5.01 3.34-10.03 6.67-15.04 10.01 5.67-7.71 2.95-12.54-8.16-14.5-2.62-1.06-5.25-2.09-7.89-3.09-11.68-4.4-21.65-5.12-33.93-5.13-5.32 0-13.86 2.25-13.56 8.94.85 19.18 13.42 28.25 28.12 38.28 28.04 19.13 59.46 35.07 89.25 51.27 60.31 32.81 122.14 62.58 185.13 89.88 4.29 1.86 23.94-2.96 16.9-9.26-33.4-29.89-70.73-49.86-114.16-60.84-4.95-1.25-23.04 6.33-13.68 11.11 27.79 14.18 55.97 24.59 86.37 31.73 6.84 1.61 23.62-8.01 11.82-11.85-42.13-13.74-84.27-27.49-126.4-41.23-7.05-2.3-23.22 7.43-11.82 11.85 42.91 16.64 84.03 36.49 123.87 59.5 4.56-3.7 9.12-7.41 13.68-11.11-40.07-11-80.14-22-120.2-33.01-5.32-1.46-22.85 7.23-13.68 11.11 64.03 27.1 129.03 51.42 195.15 72.93 2.35-4.05 4.71-8.1 7.06-12.16-14.3 2.46-28.28 1.19-41.91-3.79-2.35 4.05-4.71 8.1-7.06 12.16l129.87-9.66c7.55-.56 17.2-12.71 4.82-12.52-33.64.52-67.28 1.03-100.92 1.55l-2.13 12.02c28.39-6.55 56.51-10.45 85.52-12.09 5.15-.29 17.72-10.11 7.06-12.16a1338.783 1338.783 0 0 1-153.15-38.85c-.6 3.58-1.2 7.16-1.8 10.75 9.4-3.77 10.7-4.61 17.66-11.93 5.27-5.55-1.77-8.85-6.93-8.41-10.83 1.45-21.6 1.27-32.3-.54.15 3.7.3 7.4.44 11.11 7.02-1.96 14.04-3.92 21.07-5.88l-.39-11.96c-18.93 5.03-37.63 8.03-57.13 9.31l.39 11.96c24.42-5.38 48.85-10.75 73.27-16.13-1.02-3.82-2.05-7.64-3.07-11.46-13.09 3.21-26.19 6.43-39.28 9.64l9.62 7.91c4.67-5.9 9.34-11.79 14.01-17.69 2.61-3.3 2.41-6.76-2.17-8.1-23.47-6.89-45.24-9.3-69.63-8.36l.39 11.96c12.46-3.91 24.93-7.83 37.39-11.74 11.93-3.75 9.1-13.87-3.07-11.46-20.95 4.15-41.52 6.6-62.79 7.8l.39 11.96c13.8-4.78 27.6-9.55 41.41-14.33 8.43-2.92 11.92-14.17-.39-11.96-12.96 3.45-25.83 3.59-38.62.43.15 3.7.3 7.4.44 11.11 6.64-2.37 13.28-4.73 19.92-7.1 9.36-3.33 5.69-11.52-2.96-11.05-18.21.98-36.43 1.96-54.64 2.93 1.72 3.28 3.45 6.56 5.17 9.84 9.72-4.73 19.44-9.47 29.16-14.2 9.51-2.74 11.36-12.27-.39-11.96-23.85.62-47.7 1.25-71.55 1.87.99 3.68 1.97 7.37 2.96 11.05 14.37-5.3 28.75-10.61 43.12-15.91 6.44-2.38 8.14-11.04-.44-11.11l-58.95-.48-2.13 12.02c14.78-4.01 29.55-8.02 44.33-12.04 7.04-1.91 12.82-10.88 2.13-12.02-17.35-1.84-34.7-3.69-52.04-5.53l-2.13 12.02c16.49-3.9 32.97-7.79 49.46-11.69 6.82-1.61 12.98-11.78 2.13-12.02-18.38-.4-35.96-2.62-53.84-6.92-1.46 3.89-2.92 7.77-4.38 11.66 9.59-2.33 19.18-4.65 28.77-6.98 6.81-1.65 12.99-11.69 2.13-12.02-12.48.61-24.23-1.78-35.26-7.18-1.46 3.89-2.92 7.77-4.38 11.66 11.35-3.31 22.7-6.62 34.06-9.94 7.28-2.12 12.59-10.35 2.13-12.02-25.71-4.09-51.41-8.18-77.12-12.28-1.61 4.17-3.21 8.34-4.82 12.52 21.85-1.52 43.29-1.22 65.07.74 8.43.76 20.75-10.92 7.34-12.57l-87.07-10.74c-8.53-1.05-20.65 10.83-7.34 12.57 29.86 3.9 59.71 7.8 89.57 11.69 8.52 1.11 20.62-10.49 7.34-12.57-27.29-4.28-54.17-6.08-81.81-5.47-8.24.15-20.63 12.83-7.33 12.54z"/><path class="st0" d="M599.8 325.33c8.63-4.62 17.26-9.25 25.89-13.87l-10.43-8.42c-31.32 19.58-65.8 39.3-90.52 67.37-22.92 26.02-24.95 48-21.21 81.45.93 8.31 18.28 1.89 19.84-3.69 6.95-24.84 15.22-48.98 25.1-72.81 3.98-9.61-15.7-7.99-18.63-1.2-4.27 9.88-8.53 19.75-12.8 29.63-4.34 10.04 14.96 6.75 18.63 1.2 24.35-36.77 50.21-72.31 77.82-106.7-5.8-.92-11.6-1.85-17.4-2.77-12.95 30.52-29.07 58.36-49.09 84.78-5.73 7.56 13.46 7.49 17.4 2.77 24.62-29.5 43.8-61.23 57.99-97 3.83-9.66-13.63-7.18-17.4-2.77-26.38 30.89-49.79 63.53-70.44 98.54l18.63 1.2c15.23-29.42 25.05-59.29 30.04-92.13 1.37-9.02-16.73-4.63-19.27.44-20.46 40.95-47.82 95.69-36.03 141.52 9.18 7.84 12.67 18.44 10.48 31.79-3.54 3.38-7.18 6.65-10.93 9.8-2.86 4.18-8.19 6.42-10.11 11.49-8.03 21.15 18.83 23.27 15.78 43.6l11.1-7.26c1.57.43 3.14.86 4.72 1.29-2.79 2.79-5.57 5.58-8.36 8.37 7.28-.2 14.56-.4 21.84-.61 7.22 1.43 23.38-9.56 11.82-11.84-13.37-2.64-23.31-2.43-36.74 1-2.83.72-10.06 4.2-8.36 8.37.33.8.65 1.61.98 2.41 1.42 3.49 5.5 3.7 8.74 3.57 1.01-.04 2.03-.08 3.04-.13 3.81-.16 10.44-2.89 11.1-7.26 3.42-22.81-23.17-22.94-9.4-48.67 6.28-11.73 21.41-13.96 20.12-30.01-.33-4.09-3.43-7.04-4.82-10.76-8.95-6.98-14.06-16.5-15.34-28.58.94-7.48 2.32-14.88 4.15-22.2 7.36-33.04 19.75-64.49 34.85-94.71-6.42.15-12.84.29-19.27.44-4.82 31.75-13.92 60.15-28.78 88.86-4.79 9.24 15.01 7.35 18.63 1.2 19.98-33.89 42.39-65.46 67.96-95.39-5.8-.92-11.6-1.85-17.4-2.77-13.69 34.51-31.69 65.31-55.51 93.86 5.8.92 11.6 1.85 17.4 2.77 20.02-26.42 36.14-54.26 49.09-84.78 4.02-9.48-13.74-7.33-17.4-2.77-28.44 35.43-55.21 71.96-80.29 109.85l18.63 1.2c4.27-9.88 8.53-19.75 12.8-29.63l-18.63-1.2c-10.34 24.94-19.09 50.06-26.37 76.08l19.84-3.69c-4.13-36.89 5.15-62.56 33.26-87.17 21.59-18.9 47.07-33.98 71.32-49.14 10.29-6.44-3.47-12.14-10.43-8.42-8.63 4.62-17.26 9.25-25.89 13.87-11.92 6.41-1.01 14.59 8.26 9.63z"/><path class="st1" d="M755.77 423.31c5.76 0 7.5-7.55.8-7.55-5.77 0-7.51 7.55-.8 7.55zM763.21 435.26c2.15 0 5.32-.36 7-1.87 1.18-1.06 1.66-2.27-.61-2.27-2.15 0-5.32.36-7 1.87-1.17 1.06-1.65 2.27.61 2.27z"/><path class="st0" d="M742.86 466.47c13.66 1.14 27.32 2.28 40.97 3.41 2.03.17 5.63-.05 7-1.87.98-1.31 1.64-3.02-.87-3.23-13.66-1.14-27.32-2.28-40.97-3.41-2.03-.17-5.63.05-7 1.87-.98 1.31-1.64 3.02.87 3.23zM784.6 494.48l3.41-3.41c1.66-1.66-1.44-2.18-2.48-2.17-2.25.01-4.96.89-6.58 2.51l-3.41 3.41c-1.66 1.66 1.44 2.18 2.48 2.17 2.25-.01 4.96-.89 6.58-2.51z"/><path class="st1" d="M769.41 498.36c5.71 0 7.54-7.43.83-7.43-5.72.01-7.54 7.43-.83 7.43zM660.15 450.57c5.72 0 7.53-7.45.82-7.45-5.72 0-7.53 7.45-.82 7.45z"/><path class="st0" d="M777.36 391.44c5.69-1.14 11.38-2.28 17.07-3.41 1.55-.31 4.79-1.91 4.24-3.96-.58-2.18-4.18-1.61-5.65-1.31-5.69 1.14-11.38 2.28-17.07 3.41-1.55.31-4.79 1.91-4.24 3.96.58 2.18 4.17 1.61 5.65 1.31zM821.25 388.57c18.28 5.49 36.85 8.63 55.91 9.65 3.72.2 10.53-5.17 3.87-5.52-18.31-.97-36.14-4.16-53.7-9.42-3.09-.94-11.58 3.64-6.08 5.29zM878.45 401.03c21.62 3.41 43.25 6.83 64.87 10.24 2.4.38 10.91-3.52 8.1-3.96-21.62-3.41-43.25-6.83-64.87-10.24-2.41-.39-10.92 3.51-8.1 3.96z"/><path class="st1" d="M883.99 470.15c2 0 5.54-.66 6.53-2.7.96-1.99-.82-2.92-2.68-2.92-2 0-5.54.66-6.53 2.7-.97 1.98.81 2.92 2.68 2.92zM869.01 469.22c2.12 0 5.3-.49 7-1.87 1.25-1.01 1.67-1.89-.51-1.89-2.12 0-5.3.49-7 1.87-1.24 1.01-1.67 1.89.51 1.89z"/><path class="st0" d="M897.8 484.38c15.93 1.14 31.87 2.28 47.8 3.41 4.56.33 10.22-6.3 3.54-6.78-15.93-1.14-31.87-2.28-47.8-3.41-4.56-.32-10.23 6.3-3.54 6.78zM949.97 520.76c7.97-1.14 15.93-2.28 23.9-3.41 1.29-.18 5.65-1.18 5.72-2.98.08-1.95-2.81-1.63-4.09-1.45-7.97 1.14-15.93 2.28-23.9 3.41-1.29.18-5.65 1.18-5.72 2.98-.08 1.95 2.8 1.64 4.09 1.45z"/><path class="st1" d="M815.79 330.5c2.12 0 5.5-.62 6.49-2.85.9-2.03-.78-3.47-2.83-3.47-2.12 0-5.5.62-6.49 2.85-.9 2.04.78 3.47 2.83 3.47z"/><path class="st0" d="M833.93 333.1c36.31 8.84 72.86 13.18 110.22 13.09 2.08 0 11.18-4 6.43-3.99-36.73.08-72.83-4.21-108.52-12.9-2.27-.56-10.86 3.13-8.13 3.8zM821.61 259.04c12.52 3.41 25.04 6.83 37.56 10.24 4.37 1.19 11.67-5.16 5.68-6.8-12.52-3.41-25.04-6.83-37.56-10.24-4.37-1.19-11.67 5.16-5.68 6.8z"/><path class="st1" d="M1192.71 317.07c5.47 0 7.75-6.77 1.01-6.77-5.48 0-7.75 6.77-1.01 6.77z"/><path class="st0" d="m1146.08 298.18-146.82-34.14c-2.23-.52-10.74 3.1-8.17 3.7l146.82 34.14c2.23.52 10.74-3.1 8.17-3.7z"/><path class="st1" d="M1058.23 265.69c2.15 0 5.5-.61 6.48-2.87.89-2.04-.78-3.57-2.86-3.57-2.15 0-5.5.61-6.48 2.87-.88 2.04.78 3.57 2.86 3.57z"/><path class="st0" d="m935.29 248.5 180.96 17.07c4.22.4 10.36-5.6 3.68-6.23l-180.96-17.07c-4.22-.4-10.36 5.6-3.68 6.23zM1257.36 262.18c.34-1.62.83-2.32 2.17-1.78 3.94 1.57 11.54-4.08 5.79-6.38-7.05-2.81-16.37 1.42-17.95 9.03-.97 4.61 9.12 3.3 9.99-.87zM1250.97 224.9c-71.74-10.73-143.77-16.13-216.32-16.1-3.78 0-10.48 5.71-3.82 5.71 71.82-.02 143.06 5.22 214.11 15.85 3.19.47 11.62-4.63 6.03-5.46zM917.29 180.92c61.09 9.5 121.68 10.18 182.98 2.2 4.47-.58 8.46-5.65 1.55-4.75-59.72 7.78-118.82 6.97-178.33-2.29-2.72-.42-11.53 4.01-6.2 4.84z"/><path class="st1" d="M1085.46 162.94c2.03 0 5.53-.65 6.52-2.74.95-2-.81-3.06-2.72-3.06-2.03 0-5.53.65-6.52 2.74-.95 2 .81 3.06 2.72 3.06z"/><path class="st0" d="M1092 158.42c-20.45-11.83-42.2-19.9-65.42-24.26-2.3-.43-10.77 3.29-8.14 3.79 22.8 4.29 44.15 12.2 64.23 23.82 2.42 1.39 10.51-2.67 9.33-3.35z"/><path class="st1" d="M983 125.26c1.98 0 5.54-.67 6.53-2.69.97-1.98-.82-2.87-2.67-2.87-1.98 0-5.54.67-6.53 2.69-.97 1.98.82 2.87 2.67 2.87z"/><path class="st1" d="M983.16 125.85c2.21 0 5.48-.59 6.47-2.94.86-2.05-.76-3.81-2.92-3.81-2.21 0-5.48.59-6.47 2.94-.87 2.06.76 3.81 2.92 3.81z"/><path class="st0" d="m1046.7 129.19 126.33 37.56c3.47 1.03 11.64-4.06 5.96-5.75l-126.33-37.56c-3.47-1.04-11.64 4.06-5.96 5.75zM693.55 363.18c39.61 28.67 83.04 49.28 130.32 61.81 2.53.67 11.33-3.32 8.03-4.19-46.85-12.41-89.79-32.74-129.08-61.17-2.43-1.77-11.21 2.15-9.27 3.55z"/><path class="st1" d="M726.76 537.8c2.93 0 10.74-4.36 4.18-4.36-2.93 0-10.74 4.36-4.18 4.36z"/><path class="st0" d="M1028.46 578.6c27.74-3.45 55.32-3.13 83 .71 2.45.34 11.44-3.75 6.3-4.46-29.29-4.06-58.27-4.13-87.61-.48-4.27.52-8.64 5.09-1.69 4.23z"/><path class="st1" d="M1093.71 562.99c5.53 0 7.69-6.94.96-6.94-5.53 0-7.69 6.94-.96 6.94zM1051.3 463.35c2.01 0 5.54-.66 6.53-2.72.96-1.99-.82-2.97-2.7-2.97-2.01 0-5.54.66-6.53 2.72-.95 1.99.82 2.97 2.7 2.97zM1071.67 459.5c1.68 0 5.82-.72 6.58-2.54.79-1.91-.66-2.28-2.51-2.28-1.68 0-5.82.72-6.58 2.54-.79 1.91.66 2.28 2.51 2.28zM1059.68 447.31c5.83 0 7.44-7.75.74-7.75-5.83 0-7.44 7.75-.74 7.75zM1136.57 456.16c1.86 0 5.6-.71 6.57-2.57.99-1.92-.85-2.4-2.55-2.4-1.86 0-5.6.71-6.57 2.57-.99 1.92.85 2.4 2.55 2.4z"/><path class="st0" d="m1198.22 481.26 51.18 7.08c4.57.63 10.2-5.81 3.55-6.73l-51.18-7.08c-4.58-.64-10.2 5.81-3.55 6.73zM1280.67 489.58c8.91 3.91 18.09 4.61 27.64 3.18 1.03-.15 5.77-1.16 5.84-2.56.07-1.57-2.99-.85-3.89-.71-6.91 1.04-13.9-.39-20.23-3.17-1.84-.81-4.56.07-6.33.7-.4.13-4.44 1.94-3.03 2.56z"/><path class="st1" d="M1320.87 476.37c2.96 0 10.73-4.41 4.17-4.41-2.95 0-10.73 4.41-4.17 4.41zM1252.87 402.34c2.17 0 5.49-.6 6.48-2.9.88-2.05-.77-3.68-2.89-3.68-2.17 0-5.49.6-6.48 2.9-.87 2.04.78 3.68 2.89 3.68zM1262.92 381.09c1.88 0 5.59-.7 6.56-2.59.99-1.93-.84-2.48-2.57-2.48-1.88 0-5.59.7-6.56 2.59-.99 1.93.84 2.48 2.57 2.48zM1315.64 388.82c5.51 0 7.71-6.87.98-6.87-5.51 0-7.72 6.87-.98 6.87zM1314.33 381.85c2.17 0 5.49-.6 6.48-2.9.88-2.05-.77-3.68-2.89-3.68-2.17 0-5.49.6-6.48 2.9-.87 2.05.78 3.68 2.89 3.68zM1327.98 347.66c2.16 0 5.5-.61 6.48-2.88.89-2.04-.77-3.6-2.87-3.6-2.16 0-5.5.61-6.48 2.88-.89 2.04.78 3.6 2.87 3.6z"/><path class="st0" d="M1330.49 341.78c-5.69 1.14-11.38 2.28-17.07 3.41-1.66.33-5.35 1.12-5.64 3.28-.29 2.09 2.87 2.26 4.23 1.98 5.69-1.14 11.38-2.28 17.07-3.41 1.66-.33 5.35-1.12 5.64-3.28.29-2.08-2.87-2.25-4.23-1.98zM1118.72 342.4c-11.38-2.28-22.76-4.55-34.14-6.83-2.16-.43-5.05.01-6.93 1.19-.72.45-3.51 2.37-1.14 2.84 11.38 2.28 22.76 4.55 34.14 6.83 2.16.43 5.05-.01 6.93-1.19.71-.45 3.5-2.37 1.14-2.84zM1017.37 319.98a397.912 397.912 0 0 1-64.95-9.71c-4.93-1.16-9.9 5.78-3.39 7.31 21.41 5.02 43.01 8.25 64.95 9.71 4.9.32 10.07-6.87 3.39-7.31zM886.1 321.02c46.96 19.78 93.92 39.55 140.89 59.33 3.86 1.62 11.5-3.91 5.81-6.31-46.96-19.78-93.92-39.55-140.89-59.33-3.86-1.62-11.5 3.91-5.81 6.31z"/><path class="st1" d="M986.26 421.72c2.94 0 10.74-4.38 4.18-4.38-2.94 0-10.74 4.38-4.18 4.38zM870.35 466.8c2.02 0 5.53-.66 6.52-2.73.95-2-.81-3.03-2.71-3.03-2.02 0-5.53.66-6.52 2.73-.96 2 .81 3.03 2.71 3.03zM800.75 503.48c2.14 0 5.31-.41 7-1.87 1.2-1.04 1.66-2.12-.57-2.12-2.14 0-5.31.41-7 1.87-1.2 1.04-1.66 2.12.57 2.12zM795.19 538.33c1.95 0 5.55-.68 6.54-2.66.98-1.97-.83-2.75-2.64-2.75-1.95 0-5.55.68-6.54 2.66-.98 1.96.83 2.75 2.64 2.75z"/><path class="st0" d="M818.12 548.96c6.83 2.28 13.66 4.55 20.49 6.83 3.83 1.28 11.63-4.27 5.84-6.2-6.83-2.28-13.66-4.55-20.49-6.83-3.83-1.27-11.63 4.27-5.84 6.2zM778.86 571.62c18.61 11.33 38.38 19.46 59.57 24.52 2.82.67 11.55-3.67 6.17-4.95-20.04-4.78-38.92-12.56-56.52-23.28-2.75-1.69-11.49 2.33-9.22 3.71z"/><path class="st0" d="M810.12 596.77c-.97-.57 1.59-1.63-.29-1.13 1.41-.37 4.68 1.01 6.15 1.19 4.41.54 8.73-.53 11.94-3.68 1.61-1.58.87-3.47-1.11-4.13-2.26-.76-5.34.25-7 1.87.71-.69 1.68.1.35-.37-.66-.24-1.53-.27-2.22-.41-1.6-.33-3.2-.77-4.83-.88-2.96-.2-6.04.73-8.53 2.34-3.56 2.3-7.13 7.54-2.22 10.44 3.24 1.91 12.19-2.62 7.76-5.24z"/><path class="st0" d="M823.59 599.02c46.67-6.82 93.33-13.63 140-20.45 4.26-.62 8.6-5.32 1.67-4.31-46.67 6.82-93.33 13.63-140 20.45-4.27.63-8.61 5.33-1.67 4.31z"/><path class="st1" d="M976.03 572.02c3.02 0 10.71-4.52 4.14-4.52-3.02.01-10.71 4.52-4.14 4.52z"/><path class="st0" d="M948.28 561.08c-5.69 1.14-11.38 2.28-17.07 3.41-1.1.22-5.77 1.14-5.79 2.72-.03 1.69 2.89 1.21 3.97 1 5.69-1.14 11.38-2.28 17.07-3.41 1.1-.22 5.77-1.14 5.79-2.72.03-1.7-2.88-1.22-3.97-1zM919.6 590.59c31.07-2.79 60.82 1.46 89.93 12.64 3.96 1.52 11.57-4.17 5.79-6.39-30.55-11.74-62.16-16.05-94.74-13.12-5.4.49-7.75 7.48-.98 6.87zM1037.02 612.16l-27.07 4.77c-.93.16-8.37 3.03-4.92 3.99 25.17 7.03 50.7 9.92 76.81 8.89 2.84-.11 10.74-4.53 4.21-4.27-24.82.98-49.01-1.94-72.93-8.62l-4.92 3.99 27.07-4.77c4.07-.71 8.69-5.2 1.75-3.98z"/><path class="st1" d="M1129.97 634.56c2.19 0 5.49-.6 6.47-2.92.87-2.05-.77-3.74-2.9-3.74-2.19 0-5.49.6-6.47 2.92-.88 2.05.76 3.74 2.9 3.74zM1194.83 634.54c2.18 0 5.49-.6 6.47-2.91.87-2.05-.77-3.71-2.9-3.71-2.18 0-5.49.6-6.47 2.91-.87 2.05.78 3.71 2.9 3.71zM1196.23 624.76c5.76 0 7.5-7.56.79-7.56-5.76 0-7.5 7.56-.79 7.56zM1199.65 577.01c5.8 0 7.47-7.65.77-7.65-5.79-.01-7.46 7.65-.77 7.65z"/><path class="st0" d="M1329.48 606.01c2.27 1.16 4.54 2.31 6.8 3.47 2.09 1.07 5.15.38 7.02-.87 1.37-.9 2.95-3 .81-4.09-2.27-1.16-4.53-2.31-6.8-3.47-2.09-1.07-5.15-.38-7.02.87-1.37.91-2.96 3-.81 4.09z"/><path class="st1" d="M1331.22 606.51c1.92 0 5.57-.69 6.55-2.62 1-1.94-.85-2.59-2.6-2.59-1.92 0-5.57.69-6.55 2.62-.99 1.95.85 2.59 2.6 2.59z"/><path class="st0" d="M1358.81 601.62c9.83-3.34 18.8-8.38 26.67-15.15 1.73-1.49-1.53-1.66-2.34-1.62-2.2.12-4.91.89-6.62 2.36-6.29 5.41-13.27 9.49-21.13 12.16-1.03.35-3.88 1.39-2.95 2.81.84 1.28 5.47-.25 6.37-.56zM1417.19 562.09c-9.45 4.49-12.58 18.57-2.79 24.64 3.43 2.13 12.25-2.63 7.69-5.46-4.03-2.5-5.78-11.39-.65-13.83 1.7-.81 3.82-2.82 2.42-4.79-1.36-1.93-4.9-1.4-6.67-.56zM1421.99 531.83c-38.88-4.27-81.91 12.79-119.49 21.24-5.98 1.34-4.73 5.91 1.22 4.57 34.05-7.66 77.36-24.52 112.13-20.71 2.92.32 11.56-4.5 6.14-5.1zM1202 554.02c0 6.68 2.53 12.68 7.11 17.52 2.04 2.15 11.37-1.4 9.25-3.63-4.34-4.58-6.46-10.25-6.46-16.54 0-2.35-9.9-.72-9.9 2.65zM1184.45 596.44c28.45-1.14 56.91-2.28 85.36-3.41 3.62-.14 10.49-5.8 3.87-5.54-28.45 1.14-56.91 2.28-85.36 3.41-3.63.14-10.49 5.8-3.87 5.54z"/><path class="st1" d="M1358.56 589.52c1.95 0 5.56-.68 6.54-2.65.99-1.96-.84-2.71-2.63-2.71-1.95 0-5.56.68-6.54 2.65-.99 1.96.84 2.71 2.63 2.71zM1382.38 582.41c1.68 0 5.82-.72 6.58-2.53.79-1.91-.66-2.26-2.51-2.26-1.68 0-5.83.72-6.58 2.53-.79 1.9.67 2.26 2.51 2.26zM1384.6 476.1c2.13 0 5.31-.45 7-1.87 1.22-1.03 1.67-2.01-.54-2.01-2.13 0-5.31.45-7 1.87-1.22 1.04-1.66 2.01.54 2.01zM1351.71 446.03c1.91 0 5.57-.69 6.55-2.61 1-1.94-.85-2.58-2.59-2.58-1.91 0-5.57.69-6.55 2.61-1.01 1.94.84 2.58 2.59 2.58z"/><path class="st0" d="M1355.22 411.38v-17.07c0-2.09-9.89-.54-9.89 2.65v17.07c0 2.09 9.89.54 9.89-2.65zM1321.08 394.31c-4.55-9.11-9.11-18.21-13.66-27.32-1.73-3.47-11.38-.33-9.89 2.65 4.55 9.11 9.11 18.21 13.66 27.32 1.72 3.46 11.38.33 9.89-2.65zM1283.52 322.6c-3.41-9.11-6.83-18.21-10.24-27.32-1.47-3.91-11.29-1.07-9.89 2.65 3.41 9.11 6.83 18.21 10.24 27.32 1.46 3.91 11.28 1.07 9.89-2.65z"/><path class="st1" d="M1232.27 289.22c2.01 0 5.54-.66 6.53-2.72.96-1.99-.81-2.99-2.7-2.99-2.01 0-5.54.66-6.53 2.72-.96 2 .81 2.99 2.7 2.99zM1146.73 295.39c2.94 0 10.74-4.37 4.18-4.37-2.93-.01-10.73 4.37-4.18 4.37zM1082.01 367.66c1.97 0 5.55-.67 6.54-2.68.97-1.98-.83-2.83-2.66-2.83-1.97 0-5.55.67-6.54 2.68-.97 1.97.83 2.83 2.66 2.83zM1064.94 415.46c1.97 0 5.55-.67 6.54-2.68.97-1.98-.83-2.83-2.66-2.83-1.97 0-5.55.67-6.54 2.68-.98 1.97.82 2.83 2.66 2.83zM1127.87 406c5.59 0 7.65-7.08.92-7.08-5.58 0-7.64 7.08-.92 7.08zM1194.82 361.34c2.16 0 5.49-.61 6.48-2.89.88-2.04-.77-3.63-2.88-3.63-2.16 0-5.49.61-6.48 2.89-.88 2.04.78 3.63 2.88 3.63zM1232.36 316.88c2.14 0 5.5-.61 6.49-2.86.9-2.04-.78-3.53-2.85-3.53-2.14 0-5.5.61-6.49 2.86-.89 2.04.78 3.53 2.85 3.53z"/><path class="st0" d="M1214.93 253.92c-9.11-6.83-18.21-13.66-27.32-20.49-2.26-1.7-10.96 2.21-9.3 3.45 9.11 6.83 18.21 13.66 27.32 20.49 2.26 1.69 10.96-2.21 9.3-3.45zM1123.04 196.27c-2.28-7.97-4.55-15.93-6.83-23.9-1.25-4.38-11.14-1.72-9.89 2.65 2.28 7.97 4.55 15.93 6.83 23.9 1.25 4.38 11.14 1.72 9.89-2.65z"/><path class="st1" d="M1136.79 146.28c2.18 0 5.49-.6 6.47-2.91.87-2.05-.77-3.71-2.9-3.71-2.18 0-5.49.6-6.47 2.91-.87 2.04.77 3.71 2.9 3.71z"/><path class="st0" d="M1188.72 130.41c24.06 5.45 47.23 13.28 69.74 23.37 4.39 1.97 11.43-4.37 5.63-6.97-23.23-10.42-47.22-18.33-72.04-23.96-5.1-1.15-9.85 6.08-3.33 7.56zM1290.98 182.21l23.9 27.32c1.61 1.84 10.85-1.63 9.32-3.38l-23.9-27.32c-1.61-1.84-10.85 1.63-9.32 3.38zM1342.15 255.14c-4.64 11.26-7.07 22.86-7.12 35.05-.02 5.02 9.99 3.44 10-.83.05-11.53 2.14-22.56 6.54-33.23 2.11-5.12-7.82-4.89-9.42-.99z"/><path class="st1" d="M1340.26 339.71c2.21 0 5.25-.36 7-1.87 1.22-1.06 1.6-2.37-.64-2.37-2.21 0-5.25.36-7 1.87-1.22 1.06-1.59 2.37.64 2.37zM1200.22 377.07c2.13 0 5.3-.47 7-1.87 1.23-1.02 1.67-1.97-.53-1.97-2.13 0-5.3.47-7 1.87-1.23 1.02-1.67 1.97.53 1.97zM1064.86 415.16c1.7 0 5.81-.71 6.57-2.56.79-1.92-.66-2.35-2.53-2.35-1.7 0-5.81.71-6.57 2.56-.79 1.92.65 2.35 2.53 2.35zM1078.62 449.69c2.01 0 5.54-.66 6.53-2.72.96-1.99-.82-2.97-2.7-2.97-2.01 0-5.54.66-6.53 2.72-.96 1.99.82 2.97 2.7 2.97zM904.6 846.19c2.17 0 5.49-.61 6.48-2.89.88-2.05-.77-3.64-2.88-3.64-2.17 0-5.49.61-6.48 2.89-.88 2.04.77 3.64 2.88 3.64zM948.71 851.99c3 0 10.72-4.48 4.15-4.48-3 0-10.72 4.48-4.15 4.48z"/><path class="st0" d="M946 868.63c7.62 8.36 17.18 14.1 28.07 17.11 2.08.58 5.08-.24 6.92-1.25.87-.48 3.38-2.03 1.2-2.64-10.49-2.9-19.55-8.59-26.87-16.62-1.7-1.85-10.9 1.67-9.32 3.4z"/><path class="st1" d="M989.68 896.38c3 0 10.72-4.48 4.15-4.48-3-.01-10.71 4.48-4.15 4.48zM937.35 851.81c2.15 0 5.32-.37 7-1.87 1.18-1.06 1.66-2.25-.6-2.25-2.15 0-5.32.37-7 1.87-1.19 1.06-1.67 2.25.6 2.25zM998.75 848.19c2.12 0 5.3-.51 7-1.87 1.25-1.01 1.67-1.85-.49-1.85-2.12 0-5.3.51-7 1.87-1.26 1.02-1.67 1.85.49 1.85z"/><path class="st0" d="M1038.83 859.91c4.53 2.31 9.07 4.63 13.6 6.94 2.21 1.13 5.07.81 7.07-.67 1.41-1.05 2.86-3.67.61-4.82-4.53-2.31-9.07-4.63-13.6-6.94-2.21-1.13-5.07-.81-7.07.67-1.41 1.05-2.85 3.68-.61 4.82z"/><path class="st1" d="M1131.31 870.42c5.63 0 7.61-7.2.89-7.2-5.64 0-7.61 7.2-.89 7.2zM1170.81 869.66c2.01 0 5.54-.66 6.53-2.72.96-1.99-.82-2.96-2.7-2.96-2.01 0-5.54.66-6.53 2.72-.96 1.99.82 2.96 2.7 2.96zM1185.9 860.03c5.52 0 7.7-6.91.97-6.91-5.53 0-7.71 6.91-.97 6.91zM1218.59 838.86c1.98 0 5.55-.67 6.54-2.69.97-1.98-.83-2.85-2.67-2.85-1.98 0-5.55.67-6.53 2.69-.98 1.98.82 2.85 2.66 2.85zM1232.35 835.82c2.12 0 5.5-.62 6.49-2.84.9-2.03-.78-3.45-2.83-3.45-2.12 0-5.5.62-6.49 2.84-.9 2.04.79 3.45 2.83 3.45z"/><path class="st0" d="M1227.56 834.71h3.41c2.25 0 5.16-.46 7-1.87 1.32-1.02 1.56-2.2-.59-2.2h-3.41c-2.25 0-5.16.46-7 1.87-1.31 1.02-1.55 2.2.59 2.2z"/><path class="st1" d="M1129.98 911.17c2.21 0 5.48-.59 6.47-2.94.86-2.05-.76-3.82-2.92-3.82-2.21 0-5.48.59-6.47 2.94-.87 2.06.76 3.82 2.92 3.82zM1064.97 924.31c2.01 0 5.54-.66 6.53-2.72.96-1.99-.81-2.99-2.7-2.99-2.01 0-5.54.66-6.53 2.72-.96 1.99.81 2.99 2.7 2.99z"/><path class="st0" d="M1163.43 901.1c4.55-1.14 9.11-2.28 13.66-3.41 6.17-1.54 4.26-8.64-1.9-7.1-4.55 1.14-9.11 2.28-13.66 3.41-6.17 1.54-4.26 8.64 1.9 7.1z"/><path class="st1" d="M1197.95 889.5c2.94 0 10.73-4.39 4.18-4.39-2.95 0-10.74 4.39-4.18 4.39z"/><path class="st0" d="M1198.4 890.91c7.84 1.52 15.38-.34 22.05-4.57 1.92-1.22 2.26-3.94.46-5.37-2.09-1.67-5.14-.72-7.11.53-3.68 2.34-7.86 2.71-12.06 1.9-5.08-.99-9.91 6.24-3.34 7.51z"/><path class="st1" d="M1180.97 865.93c1.88 0 5.59-.7 6.56-2.59.99-1.93-.84-2.47-2.56-2.47-1.88 0-5.59.7-6.56 2.59-1 1.93.83 2.47 2.56 2.47z"/><path class="st0" d="M1110.55 799.3c-5.69 1.14-11.38 2.28-17.07 3.41-1.56.31-4.79 1.92-4.24 3.97.59 2.18 4.17 1.62 5.66 1.32 5.69-1.14 11.38-2.28 17.07-3.41 1.56-.31 4.79-1.92 4.24-3.97-.58-2.18-4.17-1.62-5.66-1.32zM924.1 803.35c-7.97-2.28-15.93-4.55-23.9-6.83-2.16-.62-5.01.19-6.93 1.2-.93.49-3.35 2.2-1.14 2.83 7.97 2.28 15.93 4.55 23.9 6.83 2.16.62 5.01-.19 6.93-1.2.92-.49 3.34-2.2 1.14-2.83z"/><path class="st1" d="M836.33 798.46c2.19 0 5.49-.6 6.47-2.92.87-2.05-.77-3.76-2.91-3.76-2.19 0-5.49.6-6.47 2.92-.87 2.05.77 3.76 2.91 3.76zM771.28 784.13c1.94 0 5.56-.68 6.55-2.64.99-1.96-.84-2.69-2.62-2.69-1.94 0-5.56.68-6.55 2.64-1 1.95.83 2.69 2.62 2.69z"/><path class="st0" d="M768.57 783.14c7.97 3.41 15.93 6.83 23.9 10.24 1.92.82 4.5.1 6.37-.58.38-.14 4.5-2.11 2.96-2.77-7.97-3.41-15.93-6.83-23.9-10.24-1.92-.82-4.5-.1-6.37.58-.37.13-4.5 2.11-2.96 2.77zM880.79 873.43c-5.69-1.14-11.38-2.28-17.07-3.41-4.92-.98-9.97 5.96-3.4 7.27a10300 10300 0 0 0 17.07 3.41c4.91.98 9.96-5.96 3.4-7.27z"/><path class="st0" d="m865.98 883.89 88.77 27.33c4.3 1.32 11.65-4.89 5.7-6.72l-88.77-27.33c-4.3-1.33-11.66 4.88-5.7 6.72z"/><path class="st1" d="M1049.43 918.47c5.81 0 7.45-7.7.76-7.7-5.82 0-7.46 7.7-.76 7.7z"/><path class="st0" d="M1192.66 874.34c4.55-2.28 9.11-4.55 13.66-6.83 1.25-.63 2.96-1.68 1.2-2.63-1.64-.89-5.45.51-6.92 1.25-4.55 2.28-9.11 4.55-13.66 6.83-1.25.63-2.96 1.68-1.2 2.63 1.64.89 5.45-.51 6.92-1.25z"/><path class="st1" d="M1220.69 858.44c2.12 0 5.3-.51 7-1.87 1.25-1.01 1.67-1.86-.5-1.86-2.12 0-5.3.51-7 1.87-1.25 1.02-1.67 1.86.5 1.86z"/><path class="st0" d="M1280.71 844.52c22.28 4.47 45.4-4.18 59.18-22.26 3.79-4.97-5.56-6.39-8.26-2.84-11.44 15.01-28.95 21.71-47.47 18-4.81-.96-10.01 5.79-3.45 7.1z"/><path class="st1" d="M1341.46 644.04c1.9 0 5.57-.7 6.56-2.6 1-1.94-.85-2.53-2.58-2.53-1.9 0-5.57.7-6.56 2.6-1.01 1.93.85 2.53 2.58 2.53z"/><path class="st0" d="M1341.6 639.86c-6.83 2.28-13.66 4.55-20.49 6.83-1.35.45-3.81 1.78-2.79 3.43.99 1.59 5.32.17 6.47-.21 6.83-2.28 13.66-4.55 20.49-6.83 1.35-.45 3.81-1.78 2.79-3.43-.99-1.58-5.32-.17-6.47.21z"/><path class="st1" d="M1211.78 654.53c2 0 5.54-.66 6.53-2.71.96-1.99-.82-2.94-2.69-2.94-2 0-5.54.66-6.53 2.71-.96 2 .82 2.94 2.69 2.94zM1121.7 650.26c2.13 0 5.31-.44 7-1.87 1.22-1.03 1.67-2.04-.55-2.04-2.13 0-5.31.44-7 1.87-1.22 1.03-1.67 2.04.55 2.04z"/><path class="st0" d="M1127.04 650.94c9.11-3.41 18.21-6.83 27.32-10.24 1.84-.69 3.66-2.82 2.43-4.74-1.32-2.06-4.93-1.19-6.67-.54-9.11 3.41-18.21 6.83-27.32 10.24-1.84.69-3.66 2.82-2.43 4.74 1.32 2.06 4.93 1.19 6.67.54z"/><path class="st1" d="M1234.37 643.42c2.13 0 5.31-.44 7-1.87 1.22-1.03 1.67-2.03-.54-2.03-2.13 0-5.31.44-7 1.87-1.22 1.03-1.67 2.03.54 2.03z"/><path class="st0" d="m1322.33 630.13-2.11 2.11c-4.22 4.22 5.41 4.87 8.09 2.19l2.11-2.11c4.21-4.22-5.42-4.87-8.09-2.19l-2.11 2.11c-4.22 4.22 5.41 4.87 8.09 2.19l2.11-2.11c4.21-4.22-5.42-4.87-8.09-2.19zM512.41 342.85c-122.59 18.03-250.56 40.21-345.34 126.49-5.41 4.92 13.75 2.86 16.8.54 38.68-29.34 72.93-61.21 118.36-80.62 52.51-22.44 108.51-29.97 165.15-24.59 5.09.48 22.89-8.25 12.52-9.24-54.66-5.19-109.11.46-161.09 18.54-58.86 20.48-101.62 57.17-150.4 94.17l16.8.54c88.69-80.74 209.49-100.1 323.95-116.94 8.64-1.26 17.11-10.93 3.25-8.89z"/><path class="st0" d="M516 261.95c-84.77 7.05-168.69 21.3-250.74 43.84-64.69 17.77-132.33 38.29-187.86 77.23-34.67 24.31-99.78 82.14-69.66 129.56 15.93 25.07 52.72 39.69 77.77 52.18 35.67 17.78 72.65 32.86 110.24 46.06 168.04 59.05 347.05 90.86 520.18 131.46 81.91 19.21 164.14 37.88 248.1 45.39 92.83 8.29 186.57 6.46 279.68 7.41 94.42.96 189.38 4.51 283.66-2.4 105.34-7.72 207.56-42.52 313.4-42.65 8.25-.01 20.7-12.49 7.36-12.47-73.98.09-144.93 17.48-217.35 30.23-80.85 14.23-162.53 16.57-244.46 16.14-165.61-.89-336.71 7.81-500.52-19.9-158.14-26.74-314.59-69.9-470.58-106.99-72.15-17.15-144.25-35.29-214.14-60.31-36.25-12.98-71.89-27.83-106.19-45.35C53.62 530.3.96 505.93 30.96 452.3c41.39-74 133.49-104.5 209.63-127.22 89.06-26.57 180.5-43.08 273.08-50.78 10.29-.85 15.97-13.48 2.33-12.35z"/><path class="st0" d="M541.42 247.47c-40.03-1.85-78.7 1.48-117.9 9.74-6.79 1.43-13.05 10.73-2.37 11.14 27.53 1.04 54.31-.07 81.66-3.38.85-3.85 1.7-7.7 2.54-11.55-119.61 14.71-242.97 30.37-351.34 86.74-37.59 19.55-80 44.33-99.16 84.13-17.66 36.69-8.44 82.53 29.96 100.87 4.61-3.51 9.22-7.02 13.83-10.54-36.02-12.28-55.38-45.72-50.99-82.73l-19.81 3.81c16 77.12 98.61 177.38 185.41 141.09 12.68-5.3 1.19-12.56-7.98-8.73-72.47 30.3-145.51-79.17-157.64-137.66-1.47-7.1-19.1-2.2-19.81 3.81-5.1 43.03 18.35 77.8 58.82 91.6 5.09 1.73 22.37-6.46 13.83-10.54-48.45-23.14-39.28-84.08-8.06-117.73 33.19-35.77 83.58-58.13 128.5-74.99 90.31-33.89 186.69-45.89 281.88-57.6 9.82-1.21 16.24-13.2 2.54-11.55a483.628 483.628 0 0 1-76.65 3.17c-.79 3.71-1.58 7.42-2.37 11.14 35.72-7.53 71.05-10.19 107.53-8.5 7.92.38 20.93-11.12 7.58-11.74zM490.33 693.3c169.98 35.44 342.58 54.52 516.2 56.94 1.67-3.95 3.33-7.9 5-11.85-216.97 21.27-431.93-20.44-639.36-81.66-6.79-2-23.27 8-11.96 11.34 210.58 62.16 428.63 103.67 648.83 82.08 6.99-.69 17.61-11.67 5-11.85-172.15-2.4-343.21-21.2-511.75-56.34-6.8-1.42-23.34 8.97-11.96 11.34zM1291.29 786.79c126.45 13.15 253.36 17.62 380.43 13.63.7-4.39 1.41-8.78 2.11-13.16-55.84 5.18-111.68 10.35-167.52 15.53-7.64.71-17.26 12.77-4.64 13.18 169.96 5.62 337.36-31.02 489.21-107.65-3.54-3.03-7.07-6.06-10.61-9.1-93.76 65.14-217.42 83.83-328.6 96.04-112.86 12.39-226.44 10.44-338.98-4.14-1.55 4.39-3.09 8.79-4.64 13.18l265.83-5.07c.7-4.39 1.41-8.78 2.11-13.16-56.4 6.03-112.56 6.63-169.08 1.79l-7.17 13.2 86.17.66c8.74.07 20.52-13.09 7.17-13.2-33.35-.28-66.71-.57-100.06-.85-1.55 4.39-3.09 8.79-4.64 13.18 186.74-4.51 375.24-10.56 554.74-67.41 11.81-3.74 8.78-16-3.27-12.19-177.8 56.31-364.44 61.96-549.36 66.43-8.16.2-16.84 13.08-4.64 13.18 33.35.28 66.71.57 100.06.85l7.17-13.2-86.17-.66c-8.36-.06-20.96 12.02-7.17 13.2 58.21 4.99 116.04 4.39 174.14-1.83 10.53-1.13 15.81-13.42 2.11-13.16l-265.83 5.07c-8.2.16-16.83 11.6-4.64 13.18 123.81 16.04 249.11 16.81 372.96.62 108.03-14.12 223.48-34.57 314.59-97.87 10.11-7.02-3.4-12.74-10.61-9.1-147.05 74.21-308.98 110.24-473.63 104.8-1.55 4.39-3.09 8.79-4.64 13.18 55.84-5.18 111.68-10.35 167.52-15.53 10.57-.98 15.78-13.59 2.11-13.16-125.39 3.94-250.6-.69-375.37-13.66-8.94-.93-20.51 11.81-7.16 13.2z"/><path class="st0" d="M1781.1 783.79c91.7-8.47 202.99-32.7 232.62-133.79 1.85-6.31-16.81-.29-18.84 2.01-48.61 54.99-102.36 114.96-178.82 126.38-5.27.79-18.42 9.28-5.82 8.77 67.03-2.74 132.14-23.94 185.81-64.81 22.11-16.84 47.03-37.6 51.3-66.61 4.75-32.26-17.39-75.94-40-98.26-26.58-26.24-74.82-33.19-109.44-43.12-46.69-13.39-93.91-24.9-141.51-34.51-91.12-18.39-183.42-29.45-276.25-34.03-3.48 3-6.96 5.99-10.44 8.99 58.48-4.1 115.92-.44 173.35 11.26 4.06-2.89 8.13-5.77 12.19-8.66-60.03 2.01-117.16-8.93-172.41-32.24-4.06 2.89-8.13 5.77-12.19 8.66 40.41-.3 78.78 5.73 117.24 17.97 4.78-2.87 9.56-5.75 14.35-8.62l-53.71-8.31c-3.48 3-6.96 5.99-10.44 8.99 96.86 1.47 192.74 18.49 283.84 51.6 43.31 15.74 87.34 34.24 126.75 58.26 42.88 26.13 52.18 62.64 54.84 110.18.26 4.61 19.29.51 19.7-4.23 9.57-110.6-85.27-188.52-191.7-167.9-8.29 1.61-17.16 11.18-3.36 8.5 100.83-19.54 184.04 63.22 175.45 162.56l19.7-4.23c-2.75-49.17-12.49-85.39-56.07-111.94-40.21-24.5-85.1-43.45-129.21-59.48-93.72-34.06-192.07-50.82-291.64-52.33-3.9-.06-20.85 7.38-10.44 8.99l53.71 8.31c3.62.56 21.46-6.36 14.35-8.62-41.08-13.07-81.96-19.03-125.04-18.7-2.35.02-19.63 5.52-12.19 8.66 57.92 24.44 117.45 35.08 180.22 32.98 2.29-.08 19.59-7.15 12.19-8.66-60.05-12.23-120.02-16.28-181.16-11.99-3.58.25-20.9 8.47-10.44 8.99 142.69 7.04 284.05 29.91 421.26 69.92 34.64 10.1 78.61 17.38 103.42 44.82 21.84 24.15 44.07 67.97 32.89 100.71-10.87 31.83-47.26 54.74-74.82 70.7-40.72 23.58-84.89 35.29-131.78 37.21a6678.5 6678.5 0 0 0-5.82 8.77c85.59-12.79 145.29-73.57 200.26-135.75l-18.84 2.01c-26.76 91.1-120.81 113.8-204.77 121.56-5.83.54-21.29 10.23-8.29 9.03zM201.54 431.14C309.73 380.15 414 340.4 534.89 334.55c-.32-4.72-.65-9.44-.97-14.16-109.63 24.86-216.01 60.35-318.67 106.12-12.35 5.51-1.4 16.35 8.8 11.8 101.03-45.05 205.68-79.77 313.54-104.22 10.14-2.3 10.64-14.72-.97-14.16-124.48 6.02-232.38 46.86-343.86 99.41-12.24 5.76-1.37 16.59 8.78 11.8z"/><path class="st0" d="M204.48 439.82c17.93 22.91 46.74 31.82 73.2 41.54 35.24 12.94 71.4 23.28 107.94 31.82 79.09 18.49 159.84 28.31 240.37 38.08 3.35-3.47 6.71-6.94 10.06-10.4-102.14 1.58-200.69-21.03-292.09-66.57-5.4-2.69-23.61 5.33-15.85 9.2 93.79 46.74 195.32 69.58 300.07 67.96 4.43-.07 21.18-9.05 10.06-10.4-71.37-8.65-142.85-17.36-213.28-32.09-37.8-7.91-75.26-17.49-111.86-29.86-30.84-10.42-69.4-20.24-90.19-46.81-3.89-4.98-22.95 1.75-18.43 7.53z"/><path class="st0" d="M506.61 527.87c64.82 68.23 175.45 74.6 262.77 89.56 112 19.19 224.74 34.3 338.05 43.08 225.58 17.49 453.19 7.79 673.49-46.21 11.88-2.91 9.42-12.2-2.49-9.29-212.14 51.99-431.23 61.56-648.5 45.9-106.98-7.71-213.49-21.47-319.3-38.92-92.33-15.23-217.29-19.79-285.61-91.71-4.5-4.74-23.29 2.46-18.41 7.59z"/><path class="st0" d="M441.43 541.25c350.77 116.29 723.11 155.44 1090.4 114.74l2.76-10.72c-84.26 10.11-168.51 20.23-252.77 30.34-6.41.77-17.96 10.41-5.26 10.87 175.5 6.36 349.2-24.37 511.98-90.2-3.33-2.26-6.66-4.52-9.99-6.79-59.74 31.16-122.43 53.66-188.24 68.08-8.98 1.97-11.87 12.17-.09 10.19 38.39-6.45 74.8-18.76 108.05-39.27 20-12.33 66.31-40.22 60.09-70.07-3.65-17.53-23.47-21.48-37.62-26.47-23.03-8.13-46.56-15.17-70.05-21.85-55.07-15.67-110.97-27.7-167.46-36.92l-9.96 10.8c100.27 9.76 215.41 25.64 269.51 122.48 5.93-2.46 11.86-4.92 17.78-7.38-20.28-13.69-26.59-33.75-20.14-56.79-6.59 1.31-13.19 2.62-19.78 3.92 9.85 70.43-92.83 92.92-143.11 104.58-64.43 14.94-130.18 18.99-196.07 14.39-5.37-.37-20.73 9.5-9.96 10.8 79.13 9.5 156.8 2.06 232.52-22.85 11.48-3.78 9.23-13.55-2.59-9.66-70.92 23.33-143.63 30.83-217.77 21.93l-9.96 10.8c88.01 6.14 176.18-3.5 260.23-30.72 46.94-15.21 114.92-44.32 106.49-104.56-.99-7.05-18.4-1.02-19.78 3.92-7.46 26.67 1.42 48.37 24.13 63.7 3.44 2.32 20.92-1.76 17.78-7.38-56.78-101.64-176.19-117.93-281.55-128.19-5.36-.52-20.78 9.03-9.96 10.8 69.99 11.42 139.1 27.28 206.73 48.71 11.73 3.72 30.36 6.35 40.68 13.59 36.98 25.94 8.84 47-14.47 64.5-32.8 24.63-70.72 39.69-111.02 46.46l-.09 10.19c69.25-15.17 135.03-39.3 197.87-72.07 11.07-5.77-4.01-9.2-9.99-6.79-157.94 63.87-326.24 93.26-496.48 87.08-1.75 3.62-3.51 7.25-5.26 10.87 84.26-10.11 168.51-20.23 252.77-30.34 9.48-1.14 16.54-12.25 2.76-10.72-362.71 40.2-730.99 1.38-1077.38-113.46-5.84-1.95-23.71 6.81-15.73 9.46z"/></svg>