<svg version="1.1" id="Ebene_1" xmlns="http://www.w3.org/2000/svg" x="0" y="0" viewBox="0 0 1506 2048" style="enable-background:new 0 0 1506 2048" xml:space="preserve"><style>.st0,.st1{fill:#fff}.st1{stroke:#fff;stroke-miterlimit:10}</style><path class="st0" d="M697.87 1335.05c4.5 0 11.41-3.48 11.98-8.46.64-5.57-5.86-6.6-9.86-6.6-4.5 0-11.41 3.48-11.98 8.46-.65 5.56 5.85 6.6 9.86 6.6z"/><path class="st1" d="M708.81 1326.74c51.36-41.3 120.27-40.4 177.27-10.09 5.37 2.85 22.5-6.09 20.41-7.2-72.67-38.65-154.06-31.52-217.17 19.22-4.14 3.35 15.48 1.3 19.49-1.93z"/><path class="st1" d="M380.5 1475.51c89.96 33.53 192.54-11.51 262.1-69.76 43.85-36.72 69.43-88.34 104.82-132.43 22.54-28.08 48.28-63.4 84.92-31.7 23.07 19.96 33.48 52.03 54.46 74.37 3.98 4.24 24.14-3.5 20.31-7.58-28.44-30.27-44.29-88.77-93.51-92.51-34.59-2.63-57.78 24.36-77.6 48.5-40.04 48.77-68.99 108.34-119.31 147.57-61.15 47.67-141.71 83.4-218.55 54.76-5.08-1.9-24.54 6.21-17.64 8.78z"/><path class="st1" d="M132.68 1182.54c14.44 64.38 33.59 138.06 74.62 191.26 39.27 50.92 110.6 77.33 168.04 102.05 5 2.15 24.64-5.81 17.64-8.82-59.72-25.7-134.13-53.94-171.91-110.08-35.24-52.35-53.14-119.44-66.77-180.2-1.18-5.25-22.9.08-21.62 5.79z"/><path class="st1" d="M157.12 1179.7c-4.22-51.46 7.53-99.82 24.38-148.07 14.73-42.17 30.18-85.04 55.47-122.18 51.59-75.77 132.41-124.85 216.52-157.19 94-36.14 193.91-58.41 294.62-61.95 99.25-3.49 198.24 8.11 296.65 19.56 6.09.71 25.19-9.43 13.49-10.79-109.33-12.72-219.59-25.54-329.82-18.48-100.72 6.45-201.53 30.99-295.08 68.77-82.17 33.18-160.71 82.19-212.83 155.4-26.69 37.49-42.71 80.29-58.15 123.32-18.37 51.2-31.34 102.71-26.86 157.4.49 6.05 22.23 1.7 21.61-5.79zM887.66 1314.01c8.02 1.71 22.44 38.21 26.52 45.47 7.65 13.63 15.12 27.66 26.32 38.7 39.46 38.9 100.91 63.36 154.5 71.76 102.59 16.09 207.76-19.6 284.29-88.6 39.28-35.41 68.27-74.94 80.87-126.73 12.32-50.62 12.9-104.27 9.69-155.97-4.55-73.41-46.24-147.9-93.67-203.56-4.02-4.72-24.59 2.74-20.24 7.86 22.58 26.49 39.8 58.36 56.43 88.8 13.08 23.93 28.57 49.28 32.82 76.54 14.17 90.93 10.51 206.27-51.9 279.11-84.09 98.14-219.08 144.38-342.77 96.84-47.66-18.32-89.69-45.96-114.72-90.54-7.25-12.92-17.91-46.29-34.47-49.81-5.64-1.2-25.1 7.7-13.67 10.13z"/><path class="st1" d="M1033.9 710.21c70.56 23.03 147.51 47.66 208.06 91.92 29.98 21.91 51.54 48.89 74.1 77.81 14.79 18.96 28.93 33.09 51.8 41.22 7.86 2.79 25.32-8.58 12.9-12.99-34.46-12.24-50.62-48.32-73.68-74.03-20.04-22.33-43.5-41.7-69.11-57.33-58.25-35.54-126.61-58.51-191.16-79.59-7.9-2.58-25.41 8.91-12.91 12.99zM416.83 1433.84c92.08 5.18 175.54-32.82 235.14-102.63 36.04-42.22 61.14-97.82 102.61-134.92 38.72-34.64 101.98-29.9 127.76 17.11 9.23 16.83-1.8 40.72 18.66 49.02 6.13 2.48 25.84-6.63 17.3-10.09-16.42-6.66-3.69-23.92-8.38-36.24-3.82-10.05-15.41-20.37-23.05-27.59-14.76-13.95-31.01-24.74-51.44-28.2-38.12-6.45-75.77 10.8-102.28 37.29-39.42 39.38-64.89 91.34-101.2 133.55-53.14 61.76-124.16 95.71-206.53 91.08-7.86-.46-23.1 10.81-8.59 11.62z"/><path class="st1" d="M895.76 1242.52c19.92 30.66 25.35 66.9 49.11 95.92 22.33 27.29 51.91 48.13 84.17 62.07 65.87 28.48 150.23 35.2 218.31 10.58 61.65-22.3 122.3-78.11 157.44-132.69 20.9-32.46 31.16-72.51 35.42-110.64 1.91-17.1 1.99-33.66-4.72-49.85-9.1-21.96-31.11-36.23-23.38-63.21 2.01-7.03-19.57-4-21.55 2.94-8.78 30.66 16.59 44.65 25.69 71.71 10.1 30.04-.91 68.61-9.31 98.18-19.26 67.77-83.05 133-145.18 165.24-73.88 38.33-178.77 24.34-247.72-19.53-27.31-17.38-51.04-40.58-66.78-69.12-12.47-22.61-17.21-48.06-31.36-69.83-3.63-5.57-24.66 1.28-20.14 8.23zM183.2 1117.9c3.34 36.08 2.04 77.19 16.25 110.98 12.95 30.77 35.99 58.71 54.4 86.39 16.16 24.3 31.05 46.6 55.84 62.89 31.21 20.52 67.63 34.91 102.36 48.3 5.85 2.26 22-6.61 20.4-7.23-31.04-11.96-62.38-24.91-91.21-41.66-33.23-19.31-52.01-47.34-72.78-78.63-17.05-25.68-38.88-51.77-49.59-80.95-12-32.7-10.89-71.56-14.06-105.88-.33-3.61-22.12.29-21.61 5.79z"/><path class="st1" d="M205.75 1130.81c28.51-73.75 58.47-145.95 114.85-203.24 62.58-63.59 128.78-119.37 217.89-137.83 88.81-18.4 179.55-28.57 270.16-31.78 47.51-1.68 95.08-1.31 142.56 1.15 46.89 2.42 94.13 5.24 135.26 30.29 7.82 4.76 26.93-5.99 16.73-12.21-73.02-44.48-173.83-36.6-256.17-35.45-104.78 1.47-209.74 12.45-312.38 33.71-85.84 17.79-144.92 65.05-208.28 123.36-70.11 64.52-107.32 142.07-141.22 229.77-4.39 11.39 17.26 10.88 20.6 2.23z"/><path class="st1" d="M1088.76 792.16c30.2.34 67.94 31.28 93.93 45.29 35.13 18.93 72.06 33.94 95.43 67.57 40.04 57.63 96.79 102.35 113.09 174.67 1.51 6.7 23.21 1.27 21.62-5.79-8.03-35.63-29.4-72.65-51.02-102.08-11.75-15.99-26.32-28.46-39.64-42.94-13.03-14.17-21.46-31.47-33.95-45.94-23.56-27.29-63.11-41.87-94.17-58.61-28.83-15.54-62.77-43.08-96.62-43.46-7.54-.09-23.17 11.13-8.67 11.29zM203.86 1089.9c-12.17 70.45 5.89 139.89 45.12 199.15 32.78 49.52 80.27 103.08 141.04 114.81 114.15 22.04 243.01-26.46 306.54-124.75 5.98-9.25-15.91-8.46-20.41-1.5-31.41 48.6-78.01 83.13-132.83 101.42-51.51 17.19-123.47 26.34-173.99 1.28-45.21-22.42-84.7-72.37-109.81-115.19-31.7-54.06-44.6-115.44-33.89-177.39 1.66-9.65-20.29-6.4-21.77 2.17z"/><path class="st1" d="M401 1420.34c65.71 6.32 111.51-9.45 172.52-32.32 11.89-4.46 4.56-8.04-4.51-5.34-55.59 16.58-111.19 32.14-169.77 24.68-5.94 2.71-11.88 5.43-17.82 8.14 37.63 4.64 73.94 7.53 111.43.4 8.33-1.58 19.53-9.81 4.14-7.54-29.34 4.33-55.55 3.03-84.36-2.94-5.94 2.71-11.88 5.43-17.82 8.14 48.93 5.32 95.04.11 141.85-14.74 14.69-4.66.8-7.04-7.35-4.46-38.36 12.17-76.89 15.38-116.67 11.06-4.23-.46-23.94 6.87-17.82 8.14 22.98 4.77 45.83 7.26 69.32 5.78 2.4-.15 27.27.95 9.68-7.48-12.37.71-24.71.56-37.04-.43a856.565 856.565 0 0 1-37.52-4.07c-4.95-.61-23.17 7.46-17.82 8.14 42.22 5.38 83.11 1.02 124.42-8.69 11.18-2.63 22.26-5.59 33.32-8.69 8.88-2.49 29.12-11.67 9.83-8.12-11.62 2.14-23.13 9.09-34.36 12.88-35.01 11.81-61.26 12.64-95.81 9.32-5.01-.48-23.03 7.64-17.84 8.14zM893.22 1229.59c13.27 120.43 191.45 175.68 294.37 170.31 55.93-2.92 108.16-32.98 151.69-66.31 40.83-31.26 100.68-81.98 99.58-138.09-.12-6.25-21.77-2.22-21.62 5.79.99 50.39-54.07 96.98-90.25 125.46-54.08 42.57-111.73 68.11-181.62 58.07-88.45-12.71-219.12-57.5-230.53-161.03-.74-6.64-22.48-1.98-21.62 5.8z"/><path class="st1" d="M997.45 1368.24c25.99 9.73 51.42 20.43 76.55 32.22 4.15-4.9 8.29-9.81 12.44-14.71-28.12-11.43-56.24-22.86-84.36-34.3-7.13-2.9-24.63 6.8-14.54 13.64 62.25 42.23 135.65 58.38 209.85 45.94 11.67-1.95 17.09-15.93 1.87-16.01-37.49-.19-73.78-4.19-110.47-11.69-8.39-1.72-22 10.49-9.94 15.29 103.66 41.33 208.73-3.46 288.04-72.9 11.01-9.64-6.12-17.27-14.38-10.04-72.44 63.42-165.86 106.25-261.21 68.23-3.31 5.1-6.63 10.2-9.94 15.29 38.43 7.85 76.85 11.61 116.04 11.81.62-5.34 1.25-10.67 1.87-16.01-69.59 11.66-136.69-2.89-195.09-42.51l-14.54 13.64c28.12 11.43 56.24 22.86 84.36 34.3 9.17 3.73 25.01-8.81 12.44-14.71a1032.92 1032.92 0 0 0-76.55-32.22c-9.32-3.46-25.29 9.93-12.44 14.74zM231.37 1097.2c3.79-9.3 7.59-18.6 11.38-27.9 4.6-11.27-17.09-10.84-20.6-2.23-3.79 9.3-7.59 18.6-11.38 27.9-4.6 11.28 17.08 10.84 20.6 2.23zM349.91 1343.62c106.79 71.17 232.94 22.67 305.46-71.77 52.85-68.82 105.51-149.29 206.1-114.01 49.34 17.3 65.05 46.18 83.57 91.59 12.78 31.33 30.96 59.4 53.16 84.89 5.65 6.49 26.32-1.65 19.93-8.99-27.74-31.85-44.76-65.74-59.84-104.98-10.09-26.27-24.28-44.2-48.47-58.88-49.15-29.83-111.71-36.94-163.33-9.38-57.82 30.87-86.89 92.03-128.74 139.26-64.64 72.95-167.41 96.45-250.92 40.8-6.85-4.57-26.4 5.15-16.92 11.47z"/><path class="st1" d="M1008.11 1340.28c97.59 46.09 216.76 35.64 304.69-27.41 44.61-31.98 77.35-75.42 86.63-130.37 10.68-63.24-8.01-124.99-25.76-185.02-3.05-10.33-24.66-4.5-21.62 5.79 30.9 104.53 52.93 216.15-45.15 292.7-81.29 63.45-194.1 72.87-286.45 29.25-9.39-4.44-24.86 9.15-12.34 15.06zM369.53 1332.97c-57.5-26.55-92.07-79.34-108.31-139.26-16.3-60.13-24.69-135.16 10.73-189.92 5-7.73-16.44-5.31-19.97.15-36.71 56.76-29.33 133.03-12.38 195.56 16.79 61.93 53.27 115.93 112.57 143.32 5.8 2.69 25.65-6.02 17.36-9.85z"/><path class="st1" d="M268.95 1001.19c7.84-24.54 28.12-36.63 46.37-52.72 14.78-13.04 26.78-28.88 42.19-41.24 39.77-31.89 94.93-49.93 141.87-68.76 103.56-41.54 211.17-56.85 322.41-52.55 97.55 3.78 200.12 16.33 294.18 43.47 52.75 15.22 102.25 39.94 145.91 73.25 43.38 33.09 63.33 69.11 74.05 122.13 1.5 7.4 23.21 2.06 21.62-5.79-12.25-60.58-35.68-96.06-85.92-132.51-39.45-28.62-83.31-50.5-129.81-65.05-111.24-34.79-236.78-48.68-353.08-48.6-115.87.08-223.78 24.86-330.1 70.11-43.88 18.68-92.06 36-127.77 68.8-17.94 16.47-34.46 33.56-52.89 49.6-14.17 12.33-24.83 24.36-30.65 42.56-2.37 7.45 19.29 4.61 21.62-2.7z"/><path class="st1" d="M512.52 832.66c-69 1.51-97.21 57.72-130.74 109.36-20.18 31.07-43.99 57.3-55.31 93.3-11.15 35.47-16.91 75.23-15.15 112.39 3.12 65.95 35.3 129.51 84.15 173.47 25 22.5 86.45 73.25 117.91 38.01 6.09-6.82-15.49-5.53-20.1-.37-6.87 7.69-67.02-36.92-69.69-39.13-16.41-13.55-30.96-29.09-43.5-46.29-27.77-38.08-45.02-84.26-47.15-131.49-2.45-54.43 9.85-116.56 41.38-161.32 31.22-44.34 68.08-134.47 129.76-135.82 7.97-.17 22.95-12.43 8.44-12.11zM1147.07 1362.55c44.2-4.55 76.39-32.07 96.34-71.03 29.5-57.59 51.94-132.9 39.51-197.48-21.52-111.78-73.4-250.65-194.54-283.58-6.61-1.8-25.32 8.14-13.33 11.4 102.5 27.86 143.93 132.42 171.74 224.64 17.16 56.91 22.3 105.06 5.56 163.09-15.31 53.07-35.35 134.57-102.2 141.46-10.35 1.07-18.12 13.05-3.08 11.5zM366.66 1477.11c23.01 27.7 45.22 56.93 78.36 72.99 32.39 15.69 69.39 18.2 104.76 14.85 38.61-3.66 75.76-15.37 112.89-25.9 58.82-16.68 116.57-23.48 177.66-18.58 52.03 4.17 103.16 15.29 153.93 26.89 35.12 8.02 70.81 16.58 107.02 11.65 65.06-8.87 112.15-55.15 142.87-110.6 2.22-4-18.16-2.49-21.43 3.41-18.69 33.74-43.43 66.33-78.16 84.95-50.99 27.33-108.64 6.54-160.78-4.92-66.67-14.65-134.85-26.28-203.37-22.83-69.64 3.51-132.31 30.55-200.16 42.74-44.5 7.99-93.15 6.91-131.98-18.97-24.58-16.39-42.7-40.97-61.35-63.42-3.83-4.63-24.41 2.74-20.26 7.74z"/><path class="st1" d="M635.08 1477.56c55.98 31.41 127.43 20.92 189.02 20.15 44.87-.56 92.78-2.72 122.74-40.67.84-1.07-17.34-.94-21.26 4.03-31.17 39.47-116.33 28.97-161.74 29.2-37.92.2-74.46-.85-108.33-19.85-5.22-2.93-22.44 6.01-20.43 7.14zM383.72 1481.9c13.03 7.29 28.34 14.65 43.66 15.09 30.68.89-4.99-11.05-16.67-14.71-4.34-1.36-21.89 6.3-19.11 7.69 15.2 7.6 28.67 16.17 41.99 26.73 6.8-2.41 13.6-4.83 20.4-7.24-7.3-3.22-24.71-7.69-16.7-18.84 1.16-1.62 32.87 1.52 36.58 1.12 12.84-1.35 21.76-4.57 33.25-10.01 10.89-5.15-1.9-5.56-7.01-4.34-24.62 5.85-58.99 17.74-82.78 9.93-5.32 2.77-10.64 5.55-15.96 8.32 20.26 1.66 40.52 3.33 60.77 4.99l11.79-8.4c-15.25 2.71-30.44 2.37-45.57-1.01-5.32 2.77-10.64 5.55-15.96 8.32 67.54-.79 131.35-20.24 187.1-58.63l-17.99.78c-5.22 5.36-35.26 33.12-35.88 32.24.65.92 27.87-13.63 29.7-14.56 18.41-9.29 36.58-19.02 54.62-29.01 8.95-4.95-12.57-2.47-16.46-.31a1547.47 1547.47 0 0 1-92.18 47.04c-10.8 5.06 1.8 5.76 7.01 4.34 28.57-7.78 51.87-20.21 72.71-41.6 4.88-5.01-15.47-.95-17.99.78-47.01 32.37-99.27 49.77-156.53 50.44-3.22.04-22.4 7.23-15.96 8.32 18.3 3.1 35.49 3.46 53.92 1.16 3.02-.38 22.76-7.5 11.79-8.4-20.26-1.66-40.52-3.33-60.77-4.99-3.26-.27-22.64 6.13-15.96 8.32 14.18 4.66 26.47 4.88 41.26 2.38 6.85-1.16 13.64-3 20.4-4.57l17.4-4.14c14.1-1.71 15.48-3.08 4.16-4.11-19.64-7.91-56.78-6.92-75.39 5.3-.53.35-3.04 1.86-2.58 3.05 4.74 12.08 17.6 18.39 28.81 23.34 4.01 1.77 24.03-4.36 20.4-7.24-13.32-10.56-26.78-19.13-41.99-26.73-6.37 2.56-12.74 5.13-19.11 7.69 20.45 6.41 38.72 8.05 59.85 6.45 5.48-.42 23.62-9.19 9.47-8.3-22.2 1.4-39.43-3.48-58.08-13.91-5.32-2.98-22.73 5.94-20.41 7.23zM1082.94 1478.91c53.58 7.72 104.42.75 154.18-20.41 13.59-5.78 1.6-18.27-9.78-13.5-25.34 10.64-51 17.94-78.04 22.69 1.39 5.2 2.79 10.4 4.18 15.59 38.94-7.63 75.84-19.72 111.84-36.35l-9.78-13.5c-33.17 15.61-66.34 31.22-99.51 46.84-7.39 3.48-8.22 13.94 1.24 14.94 25.21 2.66 52.74-17.33 74.82-27.36-4.05-4.01-8.1-8.01-12.15-12.02-10.92 7.59-22.14 14.24-34 20.27-11.36 5.78-4.12 17.35 6.98 14.54 1.59-.4 3.18-.8 4.77-1.21-3.74-3.75-7.47-7.51-11.21-11.26l-13.57 14.41c-10.41 8.6 3.28 16.26 12.15 12.02 2.39-1.14 4.78-2.28 7.17-3.43l-15.87-6.03c-.69 1.4-1.37 2.79-2.06 4.19 4.67 3.4 9.34 6.81 14.01 10.21a76.967 76.967 0 0 1 17.28-17.51c10.02-8.21-3.33-17.5-12.15-12.02-3.48 1.82-6.97 3.64-10.45 5.47 4.16 3.08 8.32 6.15 12.48 9.23.67-1.41 1.33-2.81 2-4.22 3.92-3.64 5.89-10.78-1.09-12.83-14.33-4.21-23.74-2.1-38.82-1.19-8.47.51-59.04.51-63.72-8.85-4.51 4.35-9.01 8.71-13.52 13.06 32.33 3.61 64.64 6.15 97.14 7.62-1.2-4.49-2.41-8.98-3.61-13.46-11.28 7.98-22.46 15.24-34.43 22.25-12.71 7.44-1.53 18.9 9.78 13.5 10.02-4.79 20.04-9.57 30.05-14.36 13.28-6.34 1.5-18.88-9.78-13.5-10.02 4.79-20.04 9.57-30.05 14.36l9.78 13.5c13.45-7.87 26.45-16.2 39.18-25.2 5.92-4.18 4.06-13.12-3.61-13.46-32.5-1.48-64.81-4.01-97.14-7.62-7.2-.8-17.66 4.78-13.52 13.06 6.73 13.46 16.85 12.97 30.61 13.32 11.82.3 23.77 2.54 35.58 2.69 14.27.18 29.8-4.68 43.74-.58-.36-4.28-.73-8.55-1.09-12.83-4.57 4.25-6.32 5.9-8.25 11.89-2.4 7.43 6.08 11.62 12.48 9.23 6.92-2.59 9.77-3.66 16.05-7.56-4.05-4.01-8.1-8.01-12.15-12.02-7.92 6.49-14.54 13.09-21 21.12-7.26 9.03 7.12 14.27 14.01 10.21 10.42-6.14 12.02-7.02 14.24-19.13 1.55-8.42-11.29-8.21-15.87-6.03-2.39 1.14-4.78 2.28-7.17 3.43 4.05 4.01 8.1 8.01 12.15 12.02 9.94-8.21 9.58-7.68 17.29-18.02 6-8.05-4.08-13.07-11.21-11.26-1.59.4-3.18.8-4.77 1.21 2.33 4.85 4.65 9.7 6.98 14.54 13.58-6.91 26.23-14.54 38.74-23.23 11.26-7.82-3.57-15.91-12.15-12.02-12.96 5.89-43.17 26.01-57.74 24.47.41 4.98.82 9.96 1.24 14.94 33.17-15.61 66.34-31.23 99.51-46.84 13.35-6.28 1.52-18.71-9.78-13.5-34.25 15.82-69.26 27-106.24 34.25-13.8 2.7-9.26 17.95 4.18 15.59 29.06-5.1 56.47-13.38 83.64-24.78l-9.78-13.5c-44.12 18.76-89.73 24.34-137.11 17.52-11.07-1.57-21.8 14.32-7.3 16.41z"/><path class="st1" d="M1126.58 1492.64c14.22 1.01 28.29.4 42.38-1.7 3.07-.46 11.92-2.4 12.55-6.34.66-4.14-6.68-3.19-8.86-2.86-10.74 1.6-21.46 1.95-32.29 1.18-4.98-.35-11.28.95-15.29 4.1-3.13 2.46-3.04 5.3 1.51 5.62zM367.33 1176.97c79.47-53 158.93-106 238.4-159 12.14-8.1-5.36-16.65-14.52-10.55-79.47 53-158.93 106-238.4 159-12.14 8.1 5.36 16.66 14.52 10.55zM428.32 1247.2c144.4-85.84 286.94-174.76 427.53-266.71 9.41-6.15-12.22-4.96-16.89-1.9a11643.95 11643.95 0 0 1-423.51 264.21c-12.4 7.37 6.97 7.91 12.87 4.4zM934.41 1089.53a3839.615 3839.615 0 0 0 253.87-113.23c13.41-6.57 1.17-14.34-8.7-9.5a3844.845 3844.845 0 0 1-253.87 113.23c-13.94 5.62-1.31 13.54 8.7 9.5zM1064.69 1251.42c114.42-38.16 223.81-88.28 327.22-150.42 12.5-7.51 1.08-19.89-9.74-13.38-101.67 61.09-209.08 110.8-321.62 148.32-13.02 4.34-9.14 19.91 4.14 15.48zM1154.53 1132.55c65.28-28.58 130.56-57.17 195.83-85.75 13.75-6.02 1.26-13.69-8.66-9.35-65.28 28.58-130.56 57.17-195.83 85.75-13.75 6.02-1.25 13.69 8.66 9.35zM416.46 1004.94A4835.63 4835.63 0 0 1 722 870.02c13.92-5.58 1.37-14.08-8.84-9.99a4835.63 4835.63 0 0 0-305.54 134.92c-13.42 6.49-1.23 14.86 8.84 9.99zM171.42 1329.63c-6.66 65.96-1.15 122.79 26.13 183.85 26.64 59.62 60.4 115.66 95.3 170.73l7.83-12.48-10.33 3.12c-13.19 3.98-9.25 19.34 4.1 15.31l10.33-3.12c5.06-1.53 11.55-6.61 7.83-12.48-34.11-53.83-67.41-108.57-93.44-166.87-26.45-59.23-32.29-115.34-25.81-179.58 1.14-11.34-20.93-8.58-21.94 1.52z"/><path class="st1" d="M198.97 1763.42c18.67-10.08 36.92-20.76 54.47-32.7 21.45-14.59 41.26-37.94 70.24-28.06 16.78 5.72 34.1 34.31 42.91 49.17 7.54 12.72 15.11 22.88 9.12 35.3-4.2 8.7-19.81 16.86-27 21.95a1080.36 1080.36 0 0 1-56.69 37.61c-4.57 2.83-18.13 14.36-23.32 14.04-4.81-.3-3.67-3-9.51-9.5-23.41-26.09-54.91-51.95-67.97-85.11-3.14-7.98-24.54-1.63-21.62 5.79 10.09 25.63 28.25 42.8 47.17 62.24 10.74 11.04 23.42 39.79 38 44 15.76 4.55 40.18-17.72 50.85-24.34 27.49-17.04 71.63-37.38 91.47-63.36 21.71-28.43-40.1-93.97-66.84-103.93-16.88-6.28-32.63-2.48-47.79 6.05-33.59 18.89-62.76 45.17-97.11 63.72-12.75 6.91 6.13 11.18 13.62 7.13z"/><path class="st1" d="M209.86 1791.32c29.99-10.78 57.46-25.74 84.38-42.71 21.58-13.61 47.45-26.04 52.84-53.05 2.16-10.8-19.96-8.22-21.92 1.58-4.49 22.5-40.33 38.66-58.15 49.32-19.55 11.69-39.72 22.08-61.19 29.8-12.8 4.6-9.12 19.8 4.04 15.06zM239.73 1831.3c49.47-15.28 92.58-42.12 128.04-79.87 9.36-9.96-11.26-14.26-18.22-6.85-31.48 33.52-70.03 57.67-113.97 71.24-13.17 4.06-9.2 19.6 4.15 15.48zM272.26 1872.94c67.79 85.63 153.1 169.3 268.67 174.77 100.07 4.74 163.97-50.39 213.15-132.28 2.44-4.06-17.91-2.63-21.46 3.29-26.14 43.53-55.95 87.87-105.17 107.41-47.55 18.87-103.02 13.18-149.9-4.88-77.07-29.69-134.97-92.94-185.05-156.2-3.83-4.82-24.56 2.44-20.24 7.89z"/><path class="st1" d="M371.88 1803.6c27.69 56.84 87.18 78.69 144.42 95.4 37.11 10.83 84.06 12.88 101.34-29.11 2.58-6.27-18.76-3.88-21.56 2.92-18.22 44.3-103.12 4.67-131.16-8.58-31.11-14.7-56.22-35.22-71.42-66.43-3.42-7-24.47-.04-21.62 5.8z"/><path class="st1" d="m579.14 1780.72-3.42 1.26c-3.98 1.46-8.31 3.93-8.86 8.62-2.98 25.31 20.76 56.34 36.99 73.48 25.66 27.11 59.05 40.6 94.07 51.56 36.23 11.33 150.21 39.4 157.02-23.95.59-5.52-5.67-8-10.17-7.74-68.01 3.84-189.81-5.92-222.54-80.94-6.19-14.19-7.77-30.75-25.56-34.6-13.29-2.88-24.92 4.04-29.4 15.93-4.52 11.99 17.16 12.7 20.81 3.01 1.1-2.93 16.37 30.53 17.43 32.48 3.53 6.48 7.78 11.94 12.74 17.35 15.37 16.74 36.36 27.29 56.91 36.22 56.55 24.57 106.77 30.86 167.96 27.4l-10.17-7.74-21.11 18.11c-11.3 2.98-22.7 3.87-34.21 2.66-10.73-.37-20.79-1.7-31.28-3.82-24.73-5.01-51.59-13.04-74.75-23.5-31.05-14.03-87.64-56.04-82.79-97.27l-8.86 8.62 3.42-1.26c12.85-4.72 8.96-20.73-4.23-15.88zM308.03 1872.14c51.53 53.24 114.89 92.53 186.2 113.26 60.69 17.64 130.6 25.44 185.48-11.87 12.07-8.21-6.48-11.33-13.46-6.58-57.73 39.24-141.44 16.61-200.96-8.41-52.08-21.9-97.98-54.39-137.2-94.91-5.31-5.49-25.85 2.53-20.06 8.51z"/><path class="st1" d="M596.98 1878.44c32.58 34.33 76.45 39.49 117.22 59.6 5.84-3.08 11.69-6.16 17.53-9.24a1020.255 1020.255 0 0 1-83.6-43.33c-6.3 2.84-12.59 5.69-18.89 8.53a592.393 592.393 0 0 1 101 41.56c5.2-3.21 10.41-6.43 15.61-9.64-2.17-.14-4.34-.28-6.51-.43-5.48-.36-24.93 9.3-13.69 10.04 2.17.14 4.34.28 6.51.43 3.26.21 24.08-5.2 15.61-9.64a592.393 592.393 0 0 0-101-41.56c-4.03-1.24-24 5.57-18.89 8.53 28.11 16.26 56.83 31.15 86.32 44.75 5.13 2.37 25.15-5.48 17.53-9.24-39.77-19.62-82.68-24.65-114.5-58.18-4.32-4.54-24.63 3.21-20.25 7.82zM304.18 1859.61c22.9-12.48 45.81-24.96 68.71-37.44-4.55-2.45-9.11-4.9-13.66-7.35a930.46 930.46 0 0 0-72.51 46.6c-12.25 8.7 6.4 11.61 13.66 7.35 26.04-15.3 52.08-30.6 78.13-45.9-5.2-1.94-10.4-3.89-15.6-5.83l-50.43 42.39c-9.2 7.73 8.61 9.12 13.18 7.12 13.97-6.1 26.88-13.62 38.94-22.95-5.2-1.94-10.4-3.89-15.6-5.83l-42.59 37.19c5.85 1.44 11.69 2.88 17.54 4.31 5.47-5.36 10.93-10.72 16.4-16.08 9.59-9.41-11.01-8.34-15.6-5.83-6.55 3.58-13.1 7.17-19.65 10.75l17.64.78c-2.59-4.85-2.6-5.27-6.54-9.11-4.23-4.11-12.53-2.1-16.83.7-3 1.95-4.64 3.21-6.96 5.94-7.77 9.16 7.94 8.99 13.18 7.12 1.94-.69 3.88-1.38 5.82-2.08l-15.26-3.75c.04 5.28-4.63 9.95-3.4 15.3.71 3.09 12.04 11.87 11.53 12.93-4.12 8.56 10.36 7.28 14.55 5.47l7.08-3.06-15.22-2.07c2.74 5.62 5.42 8.68 10.54 12.2 6.33 4.35 26.1-4.79 17.06-11-1.99-2.33-3.99-4.66-5.98-6.99-2.62-5.38-10.82-3.97-15.22-2.07l-7.08 3.06c4.85 1.82 9.7 3.64 14.55 5.47 3.26-6.77.83-8.35-2.83-13.97-3.35-5.14-5.1-.04-6.02-9.25-.22-2.21 2.17-5.8 2.14-8.45-.06-7.58-10.78-5.35-15.26-3.75-1.94.69-3.88 1.38-5.82 2.08 4.39 2.37 8.79 4.75 13.18 7.12 1.03-.97 2.05-1.94 3.08-2.91-5.61.23-11.22.47-16.83.7l4.92 6.15c3.37 6.33 12.74 3.46 17.64.78 6.55-3.58 13.1-7.17 19.65-10.75-5.2-1.94-10.4-3.89-15.6-5.83-5.47 5.36-10.93 10.72-16.4 16.08-9.4 9.22 12.01 9.14 17.54 4.31l42.59-37.19c9.2-8.03-10.31-9.93-15.6-5.83-10.66 8.26-21.71 14.96-34.09 20.37 4.39 2.37 8.79 4.75 13.18 7.12l50.43-42.39c9.93-8.34-10.81-8.64-15.6-5.83-26.04 15.3-52.08 30.6-78.13 45.9 4.55 2.45 9.11 4.9 13.66 7.35a927.533 927.533 0 0 1 72.51-46.6c12.76-7.39-6.21-11.41-13.66-7.35-22.9 12.48-45.81 24.96-68.71 37.44-4.03 2.2-5.23 6.22-1.7 9.18 3.86 3.25 11.76.13 15.35-1.82zM152.26 1013.37c1.66 3.32 3.32 6.63 4.97 9.95 3.36 6.72 24.32-.39 21.62-5.79-1.66-3.32-3.32-6.63-4.97-9.95-3.36-6.72-24.32.39-21.62 5.79z"/><path class="st1" d="M184.35 1029.4c-15.39-83.88-11.5-163.42-6.06-247.88 2.17-33.76-5.63-64.3-9.54-97.46-5.49-46.58-1.07-95.11-.19-141.94 3.22-170.03 6.43-340.06 9.65-510.09.16-8.6-21.45-4.05-21.58 2.83l-9.93 524.88c-.69 36.38-2.93 73.12-1.23 109.49 2.07 44.35 13.94 83.33 10.08 128.45-6.89 80.51-7.48 157.6 7.19 237.52 1.28 7.05 23.01 1.87 21.61-5.8z"/><path class="st1" d="M174.36 23.96c-42.5-28.73-95.61-31.48-141.49-9-13.26 6.5-1.41 17.86 9.51 12.51 38.07-18.66 80.36-14.76 115.28 8.85 7.78 5.25 26.8-5.54 16.7-12.36zM205.35 1756.08c-43.67-73.28-96.39-146.49-127.43-226.28-15.39-39.56-18.9-79.75-21.79-121.68-3.66-53.08-7.29-106.15-10.93-159.23-.35-5.16-22.09-1.11-21.62 5.79 6.25 90.97-.49 194.78 32.72 280.91 30.78 79.82 83.8 153.06 127.43 226.28 3.63 6.08 24.07-1.69 21.62-5.79z"/><path class="st0" d="M34.63 1245.72c4.8 0 11.62-1.48 14.23-6.04 2.47-4.33-2.11-6.9-6-6.9-4.8 0-11.62 1.48-14.23 6.04-2.48 4.32 2.1 6.9 6 6.9zM37.04 1208.16c4.73 0 11.61-1.52 14.26-5.94 2.57-4.28-2.19-6.5-5.9-6.5-4.73 0-11.61 1.52-14.26 5.94-2.56 4.28 2.2 6.5 5.9 6.5z"/><path class="st0" d="M36.92 1202.71c4.61 0 11.58-1.6 14.31-5.74 2.75-4.16-2.36-5.73-5.69-5.73-4.61 0-11.58 1.6-14.31 5.74-2.75 4.16 2.35 5.73 5.69 5.73z"/><path class="st1" d="M48.73 1261.22c.02-114.53-1.53-229.19.87-343.7 1.13-53.81 8.26-105.98-.84-158.66-6.47-37.44 25.39-69.64-8.27-101.53-4.8-4.54-24.92 3.49-20.21 7.94 22.17 21 13.61 39.39 5.57 64.12-6.28 19.36 2.8 33.97 6.19 52.92 8.54 47.74-3.52 106.93-4.32 155.51-1.81 109.69-.58 219.48-.6 329.19-.01 5.18 21.61 1.6 21.61-5.79z"/><path class="st1" d="M44.95 661.46c-13.47-50.19-6.54-103.57-6.61-154.98-.07-50.9-1.75-101.77-4.46-152.59-5.96-111.95-17.01-223.94 1.48-335.34 1.4-8.46-20.38-4.84-21.63 2.66-17.87 107.65-8.43 215.86-2.27 324.1 3.51 61.73 5.66 123.57 5.19 185.41-.35 45.82-5.34 91.76 6.68 136.53 2.04 7.62 23.68 1.89 21.62-5.79z"/><path class="st1" d="M22.23 277.54c33.47-7.4 95.51-25.09 121.45 5.07 4.29 4.99 18.6-.59 20.84-5.59 14.93-33.12-48.56-30.35-65.72-30.6-34.78-.51-67.77 5.61-96.44 26.19-9.45 6.78 12.13 5.96 17.04 2.44 20.95-15.04 45.61-18.14 70.63-17.73 8.46.14 64.18-2.01 52.99 22.83 6.95-1.86 13.9-3.72 20.84-5.59-31.17-36.24-105.3-14.85-144.11-6.27-12.99 2.88-10.46 12.11 2.48 9.25zM18.55 65.21c-.13.35-.25.71-.38 1.06 5.76-2.58 11.52-5.17 17.28-7.75l-1.47-.51c1.28 2.52 2.56 5.03 3.83 7.55 3.8-9.58 50.95-7.61 58.62-6.71 19.88 2.32 37.61 8.64 54.97 18.59 7.34 4.21 26.76-6 16.88-11.66-26.87-15.41-56.72-23.43-87.82-21.96-15.2.72-56.26 2.86-63.1 20.09-1.48 3.73.18 6.27 3.83 7.55l1.47.51c6.36 2.22 15.04-1.45 17.28-7.75.13-.35.25-.71.38-1.06 3.13-8.79-18.8-6.31-21.77 2.05zM17.78 110.49c16.65-4.31 32.01-12.29 48.73-16.24 25.62-6.05 51.3-3.78 76.19 4.46 6.48 2.15 26-7.48 17.22-10.39-22.35-7.4-44.71-11.02-68.29-9.34C63.93 80.97 41.26 93 14.92 99.83c-12.96 3.35-10.19 14.04 2.86 10.66zM206.17 1725.32c-14.73-12.13-26.88-26.32-36.93-42.52-6.07 3.7-12.13 7.39-18.2 11.09 12.38 8.42 24.85 16.73 37.14 25.27 10.63 7.39 20.81 15.2 23.56 28.51 5.68-3.42 11.35-6.84 17.03-10.26-9.73-2.88-18.93-6.52-28-11.08l2.85 10.64c.22.29.45.58.67.87l14.53-13.66c-5.54-2.63-10.34-5.88-15.11-9.7-4.01 4.75-8.02 9.5-12.03 14.26l19.88.9c4.85.22 12.2-1.34 14.06-6.66 1.65-4.72-1.54-9.02-6.64-9.25l-19.88-.9c-6.4-.29-21.27 6.86-12.03 14.26 6.02 4.82 12.35 8.54 19.31 11.84 7.28 3.45 24.41-7.01 14.53-13.66-11.61-7.83-26.23-4.91-35.44 5.18-3.73 4.08-1.42 8.49 2.85 10.64 9.07 4.56 18.26 8.2 28 11.08 6.3 1.86 18.82-1.58 17.03-10.26-2.77-13.4-11.81-22.87-22.42-30.91-13.9-10.54-28.85-19.86-43.27-29.67-6.57-4.47-24.14 1.52-18.2 11.09 10.83 17.46 24.23 32.48 40.07 45.53 7.53 6.16 26.32-4.65 16.64-12.63z"/><path class="st1" d="M188.8 1708.8v-4.97c0-5.67-21.62-1.93-21.62 5.79v4.97c0 5.67 21.62 1.93 21.62-5.79z"/><path class="st0" d="M156.29 1697.6c4.63 0 11.58-1.59 14.3-5.76 2.72-4.18-2.33-5.83-5.72-5.83-4.63 0-11.58 1.59-14.3 5.76-2.72 4.18 2.33 5.83 5.72 5.83z"/><path class="st1" d="M125.51 1650.77a204.463 204.463 0 0 1 41 32.22c3.35 3.41 20.87-1.38 20.99-6.59.19-8.31-2.95-12.64-11.45-12.35-6.26.21-17.07 2.45-19.65 9.07 6.95-1.86 13.9-3.72 20.84-5.59-4.64-4.76-9.27-9.52-13.91-14.28-3.87-3.97-23.73 3.92-20.36 7.38 4.64 4.76 9.27 9.52 13.91 14.28 3.44 3.53 19.18-1.33 20.84-5.59.26-.41.53-.81.79-1.22l-8.88 4.17c-6.43 1.97-3.63 4.9-3.74 9.91 7-2.2 13.99-4.39 20.99-6.59a204.463 204.463 0 0 0-41-32.22c-3.73-2.23-10.22-.17-13.93 1.2-1.09.43-9.72 4.24-6.44 6.2z"/><path class="st1" d="M135.75 1657.68c16.71 13.02 30.29 28.89 40.6 47.39 2.71 4.87 23.05-3.23 21.62-5.79-10.58-18.99-24.64-35.37-41.79-48.73-4.42-3.45-22.93 5.19-20.43 7.13zM268.99 1688.54c-18.85-26.08-37.69-52.16-56.54-78.25-5.46-7.56-26.15.6-19.84 9.33 18.85 26.08 37.69 52.16 56.54 78.25 5.46 7.55 26.14-.61 19.84-9.33zM173.16 1551.01l-2.49-2.49c-4.79-4.79-25.11 3.13-20.18 8.06l2.49 2.49c4.79 4.79 25.11-3.13 20.18-8.06z"/><path class="st0" d="M158.63 1560.28c4.38 0 11.72-1.64 14.37-5.53 2.75-4.05-2.39-4.95-5.48-4.95-4.38 0-11.72 1.64-14.37 5.53-2.76 4.05 2.38 4.95 5.48 4.95z"/><path class="st1" d="M150.52 1500.12a380.46 380.46 0 0 1-6.68-64.84c-.1-5.58-21.75-1.77-21.62 5.79.38 21.83 2.6 43.39 6.68 64.84 1.2 6.32 22.94 1.17 21.62-5.79z"/><path class="st0" d="M131.3 1423.61c4.4 0 11.72-1.63 14.36-5.57 2.73-4.08-2.36-5.09-5.52-5.09-4.4 0-11.72 1.63-14.36 5.57-2.73 4.08 2.35 5.09 5.52 5.09zM131.68 1397.7c4.87 0 11.64-1.44 14.2-6.17 2.37-4.38-2.03-7.37-6.13-7.37-4.87 0-11.64 1.44-14.2 6.17-2.36 4.37 2.03 7.37 6.13 7.37z"/><path class="st1" d="M144.04 1353.22v-4.97c0-3-21.62-.1-21.62 5.79v4.97c0 3 21.62.1 21.62-5.79z"/><path class="st1" d="M140.6 1345.81c-1.47-31.14 1.31-61.83 7.87-92.28 2.06-9.56-19.91-6.53-21.78 2.11-6.85 31.78-9.24 63.51-7.71 95.96.4 8.52 22.07 3.75 21.62-5.79zM136.48 1067.25c.95-15.86.21-31.56-2.23-47.26-.85-5.46-22.62-.68-21.62 5.79 2.44 15.7 3.19 31.4 2.23 47.26-.26 4.32 21.19 1.4 21.62-5.79zM121.74 870.26c-.2-9.47 1.06-18.66 3.81-27.73 1.55-5.12-6.49-6.69-9.81-6.4-5.16.45-10.45 3.18-12.01 8.34a88.243 88.243 0 0 0-3.81 27.73c.11 5.2 5.25 6.79 9.81 6.4 3.77-.32 12.12-3.24 12.01-8.34zM114.96 978.55l.75 6.59 21.62-5.79c-4.33-20.52-5.58-40.57-4.5-61.5.73-14.12.94-26.89-9.59-37.37-3.67-3.65-23.1 4.46-20.44 7.11 11.59 11.54 8.7 27.64 8.05 42.43-.82 18.66 1.01 36.86 4.86 55.12.8 3.8 22.16-1.01 21.62-5.79l-.75-6.59c-.39-3.38-22.2.68-21.62 5.79zM136.42 801.13c-5.13-170.14-1.07-343.26-25.11-511.92-.54-3.81-22.36.6-21.62 5.79 24.04 168.66 19.98 341.78 25.11 511.92.1 3.17 21.79-.05 21.62-5.79zM114.83 218.88c7.03-39.12-12.39-72.7-5.26-111.35 5.37-29.13 6.68-56.26-10.96-81.3-5.03-7.14-25.82.69-19.91 9.09 22.78 32.33 6.63 61.41 4.67 95.98-1.8 31.69 15.7 56.13 9.67 89.66-1.76 9.81 20.22 6.66 21.79-2.08zM427.5 1498.44c22.57 10.35 42.61 12.41 66.91 8.24 6.17-1.06 20.06-10.35 6.05-10.75-10.2-.29-20.4-.59-30.61-.88 1.38 2.24 2.77 4.49 4.15 6.73 8.72-4.62 17.44-9.24 26.17-13.86-3.26-1.97-6.52-3.94-9.77-5.91-.12.09-.23.18-.35.27-1.69 1.3-3.23 3.34-1.56 5.28 6.64 7.72 23.97 3.35 32.29 3.44 2.02-3.58 4.03-7.17 6.05-10.75-13.53 2.16-26.97 4.51-40.42 7.07-2.25.43-18.89 7.67-10.37 10.12 9.56 2.75 14.25 2.16 23.53-1.79 14.04-5.98 1.05-11.02-8.16-7.45-18.05 7.96-36.83 11.37-56.34 10.23-2.5-.01-17.79 3.14-15.19 8.38 6.44 12.96 3.04 8.9 14.19 18.13 6.26-2.96 12.53-5.92 18.79-8.88-5.1-1.92-10.2-3.84-15.3-5.75-3.73-1.4-24.43 2.8-18.79 8.88 11.06 11.94 21.29 18.71 36.44 24.47 4.02 1.53 23.69-1.97 18.79-8.88-7.39-10.43-4.31-7.58-15.97-12.81-4.04-1.81-23.78 2.32-18.79 8.88 1.99 2.62 3.98 5.25 5.97 7.87 6.73-2.69 13.45-5.38 20.18-8.06-11.02-7.32-18.61-14.98-25.84-26.06l-11.76 9.3c15.18-4.01 30.07-3.91 44.69.3 2.81-3.54 5.62-7.07 8.43-10.61-6.13.55-12.25 1.09-18.38 1.64-6.71.6-19.62 11.2-6.05 10.75 20.68-.68 40.22-3.5 60.27-8.65 6.39-1.64 15.03-10.09 3.13-10.15-10.46-.05-20.92-.09-31.37-.14l2.16 8.05c21.09-12.33 42.06-22.66 65.86-28.8 13.51-3.48 27.22-5.94 39.91-12.03 31.05-14.91 45.12-47.25 77.67-61.72 13.82-6.14 1.04-11.54-8.16-7.45-36.39 16.18-58.51 55.42-95.56 68.05-33.36 11.37-61.69 18.65-92.78 36.82-6 3.51-4.8 8.02 2.16 8.05 10.46.05 20.92.09 31.37.14 1.04-3.38 2.09-6.76 3.13-10.15-15.99 4.77-32.33 7.1-49.02 7-2.02 3.58-4.03 7.17-6.05 10.75 6.13-.55 12.25-1.09 18.38-1.64 4.28-.38 19.5-8.3 8.43-10.61-19.21-4-35.7-3.95-54.87-.14-3.35.67-15.39 3.73-11.76 9.3 7.23 11.08 14.82 18.74 25.84 26.06 4.45 2.95 25.35-1.25 20.18-8.06-1.99-2.62-3.98-5.25-5.97-7.87-6.26 2.96-12.53 5.92-18.79 8.88l13.2 11.16c6.26-2.96 12.53-5.92 18.79-8.88-13.46-5.12-23.88-12.27-33.67-22.83-6.26 2.96-12.53 5.92-18.79 8.88 5.1 1.92 10.2 3.84 15.3 5.75 3.81 1.43 24.75-3.95 18.79-8.88-4.25-5.29-8.5-10.57-12.75-15.86-5.06 2.79-10.12 5.59-15.19 8.38 25.89.1 49.18-4.41 73.25-13.75-2.72-2.48-5.44-4.97-8.16-7.45.68-.16 1.36-.31 2.03-.47-3.46 3.37-6.91 6.74-10.37 10.12 13.46-2.56 26.9-4.91 40.42-7.07 6.21-.99 20.02-10.59 6.05-10.75-8.13-1.96-15.49-.47-22.07 4.48 8-6.12-5.98-6.97-9.77-5.91-15.72 4.41-28.02 10.41-40.72 20.69-5.12 4.14-.36 6.6 4.15 6.73 10.2.29 20.4.59 30.61.88 2.02-3.58 4.03-7.17 6.05-10.75-19.23 4.06-36.84 1.58-52.84-7.42-5.72-2.59-25.57 6-17.45 9.72z"/><path class="st0" d="M675.8 1383.07c5.12 0 11.02-1.06 15.29-4.1 3.07-2.18 3.2-5.06-1.35-5.06-5.12 0-11.02 1.06-15.29 4.1-3.08 2.19-3.21 5.06 1.35 5.06z"/><path class="st0" d="M683.32 1378.83c4.4 0 11.72-1.63 14.36-5.56 2.73-4.07-2.36-5.07-5.51-5.07-4.4 0-11.72 1.63-14.36 5.56-2.74 4.08 2.35 5.07 5.51 5.07z"/><path class="st1" d="M649.92 1406.33c23.59-11.77 75.39-25.76 77.64-58.44.32-4.62-15.67.29-17.13 1.13l-28.32 16.29c5.39.39 10.77.77 16.16 1.16 25.08-24.42 50.09-48.93 75.02-73.51 5.99-5.91-14.47-1.9-16.16-1.16-17.77 7.82-32.49 18.03-45.94 32.04l19.68-1.23c1.56-2 3.12-4 4.69-6-6.88 1.17-13.76 2.34-20.65 3.51l-.09 6.31c-2.53 4.18 17.72.74 20.53-2.41 12.4-13.93 29.71-19.12 47.54-22.75l.9-8.12c-44.89 10.06-82.5 34.21-109.03 71.93-2.86 4.06 16.71.69 19.04-1.2 11.76-9.52 23.89-18 36.86-25.76-6.06.01-12.13.01-18.19.02-8.16 7.01-15.89 12.39-25.02 17.78 5.57.4 11.14.8 16.7 1.19 22.49-14.25 45.97-24.84 71.63-32.04 12.52-3.51 10.76-11.06-2-7.48-30.85 8.66-59.25 21.18-86.32 38.33-9.31 5.9 12.57 3.64 16.7 1.19 10.08-5.95 19.15-12.6 28-20.2 5.86-5.04-15.55-1.56-18.19.02a315.537 315.537 0 0 0-36.86 25.76l19.04-1.2c21.94-31.2 52.3-52.48 89.66-60.85 8.99-2.01 13.85-10.75.9-8.12-26.51 5.4-52.43 11.84-71.03 32.73 6.84-.8 13.68-1.61 20.53-2.41 2.91-4.82 2.97-3.52.33-8.5-2.8-5.3-17.97.07-20.65 3.51-1.56 2-3.12 4-4.69 6-4.79 6.13 16.25 2.34 19.68-1.23 11.46-11.94 23.76-20.62 38.9-27.28-5.39-.39-10.77-.77-16.16-1.16-24.93 24.58-49.94 49.09-75.02 73.51-5.7 5.55 13.97 2.41 16.16 1.16l28.32-16.29c-5.71.38-11.42.75-17.13 1.13-1.69 24.7-49.39 39.49-68.66 49.11-12.81 6.38 7.11 6.28 12.63 3.53z"/><path class="st1" d="M808.47 1306.49c-15.52-.04-31.04-.08-46.56-.13-1.65 4.94-3.3 9.89-4.95 14.83l24.09-3.12c4.38-.57 11.52-3.06 12.01-8.38.47-5.15-5.73-6.99-9.82-6.46l-24.09 3.12c-4.28.55-10.42 2.67-11.68 7.41-1.11 4.18 2.51 7.41 6.73 7.43 15.52.04 31.04.08 46.56.13 4.91.01 11.87-1.31 14.13-6.44 1.96-4.48-1.77-8.38-6.42-8.39z"/><path class="st1" d="M773.16 1307.81c-5.53 1.9-11.05 3.8-16.58 5.7 3.36 1.44 6.72 2.87 10.08 4.31 13.8-6.18 27.61-12.37 41.41-18.55 3.75-1.68 7.02-5.85.68-6.2l-38.42-2.16c1.24.91 2.47 1.82 3.71 2.73.44-1.06.88-2.13 1.33-3.19-2.12-1.57-4.25-3.13-6.37-4.7-23.24 15.05-46.49 30.1-69.73 45.16-.71.46-2.96 2.08-2.49 3.38 3.75 10.32 14.37 11.67 24.23 10.78 12.78-1.15 24.44-13.08 36.02-13.43.28-2.41.55-4.82.83-7.23-10.87 3.84-21.75 7.68-32.62 11.51l13.61 1.98c6.27-7.94 12.8-14.62 20.93-20.74 3.07-2.31 3.21-4.83-1.36-5.06l-11.54-.57c-4.88-.24-24.68 8.62-13.93 9.15l11.54.57c-.45-1.69-.9-3.37-1.36-5.06-9.08 6.83-16.85 14.13-23.92 23.09-4.86 6.16 11.78 2.63 13.61 1.98 10.87-3.84 21.75-7.68 32.62-11.51 6.12-2.16 10.14-7.51.83-7.23-6.83.2-13.1 1.35-19.51 3.83-5.43 2.09-28.95 15.31-25.06 1.74 1.51-5.26 24.1-15.61 29.05-18.82 11.62-7.53 23.24-15.05 34.86-22.58 7.04-4.56-3.02-5.22-6.37-4.7-11.14 1.73-20.49 5.46-26.58 15.31-1.3 2.11 2.7 2.68 3.71 2.73l38.42 2.16c.23-2.07.45-4.14.68-6.2-13.8 6.18-27.61 12.37-41.41 18.55-12.4 5.55 5.07 6.03 10.08 4.31 5.53-1.9 11.05-3.8 16.58-5.7 14.54-4.98.92-8.26-7.56-5.34zM718.88 1358.95c-2.45-.81-4.89-1.63-7.34-2.45-5.31-1.77-15.09.51-18.67 5-12.55 15.77-26.55 29.26-42.89 41.11l18.34.54c8.9-9.75 17.81-19.5 26.71-29.25 5.61-6.14-15.19-3.33-18.34-.54-8.61 7.61-17.21 15.22-25.82 22.82-8.79 7.77 12.6 5.37 16.88 1.85 9.64-7.95 17.45-16.19 24.54-26.56 5.06-7.4-16.4-2.79-19.8.76-10.73 11.22-21.47 22.44-32.2 33.66 6.6-.25 13.2-.51 19.8-.76l7.46-9.89c5.25-6.96-16.28-2.83-19.8.76-25.17 25.65-50.63 50.83-85.52 62.38-14.49 4.79-1.02 9.52 7.92 6.57 39.52-13.07 68.79-40.54 97.41-69.7-6.6.25-13.2.51-19.8.76l-7.46 9.89c-5.21 6.9 16.26 2.94 19.8-.76 10.73-11.22 21.47-22.44 32.2-33.66-6.6.25-13.2.51-19.8.76-6.53 9.56-12.41 16.37-21.61 23.95 5.63.62 11.25 1.23 16.88 1.85 8.61-7.61 17.21-15.22 25.82-22.82l-18.34-.54c-8.9 9.75-17.81 19.5-26.71 29.25-5.97 6.54 15.6 2.53 18.34.54 17.44-12.65 32.39-26.85 45.82-43.72-6.22 1.67-12.44 3.33-18.67 5 2.45.81 4.89 1.63 7.34 2.45 5.5 1.83 24.97-6.76 17.51-9.25zM397.19 1357.43c33.12 1.69 65.15 8.42 98.5 8.67 2.89-3.77 5.78-7.53 8.67-11.3-47.11.92-90.64-11.28-130.42-36.41-3.62-2.29-24.67.47-20.89 6.98 4.9 8.44 4.43 7.89 10.65 15.41 5.6-3.19 11.2-6.37 16.8-9.56-26.78-5.06-36.56-36.93-60.78-47.48-3.7-1.61-22.09 1.05-19.49 7.84 14.32 37.32 78.96 50.29 113.64 58.12 4.32.98 24.08-5.36 15.4-10.43-19.5-11.38-39.13-18.75-61.14-23.48-3.86-.83-17.25 1.28-17.49 6.98.45-10.58-23.18-13.95-29.77-16.2-6.04-2.06-25.61 7.08-17.35 9.9 19.46 6.63 41.34 20.42 61.89 11.57 1.82-.79 6.53-2.83 6.64-5.41l.12-2.86c-5.83 2.33-11.66 4.65-17.49 6.98 21.24 4.56 38.66 11.58 57.23 22.42 5.13-3.48 10.27-6.95 15.4-10.43-29.72-6.71-93.02-20.53-105.47-52.96-6.5 2.61-12.99 5.23-19.49 7.84 27.02 11.77 34.15 42.77 64.69 48.54 3.49.66 22.09-3.17 16.8-9.56-3.06-4.35-6.12-8.69-9.19-13.04-6.96 2.33-13.92 4.65-20.89 6.98 43.64 27.57 90.31 40.55 141.9 39.55 7.32-.14 23.3-11.19 8.67-11.3-33.3-.25-65.47-6.98-98.5-8.67-7.59-.38-23.13 10.57-8.64 11.31z"/><path class="st1" d="M287.1 1267.89c10.9 11.94 21.79 23.88 32.69 35.81 9.57 10.47 18.82 20.79 31.64 27.31 3.87 1.96 10.11.07 13.89-1.36.9-.34 9.74-4.26 6.51-5.9-12.8-6.5-22.08-16.85-31.64-27.31-10.9-11.93-21.79-23.87-32.69-35.81-3.53-3.87-23.48 3.89-20.4 7.26z"/><path class="st1" d="m350.44 1297.99 16.64.12 2.52-12.4c-8.73 2.37-17.46 4.73-26.19 7.1-7.08 1.92-14.5 11.94-2.52 12.4 8.05.31 16.1.62 24.15.94l2.52-12.4c-10.59 2.42-21.24.84-31.12-3.48.07 2.52.14 5.05.22 7.57 1.48-1.36 2.96-2.73 4.45-4.09 3.54-3.26 2.02-7.02-2.22-8.3-4.9-1.48-11.62.72-15.29 4.1-1.48 1.36-2.96 2.73-4.45 4.09-2.25 2.06-3.25 6.05.22 7.57 16.57 7.26 33.77 8.31 51.34 4.3 7.38-1.68 14.27-11.95 2.52-12.4-8.05-.31-16.1-.62-24.15-.94l-2.52 12.4c8.73-2.37 17.46-4.73 26.19-7.1 6.92-1.88 14.59-12.31 2.52-12.4l-16.64-.12c-4.63-.03-11.88 1.45-14.22 6.07-2.23 4.38 1.91 6.94 6.03 6.97z"/><path class="st1" d="M345.52 1275.9c1.46-.38-2.31-.47-2.82-.61-2.49-.68-4.57-1.88-6.63-3.4-3.49-2.58-10.42-.39-13.99.96-1.42.53-9.61 4.17-6.32 6.61 9.25 6.85 21.05 6.73 31.76 3.91 2.35-.62 10.58-2.97 9.81-6.63-.75-3.53-10.14-1.28-11.81-.84z"/><path class="st1" d="M360.92 1276.65c-7.92-2.17-14.39-6.87-19.26-13.47-.89-1.2-4.53-1.11-5.61-1.07-2.81.11-5.82.82-8.44 1.83-2.45.94-8.71 3.6-6.22 6.97 5.42 7.35 13.17 12.4 21.96 14.8 4.86 1.33 10.82-.24 15.17-2.52 2.05-1.08 7.32-5.19 2.4-6.54zM351.13 1247.77c-12.37-2.96-24.88-3.74-37.53-2.55-4.1.38-11.45 2.89-12.18 7.73-.76 5.04 6.17 5.63 9.52 5.32 9.2-.86 18.19-.11 27.17 2.04 4.96 1.19 11.69-.35 15.29-4.1 3.16-3.3 2.46-7.31-2.27-8.44z"/><path class="st1" d="M333.65 1240.8c-13.22-1.91-26.45-3.83-39.67-5.74-5.17-.75-11.46.12-15.29 4.1-2.91 3.03-2.72 7.69 2.25 8.41 13.22 1.91 26.45 3.83 39.67 5.74 5.17.75 11.46-.12 15.29-4.1 2.91-3.02 2.72-7.69-2.25-8.41zM283.43 1225.65c14.97 2.69 29.76 3.62 44.96 2.89 4.04-.19 11.61-3.08 12.14-7.87.58-5.22-5.96-5.73-9.58-5.56-11.57.55-23.17-.23-34.57-2.28-5.14-.92-11.54.1-15.29 4.1-2.96 3.17-2.6 7.83 2.34 8.72z"/><path class="st1" d="M278.58 1211.16c14.07 1.82 28.14 3.64 42.21 5.47 9.83 1.27 22.35-12.6 7.81-14.48-14.07-1.82-28.14-3.64-42.21-5.47-9.82-1.28-22.34 12.59-7.81 14.48zM281.15 1176.58l19.9 4.95c4.98 1.24 10.72-.06 15.19-2.46 1.99-1.07 7.37-5.53 2.34-6.78l-19.9-4.95c-4.98-1.24-10.72.06-15.19 2.46-1.98 1.07-7.37 5.53-2.34 6.78z"/><path class="st1" d="M258.88 1162.33c18.09 7.49 37.02 11.1 56.6 10.79 4.32-.07 12.1-1.43 14.28-5.84 2.11-4.27-1.79-6.2-5.8-6.14-16.67.27-32.43-2.73-47.84-9.11-4.72-1.95-11.09-.55-15.29 2.08-2.63 1.66-6.8 6.21-1.95 8.22zM238.95 1130.59a314.37 314.37 0 0 0 47.27 7.34c5.08.4 11.96-1.47 14.05-6.73 1.91-4.82-1.77-9.13-6.71-9.52a314.568 314.568 0 0 1-47.27-7.34c-10.95-2.57-21.56 12.91-7.34 16.25zM251.21 1113.52c19.08-2.77 38.06-2.87 57.11.28 5 .82 11.77.11 15.29-4.1 2.68-3.21 2.81-8.01-2.38-8.86-22.56-3.72-44.85-4.23-67.51-.94-3.89.56-11.88 2.88-12.12 7.94-.24 4.95 5.65 6.25 9.61 5.68zM260.7 1082.64c18.65-.85 36.68 1.25 54.66 6.26 6.59 1.84 25.3-8.04 13.33-11.37-19.45-5.42-39.3-7.62-59.46-6.7-4.11.19-12.38 1.35-14.29 5.81-1.8 4.19 1.52 6.2 5.76 6zM258.66 1047.49l61.81 16.26c6.73 1.77 25.35-8.37 13.29-11.54l-61.81-16.26c-6.73-1.77-25.35 8.37-13.29 11.54zM263.78 1021.07c24.18 6.2 48.1 13.22 71.8 21.05 4.67 1.54 23.63-6.14 17.85-8.05-23.7-7.83-47.62-14.85-71.8-21.05-4.38-1.12-11.23.72-15.08 2.88-1.73.98-7.47 3.96-2.77 5.17zM268.07 1008.14c17.39 2.59 34.78 5.18 52.17 7.78 4.56.68 11.83-.89 15.29-4.1 3.03-2.81 3.07-5.11-1.55-5.8-17.39-2.59-34.78-5.18-52.17-7.78-4.56-.68-11.83.89-15.29 4.1-3.03 2.81-3.07 5.12 1.55 5.8zM277.6 982.59l-.81 1.05c5.54-1.94 11.09-3.89 16.63-5.83.61.67 1.23 1.34 1.84 2.01-1.32 1.71-2.63 3.42-3.95 5.12-7.58.84-8 1.7-1.28 2.57 3.16.73 6.33 1.4 9.51 2.02 3.99.77 8.01 1.46 12.04 2.07 11.24 1.71 22.52 2.65 33.88 3.05 4.43.15 12.33-1.42 14.18-6.24 1.76-4.59-1.54-7.49-6.2-7.65-11.35-.39-22.66-1.26-33.88-3.05-9.86-1.57-20.55-6.04-30.61-5.17-9.67.83-24.43 13.81-8.41 18.34 6.02 1.7 12.94-1.03 16.63-5.83l.81-1.05c3.33-4.34-2.87-7.24-6.2-7.65-5.39-.66-10.98 2.06-14.18 6.24zM295.94 954.74c20.02 7.29 40.78 10.83 62.08 10.6 4.49-.05 12.27-1.28 14.17-6.26 1.69-4.44-1.48-7.77-6.22-7.72-19.76.21-38.6-3.02-57.17-9.77-7.98-2.9-25.31 8.62-12.86 13.15z"/><path class="st1" d="M312.93 941.41c24.85.68 49.69 1.35 74.54 2.03 7.68.21 23.13-11.06 8.62-11.46-24.85-.68-49.69-1.35-74.54-2.03-7.67-.21-23.13 11.07-8.62 11.46zM348.04 922.86h47.25c4.63 0 12.03-1.36 14.19-6.21 1.98-4.44-1.71-7.53-6.17-7.53h-47.25c-4.63 0-12.03 1.36-14.19 6.21-1.98 4.44 1.71 7.53 6.17 7.53zM380.96 906.93 413.4 900c3.33-.71 10.49-4.08 9.29-8.56-1.26-4.69-9.17-3.44-12.33-2.77l-32.44 6.93c-3.33.71-10.49 4.08-9.29 8.56 1.26 4.69 9.18 3.44 12.33 2.77zM1192.9 875.08c15.61-3.67 31.93-1.15 46.63 4.79 4.27 1.73 9.76.31 13.92-1.24.79-.3 9.88-4.73 6.45-6.11-22.49-9.1-45.34-9.6-68.78-4.09-1.75.41-11.08 3.16-9.92 6.22 1.23 3.24 9.79.87 11.7.43zM1193.54 891l59.88 11.37c4.86.92 10.83-.19 15.14-2.64 1.62-.92 7.62-5.13 2.52-6.09l-59.88-11.37c-4.86-.92-10.83.19-15.14 2.64-1.62.91-7.62 5.12-2.52 6.09z"/><path class="st1" d="M1198.78 913.73c27.04.91 53.48 4.86 79.5 12.31 9.54 2.73 25.49-11.11 12.4-14.86-27.69-7.93-55.71-12.55-84.52-13.52-10.67-.36-21.95 15.58-7.38 16.07z"/><path class="st1" d="M1205.93 930.64c23.65 3.84 46.86 9.53 69.7 16.76 8.09 2.56 25.44-9.21 12.85-13.2-24.47-7.75-49.28-13.49-74.61-17.6-9.57-1.55-22.39 11.7-7.94 14.04zM1211.05 955.48l94.43 22.62c8.87 2.13 25.56-10.98 12.61-14.08-31.48-7.54-62.95-15.08-94.43-22.63-8.88-2.12-25.56 10.99-12.61 14.09zM1208.54 978.11c34.02 10.66 68.04 21.31 102.06 31.97 9.05 2.84 25.46-10.26 12.55-14.3-34.02-10.66-68.04-21.31-102.06-31.97-9.06-2.84-25.47 10.26-12.55 14.3zM1258.63 1022.04c21.59 7.35 43.18 14.69 64.77 22.04 9.26 3.15 25.39-10.18 12.48-14.58-21.59-7.35-43.18-14.69-64.77-22.04-9.27-3.14-25.4 10.19-12.48 14.58zM1198.5 1332.83l47.3 4.38c5.05.47 10.49-.75 15.07-2.9 1.34-.63 7.74-4.63 2.79-5.09l-47.3-4.38c-5.05-.47-10.49.75-15.07 2.9-1.35.63-7.75 4.63-2.79 5.09zM1230.87 1310.95c15.23 5.75 31.05 9.19 47.29 10.4 4.83.36 11.96-1.53 14.13-6.43 2.09-4.72-1.85-8.02-6.4-8.36-14.65-1.09-28.6-4.24-42.33-9.43-8.54-3.22-25.29 9.06-12.69 13.82zM1253.33 1296.25c21.57 3.06 43.17 3.91 64.92 2.79 11.86-.61 16.99-15.61 2.18-14.85-19.93 1.02-39.63.02-59.38-2.79-10.08-1.42-22.24 12.79-7.72 14.85zM1257.82 1271.75l69.63 2.37c7.57.26 23.17-10.78 8.67-11.27l-69.63-2.37c-7.56-.26-23.17 10.77-8.67 11.27zM1265.77 1248.43c30.88 4.59 61.59 4.26 92.37-1.02 11.2-1.92 17.02-16.94 2.3-14.41-29.03 4.98-57.71 5.31-86.85.98-9.82-1.46-22.31 12.29-7.82 14.45zM1283.18 1228.64l82.03-5.34c11.02-.72 17.67-13.79 2.73-12.81l-82.03 5.34c-11.02.71-17.67 13.78-2.73 12.81zM1282.82 1208.07c28.54-1.43 56.71-4.66 84.77-10.12 3.24-.63 12.36-2.7 12.27-7.39-.09-4.58-5.56-5.46-9.36-4.72-26.21 5.1-52.63 8.51-79.31 9.85-4.08.2-12.54 1.29-14.26 5.93-1.57 4.21 1.33 6.68 5.89 6.45zM1282.4 1181.33c30.97.41 61.54-2.46 91.93-8.48 8.22-1.63 19.45-10.23 4.23-7.22-27.15 5.38-54.3 7.8-81.98 7.44-4.31-.05-24.35 8.13-14.18 8.26zM1307.57 1160.42a442.5 442.5 0 0 0 75.3-10.53c13.04-2.98 10.32-12.97-2.68-10a377.513 377.513 0 0 1-64.02 8.97c-3.89.21-12.64 1.35-14.31 5.76-1.57 4.15 1.31 6.04 5.71 5.8zM1283.45 1136.03c28.37.1 56.49-1.98 84.53-6.25 11.55-1.76 16.84-17.32 2.12-15.08a546.218 546.218 0 0 1-84.53 6.25c-12.07-.03-16.83 15.03-2.12 15.08zM1274.58 1112.4c32.35-4.09 64.78-6.69 97.37-7.69 4.3-.13 24.23-8.65 14.15-8.34-34.14 1.05-68.11 3.64-102 7.92-5.3.68-23.46 9.87-9.52 8.11zM1277.94 1089.13h96.98c8.66 0 22.75-13.08 8.19-13.08h-96.98c-8.67 0-22.75 13.08-8.19 13.08zM1273.13 1065.09c29.08 2.64 58.15 3.32 87.32 2.21 11.72-.45 17.12-14.96 2.3-14.39-27.34 1.04-54.55.23-81.79-2.25-9.76-.88-22.43 13.11-7.83 14.43z"/><path class="st1" d="M1260.57 1041.94c33.19-.33 66.32.62 99.44 2.85 9 .61 22.72-12.36 8.12-13.34-33.12-2.23-66.25-3.18-99.44-2.85-8.8.09-22.67 13.48-8.12 13.34zM152.26 1279.44l-.57 35.58c6.96-2.35 13.91-4.69 20.87-7.04-2.89-6.42-5.78-12.84-8.67-19.25-7.2 1.45-14.4 2.89-21.59 4.34 3.47 12.96 3.34 26.04-.41 39.24 7.2-1.45 14.4-2.89 21.59-4.34.85-4.49 1.71-8.97 2.56-13.46l-19.41 1.35c.38 4.22.75 8.44 1.13 12.66l21.62-5.79-7.98-72.81-21.62 5.79c10.72 45.14 15.58 98.99 45.53 136.11 4.32 5.36 25.04-1.65 20.12-8.29-16.3-21.96-24.73-44.74-27.31-71.79l-21.62 5.79c12.3 39.09 32.59 71.46 62.46 99.52 6.71-2.76 13.41-5.52 20.12-8.29l-38.39-34.28c-6.24 3.07-12.47 6.14-18.71 9.21 39.38 11.95 72.43 50.66 109.99 69.43 40.12 20.04 82.97 31.92 127.4 37.33 5.94.72 25.79-8.8 13.36-11.28-47.07-9.41-93.38-23.02-137.02-43.23-19.04-8.82-37.73-19.31-51.6-35.4-11.47-13.31-19.23-28.17-32.93-39.6-5.43-4.53-25.72 3.31-20.12 8.29 76.41 67.9 160.49 136.92 268.9 130.19 7.58-.47 22.96-12.59 8.56-11.7-103.96 6.46-184.35-61.92-257.34-126.78-6.71 2.76-13.41 5.52-20.12 8.29 16.55 13.81 25.5 33.35 41.02 48.08 13.22 12.54 29.99 21.19 46.34 28.76 44.86 20.78 92.57 34.72 140.95 44.39 4.45-3.76 8.91-7.52 13.36-11.28-47.28-5.76-92.61-19.19-134.56-41.96-33.7-18.29-62.01-52.45-98.89-63.64-3.54-1.07-25.45 3.19-18.71 9.21l38.39 34.28c5.3 4.73 25.65-3.09 20.12-8.29-28.94-27.19-49.07-59.2-60.97-97.03-2.25-7.15-22.32-1.55-21.62 5.79 2.7 28.29 11.99 51.62 28.81 74.29 6.71-2.76 13.41-5.52 20.12-8.29-29-35.95-33.66-89.94-44.03-133.62-1.69-7.1-22.43-1.63-21.62 5.79l7.98 72.81c.73 6.7 22.31 1.98 21.62-5.79-.38-4.22-.75-8.44-1.13-12.66-.61-6.82-16.9-1.07-19.41 1.35-7.53 7.25-10.08 11.67-6.97 22.34 2.05 7.04 20.47 1.5 21.59-4.34 2.92-15.15 3.1-26.64.45-42.15-1.15-6.74-21.43-1.72-21.59 4.34-.32 11.64 1.48 16.84 10.12 24.66 5.04 4.56 20.75.42 20.87-7.04l.57-35.58c.1-6.08-21.48-2.3-21.61 5.79zM710.56 1304.51c-.66.39-1.33.79-1.99 1.18-11.21 6.67 3.57 14.61 11.62 10.06 34.97-19.74 76.23-80.6 119.63-57.5 6.94 3.69 26.81-4.37 16.85-11.79-40.7-30.28-108.54-32.02-123.61 26.83-2.25 8.78 14.44 6.16 17.91 3.34 22.49-18.26 45.29-25.28 73.84-22.34 7.24.74 22.75-11.66 10.27-14.07-37.62-7.26-71.85 2.92-97.98 31.43-8.3 9.06 7.98 10.7 13.53 8.42 30.69-12.59 77.95-39.4 103.31-4.05 14.68 20.47 23.74 42.39 41.47 61.47 39.64 42.66 86.61 79.57 130.05 118.28 6.68 5.96 27.07-2.76 19.89-9.16-59-52.59-127.47-101.46-166.88-171.09-11.71-20.68-22.63-35.8-48.12-34.86-29.59 1.09-61.8 16.85-88.95 27.99 4.51 2.81 9.02 5.61 13.53 8.42 17.83-19.46 40.27-28.47 67.41-23.23 3.42-4.69 6.85-9.38 10.27-14.07-35.83-3.69-67.69 5.48-95.66 28.19 5.97 1.11 11.94 2.23 17.91 3.34 10.79-42.12 58.28-32.88 84.96-13.03 5.62-3.93 11.23-7.86 16.85-11.79-60.36-32.12-99.57 31.82-145.7 57.86l11.62 10.06c.66-.39 1.33-.79 1.99-1.18 12.53-7.47-5.71-13.65-14.02-8.71z"/><path class="st1" d="M890.73 1309.36c22.77 53.88 56.32 106.36 101.88 143.99 44.29 36.58 100.41 40.62 155.57 41.55 4.45.08 24.43-8.34 14.1-8.52-57.83-.98-113.24-6.87-157.57-47.64-40.72-37.44-70.94-84.5-92.35-135.17-2.09-4.93-23.17 2.14-21.63 5.79z"/><path class="st1" d="M1031.14 1464.86c34.32 15.09 70.78 20.89 108.11 17.78 12.07-1.01 16.72-16.9 1.96-15.66-34 2.84-66.36-2.85-97.56-16.57-8.96-3.94-25.04 8.94-12.51 14.45z"/><path class="st1" d="M1063.76 1476.44c73.79 17.84 148.19 15.19 220.47-8.1 12.82-4.13 9.68-17.03-3.43-12.8-67.21 21.66-135.53 24.35-204.18 7.75-8.08-1.95-25.55 10.08-12.86 13.15z"/><path class="st1" d="M1186.71 1483.74c38.23-3.02 77.07-6.4 112.78-21.47 34.34-14.49 60.34-40.32 84.75-67.72 7.81-8.76-7.37-13.94-13.97-10.08-46.84 27.36-95.45 50.29-146.54 68.59-12.85 4.6-9.06 20.17 4.14 15.44 52.97-18.98 103.54-42.3 152.14-70.69-4.66-3.36-9.32-6.72-13.97-10.08-23.5 26.38-47.31 49.71-80.91 62.71-30.8 11.92-64.02 14.3-96.65 16.88-12.37.97-16.49 17.58-1.77 16.42z"/><path class="st1" d="M1218.46 1464.76c69.36-11.17 132.48-38.89 187.2-83.02 5.09-4.11.32-7.42-4.34-7.44-10.03-.05-14.79.85-23.91 5.08-13.65 6.33-1.11 12.72 8.39 8.32l6.98-1.65c-1.45-2.48-2.89-4.96-4.34-7.44-48.89 39.43-104.85 64.77-166.88 74.75-10.06 1.63-18.08 13.82-3.1 11.4z"/><path class="st1" d="M1357.1 1387.11c-45.42 25.57-92.61 46.08-142.32 61.78-9.8 3.09-12.98 12.54.11 11.9 59.11-2.91 110.92-28.96 159.66-60.91 18.79-12.32 40.86-24.57 54.51-42.94 17.26-23.22 19.42-53.98 42.22-73.53 9.51-8.15-11.84-8.71-17.43-3.91-10.77 9.23-17.36 18.99-23.52 31.95-13.8 29.03-20.9 48.2-48.89 67.83-49.33 34.6-102.13 66.02-163.74 69.05.04 3.97.07 7.93.11 11.9 53.34-16.84 104.07-38.8 152.81-66.25 12.68-7.14-6.2-10.99-13.52-6.87zM1476.7 1262.21c1.66-2.49 3.32-4.97 4.97-7.46 2.19-3.29-7.81-2.24-8.65-2.1-4.1.72-10.17 2.16-12.67 5.9-1.66 2.49-3.32 4.97-4.97 7.46-2.19 3.29 7.81 2.24 8.65 2.1 4.1-.72 10.17-2.16 12.67-5.9z"/><path class="st0" d="M1471.4 1245.92c5.06 0 10.99-1.34 15.29-4.1 3.21-2.06 3.22-4.28-1.15-4.28-5.06 0-10.99 1.34-15.29 4.1-3.21 2.06-3.21 4.28 1.15 4.28zM1479.07 1224.83c4.55 0 11.56-1.64 14.34-5.63 2.84-4.09-2.46-5.32-5.58-5.32-4.55 0-11.56 1.64-14.34 5.63-2.85 4.08 2.45 5.32 5.58 5.32z"/><path class="st1" d="M1219.26 1472.51c44.79-9.97 85.78-26.77 125.02-50.54 11.56-7.01-3.68-14.52-11.81-10.75-47.46 22.05-98.59 27.36-150.17 31.56-52.88 4.31-106.56 7.56-155.35-17.08-7.88-3.98-27.22 6.64-16.74 12.17 105.63 55.81 222.23 31.48 328.69-8.69 13.88-5.24 1.58-16.31-9.42-12.16-97.45 36.77-205.64 59.87-302.53 8.68-5.58 4.06-11.16 8.11-16.74 12.17 49.93 25.21 103.48 25.13 158.13 21.1 59.5-4.39 118.85-10.18 173.56-35.6-3.94-3.58-7.87-7.17-11.81-10.75-35.87 21.73-73.71 36.58-114.63 45.68-13.49 3.01-9.57 17.19 3.8 14.21z"/><path class="st1" d="M1299.76 1442.38c98.93-19.83 154.76-98.59 205.07-179.66 2.36-3.81-17.84-2.48-21.45 3.34-43.19 69.61-93.25 149.22-180.06 166.62-9.2 1.84-18.59 12.71-3.56 9.7zM140.75 1023.72c-.83 13.91-1.66 27.82-2.5 41.72 7.29-.6 14.57-1.19 21.86-1.79.49-22.86 3.97-42.14 12.22-63.76l-21.23-.21c-5.1 32.57-11.6 64.78-20.1 96.64-7.41 27.76-14.88 52.54-11.12 81.41 7.7 59.11 30.9 116.62 58.65 168.93 4.33 8.17 25.02.41 19.83-9.38-26.88-50.67-49.95-107.92-56.86-165.34-3.64-30.27 5.66-55.49 13.14-84.23 7.72-29.64 13.58-59.57 18.32-89.81 1.63-10.39-18.53-7.27-21.23-.21-8.54 22.36-12.97 43.64-13.49 67.75-.23 10.97 21.3 7.61 21.86-1.79.83-13.91 1.66-27.82 2.5-41.72.66-10.9-21.29-7.65-21.85 1.79z"/><path class="st1" d="M158.76 1057.06c18.23-36.45 36.04-73.15 54.73-109.37 9.75-18.9 20.39-34.52 37.5-47.81 9.84-7.64 18-13.41 25.54-23.62 2.19-2.96-.58-6.42-3.67-6.93-10.1-1.67-14.27-1.64-24.2 1.15-13 3.65-9.87 15.88 3.27 12.19-26.94 7.57-47.11 41.31-58.75 63.88-18.69 36.22-36.5 72.92-54.73 109.37-4.94 9.85 16.76 8.24 20.31 1.14z"/><path class="st1" d="M162.41 1034.43c19.24-40.68 34.92-87.81 64.35-122.32 31.5-36.94 67.78-71.69 103.33-104.68 9.06-8.41-12.2-7.97-17.26-3.27-36.55 33.92-73.94 69.55-106.15 107.69-29.97 35.49-46.24 83.91-65.87 125.4-2.89 6.13 18.38 4 21.6-2.82z"/><path class="st1" d="M176.88 995.8c38.92-61.92 79.06-126.34 137.3-172.15 68.49-53.88 159.38-76.67 240.1-106.04 14.5-5.27.73-6.8-7.21-3.91-77.64 28.24-163.29 50.86-232.45 97.57-69.41 46.87-115.23 119-159 188.62-.96 1.55 18.01 1.09 21.26-4.09z"/><path class="st1" d="M199.34 956.52c43.18-73.06 104.55-134.09 179.4-174.59 76.8-41.56 168.77-61.91 253.78-79.53 183.57-38.05 374.58-14.32 546.44 58.84 8.83 3.76 25.11-8.92 12.56-14.26-181.68-77.35-383.11-98.81-576.28-56.06-90.29 19.98-185.65 41.89-265.68 89.95-70.91 42.58-128.83 102.31-170.83 173.4-6.02 10.18 15.92 10.19 20.61 2.25z"/><path class="st1" d="M1056.18 711.79c45.54 6.01 88.8 41.31 131.48 58.77 41.57 17 80.04 37.81 114.73 66.55 67.05 55.56 113.63 131.83 134.57 216.08 2.54 10.22 24.18 4.51 21.62-5.79-21.67-87.16-70.27-165.57-139.58-222.97-36.02-29.83-75.91-51-118.93-68.72-45-18.53-87.51-53.51-136.49-59.98-10.87-1.43-21.93 14.15-7.4 16.06z"/><path class="st0" d="M1425.31 1336.72c4.71 0 11.35-3.63 11.9-8.77.61-5.66-5.75-7.14-10-7.14-4.71 0-11.35 3.63-11.9 8.77-.62 5.65 5.74 7.14 10 7.14z"/><path class="st1" d="M1443.32 1340.46c45.63-29.31 20-81.22 23.25-125.29-6.95 1.86-13.9 3.72-20.84 5.59 16.84 24.06 19.41 50.63 6.3 77.33 6.96-.9 13.91-1.8 20.87-2.69-13.46-23.87 9.32-66.67 11.9-93.36 2.78-28.81.26-57.06-5.86-85.3l-20.85 7.11c19.71 27.97 43.42 128.43.6 148.66 5.02 1.01 10.04 2.02 15.06 3.02 13-31.49 11.36-66.01 11.43-99.57.08-38.04-1.43-76.45-10.37-113.58-17.73-73.68-73.52-113.52-112.45-174.57-3.81-5.97-24.83.99-20.08 8.43 38.25 59.98 93.42 99.25 110.92 171.93 7.5 31.18 9.81 63.39 10.26 95.37.53 37.79 3.34 79.21-11.32 114.72-2.77 6.71 12.98 4.01 15.06 3.02 54.53-25.76 38.94-126.19 10.97-165.88-3.74-5.31-22.41-.06-20.85 7.11 7.77 35.84 9.35 71.77 2.06 107.92-4.66 23.08-20.73 48.35-8.1 70.75 3.46 6.14 18.07 3 20.87-2.69 14.64-29.81 12.93-58.65-6.33-86.16-3.52-5.03-20.39-.55-20.84 5.59-2.55 34.66 22.01 92.44-15.03 116.23-12.29 7.86 6.46 10.74 13.37 6.31zM164.84 1026.34c18.6-87.93 89.78-142.88 156.04-196.52 8.79-7.11-12.58-4.85-16.77-1.45-67.88 54.95-141.61 111.36-160.67 201.47-1.23 5.79 20.15 2.4 21.4-3.5z"/><path class="st1" d="M180.95 977.64c-4.58 2.39-9.15 4.78-13.73 7.17 4.96 2.22 9.91 4.45 14.87 6.67 17.54-46.58 30.52-90.36 66.54-126.33 37.27-37.22 75.8-73.54 121.82-99.77 12.78-7.28 1.11-17.41-9.24-11.51-45.71 26.06-84.01 60.37-121.45 97-41.88 40.97-57.66 84.38-78.15 138.78-3.31 8.79 9.55 9.45 14.87 6.67 4.58-2.39 9.15-4.78 13.73-7.17 13.09-6.85 1.24-17-9.26-11.51z"/><path class="st1" d="M192.21 961.04c11.42-50.55 62.04-88.1 98.93-121.21 47.2-42.35 102.35-94.87 165.9-108.81 8.26-1.81 19.28-10.85 4.14-7.53-57.55 12.62-103.17 45.7-148.04 82.57-29.94 24.6-58.74 50.59-86.3 77.82-24.03 23.75-48.22 47.03-55.92 81.08-.96 4.26 20.11 1.28 21.29-3.92z"/><path class="st1" d="M340.9 785.31c63.5-57.2 157.52-52.63 232.17-88.42 12.87-6.17-7.14-6.07-12.62-3.44-78.51 37.63-171.69 32.31-239.22 93.14-4.84 4.37 15.56 2.43 19.67-1.28z"/><path class="st1" d="M344.27 787.25c85.65-56.77 181.82-90.76 284.14-100.35.87-4.43 1.73-8.85 2.6-13.28-103.14 19.06-206.55 39.85-296.78 96.03-11.46 7.13 3.95 12.42 11.31 8.89C460.71 723.36 583.61 690.7 711 681.4c8.06-.59 19.02-12.29 5.35-13.35-64.67-5.02-124.63 13.2-185.24 33.75 2.03 3.73 4.05 7.46 6.08 11.18 119.82-50.11 249.9-64.35 377.74-41.45 7.67 1.37 25.51-10.46 12.98-12.7-135.42-24.25-272.69-9.12-399.62 43.96-11.55 4.83-4.28 14.69 6.08 11.18 56.77-19.25 113.13-37.21 173.89-32.49 1.78-4.45 3.57-8.9 5.35-13.35-131.21 9.58-258.31 43.38-376.95 100.22 3.77 2.96 7.54 5.93 11.31 8.89 85.08-52.98 183.26-72.38 280.46-90.34 10.43-1.93 17.95-14.71 2.6-13.28-107.94 10.11-210.09 46.14-300.47 106.04-12.21 8.09 6.14 12.61 13.71 7.59z"/><path class="st1" d="M700.6 680c56.45-6.25 112.87-9.08 169.67-8.3 3.85-3.08 7.71-6.16 11.56-9.24l-171.68 4.89c-2.18 2.97-4.36 5.93-6.54 8.9 168.74-27.07 341.22 5.12 489.66 89.44 5.54 3.14 23.55-5.69 20.33-7.52-153.74-87.33-331.72-118.47-506.12-90.49-5.43.87-20.28 9.29-6.54 8.9l171.68-4.89c4.17-.12 22.3-9.09 11.56-9.24-58.33-.8-116.36 1.91-174.35 8.33-5.95.66-23.32 10.78-9.23 9.22z"/><path class="st1" d="M843.19 667.61c39.39 2.41 77.28 10.46 114.24 24.27 8.86 3.31 25.3-9.42 12.59-14.17-38.54-14.4-78.15-22.82-119.22-25.32-10.21-.63-22.22 14.32-7.61 15.22z"/><path class="st1" d="M872.07 667.96c128.82 10.74 271.44 42.69 366.95 135.74 4.48 4.36 24.54-3.59 20.26-7.76-97.1-94.61-242.52-126.94-373.48-137.86-5.39-.44-24.93 8.95-13.73 9.88z"/><path class="st1" d="M872.34 663.73c82.9 6.6 161.8 30.95 238.62 61.84 66.57 26.77 161.72 52.52 203.12 115.97 3.64 5.57 23.65-2.68 21.62-5.79-40.43-61.95-129.17-86.91-194.49-113.76-81.98-33.7-166.22-60.47-254.97-67.53-4.99-.41-24.78 8.41-13.9 9.27zM201.17 1385.3c9.95 57.18 63.47 86.52 112 108.68 58.47 26.7 122.22 50.08 187.61 43.64 118.21-11.63 241.17-104.07 293.72-208.68 2.72-5.42-18.28-3.46-21.53 3.01-50.53 100.58-176.23 197.7-291.95 195.38-57.51-1.15-114.84-25.33-165.78-50.36-42.01-20.64-83.87-48.15-92.45-97.46-1.15-6.55-22.89-1.49-21.62 5.79z"/><path class="st1" d="M504.55 1491.4c22.49 1.46 42.23-2.27 62.74-11.45 11.58-5.19 4.39-12.81-5.77-10.04l-53.89 14.7c-9.99 2.72-12.88 12.35.02 11.58 118.19-7.12 227.27-116.41 284.71-211.8 5.24-8.7-16.42-6.75-20.15-.55-52.56 87.31-152.92 193.66-261.65 200.21.01 3.86.01 7.72.02 11.58l53.89-14.7c-1.92-3.35-3.85-6.69-5.77-10.04-14.53 7.62-29.79 10.32-45.79 8.1-8.38-.56-22.92 11.46-8.36 12.41z"/><path class="st1" d="m798.32 1273.22 9.95-9.95c3.07-3.07 2.59-6.45-1.98-7.39-4.66-.96-11.81.62-15.29 4.1l-9.95 9.95c-3.07 3.07-2.59 6.45 1.98 7.39 4.67.95 11.82-.63 15.29-4.1z"/><path class="st1" d="M758.64 1274.76c-18.71 17.45-36.1 36.17-52.17 56.07-2.53 3.13.83 5.33 3.45 6.13 4.28 1.3 9.62-.66 13.33-2.66 23.19-12.54 42.94-29.96 58.32-51.36 5.7-7.93-15.97-6.28-20.13-.48-13.7 19.06-30.97 34.23-51.61 45.39 5.59 1.16 11.19 2.31 16.78 3.47 15.21-18.83 31.68-36.45 49.38-52.96 3.51-3.28 2.11-6.35-2.06-7.68-4.59-1.48-11.86.88-15.29 4.08z"/><path class="st1" d="M776.21 1276.53c11.24-1.69 21.28-4 32.04-7.9 12.64-4.58 9.49-18.74-3.85-14.35-73.54 24.18-132.18 94.77-173.86 156.91-6.47 9.64 15.53 9.81 20.61 2.24 37.08-55.29 91.62-123.28 157.1-144.8-1.28-4.78-2.56-9.57-3.85-14.35a94.267 94.267 0 0 1-26.15 6.87c-11.68 1.76-16.74 17.59-2.04 15.38z"/><path class="st1" d="M682.09 1388.2c-19.68 13.1-39.36 26.19-59.04 39.29 6.34-.43 12.68-.85 19.02-1.28 1.38-3.46 3.02-5.92 5.75-8.45 3.73-3.44-3.28-3.99-5.22-3.97-4.75.05-10.88 1.99-14.44 5.28-3.46 3.19-5.73 6.42-7.46 10.78-2.37 5.95 17.32-.14 19.02-1.28 19.68-13.1 39.36-26.19 59.04-39.29 3.9-2.6 2.18-4.31-1.39-5.18-4.44-1.07-11.61 1.66-15.28 4.1z"/><path class="st0" d="M621.21 1433.76c4.57 0 11.57-1.63 14.33-5.66 2.82-4.1-2.43-5.42-5.61-5.42-4.57 0-11.57 1.63-14.33 5.66-2.82 4.11 2.43 5.42 5.61 5.42z"/><path class="st1" d="M904.93 1318.41c-1.45-2.21-2.91-4.42-4.36-6.63-3.19-4.85-21.19.08-21.62 5.79-5.34 71.41 81.13 141.74 143.07 160.9 66.69 20.63 148.87 30.41 214.9 3.75 14.19-5.73.84-8.71-7.58-5.31-62.87 25.38-172.76 11.4-231.01-26.6-45.51-29.69-102.15-79.84-97.76-138.54l-21.62 5.79c1.45 2.21 2.91 4.42 4.36 6.63 3.61 5.48 23.55-2.86 21.62-5.78z"/><path class="st1" d="M797.65 1247.8c48.67 20.77 60.56 84.21 87.67 124.95 20.72 31.13 51.06 52.16 85.99 64.3 4.96 1.72 25.79-5.43 17.46-9.49-23.72-11.59-42.18-29.47-52.89-53.88-7.74-17.63-6.11-36.87-12.62-54.6l-21.62 5.79c5.43 13.06 10.87 26.13 16.3 39.19 2.68 6.44 23.91-.29 21.62-5.79-5.43-13.06-10.87-26.13-16.3-39.19-2.62-6.31-23.74 0-21.62 5.79 9.06 24.69 6.85 49 22.16 72.2 12.01 18.18 28.19 30.55 47.5 39.98 5.82-3.16 11.64-6.33 17.46-9.49-49.73-17.29-78.78-50.54-100.66-97.2-16.24-34.64-36.48-76.47-73-92.05-5.54-2.37-25.31 6.14-17.45 9.49z"/><path class="st1" d="M778.79 1292.17c30.12-.63 55.15 10.94 75.22 32.8 5.11 5.57 24.72 1.9 20.71-7.65-14.8-35.25-72.01-48.22-103.68-29.93-7.29 4.21-8.31 12.23 1.03 14.16 6.49 1.34 105.61 23.56 100.04 37.16l21.14-1.68c-22.77-46.52-96.01-48.36-139.13-37.09-7.1 1.86-13.23 10.65-4.27 14.63 17.77 7.88 35.75 7.22 54.77 9.36 30.66 3.45 58.78 13.31 85.78 27.92 4.03-4.68 8.06-9.36 12.09-14.05-21.08-3.67-37.89-24.8-59.6-30.42-17.64-4.56-37.49-4.8-55.53-2.43-34.21 4.5-64.28 19.85-85.24 47.43-7.35 9.66 7.21 12.27 13.82 9.5 45.3-19.01 91.65-33.32 139.7-43.47 8.31-1.76 13.43-14.72 1.77-15.2-30.23-1.25-86.21-4.12-101.68 28.78-2.89 6.15 4.26 9.66 9.36 9.1 21.29-2.36 42.58-4.72 63.87-7.09 7.75-.86 17.84-3.76 25.55-2.83 17.13 2.07 36.61 16.98 32.27 36.11 5.73-2.7 11.46-5.4 17.19-8.09-39.04-18.59-59.84-53.95-107.89-44.96-46.84 8.76-76.68 49.26-115.75 72.5-12.56 7.47-1.08 19 9.56 12.68 29.73-17.68 55.17-50.43 87.38-62.85 52.27-20.16 72.88 17.47 114.21 37.16 6.14 2.93 15.71-1.57 17.19-8.09 18.07-79.76-99.81-44.92-141.64-40.27 3.12 3.03 6.24 6.06 9.36 9.1 8.61-18.3 58.91-16.17 73.52-15.57l1.77-15.2c-50 10.56-98.2 25.78-145.3 45.54l13.82 9.5c24.25-31.91 63.64-43.98 102.76-37.98 28.5 4.37 44.49 27.93 72.04 32.72 5.92 1.03 22.07-8.65 12.09-14.05-21.95-11.88-44.4-21.28-68.84-26.71-24.92-5.54-52.39-2.23-75.88-12.65-1.42 4.88-2.85 9.75-4.27 14.63 32.27-8.44 95.61-8.52 113.56 28.14 3.77 7.7 17.95 6.1 21.14-1.68 14.75-35.99-90.4-50.54-113.19-55.25.34 4.72.69 9.44 1.03 14.16 20.92-12.09 62.98.35 72.51 23.05 6.9-2.55 13.8-5.1 20.71-7.65-25.2-27.44-56.05-39.83-93.08-39.05-12.32.26-16.7 16.07-1.99 15.76zM372.17 1492.8c18.78 93.11 106.98 74.9 178.49 78.85 4.61-3.18 9.22-6.37 13.82-9.55-20.87-.94-152.02-7.52-136.11-36.25-6.95 1.86-13.9 3.72-20.84 5.59 55.17 32.34 116.12 42.41 178.95 31.3 38.49-6.81 75.74-19.24 114.45-24.96 51.76-7.65 104.28-6.06 156.26-1.77 80.41 6.64 161.3 22.19 242.2 20.29 70.61-1.66 125.04-52.64 180.86-90.4 9.14-6.18-12.41-4.29-16.75-1.36-29.32 19.84-58.06 41.71-88.48 59.81-51.12 30.41-106.99 22.17-162.54 16.86-65.9-6.31-131.56-16.16-197.82-18.07-53.66-1.54-106.48 2.97-158.75 15.36-81.9 19.4-152 29.9-228.09-14.7-5.28-3.09-17.87.21-20.84 5.59-23.04 41.57 125.16 41.43 143.68 42.26 5.05.23 24.85-8.94 13.82-9.55-68.88-3.8-152.65 14.33-170.69-75.09-1.06-5.27-22.81-.13-21.62 5.79z"/><path class="st1" d="M711.41 1521.55c-4.7 2.15-9.39 4.3-14.09 6.45-6.12 2.8-5.12 5.76 1.41 5.26 71.11-5.35 141.67-9.53 212.08 4.75 5.95-2.69 11.89-5.39 17.84-8.08-71.66-8.41-143.41-11.03-215.49-7.67-4.05.19-24.51 8.5-14.13 8.41 40.43-.35 80.86-.71 121.28-1.06 3.99-.04 24.75-7.79 14.13-8.41-92.46-5.37-183.13 6.44-271.51 33.88-14.73 4.57-.79 6.86 7.32 4.34 81.46-25.29 165.01-34.75 250.05-29.81 4.71-2.8 9.42-5.6 14.13-8.41-40.43.35-80.86.71-121.28 1.06-4.71 2.8-9.42 5.6-14.13 8.41 70.86-3.3 141.3-.93 211.78 7.34 4.31.51 23.77-6.88 17.84-8.08-38.45-7.8-76.99-10.8-116.21-10.41-16.65.17-33.29.86-49.91 1.8-9.02.51-18.21.72-27.18 1.75-7.16.82-26.39 7.58-11.61.82 12.87-5.89-7.41-4.59-12.32-2.34zM152.59 33.98c1.59 14.1-2.37 26.41-11.88 36.91 6.89-.62 13.79-1.23 20.68-1.85 3.6-12.39 4.99-22.77 5.12-35.5l-21.62 5.79 2.79 28.53c.56 5.76 22.15 1.31 21.62-5.79-.25-3.42-.51-6.83-.76-10.25-.5-6.68-19.89.16-21.55 4.5-5.06 13.2-8.6 25.36-11.42 39.22l21.55-4.5c-.19-4.24-.38-8.48-.56-12.72l-21.55 4.5c-1.47 31.06-5.43 61.27-12.5 91.53-4.66 19.98-9.32 35.71-4.34 56.11 1.57 6.44 18.54.34 20.75-3.14 23.25-36.69 38.25-75.23 45.37-118.15 1.15-6.94-20.38-3.14-21.48 3.21-5.83 33.57-4.89 87.54-27.23 114.69-5.28 6.41 15.95 4.28 19.87-.49 23.75-28.85 22.64-81.73 28.84-117.41l-21.48 3.21c-6.92 41.74-21.1 79.65-43.76 115.43 6.92-1.05 13.83-2.09 20.75-3.14-6.62-27.07 5.38-54.99 10.07-81.79 3.82-21.83 5.72-43.74 6.76-65.85.28-5.97-19.87-.2-21.55 4.5-3.35 9.38-3.58 6.18.43 15.31 2.61 5.95 20.42 1.07 21.55-4.5 2.82-13.85 6.36-26.01 11.42-39.22l-21.55 4.5c.25 3.42.51 6.83.76 10.25l21.62-5.79-2.79-28.53c-.58-5.97-21.55-1.07-21.62 5.79.56 11.38-1.1 22.35-4.99 32.92-2.16 7.42 18.31 1.28 20.68-1.85 10.21-13.49 14.04-25.25 13.63-42.21-.15-5.38-21.81-1.59-21.63 5.78z"/><path class="st1" d="M134.92 121.55c13.44 22.88 22.96 46.98 28.78 72.86.93 4.11 22.6-1.1 21.62-5.79-6.9-32.92-22.14-62.21-38.25-91.43-2.73-4.95-23.11 3.08-21.62 5.79 16.11 29.22 31.35 58.51 38.25 91.43l21.62-5.79c-5.83-25.89-15.35-49.98-28.78-72.86-2.92-4.97-23.1 3.27-21.62 5.79z"/><path class="st0" d="M208.3 227.24c4.32 0 11.71-1.67 14.39-5.44 2.83-3.97-2.47-4.59-5.39-4.59-4.32 0-11.71 1.67-14.39 5.44-2.82 3.97 2.47 4.59 5.39 4.59z"/><path class="st1" d="M158.81 993.09c.12.05.24.11.37.16 2.26 1.83 4.53 3.65 6.79 5.48 7.31-30.61-24.46-52.21-20.82-82.2-6.95 1.86-13.9 3.72-20.84 5.59 9.72 16.61 19.43 33.21 29.15 49.82 3.6 6.15 23.35.24 20.8-7.29a719.236 719.236 0 0 0-28.42-71.12c-3.74-8.09-24.99-1.5-21.62 5.79a720.71 720.71 0 0 1 28.42 71.12c6.93-2.43 13.87-4.86 20.8-7.29-9.72-16.61-19.43-33.21-29.15-49.82-3.57-6.1-20.07-.8-20.84 5.59-3.66 30.13 27.88 52.67 20.82 82.2-.92 3.85 4.05 5.27 6.79 5.48 10.13.78 18.1-1.84 25.32-9.07 9.13-9.13-11.95-10.05-17.57-4.44z"/><path class="st1" d="m136.75 870.52.06-21.58c-6.95 1.86-13.9 3.72-20.84 5.59 8.57 17.77 17.15 35.54 25.72 53.31 4.1 8.5 22.84 1.57 20.67-7.77-9.28-40.05-14.01-80.37-14.09-121.5-.02-11.73-21.98-8.87-21.96 1.42.08 42.59 4.82 84.37 14.43 125.87l20.67-7.77c-8.57-17.77-17.15-35.54-25.72-53.31-3.69-7.65-20.82-2.41-20.84 5.59l-.06 21.58c-.03 11.72 21.93 8.86 21.96-1.43z"/><path class="st1" d="M123.84 770.14c9.46 22.7 18.93 45.41 28.39 68.11 2.95 7.08 23.29 1.81 21.62-5.79-22.4-101.66-32.02-205.5-26.7-309.55 2.08-40.64 7.06-81.04 2.74-121.71-5.59-52.63-21.22-102.83-5.61-155.36 2.21-7.44-19.45-4.48-21.6 2.76-13.21 44.42-4.95 87 1.9 131.82 8.19 53.64 2.46 105.67.32 159.46-3.99 100.3 5.75 200.38 27.34 298.35l21.62-5.79c-9.46-22.7-18.93-45.41-28.39-68.11-3.09-7.38-24.39-.82-21.63 5.81z"/><path class="st1" d="M139.09 207.35a911.688 911.688 0 0 1 16.49 124.79c.57 9.17 22.24 4.19 21.62-5.79a913.245 913.245 0 0 0-16.49-124.79c-1.92-9.44-23.59-3.92-21.62 5.79z"/><path class="st1" d="M131.75 250.18c13.46 46.34 21.19 93.33 23.29 141.54.37 8.44 22.03 3.71 21.62-5.79-2.09-48.21-9.82-95.2-23.29-141.54-2.58-8.86-24.18-3.02-21.62 5.79zM155.68 1341.42c4.43 21.88 9.65 43.56 15.66 65.07 2.75 9.84 24.37 4.05 21.62-5.79a917.793 917.793 0 0 1-15.66-65.07c-2-9.88-23.67-4.33-21.62 5.79z"/><path class="st1" d="M157.37 1332.42c-1.94 27.78.69 54.93 8.19 81.77 2.35 8.42 23.97 2.62 21.62-5.79-7.18-25.72-9.95-51.64-8.08-78.29.67-9.7-21.16-5.86-21.73 2.31z"/><path class="st1" d="m188.34 1369.74-1.23-.9c-4.51-3.28-11.35-1.82-15.53 1.21-9.85 7.14-7.73 21.33-7.22 32.14.7 15 3.33 29.52 7.74 43.86 3.14 10.21 24.74 4.36 21.62-5.79-2.95-9.59-5.28-19.3-6.52-29.26-.33-2.65-3.94-28.6-1.15-30.62-5.18.4-10.35.81-15.53 1.21l1.23.9c8.03 5.85 26.75-5.35 16.59-12.75z"/><path class="st1" d="M146.02 1339.34c13.38 70 37.72 136.05 72.52 198.19 6.08-3.65 12.16-7.31 18.24-10.96-1.05-.85-2.1-1.71-3.15-2.56-7.39-6-26.3 4.61-16.67 12.43 1.05.85 2.1 1.71 3.15 2.56 6.48 5.26 23.4-1.74 18.24-10.96-34.24-61.12-57.56-125.73-70.7-194.48-1.91-9.93-23.58-4.41-21.63 5.78z"/><path class="st1" d="M127.81 1366.23c27.99 48.99 43.08 104.05 71.66 152.66 11.91 20.25 26.3 38.59 40.64 57.14 15.76 20.39 45.73 50.17 48.29 76.74 3.25-2.29 6.49-4.58 9.74-6.88-.77.2-1.55.41-2.32.61l11.87 1.08c-.34-.57-.68-1.13-1.03-1.7-3.57-5.89-23.91 2.01-21.62 5.79.34.57.68 1.13 1.03 1.7 2.11 3.48 8.87 1.87 11.87 1.08.77-.2 1.55-.41 2.32-.61 2.74-.72 10.12-2.95 9.74-6.88-1.98-20.47-21.98-42.28-34.28-58.77-18.53-24.85-38.88-48.29-54.65-75.1-28.58-48.61-43.67-103.67-71.66-152.66-3.36-5.91-23.87 1.83-21.6 5.8z"/><path class="st1" d="M249.29 1617.58a782.18 782.18 0 0 0 62.25 85.31c7-2.17 14.01-4.34 21.01-6.5-60.11-66.1-108.51-140.34-144.94-221.9-2.19-4.9-23.14 2.38-21.62 5.79 36.68 82.14 85.64 156.79 146.14 223.32 3.65 4.02 22.33-4.94 21.01-6.5a782.18 782.18 0 0 1-62.25-85.31c-3.17-5.05-23.11 3.4-21.6 5.79zM166.76 1442.16c5.93-3.12 12.19-10.24 7.4-17.06-4.02-5.73-23.86 2.59-21.62 5.79 1.01 1.44 1.76 3.2 1.57 5.01-.09.83-.53 1.56-.74 2.34-.29 1.12-1.84 1.38.65.06-2.37 1.25-6.91 4.66-2.44 6.41 4.32 1.69 11.35-.54 15.18-2.55z"/><path class="st0" d="M154.65 1413.77c4.7 0 11.35-3.62 11.91-8.75.61-5.65-5.76-7.1-9.99-7.1-4.7 0-11.35 3.62-11.91 8.75-.62 5.65 5.76 7.1 9.99 7.1z"/><path class="st1" d="M164.07 1442.11c50.44 81.98 100.89 163.95 151.33 245.93 3.7-3.91 7.41-7.81 11.11-11.72-3.62.17-7.24.33-10.87.5-11.68.54-17.15 15.01-2.32 14.33 3.62-.17 7.24-.33 10.87-.5 5.23-.24 15.09-5.26 11.11-11.72-50.44-81.98-100.89-163.95-151.33-245.93-4.55-7.39-25.38.22-19.9 9.11z"/><path class="st1" d="M301.69 1694.58c.83 1.66 1.66 3.31 2.5 4.97 2.02 4.03 8.59 2.94 12.12 2 2.06-.55 11.41-3.99 9.5-7.79-.83-1.66-1.66-3.31-2.5-4.97-2.02-4.03-8.59-2.94-12.12-2-2.06.55-11.41 3.99-9.5 7.79zM373.09 1811.69c49.71 50 165.82 140.28 238.19 85.39-5.31-2.36-10.62-4.72-15.94-7.08-13.84 13.22-42.88 15.7-60.59 10.81-10.52-2.9-20.74-7.48-30.66-11.94-18.24-8.2-36.09-17.46-53.58-27.14-33.15-18.36-64.67-39.17-95.1-61.74-5.8-4.3-25.4 3.79-18.36 10.49 41.07 39.11 89.52 64.5 145.27 75.28 8.47 1.64 25.56-11.15 12.73-13.63-52.81-10.21-99.1-33.66-138.12-70.82-6.12 3.5-12.24 6.99-18.36 10.49 51.3 38.05 107.18 73.4 166.89 96.76 37.63 14.72 77.15 16.07 107.71-13.11 9.25-8.83-10.11-11.5-15.94-7.08-34.71 26.33-92.86-6.02-123.83-23.58-29.81-16.91-56.31-37.96-80.45-62.25-6.33-6.41-26.85 2.12-19.86 9.15z"/></svg>