<svg width="106" height="56" viewBox="0 0 106 56" fill="none" xmlns="http://www.w3.org/2000/svg">
<g clip-path="url(#clip0_2063_282606)">
<path d="M7.94482 37.0324V19.0808H13.279V37.0324H7.94482Z" fill="#161617"/>
<path d="M16.4598 37.0324V19.0808H23.2301L27.0513 30.8006L30.8468 19.0808H37.4632V37.0324H32.3342V25.646L29.0516 37.0324H25.1022L21.5889 25.5947V37.0324H16.4598Z" fill="#161617"/>
<path d="M60.1427 27.159V30.775H58.7323C58.2365 32.9634 57.1765 34.6474 55.5523 35.8271C53.9452 37.0068 51.8508 37.5966 49.2692 37.5966C46.3798 37.5966 44.029 36.7076 42.2168 34.9295C40.4216 33.1514 39.524 30.8776 39.524 28.1079C39.5411 25.304 40.4473 23.0045 42.2424 21.2093C44.0547 19.4142 46.4824 18.5166 49.5257 18.5166C52.1415 18.5166 54.2786 19.0979 55.9369 20.2605C57.6124 21.4231 58.5186 22.9361 58.6553 24.7997H52.8595C52.7227 24.2013 52.3552 23.7226 51.7568 23.3635C51.1755 22.9874 50.4403 22.7993 49.5513 22.7993C48.1323 22.7993 47.0295 23.2695 46.2431 24.2098C45.4737 25.1331 45.089 26.3726 45.089 27.9284C45.089 29.45 45.4908 30.6895 46.2944 31.6469C47.0979 32.5872 48.1665 33.0574 49.5 33.0574C51.4832 33.0574 52.7313 32.2966 53.2442 30.775H50.295V27.159H60.1427Z" fill="#161617"/>
<circle cx="64.7419" cy="34.4521" r="2.90323" fill="#471AFF"/>
<path d="M70.5254 37.0327V19.0811H75.8596V32.4422H80.5115V37.0327H70.5254Z" fill="#161617"/>
<path d="M92.4975 19.0811H98.4472L89.5483 37.0327H83.573L86.6504 30.724L80.6238 19.0811H86.9068L89.7534 25.4923L92.4975 19.0811Z" fill="#161617"/>
</g>
<defs>
<clipPath id="clip0_2063_282606">
<rect width="91.6129" height="20" fill="white" transform="translate(7 18)"/>
</clipPath>
</defs>
</svg>
