<svg width="109" height="56" viewBox="0 0 109 56" fill="none" xmlns="http://www.w3.org/2000/svg">
<g clip-path="url(#clip0_2063_282616)">
<g clip-path="url(#clip1_2063_282616)">
<path fill-rule="evenodd" clip-rule="evenodd" d="M7.11279 36.8423H24.9549V19H7.11279V36.8423ZM20.4315 31.6085C20.3599 31.6358 19.867 31.6551 20.2159 31.6946C20.435 31.7191 20.0823 31.7368 20.0834 31.816C20.1556 31.8138 20.2649 31.9526 20.2931 31.9483C20.297 31.9691 20.0765 32.0277 20.1231 32.0346C20.3107 32.0611 19.9646 32.0734 19.9873 32.1183C20.0524 32.2463 19.9555 32.2029 20.0773 32.2614C20.1424 32.2929 20.1231 32.4076 20.0804 32.4172C20.0246 32.4297 20.0077 32.4599 19.9568 32.4642C19.9496 32.5108 19.9073 32.5323 19.8514 32.5403C19.7304 32.5854 19.5946 32.6368 19.4636 32.6503C19.3793 32.6585 19.3829 32.6668 19.2992 32.6505C19.2092 32.6624 19.0719 32.67 18.9822 32.6611C18.9078 32.6793 17.797 32.7444 17.7042 32.7318C17.6302 32.7477 17.1859 32.7631 17.0946 32.7498C17.0026 32.7676 16.2314 32.7882 16.1516 32.7789C16.0579 32.7952 15.9135 32.8021 15.8196 32.7893C15.7259 32.8077 15.581 32.8112 15.4865 32.8001C15.3947 32.8173 13.3568 32.7687 13.2575 32.7535C13.1614 32.7654 12.685 32.7492 12.5902 32.7331C12.5111 32.7451 12.3918 32.7368 12.3126 32.7247C12.2202 32.7377 12.0765 32.7305 11.9867 32.7054C11.9351 32.6911 11.901 32.6987 11.8791 32.6475C11.8607 32.605 11.8654 32.5789 11.8316 32.5609C11.7915 32.5399 11.7891 32.4486 11.8153 32.4146C11.7713 32.3211 11.8327 32.1461 11.7973 32.017C11.7763 31.9396 11.8177 31.944 11.8553 31.8735C11.811 31.8765 11.8015 31.798 11.8067 31.783C11.8353 31.7015 11.7932 31.6618 11.8544 31.5924C11.891 31.5512 11.8743 31.5172 11.94 31.5172C11.9875 31.5172 12.0448 31.5174 12.0914 31.5247C12.1929 31.5169 12.3246 31.5219 12.4254 31.5375C12.6316 31.5234 13.5596 31.5573 13.76 31.5892C13.9515 31.5755 14.1807 31.5892 14.3718 31.6119C14.5767 31.6017 18.0173 31.5753 18.2043 31.5662C18.4094 31.5566 18.6406 31.5256 18.8449 31.5458C18.9913 31.5215 19.1795 31.536 19.3239 31.5642C19.4573 31.5594 19.5198 31.5111 19.6501 31.518C19.6584 31.5046 19.8583 31.5486 19.8793 31.5497C19.8976 31.5187 20.0765 31.5458 20.1183 31.5482C20.1645 31.5514 20.4738 31.5922 20.4315 31.6085ZM20.5354 30.0707C20.5436 30.0982 20.5579 30.1223 20.579 30.1429C20.3617 30.0151 20.1713 29.8529 19.9641 29.712C19.9802 29.785 20.4219 30.0253 20.3951 30.075C20.389 30.088 19.823 29.669 19.8147 29.676C19.7794 29.7015 19.9099 29.8356 19.8824 29.8293C19.8876 29.8334 19.9882 29.908 19.9767 29.9201C19.9535 29.9288 20.5829 30.4003 20.5276 30.4667C20.505 30.4931 20.3337 30.3363 20.3107 30.3253C20.327 30.3519 20.346 30.376 20.3684 30.3983C20.2346 30.319 20.1264 30.209 19.9997 30.1205C20.0166 30.152 20.04 30.1787 20.0698 30.2001C19.9639 30.201 19.7399 29.9345 19.6488 29.8807C19.6193 29.8646 19.4792 29.7284 19.4584 29.7369C19.456 29.7453 19.4584 29.7527 19.4649 29.759C19.412 29.7341 19.366 29.7011 19.3268 29.6597C19.3294 29.682 19.1804 29.4691 19.1207 29.4957C19.1572 29.5309 19.1936 29.5664 19.2292 29.6022C19.1093 29.6282 19.0125 29.3272 18.8505 29.3951C18.8638 29.3895 19.5196 30.0112 19.5371 30.0546C19.5352 30.0494 19.4983 30.0416 19.497 30.037C19.5369 30.17 19.7219 30.2942 19.8132 30.3914C19.6007 30.2446 19.3953 30.0442 19.1847 29.9299C19.1021 29.885 19.0759 29.7987 18.9965 29.8436C18.9798 29.8527 18.8015 29.7302 18.7807 29.7093C18.7768 29.7419 18.7824 29.7731 18.7967 29.8028C18.6304 29.6712 18.4725 29.4777 18.2776 29.3838C18.3225 29.4478 18.365 29.5007 18.3771 29.5283C18.391 29.5593 18.4129 29.5805 18.4196 29.6159C18.1392 29.3912 17.8607 29.1596 17.5938 28.9189C17.5361 28.8668 17.2399 28.5944 17.1932 28.6777C17.0982 28.5916 16.4626 28.0479 16.332 28.0215C16.4372 28.1084 16.5296 28.208 16.6326 28.2969C16.6077 28.316 16.3379 28.0813 16.2999 28.0492C16.2334 27.9941 16.0219 27.8085 15.9276 27.7224C15.8513 27.6528 15.778 27.5843 15.7042 27.5162C15.5669 27.6242 15.3345 27.8198 15.3017 27.846C15.262 27.8783 15.2163 27.8979 15.177 27.9393C15.0714 28.051 14.9491 28.1479 14.8255 28.2407C14.6687 28.3578 14.5297 28.4966 14.3711 28.617C14.3729 28.596 14.3978 28.5916 14.3865 28.5634C14.3455 28.596 14.3046 28.6257 14.2668 28.6591C14.0543 28.8427 13.842 29.0267 13.631 29.2112C13.4724 29.3502 13.3193 29.4951 13.1578 29.6304C12.9801 29.7779 12.8106 29.9351 12.634 30.0841C12.4551 30.2359 12.883 29.9581 12.7177 30.1253C12.6902 30.1528 12.6574 30.1765 12.6232 30.1953C12.5805 30.2194 12.5503 30.2565 12.5126 30.2856C12.469 30.3185 12.4172 30.342 12.3662 30.3717C12.3712 30.3142 12.3707 30.3159 12.3141 30.299C12.2699 30.2858 12.2356 30.2498 12.2107 30.2175C12.174 30.17 12.0715 29.9711 12.0376 29.8258C12.0353 29.816 12.0346 29.8046 12.0368 29.7957C12.0647 29.6857 12.0348 29.5814 11.9986 29.4777C11.9539 29.3528 11.9589 29.2229 11.9483 29.0947C11.9422 29.0152 12.0062 28.9651 12.0541 28.9143C12.1545 28.8072 12.2536 28.6955 12.3684 28.604C12.443 28.5441 12.5145 28.4756 12.6058 28.434C12.675 28.4025 12.7158 28.3338 12.7691 28.2817C12.8316 28.2203 12.9027 28.1668 12.9617 28.1043C13.0474 28.0132 13.1755 27.9668 13.261 27.8749C13.3358 27.7946 14.0875 27.17 14.1905 27.0831C14.3612 26.9395 14.521 26.7962 14.6912 26.6561C14.6669 26.6355 14.6433 26.6149 14.6186 26.5936C14.4195 26.4214 14.1968 26.2208 13.9897 26.0495C13.7845 25.8795 13.5828 25.6956 13.3779 25.5177C13.0552 25.2373 12.7477 25.0515 12.4161 24.7778C12.2447 24.6364 11.8719 24.3818 11.834 24.1556C11.8078 23.9979 12.0264 23.8366 12.0992 23.7288C12.0964 23.7331 12.4273 23.2159 12.5314 23.2588C12.5622 23.2716 12.6032 23.2267 12.6767 23.2543C12.7982 23.2996 12.8804 23.4065 12.9708 23.4915C13.2621 23.7665 13.5663 24.0272 13.868 24.289C14.4941 24.8324 15.0918 25.3098 15.7029 25.8398C15.7387 25.8129 15.7745 25.786 15.81 25.7589C15.9354 25.6635 16.0673 25.5752 16.1941 25.4811C16.355 25.3627 16.5192 25.2488 16.6832 25.133C16.7608 25.0779 16.8423 25.0272 16.918 24.9695C17.0631 24.858 17.2166 24.7585 17.3678 24.6561C17.5712 24.5191 17.7764 24.3846 17.9815 24.2491C18.101 24.1695 18.2236 24.0923 18.3502 24.0211C18.4049 23.9908 18.4498 23.9411 18.5129 23.9212C18.5385 23.9129 18.5604 23.8969 18.5912 23.8773C18.7651 23.767 18.9431 23.6629 19.1238 23.5629C19.343 23.4412 19.5603 23.3152 19.7867 23.2055C19.8466 23.1762 19.9095 23.1318 19.993 23.1298C19.9479 23.1868 19.8932 23.2196 19.8427 23.2643C19.8917 23.2892 19.9813 23.2127 19.9913 23.2313C20.0051 23.2571 19.968 23.3016 19.9793 23.2959C20.0121 23.2799 20.0411 23.2528 20.0854 23.25C20.0563 23.2985 20.0123 23.3215 19.9737 23.3543C20.0331 23.343 20.078 23.2916 20.1533 23.2857C20.0786 23.3499 19.9967 23.3747 19.9266 23.4198C19.8744 23.4545 19.8158 23.4809 19.7599 23.5108C19.7577 23.5115 19.7542 23.5121 19.7542 23.5134C19.7436 23.5735 19.6826 23.5863 19.6477 23.6264C19.7056 23.6236 19.7529 23.5985 19.7991 23.5685C19.8175 23.5828 19.79 23.5926 19.7972 23.61C19.9867 23.5395 20.1454 23.4024 20.3434 23.3469C20.2714 23.3931 20.1992 23.4412 20.1261 23.4857C20.0687 23.5204 20.0166 23.5631 19.9563 23.5954C19.906 23.6219 19.8507 23.6392 19.8041 23.6735C19.788 23.6854 19.7538 23.6969 19.7692 23.7221C19.7854 23.7511 19.8156 23.7438 19.8444 23.7268C19.9312 23.6772 20.0186 23.6312 20.106 23.5841C20.1123 23.5807 20.1216 23.5837 20.1296 23.5837C20.1058 23.6594 20.0301 23.6867 19.9847 23.7511C20.0379 23.7431 20.0685 23.7054 20.1127 23.6919C20.1899 23.6694 20.2623 23.6366 20.3471 23.6351C20.4026 23.6338 20.4569 23.5954 20.5176 23.5822C20.4712 23.6143 20.4228 23.6455 20.3775 23.6807C20.3632 23.6919 20.327 23.6911 20.3417 23.7292C20.3588 23.7733 20.3862 23.7481 20.4096 23.7392C20.4358 23.7288 20.4619 23.7147 20.4877 23.7021C20.4961 23.6976 20.5033 23.6969 20.5072 23.7073C20.5102 23.716 20.5102 23.7242 20.4989 23.7268C20.4445 23.737 20.4042 23.7752 20.3614 23.806C20.3185 23.8374 20.278 23.8728 20.2359 23.9075C20.2435 23.9359 20.2758 23.8834 20.2812 23.9188C20.2855 23.9472 20.2571 23.9483 20.2446 23.9539C20.0355 24.0465 19.8659 24.2018 19.6755 24.323C19.594 24.3746 19.3701 24.5104 19.3419 24.5273C19.2591 24.5772 19.1776 24.6301 19.0967 24.6834C19.0863 24.69 19.0607 24.691 19.0746 24.7179C19.0873 24.7429 19.1006 24.7344 19.1194 24.7253C19.2389 24.668 19.3565 24.6041 19.4575 24.5188C19.5211 24.4655 19.5979 24.4466 19.6631 24.4009C19.7447 24.344 20.0409 24.1604 20.1632 24.0877C20.2285 24.0487 20.2257 24.0441 20.2888 24.0701C20.2723 24.0962 20.2391 24.0996 20.2203 24.1211C20.1604 24.1844 20.0945 24.2393 20.0279 24.2929C19.9646 24.3443 19.898 24.3913 19.8308 24.4362C19.8026 24.4547 19.7776 24.4735 19.7618 24.5058C19.9683 24.4074 20.1498 24.2638 20.3532 24.1591C20.2881 24.2319 20.1968 24.2666 20.1192 24.3213C19.998 24.4074 19.8572 24.4629 19.7507 24.5707C19.7234 24.5982 19.6811 24.5895 19.6501 24.6167C19.5304 24.7168 19.3814 24.7726 19.2606 24.8702C19.2162 24.9066 19.1659 24.9352 19.1231 24.9738C19.1062 24.9886 19.0904 25.0055 19.067 25.0105C18.9512 25.0359 18.8859 25.141 18.7868 25.1935C18.7241 25.2269 18.6701 25.279 18.6076 25.308C18.5328 25.344 18.4667 25.3935 18.4012 25.4388C18.2945 25.513 18.1923 25.5956 18.0854 25.6713C18.0282 25.7112 17.9564 25.7303 17.9121 25.7906L17.9128 25.7893C17.8232 25.8259 17.7553 25.8953 17.6762 25.9476C17.545 26.0354 17.4183 26.1284 17.2956 26.228C17.2706 26.249 17.2481 26.2724 17.2221 26.293L17.2242 26.2904C17.1371 26.2954 17.111 26.3835 17.0338 26.4153C17.0679 26.4338 16.9423 26.4891 16.9334 26.4956C16.8718 26.5381 16.8 26.5286 16.7513 26.5839C16.7298 26.6077 16.6853 26.6337 16.6456 26.6574C17.3839 27.2852 18.1303 27.8985 18.8384 28.54C19.2157 28.882 19.6174 29.2021 20.0203 29.5196C20.2652 29.713 20.9181 30.3207 20.9949 30.3767C20.9654 30.4029 20.585 30.1112 20.5354 30.0707ZM46.8987 30.016H50.5921V31.5918H45.1034V24.1788H46.8987V30.016ZM37.6978 31.5918H43.2856V30.0381H39.4931V28.6786H42.802V27.1579H39.4931V25.7324H43.2856V24.1788H37.6978V31.5918ZM52.1243 31.5918H57.7119V30.0381H53.9193V28.6786H57.2283V27.1579H53.9193V25.7324H57.7119V24.1788H52.1243V31.5918ZM35.1479 24.8094C35.6766 25.3065 35.9681 25.9851 35.9681 26.72C35.9681 27.27 35.7729 27.8243 35.3351 28.5172L33.3984 31.5918H31.384L32.7888 29.3812L32.8003 29.3632L32.7472 29.3602C31.1272 29.2635 29.9953 28.1915 29.9953 26.753C29.9953 25.166 31.2536 24.014 32.987 24.014C33.8348 24.014 34.6023 24.2966 35.1479 24.8094ZM34.3045 26.6871C34.3045 25.9992 33.7161 25.4394 32.9927 25.4394C32.2692 25.4394 31.6806 25.9992 31.6806 26.6871C31.6806 27.3754 32.2692 27.9352 32.9927 27.9352C33.7161 27.9352 34.3045 27.3754 34.3045 26.6871ZM63.5326 28.1945L60.8558 24.1788H59.5294V31.5918H61.3136V27.746L63.0401 30.4153H64.0253L65.7403 27.7688V31.5918H67.5358V24.1788H66.1986L63.5326 28.1945ZM85.341 25.7765H87.7266V31.5918H89.522V25.7765H91.896V24.1788H85.341V25.7765ZM97.095 27.2451L96.0501 27.0031C95.521 26.889 95.1686 26.7207 95.1686 26.2694C95.1686 26.0254 95.2751 25.8244 95.4765 25.6884C95.6676 25.5589 95.9408 25.4906 96.2661 25.4906C96.9655 25.4906 97.3815 25.8088 97.5012 26.436H99.3099C99.2468 25.8491 98.8321 24.014 96.1453 24.014C95.2827 24.014 94.5481 24.2397 94.0211 24.6665C93.4896 25.0977 93.2083 25.7051 93.2083 26.4234C93.2083 27.5862 93.8886 28.2752 95.3494 28.5914L96.5808 28.866C97.1297 28.9703 97.3967 29.1887 97.3967 29.5341C97.3967 29.9733 97.0007 30.2251 96.3102 30.2251C95.4297 30.2251 94.8481 29.8406 94.7125 29.1698H92.9149C93.0034 30.0143 93.3757 30.672 94.0211 31.1246C94.6002 31.5308 95.3729 31.7457 96.2551 31.7457C98.1197 31.7457 99.3238 30.8041 99.3238 29.3474C99.3238 28.2138 98.6571 27.5851 97.095 27.2451ZM69.5626 31.5918H75.1504V30.0381H71.3576V28.6786H74.6666V27.1579H71.3576V25.7324H75.1504V24.1788H69.5626V31.5918ZM81.9919 28.4422L78.3407 24.1788H76.9682V31.5918H78.7634V27.4394L82.3925 31.5918H83.7874V24.1788H81.9919V28.4422Z" fill="#000203"/>
</g>
</g>
<defs>
<clipPath id="clip0_2063_282616">
<rect width="93" height="18" fill="white" transform="translate(7.11279 19)"/>
</clipPath>
<clipPath id="clip1_2063_282616">
<rect width="92.3855" height="18" fill="white" transform="translate(7.11279 19)"/>
</clipPath>
</defs>
</svg>
