<svg width="56" height="56" viewBox="0 0 56 56" fill="none" xmlns="http://www.w3.org/2000/svg">
<path fill-rule="evenodd" clip-rule="evenodd" d="M4.45483 52.0003H52.6127V3.8418H4.45483V52.0003ZM40.4035 37.8734C40.2103 37.9472 38.8798 37.9993 39.8217 38.1058C40.4129 38.172 39.4611 38.22 39.464 38.4336C39.6589 38.4278 39.9539 38.8024 40.03 38.7907C40.0406 38.8469 39.4453 39.0049 39.5711 39.0236C40.0775 39.0951 39.1432 39.1284 39.2047 39.2496C39.3803 39.5949 39.1186 39.4779 39.4476 39.6359C39.6232 39.7208 39.5711 40.0304 39.4558 40.0562C39.3054 40.0902 39.2597 40.1715 39.1222 40.1832C39.1028 40.3091 38.9887 40.367 38.8377 40.3887C38.5111 40.5104 38.1446 40.6492 37.7911 40.6855C37.5634 40.7077 37.5733 40.7299 37.3474 40.686C37.1045 40.7182 36.7339 40.7387 36.4916 40.7147C36.2908 40.7639 33.2927 40.9395 33.0421 40.9055C32.8425 40.9483 31.6431 40.9898 31.3967 40.9541C31.1485 41.0021 29.067 41.0577 28.8516 41.0326C28.5987 41.0765 28.2089 41.0952 27.9554 41.0607C27.7026 41.1104 27.3116 41.1198 27.0564 41.0899C26.8087 41.1362 21.3082 41.0051 21.0401 40.9641C20.7808 40.9963 19.4948 40.9524 19.239 40.9091C19.0254 40.9413 18.7034 40.919 18.4898 40.8862C18.2404 40.9213 17.8523 40.902 17.61 40.8341C17.4707 40.7955 17.3788 40.816 17.3196 40.6778C17.2699 40.5631 17.2828 40.4929 17.1915 40.4443C17.0832 40.3875 17.0767 40.1411 17.1476 40.0492C17.0287 39.7969 17.1944 39.3245 17.099 38.9762C17.0422 38.7673 17.154 38.779 17.2553 38.5887C17.1358 38.5969 17.1101 38.385 17.1241 38.3446C17.2014 38.1245 17.0878 38.0174 17.2529 37.8301C17.3518 37.7189 17.3068 37.627 17.4841 37.627C17.6123 37.627 17.7669 37.6276 17.8927 37.6475C18.1666 37.6264 18.522 37.6399 18.7941 37.682C19.3508 37.644 21.8555 37.7353 22.3964 37.8213C22.9132 37.7845 23.532 37.8213 24.0477 37.8828C24.6008 37.8553 33.8874 37.7839 34.392 37.7593C34.9457 37.7335 35.5697 37.6498 36.1211 37.7043C36.5162 37.6387 37.0243 37.6779 37.4141 37.754C37.7741 37.7411 37.9427 37.6106 38.2945 37.6293C38.3167 37.5931 38.8564 37.7119 38.9132 37.7148C38.9624 37.6311 39.4453 37.7043 39.5582 37.7107C39.6829 37.7195 40.5176 37.8295 40.4035 37.8734ZM40.6839 33.7227C40.7061 33.7971 40.7448 33.862 40.8015 33.9176C40.215 33.5729 39.7011 33.135 39.1421 32.7546C39.1854 32.9518 40.3777 33.6004 40.3051 33.7344C40.2888 33.7695 38.761 32.6387 38.7388 32.6574C38.6433 32.7265 38.9957 33.0882 38.9214 33.0712C38.9354 33.0823 39.207 33.2837 39.176 33.3165C39.1134 33.3399 40.8121 34.6125 40.6628 34.7916C40.6019 34.863 40.1395 34.4398 40.0774 34.4099C40.1214 34.4819 40.1729 34.5469 40.2332 34.6072C39.872 34.3929 39.5799 34.0962 39.2381 33.8573C39.2837 33.9422 39.3469 34.0142 39.4271 34.0722C39.1415 34.0745 38.5368 33.3551 38.291 33.21C38.2114 33.1666 37.8332 32.799 37.777 32.8219C37.7706 32.8447 37.777 32.8646 37.7946 32.8816C37.6518 32.8143 37.5277 32.7253 37.4217 32.6135C37.4287 32.6738 37.0266 32.099 36.8656 32.171C36.964 32.2658 37.0623 32.3618 37.1583 32.4584C36.8346 32.5286 36.5736 31.7161 36.1363 31.8994C36.172 31.8841 37.9421 33.5623 37.9895 33.6794C37.9842 33.6654 37.8847 33.6443 37.8812 33.632C37.9889 33.9908 38.4882 34.3262 38.7347 34.5885C38.161 34.1922 37.6067 33.6513 37.0383 33.3428C36.8153 33.2217 36.7445 32.9887 36.5302 33.1099C36.4852 33.1344 36.004 32.8037 35.9478 32.7475C35.9373 32.8353 35.9525 32.9196 35.9911 32.9998C35.5422 32.6445 35.116 32.1224 34.5898 31.8689C34.711 32.0416 34.8257 32.1844 34.8585 32.2588C34.8959 32.3425 34.9551 32.3998 34.9732 32.4952C34.2163 31.8888 33.4648 31.2637 32.7442 30.6139C32.5885 30.4734 31.7889 29.7382 31.6631 29.963C31.4067 29.7306 29.691 28.2632 29.3386 28.1918C29.6225 28.4265 29.8719 28.6952 30.1499 28.9351C30.0826 28.9867 29.3544 28.3533 29.252 28.2667C29.0723 28.118 28.5016 27.6169 28.247 27.3846C28.0409 27.1967 27.8431 27.0117 27.644 26.8279C27.2735 27.1194 26.646 27.6474 26.5576 27.7182C26.4505 27.8054 26.327 27.8581 26.2211 27.9699C25.936 28.2714 25.6059 28.533 25.2722 28.7835C24.849 29.0996 24.4738 29.4743 24.0459 29.7991C24.0506 29.7423 24.1179 29.7306 24.0875 29.6545C23.9768 29.7423 23.8662 29.8225 23.7643 29.9127C23.1907 30.4085 22.6176 30.9048 22.0481 31.403C21.6202 31.7782 21.207 32.1692 20.7709 32.5345C20.2915 32.9325 19.8337 33.3569 19.3572 33.759C18.8743 34.1688 20.0292 33.4189 19.5832 33.8702C19.5089 33.9446 19.4205 34.0084 19.328 34.0593C19.2127 34.1243 19.1313 34.2244 19.0295 34.3028C18.9118 34.3918 18.7719 34.455 18.6343 34.5352C18.6478 34.3801 18.6466 34.3848 18.4939 34.3391C18.3744 34.3034 18.282 34.2062 18.2146 34.119C18.1157 33.9908 17.8389 33.454 17.7475 33.0619C17.7411 33.0355 17.7393 33.0045 17.7452 32.9805C17.8207 32.6837 17.7399 32.4022 17.6422 32.1224C17.5216 31.7852 17.5351 31.4346 17.5064 31.0886C17.49 30.8738 17.6627 30.7386 17.792 30.6016C18.063 30.3125 18.3305 30.011 18.6402 29.764C18.8416 29.6024 19.0347 29.4175 19.2812 29.3051C19.4679 29.2202 19.5779 29.0347 19.7219 28.8942C19.8905 28.7285 20.0825 28.5839 20.2417 28.4154C20.4729 28.1695 20.8189 28.0442 21.0495 27.7961C21.2514 27.5795 23.2803 25.8937 23.5583 25.6589C24.019 25.2714 24.4504 24.8845 24.9099 24.5064C24.8443 24.4508 24.7805 24.3952 24.7138 24.3378C24.1764 23.873 23.5753 23.3316 23.0163 22.8692C22.4625 22.4103 21.9182 21.9139 21.365 21.4339C20.494 20.677 19.664 20.1754 18.769 19.4367C18.3065 19.055 17.3003 18.3678 17.1979 17.7573C17.1271 17.3318 17.7171 16.8963 17.9138 16.6053C17.9062 16.6171 18.7994 15.221 19.0804 15.3369C19.1635 15.3714 19.2741 15.2503 19.4726 15.3246C19.8004 15.4469 20.0222 15.7355 20.2663 15.965C21.0524 16.7072 21.8737 17.4108 22.6879 18.1173C24.3778 19.5842 25.991 20.8725 27.6405 22.3031C27.7371 22.2306 27.8337 22.158 27.9297 22.0848C28.268 21.8272 28.6239 21.589 28.9663 21.335C29.4007 21.0154 29.8438 20.7081 30.2863 20.3955C30.4959 20.2468 30.716 20.1098 30.9202 19.9541C31.3118 19.6533 31.7263 19.3846 32.1343 19.1083C32.6833 18.7384 33.2371 18.3754 33.7908 18.0096C34.1133 17.7948 34.444 17.5864 34.7859 17.3944C34.9334 17.3124 35.0546 17.1784 35.2249 17.1245C35.294 17.1023 35.3531 17.059 35.4362 17.0063C35.9057 16.7084 36.3862 16.4274 36.8738 16.1576C37.4656 15.8292 38.0521 15.4891 38.6632 15.1929C38.8248 15.1139 38.9946 14.9939 39.2199 14.9886C39.0982 15.1426 38.9507 15.2309 38.8143 15.3515C38.9466 15.4188 39.1883 15.2122 39.2152 15.2626C39.2527 15.3322 39.1526 15.4522 39.183 15.437C39.2714 15.3937 39.3499 15.3205 39.4693 15.3129C39.3908 15.444 39.272 15.5061 39.1678 15.5944C39.3282 15.564 39.4494 15.4253 39.6525 15.4095C39.4511 15.5827 39.2299 15.6495 39.0408 15.7712C38.8997 15.8649 38.7417 15.9363 38.5907 16.0171C38.5848 16.0188 38.5754 16.0241 38.5754 16.0241C38.5468 16.1862 38.3823 16.2208 38.288 16.3291C38.4443 16.3214 38.5719 16.2535 38.6966 16.1728C38.7464 16.2114 38.672 16.2377 38.6913 16.2846C39.2029 16.0943 39.6314 15.7244 40.1658 15.5745C39.9715 15.6992 39.7766 15.8292 39.5793 15.9492C39.4242 16.0428 39.2837 16.1581 39.121 16.2454C38.9852 16.3168 38.8359 16.3636 38.7101 16.4561C38.6668 16.4883 38.5743 16.5193 38.6158 16.5872C38.6597 16.6656 38.7411 16.6457 38.819 16.6001C39.0531 16.466 39.289 16.3419 39.5249 16.2149C39.5419 16.2055 39.567 16.2137 39.5887 16.2137C39.5243 16.418 39.32 16.4918 39.1977 16.6656C39.3411 16.644 39.4236 16.5421 39.543 16.5058C39.7514 16.445 39.9469 16.3566 40.1758 16.3525C40.3256 16.349 40.472 16.2454 40.6359 16.2096C40.5106 16.2963 40.3801 16.3806 40.2577 16.4754C40.2191 16.5058 40.1214 16.5035 40.1612 16.6065C40.2074 16.7253 40.2812 16.6574 40.3444 16.6334C40.4152 16.6053 40.4854 16.5673 40.5551 16.5333C40.5779 16.5211 40.5972 16.5193 40.6078 16.5474C40.616 16.5708 40.616 16.5931 40.5855 16.6001C40.4386 16.6276 40.3297 16.7306 40.2144 16.8137C40.0985 16.8986 39.9891 16.994 39.8755 17.0877C39.896 17.1644 39.9832 17.0227 39.9978 17.1181C40.0096 17.1948 39.9329 17.1977 39.8989 17.2129C39.3346 17.4629 38.8769 17.882 38.363 18.2092C38.1429 18.3485 37.5388 18.7149 37.4627 18.7606C37.2391 18.8952 37.019 19.0381 36.8007 19.1821C36.7726 19.1996 36.7035 19.2025 36.741 19.2751C36.7755 19.3424 36.8112 19.3196 36.8621 19.295C37.1847 19.1405 37.5019 18.9678 37.7747 18.7378C37.9462 18.5938 38.1534 18.5429 38.3296 18.4193C38.5497 18.266 39.3493 17.7702 39.6794 17.5741C39.8556 17.4687 39.848 17.4564 40.0183 17.5267C39.9738 17.5969 39.8843 17.6063 39.8334 17.6642C39.6718 17.8352 39.4939 17.9833 39.3142 18.1278C39.1432 18.2666 38.9635 18.3936 38.7821 18.5148C38.706 18.5645 38.6387 18.6154 38.5959 18.7027C39.1532 18.4369 39.6431 18.0494 40.1922 17.7667C40.0166 17.9634 39.7701 18.057 39.5606 18.2045C39.2334 18.4369 38.8535 18.5868 38.5661 18.8777C38.4923 18.952 38.3782 18.9286 38.2945 19.0018C37.9714 19.2722 37.5692 19.4226 37.2432 19.686C37.1232 19.7844 36.9874 19.8616 36.8721 19.9658C36.8264 20.0056 36.7837 20.0513 36.7205 20.0648C36.4079 20.1332 36.2317 20.4171 35.9642 20.5588C35.795 20.6489 35.6493 20.7894 35.4807 20.8679C35.2788 20.965 35.1002 21.0985 34.9234 21.2208C34.6355 21.421 34.3598 21.644 34.0712 21.8483C33.9166 21.956 33.7229 22.0075 33.6035 22.1703L33.6052 22.1667C33.3635 22.2657 33.1803 22.453 32.9666 22.5941C32.6125 22.8311 32.2706 23.0822 31.9393 23.3509C31.872 23.4077 31.8111 23.4709 31.7409 23.5265L31.7468 23.5195C31.5114 23.533 31.4412 23.7706 31.2328 23.8567C31.3247 23.9064 30.9858 24.0557 30.9618 24.0732C30.7956 24.188 30.6018 24.1622 30.4701 24.3115C30.4122 24.3759 30.2922 24.4461 30.185 24.5099C32.1776 26.2045 34.1923 27.8599 36.1035 29.5913C37.122 30.5144 38.2061 31.3784 39.2937 32.2353C39.9545 32.7575 41.717 34.3976 41.9242 34.5486C41.8446 34.6195 40.8179 33.8322 40.6839 33.7227Z" fill="#000203"/>
</svg>
