<svg width="62" height="58" xmlns="http://www.w3.org/2000/svg"><g fill-rule="nonzero" fill="none"><path d="M60.9 34.5C60.9 47.5 49 58 30.6 58S.3 47.5.3 34.5 12.2 2 30.6 2s30.3 19.5 30.3 32.5Z" fill="#F7910B"/><path d="M60.9 34.5C60.9 47.5 49 54 30.6 54S.3 47.5.3 34.5 12.2 0 30.6 0s30.3 21.5 30.3 34.5Z" fill="#F7910B"/><path d="M30.6 0C49 0 60.9 21.5 60.9 34.5S49 54 30.6 54" fill="#F9A908"/><path d="M60.9 34.5C60.9 47.5 49 54 30.6 54S.3 47.5.3 34.5 12.2 2 30.6 2s30.3 19.5 30.3 32.5Z" fill="#F9A908"/><path d="M.3 34.5C.3 21.5 12.2 2 30.6 2" fill="#F9C55D"/><path d="M30.6 2C49 2 60.9 21.5 60.9 34.5S49 58 30.6 58" fill="#F7910B"/><path d="M30.6 2C49 2 60.9 21.5 60.9 34.5" fill="#EA7103"/><path d="M23.4 15.1c-.6.7-1.4-.6-2.8-1.8-1.4-1.2-2.8-1.8-2.2-2.4.6-.7 2.1-.3 3.5.9 1.4 1.1 2.1 2.6 1.5 3.3Z" fill="#19BCA4"/><path d="M23.4 15.1c-.6.7-1.4-.6-2.8-1.8-1.4-1.2-2.8-1.8-2.2-2.4" fill="#109DA0"/><path d="M36.7 13.9c.2.8 1.5.1 3.3-.4 1.8-.4 3.3-.4 3.1-1.2-.2-.8-1.8-1.2-3.6-.7-1.8.4-3 1.4-2.8 2.3Z" fill="#19BCA4"/><path d="M36.7 13.9c.2.8 1.5.1 3.3-.4 1.8-.4 3.3-.4 3.1-1.2" fill="#109DA0"/><circle fill="#F7910B" cx="8.9" cy="31.5" r="1"/><circle fill="#F7910B" cx="4.4" cy="33.5" r="1.1"/><circle fill="#F7910B" cx="7.4" cy="29.5" r="1"/><circle fill="#F7910B" cx="12" cy="31.3" r="1"/><circle fill="#F9A908" cx="51.2" cy="31.8" r="1"/><circle fill="#F9A908" cx="53.7" cy="33.2" r="1"/><circle fill="#F9A908" cx="48.4" cy="24.4" r="1"/><circle fill="#F9A908" cx="47.9" cy="36" r="1.3"/><circle fill="#F9A908" cx="55.1" cy="36.1" r="1"/><circle fill="#F7910B" cx="7.9" cy="35.5" r="1"/><circle fill="#F7910B" cx="8.7" cy="27.1" r="1"/><circle fill="#F9A908" cx="3.4" cy="13.3" r="1.1"/><circle fill="#F9A908" cx="6.6" cy="9.8" r="1"/><circle fill="#F9A908" cx="57.8" cy="15.7" r="1"/><path d="M22.5 25c-.4-.1-.8-.3-1.1-.7-1.1-1.6-3.4-2-5-.9-.8.5-1.8.3-2.3-.4-.5-.7-.3-1.8.4-2.3 3.1-2.2 7.4-1.4 9.6 1.8.5.7.3 1.8-.4 2.3-.4.2-.8.2-1.2.2Z" fill="#1E4784"/><path d="M24.1 22.4c.5.7.3 1.8-.4 2.3-.4.3-.8.3-1.2.3-.4-.1-.8-.3-1.1-.7-1.1-1.6-3.4-2-5-.9-.8.5-1.8.3-2.3-.4-.5-.7-.3-1.8.4-2.3" fill="#02243E"/><g transform="translate(36 18)"><circle fill="#D87703" cx="4.4" cy="4.7" r="3.5"/><circle fill="#1E4784" cx="4.4" cy="3.7" r="3.5"/><path d="M4.4.2c1.9 0 3.5 1.6 3.5 3.5S6.3 7.2 4.4 7.2" fill="#00233F"/></g><circle fill="#F9A908" cx="57" cy="12.8" r="1"/><circle fill="#F9A908" cx="59.6" cy="13.3" r="1"/><circle fill="#F9A908" cx="4.6" cy="16.3" r="1"/><path d="M26.4 27.8c0 1.2-3.5.7-7.8.7s-7.8.6-7.8-.7c0-1.2 3.5-2.2 7.8-2.2 4.4 0 7.8 1 7.8 2.2Z" fill="#F9C55D"/><path d="M50.4 27.8c0 1.2-3.5.7-7.8.7s-7.8.6-7.8-.7c0-1.2 3.5-2.2 7.8-2.2s7.8 1 7.8 2.2Z" fill="#F9A908"/><path d="M38 43.1c0 2.6-3.3 7.3-7.4 7.3-4.1 0-7.4-4.7-7.4-7.3" fill="#F7910B"/><path d="M31.7 45.4c-.4 0-.8-.2-1-.6-.3-.6 0-1.2.5-1.5 2.4-1.1 3.3-2.1 3.3-2.6 0-.6-1.1-1.3-1.6-1.6-.3-.2-.6-.5-.6-.9s.1-.8.4-1c.9-.7 1.2-1.3 1.1-1.5-.1-.6-1.6-1.3-2.7-1.6-.6-.1-1-.7-.8-1.3.1-.6.7-1 1.3-.8.6.1 3.8 1 4.3 3.2.2.9-.1 1.8-.8 2.7.8.6 1.6 1.5 1.6 2.7 0 1.7-1.5 3.2-4.5 4.6-.2.2-.4.2-.5.2Z" fill="#02243E"/><path d="M50.1 25c1.8.5 3 1.9 3.2 3.5 0 .2.2.3.3.3.2.1.4.1.4-.1 1-1.3 2.8-1.9 4.5-1.4 2.2.6 3.6 2.7 3.1 4.7-.2.7-.6 1.3-1.2 1.8l-10 6.8-5.1-11c-.3-.7-.3-1.5-.1-2.2.4-1.9 2.6-3 4.9-2.4Z" fill="#D81665"/><path d="M53.6 28.8c.2.1.4.1.4-.1 1-1.3 2.8-1.9 4.5-1.4 2.2.6 3.6 2.7 3.1 4.7-.2.7-.6 1.3-1.2 1.8l-10 6.8" fill="#B20B5F"/><path d="M41.1 36.1c1 .3 1.7 1 1.7 1.9 0 .1.1.2.2.2h.2c.5-.7 1.5-1 2.5-.8 1.2.3 2 1.5 1.7 2.6-.1.4-.3.7-.7 1l-5.5 3.7-2.8-6c-.2-.4-.2-.8-.1-1.2.3-1.2 1.6-1.8 2.8-1.4Z" fill="#D81665"/><path d="M43 38.2h.2c.5-.7 1.5-1 2.5-.8 1.2.3 2 1.5 1.7 2.6-.1.4-.3.7-.7 1l-5.5 3.7" fill="#B20B5F"/><path d="M52.7 16.7c1-.1 1.9.4 2.3 1.3 0 .1.1.1.2.1s.2 0 .2-.1c.3-.8 1.1-1.5 2.1-1.5 1.3-.1 2.3.8 2.4 1.9 0 .4-.1.8-.3 1.2l-4 5.3L51 20c-.3-.3-.4-.7-.5-1.1-.1-1.1.9-2.1 2.2-2.2Z" fill="#D81665"/><path d="M55.1 18.1c.1 0 .2 0 .2-.1.3-.8 1.1-1.5 2.1-1.5 1.3-.1 2.3.8 2.4 1.9 0 .4-.1.8-.3 1.2l-4 5.3" fill="#B20B5F"/></g></svg>