<svg width="62" height="58" xmlns="http://www.w3.org/2000/svg"><g fill-rule="nonzero" fill="none"><path d="M61.3 34.5C61.3 47.5 49.4 58 31 58S.7 47.5.7 34.5 12.6 2 31 2s30.3 19.5 30.3 32.5Z" fill="#F7910B"/><path d="M61.3 34.5C61.3 47.5 49.4 54 31 54S.7 47.5.7 34.5 12.6 0 31 0s30.3 21.5 30.3 34.5Z" fill="#F7910B"/><path d="M31 0c18.4 0 30.3 21.5 30.3 34.5S49.4 54 31 54" fill="#F9A908"/><path d="M61.3 34.5C61.3 47.5 49.4 54 31 54S.7 47.5.7 34.5 12.6 2 31 2s30.3 19.5 30.3 32.5Z" fill="#F9A908"/><path d="M.7 34.5C.7 21.5 12.6 2 31 2" fill="#F9C55D"/><path d="M31 2c18.4 0 30.3 19.5 30.3 32.5S49.4 58 31 58" fill="#F7910B"/><path d="M31 2c18.4 0 30.3 19.5 30.3 32.5" fill="#EA7103"/><g transform="translate(17 18)"><circle fill="#EA7103" cx="3.6" cy="4.7" r="3.2"/><circle fill="#EA7103" cx="24.4" cy="4.7" r="3.2"/><circle fill="#1E4784" cx="3.6" cy="3.8" r="3.2"/><path d="M3.6.6C5.4.6 6.8 2 6.8 3.8 6.8 5.6 5.4 7 3.6 7" fill="#00233F"/><circle fill="#1E4784" cx="24.4" cy="3.8" r="3.2"/><path d="M24.4.6c1.8 0 3.2 1.4 3.2 3.2 0 1.8-1.4 3.2-3.2 3.2" fill="#00233F"/></g><path d="M20.5 14c-.2-.5.8-.6 2-1.1 1.1-.5 2-1.2 2.2-.7.2.5-.6 1.2-1.7 1.7-1.2.5-2.3.5-2.5.1Z" fill="#19BCA4"/><path d="M20.5 14c-.2-.5.8-.6 2-1.1 1.1-.5 2-1.2 2.2-.7" fill="#109DA0"/><path d="M41.5 14.3c.2-.5-.8-.6-2-1.1-1.1-.5-2-1.2-2.2-.7-.2.5.6 1.2 1.7 1.7 1.2.5 2.3.5 2.5.1Z" fill="#19BCA4"/><path d="M41.5 14.3c.2-.5-.8-.6-2-1.1-1.1-.5-2-1.2-2.2-.7" fill="#109DA0"/><path d="M26.8 27.8c0 1.2-3.5.7-7.8.7s-7.8.6-7.8-.7c0-1.2 3.5-2.2 7.8-2.2s7.8 1 7.8 2.2Z" fill="#F9C55D"/><path d="M50.8 27.8c0 1.2-3.5.7-7.8.7s-7.8.6-7.8-.7c0-1.2 3.5-2.2 7.8-2.2s7.8 1 7.8 2.2Z" fill="#F9A908"/><circle fill="#F7910B" cx="9.3" cy="31.5" r="1"/><circle fill="#F7910B" cx="4.8" cy="33.5" r="1.1"/><circle fill="#F7910B" cx="7.8" cy="29.5" r="1"/><circle fill="#F7910B" cx="12.4" cy="31.3" r="1"/><circle fill="#F9A908" cx="51.6" cy="31.8" r="1"/><circle fill="#F9A908" cx="54.1" cy="33.2" r="1"/><circle fill="#F9A908" cx="48.8" cy="24.4" r="1"/><circle fill="#F9A908" cx="48.3" cy="36" r="1.3"/><circle fill="#F9A908" cx="55.5" cy="36.1" r="1"/><circle fill="#F7910B" cx="8.3" cy="35.5" r="1"/><circle fill="#F7910B" cx="9.1" cy="27.1" r="1"/><circle fill="#F9A908" cx="3.8" cy="13.3" r="1.1"/><circle fill="#F9A908" cx="7" cy="9.8" r="1"/><circle fill="#F9A908" cx="58.2" cy="15.7" r="1"/><circle fill="#F9A908" cx="57.4" cy="12.8" r="1"/><circle fill="#F9A908" cx="60" cy="13.3" r="1"/><circle fill="#F9A908" cx="5" cy="16.3" r="1"/><path d="M38.4 42.7c0 2.6-3.3 4.7-7.4 4.7-4.1 0-7.4-2.1-7.4-4.7" fill="#F7910B"/><path d="M23.8 32.3c0-1.5 3.2-2.7 7.2-2.7s7.2 1.2 7.2 2.7" fill="#ED7E11"/><g fill="#02243E"><path d="M43.4 37c-.3 0-.6-.1-.8-.3-1.9-1.9-4.8-3.9-7.5-3.9-1.3 0-2.4.5-3.3 1.4-.4.4-1.1.4-1.6 0-.4-.4-.4-1.1 0-1.6 1.4-1.4 3-2.1 4.9-2.1 4.3 0 8 3.5 9.1 4.6.4.4.4 1.1 0 1.6-.2.2-.5.3-.8.3Z"/><path d="M18.6 37c-.3 0-.6-.1-.8-.3-.4-.4-.4-1.1 0-1.6 1.1-1.1 4.8-4.6 9.1-4.6 1.9 0 3.5.7 4.9 2.1.4.4.4 1.1 0 1.6-.4.4-1.1.4-1.6 0-.9-1-2-1.4-3.3-1.4-2.7 0-5.7 2-7.5 3.9-.2.2-.5.3-.8.3ZM43.1 39.3c-.6 0-1.1-.5-1.1-1.1 0-2.1 1.7-3.8 3.7-3.8.6 0 1.1.5 1.1 1.1 0 .6-.5 1.1-1.1 1.1-.8 0-1.5.7-1.5 1.6 0 .6-.5 1.1-1.1 1.1Z"/><path d="M18.9 39.3c-.6 0-1.1-.5-1.1-1.1 0-.9-.7-1.6-1.5-1.6-.6 0-1.1-.5-1.1-1.1 0-.6.5-1.1 1.1-1.1 2 0 3.7 1.7 3.7 3.8 0 .6-.5 1.1-1.1 1.1Z"/></g><path d="M33.6 33.9c.2-.7 2.1-.6 4.1.2 2 .8 3.4 1.9 3.2 2.6-.2.7-1.9 0-3.9-.7-2-.8-3.7-1.4-3.4-2.1Z" fill="#F9A908"/><path d="M28.2 33.9c-.2-.7-2.1-.6-4.1.2-2 .8-3.4 1.9-3.2 2.6.2.7 1.9 0 3.9-.7 2-.8 3.6-1.4 3.4-2.1Z" fill="#F9C55D"/></g></svg>