<svg width="64" height="62" xmlns="http://www.w3.org/2000/svg"><g fill-rule="nonzero" fill="none"><g transform="translate(2 3)"><path d="M61.4 35.4c0 13-11.9 23.5-30.3 23.5S.7 48.4.7 35.4 12.6 2.9 31.1 2.9s30.3 19.5 30.3 32.5Z" fill="#F7910B"/><path d="M61.4 35.4c0 13-11.9 19.5-30.3 19.5S.7 48.4.7 35.4 12.6.9 31.1.9s30.3 21.5 30.3 34.5Z" fill="#F7910B"/><path d="M31.1.9c18.4 0 30.3 21.5 30.3 34.5S49.5 54.9 31.1 54.9" fill="#F9A908"/><path d="M61.4 35.4c0 13-11.9 19.5-30.3 19.5S.7 48.4.7 35.4 12.6 2.9 31.1 2.9s30.3 19.5 30.3 32.5Z" fill="#F9A908"/><path d="M.7 35.4C.7 22.4 12.6 2.9 31 2.9" fill="#F9C55D"/><path d="M31.1 2.9c18.4 0 30.3 19.5 30.3 32.5S49.5 58.9 31.1 58.9" fill="#F7910B"/><path d="M31.1 2.9c18.4 0 30.3 19.5 30.3 32.5" fill="#EA7103"/><path d="M48.8 45.1c0 2.6-5.3 4.7-11.9 4.7-6.6 0-11.9-2.1-11.9-4.7" fill="#ED7E11"/><path d="M37.1 46.4c-4.9 0-9.8-.7-12-2.1-.5-.3-.7-1-.4-1.5.3-.5 1-.7 1.5-.4 3.8 2.3 18 2.3 21.8 0 .5-.3 1.2-.2 1.5.4.3.6.2 1.2-.4 1.5-2.2 1.4-7.1 2.1-12 2.1Z" fill="#02243E"/><circle fill="#F7910B" cx="9.4" cy="32.4" r="1"/><circle fill="#F7910B" cx="4.9" cy="34.4" r="1.1"/><circle fill="#F7910B" cx="7.9" cy="30.4" r="1"/><circle fill="#F7910B" cx="12.5" cy="32.2" r="1"/><circle fill="#F9A908" cx="57.6" cy="35.3" r="1"/><circle fill="#F9A908" cx="54.1" cy="34.1" r="1"/><circle fill="#F9A908" cx="58.3" cy="41.1" r="1"/><circle fill="#F9A908" cx="54.5" cy="44.9" r="1.3"/><circle fill="#F9A908" cx="55.5" cy="37" r="1"/><circle fill="#F7910B" cx="8.4" cy="36.4" r="1"/><circle fill="#F7910B" cx="9.1" cy="28" r="1"/><circle fill="#F9A908" cx="3.9" cy="14.2" r="1.1"/><circle fill="#F9A908" cx="7.1" cy="10.7" r="1"/><circle fill="#F9A908" cx="58.3" cy="16.6" r="1"/><circle fill="#F9A908" cx="57.5" cy="13.7" r="1"/><circle fill="#F9A908" cx="60" cy="14.2" r="1"/><circle fill="#F9A908" cx="5.1" cy="17.2" r="1"/><g transform="translate(23 29)"><circle fill="#D87703" cx="4" cy="5.3" r="3.5"/><circle fill="#D87703" cx="26.8" cy="5.3" r="3.5"/><circle fill="#1E4784" cx="4" cy="4.3" r="3.5"/><path d="M4 .8c1.9 0 3.5 1.6 3.5 3.5S5.9 7.8 4 7.8" fill="#00233F"/><circle fill="#1E4784" cx="26.8" cy="4.3" r="3.5"/><path d="M26.8.8c1.9 0 3.5 1.6 3.5 3.5s-1.6 3.5-3.5 3.5" fill="#00233F"/></g><path d="M28.8 12.5c-1.8.1-3.2.8-3.2 1.7l6.5-.3c0-.9-1.5-1.5-3.3-1.4ZM48.1 12.5c-1.8-.1-3.3.6-3.3 1.4l6.5.3c.1-.9-1.4-1.7-3.2-1.7Z" fill="#19BCA4"/><path d="M28.9 14.5c1.8-.1 3.3.3 3.3-.6l-6.5.3c0 .8 1.4.3 3.2.3ZM48 14.5c1.8.1 3.3.6 3.3-.3l-6.5-.3c0 .9 1.4.5 3.2.6Z" fill="#109DA0"/><path d="M26.5 36.2c-4.3 0-7.8 1-7.8 2.2 0 1.2 3.5.7 7.8.7s7.8.6 7.8-.7c0-1.2-3.5-2.2-7.8-2.2Z" fill="#F9C55D"/><path d="M50.4 36.2c-4.3 0-7.8 1-7.8 2.2 0 1.2 3.5.7 7.8.7s7.8.6 7.8-.7c0-1.2-3.4-2.2-7.8-2.2Z" fill="#F9A908"/></g><path d="M30.3 17.4c0-6-5.8-10.8-12.9-10.8-7.1 0-12.9 4.8-12.9 10.8 0 1.6.4 3.1 1.1 4.5L11 29v3.1c0 3 2.9 5.4 6.5 5.4s6.5-2.4 6.5-5.4V29l5.2-7.1c.7-1.4 1.1-2.9 1.1-4.5Z" fill="#FFF"/><path d="M17.5 37.5c3.6 0 6.5-2.4 6.5-5.4V29l5.2-7.1c.7-1.4 1.1-2.9 1.1-4.5 0-6-5.8-10.8-12.9-10.8" fill="#F9F3DC"/><path d="M12.9 35.3v4.3c0 .9.7 1.7 1.7 1.7h5.8c.9 0 1.7-.7 1.7-1.7v-4.3h-9.2Z" fill="#6D6DB2"/><path d="M20.4 41.3c.9 0 1.7-.7 1.7-1.7v-4.3H13" fill="#4C4C8C"/><path d="M21.9 36.8c0 .2-.1.3-.3.3h-8.3c-.2 0-.3-.1-.3-.3 0-.2.1-.3.3-.3h8.3c.2-.1.3.1.3.3ZM21.9 38.3c0 .2-.1.3-.3.3h-8.3c-.2 0-.3-.1-.3-.3 0-.2.1-.3.3-.3h8.3c.2 0 .3.2.3.3ZM21.9 39.9c0 .2-.1.3-.3.3h-8.3c-.2 0-.3-.1-.3-.3 0-.2.1-.3.3-.3h8.3c.2 0 .3.1.3.3Z" fill="#7777BF"/><g transform="translate(11 18)" fill="#F9C55D"><circle cx="1.7" cy="2.1" r="1.2"/><circle cx="6.5" cy="2.1" r="1.2"/><circle cx="11.3" cy="2.1" r="1.2"/></g><path d="M18.5 3c0 .6-.5 1-1 1-.6 0-1-.5-1-1V1.1c0-.6.5-1 1-1 .6 0 1 .5 1 1V3Z" fill="#FFF"/><g fill="#FFF"><path d="M7.7 5.8c.4.4.4 1.1 0 1.5-.4.4-1.1.4-1.5 0L4.9 5.9c-.4-.4-.4-1.1 0-1.5.4-.4 1.1-.4 1.5 0l1.3 1.4ZM3.8 10.2c.5.2.8.8.6 1.3-.2.5-.8.8-1.3.6l-1.8-.6c-.5-.2-.8-.8-.6-1.3.2-.5.8-.8 1.3-.6l1.8.6ZM13.1 3.3c.2.5 0 1.1-.6 1.3-.5.2-1.1 0-1.3-.6l-.7-1.8c-.2-.5 0-1.1.6-1.3.5-.2 1.1 0 1.3.6l.7 1.8ZM27.3 5.8c-.4.4-.4 1.1 0 1.5.4.4 1.1.4 1.5 0l1.4-1.4c.4-.4.4-1.1 0-1.5-.4-.4-1.1-.4-1.5 0l-1.4 1.4ZM31.2 10.2c-.5.2-.8.8-.6 1.3.2.5.8.8 1.3.6l1.8-.6c.5-.2.8-.8.6-1.3-.2-.5-.8-.8-1.3-.6l-1.8.6ZM21.8 3.3c-.2.5 0 1.1.6 1.3.5.2 1.1 0 1.3-.6l.7-1.8c.2-.5 0-1.1-.6-1.3-.5-.2-1.1 0-1.3.6l-.7 1.8Z"/></g></g></svg>