<svg width="40" height="40" viewBox="0 0 40 40" fill="none" xmlns="http://www.w3.org/2000/svg">
<g id="alert-triangle">
<path id="Vector" opacity="0.5" d="M17.15 6.4327L3.03337 29.9994C2.74231 30.5034 2.58831 31.0749 2.58668 31.6569C2.58505 32.2389 2.73585 32.8113 3.02408 33.3169C3.31231 33.8226 3.72791 34.244 4.22955 34.5391C4.73119 34.8343 5.30137 34.993 5.88337 34.9994H34.1167C34.6987 34.993 35.2689 34.8343 35.7705 34.5391C36.2722 34.244 36.6878 33.8226 36.976 33.3169C37.2642 32.8113 37.415 32.2389 37.4134 31.6569C37.4118 31.0749 37.2578 30.5034 36.9667 29.9994L22.85 6.4327C22.5529 5.94288 22.1346 5.5379 21.6354 5.25684C21.1362 4.97578 20.5729 4.82812 20 4.82812C19.4271 4.82813 18.8639 4.97578 18.3647 5.25684C17.8655 5.5379 17.4472 5.94288 17.15 6.4327Z" fill="#BD7E00"/>
<path id="Vector_2" d="M17.15 6.4327L3.03337 29.9994C2.74231 30.5034 2.58831 31.0749 2.58668 31.6569C2.58505 32.2389 2.73585 32.8112 3.02408 33.3169C3.31231 33.8226 3.72791 34.2439 4.22955 34.5391C4.73118 34.8343 5.30137 34.993 5.88337 34.9994H34.1167C34.6987 34.993 35.2689 34.8343 35.7705 34.5391C36.2722 34.2439 36.6878 33.8226 36.976 33.3169C37.2642 32.8112 37.415 32.2389 37.4134 31.6569C37.4118 31.0749 37.2578 30.5034 36.9667 29.9994L22.85 6.4327C22.5529 5.94288 22.1346 5.5379 21.6354 5.25684C21.1361 4.97578 20.5729 4.82812 20 4.82812C19.4271 4.82813 18.8639 4.97578 18.3647 5.25684C17.8655 5.5379 17.4472 5.94288 17.15 6.4327V6.4327Z" stroke="#BD7E00" stroke-width="2" stroke-linecap="round" stroke-linejoin="round"/>
<path id="Vector_3" d="M20 15V21.6667" stroke="#BD7E00" stroke-width="4" stroke-linecap="round" stroke-linejoin="round"/>
<path id="Vector_4" d="M20 28.334H20.015" stroke="#BD7E00" stroke-width="4" stroke-linecap="round" stroke-linejoin="round"/>
</g>
</svg>
