<svg width="62" height="62" xmlns="http://www.w3.org/2000/svg"><g fill-rule="nonzero" fill="none"><ellipse fill="#EA7103" transform="rotate(-71.886 25.53 52.316)" cx="25.53" cy="52.316" rx="9.7" ry="6.8"/><ellipse fill="#EA7103" transform="rotate(-108.114 36.648 52.236)" cx="36.648" cy="52.236" rx="9.7" ry="6.8"/><path d="M61.3 34.5C61.3 47.5 49.4 58 31 58S.7 47.5.7 34.5 12.6 2 31 2s30.3 19.5 30.3 32.5Z" fill="#F7910B"/><path d="M61.3 34.5C61.3 47.5 49.4 54 31 54S.7 47.5.7 34.5 12.6 0 31 0s30.3 21.5 30.3 34.5Z" fill="#F7910B"/><path d="M31 0c18.4 0 30.3 21.5 30.3 34.5S49.4 54 31 54" fill="#F9A908"/><path d="M61.3 34.5C61.3 47.5 49.4 54 31 54S.7 47.5.7 34.5 12.6 2 31 2s30.3 19.5 30.3 32.5Z" fill="#F9A908"/><path d="M.7 34.5C.7 21.5 12.6 2 31 2" fill="#F9C55D"/><path d="M31 2c18.4 0 30.3 19.5 30.3 32.5S49.4 58 31 58" fill="#F7910B"/><path d="M31 2c18.4 0 30.3 19.5 30.3 32.5" fill="#EA7103"/><g transform="translate(17 26)"><circle fill="#EA7103" cx="3.6" cy="4.6" r="3.2"/><circle fill="#EA7103" cx="24.4" cy="4.6" r="3.2"/><circle fill="#1E4784" cx="3.6" cy="3.6" r="3.2"/><path d="M3.6.5c1.8 0 3.2 1.4 3.2 3.2 0 1.8-1.4 3.2-3.2 3.2" fill="#00233F"/><circle fill="#1E4784" cx="24.4" cy="3.6" r="3.2"/><path d="M24.4.5c1.8 0 3.2 1.4 3.2 3.2 0 1.8-1.4 3.2-3.2 3.2" fill="#00233F"/></g><path d="M27.6 27.6c-.8 1-2.1-.9-4.3-2.6-2.1-1.7-4.3-2.6-3.5-3.6.8-1 3.2-.5 5.4 1.2s3.2 4 2.4 5Z" fill="#19BCA4"/><path d="M27.6 27.6c-.8 1-2.1-.9-4.3-2.6-2.1-1.7-4.3-2.6-3.5-3.6" fill="#109DA0"/><path d="M35.1 26.8c.8 1.1 2.2-.8 4.4-2.4 2.2-1.6 4.4-2.4 3.6-3.4-.8-1.1-3.2-.6-5.4 1s-3.4 3.8-2.6 4.8Z" fill="#19BCA4"/><path d="M35.1 26.8c.8 1.1 2.2-.8 4.4-2.4 2.2-1.6 4.4-2.4 3.6-3.4" fill="#109DA0"/><path d="M26.8 35.7c0 1.2-3.5.7-7.8.7s-7.8.6-7.8-.7c0-1.3 3.5-2.2 7.8-2.2s7.8 1 7.8 2.2Z" fill="#F9C55D"/><path d="M50.8 35.7c0 1.2-3.5.7-7.8.7s-7.8.6-7.8-.7c0-1.3 3.5-2.2 7.8-2.2s7.8 1 7.8 2.2Z" fill="#F9A908"/><path d="M39 43.2c0 4.8-3.6 8.8-8 8.8s-8-3.9-8-8.8" fill="#F7910B"/><circle fill="#F7910B" cx="9.3" cy="31.4" r="1"/><circle fill="#F7910B" cx="4.8" cy="33.4" r="1.1"/><circle fill="#F7910B" cx="7.8" cy="29.4" r="1"/><circle fill="#F7910B" cx="12.4" cy="31.2" r="1"/><circle fill="#F9A908" cx="51.6" cy="31.8" r="1"/><circle fill="#F9A908" cx="54.1" cy="33.2" r="1"/><circle fill="#F9A908" cx="48.8" cy="24.4" r="1"/><circle fill="#F9A908" cx="48.3" cy="36" r="1.3"/><circle fill="#F9A908" cx="55.5" cy="36.1" r="1"/><circle fill="#F7910B" cx="8.3" cy="35.5" r="1"/><circle fill="#F7910B" cx="9.1" cy="27.1" r="1"/><circle fill="#F9A908" cx="3.8" cy="13.3" r="1.1"/><circle fill="#F9A908" cx="7" cy="9.7" r="1"/><circle fill="#F9A908" cx="58.2" cy="15.7" r="1"/><circle fill="#F9A908" cx="57.4" cy="12.7" r="1"/><circle fill="#F9A908" cx="60" cy="13.3" r="1"/><circle fill="#F9A908" cx="5" cy="16.2" r="1"/><path d="M50 50.3c0-3.5-2.8-6.3-6.3-6.3h-2.3c-3.5 0-6.3 2.8-6.3 6.3v5.3c0 3.5 2.8 6.3 6.3 6.3h2.3c3.5 0 6.3-2.8 6.3-6.3v-5.3Z" fill="#00233F"/><path d="M48 48.3c0-3.5-2.8-6.3-6.3-6.3h-2.3c-3.5 0-6.3 2.8-6.3 6.3v5.3c0 3.5 2.8 6.3 6.3 6.3h2.3c3.5 0 6.3-2.8 6.3-6.3v-5.3Z" fill="#BFD4E0"/><path d="M32.4 55.5c.5 2.3 3.4 3.6 6.5 3l1.8-.4c3.1-.7 5.1-3.1 4.6-5.4l-.7-3.2c-.5-2.3-3.4-3.6-6.5-3l-1.8.4c-3.1.7-5.1 3.1-4.6 5.4l.7 3.2Z" fill="#720A2D"/><path d="M50 42.5c0-4.7-3.8-8.5-8.5-8.5h-2.9c-4.7 0-8.5 3.8-8.5 8.5v6.9c0 4.7 3.8 8.5 8.5 8.5h2.9c4.7 0 8.5-3.8 8.5-8.5v-6.9Z" fill="#890E37"/><path d="M48 42.5c0-.3-.2-.5-.5-.5s-.5.2-.5.5v7c0 .3.2.5.5.5s.5-.2.5-.5v-7Z" fill="#DD436F"/><path d="M28 55.4c0 3.6-3.3 6.6-7 6.6h-2.2c-3.6 0-6.8-2.9-6.8-6.6v-5.1c0-3.6 3.2-6.4 6.8-6.4H21c3.6 0 7 2.7 7 6.4v5.1Z" fill="#00233F"/><path d="M29 53c0 3.6-2.6 7-6.2 7h-2.2C17 60 14 56.6 14 53v-5.1c0-3.6 2.9-6.9 6.6-6.9h2.2c3.6 0 6.2 3.3 6.2 6.9V53Z" fill="#BFD4E0"/><path d="M30.3 55.2c-.5 2.4-3.5 3.8-6.7 3.1l-1.9-.4c-3.2-.7-5.3-3.2-4.8-5.6l.7-3.3c.5-2.4 3.5-3.8 6.7-3.1l1.9.4c3.2.7 5.3 3.2 4.8 5.6l-.7 3.3Z" fill="#720A2D"/><path d="M33 49.1c0 4.9-4 8.9-8.9 8.9h-3.2C16 58 12 54 12 49.1v-7.2c0-4.9 4-8.9 8.9-8.9h3.2c4.9 0 8.9 4 8.9 8.9v7.2Z" fill="#AA2444"/><path d="M15 49.5c0 .3-.2.5-.5.5s-.5-.2-.5-.5v-8c0-.3.2-.5.5-.5s.5.2.5.5v8Z" fill="#DD436F"/></g></svg>