<svg width="62" height="64" xmlns="http://www.w3.org/2000/svg"><g fill-rule="nonzero" fill="none"><path d="M61.3 39.9c0 13-11.9 23.5-30.3 23.5S.7 52.9.7 39.9 12.6 7.4 31 7.4s30.3 19.5 30.3 32.5Z" fill="#F7910B"/><path d="M61.3 39.9c0 13-11.9 19.5-30.3 19.5S.7 52.9.7 39.9 12.6 5.4 31 5.4s30.3 21.5 30.3 34.5Z" fill="#F7910B"/><path d="M31 5.4c18.4 0 30.3 21.5 30.3 34.5S49.4 59.4 31 59.4" fill="#F9A908"/><path d="M61.3 39.9c0 13-11.9 19.5-30.3 19.5S.7 52.9.7 39.9 12.6 7.4 31 7.4s30.3 19.5 30.3 32.5Z" fill="#F9A908"/><path d="M.7 39.9C.7 26.9 12.6 7.4 31 7.4" fill="#F9C55D"/><path d="M31 7.4c18.4 0 30.3 19.5 30.3 32.5S49.4 63.4 31 63.4" fill="#F7910B"/><path d="M31 7.4c18.4 0 30.3 19.5 30.3 32.5" fill="#EA7103"/><path d="M24.7 23c.3.8-1.2.9-2.9 1.5s-2.9 1.5-3.2.7c-.3-.8.8-2 2.5-2.6 1.6-.6 3.3-.5 3.6.4ZM37.3 18.4c0 .9 1.4.5 3.3.6 1.8.1 3.3.6 3.3-.3 0-.9-1.4-1.6-3.2-1.7-1.9-.1-3.4.5-3.4 1.4Z" fill="#19BCA4"/><path d="M24.7 23c.3.8-1.2.9-2.9 1.5s-2.9 1.5-3.2.7M37.3 18.4c0 .9 1.4.5 3.3.6 1.8.1 3.3.6 3.3-.3" fill="#109DA0"/><circle fill="#F7910B" cx="9.3" cy="36.9" r="1"/><circle fill="#F7910B" cx="4.8" cy="38.9" r="1.1"/><circle fill="#F7910B" cx="7.8" cy="34.9" r="1"/><circle fill="#F7910B" cx="12.4" cy="36.7" r="1"/><circle fill="#F9A908" cx="51.6" cy="37.2" r="1"/><circle fill="#F9A908" cx="54.1" cy="38.6" r="1"/><circle fill="#F9A908" cx="48.8" cy="29.8" r="1"/><circle fill="#F9A908" cx="43.9" cy="28.7" r="1.3"/><circle fill="#F9A908" cx="55.5" cy="41.5" r="1"/><circle fill="#F7910B" cx="8.3" cy="40.9" r="1"/><circle fill="#F7910B" cx="9.1" cy="32.5" r="1"/><circle fill="#F9A908" cx="3.8" cy="18.7" r="1.1"/><circle fill="#F9A908" cx="7" cy="15.2" r="1"/><circle fill="#F9A908" cx="58.2" cy="21.1" r="1"/><circle fill="#F9A908" cx="57.4" cy="18.2" r="1"/><path d="M60.5 18.7c0 .3-.2.5-.5.5s-.5-.2-.5-.5.2-.5.5-.5c.2 0 .5.3.5.5Z" fill="#F9A908"/><circle fill="#F9A908" cx="5" cy="21.7" r="1"/><path d="M31 1.3c-12.1 0-21.9 1.4-21.9 3C9.1 6 18.9 9 31 9c12.1 0 21.9-3 21.9-4.7 0-1.7-9.8-3-21.9-3Zm0 4.1c-6.8 0-12.3-.8-12.3-1.7C18.7 2.8 24.2 2 31 2c6.8 0 12.3.8 12.3 1.7 0 .9-5.5 1.7-12.3 1.7Z" fill="#CE3674"/><path d="M31 .6C18.9.6 9.1 2 9.1 3.6c0 1.7 9.8 3 21.9 3 12.1 0 21.9-1.4 21.9-3S43.1.6 31 .6Zm0 4.1C24.2 4.7 18.7 4 18.7 3c0-.9 5.5-1.7 12.3-1.7 6.8 0 12.3.8 12.3 1.7 0 1-5.5 1.7-12.3 1.7Z" fill="#EA5C93"/><path d="M26.4 42.6c0 1.3-3.8.7-8.6.7-4.7 0-8.6.6-8.6-.7 0-1.3 3.8-2.4 8.6-2.4s8.6 1.1 8.6 2.4Z" fill="#F9C55D"/><path d="M52.8 42.6c0 1.3-3.8.7-8.6.7-4.7 0-8.6.6-8.6-.7 0-1.3 3.8-2.4 8.6-2.4 4.7 0 8.6 1.1 8.6 2.4Z" fill="#F9A908"/><path d="M15.7 35.4c.4 0 .8.2 1.2.5 1.4 1.4 3.7 1.4 5.1 0 .6-.6 1.7-.7 2.3 0 .6.6.7 1.7 0 2.3-2.7 2.7-7.1 2.7-9.8 0-.6-.6-.7-1.7 0-2.3.4-.3.8-.5 1.2-.5Z" fill="#1E4784"/><path d="M14.6 38.2c-.6-.6-.7-1.7 0-2.3.3-.3.7-.5 1.2-.5.4 0 .8.2 1.2.5 1.4 1.4 3.7 1.4 5.1 0 .6-.6 1.7-.7 2.3 0 .6.6.7 1.7 0 2.3" fill="#02243E"/><path d="M46.3 35.4c-.4 0-.8.2-1.2.5-1.4 1.4-3.7 1.4-5.1 0-.6-.6-1.7-.7-2.3 0-.6.6-.7 1.7 0 2.3 2.7 2.7 7.1 2.7 9.8 0 .6-.6.6-1.7 0-2.3-.4-.3-.8-.5-1.2-.5Z" fill="#1E4784"/><path d="M47.4 38.2c.6-.6.6-1.7 0-2.3-.3-.3-.7-.5-1.2-.5-.4 0-.8.2-1.2.5-1.4 1.4-3.7 1.4-5.1 0-.6-.6-1.7-.7-2.3 0-.6.6-.7 1.7 0 2.3" fill="#02243E"/><path d="M38.4 49.1c0 2.6-3.3 7.3-7.4 7.3-4.1 0-7.4-4.7-7.4-7.3" fill="#F7910B"/><g fill="#02243E"><path d="M16 47c-.6 0-1.1-.5-1.1-1.1 0-.6.5-1.1 1.1-1.1.9 0 1.6-.7 1.6-1.6 0-.6.5-1.1 1.1-1.1.6 0 1.1.5 1.1 1.1C19.7 45.3 18 47 16 47ZM46 47c-2.1 0-3.8-1.7-3.8-3.8 0-.6.5-1.1 1.1-1.1.6 0 1.1.5 1.1 1.1 0 .9.7 1.6 1.6 1.6.6 0 1.1.5 1.1 1.1 0 .6-.5 1.1-1.1 1.1Z"/></g><path d="M31 51.9c-5 0-10.1-1.9-13.9-5.8-.4-.4-.4-1.1 0-1.6.4-.4 1.1-.4 1.6 0 6.8 6.8 17.9 6.8 24.8 0 .4-.4 1.1-.4 1.6 0 .4.4.4 1.1 0 1.6-4 3.9-9.1 5.8-14.1 5.8Z" fill="#02243E"/><path d="M5.5 4.9c0-.4.3-.7.7-.7.4 0 .8.3.8.7" fill="#12AD79"/><circle fill="#12AD79" cx="14" cy="9.9" r="1.2"/><circle fill="#12AD79" cx="6.9" cy="10.5" r="3.2"/><path d="M46.8 9c.2 0 .4.2.4.4s-.2.4-.4.4" fill="#12AD79"/><circle fill="#12AD79" cx="51.5" cy="9.3" r="1"/><path d="M53.1 13c0-.5.4-1 1-1 .5 0 1 .4 1 1" fill="#12AD79"/><circle fill="#12AD79" cx="56.7" cy="7.4" r="1.8"/><circle fill="#12AD79" cx="58.7" cy="13.5" r="1"/></g></svg>