<?xml version="1.0" encoding="UTF-8"?><svg id="Ebene_2" xmlns="http://www.w3.org/2000/svg" xmlns:xlink="http://www.w3.org/1999/xlink" viewBox="0 0 841.89 595.28"><defs><style>.cls-1{fill:none;}.cls-2{clip-path:url(#clippath);}.cls-3{fill:#fff;}</style><clipPath id="clippath"><rect class="cls-1" width="841.89" height="595.28"/></clipPath></defs><g id="Ebene_1-2"><g class="cls-2"><g><path class="cls-3" d="M616.76,106.07c-.32,.57-.71,.96-1.14,1.26,.72-.13,1.43-.26,2.15-.39,1.3-.24,2.6-.45,3.9-.63-1.02-.38-2.07-.67-3.17-.83-.71-.1-1.38-.06-1.75,.6Z"/><path class="cls-3" d="M613.48,76.33c.12-.52-.58-1.06-1.11-.91-.52,.15-1.02,.41-1.54,.59-1.76,.62-3.23,.18-4.21-1.17-2.69,.1-5.38,.3-8.06,.64-15.87,1.97-30.82,8.31-45.52,14.59l-.19,.08c3.4,1.65,6.9,3.11,10.37,4.61,5.28,2.28,10.52,4.65,15.75,7.05,1.8,.83,3.49,1.89,5.23,2.82,1.4,.75,2.79,1.51,4.23,2.18,2.54,1.2,5.21,1.86,8.06,1.8,1.07-.02,2.14-.02,3.21-.02-.49-.71-.92-1.46-.71-2.39,.3-1.33-.42-2.06-1.44-2.69-.75-.47-1.45-1.02-2.15-1.55-.78-.59-1.18-1.31-.78-2.3,.36-.9,.05-1.46-.84-1.82-.72-.28-1.42-.63-2.08-1.02-.68-.41-1.15-1.03-1.41-1.79-.46-1.32,.34-2.46,1.76-2.49,1.13-.03,2.19,.29,3.23,.67,.52,.19,1.07,.37,1.5,.69,2.89,2.17,4.61,1.18,7.54-1.5,.6-.55,.84-1.3,.89-2.09,.13-2.35,1.62-4.07,2.74-5.96,.46-.77,1.15-1.4,2-1.68,1.56-.51,2.26-1.69,2.68-3.13,.3-1.06,.62-2.12,.86-3.19Z"/><path class="cls-3" d="M609.5,102.9c.89-.15,1.36-1.15,.9-2-.07-.14-.38-.27-.53-.23-.71,.22-1.24,1.05-1.11,1.76,.06,.35,.39,.47,.73,.46Z"/><path class="cls-3" d="M602.74,108.6c.49,0,.98,0,1.47,0,2.51,0,4.98-.26,7.45-.62-1.38-.08-2.77-.24-4.1-.56-1.94-.47-3.51-.28-4.81,1.18Z"/><path class="cls-3" d="M634.77,76.5c3.2,4.93,4.71,10.42,3.34,16.58-.61,2.72-1.59,5.3-2.89,7.76-.83,1.57-1.71,3.12-2.58,4.67,1.06,0,2.12,.03,3.19,.08,4.36,.24,8.69,.73,12.91,1.97,4.12,1.21,8.03,2.84,11.64,5.19,2.74,1.79,5.56,3.46,8.33,5.21,1.28,.81,2.65,1.38,4.14,1.58,1.83,.24,3.57-.07,4.97-1.4,2.95-2.81,5.75-5.76,8.2-9.02,1.2-1.6,1.93-3.47,2.49-5.37,.46-1.56,.42-3.13-.2-4.67-.74-1.84-1.49-3.68-2.17-5.54-1.08-2.97-2-5.98-2.75-9.03-13.91-3.66-28.26-5.46-42.55-7.25-2.02-.25-4.03-.5-6.06-.75Z"/><path class="cls-3" d="M499.93,139.42c.44,.42,.8,.95,1.1,1.49,.8,1.45,1.41,2.99,1.79,4.62,1.39,5.88,3.4,11.48,6.79,16.56,1.71,2.58,3.05,5.4,4.54,8.13,.05,.09,.09,.18,.14,.28,2.67,.96,5.33,1.94,8.15,2.56,2.93,.64,5.97,.88,8.98,1.24-.44-1.29-.87-2.58-1.3-3.88-1.11-3.39-2.07-6.83-3.39-10.16-3.08-7.77-6.7-15.31-11.62-22.06-4.67-6.4-10.6-11.39-18.12-14.15,.09,.45,.14,.9,.11,1.34-.17,2.29-.82,4.48-1.87,6.52-.27,.53-.74,1.01-1.22,1.37-2.47,1.85-5.37,2.59-8.36,3.07-.32,.05-.65-.14-.71-.46-.05-.27,0-.64,.16-.85,.44-.57,.98-1.07,1.45-1.62,.24-.28,.6-.54,.39-1.23-2.57,1.58-5.45,1.76-8.3,2.09-.51,.06-1.04,.07-1.53-.02-.25-.05-.56-.34-.63-.58-.07-.25,.04-.7,.23-.83,.75-.54,1.55-1.01,2.36-1.47,1.96-1.12,3.92-2.23,5.9-4.13-1.61,.04-2.81,.09-4.01,.11-.73,0-1.45-.04-2.07-.51-.25-.19-.3-.94-.06-1.14,.08-.07,.15-.15,.24-.2,3.51-1.76,7.01-3.56,10.87-4.44,.2-.04,.4-.06,.6-.1-1.15-.81-2.26-1.67-3.34-2.56-6.46,3.04-12.76,6.39-18.61,10.41,.13,.12,.23,.29,.3,.47,.18,.48,.32,.98,.41,1.49,.63,3.51,2.01,6.7,3.87,9.75,1.59,2.6,3.48,4.89,5.86,6.76,1.62,1.28,3.28,2.53,4.94,3.76,.47,.35,1.01,.9,1.64,.45,.47-.34,.26-.96,.2-1.46-.09-.71-.25-1.42-.28-2.14,0-.23,.27-.58,.5-.68,.23-.1,.68-.06,.84,.11,1.38,1.4,2.7,2.85,4.07,4.26,.41,.42,.62,1.1,1.51,1.14,.44-.95,.16-1.96,.06-2.95-.1-.92-.29-1.84-.38-2.76-.05-.51,.04-1.05,.57-1.34,.55-.29,1.02-.03,1.4,.34,.58,.58,1.11,1.21,1.65,1.8,.83-.16,.61-.77,.57-1.21-.16-1.54-.53-3.06-.45-4.63,.05-.85,.22-1.63,.8-2.29,.92-1.06,2.29-1.19,3.28-.24Z"/><path class="cls-3" d="M748.87,147.31c.64,.03,1.28-.02,1.92,.05,1.44,.14,2.6-.44,3.61-1.38,.39-.36,.74-.77,1.06-1.19,.74-.98,1.36-2.03,1.91-3.14,.56-1.15,1.08-2.32,1.83-3.37,1.58-2.21,3.17-4.41,5.01-6.42-3.54-1.48-6.76-3.55-10.03-5.52-3.18-1.92-5.85-4.42-7.96-7.49-2.82-4.09-5.46-8.29-7.52-12.81-.77-1.68-1.47-3.39-2.07-5.12-6.97-1.17-13.79-3.16-20.57-5.46,.37,2.22,.44,4.51,.18,6.86-.52,4.75-1.55,9.38-3.14,13.89-1.13,3.19-2.47,6.28-4.37,9.09-3.33,4.92-6.66,9.86-10.08,14.71-.85,1.2-1.33,2.33-1.29,3.81,.06,2.77,0,5.55-.08,8.33-.03,1.18-.17,2.37-.39,3.54-.43,2.36-1.3,4.55-2.58,6.61-1.84,2.96-3.82,5.74-6.45,8.1-3.9,3.5-8.53,5.76-13.06,8.2-4.29,2.31-8.91,3.87-13.38,5.77-1.59,.68-2.35,1.63-2.26,3.38,.15,2.93-.64,5.7-1.79,8.37-.86,2-1.78,3.98-2.74,5.94-.56,1.14-.67,2.22-.22,3.43,.59,1.58,1.09,3.19,1.56,4.81,.78,2.67,1.6,5.31,2.79,7.84,1.23,2.6,2.34,5.25,3.54,7.86,1.95,4.23,3.97,8.43,5.91,12.67,.75,1.65,1.91,2.74,3.66,3.21,.67,.18,1.33,.41,2.01,.54,2.45,.48,4.78,1.27,7.01,2.4,1.42,.71,2.87,1.34,4.31,2.03,1.46,.69,2.98,1.03,4.6,1.03,5.36,.02,10.7-.13,15.96-1.39,1.15-.27,2.35-.43,3.53-.46,6.78-.2,13.46,.48,19.98,2.45,2.09,.63,4.19,1.23,6.3,1.79,6.09,1.6,11.78,4.2,17.19,7.34,3.77,2.18,7.32,4.74,10.93,7.2,1.43,.97,2.95,1.59,4.64,1.86,7.25,1.18,14.41,2.74,21.51,4.63,3.06,.82,6.19,1.46,9.19,2.45,8.12,2.68,15.89,6.17,23.29,10.48,.55,.32,1.14,1.09,1.82,.43,.48-.46,.04-1.12-.13-1.67-.57-1.8-1.15-3.59-1.74-5.38-.84-2.54-1.67-5.09-2.12-7.74-.48-2.83-.99-5.7-.7-8.57,.43-4.26,.29-8.52,.29-12.78,0-.89-.1-1.79-.29-2.66-.89-4.27-1.7-8.56-2.78-12.79-1.79-7.01-3.56-14.02-5.01-21.12-.78-3.86-1.01-7.64-.07-11.49,.61-2.5,1.05-5.06,1.06-7.65,.02-4.36,.04-8.73-.09-13.09-.1-3.27-.65-6.49-1.55-9.66-1.26-4.45-3.28-8.52-5.91-12.27-1.93-2.75-3.92-5.46-6.45-7.76-4.85-4.42-10.49-7.45-16.56-9.75-1.15-.44-2.29-.91-3.41-1.39,.03,.15,.01,.3-.08,.44-.29,.41-.66,.17-1,.03-.15-.06-.3-.11-.46-.12-.48,0-.97-.05-1.21,.54-.05,.13-.23,.22-.35,.31-.28,.2-.25,.44-.11,.69,.1,.19,.22,.37,.3,.56,.09,.23,0,.44-.21,.53-.24,.1-.61,.08-.72,.25-.41,.6-.93,.31-1.41,.24-.05,.07-.11,.12-.1,.15,.1,.62,.33,1.28-.5,1.63-.09,.04-.14,.27-.13,.41,.01,.26,.1,.52,.11,.78,.01,.22-.1,.49-.33,.48-.71-.04-.83,.19-.49,.79,.15,.26,.06,.55-.17,.71-.42,.3-.47,.66-.34,1.12,.12,.42,.12,.85-.15,1.23-.25,.34-.17,.69-.16,1.07,.02,.53-.05,.61-.65,.59-.36-.01-.53,.05-.41,.41,.25,.74,.77,1.46,.09,2.24-.06,.07-.07,.22-.04,.3,.3,.85,.06,1.81,.6,2.61,.27,.41,.34,.91-.04,1.34-.3,.33-.18,.57,.13,.78,.22,.15,.46,.26,.7,.39,2.77,1.48,5.56,2.94,8.1,4.8,.17,.13,.35,.24,.54,.34,.18,.11,.39,.24,.58,.07,.09-.09,.12-.3,.1-.44-.29-2.21,.08-4.36,.54-6.5,.44-2.06,1.33-3.94,2.63-5.6,1.61-2.05,4.48-1.99,6.02,.11,.73,.99,1.29,2.08,1.7,3.24,.84,2.37,1.48,4.78,1.84,7.27,.18,1.26,.41,2.52,.58,3.79,.27,2.06,.59,4.11,.44,6.2-.05,.75-.17,1.48-.45,2.18-.78,1.93-1.67,3.8-2.91,5.49-1.1,1.51-2.13,3.06-3.19,4.6-.79,1.15-1.42,2.37-1.7,3.76-.14,.68-.38,1.33-.54,2-.72,2.95-1.57,5.87-1.6,8.94-.02,1.81,.08,3.61,.28,5.41,0,.05,.02,.1,.03,.16,.58,2.79,1.59,5.41,3,7.88,.72,1.25,1.42,2.51,1.79,3.91,.45,1.7,.88,3.4,1.25,5.12,.33,1.51,.6,3.03,.49,4.59-.06,.82-.37,1.53-.73,2.25-.64,1.29-2.94,1.3-3.67,.12-.2-.32-.39-.63-.56-.96-.6-1.13-1.13-2.29-1.54-3.51-.21-.64-.44-1.29-1.15-1.75-.35,.65-.57,1.35-1.38,1.46-.29,.04-.57,.05-.73-.18-.53-.73-1.1-1.38-1.99-1.7-.22-.08-.35-.39-.52-.59-.21-.24-.37-.57-.63-.71-1-.52-1.36-1.44-1.63-2.43-.07-.25-.19-.49-.28-.74-.13,.06-.23,.07-.29,.13-.65,.58-.75,.57-1.12-.16-.17-.33-.27-.75-.53-.97-.72-.61-.88-1.41-1.02-2.27-.17-1.04-.18-2.12-.87-3.03-.2-.27-.26-.71-.26-1.07-.04-1.83-1.09-3.44-1.17-5.26,0-.25-.17-.51-.32-.72-.68-.92-.78-1.96-.73-3.04,.01-.32,.12-.66,.04-.95-.3-1.15,.04-2.22,.31-3.3,.18-.72,.36-1.45,.54-2.17,.51-2.03,.27-1.87-1.38-2.2-.53-.1-.87-.35-1.08-.83-.08-.2-.16-.39-.26-.58-.32-.64-.99-1.02-1.55-.92-.83,.15-1.19-.19-1.53-.79-.21-.39-.44-.72-.97-.68-.42,.04-.69-.24-.91-.55-.21-.31-.41-.62-.61-.93-.16-.24-.37-.41-.66-.31-.68,.25-1.12-.07-1.5-.58-.22-.29-.44-.59-.65-.87-.15,.07-.26,.08-.33,.15-.78,.81-1.1,.82-1.72,0-.13-.17-.24-.35-.34-.54-.27-.48-.53-.93-1.23-.68-.27,.1-.51-.12-.66-.36-.2-.31-.36-.65-.56-.97-.16-.26-.24-.66-.66-.56-.3,.08-.69,.75-.63,1.03,.08,.36,.23,.71,.35,1.06,.11,.3,.26,.64,.09,.92-.4,.65-.15,1.21,.14,1.8,.14,.28,.24,.59,.32,.9,.08,.32-.24,.6-.58,.59-.42-.01-.73-.44-1.17-.33-.1,.33,.1,.53,.24,.75,.46,.72,.93,1.43,1.4,2.14,.2,.31,.4,.63,.58,.96,.13,.24,.22,.51,0,.74-.28,.3-.59,.16-.87,0-.32-.19-.61-.43-.92-.63-.17-.11-.37-.3-.54-.05-.06,.09,.02,.31,.1,.43,.32,.49,.69,.95,1.01,1.44,.14,.22,.35,.52,.29,.71-.17,.59,.15,1.22-.03,1.71-.26,.7-.07,1.22,.16,1.82,.19,.48,.08,.63-.59,.82-.23,.07-.41,.12-.35,.39,.04,.21,.15,.4,.19,.61,.1,.62-.24,.9-.84,.74-.31-.08-.56-.44-.98-.28,.37,.69,.84,1.27,.97,1.91,.15,.76-.54,1.33-.93,1.94-.56,.87-.44,1.94-.91,2.84-.2,.38,.12,.71,.18,1.07,.08,.52-.2,.76-.77,.68-.23-.03-.43-.35-.73-.05,.25,.46,.5,.93,.74,1.4,.24,.47,.3,.92-.2,1.27-.31,.22-.31,.53-.27,.86,.03,.28-.05,.52-.28,.7-1.08,.85-1,1.89-.5,3.01,.26,.58,.48,1.19,.68,1.79,.17,.53-.07,.75-.69,.68-.19-.02-.37-.23-.65,.03,.61,.63,1.03,1.33,.45,2.23-.09,.14,.03,.41,.05,.62,.02,.44-.17,.77-.61,.77-.59,.01-.73,.25-.62,.8,.1,.5,.01,1.06-.51,1.21-.7,.21-.76,.56-.6,1.17,.16,.57-.25,1.01-.48,1.48q-.62,1.23,.53,1.93c.55,.33,1.1,.65,1.65,.98,.23,.14,.46,.27,.67,.43,.64,.51,.78,1.1,.46,1.84-.24,.55-.62,1-1.08,1.37-.41,.33-.85,.64-1.3,.92-1.2,.75-2.42,.75-3.61-.02-.53-.35-1.03-.75-1.56-1.12-1.64-1.16-2.64-2.75-3.08-4.7-.25-1.09-.45-2.19-.66-3.29-.4-2.16-.4-4.33-.15-6.52,.19-1.7,.48-3.37,.75-5.06,.85-5.31,1.56-10.64,2.47-15.94,.5-2.94,.78-5.91,.71-8.9-.02-1.02-.14-2.02-.25-3.02-.38-3.38-.64-6.78-1.47-10.1-.56-2.21-.48-4.45-.06-6.65,.39-2.02,1.29-3.83,2.62-5.41,.45-.53,.86-1.08,1.15-1.72,.2-.43,.18-.82-.16-1.18-.45-.47-.83-.98-1-1.61-.25-.93-.56-1.84-.7-2.78-.42-2.77,.11-5.29,2.03-7.44,1.35-1.51,2.93-2.44,5.02-2.34Z"/><path class="cls-3" d="M448.91,180.69c2.85-.75,5.44-1.98,7.53-4.12,1.54-1.57,3.36-2.74,5.31-3.73,1.1-.56,2.19-1.13,3.32-1.72-.41-.75-.91-.33-1.3-.23-6.22,1.56-12.41,3.24-18.73,4.37-1.04,.19-2.07,.35-3.11,.46,.26,2.45,.8,4.87,1.65,7.16,.41-.74,1.28-.99,2.04-1.27,1.06-.39,2.19-.62,3.29-.91Z"/><path class="cls-3" d="M565.97,244.13c.73-2.43,.9-8.5,.46-10.83-.68,3.59-.79,7.21-.46,10.83Z"/><path class="cls-3" d="M496.01,227.34c1.64,3.21,1.37,7.04,.94,10.62-1.63,13.31-5.1,26.38-6.13,39.76-1.03,13.37,.63,27.56,8.31,38.56,9.95,14.26,28.49,20.59,45.87,19.97,4.1-.15,8.15-.63,12.16-1.36,.05-1.89,.1-3.78,.22-5.66,.27-4.35,.29-8.7,.66-12.98-.79-.7-1.38-.03-2,.12-2.89,.69-4.23,.29-5.91-2.11-1.54-2.2-2.67-4.58-3.13-7.31-1.18-6.95-1.66-13.98-2.75-20.94-.03-.2-.04-.39-.05-.59-.22-4.75-.41-9.51-.68-14.26-.41-7.23-.26-14.49-.76-21.7-.42-6.04-.35-12.09-.82-18.12-.34-4.33-.34-8.72,.16-13.07,.23-1.96,.18-3.96,.23-5.94,.07-2.48-.02-4.96,.4-7.42,.26-1.52-.16-2.91-.82-4.3-2.75-5.82-5.2-11.75-7.44-17.76-.62-.27-1.25-.55-1.87-.82-2.02-.89-4.06-1.78-6.21-2.45-5.17-1.6-10.86-1.88-16.03-3.44-.08,0-.16,0-.24,0-4.36-.23-8.69-.03-12.97,.88-.4,.09-.82,.21-1.22,.19-3.28-.18-6.32,.85-9.38,1.83-4.06,1.29-8.29,1.79-12.44,2.65-2.83,.59-5.67,1.19-8.49,1.84-3.44,.79-6.9,1.38-10.44,1.36-3-.02-6,.03-9-.05-.82-.02-1.46-.13-1.92-.31,.64,1.42,1.41,2.79,2.33,4.06,2.93,4.07,7.11,7.05,11.21,9.95l31.58,22.33c2.56,1.81,5.21,3.72,6.63,6.51Z"/><path class="cls-3" d="M894.54,228.09c-.89-22-3.91-43.85-6.93-65.66-2.07-14.94-4.72-29.38-20.27-33.99-19.45-5.76-38.59-12.92-57.83-19.36-10.9-3.65-21.97-7.33-33.44-7.95-5.33-.29-10.66,.08-16,.43,.5,.46,1.02,.91,1.55,1.35,2.3,1.88,4.75,3.58,7.17,5.31,1.45,1.04,2.89,2.13,4.46,2.94,.04,.02,.08,.04,.12,.07,.21-.18,.41-.36,.63-.52,.3-.22,.63-.39,1.01-.46,2.09-.38,4.1,.49,5.21,2.29,.56,.91,.83,1.89,.86,2.93,.77,.44,1.54,.87,2.31,1.32,3.6,2.09,7.31,3.99,10.9,6.1,3.07,1.81,6.31,3.31,9.18,5.48,3.88,2.94,7.43,6.18,10.72,9.8,5.51,6.08,9.94,12.84,13.62,20.13,.31,.62,.61,1.25,.82,1.91,2.24,6.88,4.63,13.72,5.8,20.89,.54,3.34,1.46,6.57,2.5,9.78,2.05,6.31,4.09,12.62,6.14,18.93v77.64c3.43-.53,6.82-1.25,9.93-2.75,3.37-1.63,6.24-4.11,9.07-6.56,5.58-4.83,11.15-9.67,16.73-14.5,5.14-4.46,10.43-9.11,13.24-15.31,2.83-6.25,2.81-13.37,2.53-20.23Z"/><path class="cls-3" d="M740.65,299.75c-.91-.39-1.79-.87-2.73-1.17-6.53-2.05-13.03-4.19-19.77-5.49-2.82-.54-5.67-.95-8.55-1.09-1.98-.1-3.95-.34-5.92-.57-5.21-.62-10.49-.65-15.66-1.68-2.54-.5-5.04-1.14-7.46-2.03-6.52-2.4-12.86-5.23-19.11-8.26-5.33-2.58-9.81-6.34-14.12-10.32-.22-.2-.43-.41-.62-.65-2.89-3.65-6.05-7.08-8.68-10.96-4.48-6.62-10.77-10.99-18.02-14.11-.45-.19-.94-.31-1.42-.41-.44-.09-.78,.13-.97,.51-.17,.35-.31,.73-.39,1.12-1.02,4.94-3.52,9.25-5.91,13.59-3.41,6.17-7.49,11.92-11.31,17.83-.37,.58-.83,1.12-1.31,1.61-3.68,3.8-7.71,7.12-12.56,9.37-2.56,1.19-5.21,1.89-8.02,2.05-.59,.03-1.21,0-1.78,.13-1.64,.4-3.1,.05-4.6-.66-2.09-.99-2.58-.7-3.12,1.47-.6,2.41-1.16,4.82-1.75,7.23-.74,2.99-1.53,5.96-2.74,8.8-.55,1.31-.79,2.64-.8,4.05-.03,3.17,.08,6.36-.21,9.52-.41,4.56-.34,9.12-.49,13.67,0,.13,0,.26,0,.39,11.05-2.66,21.78-7.05,32.21-11.65,15.91-7.02,31.79-14.69,48.91-17.78,19.78-3.57,40.67-.7,58.76,8.07,6.76,3.28,13.25,7.4,20.6,8.98,10.68,2.29,21.7-1.07,31.94-4.88,4.73-1.76,9.43-3.63,14.12-5.53-4.71-2.11-9.54-3.91-14.43-5.57-4.79-1.63-9.45-3.59-14.09-5.6Z"/><path class="cls-3" d="M553.94,284.16c.35,5.83,1.08,11.63,1.65,17.44,.1,.99,.22,1.96,.85,3.16,.29-.52,.5-.75,.57-1.01,.8-3.27,1.59-6.54,2.37-9.81,.07-.29,.07-.59,.1-.89,.36-3.84,.74-7.69,1.09-11.53,.07-.79,.13-1.59,.06-2.37-.37-4.24-.74-8.47-1.62-12.66-.88-4.17-1.51-8.4-1.71-12.65-.24-5.15-.81-10.27-1.45-15.38-.32-2.57-.5-5.12-.48-7.7,.01-2.48,.03-4.95,.06-7.43,0-.91-.1-1.78-.74-2.5-.26-.29-.53-.64-.96-.6-.53,.05-.52,.55-.53,.92-.04,1.29-.05,2.58-.05,3.86,.03,14.07,.11,28.14,.09,42.21-.01,5.65,.39,11.29,.73,16.92Z"/><path class="cls-3" d="M469.56,146.13c.43,.37,.9,1.09,1.53,.59,.45-.36,0-.96-.2-1.41-.47-1.03-.97-2.06-1.49-3.07-2.02-3.9-2.54-8.05-2.13-12.36,0-.05,.01-.11,.02-.17-1.27,.91-2.53,1.84-3.75,2.82-1.08,.86-2.13,1.77-3.17,2.71,1.29,1.88,2.6,3.76,4.04,5.54,1.57,1.94,3.29,3.72,5.16,5.36Z"/><path class="cls-3" d="M538.92,151.61c1.64,5.97,4.08,11.59,7.17,16.94,3.53,6.12,7.76,11.72,12.18,17.15,.82-.17,.7-.77,.64-1.18-.42-2.97-.16-5.93,.1-8.89,.22-2.45-.28-4.66-1.78-6.72-1.03-1.42-1.73-3.12-2.42-4.76-1.28-3.03-2.74-5.94-4.77-8.55-1.85-2.38-3.24-4.99-3.86-7.97-.33-1.6-1.09-2.97-2.17-4.17-1.21-1.34-2.1-2.87-2.88-4.49-.99-2.06-2.05-4.07-3.06-6.12-.32-.64-.52-1.33,.14-1.9,.54-.48,1.42-.33,2.07,.49,.74,.93,1.44,1.91,1.98,2.95,1.05,2.04,2.16,4,3.71,5.72,.79,.88,1.42,1.91,2.06,2.91,2.09,3.27,4.77,6.09,7.11,9.16,.46,.61,1.15,.43,1.3-.33,.46-2.33,.86-4.68,1.29-7.02,.11-.58,.18-1.17,.34-1.74,.11-.38,.38-.7,.82-.74,.47-.04,.73,.29,.9,.64,.31,.64,.37,1.33,.26,2.03-.21,1.37-.43,2.74-.64,4.11-.07,.48-.27,.97,.1,1.42,.77,.12,1.2-.67,1.9-.71,.27-.02,.6,.06,.82,.21,.38,.26,.34,.69,.2,1.07-.28,.78-.95,1.25-1.49,1.83-.74,.8-1.48,1.6-2.17,2.44-.48,.58-.57,1.28-.21,1.95,1.53,2.82,2.37,5.88,3.13,8.96,.14,.57,.4,1.14,.72,1.62,2.36,3.58,3.14,7.68,3.89,11.78,.82,4.49,1.56,8.99,2.42,13.46,.28,1.45,.81,2.86,1.25,4.28,.14,.46,.25,.97,.71,1.25,.5-.08,.61-.49,.74-.85,.88-2.42,1.7-4.85,1.97-7.45,.27-2.56,.74-5.1,1.24-7.63,.41-2.06,.49-4.13,.45-6.22-.03-1.59,0-3.18-.1-4.76-.18-2.8,.54-5.37,2.21-7.55,1.48-1.93,1.61-3.96,1.22-6.19-.68-3.84-1.79-7.5-3.86-10.86-.98-1.6-1.75-3.34-2.56-5.04-.38-.8-.69-1.65-.94-2.5-.32-1.07-.11-1.84,.5-2.12,.77-.36,1.36,.07,1.84,.57,.89,.93,1.78,1.87,2.53,2.91,.76,1.04,1.36,2.19,2.02,3.29,.41,.67,.66,1.45,1.34,1.97,.75-.11,.5-.72,.53-1.15,.06-.94-.4-1.72-.92-2.46-.88-1.24-1.35-2.64-1.64-4.11-.11-.58-.32-1.23,.2-1.67,.59-.51,1.08,.03,1.58,.33,.15,.09,.37,.08,.69,.13,.06-1.08,.1-2.15,.21-3.2,.03-.24,.28-.52,.51-.65,.43-.24,.8,.05,1,.37,.31,.5,.64,1.04,.74,1.6,.32,1.75,.76,3.53,.53,5.31-.34,2.66-.14,5.36-.78,7.99-.29,1.2-.11,2.36,.37,3.49,.19,.45,.22,1.13,.74,1.2,.75,.11,.83-.69,1.1-1.17,2.36-4.26,5.16-8.22,8.25-11.99,.94-1.15,1.78-2.38,2.68-3.56,.31-.4,.72-.72,1.27-.59,.67,.16,.94,.69,1.04,1.31,.2,1.25-.36,2.34-.86,3.41-1.69,3.7-3.34,7.42-5.15,11.06-2.26,4.56-3.76,9.38-5.3,14.2-.57,1.8-.86,3.67-.85,5.57,0,2.18-.3,4.36-.31,6.53-.04,4.79-.98,9.46-1.64,14.17-.57,4.02-.95,8.07-1.39,12.11-.06,.59-.03,1.19,.01,1.78,.05,.75,.43,1.32,1.11,1.64,.54,.25,1.08,.5,1.65,.66,5.15,1.48,10.27,3.05,15.46,4.37,4.71,1.2,9.46,2.21,14.23,3.14,4.42,.86,8.66,2.15,12.61,4.31,.35,.19,.71,.36,1.08,.51,.67,.27,1.15-.14,1.03-.91-.18-1.18-.45-2.34-.62-3.51-.73-4.9-1.49-9.8-2.12-14.71-.21-1.66-.1-3.37-.12-5.05-.02-2.08,.05-4.16-.3-6.23-.3-1.79,.11-3.57,.33-5.33,1.24-9.96,6.11-17.66,14.51-23.14,2.17-1.42,4.63-2.26,7.04-3.18,4.91-1.87,9.83-3.72,14.75-5.58,.36-.14,.77-.21,.96-.62-.02-.54-.49-.55-.84-.64-.86-.22-1.74-.42-2.62-.57-5.59-.94-10.19-3.69-14.2-7.59-2.29-2.22-4.36-4.6-6.07-7.31-1.82-2.89-4.21-5.31-7-7.22-1.81-1.24-3.76-2.02-5.79-2.43-.2,2.27-.34,4.55-.42,6.84-.16,4.53-.62,9.04-1,13.56-.13,1.55-.35,3.12-.03,4.63,.62,3.01,.38,5.97-.3,8.89-1.15,4.9-1.52,9.83-1.22,14.84,.04,.65-.09,1.32-.21,1.96-.03,.15-.3,.34-.48,.36-.18,.03-.47-.07-.56-.21-.62-.96-.77-2.07-.79-3.18-.04-1.66-.01-3.32-.01-4.98-.05-2.55-.03-5.08,.46-7.61,.23-1.18,.22-2.42,.23-3.64,.03-2.21,.1-4.43-.02-6.64-.3-5.22,.24-10.39,.79-15.56,.08-.77,.24-1.57,.12-2.31-.4-2.48-.08-4.9,.34-7.31-1.1-.04-2.22,.01-3.36,.14-4.63,.51-9.25,1.12-13.88,1.54-2.56,.23-5.15,.28-7.71-.2-.77-.15-1.58-.19-2.37-.21-7.93-.15-14.9-2.99-21.23-7.57-2.73-1.97-5.4-4.04-8.1-6.06-1.59-1.2-3.33-2.12-5.16-2.93-5.25-2.34-10.55-4.6-15.68-7.2-3.82-1.94-7.53-4.04-11.03-6.46-11.2,4.78-22.4,9.56-33.6,14.35-3.35,1.43-6.71,2.87-10.04,4.36,1.1,.71,2.27,1.31,3.54,1.77,1.77,.64,3.46,1.49,5.17,2.28,4.17,1.91,8.6,3.03,13.01,4.17,2.5,.65,5,1.26,7.41,2.2,2.36,.92,4.35,2.3,6.05,4.19,4.63,5.15,8.03,11.06,10.91,17.3,.49,1.07,.79,2.24,1.11,3.39Z"/><path class="cls-3" d="M606.9,239.88c-3.43-.46-6.87-.89-10.3-1.34-4.02-.53-8.04-1.06-12.06-1.6-2.75-.37-5.44-1.07-8.13-1.74-.98-.25-1.53,.18-1.63,1.16-.04,.39-.04,.79-.05,1.19-.03,4.85-.09,9.7-.67,14.53-.55,4.52-.9,9.06-1.47,13.57-.52,4.02-1.23,8.02-1.86,12.03-.06,.39-.11,.78-.15,1.18-.08,.87,.25,1.56,1.01,1.99,2,1.12,4.05,2.11,5.82,2.04,5.67-.14,10.06-1.88,13.75-5.4,3.46-3.31,6.25-7.14,8.92-11.08,1.78-2.63,3.4-5.35,4.62-8.29,1.53-3.66,2.81-7.41,3.9-11.22,.49-1.71,.8-3.47,1.17-5.21,.14-.68-.17-1.16-.84-1.34-.67-.18-1.34-.38-2.02-.47Z"/></g></g></g></svg>