<?xml version="1.0" encoding="UTF-8"?><svg id="Ebene_2" xmlns="http://www.w3.org/2000/svg" xmlns:xlink="http://www.w3.org/1999/xlink" viewBox="0 0 841.89 595.28"><defs><style>.cls-1{fill:none;}.cls-2{clip-path:url(#clippath);}.cls-3{fill:#fff;}.cls-4{fill:#b2b2b2;}.cls-5{fill:#dadada;}.cls-6{fill:#706f6f;}.cls-7{fill:#575756;}</style><clipPath id="clippath"><rect class="cls-1" width="841.89" height="595.28"/></clipPath></defs><g id="Ebene_1-2"><g class="cls-2"><path class="cls-4" d="M64.16,543.58c-.02-.97-.06-1.94-.06-2.91,0-29.92,0-59.83,0-89.75,0-.6,.03-1.2,0-1.79-.06-1.17,.44-2,1.43-2.58,1.22-.72,2.39-1.52,3.65-2.17,7.35-3.82,14.85-7.32,22.43-10.65,5.76-2.53,11.19-5.65,16.05-9.66,3.42-2.82,6.32-6.13,8.58-9.96,1.03-1.75,1.66-3.66,1.66-5.74,0-.94-.2-1.76-.99-2.38-1.6-1.25-1.81-2.95-1.06-4.63,.79-1.76,.77-3.4,.19-5.18-.54-1.66-.53-3.38-.14-5.09,.18-.8,.31-1.61,.5-2.41,.66-2.68,1.33-5.36,2.03-8.02,.36-1.37,.81-2.71,1.42-4,1.08-2.27,3.14-3.06,5.39-3.55,.6-.13,1.18,.13,1.72,.4,.53,.27,1.04,.58,1.58,.84,.29,.14,.65,.12,.8-.16,.96-1.77,2.11-3.5,1.13-5.66-.61-1.35-.26-2.64,.34-3.87,.82-1.66,.44-3.18-.47-4.66-.49-.8-1.21-1.3-2.05-1.66-1.12-.49-2.02-1.24-2.67-2.3-.95-1.54-1.32-3.16-.79-4.92,.3-1,.67-1.98,1.03-2.96,.15-.42,.4-.8,.55-1.22,.65-1.88,.68-3.62-.97-5.11-1.9-1.72-2.87-3.95-3.32-6.44-.19-1.04-.18-2.06,.01-3.11,.55-3.03,1.96-5.62,3.95-7.92,1.72-1.97,3.57-3.8,5.7-5.34,2.05-1.48,4.38-2.23,6.83-2.6,.57-.09,1.2,0,1.77,.13,1.9,.46,3.7,1.16,5.28,2.34,1.5,1.12,2.87,2.4,4.04,3.86,1.6,2,2.29,4.3,1.91,6.9-.31,2.15-.77,4.27-1.47,6.31-1.22,3.55-2.07,7.16-2.5,10.88-.32,2.74-.79,5.46-.66,8.24,.05,1.13,.2,2.22,.57,3.29,.6,1.69,1.12,3.4,1.72,5.09,.21,.6,.34,1.29,.96,1.66,.39-.3,.33-.71,.43-1.05,.52-1.87,.96-3.76,1.55-5.6,.76-2.36,.82-4.68,.02-7.03-.12-.35-.22-.71-.35-1.06-.59-1.54-.51-3.07,.09-4.59,.5-1.25,1-2.49,1.54-3.72,.31-.7,.44-1.39,.3-2.17-.31-1.78-.2-3.56,.08-5.34,.32-2,.33-4.01-.03-6.01-.33-1.84-.49-3.66-.29-5.55,.2-1.92,.07-3.87,.07-5.81,0-1.35,.08-2.68,.44-3.99,1-3.64,4.44-6.38,8.2-6.5,.89-.03,1.79-.04,2.68,.02,1.98,.12,3.58,.99,4.73,2.6,.56,.79,1.02,1.65,1.51,2.48,.26,.45,.47,.93,.75,1.38,.28,.46,.7,.56,1.15,.3,.45-.26,.88-.55,1.31-.85,.88-.61,1.86-.94,2.9-1.11,1.68-.27,2.92,.4,3.62,1.93,.12,.27,.21,.56,.31,.84,.5,1.47,1.44,2.59,2.67,3.5,.6,.44,1.19,.9,1.8,1.33,2.83,2.01,4.03,4.84,4.31,8.22,.38,4.61-.77,8.87-2.73,12.97-1.23,2.56-2.69,4.99-4.27,7.35-.91,1.37-1.83,2.73-2.73,4.09-4,6.06-6.62,12.7-8,19.78-.61,3.13-.94,6.35-.64,9.57,.08,.81,.24,1.62,.4,2.42,.14,.66,.59,1.07,1.26,1.06,2.2-.03,3.54,1.38,4.84,2.85,.44,.5,.82,1.06,1.27,1.56,.33,.36,.86,.28,1.15-.13,.09-.12,.18-.24,.25-.37,1.52-3.18,2.74-6.46,2.86-10.04,.07-2.08,.26-4.19,.21-6.25-.07-2.71,.3-5.34,.63-8,.35-2.83,1.11-5.55,1.96-8.26,.75-2.38,1.97-4.51,3.6-6.39,1.83-2.12,4.04-3.25,6.93-2.59,1.31,.3,2.62,.57,3.94,.82,3.21,.63,5.72,2.36,7.87,4.77,1.79,2,3.71,3.88,5.64,5.75,1.42,1.37,2.53,2.93,3.41,4.68,1.95,3.89,1.28,8.23-1.75,11.36-1.71,1.77-3.47,3.5-5.17,5.27-2.66,2.76-4.22,6.11-5.11,9.8-.28,1.18-.21,2.37,0,3.56,.08,.44,.18,.88,.28,1.31,.54,2.44,.61,4.88-.1,7.3-.23,.79-.4,1.59-.24,2.43,.13,.69,.61,1.07,1.28,.91,.58-.14,1.13-.37,1.69-.57,.63-.23,1.25-.51,1.89-.69,2.24-.62,3.75,.02,4.83,2.1,.37,.72,.61,1.52,.88,2.29,.25,.7,.49,1.41,.99,1.99,.33,.38,.83,.42,1.17,.06,.25-.27,.47-.57,.7-.87,.32-.41,.6-.86,.97-1.23,1.22-1.26,2.85-1.39,4.23-.34,.41,.31,.77,.71,1.17,1.04,.42,.35,.88,.3,1.15-.14,1.49-2.47,2.61-5.01,1.93-8.04-.41-1.81-.57-3.68-.78-5.53-.2-1.79-.22-3.57-.33-5.35-.29-4.38-.44-8.79-1.53-13.08-.33-1.29-.49-2.64-.63-3.97-.31-2.79,.01-5.51,1.19-8.09,.59-1.29,1.2-2.57,1.77-3.86,.45-1.02,.89-2.05,1.27-3.1,.94-2.58,.62-5.15-.26-7.67-.56-1.62-1.3-3.17-1.49-4.91-.09-.84-.63-1.5-1.21-2.1-.62-.64-1.27-1.26-1.87-1.93-1.67-1.84-2.55-4-2.57-6.5-.02-2.01-.11-4.02,.46-6,.48-1.7,1.34-3.09,2.69-4.28,4.28-3.77,9.38-4.59,14.82-4.25,.97,.06,1.92,.24,2.89,.28,5.05,.19,9.91,1.18,14.49,3.38,1.21,.58,2.44,1.15,3.57,1.86,1.23,.78,2.56,1.18,3.97,1.41,.96,.16,1.91,.35,2.87,.49,1.41,.2,2.5,.93,3.39,2,.24,.29,.47,.58,.69,.88,.82,1.16,1.88,1.6,3.3,1.28,1.01-.23,2.06-.29,3.1-.45,1.29-.2,2.5-.03,3.7,.53,1.91,.89,3.67,1.99,5.29,3.32,3.55,2.91,6.59,6.25,8.84,10.29,1.17,2.09,1.37,4.4,1.56,6.7,.13,1.56,.07,3.13,0,4.7-.04,.89-.21,1.78-.42,2.64-.39,1.67-1.29,2.97-2.77,3.9-3.17,2-6.61,3.09-10.35,3.19-1.28,.03-2.54,.14-3.71,.67-1.45,.66-2.77,1.5-3.6,2.9-1.48,2.5-3.78,3.72-6.51,4.32-1.9,.42-3.71,1.09-5.43,2.03-2.29,1.25-3.81,3.06-4.39,5.63-.25,1.09-.55,2.17-.91,3.23-1.01,3.01-2.91,5.37-5.56,7.07-1.77,1.14-2.66,2.73-3.02,4.74-.19,1.07-.09,2.07,.26,3.07,.58,1.69,1.16,3.38,1.45,5.16,.19,1.19,.25,2.36,.05,3.56-.2,1.18-.34,2.36-.52,3.54-.26,1.74,.32,3.1,1.9,3.92,2.31,1.2,3.74,3.13,4.74,5.46,.83,1.93,1.43,3.92,1.71,6,.14,1.03,.27,2.07,.47,3.1,.36,1.84,.91,3.6,2.07,5.14,1,1.32,1.65,2.82,2.05,4.44,.51,2.03,1.05,4.04,1.32,6.12,.02,.18,.23,.41,.4,.47,.17,.06,.47-.01,.6-.14,.26-.25,.49-.56,.66-.89,.28-.52,.52-1.07,.77-1.62,.43-.95,.85-1.91,1.29-2.85,1.07-2.27,2.55-4.2,4.6-5.67,1.93-1.37,3.4-3.09,4.25-5.34,.79-2.1,.95-4.21,.29-6.36-.37-1.21-.77-2.42-1.25-3.59-1.02-2.49-1.41-5.04-.68-7.66,.53-1.9,.05-3.46-1.04-5.03-1.71-2.45-3.27-4.99-4.88-7.5-1.31-2.05-2.25-4.22-2.02-6.73,.32-3.4,1.74-6.29,4.09-8.74,.52-.54,1.17-.92,1.83-1.26,1.8-.94,3.69-1.62,5.64-2.14,1.54-.41,3.11-.48,4.65-.09,2.31,.58,4.61,1.22,6.89,1.92,2.6,.79,4.87,2.12,6.83,4.08,1.22,1.22,2.38,2.45,3.42,3.82,.88,1.17,.98,1.18,2.43,.52,.75-.34,1.52-.58,2.33-.76,1.79-.4,3.49-.26,5.28,.23,2.55,.7,4.89,1.81,7.22,2.98,1.5,.75,2.67,1.88,3.77,3.12,.78,.88,1.12,1.9,1.13,3.07,.01,1.58-.16,3.13-.49,4.66-.21,.96-.6,1.88-1.23,2.61-2.48,2.88-4.6,6.1-7.53,8.54-2.12,1.77-4.1,3.68-6.12,5.56-2.09,1.94-3.87,4.11-5.13,6.71-.83,1.73-.93,3.33-.15,5.14,1.25,2.89,2.75,5.61,4.59,8.17,1.66,2.3,3.08,4.77,5.03,6.84,2.26,2.4,4.24,5.01,6.2,7.64,1.33,1.79,2.66,3.59,3.8,5.53,1.64,2.78,2.92,5.7,3.81,8.8,.72,2.51,1.52,4.99,2.3,7.49,.15,.5,.32,1,.53,1.47,.82,1.93,1.97,2.38,3.68,1.25,1.44-.96,2.98-1.69,4.52-2.44,1.7-.83,3.47-1.34,5.37-1.37,.3,0,.6,0,.89-.04,1.13-.13,1.54-.5,1.75-1.67,.16-.88,.23-1.78,.39-2.66,.58-3.32,.69-6.68,.52-10.04-.09-1.85-.36-3.71-.69-5.54-.49-2.76-1.65-5.31-3.32-7.52-2.54-3.36-3.44-7.23-3.98-11.25-.36-2.66-.58-5.33-.92-7.99-.42-3.37-1.5-6.52-3.03-9.55-1.55-3.06-2.93-6.2-4.43-9.29-1.65-3.4-1.38-6.7,.72-9.76,3.23-4.69,7.55-7.77,13.35-8.48,.74-.09,1.47-.27,2.19-.42,2.19-.47,4.38-.93,6.56-1.43,1.92-.44,3.85-.38,5.78-.15,.81,.09,1.63,.2,2.44,.27,.91,.08,1.77-.08,2.55-.63,1.76-1.25,3.84-1.58,5.91-1.91,.67-.11,1.34-.02,2,.12,1.68,.35,3.33,.81,4.87,1.62,2.29,1.22,4.59,1.14,6.85-.07,.72-.39,1.41-.84,2.11-1.27,2.9-1.79,5.94-1.73,9.04-.66,.72,.25,1.29,.74,1.82,1.27,1.01,1,2.06,1.95,3.01,3,1.06,1.17,2.36,1.84,3.9,1.96,2.04,.16,3.92,.88,5.82,1.55,.56,.2,1.1,.47,1.65,.69,1.53,.63,2.63,1.67,3.19,3.25,.15,.42,.34,.83,.54,1.23,.6,1.24,1.54,1.88,2.98,1.99,3.29,.25,4.13,1.09,4.66,4.28,.4,2.37-.31,4.43-1.72,6.28-1.22,1.6-2.52,3.14-4.01,4.51-4.54,4.15-7.57,9.37-10.37,14.75-.99,1.9-1.23,3.97-1.55,6.04-.63,4-.59,8.03-.57,12.05,0,.74,.06,1.5,.21,2.22,.22,1.06,.86,1.36,1.8,.88,.79-.41,1.55-.89,2.32-1.35,1.86-1.12,3.8-2.08,5.88-2.7,.64-.19,1.3-.36,1.96-.39,1.99-.11,3.63,.93,4.47,2.73,.06,.14,.14,.27,.18,.41,.79,3.25,1.85,6.46,2.06,9.82,.19,3.22,1.34,4.7,4.57,5.36,1.98,.4,3.88,1.02,5.77,1.74,1.76,.67,3.04,1.86,4.18,3.26,.95,1.16,1.28,2.52,.84,3.99-.4,1.36-.87,2.7-1.29,4.05-.27,.85-.52,1.71-.77,2.57-.36,1.23-.17,2.41,.6,3.4,1.42,1.83,2.4,3.95,3.98,5.67,.81,.88,1.4,1.92,1.97,2.98,1.83,3.4,2.01,6.97,1.21,10.65-.19,.87-.46,1.73-.77,2.57-.86,2.34-1.16,4.78-1.42,7.23-.27,2.53,.42,4.89,1.54,7.12,.8,1.61,1.42,3.29,1.94,5,.57,1.86,.92,3.77,.88,5.73-.05,2.53,.21,5.08-.41,7.58-.14,.58-.32,1.14-.49,1.71H64.16Z"/><path class="cls-5" d="M832.45,14.17c-2.3-1.15-4.66-2.11-7.17-2.8-3.8-1.05-7.6-2.11-11.39-3.21-3.49-1.02-7.04-1.51-10.72-1.55-3.21-.04-6.04,.72-8.64,2.37-1.02,.65-2.09,1.24-3.17,1.8-3.37,1.75-6.87,1.93-10.49,.66-1.27-.45-2.54-.91-3.85-1.23-2.75-.67-5.53-1.29-8.4-.88-2.47,.35-4.96,.68-7.35,1.31-6.55,1.7-13.05,3.55-19.57,5.35-1.75,.48-3.39,1.17-4.94,2.05-4.99,2.85-9.93,5.77-14.4,9.27-6.39,4.98-12.01,10.57-16.61,16.98-.74,1.04-1.31,2.15-1.76,3.31-1.3,3.31-1.77,6.76-2.27,10.21-.1,.69,.04,1.43,.16,2.13,.39,2.38,1.52,4.49,2.95,6.48,1.82,2.52,4.26,4.5,6.75,6.46,1.28,1.01,2.59,2,3.74,3.12,2.27,2.22,4,4.78,4.43,7.81,.41,2.84,.39,5.71-.4,8.54-.68,2.43-1.98,4.54-3.81,6.43-3.24,3.34-7.33,5.47-11.93,6.83-2.37,.7-4.8,1.25-7.22,1.81-4.82,1.11-8.65,3.57-11.76,6.97-1.84,2.02-2.92,4.35-2.95,7.04-.03,2.16,.05,4.28,.9,6.35,1.22,2.94,1.29,6.01,1.14,9.09-.04,.83-.16,1.64-.93,2.23-.27,.21-.6,.35-.92,.16-.16-.09-.29-.34-.29-.51,.06-1.63,.2-3.27,.21-4.9,.03-3.43-1.31-6.18-4.91-7.78-1.87-.83-2.9-2.22-3.25-4.07-.25-1.31-.5-2.62-.83-3.92-.51-2-1.84-3.08-4.18-3.47-3.68-.62-7.26-.12-10.84,.35-3.75,.49-7.47,.65-11.17-.15-3.24-.7-6.53-.73-9.83-.68-1.38,.02-2.69,.3-4.01,.64-3.37,.88-5.04,2.98-5.43,6-.12,.91-.13,1.84-.21,2.75-.08,.91-.64,1.52-1.59,1.79-.76,.22-1.55,.33-2.29,.58-3.79,1.26-7.32,2.9-9.6,6.05-1.37,1.89-2.51,3.91-3.12,6.11-.69,2.49-1.69,4.88-2.79,7.24-1.16,2.49-1.74,5.07-1.72,7.77,0,1.13,0,2.25-.06,3.38-.04,.81-.09,1.64-.28,2.43-.45,1.85-1.2,2.4-3.26,2.51-1.37,.07-2.72-.03-4.06-.35-2.2-.52-4.46-.74-6.7-1.07-4.34-.64-8.33,.15-12.27,1.71-2.39,.94-4.83,1.8-7.27,2.63-1.28,.43-2.61,.72-3.99,.73-3.18,.03-6.34,.11-9.51-.44-3.23-.56-6.51-.89-9.79-1.21-1.46-.14-2.96-.12-4.42,.02-5.53,.51-11.05,1.15-16.59,1.65-10.02,.92-17.67,5.68-23.87,12.39-5.52,5.98-8.26,13.15-9.02,20.86-.56,5.74-.22,11.42,2.17,16.92,1.41,3.24,2.83,6.47,4.4,9.65,1.5,3.03,2.27,6.19,2.25,9.53-.02,3.42-.89,6.71-1.81,9.97-1.86,6.6-2.56,13.27-2.42,20.07,.08,3.84,.88,7.5,2.26,11.11,1.99,5.2,5.22,9.75,9,14.01,1.37,1.54,3.07,2.69,5.08,3.52,2.31,.96,4.75,1.33,7.24,1.6,2.31,.25,3.69,1.81,3.79,4.04,.09,1.98-1.23,3.32-3.68,3.72-.45,.07-.9,.09-1.36,.1-1.82,.04-3.64,.07-5.43-.3-4.56-.95-9.26-.87-13.88-1.37-.45-.05-.92-.04-1.36,.02-2.82,.41-5.67,.29-8.5,.5-2.94,.22-5.87,.56-8.75,1.19-3.48,.76-6.64,2.11-9.45,4.1-2.5,1.77-4.92,3.63-7.23,5.6-2.2,1.88-3.78,4.07-4.85,6.59-1.11,2.58-1.88,5.24-2.42,7.98-.71,3.58-.62,7.12,.25,10.66,.41,1.7,.7,3.42,1.01,5.14,.35,1.95-.15,3.64-1.91,4.96-3.32,2.48-4,5.97-3.69,9.47,.35,4.01,2.39,7.38,6.31,9.72,2.49,1.49,5.16,2.56,7.91,3.53,3.3,1.16,5,3.41,5.14,6.6,.06,1.44-.09,2.85-.4,4.27-1.26,5.89-1.3,11.79-.14,17.69,.28,1.41,.45,2.83,.71,4.25,.64,3.54,1.54,7.02,2.96,10.39,2.19,5.18,5.03,10.07,8.25,14.79,1.49,2.19,3.35,4.13,5.25,6.03,.83,.83,1.81,1.56,2.84,2.19,4.05,2.46,8.46,3.94,13.45,3.71,.79-.04,1.59-.03,2.39,0,3.38,.17,6.53-.63,9.57-1.86,1.45-.59,2.87-1.24,4.29-1.89,2.84-1.29,5.69-2.56,8.63-3.66,3.15-1.18,6.2-2.57,9.11-4.17,2.52-1.38,5-2.83,7.5-4.26,2.7-1.54,5.48-2.95,8.5-3.87,5.7-1.74,11.44-3.42,17.33-4.57,6.62-1.29,13.27-1.86,19.74,.73,.1,.04,.22,.06,.33,.09,3.75,1.17,7.17,.53,10.32-1.53,3.61-2.37,5.67-5.53,5.9-9.58,.09-1.63,0-3.28,.11-4.91,.17-2.45,.31-4.91,.7-7.33,.67-4.15,3.69-6.25,8.31-5.98,.68,.04,1.35,.17,2.03,.23,1.02,.09,2.04,.15,3.05,.24,3.46,.31,5.9-1.16,7.72-3.63,.56-.76,.98-1.61,1.35-2.47,1.74-4.05,2.69-8.23,2.61-12.59-.02-1.33,.02-2.66,.06-3.99,.06-1.85,.45-3.67,1.06-5.43,.61-1.78,1.74-2.46,3.8-2.47,.9,0,1.81,.13,2.71,.21,6.04,.52,10.9-2.72,12.25-8.07,.59-2.36,.58-4.65-.2-6.96-.63-1.86-1.2-3.73-1.72-5.62-.63-2.25,.11-4.03,2.44-5.18,.3-.15,.57-.35,.86-.49,2.99-1.47,5.96-2.99,9.16-4.07,6.08-2.04,11.71-4.97,17.7-7.2,.94-.35,1.79-.89,2.67-1.35,5.23-2.72,10.02-6.03,14.85-9.25,4.08-2.72,8.57-4.61,13.23-6.25,.73-.26,1.53-.37,2.31-.5,6.61-1.07,13.14-.37,19.6,.89,5.88,1.15,11.72,2.5,17.56,3.84,2.53,.58,5.02,1.3,7.5,2.05,5.37,1.63,9.53,4.6,12.53,8.97,3.01,4.38,5.39,9.01,7.06,13.92,1.29,3.77,1.5,7.63,.84,11.54-.36,2.12-.67,4.25-.87,6.39-.18,1.94-.1,3.87,.19,5.81,.91,6.05,3.27,11.69,5.93,17.24,1.8,3.75,3.81,7.43,5.74,11.14,2.23,4.29,4.05,8.71,4.29,13.49,.25,4.97,2.85,8.5,7.58,10.89,4.78,2.41,9.73,4.34,15.22,5.19,7.77,1.19,14.59-.74,20.95-4.56V18.97c-3.43-1.59-6.91-3.11-10.29-4.8Zm-239.81,210.55c.07,0,.13,.03,.17,.07,.26-.89,.43-1.82,.59-2.73,.07-.41,.69-.45,.87-.11,.8,1.45,1.59,2.9,2.38,4.35,.15,.27,.01,.58-.28,.68-1.16,.37-2.22,.2-3.18-.44-.57,1.29-1.41,2.42-2.73,3.18-2.74,1.56-6.41,1.53-9.46,1.91-.33,.04-.54-.4-.38-.65,2.51-3.86,7.27-6.75,12.01-6.25Zm-38.9,3.5c2.51-3.86,7.27-6.75,12.01-6.25,.07,0,.13,.03,.17,.07,.26-.89,.43-1.82,.59-2.73,.07-.41,.69-.45,.87-.11,.8,1.45,1.59,2.9,2.38,4.35,.15,.27,.01,.58-.28,.68-1.16,.37-2.22,.2-3.18-.44-.57,1.29-1.41,2.42-2.73,3.18-2.74,1.56-6.41,1.53-9.46,1.91-.33,.04-.54-.4-.38-.65Zm-14.78,9.57c-.33-.05-.41-.53-.19-.73,3.45-3.06,8.8-4.58,13.24-2.83,.07,.03,.11,.07,.15,.11,.49-.79,.9-1.64,1.29-2.47,.18-.38,.78-.25,.87,.12,.38,1.61,.76,3.22,1.14,4.83,.07,.3-.14,.57-.45,.58-1.21,.05-2.2-.4-2.95-1.27-.89,1.09-2,1.96-3.48,2.33-3.05,.78-6.58-.23-9.63-.68Zm9.7,5.4c-.33-.05-.41-.53-.19-.73,3.45-3.06,8.8-4.58,13.24-2.83,.07,.03,.11,.07,.15,.11,.49-.79,.9-1.64,1.29-2.47,.18-.38,.78-.25,.87,.12,.38,1.61,.76,3.22,1.14,4.83,.07,.3-.14,.57-.45,.58-1.21,.05-2.2-.4-2.95-1.27-.89,1.09-2,1.96-3.48,2.33-3.05,.78-6.58-.23-9.63-.68Zm23.86,13.48c-1.16,.37-2.22,.2-3.18-.44-.57,1.29-1.41,2.42-2.73,3.18-2.74,1.56-6.41,1.53-9.46,1.91-.33,.04-.54-.4-.38-.65,2.51-3.86,7.27-6.75,12.01-6.25,.07,0,.13,.03,.17,.07,.26-.89,.43-1.82,.59-2.73,.07-.41,.69-.45,.87-.11,.8,1.45,1.59,2.9,2.38,4.35,.15,.27,.01,.58-.28,.68Zm-10.77-43.42c-.27,0-.39-.32-.21-.52,4.11-4.62,11.45-4.77,17.07-3.22,1.38-.92,2.62-2.09,3.64-3.61,.18-.27,.64-.18,.64,.17,0,1.68-.02,3.35-.02,5.03,0,.21-.22,.39-.43,.33-1.26-.38-2.56-.72-3.82-1.13-4.82,2.95-11.25,3.04-16.86,2.95Zm15.9,31.16c2.51-3.86,7.27-6.75,12.01-6.25,.07,0,.13,.03,.17,.07,.26-.89,.43-1.82,.59-2.73,.07-.41,.69-.45,.87-.11,.8,1.45,1.59,2.9,2.38,4.35,.15,.27,.01,.58-.28,.68-1.16,.37-2.22,.2-3.18-.44-.57,1.29-1.41,2.42-2.73,3.18-2.74,1.56-6.41,1.53-9.46,1.91-.33,.04-.54-.4-.38-.65Zm20.6,9.78c-1.16,.37-2.22,.2-3.18-.44-.57,1.29-1.41,2.42-2.73,3.18-2.74,1.56-6.41,1.53-9.46,1.91-.33,.04-.54-.4-.38-.65,2.51-3.86,7.27-6.75,12.01-6.25,.07,0,.13,.03,.17,.07,.26-.89,.43-1.82,.59-2.73,.07-.41,.69-.45,.87-.11,.8,1.45,1.59,2.9,2.38,4.35,.15,.27,.01,.58-.28,.68Zm-.71-17.18c-.27,0-.39-.32-.21-.52,4.11-4.62,11.45-4.77,17.07-3.22,1.38-.92,2.62-2.09,3.64-3.61,.18-.27,.64-.18,.64,.17,0,1.68-.02,3.35-.02,5.03,0,.21-.22,.39-.43,.33-1.26-.38-2.56-.72-3.82-1.13-4.82,2.95-11.25,3.04-16.86,2.95Zm34.62,13.72c-1.16,.37-2.22,.2-3.18-.44-.57,1.29-1.41,2.42-2.73,3.18-2.74,1.56-6.41,1.53-9.46,1.91-.33,.04-.54-.4-.38-.65,2.51-3.86,7.27-6.75,12.01-6.25,.07,0,.13,.03,.17,.07,.26-.89,.43-1.82,.59-2.73,.07-.41,.69-.45,.87-.11,.8,1.45,1.59,2.9,2.38,4.35,.15,.27,.01,.58-.28,.68Z"/><g><path class="cls-4" d="M915.95,501.33c-1.41-.47-2.48-1.44-3.47-2.48-3.96-4.17-8.34-7.93-11.9-12.47-3.7-4.71-8.65-7.13-14.4-8.16-3.29-.59-6.55-.3-9.74,.7-1.01,.31-1.82,.89-2.49,1.72-1.94,2.41-3.67,4.93-4.58,7.95-1.25,4.13-2.91,8.11-4.76,12.01-.57,1.2-1,2.47-1.46,3.72-1.32,3.6-3.12,6.9-5.62,9.83-1.87,2.2-3.84,4.27-5.93,6.25-1.8,1.72-3.9,2.98-6.2,3.94-2.96,1.24-5.93,1.41-9.04,.6-1.39-.36-2.41-1.04-3.17-2.22-1.34-2.08-2.51-4.24-3.4-6.55-.55-1.44-1.12-2.87-1.66-4.31-2.1-5.52-5.65-9.97-10.16-13.7-1.82-1.5-3.76-2.85-5.79-4.08-1.66-1.01-3.23-2.18-4.82-3.3-1.96-1.39-3.48-3.17-4.65-5.26-.29-.52-.37-1.19-.96-1.52-.46,.18-.46,.63-.57,.99-.8,2.76-1.52,5.54-2.36,8.29-1.36,4.42-1.4,8.92-.78,13.42,.6,4.36,.25,8.55-1.06,12.76-1.75,5.61-4.18,10.92-6.54,16.27-.97,2.21-2.6,3.64-4.87,4.4-3.02,1-6.01,2.1-9.06,3.01-3.44,1.03-6.79,2.37-10.36,2.94-4.68,.75-9.35,1.34-14.08,.5-.8-.14-1.64-.11-2.46-.19-5.48-.53-10.01-2.82-13.43-7.21-2.68-3.45-4.69-7.15-5.53-11.53-1.38-7.18-3.8-14.06-6.48-20.85-1.1-2.77-2.41-5.45-4.13-7.9-1.19-1.69-2.5-3.25-4.5-4.07-.56-.23-1.08-.61-1.53-1.02-1.99-1.77-3.98-3.55-5.92-5.38-2.64-2.5-4.52-5.59-6.27-8.72-2.76-4.94-4.86-10.19-6.45-15.63-.72-2.47-1.07-5-1.34-7.56-.69-6.55-.59-13.12-.59-19.69,0-6.79-.71-13.52-1.53-20.24-.26-2.14-.57-4.27-.86-6.4-.96-7.24-4.64-12.84-10.41-17.15-3.21-2.4-6.59-4.56-10.07-6.53-2.34-1.32-4.95-1.96-7.52-2.66-1.36-.37-2.62,.06-3.85,.68-3.21,1.61-6.4,3.27-9.43,5.21-1.99,1.28-4.1,2.34-6.26,3.31-1.7,.76-3.47,1.26-5.36,1.22-3.77-.08-6.4-1.96-7.75-5.48-1.05-2.73-1.08-5.63-1.58-8.45-.21-1.21-.34-2.44-.59-3.64-.61-2.89-2.05-4.24-5.01-4.55-2.15-.23-4.3-.09-6.43,.37-2,.43-4.01,.83-6.08,.91-2.6,.11-4.82-.67-6.9-2.16-2.36-1.7-4.44-3.63-5.88-6.2-.76-1.37-1.3-2.8-1.4-4.36-.04-.7,0-1.45,.17-2.13,.45-1.71,1.69-2.62,3.44-2.37,2.87,.42,5.63,1.22,7.86,3.23,1.46,1.31,3.01,2.49,4.65,3.54,.34,.22,.73,.34,1.11,.49,.08,.03,.24,0,.28-.06,.11-.16,.28-.37,.24-.52-.23-1.07-.94-1.82-1.81-2.39-1.03-.67-2.1-1.29-3.18-1.88-3.04-1.67-5.32-4.16-7.42-6.83-.56-.72-.95-1.59-1.33-2.42-.78-1.71-.9-3.37,.58-4.82,1.52-1.5,3.4-1.95,5.37-1.01,2.81,1.34,5.36,3.14,7.18,5.67,2.02,2.8,4.8,4.75,7.27,7.05,.15,.14,.35,.21,.53,.31,.46,.24,1.04-.15,1.08-.71,.07-.95-.26-1.82-.52-2.7-.44-1.48-.77-2.98-.67-4.55,.07-1.1,.45-2.02,1.57-2.41,1.11-.38,2.03,.07,2.77,.86,1.14,1.21,2.15,2.6,2.47,4.21,.99,4.9,3.4,9.23,5.34,13.75,1.13,2.64,2.3,5.27,3.4,7.92,.76,1.83,1.93,3.39,3.19,4.88,.73,.86,1.52,.96,2.47,.37,.61-.37,1.21-.8,1.7-1.31,1.34-1.43,1.41-3.05,.16-4.39-1.19-1.27-2.28-2.64-3.44-3.95-1.71-1.93-2.05-4.21-1.59-6.64,.48-2.51,2.22-4.16,5.19-3.08,.67,.25,1.35,.49,2,.79,2.06,.93,4.11,1.86,6.16,2.82,2.06,.96,3.92,2.24,5.69,3.65,2.58,2.05,5.25,3.94,8.05,5.68,.51,.32,.97,.78,1.67,.75,.57-.48,.1-.93-.12-1.31-.86-1.52-1.81-2.98-2.66-4.51-1.11-1.99-1.23-4.12-.53-6.26,.88-2.72,2.66-3.81,5.45-3.2,3.17,.69,5.97,2.16,8.33,4.43,1.63,1.56,3.2,3.19,4.84,4.75,1.79,1.69,3.66,3.3,5.45,4.99,1.64,1.55,3.22,3.17,4.45,5.09,1.06,1.66,2.71,2.45,4.49,3.04,.43,.14,.87-.23,.8-.65-.05-.3-.11-.61-.22-.89-1.18-3.29-1.94-6.7-2.72-10.1-1.34-5.81-3.57-11.35-5.48-16.98-.56-1.66-1.51-3.13-2.39-4.65-2.19-3.8-5.55-5.64-9.78-6.11-1.42-.16-2.87-.18-4.3-.18-2.16,0-4.31,.05-6.47,.12-6.7,.23-12.72-1.87-18.33-5.36-1.13-.71-2.23-1.47-3.3-2.26-2.14-1.56-3.58-3.67-4.53-6.1-1.07-2.75-.19-5.34,2.28-6.96,1.76-1.15,3.67-1.66,5.8-1.73,5.44-.18,9.93,2.17,14.25,5.05,1.02,.68,1.96,1.49,2.97,2.2,4.23,2.96,8.57,3.04,13,.44,1.46-.85,1.64-1.62,.52-2.94-1.61-1.89-3.45-3.54-5.77-4.52-2.64-1.11-5.27-2.29-8.2-2.54-.91-.08-1.82-.35-2.68-.67-3.65-1.37-7.29-2.76-10.92-4.2-.95-.38-1.89-.84-2.72-1.43-2.63-1.87-3.94-4.42-3.57-7.69,.3-2.61,1.92-3.82,4.5-3.32,1.2,.23,2.37,.68,3.48,1.19,1.58,.73,3.15,1.53,4.62,2.46,2.39,1.52,5.08,2.17,7.75,2.9,.39,.11,.81,.12,1.22,.14,1.08,.05,1.59-.55,1.24-1.51-.25-.67-.54-1.33-.89-1.96-1.15-2.06-2.31-4.12-3.51-6.15-1.48-2.52-2.4-5.2-2.74-8.11-.11-.93-.04-1.83,.11-2.75,.54-3.35,5.62-5.37,8.27-2.58,.28,.3,.6,.57,.86,.88,2.57,2.98,4.61,6.29,5.89,10.02,.4,1.17,.58,2.38,.73,3.61,.33,2.69,1.41,5.12,2.86,7.4,.13,.21,.51,.37,.75,.36,.34-.02,.42-.4,.43-.71,0-.72,.04-1.44-.04-2.15-.57-4.68-.99-9.38-2.24-13.97-1.05-3.86-1.75-7.81-2.21-11.79-.09-.82-.17-1.62,.07-2.44,.8-2.7,3.51-3.49,5.52-1.56,.65,.63,1.18,1.43,1.62,2.23,.89,1.62,1.74,3.26,2.51,4.94,2.22,4.86,4.37,9.73,5.58,14.97,.51,2.2,1.23,4.34,1.91,6.5,.89,2.86,1.42,5.78,1.71,8.75,.29,2.94,1.38,5.51,3.05,7.95,2.82,4.11,6.56,7.02,11.06,9.02,.47,.21,.93,.46,1.42,.58,1.38,.35,2.51,1.43,4.02,1.39,.77-1.54-.33-2.92-.41-4.39-.19-3.42-1.24-6.64-2.34-9.85-.84-2.48-2.18-4.64-4.03-6.48-1.02-1.01-2.02-2.06-3.1-2.99-3.02-2.61-4.16-6.01-4.24-9.86-.02-.72,0-1.45,.11-2.15,.69-4.19-.12-8.12-1.79-11.99-1.18-2.75-2.46-5.37-4.43-7.68-1.59-1.87-2.87-4-4.36-5.96-2.71-3.54-.1-7.47,3.44-7.7,4.05-.26,7.74,.74,10.88,3.4,3.08,2.61,4.96,5.98,6.01,9.83,.46,1.68,.88,3.38,1.38,5.05,.55,1.85,1.68,3.19,3.41,4.17,3.61,2.04,6.17,5.02,7.57,9.02,.75-.05,.52-.73,.65-1.1,.57-1.65,1.15-3.32,2.13-4.77,2.42-3.55,3.05-7.56,3.16-11.71,.06-2.26,.08-4.52,.1-6.77,.01-1.76,.36-3.47,.69-5.18,.1-.5,.26-1,.44-1.47,1.15-3.02,3.29-3.82,6.09-2.25,.53,.3,1.09,.63,1.5,1.07,2.58,2.86,4.75,5.91,5.06,9.95,.14,1.93,.47,3.85,.69,5.64,.65,.59,1.09,.19,1.5-.04,1.28-.7,2.55-.58,3.87-.13,.7,.24,1.22-.12,1.45-.77,.3-.87,.52-1.77,.77-2.66,.31-1.09,.73-2.15,1.42-3.05,1.07-1.4,2.47-1.77,4.09-1.07,1.98,.85,3.36,2.28,4.18,4.29,1.46,3.56,2.07,7.3,2.31,11.1,.08,1.22,.01,2.46,.16,3.69,.55-2.42,.89-4.85,.86-7.34-.03-2.57,.04-5.13,.06-7.7,.01-1.24,.14-2.46,.54-3.64,.9-2.61,2.7-3.22,5.03-1.67,1.57,1.05,2.72,2.49,3.55,4.18,.82,1.66,1.6,3.33,2.43,4.98,.48,.96,.82,1.14,1.67,.61,1.91-1.19,3.72-1.13,5.39,.33,1.78,1.57,2.89,3.43,2.21,5.98-.54,2.02-1.35,3.87-2.76,5.44-1.59,1.77-2.81,3.8-3.8,5.95-.38,.83-.65,1.73-.89,2.61-.19,.68,.08,1.25,.77,1.46,2.97,.92,3.78,3.19,3.8,5.98,.02,1.95,.1,3.9,.07,5.85-.03,2.38,.48,4.69,.71,7.04,.08,.8,.5,1.32,1.34,1.44,.51,.07,1.07,.04,1.51,.25,1.95,.91,3.06-.13,4.11-1.59,2.05-2.84,3.11-5.99,3.23-9.47,.06-1.75,.12-3.49,.56-5.19,.21-.79,.4-1.6,.7-2.36,.88-2.23,2.35-3.2,4.45-3.05,2.31,.17,4.49,1.64,4.73,3.74,.38,3.4,1.77,6.52,2.28,9.88,.63,4.15-.11,7.97-2.16,11.55-2.09,3.65-4.27,7.25-6.43,10.86-.95,1.59-1.69,3.28-2.3,5.03-.31,.88-.54,1.78-.31,2.71,.08,.33,.43,.53,.7,.38,.8-.45,1.56-.98,2.32-1.49,1.54-1.04,3.16-1.91,5-2.31,2.85-.63,4.93,.49,5.65,3.3,1.03,4.02,.42,7.74-2.49,10.9-2.03,2.2-4.46,3.95-6.83,5.73-1.88,1.41-3.12,3.12-3.91,5.35-1.04,2.93-1.97,5.83-1.81,8.98,.02,.41,.07,.82,.17,1.21,.09,.35,.43,.5,.72,.3,.41-.29,.77-.67,1.1-1.04,2.6-2.91,5.18-5.83,7.78-8.73,.9-1.01,1.99-1.79,3.21-2.35,2.07-.95,3.4-2.53,4.4-4.54,1.48-2.97,2.53-6.04,2.88-9.36,.41-3.9,1.59-7.63,2.89-11.31,.45-1.26,1-2.49,1.85-3.53,1.72-2.13,4.26-2.16,6.07-.11,1.27,1.44,1.87,3.17,2.19,5.02,.74,4.27,.99,8.55,.16,12.86-.56,2.92-1.01,5.87-1.47,8.81-.71,4.5-2.6,8.39-5.78,11.67-2.36,2.43-4.77,4.8-7.38,6.98-1.65,1.38-3.16,2.93-4.68,4.46-2.1,2.12-4.21,4.2-6.52,6.1-2.81,2.31-4.95,5.2-6.74,8.34-1.26,2.22-1.63,4.59-1.08,7.14,1.19,5.53,1.55,11.17,2.19,16.78,.46,3.97,.93,7.95,1.48,11.91,.3,2.17,.26,4.3-.33,6.41-1.26,4.52-1.45,9.08-.81,13.73,.44,3.25,.64,6.53,.92,9.8,.08,.93,.21,1.83,.61,2.68,1.86,4,3.62,8.05,5.03,12.23,.15,.43,.59,.66,.98,.37,1.61-1.14,3.43-1.31,5.29-1.22,1.85,.08,3.1-.77,4.05-2.29,1.42-2.3,2.54-4.64,2.4-7.49-.12-2.45-.75-4.66-2.27-6.57-1.34-1.69-2.76-3.31-4.17-4.93-1.01-1.16-2.05-2.29-3.08-3.44-1.88-2.1-2.55-4.65-2.73-7.37-.1-1.56,.18-3.08,1.06-4.42,.9-1.37,2.18-1.77,3.75-1.26,1.19,.39,2.18,1.12,3.21,1.81,.77,.51,1.5,1.08,2.42,1.31,.73,.18,1.49-.27,1.63-1.02,.27-1.44,.04-2.86-.21-4.28-.83-4.66-2.16-9.19-3.81-13.62-1.47-3.96-2.5-8.03-3.1-12.21-.24-1.65-.18-3.27,.27-4.88,1.4-4.98,6.4-6.54,10.42-3.25,1.39,1.14,2.27,2.63,2.99,4.24,1.71,3.85,3.39,7.71,4.75,11.69,.97,2.82,1.95,5.63,3,8.41,1.73,4.56,4.02,8.78,7.7,12.09,.68,.62,1.39,1.23,2.18,1.69,1.69,.98,3.15,.67,4.31-.91,.48-.65,.83-1.42,1.11-2.18,.94-2.54,1.35-5.16,1.12-7.87-.36-4.31-1.1-8.55-2.58-12.63-1.75-4.83-3.75-9.55-6.07-14.14-1.81-3.57-3.59-7.16-5.36-10.75-1.05-2.12-2.13-4.22-3.52-6.14-2.78-3.84-3.07-8.17-2.52-12.66,.17-1.34,.73-2.56,1.5-3.67,1.95-2.82,4.89-3.42,7.77-1.55,1.48,.96,2.69,2.24,3.61,3.74,4.3,7,8.39,14.12,11.7,21.66,1.4,3.19,2.98,6.31,4.54,9.43,.69,1.38,1.48,2.71,2.61,3.79,.69,.66,1.61,.58,2.11-.21,.38-.6,.73-1.25,.92-1.93,.32-1.18,.65-2.4,.73-3.61,.31-4.72,.19-9.42-.21-14.15-.52-6.15-1.71-12.19-2.59-18.28-.04-.3-.11-.61-.12-.92-.31-8.02-.37-16.03,1.75-23.86,1.35-4.99,3.41-9.67,6.71-13.73,1.19-1.46,2.6-2.64,4.17-3.6,2.64-1.62,5.45-1.14,7.45,1.22,1.64,1.94,2.57,4.18,2.79,6.71,.38,4.29,.86,8.58,1.17,12.87,.61,8.4,1.43,16.76,3.25,25,.64,2.91,1.19,5.83,1.18,8.83,0,.4,.09,.81,.2,1.21,.12,.46,.81,.72,1.28,.55,1.04-.38,1.65-1.2,2.17-2.09,1.36-2.35,2.05-4.93,2.23-7.62,.25-3.9,.25-7.82-.77-11.63-1.85-6.85-.82-13.42,1.72-19.88,1.65-4.2,3.59-8.29,4.96-12.61,1.06-3.34,1.95-6.71,2.2-10.21,.31-4.33,.1-8.62-1.33-12.78-.43-1.26-.78-2.55-1.11-3.84-.47-1.8-.66-3.62-.32-5.49,.22-1.21,.24-2.45,.4-3.67,.39-3.11,2.08-5.27,4.89-6.61,2.42-1.16,4.95-1.35,7.51-.75,2.09,.49,3.65,1.81,4.83,3.59v45.59c-.42,.96-.44,1.99-.49,3.01-.06,1.23-.09,2.47-.3,3.67-.42,2.55-.38,5.11-.34,7.67,.03,1.66,.32,3.26,1.13,4.74v149.69Zm-138.61-158.97c.24-4.23-.58-8.62-2.59-12.78-2.06-4.24-4.21-8.44-5.77-12.91-.1-.28-.36-.51-.7-.39-.17,.06-.35,.25-.4,.43-1.16,3.61-1.54,7.26-.03,10.83,2.14,5.05,3.28,10.35,4.13,15.72,.43,2.73,.77,5.48,1.14,8.22,.11,.82,.25,1.62,.72,2.33,.22,.33,.84,.42,1.06,.1,.35-.5,.7-1.01,.95-1.56,1.44-3.06,1.6-6.33,1.48-9.99Zm-51.48-42.58c.56,2.11,.91,3.7,1.97,5.67-.34-3.08-.41-3.26-1.97-5.67Z"/><path class="cls-4" d="M544.95,417.62c1.63-3.39,3.32-6.67,5.02-9.94,.52-1,1.09-1.99,1.79-2.86,1.13-1.42,2.64-1.82,4.1-1.26,1.57,.6,2.4,2.04,2.13,4-.31,2.24-.92,4.43-1.73,6.54-1.21,3.18-1.93,6.49-2.7,9.78-.19,.8-.39,1.6-.2,2.43,.08,.38,.66,.66,.96,.43,.32-.25,.66-.5,.9-.82,2.28-3.02,3.82-6.34,3.92-10.18,.1-4,.12-8.01,.11-12.01,0-3.08,.02-6.15-.61-9.2-.29-1.4-.24-2.87,0-4.29,.28-1.61,1.07-2.91,2.66-3.52,1.33-.51,2.66-.42,3.78,.53,1.92,1.64,3.24,3.5,3.31,6.27,.09,3.37,.71,6.73,1.07,10.09,.78,7.35,.34,14.52-2.55,21.46-1.62,3.88-2.82,7.93-3.58,12.08-.32,1.73-.4,3.47-.22,5.21,.12,1.25,.49,2.41,1.52,3.26,.76,.62,1.6,.51,2.08-.31,.1-.18,.21-.36,.28-.55,2.45-6.01,4.45-12.14,5.07-18.65,.18-1.84,.47-3.67,.59-5.51,.25-3.7,.11-7.39-.72-11.02-.6-2.63-.49-5.31-.45-7.97,.02-1.35,.29-2.66,.99-3.83,1.35-2.28,3.72-2.33,5.18-.12,.28,.43,.51,.89,.72,1.36,2.14,4.92,3.79,9.98,4.26,15.36,.29,3.37,.67,6.73,.75,10.13,.11,5.48-.59,10.85-1.45,16.23-.23,1.43-.35,2.85-.42,4.28-.07,1.53-.2,3.07-.38,4.6-.31,2.54-.16,5.03,.69,7.73,.9-1,1.1-2.01,1.28-2.98,.84-4.54,1.63-9.09,1.98-13.7,.21-2.76,.42-5.52,.68-8.28,.17-1.84,.57-3.65,1.21-5.4,.28-.77,.64-1.51,1.22-2.12,1.72-1.78,3.93-1.48,5.05,.74,.85,1.69,1.11,3.52,.95,5.39-.1,1.12-.23,2.25-.47,3.35-.51,2.33-.62,4.68-.62,7.04,0,4.62,.04,9.24,.04,13.86,0,2.38,.38,4.7,.92,7.01,.28,1.21,.75,2.35,1.77,3.16,.64,.51,1.36,.46,1.9-.16,.98-1.11,1.54-2.44,1.79-3.87,.34-1.92,.73-3.84,.86-5.78,.49-7.1,.2-14.17-1.54-21.1-1.37-5.44-1.67-10.94-1.48-16.5,.07-2.08,.52-4.07,1.48-5.92,.48-.93,1.14-1.7,2.11-2.16,1.95-.94,3.74-.33,4.51,1.7,.84,2.22,1.26,4.54,1.37,6.92,.14,2.98,.59,5.92,1.18,8.84,.39,1.96,1.27,3.67,2.35,5.31,.4,.61,.87,1.14,1.54,1.46,.62,.29,1.21,.25,1.7-.23,.76-.72,1.23-1.64,1.62-2.59,.77-1.91,1.37-3.89,1.66-5.92,.65-4.58,.95-9.15,.43-13.8-.53-4.68-.61-9.42-.97-14.12-.18-2.36-.22-4.71,.11-7.06,.23-1.64,.62-3.24,1.42-4.69,1.46-2.64,4.06-2.89,6.02-.59,1.25,1.47,1.76,3.25,1.95,5.11,.45,4.39,1.09,8.76,1.86,13.1,.16,.91,.32,1.82,.51,2.72,.86,4.12,1.42,8.26,1.56,12.5,.13,3.9,.23,7.79,.31,11.69,.02,1.12,.12,2.26,.33,3.36,.15,.79,.45,1.69,1.36,1.89,.97,.22,1.46-.6,1.91-1.28,.91-1.39,1.46-2.95,1.75-4.58,.72-4.17,.84-8.37,.5-12.58-.29-3.58-.59-7.16-.86-10.74-.16-2.08,.16-4.11,1.06-6,.34-.73,.79-1.46,1.36-2.03,1.68-1.69,3.79-1.63,5.4,.14,1.64,1.81,2.39,4.04,2.75,6.41,.43,2.84,.77,5.69,1.25,8.52,.38,2.23,.98,4.41,2.02,6.44,.41,.8,.7,1.94,1.76,1.94,1.14,0,1.24-1.22,1.53-2.04,1.04-2.92,1.44-5.98,1.83-9.03,.6-4.78,.92-9.6,1.88-14.34,.37-1.81,.75-3.62,1.52-5.32,.38-.84,.79-1.68,1.49-2.31,1.36-1.24,3.15-1.22,4.39,.14,.62,.67,1.12,1.47,1.57,2.27,1.58,2.78,2.8,5.72,3.64,8.8,1.4,5.15,2.86,10.3,3.29,15.65,.36,4.5,.9,8.99,.85,13.51,0,.82,0,1.66-.17,2.45-.96,4.62-1.73,9.29-3.25,13.77-1.45,4.28-1.53,8.59-1.01,13.06,.63,5.45,2.84,10,6.56,13.92,5.13,5.41,7.63,12.05,9.06,19.23,.84,4.23,.29,8.38-.23,12.56-.85,6.77-2.73,13.27-5.57,19.47-2.9,6.31-6.79,11.95-11.97,16.64-2.22,2.01-4.75,3.58-7.51,4.76-7.74,3.31-15.78,5.15-24.23,5.11-5.24-.02-10.47-.02-15.71,.09-3.74,.08-7.38-.42-10.95-1.44-4.93-1.42-9.84-2.91-14.75-4.4-6.68-2.02-11.97-6.2-16.87-10.97-.81-.79-1.58-1.61-2.41-2.37-.43-.4-1.05-.24-1.24,.34-.81,2.47-2.03,4.71-3.67,6.72-.71,.87-1.39,1.8-2.23,2.53-4.36,3.78-8.99,7.18-14.59,8.93-2.54,.8-5.13,1.45-7.71,2.13-3.97,1.05-7.5-.3-10.87-2.19-.77-.43-1.41-1.19-1.97-1.92-4.33-5.66-6.88-12.05-8.03-19.09-.72-4.44-.49-8.79,.3-13.16,.39-2.14,.39-4.29,.43-6.44,.08-4.57-1.91-8.33-4.58-11.82-.94-1.22-2.21-1.71-3.76-1.73-2.18-.03-4.31,.33-6.41,.77-3.81,.8-6.63-.74-8.9-3.55-2.17-2.68-1.61-5.73,1.27-7.69,1.57-1.07,3.29-1.58,5.22-1.57,4.33,.03,8.6,.57,12.81,1.52,1.31,.3,2.62,.53,3.96,.4,1.09-.1,1.63-.76,1.6-1.86-.02-.63-.12-1.24-.48-1.75-1.25-1.76-2.5-3.5-4.31-4.77-3.32-2.32-6.99-3.88-10.79-5.17-.57-.19-1.2-.3-1.81-.32-4.22-.16-7.97-1.84-11.66-3.66-5.57-2.75-8.06-11.41-5.39-16.29,.8-1.47,1.72-2.81,3.19-3.66,1.66-.96,3.42-1.33,5.33-.8,2.21,.62,4.2,1.67,5.92,3.17,1.16,1.01,2.21,2.15,3.36,3.16,.84,.74,1.72,1.5,2.7,2.01,1.62,.85,3.02,.3,3.81-1.37,.62-1.32,.9-2.72,.9-4.18,0-3.62-.65-7.14-1.69-10.6-1.12-3.74-2.25-7.47-3.33-11.22-.4-1.38-.72-2.78-.95-4.2-.25-1.54-.08-3.08,.58-4.52,1.09-2.36,3.45-3.32,5.89-2.41,1.9,.71,3.28,2.06,4.46,3.65,2.44,3.25,4,6.92,5.06,10.81,1.08,3.96,1.94,7.97,2.53,12.05,.38,2.64,.99,5.23,1.71,7.81,1.04,3.7,3.04,6.7,6.04,9.06,2.02,1.58,4.04,3.16,6.11,4.69,1.33,.98,2.79,1.75,4.38,2.21,1.07,.31,1.84-.01,2.21-1.07,.37-1.06,.72-2.16,.83-3.27,.52-5-.85-9.54-3.6-13.7-.96-1.45-1.99-2.86-2.92-4.34-1.45-2.29-3.44-4.07-5.41-5.87-.76-.69-1.55-1.35-2.37-1.97-1.99-1.5-3.59-3.34-5.1-5.31-1.56-2.04-3.26-3.96-4.87-5.95-.92-1.13-1.54-2.43-1.82-3.86-.12-.6-.21-1.22-.17-1.83,.2-2.94,1.98-4.47,4.92-4.21,1.77,.16,3.41,.74,4.77,1.94,.54,.48,1.04,.99,1.58,1.47,.32,.28,.88,.11,.98-.32,.18-.79,.38-1.6,.44-2.41,.1-1.23,.1-2.46,.13-3.69,.08-3.06,1.11-5.82,2.6-8.45,.59-1.03,1.34-1.86,2.67-1.71,1.24,.14,2.11,.89,2.53,2,.36,.95,.58,1.97,.69,2.98,.21,1.84,.17,3.69-.09,5.53-.22,1.53-.27,3.05,.12,4.62Z"/></g><path class="cls-6" d="M347.22,599.11c-120.84,0-241.67,0-362.51,0-1.99,0-3.99,.02-5.97-.13-1.7-.13-2.44-.95-2.66-2.62-.1-.76-.1-1.53-.11-2.29-.02-1.22,0-2.45,0-3.68,0-192.34,0-384.69,0-577.03,0-1.99,.02-3.98,.1-5.97,.07-1.55,.94-2.56,2.42-2.99,.88-.25,1.79-.53,2.69-.55,3.98-.06,7.96-.11,11.94,.01,1.35,.04,2.7,.51,4.01,.93,1.6,.51,3.16,1.18,4.74,1.74,6.19,2.2,12.48,2.94,18.92,1.14,1.03-.29,2.1-.47,3.12-.78,7.58-2.35,14.19-.38,19.98,4.7,1.92,1.69,3.83,2.34,6.28,1.66,2.5-.7,5.06-1.23,7.56-1.92,5.38-1.48,10.48-.8,14.69,2.82,4.61,3.96,9.82,5.4,15.69,5.24,.31,0,.62,.04,.92,0,5-.64,8.51,1.7,11.32,5.55,1.98,2.71,4.13,5.24,4.61,8.82,.29,2.15,1.91,2.92,4.14,2.55,1.36-.23,2.68-.62,4.02-.95,2.97-.73,5.69-.29,8.35,1.34,4.49,2.75,8.42,6.11,11.9,10.02,3.02,3.4,4.8,7.43,5.82,11.83,.55,2.36,.17,4.52-1.12,6.59-2.11,3.38-4.11,6.82-6.18,10.21-1.7,2.78-2.95,5.72-3.32,8.98-.41,3.58-1.87,6.76-3.52,9.89-2.07,3.91-4.98,6.82-9.1,8.71-4.46,2.04-8.84,4.26-13.61,5.49-5.7,1.46-9.6,5.16-12.8,9.82-.52,.76-1.04,1.52-1.5,2.31-3.22,5.51-8.24,8.51-14.26,9.96-3.77,.91-6.7,2.89-8.95,5.97-.72,.99-1.37,2.03-2.09,3.02-1.22,1.68-2.76,2.85-4.9,3.08-.61,.07-1.2,.27-1.81,.34-3.13,.33-5.36,2.11-7.23,4.45-1.15,1.43-2.23,2.92-3.31,4.41-1.81,2.5-3.88,4.74-6.4,6.53-2.21,1.56-3.47,3.66-4.42,6.22-1.63,4.41-4.86,7.32-9.63,8.24-.3,.06-.61,.07-.91,.11-3.71,.55-6.28,2.6-7.13,6.23-1.14,4.84-3.79,8.63-7.35,11.93-.78,.73-1.55,1.49-2.2,2.34-1.81,2.39-1.5,4.65,1.22,6.05,3.42,1.77,4.43,4.4,3.85,7.97-.12,.75-.19,1.52-.2,2.28,0,.75,.83,1.43,1.59,1.26,1.19-.27,2.36-.62,3.54-.96,2.26-.66,4.23-.21,5.91,1.48,.43,.44,.85,.89,1.32,1.28,3.99,3.23,5.41,7.27,3.96,12.26-.13,.44-.18,.9-.2,1.36-.2,4.48-1.14,8.8-2.95,12.91-.87,1.97-.85,3.86,.52,5.62,.84,1.09,2.1,1.39,3.23,.63,.76-.51,1.45-1.12,2.12-1.75,1.9-1.81,4.11-3.18,6.32-4.56,2.11-1.33,4.29-1.43,6.58-.49,3.67,1.52,6.4,4.16,8.62,7.35,1.29,1.86,1.39,4.05,.99,6.2-.47,2.56-1.07,5.09-1.71,7.61-.42,1.64-.85,3.25-.89,4.95-.05,2.2,.79,3.79,2.75,4.89,2.53,1.42,5.03,2.93,7.45,4.54,1.39,.93,2.68,2.04,3.86,3.23,2.67,2.7,3.14,5.84,1.55,9.28-1.03,2.24-2.42,4.26-3.94,6.18-2.19,2.78-3.9,5.85-5.49,9-1.06,2.1-1.57,4.29-1.52,6.64,.05,2.3,0,4.59,.03,6.89,.07,6.85-2.25,12.89-6.22,18.37-1.08,1.49-2.12,3-3.15,4.52-2.5,3.69-2.94,7.63-1.44,11.82,.67,1.89,1.6,3.64,2.67,5.32,2.89,4.51,3.18,9.15,.68,13.93-.64,1.22-1.21,2.47-1.8,3.72-.8,1.71-1.01,3.53-.87,5.38,.21,2.83,1.61,4.59,4.35,5.17,1.32,.28,2.76,.37,4.1,.18,5.15-.72,10.38-1.03,15.38-2.55,4-1.21,7.87-.85,11.73,.45,3.49,1.18,7,2.24,10.63,2.89,4.37,.78,7.93,3.08,11.2,5.97,5.48,4.83,9.59,10.69,13.13,17,1.8,3.2,3.54,6.44,5.35,9.64,.52,.93,1.14,1.81,1.8,2.66,2.25,2.9,5.04,4.87,8.84,5.11,6.25,.4,12.5,.87,18.76,1.26,1.06,.07,2.15-.07,3.2-.24,6.44-1.1,12.82-.89,19.12,.81,4.04,1.09,8.12,1.4,12.28,1.34,5.51-.08,11.01-.24,16.49,.72,3.99,.7,7.95-.38,11.84-1.06,5.44-.95,10.92-1.4,16.37-2.2,.45-.07,.92-.14,1.37-.08,7.03,.85,14.04-.4,21.07-.14,3.26,.12,6.47,.45,9.45,1.66,10.64,4.32,21.3,8.61,30.63,15.53,6.15,4.56,12.46,8.92,18.42,13.71,5.62,4.53,12.22,6.19,19.01,7.48,2.64,.5,5.17-.4,7.63-1.24,2.03-.69,3.97-1.61,5.97-2.38,4.29-1.65,8.61-3.13,13.22-3.76,6.21-.86,12.32-2.37,18.58-2.97,1.68-.16,3.36-.5,5.03-.17,4.09,.81,8.23,.72,12.36,.7,4.03-.02,7.93,.66,11.74,1.89,2.63,.85,5.33,1.39,7.97,2.16,8.78,2.54,16.99,6.12,22.85,13.64,.83,1.07,1.88,2.05,3.02,2.78,3.26,2.09,6.05,4.69,8.64,7.52,2.02,2.22,4.41,3.75,7.31,4.53,3.69,1,7.35,2.17,11.08,3.02,4.97,1.14,9.62,3.1,14.17,5.29,1.63,.78,3.15,1.91,4.51,3.12,2.06,1.83,4.23,2.43,6.73,1.21,1.47-.72,2.7-.51,3.67,.74,1.05,1.36,2.43,1.77,4.03,1.76,.46,0,.92,.04,1.38,.02,9.41-.42,18.61,1.13,27.8,2.86,6.32,1.19,12.66,2.27,18.97,3.46,8.3,1.56,16.34,4.06,24.27,6.91,7.23,2.6,14.61,4.47,22.28,5.3,10.64,1.14,21.28,2.38,31.9,3.75,9.73,1.25,18.71,4.47,26.55,10.59,5.19,4.06,10.84,7.48,16.43,10.94,6.02,3.72,11.49,8.06,16.53,13.06,8.29,8.21,15.72,17.13,22.85,26.34,2.9,3.75,5.92,7.41,8.89,11.11,.19,.24,.39,.47,.57,.72,.75,1.05,.26,2.12-1.13,2.23-1.68,.12-3.36,.13-5.05,.13-53.6,0-107.21,0-160.81,0-67.69,0-135.39,0-203.08,0Z"/><path class="cls-7" d="M-104.37,600.6c0-53.75,0-107.5,0-161.25,0-38.69,0-77.37,0-116.06,0-1.48-.2-2.98,.27-4.42,.19-.6,.68-.95,1.34-.7,.64,.24,1.26,.55,1.86,.89,3.73,2.07,7.16,4.56,10.35,7.37,5.09,4.49,9.75,9.34,13.46,15.06,4.27,6.58,9.67,12.16,15.93,16.92,5.75,4.37,11.49,8.76,17.2,13.18,3.72,2.88,7.34,5.87,10.19,9.67,1.86,2.48,3.45,5.12,4.97,7.81,.39,.7,.75,1.41,1.17,2.09,.43,.71,1.07,.79,1.79,.47,.31-.14,.61-.32,.9-.49,5.66-3.31,11.13-6.87,15.79-11.54,.72-.72,1.54-1.39,2.43-1.89,1.74-.98,3.26-.71,4.7,.65,.25,.24,.47,.51,.68,.77,1.13,1.4,2.63,1.75,4.33,1.47,1.47-.24,2.95-.45,4.41-.77,2.27-.5,4.55-.58,6.86-.51,2.3,.07,4.6,.05,6.87-.38,1.37-.26,2.74-.22,4.11,.07,.79,.17,1.61,.2,2.38,.41,5.62,1.58,11.36,1.49,17.12,1.28,2.91-.11,5.66-.99,8.44-1.65,2.79-.66,5.58-1.32,8.41-1.85,2.19-.41,4.12-1.41,5.9-2.71,1.43-1.05,2.43-2.41,2.83-4.16,.29-1.26-.07-1.96-1.24-2.44-1.2-.5-2.46-.55-3.72-.61-1.49-.07-2.98-.12-4.44-.52-2.88-.79-3.86-1.87-4.01-4.77-.17-3.43,.02-6.84,.86-10.2,1.37-5.54,2.37-11.16,4.23-16.58,.55-1.6,.77-3.34,.96-5.03,.35-3.17,.62-6.36,.81-9.54,.53-8.7,2.18-17.19,4.91-25.47,.83-2.51,1.34-4.99,.93-7.71-.43-2.83-1.55-5.24-3.39-7.35-1.05-1.21-2.2-2.33-3.34-3.46-3.58-3.57-5.01-7.93-4.31-12.83,.78-5.42,1.83-10.8,2.92-16.16,.64-3.14,1.84-6.11,3.39-8.94,.84-1.55,2.01-2.44,3.85-2.37,1.49,.06,2.99-.02,4.48,.12,1.45,.13,1.95,.81,1.99,2.29,.03,1.28-.33,2.46-.82,3.64-.82,2.01-1.55,4.05-2.3,6.08-.19,.52-.39,1.07-.03,1.9,.67-.85,1.25-1.63,1.88-2.35,.75-.86,1.55-1.69,2.34-2.51,.71-.75,1.42-1.5,2.17-2.21,1.67-1.57,3.31-3.17,5.05-4.65,1.42-1.21,3.09-1.99,4.98-2.19,1.52-.16,3.07-.18,4.06,1.23,1.01,1.45,.41,2.89-.43,4.15-1.52,2.28-3.11,4.52-4.77,6.71-4.13,5.43-7.52,11.22-8.93,17.96-.79,3.74-.64,7.49,.37,11.18,.32,1.18,1.5,1.48,2.45,.7,.44-.36,.85-.77,1.23-1.2,1.74-2,3.17-4.2,4.1-6.69,.4-1.07,.8-2.14,1.14-3.23,1.15-3.59,3.51-6.09,6.95-7.62,.73-.32,1.47-.65,2.22-.93,1.51-.58,2.05-1.73,1.97-3.24-.02-.45-.14-.9-.19-1.36-.1-.91-.26-1.82-.25-2.72,.13-8.24,2.49-10.87,9.82-14.46,1.8-.88,3.83-.77,5.77-.42,1.91,.34,2.93,1.82,2.78,3.72-.1,1.19-.61,2.2-1.38,3.07-.9,1.03-1.85,2.02-2.76,3,.25,.56,.58,.25,.8,.12,2.69-1.61,5.51-1.27,8.36-.61,1.5,.35,2.43,1.29,2.8,2.72,.62,2.34,.44,4.57-1.45,6.33-1.08,1.01-2.21,2.03-3.47,2.79-3.24,1.95-6.48,3.96-9.89,5.58-5.81,2.77-10.09,7.09-13.47,12.38-2.28,3.57-4.08,7.4-5.62,11.35-.12,.31-.26,.64,.19,1.1,1.52-1.52,2.97-3.1,4.37-4.73,4.11-4.79,8.71-9.09,13.55-13.15,1.42-1.19,3.06-2.02,4.79-2.67,.64-.24,1.31-.45,1.99-.53,1.29-.16,2.58-.1,3.34,1.19,.7,1.2,.53,2.45-.17,3.57-.54,.86-1.2,1.68-1.93,2.39-5.12,4.96-9.37,10.65-13.98,16.04-3.04,3.56-6.12,7.1-9.68,10.19-3.66,3.17-6.77,6.81-8.8,11.28-1.24,2.75-1.89,5.62-2.23,8.58-.13,1.12-.01,2.28,.06,3.41,.05,.69,.25,1.4,.96,1.69,.79,.32,1.3-.27,1.75-.77,1.24-1.37,2.21-2.92,3-4.58,2.49-5.21,6.01-9.76,9.86-13.98,3.25-3.55,7.3-6.24,11.93-7.91,1.94-.7,3.86-1.47,5.79-2.2,2.38-.89,3.66-2.68,4.13-5.08,.49-2.46,.99-4.93,1.34-7.41,.65-4.54,2.89-8.1,6.47-10.91,5.47-4.3,9.74-9.67,13.67-15.31,.65-.93,1.07-2.01,1.57-3.04,1.61-3.31,3.63-6.34,6.25-8.97,1.33-1.34,2.9-2.24,4.75-2.62,2.24-.46,3.86,.66,4.18,2.93,.29,2.07,0,4.08-.73,6.05-1.49,4.02-3.97,7.45-6.55,10.81-3.01,3.91-6.49,7.4-10.05,10.81-2.31,2.22-4.64,4.44-6.91,6.69-1.19,1.18-2.29,2.46-2.96,4.19,1.3,.16,1.89-.62,2.55-1.18,1.82-1.57,3.59-3.2,5.39-4.8,.69-.61,1.36-1.24,2.13-1.74,2.43-1.56,4.82-.84,5.82,1.87,1,2.7,1,5.45-.91,7.8-2.68,3.29-5.56,6.4-9.27,8.61-1.18,.71-2.35,1.46-3.59,2.04-4.01,1.84-7.51,4.4-10.9,7.15-1.06,.86-2.2,1.69-3.42,2.3-4.46,2.24-8.13,5.56-12.03,8.56-2.48,1.91-3.97,4.7-5.53,7.37-.69,1.18-1.21,2.47-1.97,3.61-1.71,2.56-2.21,5.48-2.68,8.41-.21,1.33,.63,2.12,2.03,2.07,1.58-.06,2.88-.82,4.06-1.73,1.91-1.46,3.72-3.05,5.58-4.57,1.5-1.24,2.97-2.53,4.54-3.67,1.11-.8,2.31-1.54,3.59-2.01,3.12-1.15,6.18-2.48,9.43-3.27,1.33-.32,2.64-.82,3.89-1.39,3.09-1.42,5.22-3.71,5.91-7.11,.69-3.38,2.13-6.5,3.26-9.73,1.65-4.74,4.95-7.88,9.44-9.88,1.67-.74,3.4-1.4,5.16-1.93,2-.6,3.46-.13,4.32,1.14,1.04,1.54,.95,3.48-.48,5.03-1.4,1.51-2.97,2.85-4.48,4.26-2.01,1.87-4.05,3.72-6.04,5.61-1.01,.95-1.8,2.07-2.38,3.33-.34,.74-.58,1.49-.46,2.32,.07,.46,.17,.96,.69,1.07,.29,.06,.71-.06,.93-.25,.69-.6,1.31-1.28,1.98-1.9,.92-.86,1.81-1.77,2.81-2.52,2.51-1.87,5.37-2.83,8.43-1.96,2.6,.74,4.18-.3,5.62-2.15,2.24-2.9,4.55-5.74,6.72-8.69,1.4-1.9,3.07-3.36,5.23-4.32,1.26-.56,2.47-1.21,3.71-1.81,2.34-1.13,4.69-.92,7.02,.01,1.59,.64,2.73,1.68,2.95,3.47,.23,1.89-.49,3.36-2.1,4.36-.78,.49-1.6,.91-2.42,1.3-1.66,.79-3.33,1.55-5,2.31-1.95,.89-3.41,2.3-4.44,4.15-.34,.6-.62,1.29-.06,1.9,.46,.5,1.06,.26,1.6,.09,.66-.21,1.3-.5,1.97-.63,.9-.17,1.82-.33,2.72-.28,2.1,.11,3.21,2.02,2.39,3.93-.52,1.22-1.47,2.08-2.58,2.68-2.73,1.49-5.54,2.79-8.79,2.66-1.03-.04-2.08-.08-3.1,.06-2.09,.3-4.12,.14-6.14-.44-3.71-1.07-7.04-.37-10.01,2.1-1.23,1.03-2.6,1.91-3.75,3.01-2.2,2.11-4.76,3.56-7.6,4.58-2.81,1.01-5.6,2.06-8.42,3.03-.86,.3-1.79,.5-2.69,.55-7.49,.4-13.24,4.15-18.19,9.36-1.73,1.82-3.42,3.72-4.51,6.03-.19,.41-.45,.87-.04,1.23,.22,.19,.65,.25,.95,.2,.68-.11,1.34-.29,2-.5,1.32-.41,2.63-.82,3.93-1.3,3.27-1.2,6.62-1.89,10.13-1.67,.57,.04,1.17,.07,1.72-.03,4.12-.78,8.22-.38,12.36-.03,4.58,.39,9.19,.26,13.73-.67,3.67-.76,7.32-.5,10.96,.22,2.48,.49,4.96,.97,7.45,1.43,4.13,.76,7.41,3.06,10.33,5.86,2.24,2.16,1.55,4.79-1.39,5.91-1.76,.67-3.58,.82-5.43,.47-1.58-.3-3.15-.65-4.74-.9-.55-.09-1.14-.01-1.69,.09-.51,.09-.86,.94-.65,1.4,.09,.21,.16,.45,.31,.6,1.61,1.64,3.15,3.31,4.24,5.36,.42,.79,1.28,.96,2.11,.81,1.24-.22,2.47-.51,3.7-.81,3.69-.89,6.8,.17,9.44,2.78,2.35,2.32,1.88,5.57-1.04,7.13-.6,.32-1.26,.59-1.93,.72-5.23,.98-10.46,1.46-15.75,.28-1.87-.42-3.51-1.18-4.7-2.66-2.64-3.28-5.61-6.33-7.46-10.21-.98-2.06-2.63-3.38-4.84-4.1-3.63-1.17-7.38-1.71-11.11-2.36-.91-.16-1.83-.13-2.69,.33-.6,.32-.94,1.24-.54,1.76,.56,.72,1.16,1.42,1.84,2.01,2.62,2.22,5.25,4.43,7.96,6.56,1.16,.91,2.47,1.68,3.78,2.37,4.59,2.39,9.04,4.97,13.22,8.03,3.06,2.24,6.48,3.88,10.17,4.93,2.1,.6,4.14,1.38,6.2,2.09,2.2,.75,4.4,1.04,6.77,.87,2.5-.18,5.04,.14,7.55,.32,.94,.06,1.74,.56,2.45,1.17,2.57,2.21,2.58,5.25-.11,7.31-2.23,1.72-4.85,2.58-7.67,2.74-1.85,.1-3.67-.08-5.48-.45-1.81-.37-3.65-.5-5.49-.17-1.58,.28-2.06,1.27-1.52,2.75,.68,1.87,2.15,2.72,3.97,2.76,3.03,.08,5.88,.99,8.8,1.61,.9,.19,1.8,.41,2.66,.71,.64,.23,1.34,.5,1.81,.96,2.39,2.34,3.8,5.13,3.58,8.54-.08,1.31-.7,2.42-1.74,3.23-.62,.49-1.28,1.02-2.02,1.29-6.13,2.21-12.99,2.02-18.02-3.65-1.44-1.62-2.69-3.42-3.85-5.25-2.77-4.36-6.07-8.32-9.28-12.33-1.64-2.04-3.6-3.83-5.42-5.73-.24-.25-.5-.48-.77-.69-.45-.33-.9-.96-1.48-.64-.66,.36-.2,1.01-.02,1.51,.27,.75,.6,1.48,.9,2.22,.35,.85,.7,1.69,1.05,2.53,1.71,4.18,2.68,8.48,2.21,13.03-.25,2.44,.16,4.73,1.36,6.94,.81,1.5,1.35,3.15,1.94,4.75,1.03,2.77,1.09,5.6,.13,8.39-1.56,4.54-6.44,5.54-9.41,1.77-2.42-3.07-4.18-6.55-4.63-10.54-.42-3.7-.53-3.75-3.8-1.7-1.94,1.22-4.01,2.25-5.69,3.85-.25,.23-.55,.42-.85,.58-1.84,.96-3.81-.1-4.06-2.18-.13-1.04,.1-2.04,.39-3.03,1.05-3.67,2.7-7.06,5.23-9.94,3.6-4.11,4.95-8.92,4.78-14.24-.06-1.83,.07-3.63,.27-5.45,.27-2.48,.22-5,.29-7.51,.02-.83-.26-1.58-.9-2.14-1.3-1.13-2.6-2.26-4.28-2.82-3.7-1.24-7.4-2.47-11.11-3.68-2.91-.95-5.88-.96-8.87-.56-2.31,.31-4.05,1.41-5.12,3.56-1.74,3.47-3.67,6.84-4.61,10.66-.66,2.68-1.9,5.11-3.57,7.35-2.58,3.47-3.91,7.47-4.55,11.7-.22,1.49-.11,2.97,.36,4.4,1.09,3.33,1.19,6.7,.51,10.15,1,.19,1.04-.73,1.49-1.11,.81-.7,1.67-1.18,2.77-1.23,2.27-.1,3.68,1.44,3.38,3.67-.09,.65-.68,1.22-.3,1.94,.58,.08,.78-.38,1.04-.73,.83-1.14,1.89-1.67,3.28-1.17,.97,.35,1.79-.11,2.67-.29,2.54-.51,4.02,.98,3.5,3.5-.07,.33-.22,.65-.32,.98q-.52,1.79,1.2,2.41c.43,.15,.89,.25,1.29,.46,1.54,.78,1.95,2.24,1.21,3.74-.48,.98-2.08,1.58-1.52,2.82,.43,.95,1.88,.51,2.83,.91,2.58,1.09,3.81,3.94,2.64,6.5-.42,.92-.95,1.88-1.68,2.56-1.49,1.41-2.11,2.93-1.38,4.9,.15,.42,.19,.89,.21,1.35,.12,2.61-1.34,4.55-3.97,4.64-3.2,.11-6.45,.06-9.44-1.43-.62-.31-1.23-.62-1.84-.94-.83-.45-1.71-.65-2.65-.66-1.12-.01-2.05,.45-1.91,.99,.23,.86,1.04,.76,1.68,.91,1.12,.26,2.25,.46,3.37,.73,1.8,.43,3.53,1.07,5.06,2.12,2.36,1.62,3.04,4.42,1.71,6.96-1.05,2.01-2.65,3.42-4.86,4.11-.88,.27-1.77,.51-2.62,.84-.71,.27-1.04,.98-.8,1.67,.23,.64,.53,1.26,.85,1.86,1.37,2.62,1.05,5.06-.78,7.34-.14,.18-.25,.38-.41,.55-3.61,4.02-4.78,9.02-5.74,14.09-.26,1.38,.09,1.89,1.38,2.33,.43,.15,.88,.25,1.33,.35,1.73,.38,2.81,1.49,3.42,3.07,.41,1.06,.74,2.16,1.1,3.24,.74,2.21,2.26,3.34,4.62,3.41,1.63,.05,3.22-.04,4.7-.8,4.47-2.3,9.36-3.05,14.26-3.77,1.39-.21,2.74-.07,4.11,.2,.57,.12,1.15,0,1.48-.59,.32-.57,.18-1.15-.18-1.6-.65-.8-1.34-1.57-2.09-2.27-1.74-1.62-2.83-3.57-3.21-5.91-.2-1.24-.41-2.48-.66-3.7-.57-2.78-1.22-3.41-4.01-3.89-1.25-.22-2.49-.44-3.75-.58-2.76-.31-4.96-1.77-7.03-3.41-1.52-1.2-1.68-2.92-.6-4.61,.94-1.46,2.12-2.73,3.75-3.44,1.4-.61,2.15-1.63,2.52-3.04,.21-.77,.44-1.55,.79-2.26,.5-1.02,1.04-2.04,1.7-2.96,.67-.94,1.53-1.78,2.87-1.47,1.37,.31,1.66,1.48,1.82,2.63,.15,1.13,.19,2.27,.24,3.41,.05,1.14,.02,2.28,.07,3.42,.03,.68,.05,1.4,.81,1.75,.51,.24,1.2-.29,1.66-1.4,2.25-5.5,4.49-11,6.68-16.52,.52-1.3,1.19-2.45,2.24-3.39,1.07-.96,2.32-1.47,3.72-1.64,1.77-.22,3.27,.34,3.99,2.01,.63,1.45,1.48,2.45,2.98,3.07,1.62,.67,1.95,2.15,1.72,3.74-.29,1.97-1.09,3.74-2.49,5.17-1.04,1.05-2.14,2.09-3.35,2.94-2.61,1.85-4.27,4.44-5.88,7.08-.8,1.3-1.03,2.77-.77,4.3,.76,4.52,2.03,8.9,3.77,13.14,.46,1.13,.95,2.57,2.52,2.39,1.32-.15,1.65-1.51,1.97-2.57,.88-2.96,1.37-6.02,1.52-9.1,.14-2.87,.59-5.66,1.42-8.41,.56-1.86,.92-3.77,1.45-5.63,.34-1.21,.76-2.41,1.57-3.4,1.42-1.76,3.68-1.6,4.88,.34,.74,1.2,1.02,2.55,1.18,3.91,.28,2.39,.31,4.78-.03,7.17-.83,5.77-1.98,11.5-3.96,16.97-1.04,2.88,0,4.59,2.88,5.31,1.23,.31,2.47,.56,3.66,.96,3.23,1.09,4.2,2.66,3.59,5.98-.36,1.92-.6,3.84-.55,5.78,.07,2.23,.79,2.9,2.94,2.85,1.86-.05,3.65-.52,5.35-1.22,2.4-.98,3.8-4.06,2.98-6.59-.56-1.73-1.27-3.44-2.15-5.03-1.26-2.27-1.93-4.59-1.83-7.19,.1-2.68-.75-5.18-1.82-7.6-.51-1.15-1.09-2.27-1.69-3.37-.83-1.55-1.19-3.2-1.25-4.93-.04-1.3,.17-2.5,1.14-3.46,1-.99,2.15-.41,3.31-.28,.57-.98-.16-2.01,.16-3,.33-1.01,.91-1.83,1.5-2.67,.48-.7,.22-1.29-.36-1.79-.44-.37-.94-.68-1.32-1.09-1.38-1.5-1.25-3.52,.31-4.83,.34-.29,.8-.45,1.18-.7,.51-.33,.76-.8,.81-1.42,.05-.68,.05-1.4,.31-2,.44-1.03,1.36-1.51,2.49-1.53,1.05-.02,1.99,.65,2.35,1.68,.11,.32,.23,.67,.22,1-.05,1.58,.54,2.54,2.22,2.91,1.11,.25,1.76,1.37,1.52,2.41-.54,2.39,.38,4.75-.14,7.15-.39,1.81,.58,3.57,.73,5.38,.06,.7,.79,1.08,1.29,1.55,1.25,1.17,1.41,2.56,.75,4.07-.51,1.15-1.09,2.26-1.64,3.4-.85,1.78-1.35,3.63-1.26,5.62,.04,.98,.78,1.37,1.69,.84,.59-.35,1.08-.85,1.67-1.19,1.43-.82,3.02-.37,3.8,1.1,.43,.8,.7,1.68,1.08,2.51,.08,.17,.36,.37,.53,.36,.45-.03,.5-.44,.34-.73-.74-1.41-.72-2.85-.32-4.33,.23-.86-.03-1.57-.69-2.15-.95-.84-1.82-1.74-2.42-2.87-.72-1.36-.57-2.33,.58-3.35,.85-.76,1.73-1.51,2.65-2.17,.94-.67,2.33-.49,2.69,.49,.6,1.65,1.57,2.95,2.79,4.18,.52,.52,.69,1.4,.98,2.05,.98,.38,1.59-.39,2.37-.49,1.17-.14,2.08,.42,2.32,1.52,.07,.33,.08,.68,.11,1.02q.22,2.52,2.1,5.13c.48-.77,.14-1.55,0-2.31-.16-.9-.45-1.77-.56-2.67-.26-2.07,.02-3.9,2.38-4.71,.85-.29,1.17-1.03,1.38-1.84,.2-.77,.35-1.58,.69-2.29,.91-1.89,3.23-2.13,4.42-.41,.6,.87,1.15,1.54,2.22,1.95,1.94,.75,2.01,1.09,1.84,3.43-.02,.21,.04,.42,.09,.79,1.07-.46,2.08-.93,3.12-1.32,1.24-.47,2.47-.44,3.66,.22,1.23,.68,1.67,1.96,1.07,3.21-.2,.41-.48,.78-.78,1.12-.49,.56-.7,1.14-.5,1.88,.61,2.25-.55,3.73-2.28,4.89-1.05,.7-2.18,1.27-3.26,1.92-.49,.29-.96,.63-1.43,.96-2.32,1.63-1.79,2.4,.15,3.3,2.56,1.19,3.74,4.1,2.91,6.94-.46,1.56-.79,3.01-.41,4.66,.43,1.89-.42,3.59-1.43,5.15-.68,1.05-1.53,2-2.24,3.04-.88,1.29-.46,2.37,1.02,2.93,.7,.27,1.35,.11,2.03-.02,1.07-.21,2.06,0,2.99,.52,1.8,.99,1.91,3.14,.09,4.1-2.55,1.35-5.3,2.22-8.23,2.28-1.87,.04-3.65,.42-5.34,1.19-.31,.14-.59,.35-.87,.55-.39,.28-.37,.97,.09,1.15,2.22,.91,4.26,2.21,6.68,2.7,2.02,.41,3.99,1.07,5.93,1.78,1.17,.43,2.38,.99,3.31,1.79,1.92,1.64,4.45,2.42,6.15,4.36,.48,.55,1.24,.47,1.93,.19,2.98-1.22,5.91-2.51,8.62-4.27,3.27-2.12,5.38-5.07,6.07-8.79,1.28-6.85,2.22-13.75,.46-20.7-.82-3.25-.49-6.58-.36-9.88,.03-.81,.3-1.56,.82-2.21,.6-.74,1.84-.62,2.34,.22,.37,.62,.48,1.28,.47,1.97,0,1.03-.03,2.05-.05,3.08-.04,2.74,.11,5.45,.75,8.15,.98,4.16,.85,8.38,.38,12.6-.14,1.25-.29,2.49-.43,3.74-.33,2.97-1.07,5.82-2.38,8.53-.96,1.99-2.31,3.64-3.97,5.11-1.34,1.18-1.41,1.89-.49,3.26,1.02,1.52,2.14,2.99,3.89,3.78,.53,.24,1.09,.48,1.61,.07,.39-.31,.39-.82,.32-1.27-.12-.79-.34-1.56-.43-2.36-.33-2.85-.46-5.7,.65-8.44,.3-.74,.61-1.48,1.28-2,.48-.37,1.02-.54,1.59-.25,.43,.22,.72,.62,.69,1.1-.03,.67-.05,1.39-.28,2.01-1,2.68-.87,5.37-.19,8.08,.33,1.33,.62,2.66,1,3.98,.12,.43,.51,.81,1.02,.77,.59-.05,.65-.57,.62-1.03-.1-1.36-.25-2.73-.36-4.09-.33-4.11,.8-7.91,2.6-11.55,1.21-2.46,2.47-4.9,3.72-7.34,1.05-2.05,1.67-4.22,2.21-6.46,.64-2.59,.33-4.96-.84-7.3-.41-.82-.8-1.65-1.1-2.51-.19-.55-.06-1.14,.44-1.55,.6-.5,1.32-.52,1.92-.14,.56,.36,1.1,.86,1.44,1.42,1.81,3.02,2.87,6.21,2.16,9.79-.56,2.81-1.29,5.55-2.61,8.12-1.46,2.85-2.93,5.69-4.29,8.58-.4,.85-1.36,1.97-.42,2.75,.65,.54,1.72-.29,2.53-.69,3.1-1.51,6.26-2.84,9.6-3.78,2.2-.62,4.28-1.63,6.3-2.76,1.93-1.08,3.16-2.63,3.67-4.73,.4-1.66,.75-3.34,1.08-5.01,.2-1.01,.35-2.03,.94-2.91,.33-.5,.81-.83,1.45-.72,.63,.11,1.03,.58,1.11,1.16,.11,.78,.2,1.61,.06,2.37-.41,2.24-.86,4.49-1.45,6.69-.71,2.64-2.27,4.67-4.72,6.06-3.01,1.71-6.14,3.11-9.48,4.05-.29,.08-.63,.36-.74,.62-.19,.47,.11,.89,.51,1.14,.78,.48,1.56,.96,2.39,1.36,2.93,1.39,5.65,3.04,7.82,5.5,.94,1.06,1.63,.98,2.48-.24,1.89-2.73,3.68-5.52,5.12-8.52,.49-1.03,.97-2.08,1.56-3.05,.35-.57,.86-1.07,1.39-1.48,.76-.59,1.92,.07,2.02,1.04,.09,.84-.19,1.59-.53,2.3-1,2.05-2.04,4.09-3.08,6.12-.21,.41-.5,.77-.72,1.17-.78,1.41-.46,2.2,1.13,2.37,1.59,.17,3.21,.18,4.82,.2,1.19,.01,2.23-.45,3.18-1.15,.92-.68,1.85-1.35,2.8-2,.74-.51,.7-1.1,.26-1.75-1.08-1.62-2.12-3.27-3.5-4.66-1.06-1.06-2.05-2.22-2.64-3.58-2-4.62-5.01-8.69-7.17-13.22-1.2-2.51-1.75-5.18-2.22-7.88-.24-1.35-.44-2.71-.75-4.04-.6-2.54-1.96-4.6-4.17-6.07-.66-.44-1.44-.76-1.86-1.49-.3-.51-.38-1.08-.05-1.62,.26-.42,.67-.59,1.15-.63,.97-.07,1.8,.31,2.59,.8,2.84,1.8,4.68,4.37,5.55,7.57,.54,1.98,.82,4.02,1.2,6.04,.19,.99,.17,2.03,.87,2.92,.13-.21,.32-.36,.33-.53,.2-3.9,.86-7.72,2.08-11.42,.86-2.59,.38-4.68-1.62-6.5-1.44-1.32-2.69-2.81-3.72-4.48-1.6-2.6-2.41-5.41-2.34-8.46,.01-.57,.04-1.15,.16-1.7,.18-.8,.54-1.53,1.48-1.68,.67-.11,1.42,.5,1.63,1.47,.24,1.11,.35,2.25,.46,3.38,.35,3.52,2.21,6.17,4.86,8.37,.49,.4,1.24,.18,1.38-.42,.19-.77,.39-1.56,.41-2.34,.08-2.28,.07-4.56,.11-6.84,.01-.91-.02-1.83,.08-2.73,.06-.58,.43-1.08,1.03-1.25,.75-.21,1.33,.15,1.8,.71,.54,.63,.72,1.42,.88,2.2,.49,2.38,.45,4.75,.14,7.15-.49,3.74-1.32,7.41-2.28,11.06-.32,1.21-.52,2.46-.91,3.65-1.57,4.76-1.73,9.65-1.37,14.57,.43,5.84,2.38,11.08,6.37,15.55,1.97,2.21,3.76,4.63,5.33,7.14,2.02,3.24,2.87,6.95,3.49,10.68,.45,2.7,.87,5.41,.76,8.17-.02,.45,.03,.91,.11,1.36,.03,.17,.25,.41,.4,.42,.14,0,.41-.22,.43-.37,.08-.56,.12-1.14,.11-1.7-.07-3.44,.13-6.86,.94-10.2,.35-1.46,.16-2.74-.65-3.91-2.92-4.25-4.95-9.02-8-13.19-4.63-6.32-5.09-13.31-2.9-20.55,1.12-3.71,2.61-7.31,4.01-10.93,1.36-3.53,2.35-7.13,3.06-10.85,1.04-5.45-.57-9.9-4.58-13.6-4.69-4.33-10.01-7.63-16.15-9.57-.88-.28-1.78-.48-2.64-.79-.53-.19-1.06-.46-1.52-.78-.9-.61-1.22-1.63-.8-2.36,.47-.82,1.29-1.05,2.08-.8,2.63,.82,5.35,1.36,7.85,2.56,5.21,2.48,10.23,5.22,14.22,9.49,.23,.25,.52,.45,.8,.65,.08,.06,.22,.04,.33,.06,.53-.33,.28-.79,.14-1.18-1.91-5.27-4.91-9.78-9.46-13.19-2.93-2.2-5.88-4.39-8.79-6.62-1-.76-1.93-1.62-2.85-2.47-.52-.48-.76-1.13-.77-1.85-.02-.94,1.02-1.79,1.87-1.45,.63,.25,1.23,.62,1.77,1.02,3.3,2.48,6.54,5.03,9.86,7.49,4.51,3.33,8.14,7.37,10.46,12.5,.23,.52,.54,1.01,.84,1.49,.26,.4,.92,.35,1.15-.09,1.78-3.47,2.24-7.16,1.7-10.98-.16-1.13-.91-1.76-2-2.11-2.65-.87-5.04-2.21-7.2-3.95-1.29-1.04-2.24-2.3-2.71-3.87-.16-.53-.2-1.12-.18-1.68,.02-.6,.37-1.11,.95-1.3,.6-.2,1.17,.06,1.52,.54,.46,.65,.8,1.38,1.23,2.05,1.06,1.65,2.31,2.5,4.75,3.2-.51-1.33-1.56-2.07-2.35-2.99-.75-.86-1.51-1.72-2.18-2.64-.33-.45-.52-1.02-.66-1.56-.12-.44-.02-.92,.36-1.25,.48-.42,1.04-.46,1.6-.21,.31,.14,.63,.31,.85,.56,2.12,2.4,4.44,4.61,6.26,7.28,3.52,5.16,4.48,10.66,2.76,16.63-.38,1.31-.85,2.61-1.38,3.87-.66,1.59-1.22,3.2-1.57,4.88-.09,.45-.07,.99-.32,1.32-1.59,2.11-1.28,4.54-1.3,6.92-.04,5.55-1.35,10.84-3.34,16-1.48,3.84-2.88,7.7-4.26,11.57-1.31,3.66-1,7.43-.49,11.17,.22,1.58,.88,3.09,1.83,4.4,2.58,3.52,4.61,7.36,6.81,11.1,.56,.95,1.02,2.03,2.27,2.74,1.05-2.15,1.94-4.13,1.93-6.51-.02-3.35-.48-6.56-1.67-9.71-1.45-3.87-2.21-7.91-2.11-12.07,.02-.8,.02-1.59,.42-2.33,.45-.83,1.82-.96,2.29-.13,.33,.58,.6,1.25,.69,1.91,.19,1.35,.26,2.72,.35,4.09,.25,3.93,1.58,7.58,2.98,11.2,.18,.46,.85,.55,1.12,.16,.92-1.31,1.81-2.64,2.7-3.97,.47-.7,.49-1.49,.49-2.3-.02-2.67-.56-5.21-1.94-7.54-.88-1.48-1.81-2.92-3.03-4.15-2.25-2.27-3.56-5.03-4.14-8.12-.84-4.42-.92-8.83,.36-13.21,1.6-5.48,3.41-10.9,4.3-16.56,.27-1.69,.61-3.37,.84-5.06,.47-3.56,.15-7.06-1.01-10.47-1.88-5.55-4.65-10.67-7.77-15.61-1.05-1.66-2.44-3.02-3.98-4.24-.72-.57-1.4-1.18-1.65-2.13-.27-1.05,.68-2.12,1.76-1.93,.94,.17,1.7,.68,2.41,1.27,2.03,1.7,3.88,3.58,5.26,5.85,2.61,4.31,5.03,8.71,6.86,13.41,1.42,3.66,2.35,7.39,2.1,11.35-.09,1.49-.06,2.93,1.17,4.13,.86,.84,.87,2.07,.85,3.23-.04,2.53-.55,4.99-1.13,7.43-.83,3.44-1.75,6.86-2.57,10.3-.62,2.6-.54,3.63,.2,5.97,.67,.11,.64-.46,.79-.83,.3-.73,.52-1.51,.88-2.21,.27-.53,.8-.85,1.43-.76,.64,.08,.98,.56,1.1,1.15,.23,1.14,.1,2.28-.1,3.4-.26,1.46-.55,2.92-.9,4.36-.56,2.33-1.12,4.67-1.82,6.96-.4,1.32-.24,2.42,.48,3.57,.95,1.53,1.77,3.12,2.62,4.64,.3-.07,.46-.05,.5-.12,3.82-5.68,5.93-11.89,5.09-18.74-.39-3.18-.51-6.36-.79-9.53-.24-2.77-.03-5.48,.72-8.13,.72-2.54,.93-5.16,1.39-7.74,.81-4.5-.3-8.59-2.67-12.42-.48-.77-.97-1.56-1.31-2.39-.27-.68-.03-1.36,.6-1.81,.61-.43,1.32-.54,1.93-.09,.54,.4,1.07,.88,1.43,1.44,2.54,3.9,4.34,7.98,4.02,12.82-.26,3.88-.73,7.7-1.88,11.46,.89,.31,1.01-.42,1.27-.78,1.14-1.6,1.91-3.37,2.28-5.31,.15-.78,.34-1.56,.6-2.31,.24-.68,.72-1.19,1.53-1.11,.8,.08,1.15,.71,1.36,1.37,.36,1.12,.23,2.26-.06,3.38-.65,2.58-1.78,4.94-3.38,7.07-.61,.82-1.21,1.7-1.98,2.37-1.75,1.51-2.12,3.4-1.97,5.55,.12,1.71,.11,3.42,.98,4.98,.78,.16,.98-.5,1.27-.93,1.64-2.48,3.23-4.99,4.88-7.47,3.13-4.71,3.8-9.98,3.4-15.42-.22-3.07-1-6.08-1.87-9.04-.49-1.66-1.22-3.21-2.29-4.58-2.59-3.32-3.05-7.03-2.21-11.03,.19-.89,.32-1.8,.34-2.71,.05-3.04-.5-5.91-2.54-8.33-.59-.7-1.12-1.44-1.19-2.42-.05-.81,.81-1.54,1.59-1.33,.7,.18,1.23,.59,1.73,1.07,1.26,1.22,2.17,2.69,2.73,4.31,1.02,2.94,1.55,5.96,1,9.08-.1,.56-.15,1.14-.31,1.68-.82,2.74-.22,5.19,1.49,7.41,.98,1.28,1.75,2.67,2.42,4.13,.14,.3,.39,.66,.74,.48,.25-.13,.46-.51,.52-.82,.55-3,.22-5.9-.97-8.72-.98-2.32-1.77-4.7-2.01-7.23-.09-.92-.2-1.84,.19-2.7,.23-.5,.58-.97,.97-1.37,.49-.51,1.4-.28,1.77,.33,.37,.62,.47,1.29,.46,1.97-.04,2.45,.66,4.73,1.54,6.97,.21,.53,.36,1.08,.59,1.61,1.82,4.23,1.67,8.5-.05,12.66-1.12,2.71-1.43,5.42-1.32,8.33,.39,10.38-.27,12.48-5.97,21.2-1.63,2.49-3.31,4.94-4.95,7.42-1.4,2.11-2.51,4.33-3.12,6.82-.56,2.33-1.45,4.57-2.58,6.7-2.45,4.65-4.66,9.41-7.76,13.72-2.01,2.79-3.34,5.99-4.67,9.15-1.59,3.79-3.03,7.65-4.28,11.56-.9,2.82-1.28,5.79-1.16,8.79,.06,1.47,.71,2.02,1.94,1.47,3.04-1.36,6.03-2.82,9.03-4.26,.6-.29,.76-.85,.54-1.45-.96-2.55-1.56-5.24-3.15-7.55-.84-1.22-1.41-2.61-2.07-3.94-.25-.51-.42-1.06-.53-1.61-.12-.59,.07-1.16,.56-1.52,.6-.45,1.29-.44,1.95-.11,.76,.38,1.14,1.09,1.53,1.8,.54,1,1.1,2,1.69,2.97,.09,.15,.4,.27,.58,.24,.18-.03,.44-.25,.47-.42,.3-1.57,.51-3.15,.85-4.71,.55-2.57,1.08-5.14,1.77-7.67,1.3-4.76,3.27-9.24,6.04-13.37,2.67-3.99,5.37-7.95,8.35-11.74,2.68-3.42,4.9-7.18,6.74-11.13,1.75-3.76,2.71-7.76,2.85-11.92,.13-3.77,.13-7.53-.47-11.27-.56-3.44,.12-6.82,.49-10.22,.06-.53,.36-1.08,.67-1.54,.61-.89,2.15-.76,2.59,.22,.22,.51,.36,1.09,.37,1.65,.02,1.37-.07,2.74-.1,4.11-.08,3.42-.06,6.83,.48,10.24,.43,2.71,.3,5.46-.08,8.19-.17,1.24-.34,2.49-.46,3.74-.07,.71,.42,1.22,1.01,1.04,3.45-1.05,6.7-2.44,9.06-5.3,1.35-1.64,2.09-3.55,2.21-5.65,.09-1.59,.05-3.19,.08-4.79,.02-.8,0-1.6,.14-2.38,.12-.7,.56-1.26,1.36-1.34,.77-.08,1.33,.33,1.68,.96,.22,.39,.37,.83,.47,1.27,.72,3.31,.51,6.59-.46,9.81-.99,3.29-3.02,5.86-5.96,7.7-2.74,1.72-5.67,3.04-8.79,3.88-1.69,.45-2.8,1.26-3.47,2.94-1.27,3.2-3.28,6.01-5.04,8.95-.35,.59-.71,1.17-1.01,1.79-.07,.15,.02,.48,.16,.59,.14,.12,.44,.15,.63,.1,1.04-.3,1.82-.98,2.45-1.8,.7-.9,1.37-1.84,1.95-2.82,1-1.69,2.24-3.17,3.5-4.66,1.28-1.52,2.91-2.58,4.69-3.42,.51-.24,1.08-.41,1.64-.48,.75-.09,1.34,.26,1.68,.94,.28,.56,.17,1.1-.14,1.62-.43,.73-1.14,1.12-1.85,1.49-3.1,1.62-4.91,4.39-6.62,7.26-.18,.3-.23,.67,.09,.91,.15,.11,.44,.13,.64,.08,1.49-.42,2.66-1.32,3.7-2.42,1.66-1.75,3.11-3.66,4.37-5.72,2.69-4.39,5.64-8.61,8.68-12.76,1.43-1.95,3.09-3.69,4.93-5.25,.96-.82,2-1.55,3.32-1.71,.61-.07,1.14,.09,1.47,.65,.34,.56,.21,1.15-.16,1.59-.44,.52-.99,.94-1.53,1.37-2.25,1.8-4.23,3.86-5.88,6.22-2.76,3.93-5.64,7.78-8.06,11.94-1.33,2.29-3.15,4.2-4.94,6.14-2.12,2.3-4.72,3.66-7.8,3.97-3.32,.34-6.49,1.57-9.87,1.51-.71-.01-1.33,.3-1.85,.79-.83,.78-2.06,2.86-2.71,4.66,.36-.07,.7-.07,.98-.2,2.94-1.36,6.06-2.14,9.21-2.83,4.86-1.06,9.47-2.76,13.84-5.13,3.22-1.74,5.87-3.97,7.41-7.36,.42-.93,.87-1.88,1.75-2.5,.51-.36,1.07-.46,1.6-.1,.39,.26,.62,.67,.62,1.16,0,1.07-.4,2.05-.98,2.88-1.83,2.63-2,5.31-1.21,8.41,.93,3.66,.62,7.48,.22,11.24-.05,.45-.19,.89-.24,1.35-.12,1.06,.4,1.58,1.37,1.39,.45-.09,.89-.24,1.33-.37,1.78-.49,3.59-.72,5.45-.76,3.09-.07,5.43-2.19,5.74-5.22,.25-2.51,.17-5.02-.81-7.42-.56-1.37-1.18-2.73-1.71-4.11-.24-.63-.41-1.3-.47-1.97-.08-.81,.91-1.43,1.7-1.18,.82,.26,1.38,.82,1.79,1.52,2.63,4.47,3.88,9.24,3.2,14.43-.2,1.51-.95,2.79-1.69,4.09-.38,.66-.1,1.13,.63,1.18,1.85,.12,3.68-.03,5.46-.57,2.26-.68,3.57-2.44,3.67-4.81,.06-1.49-.17-2.95-.53-4.4-.22-.88-.35-1.79-.4-2.69-.03-.59,.33-1.1,.9-1.35,.75-.33,1.41-.02,1.81,.56,.45,.64,.84,1.38,1.02,2.13,.35,1.44,.6,2.91,.77,4.38,.69,5.68-4.15,10.19-8.89,9.97-3.77-.17-7.54,.25-11.32-.67-3.7-.9-6,1.35-5.65,5.11,.09,.95,.58,1.72,1.08,2.49,1.17,1.83,2.31,3.68,3.52,5.48,1.22,1.81,1.54,3.77,1.26,5.88-.22,1.7-.5,3.39-.6,5.1-.05,.93-.99,1.87-.03,2.8,1.04-.42,1.37-1.46,2-2.24,.36-.44,.62-.97,1.02-1.38,2.81-2.9,4.27-6.43,5.11-10.3,.39-1.78,1.02-3.51,1.59-5.24,.28-.86,.6-1.73,1.29-2.39,.44-.42,.97-.61,1.56-.37,.6,.24,.93,.76,.88,1.34-.09,.9-.31,1.79-.54,2.66-.48,1.76-1.03,3.5-1.51,5.27-.24,.9,.29,1.47,1.05,1.12,1.67-.77,3.32-1.57,4.93-2.44,.94-.51,1.48-1.42,1.91-2.36,.58-1.25,.94-2.56,1.22-3.91,.59-2.79,1.23-5.57,1.88-8.35,.21-.89,.54-1.73,1.34-2.32,.89-.66,2.23-.21,2.48,.85,.19,.81,.03,1.58-.14,2.37-.66,3.01-1.25,6.03-1.98,9.03-.35,1.43-.86,2.84-1.46,4.19-.81,1.82-2.13,3.23-3.98,4.11-1.25,.59-2.48,1.19-3.72,1.81-3.65,1.83-6.85,4.14-8.97,7.74-.75,1.27-1.76,2.39-2.65,3.59-.61,.83-1.17,1.7-1.83,2.48-2.3,2.69-1.9,5.4-.16,8.17,1.17,1.86,2.4,3.64,4.59,4.46,1.26,.47,1.99,.3,2.63-.81,.92-1.6,1.54-3.32,1.63-5.18,.08-1.94,.12-3.88,.14-5.82,.01-1.03-.01-2.05-.06-3.08-.13-2.89,1.26-4.76,3.93-5.77,.97-.36,1.95-.68,2.93-1,2.86-.94,4.97-2.77,6.56-5.27,2-3.15,3.03-6.64,3.69-10.25,.31-1.68,.47-3.39,.77-5.08,.25-1.42,.92-2.17,1.81-2.19,.99-.02,1.72,.94,1.84,2.49,.05,.57,.05,1.14,0,1.71-.59,5.87-2.13,11.44-5.5,16.39-1.73,2.54-4.24,4.13-7.04,5.3-.95,.4-1.94,.72-2.92,1.05-1.24,.43-1.82,1.33-1.86,2.6-.02,.68-.03,1.37,0,2.05,.16,4.49-.19,8.89-2.01,13.08-.5,1.15-.07,1.79,1.1,1.9,3.17,.29,5.68-.77,7.15-3.67,1.39-2.75,2.72-5.54,3.98-8.35,1.09-2.43,2.49-4.61,4.5-6.4,3.93-3.5,8.23-3.74,12.54-.66,.47,.33,.91,.7,1.38,1.03,1,.7,2.05,.87,3.26,.52,4.62-1.33,7.86-4.14,9.56-8.63,.26-.68-.08-1.13-.8-1.05-.57,.07-1.14,.14-1.7,.27-3.7,.86-7.06-.18-10.27-1.89-.69-.37-1.33-.91-1.86-1.5-1.44-1.62-1.23-3.71,.43-5.16,.64-.56,1.38-.8,2.23-.59,1.12,.28,2.19,.72,3.13,1.39,2.41,1.73,5.02,1.31,7.6,.67,1.07-.27,2.13-.81,2.96-1.65-.54-1.09-1.62-1.35-2.43-1.95-.83-.62-1.74-1.12-2.58-1.71-1.13-.79-2.28-1.55-3.32-2.44-1.02-.88-1.42-2.05-1.01-3.41,.32-1.09,1.21-1.68,2.34-1.59,1.08,.09,1.94,.65,2.8,1.23,1.81,1.21,3.63,2.41,5.46,3.6,1.57,1.02,3.27,1.61,5.19,1.57,2.41-.05,4.83-.05,7.24-.05,1.4,0,2.74-.31,4.06-.71,2-.6,2.46-1.26,2.19-3.21-.09-.67-.3-1.34-.51-1.98-.27-.81-.75-1.06-1.6-.72-1.84,.72-3.67,1.15-5.7,1.03-3.33-.2-6.3-1.06-8.83-3.32-.84-.75-1.93-1.22-2.92-1.79-.71-.41-1.34-.89-1.74-1.61-.63-1.12-.46-2.2,.25-3.22,.7-1,1.83-1.37,3.04-1.01,1.24,.36,2.26,1.1,3.27,1.87,1,.77,1.97,1.6,3.04,2.24,1.92,1.15,3.92,1.2,5.89,.07,.55-.32,.76-.87,.37-1.46-.25-.38-.56-.72-.86-1.06-1.46-1.67-2.42-3.59-3.05-5.7-.62-2.08-1.25-4.16-1.98-6.2-.7-1.97-1.37-2.42-3.36-1.67-2.44,.91-4.98,.71-7.5,.7-2.24-.02-3.61-1.33-4.63-3.07-.88-1.52,.15-3.4,1.91-3.54,.79-.06,1.6,.07,2.4,.17,1.73,.22,3.44,.16,5.16-.09,.3-.04,.69-.22,.84-.46,.29-.44,.02-.87-.3-1.21-1.34-1.42-2.76-2.75-4.62-3.49-.53-.21-1.08-.42-1.56-.71-.95-.57-1.53-1.39-1.38-2.55,.16-1.22,1.33-2.3,2.61-2.34,.67-.02,1.38,.1,2.02,.31,1.99,.65,3.72,1.74,5.27,3.15,4.18,3.8,6.91,8.49,8.78,13.73,.61,1.72,1.13,3.47,1.69,5.21,.21,.65,.37,1.32,.62,1.96,.45,1.12,1.19,1.38,2.17,.79,.59-.36,1.16-.74,1.69-1.19,1.46-1.23,1.67-2.05,.99-3.92-.71-1.93-1.45-3.85-2.72-5.52-.21-.27-.4-.56-.58-.85-.67-1.06-1.47-2.09-1.1-3.47,.38-1.4,1.49-1.91,2.77-2.26,.69-.19,.83-.8,.5-1.37-.39-.69-.86-1.35-1.38-1.94-2.68-3.04-6-5.31-9.4-7.45-.95-.59-2.12-.84-3.19-1.26-1.86-.73-3.62-.46-5.29,.53-2.66,1.58-5.32,3.17-7.96,4.8-1.37,.84-2.63,1.85-4.03,2.63-2.49,1.38-3.93,3.45-4.43,6.19-.47,2.62-1.44,5.04-2.73,7.35-.62,1.12-1.45,2.06-2.62,2.64-1.31,.65-2.61,.48-3.49-.45-.9-.94-1.01-2.21,0-3.4,1.92-2.27,2.94-4.87,3.28-7.77,.02-.2-.1-.42-.2-.79-1.22-.16-2.43,.15-3.62,.55-1.85,.62-3.68,1.3-5.53,1.94-.76,.26-1.51,.58-2.3,.7-1.15,.17-2.3-.54-2.81-1.58-.52-1.05-.3-2.02,.45-2.85,1.17-1.3,2.64-2.23,4.27-2.81,1.4-.5,2.86-.83,4.31-1.18,1.34-.33,2.71-.52,4.04-.89,3.61-.99,6.81-2.64,9.4-5.43,1.23-1.33,2.83-2.32,4.25-3.47,.27-.22,.47-.53,.25-.87-.11-.16-.36-.33-.56-.33-2.3-.02-4.6-.12-6.89,.01-3.21,.19-6.41,.56-9.62,.85-3.41,.3-6.33-.82-8.89-2.99-2.5-2.13-4-4.98-5.55-7.78-.56-1.01-.23-2.11,.56-2.8,.92-.79,2.11-.83,3.18-.11,.88,.59,1.47,1.43,2.03,2.3,.73,1.16,1.42,2.35,2.22,3.47,1.67,2.34,3.93,3.43,6.85,3.01,2.04-.29,4.08-.54,6.11-.81,.21-.78-.46-1.01-.83-1.38-2.61-2.62-4.78-5.55-6.32-8.91-.43-.93-.78-1.91-.98-2.91-.24-1.19,.49-2.33,1.56-2.76,.91-.37,2.05-.07,2.76,.85,.48,.63,.83,1.36,1.22,2.05,.91,1.59,1.73,3.22,2.73,4.75,1.46,2.23,3.37,3.91,5.79,5.22,3.06,1.65,6.16,2.97,9.57,3.73,3.69,.82,7.3,2.01,10.95,3.04,2.22,.63,4.33,1.54,6.38,2.58,.71,.36,1.45,.7,2.19,1,.5,.2,1.03-.01,1.06-.51,.13-1.81,.17-3.63,.18-5.45,0-.43-.22-.89-.44-1.28-1-1.79-2.03-3.58-3.07-5.35-.96-1.62-2.43-2.34-4.31-2.36-1.41-.02-2.76,.33-4.03,.85-5.14,2.1-9.23,.29-12.69-3.43-1.79-1.92-3.15-4.21-4.36-6.56-.26-.5-.48-1.05-.59-1.6-.22-1.08,.04-2.05,1-2.71,.97-.66,1.97-.49,2.93,.03,.84,.46,1.29,1.28,1.79,2.04,.94,1.43,1.83,2.9,2.84,4.28,.6,.82,1.35,1.55,2.13,2.22,1.2,1.04,2.65,1.36,4.2,1.06,1.68-.32,3.28-.87,5.05-1.5-.69-1.25-1.75-1.78-2.54-2.55-.82-.8-1.7-1.54-2.58-2.27-.89-.73-1.78-1.45-2.34-2.48-.91-1.65-.82-3.35,.26-4.45,1.06-1.08,2.99-1.42,4.48-.7,.71,.35,1.41,.79,2,1.33,2.45,2.24,4.9,4.49,6.72,7.31,.61,.96,1.3,1.9,2.12,2.68,2.19,2.08,3.97,4.42,5.33,7.1,.2,.4,.51,.75,.8,1.09,.27,.32,.93,.13,1.18-.26,.63-.96,.54-1.98,.19-2.96-1.33-3.66-2.92-7.07-5.87-9.91-3.29-3.16-6.04-6.86-9.11-10.27-2.08-2.31-3.86-4.82-5.36-7.53-.56-1.01-1.01-2.05-1.25-3.17-.23-1.07,.03-2.05,.66-2.91,.86-1.18,2.36-1.52,3.69-.89,.86,.41,1.54,1.04,2.04,1.8,1.63,2.5,3.45,4.84,5.61,6.91,1.16,1.12,1.5,2.99,3.29,3.53,.12-1.71-1.16-2.9-1.69-4.37-.58-1.6-1.38-3.13-2.08-4.69-.67-1.49-.34-2.75,.93-3.57,1.15-.74,2.41-.62,3.47,.34,.78,.7,1.3,1.59,1.71,2.54,1.92,4.44,3.4,8.97,3.02,13.91-.1,1.36-.14,2.73,.49,4.03,.59,1.2,1.22,1.45,2.42,.82,.2-.11,.36-.29,.56-.39,2.09-1.01,3.69-.32,4.07,1.96,.38,2.24,.5,4.53,.72,6.8,.03,.34,.05,.69,.02,1.03-.51,5.15,1.07,9.92,2.7,14.68,2.49,7.27,4.44,14.64,4.24,22.41,0,.33,.08,.67,.13,1.01,.88,.18,.87-.54,1.05-.99,1.58-4.05,1.6-8.22,1.16-12.48-.49-4.68-1.66-9.2-2.83-13.73-.57-2.21-1.09-4.43-1.17-6.73-.09-2.64-.05-5.26,.88-7.77,.73-1.97,.18-3.59-1.27-4.97-.99-.95-1.97-1.94-3.09-2.72-2.48-1.75-4.29-4.13-6.13-6.45-2.06-2.6-2.41-5.61-1.52-8.77,.35-1.23,1.16-1.94,2.44-2.08,1.47-.16,2.78,.83,2.93,2.27,.07,.67-.02,1.37-.05,2.05-.04,.92,.02,1.83,.47,2.66,.33,.6,.64,1.3,1.41,1.36,.87,.07,1.08-.73,1.35-1.33,.9-2.07,.77-4.24,.46-6.4-.14-1.02-.46-2.01-.56-3.03-.1-1.01-.15-2.07,.01-3.06,.35-2.2,2.38-2.95,4.11-1.56,1.87,1.5,2.89,3.54,3.31,5.85,.66,3.7,.15,7.27-1.48,10.67-.49,1.03-1.04,2.03-1.55,3.06-.41,.82-.24,1.55,.44,2.16,.26,.23,.49,.48,.76,.69,3.04,2.4,4.32,5.52,3.92,9.34-.02,.19,.14,.41,.21,.61,.58,.05,.81-.4,1-.79,1.25-2.6,1.34-5.28,.44-7.99-.43-1.3-.98-2.56-.97-3.97,0-.92,.07-1.82,.57-2.64,.88-1.42,2.48-1.77,3.87-.85,.9,.6,1.46,1.45,1.9,2.39,1.12,2.43,1.7,4.99,1.44,7.65-.46,4.9-2.04,9.45-5.47,13.04-2.81,2.95-3.21,6.15-2.2,9.79,1.35,4.86,2.12,9.81,2.35,14.84,.04,.92,.09,1.83,.64,2.62,.45,.65,.82,1.6,1.68,1.57,1.05-.04,.92-1.15,1.12-1.87,.57-2.04,.51-4.04-.33-6.03-1.46-3.48-2.69-7.04-3.61-10.7-.36-1.43-.72-2.88-.89-4.35-.17-1.52,.22-2.96,1.37-4.08,.98-.96,2.16-1.3,3.49-.88,1.39,.44,1.98,1.51,1.99,2.89,.01,2.4-.05,4.8,.66,7.13,.13,.43,.27,.87,.47,1.27,.16,.32,.48,.5,.85,.43,.2-.04,.39-.19,.57-.32,.09-.06,.17-.18,.19-.28,.64-3.22,1.85-6.4,.49-9.72-.17-.42-.35-.86-.39-1.31-.58-5.46-.94-10.92,.3-16.33,.46-2.02,1.29-3.91,2.71-5.48,1.18-1.31,2.67-1.43,3.97-.4,1.09,.87,1.33,1.76,.8,3.02-.13,.31-.29,.63-.48,.91-1.97,2.92-2.08,6.22-1.91,9.56,.01,.29,.21,.71,.45,.83,.51,.27,.85-.17,1.1-.54,2.02-2.99,3.18-6.31,3.7-9.86,.03-.23,.05-.45,.07-.68,.28-4.74,.93-3.73-2.55-6.68-4.09-3.46-5.5-10.23-3.31-15.07,.33-.72,.76-1.42,1.27-2.02,1.07-1.25,2.54-1.54,3.68-.83,1.03,.63,1.44,1.92,.99,3.34-.21,.65-.61,1.24-.81,1.88-.9,2.88-.6,5.64,1.01,8.21,.16,.26,.52,.5,.81,.54,.53,.07,.82-.35,.93-.81,.9-3.7,3.17-6.54,5.82-9.13,1.08-1.06,2.33-1.87,3.81-2.26,1.34-.35,2.48,.03,3.06,.96,.69,1.1,.51,2.37-.56,3.41-.49,.48-1.08,.84-1.63,1.25-2.55,1.91-4.31,4.33-5.33,7.38-1.2,3.62-1.51,7.37-1.99,11.1-.8,6.19-3.11,11.65-7.65,16.07-.33,.32-.64,.66-.96,.98-.59,.6-.92,1.28-.77,2.16,.82,4.53-.6,8.83-1.45,13.17-.31,1.58-1.05,3.07-2.37,4.08-1.3,.99-1.53,2.23-1.16,3.65,.36,1.39,.31,2.7-.37,3.98-.61,1.14-.55,2.44-.81,3.66-.28,1.32,.26,2.15,1.35,2.84,1.44,.91,1.95,.81,2.56-.75,.46-1.17,.78-2.38,.86-3.65,.09-1.46,.62-2.7,2.11-3.24,1.39-.5,1.65-1.6,1.38-2.77-.49-2.07-.37-4.03,.36-6.04,.3-.83,.28-1.8,.25-2.71-.09-3.14,.58-6.11,1.82-8.99,.59-1.36,.99-2.81,1.64-4.14,1.19-2.47,2.73-2.67,4.76-.72,.23,.22,.5,.41,.73,.59,.78-.25,.74-.89,.84-1.42,.67-3.7,1.38-7.39,1.43-11.19,.03-2.24,.98-3.32,2.83-3.75,1.12-.26,2.03,.11,2.68,1.07,.52,.78,.74,1.65,.94,2.55,.99,4.44,.59,8.86-.22,13.26-.33,1.81-.48,3.62-.41,5.45,.02,.45,.13,.96,.7,1.02,.48,.05,.85-.26,1.15-.63,.46-.57,.56-1.25,.59-1.93,.06-1.48,.12-2.96,.13-4.45,.04-5.02-.16-10.04,.54-15.04,.2-1.47,.39-2.94,.66-4.4,.12-.66,.35-1.34,.68-1.93,1.26-2.31,3.84-2.37,5.19-.13,.9,1.48,1.14,3.2,1.52,4.81,.8,.09,.8-.44,.89-.85,.24-1.11,.37-2.26,.69-3.35,.35-1.23,1.38-1.93,2.56-1.88,1.17,.05,1.98,.7,2.32,1.75,.63,1.97,.97,4,.79,6.07-.26,2.98-1.05,5.84-2.3,8.56-.68,1.47-1.6,2.79-2.96,3.72-1.03,.71-1.47,1.67-1.67,2.85-.31,1.8-.7,3.58-1.09,5.37-.46,2.13-1.13,4.18-2.12,6.14-.31,.6-.54,1.26-.69,1.91-.06,.27,.1,.73,.32,.89,.2,.15,.68,.15,.93,0,.49-.28,.94-.66,1.35-1.05,1.58-1.5,3.06-3.11,4.73-4.5,3.14-2.61,4.32-6.07,4.74-9.92,.21-1.93,.47-3.85,.67-5.78,.14-1.35,.75-2.37,2-2.98,1.67-.83,3.35-.03,3.67,1.76,.04,.22,.07,.46,.05,.68-.41,7.12-1.36,14.11-5.5,20.22-1.01,1.49-2.2,2.87-3.35,4.33,.92,.23,1.31-.43,1.76-.85,2.77-2.58,5.51-5.18,7.84-8.18,.98-1.26,2.08-2.44,3.21-3.58,.55-.56,1.22-1.06,1.93-1.39,2.14-1.01,4.09,.29,3.82,2.62-.25,2.15-.73,4.28-2.03,6.11-2.8,3.94-6.11,7.42-9.76,10.58-2.01,1.74-4.44,2.83-6.83,3.96-.73,.34-1.43,.73-2.15,1.1-2.28,.24-4.56,.47-6.84,.74-1.08,.13-1.47,.48-1.4,1.55,.22,3.56-.39,7.04-.81,10.54-.07,.56-.2,1.11-.25,1.68-.04,.47,.52,.81,.97,.66,1.14-.38,2-1.14,2.62-2.11,.55-.86,1.02-1.79,1.38-2.74,.93-2.45,1.84-4.91,2.64-7.4,.36-1.12,.88-2.09,1.67-2.94,1.35,.11,2.35,.79,3.19,1.81,1.24,1.51,2.32,3.1,3.17,4.87,.97,2.02,2.59,2.88,4.74,2.59,1.48-.2,2.93-.58,4.18-1.48,1.07-.77,1.25-1.57,.52-2.6-.26-.37-.64-.66-.9-1.04-1.08-1.57-.81-3.03,.83-4.08,.77-.49,1.64-.82,2.47-1.2,2.11-.93,4.17-1.97,5.89-3.51,2.45-2.18,5.36-2.99,8.55-3.07,1.38-.03,2.75-.01,4.08-.53,1.41-.55,2.33-1.43,2.4-3.01,.01-.23,0-.47,.06-.68,.63-2.19,.44-3.9-2.02-5.02-1.57-.71-2.08-2.37-1.97-4.09,.15-2.39,.32-4.77,.56-7.15,.18-1.75,1.15-2.92,2.87-3.47,1.68-.54,3.38-.74,5.08-.14,2.45,.86,4.87,.88,7.46,.51,4.5-.64,7.94,3.62,6.57,7.91-.38,1.19-.87,2.37-1.47,3.46-1.25,2.3-1.2,4.57-.2,6.92,.62,1.47,1.33,2.89,1.58,4.51,.27,1.71,.43,3.37,.08,5.09-.46,2.23-.67,4.53-1.26,6.72-.74,2.75,.15,5.19,1.08,7.64,.38,1.01,1.5,1.4,2.62,1.04,1.83-.59,3.25-1.67,3.98-3.51,.39-.97,.55-1.97,.58-3.01,.05-1.82,.1-3.65,.13-5.47,.02-1.26-.02-2.52-.6-3.68-1.82-3.68-2.04-7.68-2.34-11.65-.2-2.61-.39-5.23-.44-7.85-.05-2.97-1.05-5.55-2.79-7.94-1.42-1.95-2.5-4.1-3.15-6.43-.92-3.26-.45-6.33,1.34-9.2,1.81-2.89,3.7-3.39,6.66-1.81,.4,.21,.76,.51,1.15,.75,.28,.18,.55,.45,1.03,.21,.22-.17,.22-.51,.13-.83-.63-2.13-.47-4.3-.4-6.46,.09-2.62,.81-4.95,3.2-6.47,.16-.1,.19-.39,.28-.6-.17-.74-.83-1.06-1.34-1.5-1.44-1.24-1.86-2.81-1.64-4.63,.3-2.36,1.1-4.47,3.2-5.8,1.19-.75,1.58-1.73,1.84-3.06,.71-3.64,3.57-5.34,7.17-4.47,3.42,.83,5.03,2.62,5.35,6.24,.13,1.46-.08,2.96-.14,4.44-.02,.64,.22,1.18,.85,1.3,2.91,.52,3.4,2.68,3.62,5.09,.25,2.79-.13,5.46-1.41,7.98-.77,1.53-1.49,3.09-2.28,4.61-1.25,2.4-1.33,4.73,.02,7.17,.94,1.7,1.66,3.46,3.5,4.52,1.51,.87,2.03,2.4,2.1,4.09,.09,2.1-.47,4.06-1.33,5.96-.9,2-2.2,3.74-3.56,5.44-2.98,3.73-4.72,8.06-6.18,12.53-.89,2.73-.77,5.37,.76,7.91,.89,1.46,1.54,3.06,2.41,4.54,2.46,4.19,6.57,5.91,11.04,6.86,2.22,.47,4.04-.89,4.72-3.07,.2-.65,.25-1.34,.38-2.01,.39-2.01,.64-4.07,1.22-6.03,1.03-3.48,.55-6.81-.82-10.02-.86-2.02-1.54-4.06-1.75-6.23-.21-2.2-1.03-3.74-3.13-4.9-3.03-1.67-2.63-7.18,.57-8.49,1.83-.75,3.49-1.53,4.99-2.86,1.36-1.21,3.31-.69,4.48,.94,1.03,1.45,1.48,3.12,1.18,4.87-.22,1.29,.05,2.16,1.27,2.81,1.74,.93,2.67,2.52,2.97,4.4,.25,1.61,.9,2.77,2.46,3.41,.99,.41,1.56,1.2,2.04,2.18,1.16,2.35,2.68,4.5,3.69,6.95,.61,1.5,1.82,2.62,3.12,3.59,.14,.11,.48,.12,.61,.03,.14-.1,.25-.42,.2-.59-.2-.65-.45-1.29-.72-1.92-.55-1.27-.93-2.59-.98-3.97-.09-2.05-.25-4.09-.66-6.11-.16-.76-.11-1.61,.05-2.37,.49-2.37,2.53-3.58,4.9-2.98,.44,.11,.85,.36,1.29,.46,.51,.13,.89-.12,1.07-.61,.34-.97,.59-1.97,1-2.91,1.33-3.08,4-4.27,7.11-4.66,1.22-.15,2.24,.52,2.84,1.6,.33,.59,.62,1.26,.67,1.92,.12,1.57,.63,2.52,2.45,2.56,1.12,.02,1.76,.94,2.1,2,.2,.63-.03,1.4,.78,1.99,1.48-.18,2.93-.88,4.41-1.46,1.43-.56,2.88-.72,4.39-.63,1.91,.11,3.62,.6,4.83,2.21,1.07,1.42,2.4,2.05,4.2,1.43,1.06-.36,1.99,.06,2.95,.55,1.53,.78,3.12,1.45,4.68,2.15,.95,.43,1.96,.66,3.01,.65,.56,0,1.25,.07,1.51-.53,.29-.7-.38-.98-.85-1.26-2.57-1.52-5.11-3.07-7.72-4.51-2.94-1.62-4.71-4.28-6.53-6.92-.25-.37-.42-.82-.54-1.25-.46-1.66,.86-3.05,2.52-2.58,.76,.21,1.48,.61,2.16,1.02,1.47,.89,2.87,1.88,4.12,3.08,1.22,1.18,2.66,2.02,4.69,2.83-.76-1.84-1.69-2.99-2.54-4.16-2.77-3.83-4.88-7.98-6.6-12.36-.63-1.6-1.15-3.22-1.48-4.91-.71-3.6-1.71-7.09-3.58-10.29-.43-.74-.53-1.51,0-2.25,.5-.69,1.51-.91,2.51-.54,1.68,.62,2.96,1.74,3.92,3.21,3.11,4.74,5.34,9.83,6.1,15.48,.23,1.69,.6,3.32,1.57,4.86-.14-.93-.28-1.85-.42-2.78-.52-3.62-1.21-7.19-2.2-10.72-.49-1.75-.64-3.59-.98-5.38-.64-3.36-1.31-6.72-1.96-10.08-.26-1.35-.4-2.71,.01-4.06,.25-.82,.73-1.43,1.63-1.57,.87-.13,1.6,.19,2.12,.87,.86,1.1,1.32,2.41,1.61,3.75,.61,2.79,1.2,5.58,1.33,8.44,.11,2.31,.65,4.51,1.41,6.67,1.18,3.34,2.35,6.67,3.52,10.01,.15,.43,.26,.88,.48,1.28,.15,.27,.43,.61,.69,.64,.25,.03,.65-.22,.81-.46,1.4-2.22,2.76-4.47,4.14-6.71,1.27-2.04,2.56-4.06,3.84-6.09,.86-1.37,1.87-2.6,3.23-3.51,.68-.45,1.42-.74,2.27-.66,1.07,.09,1.92,1.25,1.52,2.23-1.72,4.22-3.28,8.5-5.82,12.34-1.65,2.5-2.91,5.18-3.43,8.16-.13,.77-.15,1.56-.21,2.3,.79,.29,.9-.24,1.02-.61,.49-1.52,.93-3.05,1.4-4.58,.43-1.43,.95-2.82,1.81-4.05,.85-1.22,1.89-2.02,3.49-1.32,.85,.37,1.31-.11,1.64-.77,1.41-2.87,2.8-5.75,4.54-8.45,1.07-1.66,2.37-3.07,3.89-4.31,.72-.59,1.52-1.03,2.46-1.17,1.49-.23,2.78,1.17,2.28,2.56-.26,.74-.65,1.46-1.09,2.12-3.07,4.57-5.42,9.51-7.79,14.47-2.08,4.36-3.09,8.8-2.52,13.59,.28,2.36,.57,4.72,.85,7.05,.92,.09,.83-.49,.84-.87,.07-1.94,.09-3.88,.15-5.82,.04-1.39,.38-2.71,1.23-3.85,1.27-1.71,3.23-1.52,4.04,.42,.3,.73,.43,1.53,.61,2.31,.16,.67,.28,1.34,.42,2.05,.17-.47-.12,.31,.28,.09,.08-.04,.13-.19,.14-.3,.28-2.03,.63-4.06,.8-6.1,.25-2.95,.38-5.92,.55-8.88,.07-1.15,.2-2.28,.72-3.32,.47-.95,1.27-1.43,2.19-1.34,.94,.09,1.65,.65,1.86,1.74,.51,2.68,.72,5.39,.75,8.14,.69-.14,.73-.84,1.13-1.2,1.45-1.29,3.13-1.01,3.88,.78,.43,1.04,.58,2.19,.81,3.3,.18,.86-.18,1.81,.35,2.63,.93-.02,1.07-.81,1.31-1.38,.66-1.59,1.5-3.08,2.48-4.49,.26-.38,.53-.75,.84-1.08,1.01-1.1,2.09-1.44,3.04-.97,1.2,.6,1.51,1.67,1.44,2.87-.06,.91-.19,1.83-.44,2.7-.7,2.46-.94,4.92-.34,7.44,.3,1.26,0,2.49-.19,3.73-.15,1.02-.25,2.03,.2,3.03,.44,.98,1.41,1.31,2.22,.62,.87-.73,1.69-1.55,2.49-2.36,.8-.81,1.5-1.74,2.36-2.5,3.37-3.01,7.17-4.47,11.72-2.97,.33,.11,.65,.23,.99,.31,1.87,.44,2.81,0,3.49-1.81,.64-1.72,.98-3.52,1.02-5.36,.05-2.3,.46-4.54,1.24-6.71,.34-.96,.77-1.93,1.36-2.74,1.67-2.31,3.9-3.63,6.83-2.76,1.7,.5,2.83,.12,3.88-1.23,1.73-2.22,4.17-2.68,6.82-2.46,1.94,.16,3.49,1.08,4.61,2.66,.59,.84,1.04,1.78,1.67,2.59,1.15,1.48,2.1,1.75,3.9,.99,2.14-.89,4.36-1.42,6.63-1.82,3.67-.65,7.09-.13,10.21,2,1.33,.9,2.67,1.79,4,2.68v143.11H-104.37Zm413.97-56.42c-.74,.67-1.32,1.21-1.92,1.74-2.22,1.98-4.72,3.16-7.81,2.93-1.71-.13-3.44-.06-5.13-.47-.93-.22-1.84-.2-2.67,.3-2.54,1.52-5.47,2.32-7.75,4.32-.67,.59-1.59,.89-2.39,1.34-5.07,2.82-9.44,6.46-12.94,11.07-1.54,2.02-2.56,4.31-3.18,6.77-.17,.67-.2,1.36,.24,1.97,1.3,1.77,4.6,2.11,6.13,.58,.73-.72,1.3-1.59,1.99-2.35,4.27-4.78,7.1-4.44,11.3-2.92,1.29,.47,2.58,.98,3.9,1.35,1.41,.39,2.12,.03,2.81-1.25,.27-.5,.44-1.05,.71-1.55,1.34-2.51,2.8-2.92,5.34-1.5,.8,.45,1.54,.99,2.32,1.48,1.34,.83,2.72,1,4.28,.55,1.89-.54,3.62-1.43,5.4-2.21,1.4-.61,2.17-1.62,2.39-3.08,.1-.67,.21-1.35,.23-2.03,.15-4.94-.61-9.76-2-14.48-.25-.86-.52-1.74-1.24-2.54Zm59.69-12.32c.05-1.01-.44-1.36-.79-1.79-1.17-1.43-2.03-3.04-2.63-4.77-.26-.74-.39-1.54-.44-2.33-.05-.85,.61-1.59,1.38-1.73,.76-.14,1.4,.17,1.75,.81,.49,.9,.86,1.86,1.27,2.8,.83,1.92,2.01,3.57,3.74,4.81,1.22,.86,1.85,.78,2.42-.53,2.33-5.39,2.95-10.97,1.63-16.71-.21-.91-.96-1.19-1.87-.76-.31,.15-.61,.32-.9,.5-5.59,3.3-11.59,5.48-17.97,6.67-4.13,.77-7.81,2.63-11.37,4.75-1.75,1.04-2.97,2.49-3.62,4.41-.62,1.84-1.25,3.67-1.77,5.54-1.28,4.63-1.89,9.38-2.6,14.11-.22,1.45-.19,2.96-.15,4.44,.06,2.09,.54,2.51,2.72,2.67,2,.15,3.87-.26,5.67-1.14,1.01-.5,1.66-1.18,1.68-2.35,.02-1.27,.22-2.54,.79-3.65,1.65-3.23,2.01-6.73,2.49-10.23,.49-3.6,.05-6.8-2.89-9.32-.51-.44-.88-1.04-1.27-1.61-.18-.27-.28-.62-.35-.95-.2-.92,.83-1.79,1.74-1.53,.82,.23,1.42,.75,1.95,1.34,2.22,2.48,4.49,4.93,4.67,8.52,.03,.66,.54,1.09,1.19,.77,3.26-1.62,6.82-1.91,10.35-2.35,1.02-.12,2.04-.22,3.19-.35Zm-106.7,27.03c-.05-.87-.07-1.55-.14-2.23-.37-3.28-1.33-4.33-4.58-5.09-1.45-.34-2.91-.66-4.34-1.07-2.99-.84-5.34-2.57-7.1-5.12-.45-.66-.92-1.31-1.43-1.93-.31-.37-.79-.54-1.25-.37-2.05,.74-4.12,1.45-5.94,2.69-.98,.66-1.17,1.6-.95,2.71,.81,4.14,1.6,8.28,2.39,12.42,.83,4.3,3.71,6.65,7.7,7.91,1.53,.48,3.09,.88,4.65,1.25,2.57,.6,5.15,1.16,7.73,1.7,1.17,.24,1.72-.11,2.15-1.16,.41-1,.44-1.99,.09-3-.49-1.44-1.25-2.7-2.47-3.64-1-.76-2.04-1.48-3.09-2.18-1.62-1.08-3.31-2.07-4.88-3.21-1.11-.8-2.13-1.73-3.09-2.7-.73-.73-1.19-1.66-1.36-2.72-.15-.98,.18-1.82,.84-2.02,.77-.23,1.34,.13,1.81,.67,.3,.34,.55,.73,.8,1.11,.63,.98,1.49,1.75,2.44,2.38,2.95,1.97,5.92,3.92,8.9,5.86,.55,.36,1.08,0,1.11-.74,.02-.57,0-1.14,0-1.52Zm3.88-.64c-.11,1.66,.28,3.03,.84,3.05,1.07,.04,1.44-1.01,2.15-1.54,.09-.07,.16-.16,.24-.24,3.4-3.42,7-6.59,11.49-8.59,.52-.23,.99-.57,1.45-.92,1.44-1.09,1.55-2.11,.37-3.45-1.23-1.4-2.82-2.32-4.46-3.16-1.74-.88-3.73-1.52-4.98-2.99-1.67-1.98-3.23-1.58-5.07-.52-1,.57-2,1.11-2.83,1.92-.96,.95-1.44,2.03-1.18,3.39,.43,2.24,.65,4.53,1.28,6.71,.64,2.2,1.69,4.28,.69,6.33Zm106.06-21.37c-.06-.78-.56-1.07-1.15-1.11-3.91-.26-7.81-.22-11.62,.86-3.11,.88-5.14,2.9-5.99,6.02-.18,.66-.41,1.31-.54,1.98-.36,1.77-1.65,3.24-1.6,5.13,2.14,.05,3.25-1.79,4.88-2.67,4.83-2.61,9.39-5.72,14.51-7.79,1.09-.44,1.39-1.43,1.5-2.43Zm12.63,17.32c.58-.47,.67-1.19,.71-1.83,.58-7.98,2.09-5.62-2.9-12.96-1.3-1.91-2.51-3.81-2.43-6.24,.01-.34-.12-.75-.52-.75-.3,0-.63,.2-.88,.39-1.49,1.19-2.24,2.84-2.8,4.59-.34,1.07-.23,2,.57,2.83,1.36,1.4,2.48,2.99,3.35,4.72,1.38,2.74,2.71,5.51,4.06,8.27,.19,.39,.24,.9,.83,.96Zm268.56-57.1c-.03-4.18-1.73-7.69-4.43-10.8-.07-.08-.18-.15-.28-.2-.43-.23-.91-.33-1.27,0-.22,.2-.42,.65-.34,.9,.88,2.85,1.15,5.79,1.43,8.73,.13,1.36,.37,2.7,.6,4.05,.12,.69,.47,1.29,1.2,1.54,.65,.22,1.39-.17,1.98-1.03,.65-.96,1.09-2,1.11-3.18Zm-329.51-3.17c0,.78-.01,1.56,0,2.34,.03,1.13,.02,2.27,.12,3.4,.17,1.93,.64,3.8,1.47,5.57,.19,.4,.48,.77,.78,1.09,.1,.11,.5,.12,.59,.02,.98-1.04,1.25-3.88,.44-5.13-.74-1.14-1.69-2.14-2.22-3.43-.52-1.25-.61-2.59-1.18-3.87Zm286.13-39.9c-.57,4.2,.52,11.39,1.92,13.67,.41-4.73,.13-9.29-1.92-13.67Zm-137.73,31.6c-.42,.09-.58,.45-.45,.74,.71,1.67,1.39,3.35,2.24,4.95,.72,1.36,1.17,2.97,2.75,3.72,.73-1.74-.24-3.22-.84-4.7-.69-1.68-1.82-3.14-3.11-4.45-.14-.14-.39-.18-.59-.26Zm193.79,15.21c.02,.3,.03,.53,.05,.75,.19,1.87,1.2,2.4,2.75,1.44,2.29-1.42,2.21-2.83-.24-4.25-1.28-.74-2.25-.3-2.47,1.12-.05,.33-.07,.67-.09,.94Zm38.26-18.97c.43,2.81,.74,4.9,1.09,7,.07,.43,.28,.86,.53,1.22,.26,.38,.71,.64,1.17,.39,.25-.14,.57-.51,.55-.75-.2-2.72-.93-5.23-3.35-7.85Zm-30.02,13.57c.21-.06,.47-.06,.64-.18,1.06-.78,1.54-1.88,1.59-3.16,.02-.36-.31-.63-.68-.58-1.11,.14-2.23,.33-3.19,.95-.25,.16-.5,.5-.53,.79-.1,.9,1.22,2.18,2.17,2.18Zm2.97-16.45c-1.73,.34-2.93,1.32-3.88,2.61-.56,.77-1.21,1.56-1.03,2.73,.43-.16,.7-.18,.83-.33,1.33-1.41,2.65-2.84,3.95-4.28,.11-.12,.07-.37,.13-.74Zm-157.76,32.01c-.01-.14-.05-.92-.15-1.7-.04-.33-.23-.67-.62-.65-.17,0-.39,.25-.47,.43-.58,1.27-.8,2.59-.29,3.92,.15,.38,.53,.85,.88,.92,.59,.11,.62-.5,.65-.93,.03-.45,0-.9,0-2Zm179.16-24.18c.18-.01,.36-.03,.54-.04-.08-1.46-.15-2.93-.27-4.39-.04-.48-.31-.86-.89-.81-.57,.05-1.12,.66-1.03,1.15,.06,.33,.14,.67,.27,.98,.44,1.04,.91,2.08,1.37,3.11Zm-171.49,19.96c-.05-1.54,.07-2.92-.66-4.16-.09-.15-.4-.28-.55-.24-.16,.04-.38,.33-.36,.48,.23,1.67,.49,3.34,.78,5.01,.03,.14,.33,.24,.51,.34,0,0,.17-.17,.18-.27,.05-.45,.08-.9,.1-1.16Zm-38.68,4.84c.94-.01,1.68-.38,2.31-1.15,.27-.33,.11-1-.28-1.14-1.2-.44-2.22,.05-2.67,1.29-.15,.41,.24,1.01,.64,1.01Zm-308.75-27.99c-.29-3.71-.94-6.02-2.13-7.77,.32,2.64,.82,4.98,2.13,7.77Zm39.61,.71c-1.25,.06-2.2,.5-2.4,1.88,.8-.63,1.6-1.25,2.4-1.88Zm255.94-4.95c-.09-.25-.16-.57-.32-.85-.17-.3-.46-.49-.81-.28-.31,.19-.38,.55-.22,.85,.15,.27,.38,.53,.64,.7,.12,.08,.39-.01,.57-.07,.06-.02,.07-.19,.13-.35Z"/><g><path class="cls-3" d="M632.44,250.06c-.79-1.45-1.59-2.9-2.38-4.35-.18-.34-.8-.3-.87,.11-.16,.91-.33,1.84-.59,2.73-.05-.03-.1-.06-.17-.07-4.74-.5-9.49,2.39-12.01,6.25-.16,.25,.05,.69,.38,.65,3.05-.38,6.72-.35,9.46-1.91,1.32-.75,2.16-1.89,2.73-3.18,.96,.64,2.03,.8,3.18,.44,.29-.09,.42-.41,.28-.68Z"/><path class="cls-3" d="M618.03,229.67c-1.02,1.51-2.25,2.69-3.64,3.61-5.62-1.55-12.96-1.39-17.07,3.22-.17,.19-.06,.51,.21,.52,5.61,.1,12.04,0,16.86-2.95,1.26,.42,2.56,.75,3.82,1.13,.21,.06,.43-.11,.43-.33,0-1.68,.02-3.35,.02-5.03,0-.35-.46-.45-.64-.17Z"/><path class="cls-3" d="M596.66,226.3c-.79-1.45-1.59-2.9-2.38-4.35-.18-.34-.8-.3-.87,.11-.16,.91-.33,1.84-.59,2.73-.05-.03-.1-.06-.17-.07-4.74-.5-9.49,2.39-12.01,6.25-.16,.25,.05,.69,.38,.65,3.05-.38,6.72-.35,9.46-1.91,1.32-.75,2.16-1.89,2.73-3.18,.96,.64,2.03,.8,3.18,.44,.29-.09,.42-.41,.28-.68Z"/><path class="cls-3" d="M593.68,239.74c-.79-1.45-1.59-2.9-2.38-4.35-.18-.34-.8-.3-.87,.11-.16,.91-.33,1.84-.59,2.73-.05-.03-.1-.06-.17-.07-4.74-.5-9.49,2.39-12.01,6.25-.16,.25,.05,.69,.38,.65,3.05-.38,6.72-.35,9.46-1.91,1.32-.75,2.16-1.89,2.73-3.18,.96,.64,2.03,.8,3.18,.44,.29-.09,.42-.41,.28-.68Z"/><path class="cls-3" d="M569.76,223.54c-.79-1.45-1.59-2.9-2.38-4.35-.18-.34-.8-.3-.87,.11-.16,.91-.33,1.84-.59,2.73-.05-.03-.1-.06-.17-.07-4.74-.5-9.49,2.39-12.01,6.25-.16,.25,.05,.69,.38,.65,3.05-.38,6.72-.35,9.46-1.91,1.32-.75,2.16-1.89,2.73-3.18,.96,.64,2.03,.8,3.18,.44,.29-.09,.42-.41,.28-.68Z"/><path class="cls-3" d="M565.17,242.22c-.38-1.61-.76-3.22-1.14-4.83-.09-.37-.69-.5-.87-.12-.39,.83-.81,1.68-1.29,2.47-.04-.04-.08-.09-.15-.11-4.44-1.74-9.79-.22-13.24,2.83-.23,.2-.14,.68,.19,.73,3.04,.44,6.57,1.45,9.63,.68,1.48-.38,2.58-1.24,3.48-2.33,.75,.87,1.74,1.31,2.95,1.27,.3-.01,.52-.28,.45-.58Z"/><path class="cls-3" d="M555.47,236.82c-.38-1.61-.76-3.22-1.14-4.83-.09-.37-.69-.5-.87-.12-.39,.83-.81,1.68-1.29,2.47-.04-.04-.08-.09-.15-.11-4.44-1.74-9.79-.22-13.24,2.83-.23,.2-.14,.68,.19,.73,3.04,.44,6.57,1.45,9.63,.68,1.48-.38,2.58-1.24,3.48-2.33,.75,.87,1.74,1.31,2.95,1.27,.3-.01,.52-.28,.45-.58Z"/><path class="cls-3" d="M598.53,253.52c-.79-1.45-1.59-2.9-2.38-4.35-.18-.34-.8-.3-.87,.11-.16,.91-.33,1.84-.59,2.73-.05-.03-.1-.06-.17-.07-4.74-.5-9.49,2.39-12.01,6.25-.16,.25,.05,.69,.38,.65,3.05-.38,6.72-.35,9.46-1.91,1.32-.75,2.16-1.89,2.73-3.18,.96,.64,2.03,.8,3.18,.44,.29-.09,.42-.41,.28-.68Z"/><path class="cls-3" d="M582.25,205.91c-1.02,1.51-2.25,2.69-3.64,3.61-5.62-1.55-12.96-1.39-17.07,3.22-.17,.19-.06,.51,.21,.52,5.61,.1,12.04,0,16.86-2.95,1.26,.42,2.56,.75,3.82,1.13,.21,.06,.43-.11,.43-.33,0-1.68,.02-3.35,.02-5.03,0-.35-.46-.45-.64-.17Z"/><path class="cls-3" d="M572.8,256c-.79-1.45-1.59-2.9-2.38-4.35-.18-.34-.8-.3-.87,.11-.16,.91-.33,1.84-.59,2.73-.05-.03-.1-.06-.17-.07-4.74-.5-9.49,2.39-12.01,6.25-.16,.25,.05,.69,.38,.65,3.05-.38,6.72-.35,9.46-1.91,1.32-.75,2.16-1.89,2.73-3.18,.96,.64,2.03,.8,3.18,.44,.29-.09,.42-.41,.28-.68Z"/></g></g></g></svg>