<svg width="62" height="58" xmlns="http://www.w3.org/2000/svg"><g fill-rule="nonzero" fill="none"><path d="M61.3 34.5C61.3 47.5 49.4 58 31 58S.7 47.5.7 34.5 12.6 2 31 2s30.3 19.5 30.3 32.5Z" fill="#F7910B"/><path d="M61.3 34.5C61.3 47.5 49.4 54 31 54S.7 47.5.7 34.5 12.6 0 31 0s30.3 21.5 30.3 34.5Z" fill="#F7910B"/><path d="M31 0c18.4 0 30.3 21.5 30.3 34.5S49.4 54 31 54" fill="#F9A908"/><path d="M61.3 34.5C61.3 47.5 49.4 54 31 54S.7 47.5.7 34.5 12.6 2 31 2s30.3 19.5 30.3 32.5Z" fill="#F9A908"/><path d="M.7 34.5C.7 21.5 12.6 2 31 2" fill="#F9C55D"/><path d="M31 2c18.4 0 30.3 19.5 30.3 32.5S49.4 58 31 58" fill="#F7910B"/><path d="M31 2c18.4 0 30.3 19.5 30.3 32.5" fill="#EA7103"/><path d="M26.8 17.6c0 1.2-3.5.7-7.8.7s-7.8.6-7.8-.7c0-1.3 3.5-2.2 7.8-2.2s7.8 1 7.8 2.2Z" fill="#F9C55D"/><path d="M50.8 17.6c0 1.2-3.5.7-7.8.7s-7.8.6-7.8-.7c0-1.3 3.5-2.2 7.8-2.2s7.8 1 7.8 2.2Z" fill="#F9A908"/><circle fill="#F7910B" cx="9.3" cy="31.5" r="1"/><circle fill="#F7910B" cx="4.8" cy="33.5" r="1.1"/><circle fill="#F7910B" cx="7.8" cy="29.5" r="1"/><circle fill="#F7910B" cx="12.4" cy="31.3" r="1"/><circle fill="#F9A908" cx="51.6" cy="31.8" r="1"/><circle fill="#F9A908" cx="54.1" cy="33.2" r="1"/><circle fill="#F9A908" cx="48.8" cy="24.4" r="1"/><circle fill="#F9A908" cx="48.3" cy="36" r="1.3"/><circle fill="#F9A908" cx="55.5" cy="36.1" r="1"/><circle fill="#F7910B" cx="8.3" cy="35.5" r="1"/><circle fill="#F7910B" cx="9.1" cy="27.1" r="1"/><circle fill="#F9A908" cx="3.8" cy="13.3" r="1.1"/><circle fill="#F9A908" cx="7" cy="9.8" r="1"/><circle fill="#F9A908" cx="58.2" cy="15.7" r="1"/><circle fill="#F9A908" cx="57.4" cy="12.8" r="1"/><circle fill="#F9A908" cx="60" cy="13.3" r="1"/><circle fill="#F9A908" cx="5" cy="16.3" r="1"/><path d="M46.3 17.8c-.4 0-.8-.2-1.2-.5-1.4-1.4-3.7-1.4-5.1 0-.6.6-1.7.7-2.3 0-.6-.6-.7-1.7 0-2.3 2.7-2.7 7.1-2.7 9.8 0 .6.6.6 1.7 0 2.3-.4.4-.8.5-1.2.5Z" fill="#1E4784"/><path d="M47.4 15c.6.6.6 1.7 0 2.3-.3.3-.7.5-1.2.5-.4 0-.8-.2-1.2-.5-1.4-1.4-3.7-1.4-5.1 0-.6.6-1.7.7-2.3 0-.6-.6-.7-1.7 0-2.3" fill="#02243E"/><path d="M15.7 17.8c.4 0 .8-.2 1.2-.5 1.4-1.4 3.7-1.4 5.1 0 .6.6 1.7.7 2.3 0 .6-.6.7-1.7 0-2.3-2.7-2.7-7.1-2.7-9.8 0-.6.6-.6 1.7 0 2.3.4.4.8.5 1.2.5Z" fill="#1E4784"/><path d="M14.6 15c-.6.6-.6 1.7 0 2.3.3.3.7.5 1.2.5.4 0 .8-.2 1.2-.5 1.4-1.4 3.7-1.4 5.1 0 .6.6 1.7.7 2.3 0 .6-.6.7-1.7 0-2.3" fill="#02243E"/><g fill="#037A66"><path d="M24.6 7.8c.3.9-1.4.9-3.3 1.5s-3.3 1.5-3.6.6c-.3-.9 1-2.1 2.9-2.7 1.9-.6 3.7-.3 4 .6ZM37.4 7.8c-.3.9 1.4.9 3.3 1.5s3.3 1.5 3.6.6c.3-.9-1-2.1-2.9-2.7-1.9-.6-3.7-.3-4 .6Z"/></g><g transform="translate(1 23)"><path d="M26.5 20c0 3.8-4.7 4.7-10.5 4.7S5.5 21.6 5.5 17.9c0-3.8 1.7-10.2 7.5-10.2S26.5 16.2 26.5 20Z" fill="#069ACE"/><path d="M26.5 20c0 3.8-4.7 4.7-10.5 4.7S5.5 21.6 5.5 17.9" fill="#0974AF"/><circle fill="#EAA4CB" cx="12.4" cy="12.7" r="1.6"/><circle fill="#EAA4CB" cx="18.4" cy="15.4" r="1.6"/><circle fill="#EAA4CB" cx="12.5" cy="18.6" r="1.6"/><circle fill="#EAA4CB" cx="18.9" cy="21" r="1.6"/><path d="M9.6 10.6c.3.4.2 1-.2 1.4-.4.3-1 .2-1.4-.2L.8 1.9C.5 1.5.6.9 1 .5c.4-.3 1-.2 1.4.2l7.2 9.9Z" fill="#069ACE"/><path d="M16.2 21.3c.6 0 1.1.5 1.1 1.1 0 .6-.5 1.1-1.1 1.1l-13.6.2c-.6 0-1.1-.5-1.1-1.1 0-.6.5-1.1 1.1-1.1l13.6-.2Z" fill="#0974AF"/></g><g transform="translate(34 23)"><path d="M.5 20c0 3.8 4.7 4.7 10.5 4.7s10.5-3.1 10.5-6.8c0-3.8-1.7-10.2-7.5-10.2C8.2 7.6.5 16.2.5 20Z" fill="#069ACE"/><path d="M.5 20c0 3.8 4.7 4.7 10.5 4.7s10.5-3.1 10.5-6.8" fill="#0974AF"/><circle fill="#EAA4CB" cx="14.6" cy="12.7" r="1.6"/><circle fill="#EAA4CB" cx="8.6" cy="15.4" r="1.6"/><circle fill="#EAA4CB" cx="14.5" cy="18.6" r="1.6"/><circle fill="#EAA4CB" cx="8.1" cy="21" r="1.6"/><path d="M17.4 10.6c-.3.4-.2 1 .2 1.4.4.3 1 .2 1.4-.2l7.2-9.9c.3-.4.2-1-.2-1.4-.4-.3-1-.2-1.4.2l-7.2 9.9Z" fill="#069ACE"/><path d="M10.8 21.3c-.6 0-1.1.5-1.1 1.1 0 .6.5 1.1 1.1 1.1l13.6.2c.6 0 1.1-.5 1.1-1.1 0-.6-.5-1.1-1.1-1.1l-13.6-.2Z" fill="#0974AF"/></g><path d="M37 44c0 .6-.4 1-1 1H25c-.6 0-1-.4-1-1s.4-1 1-1h11c.6 0 1 .4 1 1Z" fill="#0974AF"/><path d="M36.2 22.4c0 1.2-2.3 2.2-5.2 2.2-2.9 0-5.3-1-5.3-2.2 0-1.2 2.4-.2 5.3-.2s5.2-1.1 5.2.2Z" fill="#99144A"/></g></svg>