<svg width="24" height="24" viewBox="0 0 24 24" fill="none"
  xmlns="http://www.w3.org/2000/svg">
  <path fill-rule="evenodd" clip-rule="evenodd" d="M18.0009 11.9993L18.0003 11.2493L17.9968 6.74593C17.9964 6.33172 17.6604 5.99621 17.2462 5.99652L12.7498 5.99991L11.9998 6.00047L12.0009 7.50047L12.7509 7.49991L15.0815 7.49815L11.2899 11.2897L12.7042 12.7039L16.4985 8.90957L16.5003 11.2505L16.5009 12.0005L18.0009 11.9993ZM16.4974 7.49709H16.4973L16.4974 7.49712V7.49709ZM12.0001 18L11.2501 18L6.75002 18.0001C6.5511 18.0001 6.36033 17.9211 6.21968 17.7804C6.07902 17.6398 6 17.449 6 17.2501L6 12.7499L6 11.9999L7.5 11.9999L7.5 12.7499L7.5 15.0859L11.293 11.2929L12.7072 12.7071L8.91426 16.5L11.2501 16.5L12.0001 16.5L12.0001 18ZM7.5 16.5001L7.5 16.4999L7.50017 16.5001H7.5Z" fill="currentColor" fill-opacity="0.9"/>
  <rect opacity="0.75" x="3.75" y="3.75" width="16.5" height="16.5" rx="1.25" stroke="currentColor" stroke-opacity="0.9" stroke-width="1.5"/>
</svg>
