<svg width="24" height="24" viewBox="0 0 24 24" fill="none" xmlns="http://www.w3.org/2000/svg">
<path d="M19.0001 9.00108C19.5523 9.00112 20 9.44882 20 10.0011L20 19.001C20 19.5533 19.5522 20.0011 18.9999 20.001L4.99993 20C4.44767 20 4 19.5523 4 19L4 10.0001C4 9.44776 4.44776 9.00003 5.00007 9.00007L19.0001 9.00108Z" stroke="#121A21" stroke-opacity="0.9" stroke-width="1.5"/>
<path opacity="0.75" d="M14.4148 14.0904C14.6992 14.2894 14.6992 14.7106 14.4148 14.9096L10.7867 17.4493C10.4553 17.6813 10 17.4442 10 17.0397L10 11.9603C10 11.5558 10.4553 11.3187 10.7867 11.5507L14.4148 14.0904Z" fill="#121A21" fill-opacity="0.9"/>
<path opacity="0.75" d="M19 6L19 7L5 7L5 6L19 6Z" fill="#121A21" fill-opacity="0.9"/>
<path opacity="0.5" d="M18 4L18 5L6 5L6 4L18 4Z" fill="#121A21" fill-opacity="0.9"/>
</svg>
