<svg width="62" height="62" xmlns="http://www.w3.org/2000/svg"><g fill-rule="nonzero" fill="none"><g transform="translate(0 2)"><path d="M61.3 34.7c0 13-11.9 23.5-30.3 23.5S.7 47.7.7 34.7 12.6 2.2 31 2.2s30.3 19.5 30.3 32.5Z" fill="#F7910B"/><path d="M61.3 34.7c0 13-11.9 19.5-30.3 19.5S.7 47.7.7 34.7 12.6.2 31 .2s30.3 21.5 30.3 34.5Z" fill="#F7910B"/><path d="M31 .2c18.4 0 30.3 21.5 30.3 34.5S49.4 54.2 31 54.2" fill="#F9A908"/><path d="M61.3 34.7c0 13-11.9 19.5-30.3 19.5S.7 47.7.7 34.7 12.6 2.2 31 2.2s30.3 19.5 30.3 32.5Z" fill="#F9A908"/><path d="M.7 34.7C.7 21.7 12.6 2.2 31 2.2" fill="#F9C55D"/><path d="M31 2.2c18.4 0 30.3 19.5 30.3 32.5S49.4 58.2 31 58.2" fill="#F7910B"/><path d="M37 31.2c0 2.3-2.8 4.2-6.2 4.2-3.4 0-6.2-1.9-6.2-4.2 0-2.3 2.8-4.2 6.2-4.2 3.4 0 6.2 1.9 6.2 4.2Z" fill="#00233F"/><path d="M31 2.2c18.4 0 30.3 19.5 30.3 32.5" fill="#EA7103"/><circle fill="#F7910B" cx="9.3" cy="31.6" r="1"/><circle fill="#F7910B" cx="4.8" cy="33.6" r="1.1"/><circle fill="#F7910B" cx="7.8" cy="29.6" r="1"/><circle fill="#F7910B" cx="12.4" cy="31.5" r="1"/><circle fill="#F9A908" cx="51.6" cy="32" r="1"/><circle fill="#F9A908" cx="54.1" cy="33.4" r="1"/><circle fill="#F9A908" cx="48.8" cy="24.6" r="1"/><circle fill="#F9A908" cx="48.3" cy="36.2" r="1.3"/><circle fill="#F9A908" cx="55.5" cy="36.3" r="1"/><circle fill="#F7910B" cx="8.3" cy="35.7" r="1"/><circle fill="#F7910B" cx="9.1" cy="27.3" r="1"/><circle fill="#F9A908" cx="3.8" cy="13.5" r="1.1"/><circle fill="#F9A908" cx="7" cy="10" r="1"/><circle fill="#F9A908" cx="58.2" cy="15.9" r="1"/><circle fill="#F9A908" cx="57.4" cy="13" r="1"/><path d="M60.5 13.5c0 .3-.2.5-.5.5s-.5-.2-.5-.5.2-.5.5-.5c.2 0 .5.2.5.5Z" fill="#F9A908"/><circle fill="#F9A908" cx="5" cy="16.5" r="1"/><path d="M38.4 32.2c0 2.6-3.3 7.2-7.4 7.2-4.1 0-7.4-4.6-7.4-7.2" fill="#F7910B"/><g transform="translate(15 11)"><circle fill="#D87703" cx="4.6" cy="7.5" r="3.5"/><path d="M30.9 7.5c0 1.9-1.6 3.5-3.5 3.5s-3.5-1.6-3.5-3.5S25.5 4 27.4 4c2 0 3.5 1.6 3.5 3.5Z" fill="#D87703"/><circle fill="#1E4784" cx="4.6" cy="6.5" r="3.5"/><path d="M4.6 3c1.9 0 3.5 1.6 3.5 3.5S6.5 10 4.6 10" fill="#00233F"/><path d="M30.9 6.5c0 1.9-1.6 3.5-3.5 3.5s-3.5-1.6-3.5-3.5S25.5 3 27.4 3c2 0 3.5 1.6 3.5 3.5Z" fill="#1E4784"/><path d="M27.4 3c1.9 0 3.5 1.6 3.5 3.5S29.4 10 27.4 10" fill="#00233F"/><path d="M.5 5.8C.5 3.5 2.3.7 4.6.7s4.1 2.8 4.1 5.1" fill="#F9A908"/><path d="M23.3 5.8c0-2.3 1.8-5.1 4.1-5.1 2.2 0 4.1 2.8 4.1 5.1" fill="#F7910B"/></g><path d="M26.8 23.3c0 1.2-3.5.7-7.8.7s-7.8.6-7.8-.7c0-1.3 3.5-2.2 7.8-2.2s7.8 1 7.8 2.2Z" fill="#F9C55D"/><path d="M50.8 23.3c0 1.2-3.5.7-7.8.7s-7.8.6-7.8-.7c0-1.3 3.5-2.2 7.8-2.2s7.8 1 7.8 2.2Z" fill="#F9A908"/><g fill="#19BCA4"><path d="M25.2 13.7c0 1.1-2.3.5-5.1.4-2.8-.1-5.1.4-5.1-.7s2.3-2 5.1-1.9c2.9.1 5.2 1.1 5.1 2.2ZM36.8 13.7c0 1.1 2.3.5 5.1.4 2.8-.1 5.1.4 5.1-.7s-2.3-2-5.1-1.9c-2.9.1-5.2 1.1-5.1 2.2Z"/></g></g><g transform="translate(4)"><path d="M53.9 27.4c0-14.9-12-27-26.9-27C12.1.4.1 12.5.1 27.4c0 9.7 5.1 18.1 12.7 22.9v8.3c0 1.7 1.6 3.1 3.6 3.1h21.2c2 0 3.6-1.4 3.6-3.1v-8.3c7.7-4.8 12.7-13.3 12.7-22.9Z" fill="#FFF"/><path d="M53.9 27.4c0-14.9-12-24.8-26.9-24.8C12.1 2.6.1 12.5.1 27.3c0 9.7 5.1 18.1 12.7 22.9v8.3c0 1.7 1.6 3.1 3.6 3.1h21.2c2 0 3.6-1.4 3.6-3.1v-8.3c7.7-4.7 12.7-13.2 12.7-22.8Z" fill="#E2F2EF"/><path d="M26.9 61.6h10.7c2 0 3.6-1.4 3.6-3.1v-8.3c7.6-4.8 12.7-13.2 12.7-22.9 0-14.8-12-24.8-26.9-24.8" fill="#C7E2DD"/><path d="M20.9 60.4V48.7c0-.6-.4-1-1-1s-1 .4-1 1v11.6h2v.1ZM28 60.4V48.7c0-.6-.4-1-1-1s-1 .4-1 1v11.6h2v.1ZM35.1 60.4V48.7c0-.6-.4-1-1-1s-1 .4-1 1v11.6h2v.1Z" fill="#617F79"/><g transform="translate(4 20)"><path d="M15.9 9.2c0 4.1-3.3 10.5-7.5 10.5C4.3 19.7.9 13.4.9 9.2S4.2.7 8.4.7s7.5 4.4 7.5 8.5Z" fill="#9CBCB6"/><path d="M45 9.2c0 4.1-3.3 10.5-7.5 10.5-4.1 0-7.5-6.3-7.5-10.5S33.3.7 37.5.7 45 5.1 45 9.2Z" fill="#7FA39C"/><path d="M15.9 10.5c0 4.1-3.3 7.5-7.5 7.5-4.1 0-7.5-3.3-7.5-7.5S4.2 3 8.4 3s7.5 3.3 7.5 7.5Z" fill="#F7910B"/><path d="M13.7 5.2c2.9 2.9 2.9 7.6 0 10.6-2.9 2.9-7.6 2.9-10.5 0" fill="#F9A908"/><circle fill="#F7910B" cx="37.5" cy="10.5" r="7.5"/><path d="M42.8 5.2c2.9 2.9 2.9 7.6 0 10.6-2.9 2.9-7.6 2.9-10.6 0" fill="#F9A908"/></g><path d="M6.5 39.5c-1.1 0-2.2.3-3.1.8 2.2 4 5.4 7.4 9.3 9.9v-4.4c.1-3.5-2.7-6.3-6.2-6.3Z" fill="#8FA8A3"/><path d="M12.8 50.2v-4.4c0-3.5-2.8-6.2-6.2-6.2" fill="#617F79"/><path d="M50.6 40.3c-.9-.5-2-.8-3.1-.8-3.5 0-6.2 2.8-6.2 6.2v4.4c3.8-2.3 7.1-5.7 9.3-9.8Z" fill="#8FA8A3"/><path d="M47.5 39.5c-3.5 0-6.2 2.8-6.2 6.2v4.4" fill="#617F79"/><path d="M4.1 38.9c0 1.1-.9 2-2 2s-2-.9-2-2V27.7c0-1.1.9-2 2-2s2 .9 2 2v11.2Z" fill="#E2F2EF"/><path d="M53.9 38.9c0 1.1-.9 2-2 2s-2-.9-2-2V27.7c0-1.1.9-2 2-2s2 .9 2 2v11.2Z" fill="#C7E2DD"/><path d="M29.6 41.4c-1.1 0-2-.6-2.3-1.5 0-.1-.1-.1-.2-.1s-.2 0-.2.1c-.3.9-1.3 1.5-2.3 1.5-1.4 0-2.5-1-2.5-2.2 0-.4.1-.9.4-1.2l4.6-7.9 4.6 7.9c.3.4.4.8.4 1.2-.1 1.2-1.2 2.2-2.5 2.2Z" fill="#9CBCB6"/><path d="M29.6 41.8c-1.1 0-2-.6-2.3-1.5 0-.1-.1-.1-.2-.1s-.2 0-.2.1c-.3.9-1.3 1.5-2.3 1.5-1.4 0-2.5-1-2.5-2.2 0-.4.1-.9.4-1.2l4.6-5.4 4.6 5.4c.3.4.4.8.4 1.2-.1 1.2-1.2 2.2-2.5 2.2Z" fill="#F9A908"/><path d="M27 40.2c-.1 0-.2 0-.2.1-.3.9-1.3 1.5-2.3 1.5-1.4 0-2.5-1-2.5-2.2 0-.4.1-.9.4-1.2L27 33" fill="#EA7103"/><path d="M27.6 31.2c0 .3-.3.6-.6.6s-.6-.3-.6-.6v-6.6c0-.3.3-.6.6-.6s.6.3.6.6v6.6Z" fill="#9CBCB6"/><path d="M2.3 37.3c0 .4-.3.7-.7.7-.4 0-.7-.3-.7-.7v-8.1c0-.4.3-.7.7-.7.4 0 .7.3.7.7v8.1Z" fill="#FFF"/><circle fill="#FFF" cx="1.7" cy="26.4" r="1"/><g transform="translate(25 7)"><circle fill="#9CBCB6" cx="2" cy="1.2" r="1.2"/><path d="M2 0c.6 0 1.2.5 1.2 1.2 0 .6-.5 1.2-1.2 1.2" fill="#E2F2EF"/></g><g transform="translate(25 12)"><circle fill="#9CBCB6" cx="2" cy="1.7" r="1.2"/><path d="M2 .6c.6 0 1.2.5 1.2 1.2C3.2 2.4 2.7 3 2 3" fill="#E2F2EF"/></g><g transform="translate(25 18)"><circle fill="#9CBCB6" cx="2" cy="1.3" r="1.2"/><path d="M2 .1c.6 0 1.2.5 1.2 1.2 0 .6-.5 1.2-1.2 1.2" fill="#E2F2EF"/></g><path d="M20.9 61.5V49.9c0-.6-.4-1-1-1s-1 .4-1 1v11.6h2Z" fill="#8FA8A3"/><path d="M20.9 61.5V49.9c0-.6-.4-1-1-1s-1 .4-1 1" fill="#76938D"/><path d="M28 61.5V49.9c0-.6-.4-1-1-1s-1 .4-1 1v11.6h2Z" fill="#8FA8A3"/><path d="M28 61.5V49.9c0-.6-.4-1-1-1s-1 .4-1 1" fill="#76938D"/><path d="M35.1 61.5V49.9c0-.6-.4-1-1-1s-1 .4-1 1v11.6h2Z" fill="#8FA8A3"/><path d="M35.1 61.5V49.9c0-.6-.4-1-1-1s-1 .4-1 1" fill="#76938D"/></g><g transform="translate(15 24)"><circle fill="#D87703" cx="4.6" cy="7.2" r="3.5"/><path d="M30.9 7.2c0 1.9-1.6 3.5-3.5 3.5s-3.5-1.6-3.5-3.5 1.6-3.5 3.5-3.5c2 0 3.5 1.6 3.5 3.5Z" fill="#D87703"/><circle fill="#1E4784" cx="4.6" cy="6.2" r="3.5"/><path d="M4.6 2.7c1.9 0 3.5 1.6 3.5 3.5S6.5 9.7 4.6 9.7" fill="#00233F"/><path d="M30.9 6.2c0 1.9-1.6 3.5-3.5 3.5s-3.5-1.6-3.5-3.5 1.6-3.5 3.5-3.5c2 0 3.5 1.6 3.5 3.5Z" fill="#1E4784"/><path d="M27.4 2.7c1.9 0 3.5 1.6 3.5 3.5s-1.6 3.5-3.5 3.5" fill="#00233F"/><path d="M.5 5.5C.5 3.2 2.3.4 4.6.4s4.1 2.8 4.1 5.1" fill="#F9A908"/><path d="M23.3 5.5c0-2.3 1.8-5.1 4.1-5.1 2.2 0 4.1 2.8 4.1 5.1" fill="#F7910B"/></g><g fill="#19BCA4"><path d="M25.2 18.3c0 1.1-2.3.5-5.1.4-2.8-.1-5.1.4-5.1-.7s2.3-2 5.1-1.9c2.9.1 5.2 1.1 5.1 2.2ZM36.8 18.3c0 1.1 2.3.5 5.1.4 2.8-.1 5.1.4 5.1-.7s-2.3-2-5.1-1.9c-2.9.1-5.2 1.1-5.1 2.2Z"/></g></g></svg>