<svg width="62" height="58" xmlns="http://www.w3.org/2000/svg"><g fill-rule="nonzero" fill="none"><path d="M61.3 34.5C61.3 47.5 49.4 58 31 58S.7 47.5.7 34.5 12.6 2 31 2s30.3 19.5 30.3 32.5Z" fill="#F7910B"/><path d="M61.3 34.5C61.3 47.5 49.4 54 31 54S.7 47.5.7 34.5 12.6 0 31 0s30.3 21.5 30.3 34.5Z" fill="#F7910B"/><path d="M31 0c18.4 0 30.3 21.5 30.3 34.5S49.4 54 31 54" fill="#F9A908"/><path d="M61.3 34.5C61.3 47.5 49.4 54 31 54S.7 47.5.7 34.5 12.6 2 31 2s30.3 19.5 30.3 32.5Z" fill="#F9A908"/><path d="M.7 34.5C.7 21.5 12.6 2 31 2" fill="#F9C55D"/><path d="M31 2c18.4 0 30.3 19.5 30.3 32.5S49.4 58 31 58" fill="#F7910B"/><path d="M31 2c18.4 0 30.3 19.5 30.3 32.5" fill="#EA7103"/><path d="M26.8 17.6c0 1.2-3.5.7-7.8.7s-7.8.6-7.8-.7c0-1.3 3.5-2.2 7.8-2.2s7.8 1 7.8 2.2Z" fill="#F9C55D"/><path d="M50.8 17.6c0 1.2-3.5.7-7.8.7s-7.8.6-7.8-.7c0-1.3 3.5-2.2 7.8-2.2s7.8 1 7.8 2.2Z" fill="#F9A908"/><circle fill="#F7910B" cx="9.3" cy="31.5" r="1"/><circle fill="#F7910B" cx="4.8" cy="33.5" r="1.1"/><circle fill="#F7910B" cx="7.8" cy="29.5" r="1"/><circle fill="#F7910B" cx="12.4" cy="31.3" r="1"/><circle fill="#F9A908" cx="51.6" cy="31.8" r="1"/><circle fill="#F9A908" cx="54.1" cy="33.2" r="1"/><circle fill="#F9A908" cx="48.8" cy="24.4" r="1"/><circle fill="#F9A908" cx="48.3" cy="36" r="1.3"/><circle fill="#F9A908" cx="55.5" cy="36.1" r="1"/><circle fill="#F7910B" cx="8.3" cy="35.5" r="1"/><circle fill="#F7910B" cx="9.1" cy="27.1" r="1"/><circle fill="#061C33" cx="3.8" cy="13.3" r="1.1"/><circle fill="#061C33" cx="7" cy="9.8" r="1"/><circle fill="#061C33" cx="58.2" cy="15.7" r="1"/><circle fill="#061C33" cx="57.4" cy="12.8" r="1"/><circle fill="#061C33" cx="60" cy="13.3" r="1"/><circle fill="#061C33" cx="5" cy="16.3" r="1"/><g fill="#037A66"><path d="M24.6 7.8c.3.9-1.4.9-3.3 1.5s-3.3 1.5-3.6.6c-.3-.9 1-2.1 2.9-2.7 1.9-.5 3.7-.3 4 .6ZM37.4 7.8c-.3.9 1.4.9 3.3 1.5s3.3 1.5 3.6.6c.3-.9-1-2.1-2.9-2.7-1.9-.5-3.7-.3-4 .6Z"/></g><path d="M36.3 24.4c0 .7-2.4 4-5.3 4s-5.2-3.3-5.2-4c0-.7 2.4-.1 5.2-.1 2.9 0 5.3-.6 5.3.1Z" fill="#F7910B"/><path d="M25.8 24.3c0-.7 2.4-1.3 5.2-1.3 2.9 0 5.2.6 5.2 1.3 0 .7-2.4.1-5.2.1-2.9 0-5.2.6-5.2-.1Z" fill="#99144A"/><path d="M31 0C12.6 0 .7 21.5.7 34.5S12.6 58 31 58s30.3-10.5 30.3-23.5S49.4 0 31 0Zm0 33.5c-4.9 0-9-3.9-9-8.8 0-4.8 4-5.3 9-5.3s9 .5 9 5.3c0 4.9-4.1 8.8-9 8.8Z" fill="#02598E"/><path d="M31 2.8C13.3 2.8 1.5 22.8.7 35.9 1.5 48.2 13.3 58 31 58c17.7 0 29.5-9.8 30.3-22.1C60.5 22.8 48.7 2.8 31 2.8Zm9 24.8c0 4.8-4 8.8-9 8.8s-9-3.9-9-8.8c0-.5.1-.9.1-1.4-.1-.5-.1-1-.1-1.5 0-4.8 4-5.3 9-5.3s9 .5 9 5.3c0 .5-.1 1-.1 1.5 0 .4.1.9.1 1.4Z" fill="#061C33"/><path d="M46.3 17.8c-.4 0-.8-.2-1.2-.5-1.4-1.4-3.7-1.4-5.1 0-.6.6-1.7.7-2.3 0-.6-.6-.7-1.7 0-2.3 2.7-2.7 7.1-2.7 9.8 0 .6.6.6 1.7 0 2.3-.4.4-.8.5-1.2.5Z" fill="#F8FCFF"/><path d="M47.4 15c.6.6.6 1.7 0 2.3-.3.3-.7.5-1.2.5-.4 0-.8-.2-1.2-.5-1.4-1.4-3.7-1.4-5.1 0-.6.6-1.7.7-2.3 0-.6-.6-.7-1.7 0-2.3" fill="#E7E8CD"/><path d="M15.7 17.8c.4 0 .8-.2 1.2-.5 1.4-1.4 3.7-1.4 5.1 0 .6.6 1.7.7 2.3 0 .6-.6.7-1.7 0-2.3-2.7-2.7-7.1-2.7-9.8 0-.6.6-.6 1.7 0 2.3.4.4.8.5 1.2.5Z" fill="#F8FCFF"/><path d="M14.6 15c-.6.6-.6 1.7 0 2.3.3.3.7.5 1.2.5.4 0 .8-.2 1.2-.5 1.4-1.4 3.7-1.4 5.1 0 .6.6 1.7.7 2.3 0 .6-.6.7-1.7 0-2.3" fill="#E7E8CD"/><path fill="#02598E" d="M6.5 20.3V0l10.2 10.2z"/><path fill="#061C33" d="M5.5 20.3 10.1 10 6.5 0l10.2 10.2z"/><path fill="#02598E" d="M55.5 20.3V0L45.3 10.2z"/><path fill="#061C33" d="M56.5 20.3 51.9 10l3.6-10-10.2 10.2z"/><g fill="#02598E"><path d="m29.5 15-9.3-5.8s2-1.9 4.1-1.4c2.1.5 5.2 7.2 5.2 7.2ZM32.5 15l9.2-5.8s-2-1.9-4.1-1.4c-2 .5-5.1 7.2-5.1 7.2Z"/></g><g transform="translate(13 18)" fill="#02598E"><ellipse cx="5.9" cy="1.2" rx="5.8" ry="1.1"/><ellipse cx="30.1" cy="1.2" rx="5.8" ry="1.1"/></g><g fill="#F8FCFF"><path d="M36.9 46.9c0 3.9-2.6 5.1-5.9 5.1-3.3 0-5.9-1.2-5.9-5.1 0-3.9 2.7-7.1 5.9-7.1s5.9 3.2 5.9 7.1Z"/><path d="m26.1 45.2-5-4-8.2 5.5 5.9-.7.6 2.3 2-2 1.7 2.4.5-2.2 2.5 1.8zM35.9 45.2l5-4 8.2 5.5-5.9-.7-.6 2.3-2-2-1.7 2.4-.5-2.2-2.5 1.8z"/></g></g></svg>