<svg width="48" height="45" viewBox="0 0 48 45" fill="none" xmlns="http://www.w3.org/2000/svg">
<g filter="url(#filter0_dddd_5619_6993)">
<path d="M12.125 6.11133C10.3991 6.11133 9 7.52909 9 9.278V24.0558C9 25.8047 10.3991 27.2224 12.125 27.2224H22.5417C24.2676 27.2224 25.6667 25.8047 25.6667 24.0558V12.7913C25.6667 11.9515 25.3374 11.146 24.7514 10.5522L21.2843 7.03882C20.6982 6.44496 19.9034 6.11133 19.0746 6.11133H12.125Z" fill="#330000"/>
<path fill-rule="evenodd" clip-rule="evenodd" d="M8.88892 8C8.88892 6.89543 9.78435 6 10.8889 6H19.5589C20.0893 6 20.598 6.21071 20.9731 6.58579L25.192 10.8047C25.5671 11.1798 25.7778 11.6885 25.7778 12.219V25.3333C25.7778 26.4379 24.8824 27.3333 23.7778 27.3333H10.8889C9.78435 27.3333 8.88892 26.4379 8.88892 25.3333V8ZM10.8889 7.33333C10.5207 7.33333 10.2222 7.63181 10.2222 8V25.3333C10.2222 25.7015 10.5207 26 10.8889 26H23.7778C24.146 26 24.4445 25.7015 24.4445 25.3333V12.219C24.4445 12.0421 24.3742 11.8726 24.2492 11.7475L20.0303 7.5286C19.9052 7.40357 19.7357 7.33333 19.5589 7.33333H10.8889Z" fill="#FF9A00"/>
<path d="M16.8828 20.3575H14.1488L13.5903 22.0846C13.5756 22.1507 13.5168 22.1948 13.4507 22.1875H12.069C11.9882 22.1875 11.9661 22.1434 11.9882 22.0552L14.3546 15.2424C14.3767 15.169 14.3987 15.0881 14.4281 14.9999C14.4575 14.8455 14.4722 14.6839 14.4722 14.5222C14.4649 14.4855 14.4942 14.4487 14.531 14.4414H16.4344C16.4933 14.4414 16.5226 14.4634 16.53 14.5002L19.2125 22.0699C19.2345 22.1507 19.2125 22.1875 19.139 22.1875H17.603C17.5516 22.1948 17.5001 22.1581 17.4854 22.1066L16.8828 20.3575ZM14.5751 18.8656H16.4418C16.3977 18.7113 16.3389 18.5275 16.2728 18.3365C16.2067 18.138 16.1405 17.9249 16.0744 17.7045C16.0009 17.4766 15.9347 17.2561 15.8612 17.0283C15.7877 16.8005 15.7216 16.5873 15.6628 16.3742C15.604 16.1685 15.5525 15.9774 15.5011 15.801H15.4864C15.4202 16.117 15.3394 16.4331 15.2366 16.749C15.1263 17.1018 15.0161 17.4692 14.8985 17.8367C14.8036 18.1836 14.6957 18.5268 14.5751 18.8656ZM20.8514 15.7275C20.6088 15.7348 20.3737 15.6393 20.1973 15.4703C20.0283 15.2865 19.9401 15.044 19.9474 14.7941C19.9401 14.5442 20.0356 14.3091 20.212 14.14C20.3884 13.9709 20.6236 13.8828 20.8661 13.8828C21.1527 13.8828 21.3732 13.971 21.5348 14.14C21.6977 14.3182 21.7847 14.5528 21.7774 14.7941C21.7847 15.044 21.6966 15.2865 21.5202 15.4703C21.3512 15.6466 21.1013 15.7422 20.8514 15.7275ZM20.0283 22.1066V16.4477C20.0283 16.3742 20.0576 16.3448 20.1238 16.3448H21.5789C21.6451 16.3448 21.6745 16.3816 21.6745 16.4477V22.1066C21.6745 22.1875 21.6451 22.2242 21.5789 22.2242H20.1385C20.065 22.2242 20.0283 22.1802 20.0283 22.1066Z" fill="#FF9A00"/>
<path d="M25.4583 12.7773C23.7324 12.7773 22.3333 14.1951 22.3333 15.944V30.7218C22.3333 32.4707 23.7324 33.8885 25.4583 33.8885H35.875C37.6009 33.8885 39 32.4707 39 30.7218V19.4574C39 18.6175 38.6707 17.812 38.0847 17.2182L34.6176 13.7048C34.0315 13.111 33.2367 12.7773 32.4079 12.7773H25.4583Z" fill="#001E36"/>
<path d="M25.5625 28.6392V21.2273C25.5625 21.1732 25.5853 21.1462 25.6309 21.1461L25.7031 21.1459L25.8264 21.1446L25.9977 21.1411L26.5717 21.1288L27.1872 21.1171C27.4037 21.1133 27.6183 21.1114 27.8311 21.1113C28.4084 21.1113 28.8947 21.1848 29.2898 21.3317C29.6463 21.4544 29.9714 21.6565 30.2415 21.9233C30.4704 22.1545 30.6473 22.4335 30.76 22.7411C30.8666 23.0404 30.9206 23.3564 30.9196 23.6748C30.9196 24.2935 30.779 24.8039 30.4979 25.2059C30.2229 25.5981 29.8394 25.898 29.3963 26.0674L29.3582 26.0816C28.8955 26.2573 28.3831 26.3208 27.821 26.3248L27.7337 26.325L27.6041 26.3244L27.5387 26.3234L27.4659 26.3217L27.422 26.3199L27.3953 26.3185L27.3296 26.3161L27.2494 26.3144L27.1286 26.3135L27.1018 26.3134V28.6276C27.1038 28.6418 27.1025 28.6563 27.098 28.6699C27.0936 28.6835 27.0861 28.6958 27.0761 28.706C27.0662 28.7161 27.054 28.7237 27.0407 28.7282C27.0273 28.7328 27.0131 28.7341 26.9992 28.732H25.6423C25.5891 28.7321 25.5625 28.7012 25.5625 28.6392ZM27.1018 22.538V24.9555C27.2005 24.9633 27.2916 24.9672 27.3752 24.9671H27.7514C28.0107 24.9662 28.2685 24.9269 28.5167 24.8505L28.5662 24.8347C28.792 24.7665 28.9938 24.6336 29.1475 24.4519C29.2903 24.2805 29.3643 24.0443 29.3694 23.7432L29.3697 23.7095C29.3757 23.4852 29.3184 23.2638 29.2044 23.0716C29.0847 22.8857 28.9116 22.7419 28.7087 22.6598C28.4438 22.555 28.1608 22.5057 27.8767 22.5149L27.7322 22.5153L27.641 22.5161L27.554 22.5172L27.4312 22.5196L27.3417 22.5222L27.2951 22.524L27.233 22.5269L27.18 22.5303L27.1498 22.5327L27.1237 22.5353L27.1122 22.5366L27.1018 22.538ZM35.326 24.5159C35.1272 24.412 34.9163 24.3339 34.6984 24.2834L34.6479 24.2724C34.4081 24.2164 34.1633 24.1855 33.9174 24.1803L33.8559 24.1796C33.7117 24.1756 33.5677 24.1932 33.4285 24.2318C33.34 24.2519 33.2612 24.3032 33.2062 24.3767C33.1691 24.4355 33.1493 24.504 33.1493 24.5739C33.1514 24.6418 33.1754 24.707 33.2176 24.7595C33.2781 24.8315 33.3508 24.8918 33.4323 24.9376L33.457 24.9509C33.6195 25.0399 33.7869 25.1193 33.9584 25.1886C34.3409 25.319 34.7063 25.4963 35.0468 25.7164C35.2787 25.8654 35.4706 26.0707 35.6053 26.3138C35.7184 26.544 35.7751 26.7987 35.7705 27.0561C35.7773 27.396 35.6818 27.7299 35.497 28.0131C35.299 28.3005 35.0241 28.524 34.7049 28.6568C34.3706 28.8063 33.9601 28.8836 33.4734 28.8886L33.4228 28.8889C33.1211 28.8919 32.8198 28.8651 32.5232 28.8086L32.4598 28.7961C32.2101 28.7495 31.967 28.6715 31.7361 28.5641C31.7129 28.5519 31.6933 28.5337 31.6793 28.5112C31.6652 28.4888 31.6573 28.463 31.6563 28.4364V27.1722C31.655 27.1599 31.6569 27.1475 31.6619 27.1362C31.667 27.125 31.6749 27.1153 31.6849 27.1083C31.6947 27.1027 31.7059 27.1002 31.7171 27.1012C31.7283 27.1023 31.7389 27.1068 31.7475 27.1141C32.0202 27.2778 32.3162 27.3971 32.625 27.4679C32.8972 27.5374 33.1764 27.5744 33.457 27.5782C33.7228 27.5782 33.9185 27.5433 34.0439 27.4737C34.1005 27.4473 34.1484 27.4048 34.1818 27.3513C34.2151 27.2977 34.2326 27.2355 34.232 27.1722C34.232 27.0717 34.175 26.9751 34.061 26.8822C34.0132 26.8433 33.9447 26.801 33.8555 26.7552L33.8128 26.7339L33.7673 26.7121L33.7434 26.701L33.6934 26.6784L33.6673 26.6669L33.6129 26.6437L33.5845 26.6319L33.5258 26.6079L33.4952 26.5957L33.432 26.571L33.3658 26.5458C33.0079 26.4191 32.6686 26.2435 32.3572 26.0238C32.1344 25.8661 31.951 25.6576 31.8216 25.4148C31.7096 25.1863 31.6529 24.9337 31.6563 24.6783C31.6556 24.3714 31.7385 24.0703 31.8956 23.8084C32.0748 23.5199 32.332 23.2903 32.6364 23.1473C32.9707 22.9772 33.3885 22.8921 33.89 22.892C34.1837 22.8896 34.4772 22.9109 34.7676 22.9558C34.9778 22.983 35.1834 23.0396 35.3785 23.124C35.4099 23.1332 35.4352 23.1568 35.4469 23.1878C35.4546 23.2161 35.4584 23.2454 35.4583 23.2748V24.4464C35.4599 24.474 35.4469 24.5006 35.4241 24.5159C35.4089 24.5236 35.3921 24.5276 35.375 24.5276C35.358 24.5276 35.3412 24.5236 35.326 24.5159Z" fill="#31A8FF"/>
<path fill-rule="evenodd" clip-rule="evenodd" d="M22.2222 14.666C22.2222 13.5614 23.1177 12.666 24.2222 12.666H32.8922C33.4226 12.666 33.9313 12.8767 34.3064 13.2518L38.5253 17.4708C38.9004 17.8458 39.1111 18.3545 39.1111 18.885V31.9993C39.1111 33.1039 38.2157 33.9993 37.1111 33.9993H24.2222C23.1177 33.9993 22.2222 33.1039 22.2222 31.9993V14.666ZM24.2222 13.9993C23.854 13.9993 23.5556 14.2978 23.5556 14.666V31.9993C23.5556 32.3675 23.854 32.666 24.2222 32.666H37.1111C37.4793 32.666 37.7778 32.3675 37.7778 31.9993V18.885C37.7778 18.7082 37.7075 18.5386 37.5825 18.4136L33.3636 14.1946C33.2385 14.0696 33.069 13.9993 32.8922 13.9993H24.2222Z" fill="#31A8FF"/>
</g>
<defs>
<filter id="filter0_dddd_5619_6993" x="0" y="-2" width="48" height="50" filterUnits="userSpaceOnUse" color-interpolation-filters="sRGB">
<feFlood flood-opacity="0" result="BackgroundImageFix"/>
<feColorMatrix in="SourceAlpha" type="matrix" values="0 0 0 0 0 0 0 0 0 0 0 0 0 0 0 0 0 0 127 0" result="hardAlpha"/>
<feMorphology radius="2" operator="erode" in="SourceAlpha" result="effect1_dropShadow_5619_6993"/>
<feOffset dy="1"/>
<feGaussianBlur stdDeviation="0.875"/>
<feColorMatrix type="matrix" values="0 0 0 0 0.180392 0 0 0 0 0.180392 0 0 0 0 0.184314 0 0 0 0.12 0"/>
<feBlend mode="normal" in2="BackgroundImageFix" result="effect1_dropShadow_5619_6993"/>
<feColorMatrix in="SourceAlpha" type="matrix" values="0 0 0 0 0 0 0 0 0 0 0 0 0 0 0 0 0 0 127 0" result="hardAlpha"/>
<feMorphology radius="2" operator="erode" in="SourceAlpha" result="effect2_dropShadow_5619_6993"/>
<feOffset dy="2"/>
<feGaussianBlur stdDeviation="1.25"/>
<feColorMatrix type="matrix" values="0 0 0 0 0.180392 0 0 0 0 0.180392 0 0 0 0 0.184314 0 0 0 0.12 0"/>
<feBlend mode="normal" in2="effect1_dropShadow_5619_6993" result="effect2_dropShadow_5619_6993"/>
<feColorMatrix in="SourceAlpha" type="matrix" values="0 0 0 0 0 0 0 0 0 0 0 0 0 0 0 0 0 0 127 0" result="hardAlpha"/>
<feMorphology radius="2" operator="erode" in="SourceAlpha" result="effect3_dropShadow_5619_6993"/>
<feOffset dy="4"/>
<feGaussianBlur stdDeviation="3"/>
<feColorMatrix type="matrix" values="0 0 0 0 0.180392 0 0 0 0 0.180392 0 0 0 0 0.184314 0 0 0 0.12 0"/>
<feBlend mode="normal" in2="effect2_dropShadow_5619_6993" result="effect3_dropShadow_5619_6993"/>
<feColorMatrix in="SourceAlpha" type="matrix" values="0 0 0 0 0 0 0 0 0 0 0 0 0 0 0 0 0 0 127 0" result="hardAlpha"/>
<feOffset/>
<feGaussianBlur stdDeviation="1"/>
<feColorMatrix type="matrix" values="0 0 0 0 0.180392 0 0 0 0 0.180392 0 0 0 0 0.184314 0 0 0 0.25 0"/>
<feBlend mode="normal" in2="effect3_dropShadow_5619_6993" result="effect4_dropShadow_5619_6993"/>
<feBlend mode="normal" in="SourceGraphic" in2="effect4_dropShadow_5619_6993" result="shape"/>
</filter>
</defs>
</svg>
