<svg width="65" height="64" viewBox="0 0 65 64" fill="none" xmlns="http://www.w3.org/2000/svg">
<g id="AI FILE">
<path id="Surface" d="M20.1667 6.66797C16.0246 6.66797 12.6667 10.0706 12.6667 14.268V49.7346C12.6667 53.932 16.0246 57.3346 20.1667 57.3346H45.1667C49.3088 57.3346 52.6667 53.932 52.6667 49.7346V22.7C52.6667 20.6843 51.8765 18.7513 50.47 17.326L42.1489 8.89396C40.7424 7.46868 38.8347 6.66797 36.8456 6.66797H20.1667Z" fill="#330000"/>
<path id="Surface_2" fill-rule="evenodd" clip-rule="evenodd" d="M12.6669 10.6621C12.6669 8.45297 14.4577 6.66211 16.6669 6.66211H38.229C39.2898 6.66211 40.3073 7.08354 41.0574 7.83368L51.4953 18.2716C52.2454 19.0217 52.6669 20.0391 52.6669 21.1V53.3288C52.6669 55.5379 50.876 57.3288 48.6669 57.3288H16.6669C14.4577 57.3288 12.6669 55.5379 12.6669 53.3288V10.6621ZM16.6669 9.32878C15.9305 9.32878 15.3335 9.92573 15.3335 10.6621V53.3288C15.3335 54.0652 15.9305 54.6621 16.6669 54.6621H48.6669C49.4033 54.6621 50.0002 54.0652 50.0002 53.3288V21.1C50.0002 20.7464 49.8597 20.4073 49.6097 20.1572L39.1718 9.7193C38.9217 9.46925 38.5826 9.32878 38.229 9.32878H16.6669Z" fill="#FF9A00"/>
<path id="Vector" d="M31.5854 40.8556H25.024L23.6834 45.0007C23.6482 45.1594 23.5072 45.2652 23.3484 45.2476H20.0323C19.8384 45.2476 19.7854 45.1417 19.8384 44.9301L25.5179 28.5794C25.5708 28.4032 25.6237 28.209 25.6942 27.9974C25.7648 27.627 25.8 27.239 25.8 26.8509C25.7825 26.7628 25.8529 26.6745 25.9412 26.657H30.5094C30.6506 26.657 30.7211 26.7099 30.7388 26.798L37.1767 44.9654C37.2296 45.1594 37.1767 45.2476 37.0004 45.2476H33.3139C33.1906 45.2652 33.067 45.1771 33.0318 45.0536L31.5854 40.8556ZM26.0471 37.2751H30.5271C30.4213 36.9047 30.2802 36.4637 30.1215 36.0052C29.9628 35.5289 29.804 35.0175 29.6453 34.4883C29.4688 33.9415 29.3101 33.4124 29.1336 32.8655C28.9574 32.3188 28.7986 31.8072 28.6574 31.2958C28.5164 30.802 28.3928 30.3433 28.2695 29.92H28.2341C28.0754 30.6785 27.8814 31.437 27.6345 32.1953C27.3699 33.042 27.1054 33.9238 26.8231 34.8058C26.5953 35.6383 26.3365 36.462 26.0471 37.2751ZM41.1101 29.7435C40.528 29.7612 39.9636 29.5319 39.5403 29.1263C39.1347 28.6853 38.923 28.1032 38.9406 27.5036C38.923 26.9038 39.1522 26.3395 39.5755 25.9337C39.9988 25.5279 40.5634 25.3164 41.1454 25.3164C41.8333 25.3164 42.3625 25.5281 42.7504 25.9337C43.1414 26.3613 43.3502 26.9245 43.3325 27.5036C43.3502 28.1032 43.1385 28.6853 42.7152 29.1263C42.3096 29.5496 41.7098 29.7789 41.1101 29.7435ZM39.1347 45.0536V31.4722C39.1347 31.2958 39.2051 31.2252 39.3639 31.2252H42.8562C43.015 31.2252 43.0856 31.3135 43.0856 31.4722V45.0536C43.0856 45.2476 43.015 45.3359 42.8562 45.3359H39.3993C39.2228 45.3359 39.1347 45.23 39.1347 45.0536Z" fill="#FF9A00"/>
</g>
</svg>
