<svg width="24" height="24" viewBox="0 0 24 24" fill="none" xmlns="http://www.w3.org/2000/svg">
<g id="icon arrow">
<g id="Rectangle 2223">
<rect width="24" height="24" rx="12" fill="#1BC72F"/>
<rect width="24" height="24" rx="12" fill="url(#paint0_linear_5619_6753)" fill-opacity="0.3" style="mix-blend-mode:multiply"/>
</g>
<path id="Vector" d="M5.15626 11.9888C5.15626 12.2852 5.27401 12.5695 5.48362 12.7791C5.69322 12.9887 5.97751 13.1065 6.27393 13.1065L15.1259 13.1065L12.1902 16.0423C11.9927 16.2541 11.8853 16.5344 11.8904 16.8239C11.8955 17.1135 12.0128 17.3897 12.2176 17.5945C12.4223 17.7993 12.6986 17.9166 12.9881 17.9217C13.2777 17.9268 13.5579 17.8193 13.7698 17.6219L18.6131 12.7786C18.8224 12.5691 18.9399 12.285 18.9399 11.9888C18.9399 11.6926 18.8224 11.4086 18.6131 11.199L13.7698 6.35573C13.6675 6.24592 13.5441 6.15784 13.407 6.09676C13.2699 6.03567 13.1219 6.00282 12.9718 6.00017C12.8218 5.99753 12.6727 6.02513 12.5335 6.08134C12.3943 6.13756 12.2679 6.22123 12.1618 6.32736C12.0557 6.43349 11.972 6.55991 11.9158 6.69908C11.8596 6.83825 11.832 6.98732 11.8346 7.13739C11.8373 7.28746 11.8701 7.43546 11.9312 7.57256C11.9923 7.70966 12.0804 7.83306 12.1902 7.93538L15.1259 10.8711L6.27393 10.8711C5.65698 10.8711 5.15626 11.3719 5.15626 11.9888Z" fill="white"/>
</g>
<defs>
<linearGradient id="paint0_linear_5619_6753" x1="12" y1="0" x2="12" y2="24" gradientUnits="userSpaceOnUse">
<stop stop-opacity="0"/>
<stop offset="1"/>
</linearGradient>
</defs>
</svg>
