<svg width="65" height="64" viewBox="0 0 65 64" fill="none" xmlns="http://www.w3.org/2000/svg">
<path d="M20.1667 6.66602C16.0246 6.66602 12.6667 10.0687 12.6667 14.266V49.7327C12.6667 53.93 16.0246 57.3327 20.1667 57.3327H45.1667C49.3088 57.3327 52.6667 53.93 52.6667 49.7327V22.698C52.6667 20.6824 51.8765 18.7493 50.47 17.324L42.1489 8.892C40.7424 7.46673 38.8347 6.66602 36.8456 6.66602H20.1667Z" fill="#161617"/>
<path fill-rule="evenodd" clip-rule="evenodd" d="M12 12C12 8.68629 14.6863 6 18 6H37.6765C39.2678 6 40.7939 6.63214 41.9191 7.75736L51.576 17.4142C52.7012 18.5394 53.3333 20.0656 53.3333 21.6569V52C53.3333 55.3137 50.647 58 47.3333 58H18C14.6863 58 12 55.3137 12 52V12ZM18 10C16.8954 10 16 10.8954 16 12V52C16 53.1046 16.8954 54 18 54H47.3333C48.4379 54 49.3333 53.1046 49.3333 52V21.6569C49.3333 21.1264 49.1226 20.6177 48.7475 20.2426L39.0907 10.5858C38.7156 10.2107 38.2069 10 37.6765 10H18Z" fill="#471AFF"/>
<g clip-path="url(#clip0_5619_6631)">
<path d="M24.7342 34.2209C23.7608 34.2209 22.8907 34.0184 22.1241 33.6136C21.366 33.2001 20.7759 32.6272 20.3538 31.895C19.9318 31.1628 19.7207 30.3359 19.7207 29.4141C19.7207 28.4924 19.9318 27.6655 20.3538 26.9333C20.7759 26.201 21.366 25.6325 22.1241 25.2276C22.8907 24.8142 23.7608 24.6074 24.7342 24.6074C26.1469 24.6074 27.284 24.9391 28.1454 25.6024C29.0068 26.2657 29.4935 27.1874 29.6055 28.3675H26.7628C26.668 27.9454 26.4441 27.6138 26.0909 27.3726C25.7377 27.1228 25.2898 26.9979 24.7471 26.9979C24.0493 26.9979 23.5023 27.2132 23.1061 27.6439C22.7184 28.0746 22.5246 28.6647 22.5246 29.4141C22.5246 30.1636 22.7184 30.7536 23.1061 31.1844C23.5023 31.6151 24.0493 31.8304 24.7471 31.8304C25.2898 31.8304 25.7377 31.7098 26.0909 31.4686C26.4441 31.2188 26.668 30.8829 26.7628 30.4608H29.6055C29.4935 31.6409 29.0068 32.5626 28.1454 33.2259C27.284 33.8892 26.1469 34.2209 24.7342 34.2209Z" fill="white"/>
<path d="M36.4509 33.9366H30.6364V24.8917H36.4509V26.9074H33.324V28.4838H36.4509V30.4091H33.324V31.9209H36.4509V33.9366Z" fill="white"/>
<ellipse cx="39.3168" cy="32.6366" rx="1.46279" ry="1.46279" fill="#471AFF"/>
<path d="M23.5196 45.2111C22.3395 45.2111 21.4091 44.9268 20.7286 44.3583C20.0567 43.7811 19.7208 42.9843 19.7208 41.9678H22.4084C22.4084 42.3555 22.5075 42.6613 22.7056 42.8853C22.9123 43.1092 23.1966 43.2212 23.5584 43.2212C23.8513 43.2212 24.0752 43.1566 24.2303 43.0274C24.3853 42.8982 24.4629 42.713 24.4629 42.4718C24.4629 42.265 24.3983 42.1014 24.2691 41.9808C24.1398 41.8516 23.9202 41.7266 23.6101 41.6061L21.814 40.9471C20.5219 40.4647 19.8758 39.6119 19.8758 38.3887C19.8758 37.8287 20.018 37.342 20.3022 36.9285C20.5865 36.5065 20.9957 36.1791 21.5297 35.9465C22.0638 35.7139 22.6927 35.5977 23.4162 35.5977C24.1485 35.5977 24.7859 35.7139 25.3286 35.9465C25.8799 36.1791 26.302 36.5151 26.5949 36.9544C26.8964 37.3851 27.0471 37.8976 27.0471 38.492H24.3595C24.3595 38.1561 24.2734 37.8976 24.1011 37.7167C23.9374 37.5272 23.7005 37.4325 23.3904 37.4325C23.1406 37.4325 22.9425 37.4928 22.796 37.6134C22.6496 37.734 22.5764 37.902 22.5764 38.1173C22.5764 38.2982 22.6496 38.4576 22.796 38.5954C22.9425 38.7246 23.2009 38.8581 23.5713 38.996L25.2252 39.6291C25.8885 39.8875 26.3752 40.2321 26.6853 40.6628C26.9954 41.0935 27.1505 41.619 27.1505 42.2392C27.1505 42.8422 26.9997 43.3677 26.6983 43.8156C26.4054 44.2635 25.9833 44.6081 25.432 44.8493C24.8893 45.0905 24.2518 45.2111 23.5196 45.2111Z" fill="white"/>
<path d="M28.2014 44.9268V35.8819H31.9356C32.8573 35.8819 33.6714 36.0801 34.3777 36.4763C35.0927 36.8726 35.644 37.4152 36.0317 38.1044C36.4279 38.7935 36.626 39.5602 36.626 40.4044C36.626 41.2486 36.4322 42.0152 36.0446 42.7044C35.6569 43.3935 35.1056 43.9362 34.3907 44.3324C33.6843 44.7287 32.8659 44.9268 31.9356 44.9268H28.2014ZM31.703 42.7302C32.1423 42.7302 32.5214 42.6268 32.8401 42.4201C33.1674 42.2134 33.4129 41.9334 33.5766 41.5802C33.7489 41.227 33.835 40.8351 33.835 40.4044C33.835 39.9737 33.7489 39.5817 33.5766 39.2285C33.4129 38.8754 33.1674 38.5954 32.8401 38.3887C32.5214 38.1819 32.1423 38.0785 31.703 38.0785H30.889V42.7302H31.703Z" fill="white"/>
<path d="M42.9118 35.8819H46L42.7826 40.3785L46 44.9268H42.9118L40.3276 40.9988V44.9268H37.6399V35.8819H40.3276V39.81L42.9118 35.8819Z" fill="white"/>
</g>
<path d="M40.5049 9.17157C39.7548 8.42143 38.7373 8 37.6765 8H18C15.7909 8 14 9.79086 14 12V52C14 54.2091 15.7909 56 18 56H47.3333C49.5425 56 51.3333 54.2091 51.3333 52V21.6569C51.3333 20.596 50.9119 19.5786 50.1618 18.8284L40.5049 9.17157Z" fill="#471AFF"/>
<path d="M40.5049 9.17157C39.7548 8.42143 38.7373 8 37.6765 8H18C15.7909 8 14 9.79086 14 12V52C14 54.2091 15.7909 56 18 56H47.3333C49.5425 56 51.3333 54.2091 51.3333 52V21.6569C51.3333 20.596 50.9119 19.5786 50.1618 18.8284L40.5049 9.17157Z" fill="url(#paint0_linear_5619_6631)" fill-opacity="0.16"/>
<path fill-rule="evenodd" clip-rule="evenodd" d="M12 12C12 8.68629 14.6863 6 18 6H37.6765C39.2678 6 40.7939 6.63214 41.9191 7.75736L51.576 17.4142C52.7012 18.5394 53.3333 20.0656 53.3333 21.6569V52C53.3333 55.3137 50.647 58 47.3333 58H18C14.6863 58 12 55.3137 12 52V12ZM18 10C16.8954 10 16 10.8954 16 12V52C16 53.1046 16.8954 54 18 54H47.3333C48.4379 54 49.3333 53.1046 49.3333 52V21.6569C49.3333 21.1264 49.1226 20.6177 48.7475 20.2426L39.0907 10.5858C38.7156 10.2107 38.2069 10 37.6765 10H18Z" fill="#471AFF"/>
<path fill-rule="evenodd" clip-rule="evenodd" d="M12 12C12 8.68629 14.6863 6 18 6H37.6765C39.2678 6 40.7939 6.63214 41.9191 7.75736L51.576 17.4142C52.7012 18.5394 53.3333 20.0656 53.3333 21.6569V52C53.3333 55.3137 50.647 58 47.3333 58H18C14.6863 58 12 55.3137 12 52V12ZM18 10C16.8954 10 16 10.8954 16 12V52C16 53.1046 16.8954 54 18 54H47.3333C48.4379 54 49.3333 53.1046 49.3333 52V21.6569C49.3333 21.1264 49.1226 20.6177 48.7475 20.2426L39.0907 10.5858C38.7156 10.2107 38.2069 10 37.6765 10H18Z" fill="url(#paint1_linear_5619_6631)" fill-opacity="0.16"/>
<g clip-path="url(#clip1_5619_6631)">
<path d="M24.3468 36.2794C23.3734 36.2794 22.5033 36.077 21.7367 35.6721C20.9786 35.2587 20.3886 34.6858 19.9665 33.9536C19.5444 33.2214 19.3333 32.3944 19.3333 31.4727C19.3333 30.551 19.5444 29.7241 19.9665 28.9918C20.3886 28.2596 20.9786 27.6911 21.7367 27.2862C22.5033 26.8728 23.3734 26.666 24.3468 26.666C25.7595 26.666 26.8966 26.9977 27.758 27.661C28.6194 28.3242 29.1061 29.246 29.2181 30.4261H26.3754C26.2807 30.004 26.0567 29.6724 25.7035 29.4312C25.3503 29.1814 24.9024 29.0565 24.3597 29.0565C23.6619 29.0565 23.1149 29.2718 22.7187 29.7025C22.331 30.1332 22.1372 30.7233 22.1372 31.4727C22.1372 32.2222 22.331 32.8122 22.7187 33.2429C23.1149 33.6737 23.6619 33.889 24.3597 33.889C24.9024 33.889 25.3503 33.7684 25.7035 33.5272C26.0567 33.2774 26.2807 32.9414 26.3754 32.5194H29.2181C29.1061 33.6995 28.6194 34.6212 27.758 35.2845C26.8966 35.9478 25.7595 36.2794 24.3468 36.2794Z" fill="white"/>
<path d="M36.0635 35.9952H30.249V26.9503H36.0635V28.966H32.9366V30.5424H36.0635V32.4677H32.9366V33.9795H36.0635V35.9952Z" fill="white"/>
<ellipse cx="38.9294" cy="34.6952" rx="1.46279" ry="1.46279" fill="#161617"/>
<path d="M23.1322 47.2697C21.9521 47.2697 21.0218 46.9854 20.3412 46.4169C19.6693 45.8397 19.3334 45.0429 19.3334 44.0264H22.021C22.021 44.4141 22.1201 44.7199 22.3182 44.9439C22.5249 45.1678 22.8092 45.2798 23.171 45.2798C23.4639 45.2798 23.6878 45.2152 23.8429 45.086C23.998 44.9568 24.0755 44.7716 24.0755 44.5304C24.0755 44.3236 24.0109 44.16 23.8817 44.0394C23.7525 43.9101 23.5328 43.7852 23.2227 43.6646L21.4266 43.0057C20.1345 42.5233 19.4884 41.6705 19.4884 40.4472C19.4884 39.8873 19.6306 39.4006 19.9148 38.9871C20.1991 38.565 20.6083 38.2377 21.1424 38.0051C21.6764 37.7725 22.3053 37.6562 23.0289 37.6562C23.7611 37.6562 24.3985 37.7725 24.9412 38.0051C25.4925 38.2377 25.9146 38.5737 26.2075 39.013C26.509 39.4437 26.6597 39.9562 26.6597 40.5506H23.9721C23.9721 40.2147 23.886 39.9562 23.7137 39.7753C23.55 39.5858 23.3131 39.4911 23.003 39.4911C22.7532 39.4911 22.5551 39.5514 22.4086 39.672C22.2622 39.7926 22.189 39.9605 22.189 40.1759C22.189 40.3568 22.2622 40.5162 22.4086 40.654C22.5551 40.7832 22.8135 40.9167 23.1839 41.0545L24.8378 41.6877C25.5011 41.9461 25.9878 42.2907 26.2979 42.7214C26.6081 43.1521 26.7631 43.6776 26.7631 44.2978C26.7631 44.9008 26.6124 45.4262 26.3109 45.8742C26.018 46.3221 25.5959 46.6667 25.0446 46.9079C24.5019 47.1491 23.8644 47.2697 23.1322 47.2697Z" fill="white"/>
<path d="M27.814 46.9854V37.9405H31.5482C32.4699 37.9405 33.284 38.1386 33.9903 38.5349C34.7053 38.9311 35.2566 39.4738 35.6443 40.163C36.0405 40.8521 36.2386 41.6188 36.2386 42.463C36.2386 43.3072 36.0448 44.0738 35.6572 44.763C35.2695 45.4521 34.7182 45.9948 34.0033 46.391C33.2969 46.7873 32.4786 46.9854 31.5482 46.9854H27.814ZM31.3156 44.7888C31.755 44.7888 32.134 44.6854 32.4527 44.4787C32.78 44.2719 33.0256 43.992 33.1892 43.6388C33.3615 43.2856 33.4476 42.8937 33.4476 42.463C33.4476 42.0323 33.3615 41.6403 33.1892 41.2871C33.0256 40.9339 32.78 40.654 32.4527 40.4472C32.134 40.2405 31.755 40.1371 31.3156 40.1371H30.5016V44.7888H31.3156Z" fill="white"/>
<path d="M42.5244 37.9405H45.6126L42.3952 42.4371L45.6126 46.9854H42.5244L39.9402 43.0573V46.9854H37.2526V37.9405H39.9402V41.8686L42.5244 37.9405Z" fill="white"/>
</g>
<defs>
<linearGradient id="paint0_linear_5619_6631" x1="32.6667" y1="8" x2="32.6667" y2="56" gradientUnits="userSpaceOnUse">
<stop stop-color="white"/>
<stop offset="1" stop-color="white" stop-opacity="0"/>
</linearGradient>
<linearGradient id="paint1_linear_5619_6631" x1="32.6667" y1="6" x2="32.6667" y2="58" gradientUnits="userSpaceOnUse">
<stop stop-color="white"/>
<stop offset="1" stop-color="white" stop-opacity="0"/>
</linearGradient>
<clipPath id="clip0_5619_6631">
<rect width="26.2792" height="20.6034" fill="white" transform="translate(19.7207 24.6074)"/>
</clipPath>
<clipPath id="clip1_5619_6631">
<rect width="26.2793" height="20.6034" fill="white" transform="translate(19.3333 26.666)"/>
</clipPath>
</defs>
</svg>
