<svg width="25" height="24" viewBox="0 0 25 24" fill="none" xmlns="http://www.w3.org/2000/svg">
<g id="icon error">
<g id="Rectangle 2223">
<rect x="0.666687" width="24" height="24" rx="12" fill="#E0512D"/>
<rect x="0.666687" width="24" height="24" rx="12" fill="url(#paint0_linear_5619_6681)" fill-opacity="0.3" style="mix-blend-mode:multiply"/>
</g>
<path id="Vector" d="M7.15939 6.20319L6.99933 6.33585L6.86901 6.49596C6.73725 6.68695 6.66669 6.91351 6.66669 7.14556C6.66669 7.37761 6.73725 7.60417 6.86901 7.79516L7.00162 7.95527L11.0486 12.0015L7.00619 16.0409L6.87586 16.2011C6.74411 16.392 6.67355 16.6186 6.67355 16.8507C6.67355 17.0827 6.74411 17.3093 6.87586 17.5003L7.00619 17.6604L7.16624 17.7907C7.35716 17.9225 7.58363 17.9931 7.8156 17.9931C8.04756 17.9931 8.27403 17.9225 8.46494 17.7907L8.625 17.6604L12.6629 13.6187L16.7099 17.6649L16.8676 17.7976C17.0586 17.9294 17.285 18 17.517 18C17.7489 18 17.9754 17.9294 18.1663 17.7976L18.3264 17.6649L18.4567 17.5048C18.5885 17.3138 18.659 17.0873 18.659 16.8552C18.659 16.6232 18.5885 16.3966 18.4567 16.2056L18.3264 16.0455L14.2794 12.0015L18.331 7.95298L18.4636 7.79516C18.5958 7.60395 18.6667 7.37694 18.6667 7.14442C18.6667 6.91189 18.5958 6.68489 18.4636 6.49367L18.331 6.33585L18.1732 6.20319C17.9821 6.07088 17.7551 6 17.5227 6C17.2903 6 17.0634 6.07088 16.8722 6.20319L16.7144 6.33585L12.6629 10.3844L8.61585 6.33585L8.46037 6.20319C8.29716 6.09036 8.10742 6.02196 7.90978 6.00472C7.71215 5.98747 7.51342 6.02197 7.33315 6.10483L7.15939 6.20319Z" fill="white"/>
</g>
<defs>
<linearGradient id="paint0_linear_5619_6681" x1="12.6667" y1="0" x2="12.6667" y2="24" gradientUnits="userSpaceOnUse">
<stop stop-opacity="0"/>
<stop offset="1"/>
</linearGradient>
</defs>
</svg>
