<svg width="64" height="64" viewBox="0 0 64 64" fill="none" xmlns="http://www.w3.org/2000/svg">
<g id="PSD FILE">
<path id="Surface" d="M19.5 6.66797C15.3579 6.66797 12 10.0706 12 14.268V49.7346C12 53.932 15.3579 57.3346 19.5 57.3346H44.5C48.6421 57.3346 52 53.932 52 49.7346V22.7C52 20.6843 51.2098 18.7513 49.8033 17.326L41.4822 8.89396C40.0757 7.46868 38.1681 6.66797 36.1789 6.66797H19.5Z" fill="#001E36"/>
<path id="Vector" d="M19.75 44.735V26.9463C19.75 26.8165 19.8047 26.7516 19.9142 26.7515L20.0873 26.751L20.3832 26.7477L20.7945 26.7395L22.1721 26.7098L23.6494 26.6819C24.1689 26.6727 24.684 26.6681 25.1946 26.668C26.5802 26.668 27.7472 26.8443 28.6956 27.1969C29.5512 27.4912 30.3315 27.9763 30.9795 28.6166C31.5289 29.1715 31.9535 29.8412 32.224 30.5793C32.4798 31.2976 32.6094 32.0562 32.607 32.8202C32.607 34.3051 32.2697 35.53 31.5949 36.4949C30.935 37.4361 30.0146 38.156 28.9511 38.5626L28.8598 38.5967C27.7492 39.0183 26.5194 39.1707 25.1705 39.1802L24.9609 39.1809L24.6499 39.1793L24.493 39.177L24.3181 39.1728L24.2127 39.1686L24.1487 39.1652L23.9911 39.1593L23.7986 39.1553L23.5087 39.1532L23.4442 39.153V44.7071C23.449 44.7411 23.4459 44.7758 23.4353 44.8085C23.4246 44.8411 23.4066 44.8707 23.3827 44.8951C23.3588 44.9194 23.3297 44.9377 23.2976 44.9486C23.2655 44.9594 23.2314 44.9626 23.198 44.9577H19.9416C19.8138 44.9578 19.7499 44.8835 19.75 44.735ZM23.4444 30.092V35.894C23.6812 35.9127 23.8999 35.9219 24.1006 35.9218H25.0033C25.6257 35.9197 26.2444 35.8254 26.8401 35.6419L26.9589 35.6041C27.5009 35.4404 27.9852 35.1215 28.354 34.6853C28.6967 34.2739 28.8742 33.707 28.8865 32.9846L28.8873 32.9037C28.9017 32.3652 28.7641 31.8338 28.4906 31.3726C28.2033 30.9265 27.7879 30.5814 27.3009 30.3843C26.6651 30.1327 25.9859 30.0143 25.3041 30.0364L24.9573 30.0374L24.7384 30.0393L24.5296 30.0421L24.235 30.0479L24.02 30.0541L23.9083 30.0583L23.7591 30.0654L23.632 30.0734L23.5595 30.0792L23.4969 30.0854L23.4694 30.0886L23.4444 30.092ZM43.1824 34.839C42.7052 34.5895 42.1992 34.4021 41.6761 34.281L41.555 34.2545C40.9795 34.1201 40.392 34.0461 39.8016 34.0335L39.6542 34.0317C39.3081 34.0222 38.9625 34.0644 38.6285 34.157C38.4159 34.2053 38.2269 34.3286 38.0949 34.5049C38.0057 34.6461 37.9583 34.8104 37.9583 34.9782C37.9633 35.141 38.0209 35.2976 38.1223 35.4235C38.2675 35.5963 38.442 35.7411 38.6376 35.851L38.6968 35.8829C39.0868 36.0966 39.4886 36.2871 39.9002 36.4535C40.8181 36.7665 41.6952 37.1918 42.5122 37.7202C43.0688 38.0777 43.5294 38.5704 43.8526 39.154C44.1242 39.7065 44.2603 40.3177 44.2492 40.9355C44.2654 41.7513 44.0364 42.5526 43.5927 43.2323C43.1176 43.9221 42.4578 44.4583 41.6917 44.7771C40.8894 45.1359 39.9042 45.3213 38.7361 45.3334L38.6148 45.3341C37.8907 45.3414 37.1676 45.2769 36.4557 45.1415L36.3035 45.1113C35.7042 44.9995 35.1208 44.8125 34.5667 44.5545C34.5109 44.5253 34.4638 44.4816 34.4302 44.4277C34.3966 44.3739 34.3776 44.3119 34.3752 44.2482V41.214C34.372 41.1845 34.3766 41.1547 34.3887 41.1277C34.4007 41.1007 34.4197 41.0776 34.4437 41.0608C34.4672 41.0472 34.4942 41.0412 34.521 41.0437C34.5479 41.0462 34.5734 41.057 34.5941 41.0747C35.2485 41.4674 35.959 41.7539 36.7001 41.9238C37.3533 42.0905 38.0234 42.1793 38.6968 42.1883C39.3348 42.1883 39.8043 42.1048 40.1054 41.9377C40.2412 41.8743 40.3561 41.7722 40.4362 41.6438C40.5163 41.5154 40.5582 41.3661 40.5567 41.214C40.5567 40.973 40.42 40.741 40.1465 40.5181C40.0318 40.4247 39.8674 40.3231 39.6532 40.2133L39.5508 40.1621L39.4415 40.1097L39.3842 40.0831L39.2641 40.029L39.2015 40.0014L39.0709 39.9457L39.0029 39.9173L38.8618 39.8598L38.7885 39.8306L38.6368 39.7711L38.478 39.7106C37.619 39.4066 36.8047 38.9852 36.0573 38.4579C35.5226 38.0795 35.0824 37.579 34.7718 36.9964C34.5029 36.4478 34.367 35.8417 34.3752 35.2287C34.3735 34.4921 34.5723 33.7694 34.9496 33.1408C35.3796 32.4487 35.9969 31.8975 36.7275 31.5542C37.5296 31.1461 38.5325 30.9419 39.736 30.9416C40.441 30.9358 41.1452 30.9871 41.8422 31.0948C42.3468 31.16 42.8402 31.2958 43.3084 31.4984C43.3837 31.5205 43.4444 31.577 43.4724 31.6516C43.4911 31.7195 43.5002 31.7897 43.4998 31.8604V34.672C43.5038 34.7385 43.4724 34.8022 43.4178 34.839C43.3812 34.8575 43.341 34.8671 43.3001 34.8671C43.2593 34.8671 43.219 34.8575 43.1824 34.839Z" fill="#31A8FF"/>
<path id="Surface_2" fill-rule="evenodd" clip-rule="evenodd" d="M12.0002 10.6621C12.0002 8.45297 13.791 6.66211 16.0002 6.66211H37.5623C38.6231 6.66211 39.6406 7.08354 40.3907 7.83368L50.8286 18.2716C51.5788 19.0217 52.0002 20.0391 52.0002 21.1V53.3288C52.0002 55.5379 50.2093 57.3288 48.0002 57.3288H16.0002C13.791 57.3288 12.0002 55.5379 12.0002 53.3288V10.6621ZM16.0002 9.32878C15.2638 9.32878 14.6668 9.92573 14.6668 10.6621V53.3288C14.6668 54.0652 15.2638 54.6621 16.0002 54.6621H48.0002C48.7366 54.6621 49.3335 54.0652 49.3335 53.3288V21.1C49.3335 20.7464 49.193 20.4073 48.943 20.1572L38.5051 9.7193C38.255 9.46925 37.9159 9.32878 37.5623 9.32878H16.0002Z" fill="#31A8FF"/>
</g>
</svg>
