<svg width="63" height="55" xmlns="http://www.w3.org/2000/svg"><g fill-rule="nonzero" fill="none"><path d="M61.08 32.223c0 12.031-13.243 15.408-29.579 15.408S1.92 44.254 1.92 32.223c0-12.033 13.244-21.787 29.58-21.787s29.58 9.753 29.58 21.787Z" fill="#C6BD8B"/><path d="M61.08 32.223c0 12.031-13.243 15.408-29.579 15.408S1.92 44.254 1.92 32.223c0-12.033 13.244-18.762 29.58-18.762s29.58 6.728 29.58 18.762Z" fill="#B5AD74"/><path d="M61.08 32.223c0 12.031-13.243 15.408-29.579 15.408S1.92 44.254 1.92 32.223c0-12.033 13.244-5.492 29.58-5.492s29.58-6.542 29.58 5.492Z" fill="#9E945A"/><g transform="translate(17 27)" fill="#082856"><circle cx="2.81" cy="2.918" r="2.657"/><circle cx="26.19" cy="2.918" r="2.657"/></g><g fill="#000"><path d="M22.467 29.918a2.656 2.656 0 1 1-5.314 0M45.847 29.918a2.656 2.656 0 1 1-5.313 0"/></g><g transform="translate(3 35)" fill="#9E945A"><ellipse cx="4.5" cy="10.023" rx="4" ry="9.062"/><ellipse cx="10.5" cy="10.023" rx="4" ry="9.062"/><ellipse cx="16.5" cy="10.023" rx="4" ry="9.062"/><ellipse cx="22.5" cy="10.023" rx="4" ry="9.062"/><ellipse cx="28.5" cy="10.023" rx="4" ry="9.062"/><ellipse cx="34.5" cy="10.023" rx="4" ry="9.062"/><ellipse cx="40.5" cy="10.023" rx="4" ry="9.062"/><ellipse cx="46.5" cy="10.023" rx="4" ry="9.062"/><ellipse cx="52.5" cy="10.023" rx="4" ry="9.062"/></g><g transform="translate(0 26)" fill="#9E945A"><ellipse cx="5.167" cy="12.336" rx="4.187" ry="12.188"/><ellipse cx="57.833" cy="12.336" rx="4.187" ry="12.188"/></g><path fill="#FCD827" d="m26.462 35.4 5.038-5.036 5.037 5.038-5.038 5.036z"/><path fill="#E0A624" d="M36.539 35.398 31.5 40.436l-5.038-5.038 5.038 1.145z"/><path d="M30.726 20.127s1.5-5.334-7.5-8.459-1.5-8.625 3-5.5c0 0-1.578-1.064-2.126-2.875-.666-2.207 7.376-4.75 9.126 1.875 0 0-1.306-1.734-.626-2.875.834-1.395 4.331-1.105 6.084 1.293 2.376 3.25 1.042 6.582-2.208 7.832s-5.75 8.709-5.75 8.709Z" fill="#B51063"/><path d="M32.6 2.293c-.186.314-.217.67-.172 1.025-2.629-4.201-8.921-1.99-8.328-.025.548 1.811 2.126 2.875 2.126 2.875-4.5-3.125-12 2.375-3 5.5.022.008.044.018.066.025 1.825.102 3.832.021 5.929-.281 4.516-.652 8.369-2.162 10.631-3.951.146-1.207-.197-2.547-1.168-3.875-1.753-2.398-5.25-2.688-6.084-1.293Z" fill="#CE1D7E"/><path d="M26.434 7.305c0 .535-1.367.031-2.938.031-1.571 0-2.75.504-2.75-.031s1.273-.969 2.844-.969 2.844.434 2.844.969ZM29.899 2.445c-.002.439-.976.016-2.096.008-1.122-.008-1.967.4-1.965-.039.003-.441.916-.791 2.036-.783 1.123.008 2.029.373 2.025.814ZM36.399 2.992c-.002.473-.66.021-1.418.016-.76-.006-1.333.436-1.33-.037.002-.471.622-.85 1.381-.846.759.006 1.371.395 1.367.867Z" fill="#F27EC3"/></g></svg>