<svg xmlns="http://www.w3.org/2000/svg" viewBox="0 0 2048 1151" style="enable-background:new 0 0 2048 1151" xml:space="preserve"><path d="M1921.75 125.75c0 495.81-401.94 897.75-897.75 897.75S126.25 621.56 126.25 125.75h1795.5z" style="fill:#8aff00"/><path d="M1921.75 44.25c0 495.82-401.94 822-897.75 822s-897.75-326.19-897.75-822h1795.5z" style="fill:#f0047f"/><path d="M1921.75 125.75c0 495.82-401.94 897.75-897.75 897.75S126.25 621.56 126.25 125.75h1795.5M2048-.5H0v126.25c0 273.52 106.51 530.67 299.92 724.08 193.41 193.41 450.56 299.92 724.08 299.92s530.67-106.51 724.08-299.92C1941.49 656.42 2048 399.27 2048 125.75V-.5z"/><path d="M404.48 318.66c0 59.21-18.13 107.21-40.5 107.21s-40.5-48-40.5-107.21 40.5-107.21 40.5-107.21 40.5 48 40.5 107.21zM616.53 561.68c0 59.21-18.13 107.21-40.5 107.21s-40.5-48-40.5-107.21 40.5-107.21 40.5-107.21 40.5 48 40.5 107.21zM764.3 319.67c0 59.21-18.13 107.21-40.5 107.21s-40.5-48-40.5-107.21 40.5-107.21 40.5-107.21 40.5 48 40.5 107.21zM1014.46 455.48c0 59.21-18.13 107.21-40.5 107.21s-40.5-48-40.5-107.21 40.5-107.21 40.5-107.21 40.5 48 40.5 107.21zM1267.02 331.59c0 59.21-18.13 107.21-40.5 107.21s-40.5-48-40.5-107.21 40.5-107.21 40.5-107.21 40.5 47.99 40.5 107.21zM1541.01 376.85c0 59.21-18.13 107.21-40.5 107.21s-40.5-48-40.5-107.21 40.5-107.21 40.5-107.21 40.5 48 40.5 107.21zM873.89 672.39c0 59.21-18.13 107.21-40.5 107.21s-40.5-48-40.5-107.21c0-59.21 40.5-107.21 40.5-107.21s40.5 48 40.5 107.21zM1145.5 690.29c0 59.21-18.13 107.21-40.5 107.21s-40.5-48-40.5-107.21 40.5-107.21 40.5-107.21 40.5 47.99 40.5 107.21zM1431.41 600.87c0 59.21-18.13 107.21-40.5 107.21s-40.5-48-40.5-107.21 40.5-107.21 40.5-107.21 40.5 47.99 40.5 107.21zM1731.61 317.29c0 59.21-18.13 107.21-40.5 107.21s-40.5-48-40.5-107.21 40.5-107.21 40.5-107.21 40.5 48 40.5 107.21z"/></svg>