<svg width="60" height="63" xmlns="http://www.w3.org/2000/svg"><g fill-rule="nonzero" fill="none"><g transform="translate(0 4)"><path d="M59.5 33.5c0 12.6-11.6 22.9-29.5 22.9S.5 46.2.5 33.5 12.1 1.9 30 1.9s29.5 19 29.5 31.6Z" fill="#F7910B"/><path d="M59.5 33.5c0 12.6-11.6 19-29.5 19S.5 46.2.5 33.5 12.1 0 30 0s29.5 20.9 29.5 33.5Z" fill="#F7910B"/><path d="M30 0c17.9 0 29.5 20.9 29.5 33.6 0 12.7-11.6 19-29.5 19" fill="#F9A908"/><path d="M59.5 33.5c0 12.6-11.6 19-29.5 19S.5 46.2.5 33.5 12.1 1.9 30 1.9s29.5 19 29.5 31.6Z" fill="#F9A908"/><path d="M.5 33.5C.5 20.9 12.1 1.9 30 1.9" fill="#F9C55D"/><path d="M30 1.9c17.9 0 29.5 19 29.5 31.6 0 12.6-11.6 22.9-29.5 22.9" fill="#F7910B"/><path d="M30 1.9c17.9 0 29.5 19 29.5 31.6" fill="#EA7103"/><path d="M24.1 11.9c.2.8-1.3.8-3 1.2-1.7.5-3 1.2-3.2.4-.2-.8 1-1.9 2.7-2.3 1.7-.4 3.3-.1 3.5.7Z" fill="#19BCA4"/><path d="M24.1 11.9c.2.8-1.3.8-3 1.2-1.7.5-3 1.2-3.2.4" fill="#109DA0"/><path d="M36 8.9c-.3.8 1.1.9 2.8 1.6 1.6.7 2.8 1.7 3.1.9.3-.8-.7-2-2.3-2.7-1.7-.6-3.2-.5-3.6.2Z" fill="#19BCA4"/><path d="M36 8.9c-.3.8 1.1.9 2.8 1.6 1.6.7 2.8 1.7 3.1.9" fill="#109DA0"/><circle fill="#F7910B" cx="8.9" cy="30.6" r="1"/><circle fill="#F7910B" cx="4.6" cy="32.5" r="1.1"/><circle fill="#F7910B" cx="7.5" cy="28.6" r="1"/><circle fill="#F7910B" cx="11.9" cy="30.4" r="1"/><circle fill="#F9A908" cx="50" cy="30.9" r="1"/><circle fill="#F9A908" cx="52.4" cy="32.3" r="1"/><circle fill="#F9A908" cx="47.3" cy="23.7" r="1"/><circle fill="#F9A908" cx="46.8" cy="35" r="1.3"/><circle fill="#F9A908" cx="53.8" cy="35.1" r="1"/><circle fill="#F7910B" cx="8" cy="34.5" r="1"/><circle fill="#F7910B" cx="8.7" cy="26.3" r="1"/><circle fill="#F9A908" cx="3.6" cy="13" r="1.1"/><circle fill="#F9A908" cx="6.7" cy="9.5" r="1"/><circle fill="#F9A908" cx="56.5" cy="15.3" r="1"/><path d="M42.9 22.1c0 1.9-1.5 3.4-3.4 3.4s-3.4-1.5-3.4-3.4 1.5-3.4 3.4-3.4 3.4 1.5 3.4 3.4Z" fill="#D87703"/><path d="M42.9 21.1c0 1.9-1.5 3.4-3.4 3.4s-3.4-1.5-3.4-3.4 1.5-3.4 3.4-3.4 3.4 1.5 3.4 3.4Z" fill="#1E4784"/><path d="M39.5 17.7c1.9 0 3.4 1.5 3.4 3.4s-1.5 3.4-3.4 3.4" fill="#00233F"/><g transform="translate(17 17)"><circle fill="#D87703" cx="3.9" cy="5.1" r="3.4"/><circle fill="#1E4784" cx="3.9" cy="4.1" r="3.4"/><path d="M3.9.7c1.9 0 3.4 1.5 3.4 3.4S5.8 7.5 3.9 7.5" fill="#00233F"/></g><circle fill="#F9A908" cx="55.7" cy="12.4" r="1"/><circle fill="#F9A908" cx="58.2" cy="13" r="1"/><circle fill="#F9A908" cx="4.7" cy="15.8" r="1"/><path d="M25.9 27c0 1.2-3.4.6-7.6.6-4.2 0-7.6.6-7.6-.6s3.4-2.2 7.6-2.2c4.2.1 7.6 1 7.6 2.2Z" fill="#F9C55D"/><path d="M49.2 27c0 1.2-3.4.6-7.6.6-4.2 0-7.6.6-7.6-.6s3.4-2.2 7.6-2.2c4.2.1 7.6 1 7.6 2.2Z" fill="#F9A908"/></g><path d="M.5 38C.8 50.7 12.3 60.4 30 60.4S59.2 50 59.5 38H.5Z" fill="#1E4784"/><path d="M30.2 60.4c17.7 0 29.1-10.2 29.2-22.4H1" fill="#00233F"/><path d="M30 60.4c3.1 0 6-.1 8.6-.6l-4-19.8h-9.2l-4 19.8c2.6.5 5.5.6 8.6.6Z" fill="#FFFBEE"/><path fill="#F7910B" d="m23.398 37.984 6.646-6.648 6.648 6.646-6.646 6.648z"/><path d="M34 37h-8c-.6 0-1-.4-1-1s.4-1 1-1h8c.6 0 1 .4 1 1s-.4 1-1 1Z" fill="#02243E"/><path d="M52 45c0 .5-.4 1-1 1h-8c-.5 0-1-.4-1-1 0-.5.4-1 1-1h8c.6 0 1 .4 1 1Z" fill="#FFFBEE"/><path fill="#0C537A" d="m27.5 42.3 1.3 2-2 16.1 2.3 2.6h.9V40.8z"/><path fill="#00233F" d="m32.5 42.3-1.3 2 2 16.1-2.3 2.6H30V40.8zM35 8H25V.6L27.4 3H35z"/></g></svg>