<svg xmlns="http://www.w3.org/2000/svg" viewBox="0 0 2048 2048" style="enable-background:new 0 0 2048 2048" xml:space="preserve"><style>.st0{display:none}.st1{display:inline}.st2{fill:#e6ff00}.st3{fill:#fff}.st6{fill:#00ffc1}.st8{fill:#e6d200}</style><g id="Ebene_13"><circle class="st2" cx="1024" cy="1024" r="868.12"/><path d="M1024 155.88c479.45 0 868.12 388.67 868.12 868.12s-388.67 868.12-868.12 868.12S155.88 1503.45 155.88 1024 544.55 155.88 1024 155.88M1024 0C459.36 0 0 459.36 0 1024s459.36 1024 1024 1024 1024-459.36 1024-1024S1588.64 0 1024 0z"/><circle cx="739.34" cy="833.33" r="85.74"/><path d="M579.01 1038.58c-113.18 0-205.25-92.07-205.25-205.25s92.07-205.25 205.25-205.25v93.53c-61.6 0-111.72 50.12-111.72 111.72s50.12 111.72 111.72 111.72v93.53z"/><circle cx="1541.74" cy="833.33" r="85.74"/><path d="M1381.41 1038.58c-113.18 0-205.25-92.07-205.25-205.25s92.07-205.25 205.25-205.25v93.53c-61.6 0-111.72 50.12-111.72 111.72s50.12 111.72 111.72 111.72v93.53zM762.9 1456.71h522.2v93.53H762.9z"/></g></svg>