<svg width="17" height="17" viewBox="0 0 17 17" fill="none" xmlns="http://www.w3.org/2000/svg">
  <path opacity="0.75" fill-rule="evenodd" clip-rule="evenodd" d="M4.49805 3.5H9.49805C9.77419 3.5 9.99805 3.72386 9.99805 4V4.52242C10.1627 4.50758 10.3295 4.5 10.498 4.5C10.6666 4.5 10.8334 4.50758 10.998 4.52242V4C10.998 3.17157 10.3265 2.5 9.49805 2.5H4.49805C3.66962 2.5 2.99805 3.17157 2.99805 4V9C2.99805 9.82843 3.66962 10.5 4.49805 10.5H5.02047C5.00563 10.3353 4.99805 10.1685 4.99805 10C4.99805 9.83146 5.00563 9.66468 5.02047 9.5H4.49805C4.2219 9.5 3.99805 9.27614 3.99805 9V4C3.99805 3.72386 4.2219 3.5 4.49805 3.5Z" fill="currentColor" fill-opacity="0.65" />
  <circle cx="10.498" cy="10" r="4" stroke="currentColor" stroke-opacity="0.65" />
</svg>