<svg width="64" height="64" xmlns="http://www.w3.org/2000/svg"><g fill-rule="nonzero" fill="none"><path d="M63.6 25.6c-.3-1-1.2-1.8-2.3-1.9L42.8 21 34.5 4.2C34 3.2 33 2.6 32 2.6c-1.1 0-2 .6-2.5 1.6L21.2 21 2.7 23.6c-1.1.2-1.9.9-2.3 1.9-.3 1-.1 2.1.7 2.9l13.4 13.1-3.2 18.4c-.2 1.1.3 2.1 1.1 2.8.9.6 2 .7 3 .2L32 54.2l16.6 8.7c.4.2.9.3 1.3.3.6 0 1.2-.2 1.7-.5.9-.6 1.3-1.7 1.1-2.8l-3.2-18.4 13.4-13.1c.7-.7 1-1.8.7-2.8Z" fill="#EA7103"/><path d="M63.6 23.7c-.3-1-1.2-1.8-2.3-1.9l-18.5-2.7-8.3-16.7C34 1.4 33 .8 32 .8c-1.1 0-2 .6-2.5 1.6l-8.3 16.8-18.5 2.6c-1.1.2-1.9.9-2.3 1.9-.3 1-.1 2.1.7 2.9l13.4 13.1-3.2 18.4c-.2 1.1.3 2.1 1.1 2.8.9.6 2 .7 3 .2L32 52.4l16.6 8.7c.4.2.9.3 1.3.3.6 0 1.2-.2 1.7-.5.9-.6 1.3-1.7 1.1-2.8l-3.2-18.4 13.4-13.1c.7-.7 1-1.9.7-2.9Z" fill="#F9A908"/><path d="M63.6 23.7c-.3-1-1.2-1.8-2.3-1.9l-18.5-2.7-8.3-16.7C34 1.4 33.1.8 32 .8h-.1v51.6l.1-.1L48.5 61c.4.2.8.3 1.3.3.6 0 1.2-.2 1.6-.5.9-.6 1.3-1.7 1.1-2.8l-3.2-18.4 13.4-13.1c.9-.6 1.2-1.8.9-2.8Z" fill="#F7910B"/><path d="M25.9 33.1c-.3-.1-.6-.2-.8-.5-.8-1.2-2.5-1.5-3.7-.7-.6.4-1.3.2-1.7-.3-.4-.6-.2-1.3.3-1.7 2.3-1.6 5.5-1 7.1 1.3.4.6.2 1.3-.3 1.7-.2.2-.6.3-.9.2Z" fill="#1E4784"/><path d="M27.2 31.2c.4.6.2 1.3-.3 1.7-.3.2-.6.3-.9.2-.3-.1-.6-.2-.8-.5-.8-1.2-2.5-1.5-3.7-.7-.6.4-1.3.2-1.7-.3-.4-.6-.2-1.3.3-1.7" fill="#02243E"/><path d="M38.1 33.1c.3-.1.6-.2.8-.5.8-1.2 2.5-1.5 3.7-.7.6.4 1.3.2 1.7-.3.4-.6.2-1.3-.3-1.7-2.3-1.6-5.5-1-7.1 1.3-.4.6-.2 1.3.3 1.7.2.2.6.3.9.2Z" fill="#1E4784"/><path d="M36.8 31.2c-.4.6-.2 1.3.3 1.7.3.2.6.3.9.2.3-.1.6-.2.8-.5.8-1.2 2.5-1.5 3.7-.7.6.4 1.3.2 1.7-.3.4-.6.2-1.3-.3-1.7" fill="#02243E"/><path d="M40.2 36.7c0 5.1-3.7 9.2-8.2 9.2-4.5 0-8.2-4.1-8.2-9.2" fill="#C42260"/><path d="M40.2 36.7c0 1.7-3.7 3.1-8.2 3.1-4.5 0-8.2-1.4-8.2-3.1" fill="#99144A"/><path d="M32 45.9c2.5 0 4.8-1.3 6.3-3.3-.9-1.2-2.3-1.9-3.8-1.9-.9 0-1.8.3-2.5.7-.7-.5-1.6-.7-2.5-.7-1.5 0-2.9.7-3.8 1.9 1.5 2 3.8 3.3 6.3 3.3Z" fill="#E2446E"/><circle fill="#F7910B" cx="9.7" cy="24.9" r="1.7"/><circle fill="#F7910B" cx="15.9" cy="23.4" r="1"/><circle fill="#F7910B" cx="24.9" cy="21.1" r="1"/><circle fill="#F7910B" cx="29.6" cy="9.7" r="1.6"/><circle fill="#F7910B" cx="16.1" cy="31.7" r="1"/><circle fill="#F7910B" cx="28.3" cy="25.3" r="1.4"/><circle fill="#F7910B" cx="18.7" cy="44.4" r="1"/><circle fill="#F7910B" cx="20.5" cy="52.8" r="1.2"/><circle fill="#F7910B" cx="23.2" cy="48.8" r="1"/><circle fill="#F7910B" cx="28.6" cy="49.6" r="1"/><circle fill="#F7910B" cx="14.6" cy="57.3" r="1"/><circle fill="#F9A908" cx="36.6" cy="21.8" r="1.7"/><circle fill="#F9A908" cx="44.4" cy="25.1" r="1"/><circle fill="#F9A908" cx="53.1" cy="25.8" r="1"/><circle fill="#F9A908" cx="50.8" cy="30.3" r="1.1"/><circle fill="#F9A908" cx="45.9" cy="37.2" r="1"/><circle fill="#F9A908" cx="41.1" cy="50" r="2.1"/><circle fill="#F9A908" cx="44.6" cy="43.3" r="1"/><circle fill="#F9A908" cx="47.85" cy="55.2" r="1"/><circle fill="#F9A908" cx="35.4" cy="12.9" r="1"/><circle fill="#F9A908" cx="38" cy="15.7" r="1"/></g></svg>