<svg width="57" height="21" viewBox="0 0 57 21" fill="none" xmlns="http://www.w3.org/2000/svg">
<path d="M1.62656 15.3125V5.6665H6.75056L6.59656 6.7305H2.95656V10.0205H6.10656V11.0705H2.95656V15.3125H1.62656ZM9.22933 7.9345V15.3125H7.94133V7.9345H9.22933ZM8.57133 4.3925C8.84199 4.3925 9.06133 4.4765 9.22933 4.6445C9.39733 4.8125 9.48133 5.0225 9.48133 5.2745C9.48133 5.5265 9.39733 5.7365 9.22933 5.9045C9.06133 6.06317 8.84199 6.1425 8.57133 6.1425C8.30999 6.1425 8.09533 6.06317 7.92733 5.9045C7.75933 5.7365 7.67533 5.5265 7.67533 5.2745C7.67533 5.0225 7.75933 4.8125 7.92733 4.6445C8.09533 4.4765 8.30999 4.3925 8.57133 4.3925ZM15.0985 7.7665C15.3598 7.7665 15.6025 7.7945 15.8265 7.8505L15.5885 9.1105C15.3645 9.0545 15.1498 9.0265 14.9445 9.0265C14.4872 9.0265 14.1185 9.1945 13.8385 9.5305C13.5585 9.8665 13.3392 10.3892 13.1805 11.0985V15.3125H11.8925V7.9345H12.9985L13.1245 9.4325C13.3205 8.88183 13.5865 8.4665 13.9225 8.1865C14.2585 7.9065 14.6505 7.7665 15.0985 7.7665ZM21.7707 13.5905C21.7707 13.8892 21.822 14.1132 21.9247 14.2625C22.0274 14.4025 22.1814 14.5098 22.3867 14.5845L22.0927 15.4805C21.71 15.4338 21.402 15.3265 21.1687 15.1585C20.9354 14.9905 20.7627 14.7292 20.6507 14.3745C20.156 15.1118 19.4234 15.4805 18.4527 15.4805C17.7247 15.4805 17.1507 15.2752 16.7307 14.8645C16.3107 14.4538 16.1007 13.9172 16.1007 13.2545C16.1007 12.4705 16.3807 11.8685 16.9407 11.4485C17.51 11.0285 18.3127 10.8185 19.3487 10.8185H20.4827V10.2725C20.4827 9.74983 20.3567 9.3765 20.1047 9.1525C19.8527 8.9285 19.4654 8.8165 18.9427 8.8165C18.4014 8.8165 17.7387 8.94717 16.9547 9.2085L16.6327 8.2705C17.5474 7.9345 18.3967 7.7665 19.1807 7.7665C20.0487 7.7665 20.6974 7.98117 21.1267 8.4105C21.556 8.8305 21.7707 9.4325 21.7707 10.2165V13.5905ZM18.7467 14.5145C19.484 14.5145 20.0627 14.1318 20.4827 13.3665V11.6725H19.5167C18.154 11.6725 17.4727 12.1765 17.4727 13.1845C17.4727 13.6232 17.58 13.9545 17.7947 14.1785C18.0094 14.4025 18.3267 14.5145 18.7467 14.5145ZM30.571 5.4985C31.215 5.4985 31.7657 5.59183 32.223 5.7785C32.6803 5.95583 33.1237 6.23583 33.553 6.6185L32.825 7.4305C32.461 7.14117 32.1017 6.93117 31.747 6.8005C31.4017 6.6605 31.0283 6.5905 30.627 6.5905C30.123 6.5905 29.7077 6.70717 29.381 6.9405C29.0543 7.17383 28.891 7.5145 28.891 7.9625C28.891 8.2425 28.947 8.4805 29.059 8.6765C29.171 8.86317 29.3763 9.03583 29.675 9.1945C29.983 9.35317 30.4263 9.52117 31.005 9.6985C31.6117 9.88517 32.1157 10.0858 32.517 10.3005C32.9183 10.5152 33.2403 10.8138 33.483 11.1965C33.735 11.5698 33.861 12.0458 33.861 12.6245C33.861 13.1845 33.721 13.6792 33.441 14.1085C33.1703 14.5378 32.7737 14.8738 32.251 15.1165C31.7377 15.3592 31.1263 15.4805 30.417 15.4805C29.0823 15.4805 27.9903 15.0652 27.141 14.2345L27.869 13.4225C28.261 13.7398 28.6577 13.9825 29.059 14.1505C29.4603 14.3092 29.9083 14.3885 30.403 14.3885C31.0003 14.3885 31.495 14.2438 31.887 13.9545C32.279 13.6558 32.475 13.2265 32.475 12.6665C32.475 12.3492 32.4143 12.0878 32.293 11.8825C32.1717 11.6678 31.9617 11.4765 31.663 11.3085C31.3737 11.1405 30.949 10.9725 30.389 10.8045C29.3997 10.5058 28.6763 10.1465 28.219 9.7265C27.7617 9.3065 27.533 8.73717 27.533 8.0185C27.533 7.53317 27.659 7.09917 27.911 6.7165C28.1723 6.33383 28.5317 6.03517 28.989 5.8205C29.4557 5.60583 29.983 5.4985 30.571 5.4985ZM40.7199 13.5905C40.7199 13.8892 40.7713 14.1132 40.8739 14.2625C40.9766 14.4025 41.1306 14.5098 41.3359 14.5845L41.0419 15.4805C40.6593 15.4338 40.3513 15.3265 40.1179 15.1585C39.8846 14.9905 39.7119 14.7292 39.5999 14.3745C39.1053 15.1118 38.3726 15.4805 37.4019 15.4805C36.6739 15.4805 36.0999 15.2752 35.6799 14.8645C35.2599 14.4538 35.0499 13.9172 35.0499 13.2545C35.0499 12.4705 35.3299 11.8685 35.8899 11.4485C36.4593 11.0285 37.2619 10.8185 38.2979 10.8185H39.4319V10.2725C39.4319 9.74983 39.3059 9.3765 39.0539 9.1525C38.8019 8.9285 38.4146 8.8165 37.8919 8.8165C37.3506 8.8165 36.6879 8.94717 35.9039 9.2085L35.5819 8.2705C36.4966 7.9345 37.3459 7.7665 38.1299 7.7665C38.9979 7.7665 39.6466 7.98117 40.0759 8.4105C40.5053 8.8305 40.7199 9.4325 40.7199 10.2165V13.5905ZM37.6959 14.5145C38.4333 14.5145 39.0119 14.1318 39.4319 13.3665V11.6725H38.4659C37.1033 11.6725 36.4219 12.1765 36.4219 13.1845C36.4219 13.6232 36.5293 13.9545 36.7439 14.1785C36.9586 14.4025 37.2759 14.5145 37.6959 14.5145ZM46.8372 7.7665C47.5092 7.7665 48.0318 7.96717 48.4052 8.3685C48.7878 8.76983 48.9792 9.3205 48.9792 10.0205V15.3125H47.6912V10.2025C47.6912 9.67983 47.5932 9.31117 47.3972 9.0965C47.2012 8.88183 46.9118 8.7745 46.5292 8.7745C46.1372 8.7745 45.7918 8.8865 45.4932 9.1105C45.1945 9.3345 44.9145 9.6565 44.6532 10.0765V15.3125H43.3652V7.9345H44.4712L44.5832 9.0265C44.8445 8.6345 45.1665 8.3265 45.5492 8.1025C45.9412 7.8785 46.3705 7.7665 46.8372 7.7665ZM53.5703 7.7665C54.0743 7.7665 54.5269 7.8365 54.9283 7.9765C55.3296 8.1165 55.7123 8.3265 56.0763 8.6065L55.5303 9.4185C55.1943 9.20383 54.8723 9.04517 54.5643 8.9425C54.2656 8.83983 53.9483 8.7885 53.6123 8.7885C53.1923 8.7885 52.8609 8.87717 52.6183 9.0545C52.3756 9.2225 52.2543 9.45583 52.2543 9.7545C52.2543 10.0532 52.3663 10.2865 52.5903 10.4545C52.8236 10.6225 53.2389 10.7858 53.8363 10.9445C54.6576 11.1498 55.2689 11.4298 55.6703 11.7845C56.0809 12.1392 56.2863 12.6245 56.2863 13.2405C56.2863 13.9685 56.0016 14.5238 55.4323 14.9065C54.8723 15.2892 54.1863 15.4805 53.3743 15.4805C52.2543 15.4805 51.3256 15.1585 50.5883 14.5145L51.2743 13.7305C51.8996 14.2065 52.5903 14.4445 53.3463 14.4445C53.8316 14.4445 54.2143 14.3465 54.4943 14.1505C54.7836 13.9452 54.9283 13.6698 54.9283 13.3245C54.9283 13.0725 54.8769 12.8718 54.7743 12.7225C54.6716 12.5638 54.4943 12.4285 54.2423 12.3165C53.9903 12.1952 53.6216 12.0692 53.1363 11.9385C52.3523 11.7332 51.7829 11.4578 51.4283 11.1125C51.0829 10.7672 50.9103 10.3285 50.9103 9.7965C50.9103 9.41383 51.0223 9.0685 51.2463 8.7605C51.4796 8.44317 51.7969 8.2005 52.1983 8.0325C52.6089 7.85517 53.0663 7.7665 53.5703 7.7665Z" fill="currentColor"/>
</svg>
