<svg width="57" height="21" viewBox="0 0 57 21" fill="none" xmlns="http://www.w3.org/2000/svg">
<path d="M13.4976 5.01758C13.1694 5.26367 12.8618 5.55762 12.5747 5.89941C12.8527 6.07259 13.0874 6.264 13.2788 6.47363C13.4702 6.67871 13.6229 6.88835 13.7368 7.10254C13.8553 7.31673 13.9396 7.52865 13.9897 7.73828C14.0399 7.94792 14.0649 8.1416 14.0649 8.31934C14.0649 8.76595 13.9806 9.1556 13.812 9.48828C13.6434 9.81641 13.4201 10.0898 13.1421 10.3086C12.8687 10.5273 12.5519 10.6914 12.1919 10.8008C11.8364 10.9056 11.4673 10.958 11.0845 10.958C10.6561 10.958 10.2345 10.9102 9.81982 10.8145C9.62842 11.2201 9.42106 11.6234 9.19775 12.0244C8.97445 12.4255 8.73063 12.8105 8.46631 13.1797C8.20654 13.5443 7.92171 13.8861 7.61182 14.2051C7.30648 14.5195 6.97607 14.7907 6.62061 15.0186C6.26969 15.251 5.88916 15.4333 5.479 15.5654C5.06885 15.6976 4.63135 15.7637 4.1665 15.7637C3.71533 15.7637 3.29834 15.6908 2.91553 15.5449C2.53271 15.3991 2.20231 15.1872 1.92432 14.9092C1.64632 14.6266 1.42985 14.2848 1.2749 13.8838C1.11995 13.4782 1.04248 13.0156 1.04248 12.4961C1.04248 11.8216 1.15641 11.1722 1.38428 10.5479C1.6167 9.9235 1.93343 9.34017 2.33447 8.79785C2.74007 8.25553 3.21631 7.76335 3.76318 7.32129C4.31006 6.87923 4.90023 6.50098 5.53369 6.18652C6.16715 5.87207 6.83024 5.62826 7.52295 5.45508C8.21566 5.2819 8.90837 5.19531 9.60107 5.19531C10.1434 5.19531 10.6242 5.24089 11.0435 5.33203C11.4673 5.41862 11.841 5.53483 12.1646 5.68066C12.3468 5.52116 12.5382 5.37305 12.7388 5.23633C12.9393 5.09505 13.1558 4.96973 13.3882 4.86035L13.4976 5.01758ZM9.24561 10.2471C9.45524 9.80957 9.6626 9.3903 9.86768 8.98926C10.0728 8.58366 10.2801 8.20085 10.4897 7.84082C10.7039 7.47624 10.925 7.13672 11.1528 6.82227C11.3807 6.50326 11.6268 6.20931 11.8911 5.94043C11.5903 5.82194 11.2622 5.73535 10.9067 5.68066C10.5558 5.62598 10.1799 5.59863 9.77881 5.59863C9.22738 5.59863 8.68734 5.66471 8.15869 5.79688C7.63005 5.92904 7.11963 6.11133 6.62744 6.34375C6.13981 6.57161 5.67269 6.84277 5.22607 7.15723C4.78402 7.47168 4.37158 7.81348 3.98877 8.18262C3.61051 8.55176 3.26644 8.93913 2.95654 9.34473C2.6512 9.74577 2.38916 10.1514 2.17041 10.5615C1.95622 10.9717 1.78988 11.3773 1.67139 11.7783C1.55745 12.1748 1.50049 12.5531 1.50049 12.9131C1.50049 13.264 1.56429 13.5921 1.69189 13.8975C1.8195 14.1982 1.99495 14.4603 2.21826 14.6836C2.44613 14.9069 2.71501 15.0824 3.0249 15.21C3.33936 15.3376 3.68343 15.4014 4.05713 15.4014C4.63591 15.4014 5.15544 15.2874 5.61572 15.0596C6.07601 14.8317 6.50212 14.5081 6.89404 14.0889C7.28597 13.665 7.65739 13.1569 8.0083 12.5645C8.35921 11.972 8.71696 11.3112 9.08154 10.582C8.60758 10.3952 8.16781 10.1559 7.76221 9.86426L7.87158 9.67285C8.09033 9.78223 8.31136 9.88704 8.53467 9.9873C8.76253 10.083 8.99951 10.1696 9.24561 10.2471ZM13.3472 7.92969C13.3472 7.52409 13.2583 7.17773 13.0806 6.89062C12.9074 6.60352 12.6636 6.36426 12.3491 6.17285C11.9344 6.71061 11.5379 7.33724 11.1597 8.05273C10.786 8.76367 10.3986 9.55664 9.99756 10.4316C10.1297 10.4544 10.2619 10.4727 10.394 10.4863C10.5262 10.4954 10.6606 10.5 10.7974 10.5C11.1437 10.5 11.4696 10.4385 11.7749 10.3154C12.0848 10.1924 12.356 10.0192 12.5884 9.7959C12.8208 9.56803 13.0054 9.29688 13.1421 8.98242C13.2788 8.66797 13.3472 8.31706 13.3472 7.92969Z" fill="currentColor" fill-opacity="0.9"/>
<path d="M18.2075 10.459C18.1483 10.5775 18.064 10.7324 17.9546 10.9238C17.8498 11.1152 17.7358 11.3271 17.6128 11.5596C17.4897 11.7874 17.3644 12.0267 17.2368 12.2773C17.1138 12.528 16.9998 12.7741 16.895 13.0156C16.7948 13.2526 16.7104 13.4782 16.6421 13.6924C16.5783 13.902 16.5464 14.0798 16.5464 14.2256C16.5464 14.3714 16.5737 14.4671 16.6284 14.5127C16.6877 14.5537 16.7629 14.5742 16.854 14.5742C16.9862 14.5742 17.1206 14.5355 17.2573 14.458C17.3986 14.3805 17.5353 14.2803 17.6675 14.1572C17.8042 14.0342 17.9364 13.8952 18.064 13.7402C18.1916 13.5853 18.3101 13.4303 18.4194 13.2754C18.5334 13.1159 18.6359 12.9655 18.7271 12.8242C18.8182 12.6784 18.8957 12.5553 18.9595 12.4551L19.2056 12.6465C19.1281 12.7923 19.0369 12.9495 18.9321 13.1182C18.8273 13.2868 18.7111 13.4577 18.5835 13.6309C18.4604 13.7995 18.326 13.9635 18.1802 14.123C18.0343 14.2826 17.8794 14.4238 17.7153 14.5469C17.5558 14.6699 17.3872 14.7679 17.2095 14.8408C17.0317 14.9137 16.8494 14.9502 16.6626 14.9502C16.3892 14.9502 16.1886 14.8682 16.061 14.7041C15.9334 14.54 15.8696 14.3281 15.8696 14.0684C15.8696 14.0501 15.8696 14.0114 15.8696 13.9521C15.8742 13.8883 15.881 13.8382 15.8901 13.8018C15.6623 14.0889 15.4435 14.3258 15.2339 14.5127C15.0288 14.6995 14.8283 14.8477 14.6323 14.957C14.4409 15.0664 14.2541 15.1416 14.0718 15.1826C13.894 15.2282 13.7231 15.251 13.5591 15.251C13.3859 15.251 13.2218 15.2214 13.0669 15.1621C12.9165 15.1074 12.7843 15.0254 12.6704 14.916C12.5519 14.8066 12.4608 14.6722 12.397 14.5127C12.3286 14.3532 12.2944 14.1686 12.2944 13.959C12.2944 13.6992 12.3537 13.403 12.4722 13.0703C12.5861 12.7331 12.7912 12.3708 13.0874 11.9834C13.3381 11.6507 13.5978 11.3704 13.8667 11.1426C14.1401 10.9147 14.4067 10.7324 14.6665 10.5957C14.9308 10.4544 15.1815 10.3542 15.4185 10.2949C15.6554 10.2357 15.8674 10.2061 16.0542 10.2061C16.4735 10.2061 16.7902 10.2767 17.0044 10.418C17.2186 10.5547 17.3485 10.7666 17.394 11.0537C17.4852 10.9398 17.5809 10.8258 17.6812 10.7119C17.7814 10.598 17.884 10.4818 17.9888 10.3633L18.2075 10.459ZM16.1089 13.0566C16.1681 12.9609 16.241 12.8402 16.3276 12.6943C16.4142 12.5439 16.5054 12.3913 16.6011 12.2363C16.6968 12.0768 16.7902 11.9242 16.8813 11.7783C16.9725 11.6325 17.0522 11.5094 17.1206 11.4092C17.1206 11.3682 17.1138 11.3021 17.1001 11.2109C17.091 11.1198 17.0614 11.0286 17.0112 10.9375C16.9611 10.8418 16.8813 10.7598 16.772 10.6914C16.6626 10.623 16.5099 10.5889 16.314 10.5889C16.1727 10.5889 16.0132 10.6117 15.8354 10.6572C15.6623 10.6982 15.4754 10.7712 15.2749 10.876C15.0789 10.9762 14.8761 11.1107 14.6665 11.2793C14.4569 11.4479 14.2472 11.6576 14.0376 11.9082C13.7231 12.2865 13.4793 12.667 13.3062 13.0498C13.1375 13.4281 13.0532 13.7699 13.0532 14.0752C13.0532 14.335 13.1125 14.5355 13.231 14.6768C13.3494 14.818 13.5181 14.8887 13.7368 14.8887C13.9875 14.8887 14.2222 14.834 14.4409 14.7246C14.6597 14.6107 14.8647 14.4648 15.0562 14.2871C15.2476 14.1094 15.4299 13.9134 15.603 13.6992C15.7762 13.4805 15.9448 13.2663 16.1089 13.0566Z" fill="currentColor" fill-opacity="0.9"/>
<path d="M23.2798 12.6465C23.2114 12.7467 23.1294 12.8835 23.0337 13.0566C22.9425 13.2253 22.8354 13.4098 22.7124 13.6104C22.5894 13.8063 22.4526 14.0068 22.3022 14.2119C22.1564 14.417 21.9946 14.6016 21.8169 14.7656C21.6437 14.9297 21.4546 15.0641 21.2495 15.1689C21.0444 15.2738 20.8257 15.3262 20.5933 15.3262C20.4657 15.3262 20.3449 15.3057 20.231 15.2646C20.117 15.2282 20.0168 15.1689 19.9302 15.0869C19.8436 15.0049 19.7752 14.9046 19.7251 14.7861C19.675 14.6631 19.6499 14.5195 19.6499 14.3555C19.6499 14.1322 19.6932 13.8997 19.7798 13.6582C19.8709 13.4121 19.9757 13.1751 20.0942 12.9473C20.2127 12.7194 20.3312 12.512 20.4497 12.3252C20.5682 12.1338 20.6548 11.9811 20.7095 11.8672C20.7642 11.7533 20.7915 11.6553 20.7915 11.5732C20.7915 11.514 20.771 11.4616 20.73 11.416C20.6935 11.3704 20.6457 11.3271 20.5864 11.2861C20.5317 11.2406 20.4725 11.195 20.4087 11.1494C20.3494 11.0993 20.2993 11.04 20.2583 10.9717C20.1444 11.154 20.0282 11.3385 19.9097 11.5254C19.8048 11.6849 19.6909 11.8649 19.5679 12.0654C19.4448 12.2614 19.3263 12.4551 19.2124 12.6465L18.9663 12.4551L20.4292 10.165L20.6274 10.2676C20.6183 10.2949 20.6024 10.3382 20.5796 10.3975C20.5614 10.4567 20.5522 10.5205 20.5522 10.5889C20.5522 10.639 20.5591 10.6891 20.5728 10.7393C20.591 10.7848 20.6252 10.8281 20.6753 10.8691C20.8576 11.0332 21.0011 11.1608 21.106 11.252C21.2108 11.3385 21.286 11.4092 21.3315 11.4639C21.3817 11.514 21.4113 11.5573 21.4204 11.5938C21.4341 11.6257 21.4409 11.6689 21.4409 11.7236C21.4409 11.7783 21.4318 11.8444 21.4136 11.9219C21.3953 11.9993 21.3634 12.0928 21.3179 12.2021C21.2769 12.3115 21.2176 12.4414 21.1401 12.5918C21.0672 12.7376 20.9738 12.9085 20.8599 13.1045C20.7915 13.223 20.7231 13.3438 20.6548 13.4668C20.591 13.5853 20.5317 13.7061 20.4771 13.8291C20.4269 13.9521 20.3859 14.0752 20.354 14.1982C20.3221 14.3213 20.3062 14.4398 20.3062 14.5537C20.3062 14.6403 20.3175 14.7109 20.3403 14.7656C20.3677 14.8158 20.4019 14.8545 20.4429 14.8818C20.4839 14.9092 20.5272 14.9274 20.5728 14.9365C20.6229 14.9456 20.6707 14.9502 20.7163 14.9502C20.8667 14.9502 21.0148 14.9069 21.1606 14.8203C21.311 14.7292 21.4569 14.613 21.5981 14.4717C21.744 14.3304 21.883 14.1709 22.0151 13.9932C22.1519 13.8109 22.2817 13.6263 22.4048 13.4395C22.5278 13.2526 22.6418 13.0749 22.7466 12.9062C22.8514 12.7331 22.9448 12.5827 23.0269 12.4551L23.2798 12.6465Z" fill="currentColor" fill-opacity="0.9"/>
<path d="M26.0962 8.94141C26.0962 9.03255 26.0734 9.12826 26.0278 9.22852C25.9823 9.32422 25.923 9.41081 25.8501 9.48828C25.7817 9.56576 25.7043 9.62956 25.6177 9.67969C25.5311 9.72982 25.4445 9.75488 25.3579 9.75488C25.2804 9.75488 25.2212 9.72754 25.1802 9.67285C25.1392 9.61361 25.1187 9.54297 25.1187 9.46094C25.1187 9.38802 25.1323 9.30143 25.1597 9.20117C25.187 9.10091 25.228 9.00749 25.2827 8.9209C25.3374 8.82975 25.4035 8.75228 25.481 8.68848C25.5584 8.62467 25.6473 8.59277 25.7476 8.59277C25.8433 8.59277 25.9253 8.62923 25.9937 8.70215C26.062 8.77507 26.0962 8.85482 26.0962 8.94141ZM24.8179 10.459C24.7586 10.5775 24.6743 10.7347 24.5649 10.9307C24.4601 11.1221 24.3462 11.334 24.2231 11.5664C24.1001 11.7943 23.9748 12.0358 23.8472 12.291C23.7196 12.5417 23.6034 12.7878 23.4985 13.0293C23.3983 13.2663 23.3162 13.4896 23.2524 13.6992C23.1886 13.9089 23.1567 14.0866 23.1567 14.2324C23.1567 14.3646 23.1841 14.4557 23.2388 14.5059C23.2935 14.5514 23.3709 14.5742 23.4712 14.5742C23.658 14.5742 23.8403 14.5127 24.0181 14.3896C24.1958 14.2666 24.3713 14.1071 24.5444 13.9111C24.7222 13.7106 24.8953 13.4827 25.064 13.2275C25.2326 12.9723 25.4012 12.7148 25.5698 12.4551L25.8159 12.6465C25.6838 12.8835 25.5334 13.1364 25.3647 13.4053C25.2007 13.6742 25.0161 13.9248 24.811 14.1572C24.606 14.3851 24.3804 14.5742 24.1343 14.7246C23.8882 14.875 23.6193 14.9502 23.3276 14.9502C23.0542 14.9502 22.8446 14.8682 22.6987 14.7041C22.5529 14.54 22.48 14.3281 22.48 14.0684C22.48 13.763 22.5506 13.444 22.6919 13.1113C22.8332 12.7786 23.0086 12.4505 23.2183 12.127C23.4325 11.7988 23.6626 11.4844 23.9087 11.1836C24.1593 10.8828 24.3895 10.6094 24.5991 10.3633L24.8179 10.459Z" fill="currentColor" fill-opacity="0.9"/>
<path d="M27.7642 9.63867C27.7414 9.67969 27.7118 9.72526 27.6753 9.77539C27.6388 9.82096 27.6024 9.87565 27.5659 9.93945C27.534 9.9987 27.5044 10.0693 27.4771 10.1514C27.4543 10.2334 27.4429 10.3314 27.4429 10.4453C27.4429 10.541 27.4657 10.6709 27.5112 10.835C27.5614 10.999 27.6138 11.1882 27.6685 11.4023C27.7231 11.612 27.7733 11.8421 27.8188 12.0928C27.869 12.3389 27.894 12.5941 27.894 12.8584C27.894 13.2458 27.8416 13.5876 27.7368 13.8838C27.632 14.18 27.493 14.4329 27.3198 14.6426C27.6753 14.4512 28.0239 14.1777 28.3657 13.8223C28.7075 13.4622 29.0516 13.0065 29.3979 12.4551L29.6304 12.6602C29.4344 12.9837 29.2111 13.305 28.9604 13.624C28.7144 13.9385 28.4432 14.2233 28.147 14.4785C27.8507 14.7292 27.5317 14.932 27.1899 15.0869C26.8481 15.2464 26.4858 15.3262 26.103 15.3262C25.7612 15.3262 25.4741 15.2441 25.2417 15.0801C25.0047 14.9206 24.8589 14.679 24.8042 14.3555L25.0503 14.3076C25.0503 14.335 25.064 14.3805 25.0913 14.4443C25.1141 14.5036 25.1528 14.5628 25.2075 14.6221C25.2622 14.6813 25.3374 14.7337 25.4331 14.7793C25.5243 14.8249 25.6382 14.8477 25.7749 14.8477C25.9572 14.8477 26.119 14.8066 26.2603 14.7246C26.4015 14.638 26.5246 14.5264 26.6294 14.3896C26.7342 14.2529 26.8231 14.098 26.896 13.9248C26.9689 13.7471 27.0259 13.5648 27.0669 13.3779C27.1125 13.1911 27.1444 13.0088 27.1626 12.8311C27.1808 12.6533 27.1899 12.4915 27.1899 12.3457C27.1899 12.1999 27.1831 12.0381 27.1694 11.8604C27.1603 11.6826 27.1489 11.514 27.1353 11.3545C27.1216 11.1904 27.1079 11.0492 27.0942 10.9307C27.0851 10.8076 27.0806 10.7279 27.0806 10.6914V10.6777C27.0213 10.7415 26.9507 10.835 26.8687 10.958C26.7866 11.0811 26.6978 11.2155 26.6021 11.3613C26.5109 11.5072 26.4175 11.6553 26.3218 11.8057C26.2306 11.9561 26.1463 12.0928 26.0688 12.2158C25.9959 12.3389 25.9344 12.4414 25.8843 12.5234C25.8387 12.6009 25.8159 12.6419 25.8159 12.6465L25.5698 12.4551C25.5744 12.4505 25.6313 12.3525 25.7407 12.1611C25.8501 11.9697 25.9937 11.7282 26.1714 11.4365C26.3537 11.1403 26.5588 10.8145 26.7866 10.459C27.0145 10.099 27.2492 9.75033 27.4907 9.41309L27.7642 9.63867Z" fill="currentColor" fill-opacity="0.9"/>
<path d="M32.4673 8.94141C32.4673 9.03255 32.4445 9.12826 32.3989 9.22852C32.3534 9.32422 32.2941 9.41081 32.2212 9.48828C32.1528 9.56576 32.0754 9.62956 31.9888 9.67969C31.9022 9.72982 31.8156 9.75488 31.729 9.75488C31.6515 9.75488 31.5923 9.72754 31.5513 9.67285C31.5103 9.61361 31.4897 9.54297 31.4897 9.46094C31.4897 9.38802 31.5034 9.30143 31.5308 9.20117C31.5581 9.10091 31.5991 9.00749 31.6538 8.9209C31.7085 8.82975 31.7746 8.75228 31.8521 8.68848C31.9295 8.62467 32.0184 8.59277 32.1187 8.59277C32.2144 8.59277 32.2964 8.62923 32.3647 8.70215C32.4331 8.77507 32.4673 8.85482 32.4673 8.94141ZM31.189 10.459C31.1297 10.5775 31.0454 10.7347 30.936 10.9307C30.8312 11.1221 30.7173 11.334 30.5942 11.5664C30.4712 11.7943 30.3459 12.0358 30.2183 12.291C30.0907 12.5417 29.9744 12.7878 29.8696 13.0293C29.7694 13.2663 29.6873 13.4896 29.6235 13.6992C29.5597 13.9089 29.5278 14.0866 29.5278 14.2324C29.5278 14.3646 29.5552 14.4557 29.6099 14.5059C29.6646 14.5514 29.742 14.5742 29.8423 14.5742C30.0291 14.5742 30.2114 14.5127 30.3892 14.3896C30.5669 14.2666 30.7423 14.1071 30.9155 13.9111C31.0933 13.7106 31.2664 13.4827 31.4351 13.2275C31.6037 12.9723 31.7723 12.7148 31.9409 12.4551L32.187 12.6465C32.0548 12.8835 31.9045 13.1364 31.7358 13.4053C31.5718 13.6742 31.3872 13.9248 31.1821 14.1572C30.9771 14.3851 30.7515 14.5742 30.5054 14.7246C30.2593 14.875 29.9904 14.9502 29.6987 14.9502C29.4253 14.9502 29.2157 14.8682 29.0698 14.7041C28.924 14.54 28.8511 14.3281 28.8511 14.0684C28.8511 13.763 28.9217 13.444 29.063 13.1113C29.2043 12.7786 29.3797 12.4505 29.5894 12.127C29.8035 11.7988 30.0337 11.4844 30.2798 11.1836C30.5304 10.8828 30.7606 10.6094 30.9702 10.3633L31.189 10.459Z" fill="currentColor" fill-opacity="0.9"/>
<path d="M32.4604 13.4463C32.4513 13.501 32.4445 13.5557 32.4399 13.6104C32.4354 13.665 32.4331 13.7197 32.4331 13.7744C32.4331 13.9385 32.4559 14.0957 32.5015 14.2461C32.5516 14.3919 32.6222 14.5218 32.7134 14.6357C32.8091 14.7451 32.9253 14.8317 33.062 14.8955C33.2033 14.9593 33.3628 14.9912 33.5405 14.9912C34.1375 14.9912 34.714 14.7884 35.27 14.3828C35.826 13.9772 36.3797 13.3346 36.9312 12.4551L37.1636 12.6602C36.8628 13.1615 36.5575 13.5853 36.2476 13.9316C35.9377 14.2734 35.6278 14.5514 35.3179 14.7656C35.0125 14.9798 34.7118 15.1348 34.4155 15.2305C34.1193 15.3262 33.8368 15.374 33.5679 15.374C33.3719 15.374 33.1646 15.3467 32.9458 15.292C32.7271 15.2373 32.5243 15.1462 32.3374 15.0186C32.1551 14.891 32.0047 14.7201 31.8862 14.5059C31.7632 14.2917 31.7017 14.0251 31.7017 13.7061C31.7017 13.3643 31.7609 13.0361 31.8794 12.7217C31.9933 12.4027 32.1437 12.1064 32.3306 11.833C32.5174 11.5596 32.7316 11.3112 32.9731 11.0879C33.2147 10.86 33.4585 10.6663 33.7046 10.5068C33.9552 10.3473 34.1991 10.2243 34.436 10.1377C34.673 10.0465 34.8826 10.001 35.0649 10.001C35.1834 10.001 35.3042 10.0192 35.4272 10.0557C35.5503 10.0921 35.6597 10.1491 35.7554 10.2266C35.8556 10.304 35.9354 10.4066 35.9946 10.5342C36.0584 10.6618 36.0903 10.8145 36.0903 10.9922C36.0903 11.2337 36.0334 11.4616 35.9194 11.6758C35.8101 11.8854 35.6619 12.0814 35.4751 12.2637C35.2882 12.4414 35.0718 12.6032 34.8257 12.749C34.5796 12.8903 34.3221 13.0111 34.0532 13.1113C33.7843 13.2116 33.5132 13.2913 33.2397 13.3506C32.9663 13.4098 32.7065 13.4417 32.4604 13.4463ZM32.5151 13.1523C32.8205 13.1204 33.1076 13.0566 33.3765 12.9609C33.6453 12.8652 33.8914 12.749 34.1147 12.6123C34.3381 12.471 34.5363 12.3184 34.7095 12.1543C34.8872 11.9902 35.0353 11.8239 35.1538 11.6553C35.2723 11.4867 35.3634 11.3249 35.4272 11.1699C35.491 11.015 35.5229 10.876 35.5229 10.7529C35.5229 10.6299 35.4888 10.5319 35.4204 10.459C35.3566 10.3861 35.2791 10.3496 35.188 10.3496C34.9875 10.3496 34.7619 10.4225 34.5112 10.5684C34.2606 10.7096 34.0099 10.9079 33.7593 11.1631C33.5086 11.4137 33.2716 11.71 33.0483 12.0518C32.8296 12.3936 32.6519 12.7604 32.5151 13.1523Z" fill="currentColor" fill-opacity="0.9"/>
<path d="M42.6392 11.457C42.6392 11.653 42.605 11.8535 42.5366 12.0586C42.4683 12.2591 42.3817 12.4619 42.2769 12.667C42.172 12.8675 42.0604 13.0658 41.9419 13.2617C41.8234 13.4577 41.7118 13.6468 41.6069 13.8291C41.5021 14.0114 41.4155 14.1868 41.3472 14.3555C41.2788 14.5195 41.2446 14.6699 41.2446 14.8066C41.2446 14.9115 41.2674 14.9821 41.313 15.0186C41.3586 15.055 41.4087 15.0732 41.4634 15.0732C41.6366 15.0732 41.8302 14.9889 42.0444 14.8203C42.2586 14.6471 42.4751 14.4307 42.6938 14.1709C42.9172 13.9111 43.1382 13.6286 43.3569 13.3232C43.5757 13.0179 43.7739 12.7285 43.9517 12.4551L44.1978 12.6465C44.1613 12.7012 44.0952 12.8105 43.9995 12.9746C43.9038 13.1341 43.7853 13.3187 43.644 13.5283C43.5028 13.7334 43.3433 13.9499 43.1655 14.1777C42.9924 14.401 42.8055 14.6084 42.605 14.7998C42.4045 14.9867 42.1971 15.1416 41.9829 15.2646C41.7733 15.3877 41.5614 15.4492 41.3472 15.4492C41.2241 15.4492 41.1125 15.4287 41.0122 15.3877C40.9119 15.3467 40.8254 15.2897 40.7524 15.2168C40.6841 15.1439 40.6294 15.0596 40.5884 14.9639C40.5474 14.8636 40.5269 14.7588 40.5269 14.6494C40.5269 14.4717 40.5656 14.2803 40.6431 14.0752C40.7251 13.8656 40.8254 13.6514 40.9438 13.4326C41.0623 13.2139 41.1922 12.9951 41.3335 12.7764C41.4748 12.5531 41.6047 12.3411 41.7231 12.1406C41.8416 11.9401 41.9396 11.7555 42.0171 11.5869C42.0991 11.4137 42.1401 11.2656 42.1401 11.1426C42.1401 11.0013 42.1014 10.8828 42.0239 10.7871C41.951 10.6914 41.8462 10.6436 41.7095 10.6436C41.5636 10.6436 41.395 10.7051 41.2036 10.8281C41.0122 10.9466 40.798 11.1221 40.561 11.3545C40.3241 11.5869 40.0643 11.874 39.7817 12.2158C39.5037 12.5531 39.2007 12.9382 38.8726 13.3711C38.6857 13.6217 38.5034 13.8633 38.3257 14.0957C38.2482 14.196 38.1707 14.2985 38.0933 14.4033C38.0158 14.5081 37.9383 14.613 37.8608 14.7178C37.7834 14.818 37.7104 14.9137 37.6421 15.0049C37.5737 15.1006 37.5122 15.1826 37.4575 15.251L36.856 15.0049L37.6558 13.9043C37.7697 13.7493 37.8859 13.583 38.0044 13.4053C38.1229 13.2275 38.2391 13.0452 38.353 12.8584C38.4715 12.667 38.5832 12.4756 38.688 12.2842C38.7928 12.0928 38.8908 11.9059 38.9819 11.7236C39.1141 11.4502 39.2052 11.2246 39.2554 11.0469C39.3055 10.8646 39.3306 10.7188 39.3306 10.6094C39.3306 10.4863 39.3078 10.4066 39.2622 10.3701C39.2166 10.3291 39.1528 10.3086 39.0708 10.3086C38.9842 10.3086 38.884 10.3542 38.77 10.4453C38.6606 10.5319 38.5467 10.6458 38.4282 10.7871C38.3097 10.9238 38.189 11.0811 38.0659 11.2588C37.9474 11.432 37.8335 11.6051 37.7241 11.7783C37.6147 11.9515 37.5122 12.1156 37.4165 12.2705C37.3208 12.4255 37.241 12.5508 37.1772 12.6465L36.9312 12.4551C37.1636 12.0905 37.3732 11.7578 37.5601 11.457C37.7515 11.1517 37.9338 10.8896 38.1069 10.6709C38.2847 10.4521 38.4556 10.2835 38.6196 10.165C38.7882 10.042 38.966 9.98047 39.1528 9.98047C39.2531 9.98047 39.3488 10.001 39.4399 10.042C39.5356 10.083 39.6177 10.1445 39.686 10.2266C39.759 10.304 39.8159 10.3997 39.8569 10.5137C39.8979 10.6276 39.9185 10.7598 39.9185 10.9102C39.9185 11.0286 39.9048 11.1517 39.8774 11.2793C40.078 11.0833 40.2648 10.9215 40.438 10.7939C40.6112 10.6663 40.7707 10.5661 40.9165 10.4932C41.0623 10.4157 41.1968 10.361 41.3198 10.3291C41.4429 10.2972 41.5545 10.2812 41.6548 10.2812C41.7414 10.2812 41.8416 10.2972 41.9556 10.3291C42.0695 10.361 42.1766 10.4202 42.2769 10.5068C42.3771 10.5934 42.4614 10.7142 42.5298 10.8691C42.6027 11.0195 42.6392 11.2155 42.6392 11.457Z" fill="currentColor" fill-opacity="0.9"/>
<path d="M49.6665 11.457C49.6665 11.653 49.6323 11.8535 49.564 12.0586C49.4956 12.2591 49.409 12.4619 49.3042 12.667C49.1994 12.8675 49.0877 13.0658 48.9692 13.2617C48.8507 13.4577 48.7391 13.6468 48.6343 13.8291C48.5295 14.0114 48.4429 14.1868 48.3745 14.3555C48.3062 14.5195 48.272 14.6699 48.272 14.8066C48.272 14.9115 48.2948 14.9821 48.3403 15.0186C48.3859 15.055 48.436 15.0732 48.4907 15.0732C48.6639 15.0732 48.8576 14.9889 49.0718 14.8203C49.286 14.6471 49.5024 14.4307 49.7212 14.1709C49.9445 13.9111 50.1655 13.6286 50.3843 13.3232C50.603 13.0179 50.8013 12.7285 50.979 12.4551L51.2251 12.6465C51.1886 12.7012 51.1226 12.8105 51.0269 12.9746C50.9312 13.1341 50.8127 13.3187 50.6714 13.5283C50.5301 13.7334 50.3706 13.9499 50.1929 14.1777C50.0197 14.401 49.8328 14.6084 49.6323 14.7998C49.4318 14.9867 49.2244 15.1416 49.0103 15.2646C48.8006 15.3877 48.5887 15.4492 48.3745 15.4492C48.2515 15.4492 48.1398 15.4287 48.0396 15.3877C47.9393 15.3467 47.8527 15.2897 47.7798 15.2168C47.7114 15.1439 47.6567 15.0596 47.6157 14.9639C47.5747 14.8636 47.5542 14.7588 47.5542 14.6494C47.5542 14.4717 47.5929 14.2803 47.6704 14.0752C47.7524 13.8656 47.8527 13.6514 47.9712 13.4326C48.0897 13.2139 48.2196 12.9951 48.3608 12.7764C48.5021 12.5531 48.632 12.3411 48.7505 12.1406C48.869 11.9401 48.967 11.7555 49.0444 11.5869C49.1265 11.4137 49.1675 11.2656 49.1675 11.1426C49.1675 11.0013 49.1287 10.8828 49.0513 10.7871C48.9784 10.6914 48.8735 10.6436 48.7368 10.6436C48.591 10.6436 48.4224 10.7051 48.231 10.8281C48.0396 10.9466 47.8254 11.1221 47.5884 11.3545C47.3514 11.5869 47.0916 11.874 46.8091 12.2158C46.5311 12.5531 46.228 12.9382 45.8999 13.3711C45.7131 13.6217 45.5308 13.8633 45.353 14.0957C45.2756 14.196 45.1981 14.2985 45.1206 14.4033C45.0431 14.5081 44.9657 14.613 44.8882 14.7178C44.8107 14.818 44.7378 14.9137 44.6694 15.0049C44.6011 15.1006 44.5396 15.1826 44.4849 15.251L43.8833 15.0049L44.6831 13.9043C44.797 13.7493 44.9132 13.583 45.0317 13.4053C45.1502 13.2275 45.2664 13.0452 45.3804 12.8584C45.4989 12.667 45.6105 12.4756 45.7153 12.2842C45.8201 12.0928 45.9181 11.9059 46.0093 11.7236C46.1414 11.4502 46.2326 11.2246 46.2827 11.0469C46.3328 10.8646 46.3579 10.7188 46.3579 10.6094C46.3579 10.4863 46.3351 10.4066 46.2896 10.3701C46.244 10.3291 46.1802 10.3086 46.0981 10.3086C46.0116 10.3086 45.9113 10.3542 45.7974 10.4453C45.688 10.5319 45.5741 10.6458 45.4556 10.7871C45.3371 10.9238 45.2163 11.0811 45.0933 11.2588C44.9748 11.432 44.8608 11.6051 44.7515 11.7783C44.6421 11.9515 44.5396 12.1156 44.4438 12.2705C44.3481 12.4255 44.2684 12.5508 44.2046 12.6465L43.9585 12.4551C44.1909 12.0905 44.4006 11.7578 44.5874 11.457C44.7788 11.1517 44.9611 10.8896 45.1343 10.6709C45.312 10.4521 45.4829 10.2835 45.647 10.165C45.8156 10.042 45.9933 9.98047 46.1802 9.98047C46.2804 9.98047 46.3761 10.001 46.4673 10.042C46.563 10.083 46.645 10.1445 46.7134 10.2266C46.7863 10.304 46.8433 10.3997 46.8843 10.5137C46.9253 10.6276 46.9458 10.7598 46.9458 10.9102C46.9458 11.0286 46.9321 11.1517 46.9048 11.2793C47.1053 11.0833 47.2922 10.9215 47.4653 10.7939C47.6385 10.6663 47.798 10.5661 47.9438 10.4932C48.0897 10.4157 48.2241 10.361 48.3472 10.3291C48.4702 10.2972 48.5819 10.2812 48.6821 10.2812C48.7687 10.2812 48.869 10.2972 48.9829 10.3291C49.0968 10.361 49.2039 10.4202 49.3042 10.5068C49.4045 10.5934 49.4888 10.7142 49.5571 10.8691C49.63 11.0195 49.6665 11.2155 49.6665 11.457Z" fill="currentColor" fill-opacity="0.9"/>
<path d="M51.5054 13.4463C51.4963 13.501 51.4894 13.5557 51.4849 13.6104C51.4803 13.665 51.478 13.7197 51.478 13.7744C51.478 13.9385 51.5008 14.0957 51.5464 14.2461C51.5965 14.3919 51.6672 14.5218 51.7583 14.6357C51.854 14.7451 51.9702 14.8317 52.1069 14.8955C52.2482 14.9593 52.4077 14.9912 52.5854 14.9912C53.1825 14.9912 53.759 14.7884 54.3149 14.3828C54.8709 13.9772 55.4246 13.3346 55.9761 12.4551L56.2085 12.6602C55.9077 13.1615 55.6024 13.5853 55.2925 13.9316C54.9826 14.2734 54.6727 14.5514 54.3628 14.7656C54.0575 14.9798 53.7567 15.1348 53.4604 15.2305C53.1642 15.3262 52.8817 15.374 52.6128 15.374C52.4168 15.374 52.2095 15.3467 51.9907 15.292C51.772 15.2373 51.5692 15.1462 51.3823 15.0186C51.2 14.891 51.0496 14.7201 50.9312 14.5059C50.8081 14.2917 50.7466 14.0251 50.7466 13.7061C50.7466 13.3643 50.8058 13.0361 50.9243 12.7217C51.0382 12.4027 51.1886 12.1064 51.3755 11.833C51.5623 11.5596 51.7765 11.3112 52.0181 11.0879C52.2596 10.86 52.5034 10.6663 52.7495 10.5068C53.0002 10.3473 53.244 10.2243 53.481 10.1377C53.7179 10.0465 53.9276 10.001 54.1099 10.001C54.2284 10.001 54.3491 10.0192 54.4722 10.0557C54.5952 10.0921 54.7046 10.1491 54.8003 10.2266C54.9006 10.304 54.9803 10.4066 55.0396 10.5342C55.1034 10.6618 55.1353 10.8145 55.1353 10.9922C55.1353 11.2337 55.0783 11.4616 54.9644 11.6758C54.855 11.8854 54.7069 12.0814 54.52 12.2637C54.3332 12.4414 54.1167 12.6032 53.8706 12.749C53.6245 12.8903 53.367 13.0111 53.0981 13.1113C52.8293 13.2116 52.5581 13.2913 52.2847 13.3506C52.0112 13.4098 51.7515 13.4417 51.5054 13.4463ZM51.5601 13.1523C51.8654 13.1204 52.1525 13.0566 52.4214 12.9609C52.6903 12.8652 52.9364 12.749 53.1597 12.6123C53.383 12.471 53.5812 12.3184 53.7544 12.1543C53.9321 11.9902 54.0802 11.8239 54.1987 11.6553C54.3172 11.4867 54.4084 11.3249 54.4722 11.1699C54.536 11.015 54.5679 10.876 54.5679 10.7529C54.5679 10.6299 54.5337 10.5319 54.4653 10.459C54.4015 10.3861 54.3241 10.3496 54.2329 10.3496C54.0324 10.3496 53.8068 10.4225 53.5562 10.5684C53.3055 10.7096 53.0549 10.9079 52.8042 11.1631C52.5535 11.4137 52.3166 11.71 52.0933 12.0518C51.8745 12.3936 51.6968 12.7604 51.5601 13.1523Z" fill="currentColor" fill-opacity="0.9"/>
</svg>
