<svg width="24" height="24" viewBox="0 0 24 24" fill="none" xmlns="http://www.w3.org/2000/svg">
<path opacity="0.75" d="M14.5 17.5L14.5 14.5L17.5 14.5" stroke="#121A21" stroke-opacity="0.9" stroke-linecap="square" stroke-linejoin="round"/>
<path opacity="0.75" d="M6.5 9.50015L9.49991 9.50015L9.5 6.5" stroke="#121A21" stroke-opacity="0.9" stroke-linecap="square" stroke-linejoin="round"/>
<path fill-rule="evenodd" clip-rule="evenodd" d="M17.5 11L18 11L18 9.99996L17.5 9.99996L15.0607 9.99996L18.0303 7.03034L16.9697 5.96968L14 8.93933L14 6.49996L14 5.99996L13 5.99996L13 6.49996L13 10.5C13 10.7761 13.2239 11 13.5 11L17.5 11Z" fill="#121A21" fill-opacity="0.9"/>
<path fill-rule="evenodd" clip-rule="evenodd" d="M11.0001 17.4999L11.0001 17.9999L10.0001 17.9999L10.0001 17.4999L10 15.0608L7.03039 18.0305L5.96973 16.9698L8.93948 14L6.50021 14L6.00021 14L6.00021 13L6.50021 13L10.5 13C10.7761 13 11 13.2239 11 13.5L11.0001 17.4999ZM9.99997 14L9.99998 14L9.99998 14L9.99997 14Z" fill="#121A21" fill-opacity="0.9"/>
</svg>
