<svg width="16" height="16" viewBox="0 0 16 16" fill="none" xmlns="http://www.w3.org/2000/svg">
  <path opacity="0.75" d="M12.5 9.5L12.5 12.5L9.5 12.5" stroke="#121A21" stroke-opacity="0.9" stroke-linecap="square" stroke-linejoin="round" />
  <path opacity="0.75" d="M6.5 3.49985L3.50009 3.49985L3.5 6.5" stroke="#121A21" stroke-opacity="0.9" stroke-linecap="square" stroke-linejoin="round" />
  <path fill-rule="evenodd" clip-rule="evenodd" d="M6.50004 14L7.00004 14L7.00004 13L6.50004 13L4.06072 13L7.03035 10.0303L5.96969 8.96968L3.00004 11.9393L3.00004 9.49996L3.00004 8.99996L2.00004 8.99996L2.00004 9.49996L2.00004 13.5C2.00004 13.7761 2.2239 14 2.50004 14L6.50004 14Z" fill="#121A21" fill-opacity="0.9" />
  <path fill-rule="evenodd" clip-rule="evenodd" d="M14.0001 6.4999L14.0001 6.9999L13.0001 6.99993L13.0001 6.49993L13 4.06083L10.0304 7.03045L8.96973 5.96979L11.9395 3.00004L9.50021 3.00004L9.00021 3.00004L9.00021 2.00004L9.50021 2.00004L13.5 2.00004C13.7761 2.00004 14 2.22389 14 2.50002L14.0001 6.4999ZM13 3.00004L13 3.00004L13 3.00004L13 3.00004Z" fill="#121A21" fill-opacity="0.9" />
</svg>