<svg xmlns="http://www.w3.org/2000/svg" viewBox="0 0 2048 2048" style="enable-background:new 0 0 2048 2048" xml:space="preserve"><style>.st0{display:none}.st1{display:inline}.st2{fill:#e6ff00}.st3{fill:#fff}.st6{fill:#00ffc1}.st8{fill:#e6d200}</style><g id="Ebene_6"><circle class="st2" cx="1024" cy="1024" r="868.12"/><path d="M1024 155.88c479.45 0 868.12 388.67 868.12 868.12s-388.67 868.12-868.12 868.12S155.88 1503.45 155.88 1024 544.55 155.88 1024 155.88M1024 0C459.36 0 0 459.36 0 1024s459.36 1024 1024 1024 1024-459.36 1024-1024S1588.64 0 1024 0z"/><circle cx="1301.8" cy="801.47" r="170.47"/><circle cx="746.2" cy="801.47" r="170.47"/><path class="st3" d="M1449.52 1462.25H598.48c-91.75 0-166.13-74.38-166.13-166.13S506.73 1130 598.48 1130h851.05c91.75 0 166.13 74.38 166.13 166.13s-74.39 166.12-166.14 166.12z"/><path d="M1449.52 1509.02H598.48c-117.39 0-212.89-95.5-212.89-212.89 0-117.39 95.5-212.89 212.89-212.89h851.04c117.39 0 212.89 95.5 212.89 212.89 0 117.39-95.5 212.89-212.89 212.89zm-851.04-332.26c-65.82 0-119.36 53.54-119.36 119.36 0 65.81 53.54 119.36 119.36 119.36h851.04c65.81 0 119.36-53.54 119.36-119.36s-53.54-119.36-119.36-119.36H598.48z"/><path d="M553.01 1128.06h93.53V1446h-93.53zM722.13 1128.06h93.53V1446h-93.53zM891.24 1128.06h93.53V1446h-93.53zM1060.36 1128.06h93.53V1446h-93.53zM1229.48 1128.06h93.53V1446h-93.53zM1398.59 1128.06h93.53V1446h-93.53z"/></g></svg>