<svg xmlns="http://www.w3.org/2000/svg" viewBox="0 0 2048 2048" style="enable-background:new 0 0 2048 2048" xml:space="preserve"><style>.st0{display:none}.st1{display:inline}.st2{fill:#e6ff00}.st3{fill:#fff}.st6{fill:#00ffc1}.st8{fill:#e6d200}</style><g id="Ebene_3"><circle class="st2" cx="1024" cy="1024" r="868.12"/><path d="M1024 155.88c479.45 0 868.12 388.67 868.12 868.12s-388.67 868.12-868.12 868.12S155.88 1503.45 155.88 1024 544.55 155.88 1024 155.88M1024 0C459.36 0 0 459.36 0 1024s459.36 1024 1024 1024 1024-459.36 1024-1024S1588.64 0 1024 0z"/><circle cx="1301.8" cy="801.47" r="170.47"/><circle class="st3" cx="1352.31" cy="760.43" r="46.3"/><circle cx="746.2" cy="801.47" r="170.47"/><circle class="st3" cx="796.71" cy="760.43" r="46.3"/><path d="M1015 1659.4c-332.15 0-602.36-244.73-602.36-545.54h93.53c0 249.24 228.26 452.01 508.83 452.01s508.83-202.77 508.83-452.01h93.53c0 300.81-270.22 545.54-602.36 545.54z"/></g></svg>