<svg version="1.1" id="Ebene_1" xmlns="http://www.w3.org/2000/svg" x="0" y="0" viewBox="0 0 1380 2048" style="enable-background:new 0 0 1380 2048" xml:space="preserve"><style>.st0{fill:#ff0}.st1{fill:#e11844}</style><path class="st0" d="M535.3 1091.34c-11.1 0-21.57 2.76-30.84 7.56V862.13c0-37.31-30.53-67.84-67.85-67.84-37.31 0-67.84 30.53-67.84 67.84v723.69c0 37.31 30.53 67.84 67.84 67.84 11.23 0 21.82-2.81 31.17-7.69v233.01c0 37.13 30.38 67.51 67.51 67.51 37.13 0 67.51-30.38 67.51-67.51v-720.13c.01-37.13-30.37-67.51-67.5-67.51z"/><path d="M436.62 794.29c37.32 0 67.85 30.53 67.85 67.84v236.77c9.26-4.8 19.74-7.56 30.84-7.56 37.13 0 67.51 30.38 67.51 67.51v720.13c0 37.13-30.38 67.51-67.51 67.51-37.13 0-67.51-30.38-67.51-67.51v-233.01c-9.35 4.88-19.94 7.69-31.17 7.69-37.31 0-67.84-30.53-67.84-67.84V862.13c-.02-37.31 30.51-67.84 67.83-67.84m0-101.51c-93.38 0-169.35 75.97-169.35 169.35v723.69c0 68.3 40.64 127.29 99.02 154.05v139.11c0 93.2 75.82 169.02 169.02 169.02 93.2 0 169.02-75.82 169.02-169.02v-720.13c0-67.98-40.35-126.72-98.35-153.53V862.13c-.01-93.38-75.98-169.35-169.36-169.35z"/><path class="st1" d="M108.32 400.85c157.51 358.03 371.03 1071.56 583.01 1071.56 215.06 0 447.15-732.1 583.01-1071.56l-132.76-118.53-522.97-37.13-334.21 18.56-176.08 137.1z"/><path d="M1313.94 356.21c-24.46 93.01-432.71 23.77-657.55 23.77-221.61 0-551.66 69.25-582-17.76C-33.07 54.05 347.27 56.15 683.89 56.15s712.98-15.28 630.05 300.06z" style="fill:#fea621"/><path d="M691.33 101.51c312.21 0 681.31 4.76 565.3 294.61-131.73 329.15-356.77 1039.02-565.3 1039.02-205.54 0-412.58-691.86-565.31-1039.02C.3 110.35 379.12 101.51 691.33 101.51m0-101.51C392.74 0 137.42 12.5 37.18 166.13-23.66 259.36 1.39 364.89 33.11 437c34.09 77.49 71.53 174.09 111.17 276.37 66.97 172.79 142.88 368.63 221.98 519.87 73.89 141.26 177.61 303.41 325.06 303.41 122.39 0 231.04-107.11 352.29-347.28 87.26-172.86 169.44-391.83 235.47-567.78 25.92-69.06 50.4-134.28 71.79-187.74 29.3-73.21 51.1-179.88-11.44-272.27-52.29-77.24-146.02-123.3-294.99-144.94C938.62 1.25 821.91 0 691.33 0z"/><path class="st0" d="M535.3 1091.34c-11.1 0-21.57 2.76-30.84 7.56V862.13c0-37.31-30.53-67.84-67.85-67.84-37.31 0-67.84 30.53-67.84 67.84v723.69c0 37.31 30.53 67.84 67.84 67.84 11.23 0 21.82-2.81 31.17-7.69v233.01c0 37.13 30.38 67.51 67.51 67.51 37.13 0 67.51-30.38 67.51-67.51v-720.13c.01-37.13-30.37-67.51-67.5-67.51z"/><path class="st0" d="M620.82 458.23c-135.02 0-162.04-20.89-219.05-17.89-57.01 3-153.01 11.93-138.01 68.94s-39.01 86.98 63.01 158.99c27.41 19.35-48.01 99.02 42.01 193.53 54.99 57.74 51.01 133.52 69.01 169.53 18 36.01 99.02 132.02 114.02 165.03s24 72.01 63.01 96.02 12 45.01 63.01 78.01c51.01 33.01 51.01 12 78.01-51.01s32.27-78.01 56.27-96.02c24-18 108.76-51.01 96.76-129.02s32.36-139.2 48.01-147.03c42.01-21 99.02-63.01 99.02-156.03s50.43-68.03 57.01-147.03c6-72.01 69.01-120.02 48.01-168.03-21-48.01-60.01-6-120.02-15s-96.02-24-186.03-27c-90.03-3-234.05 24.01-234.05 24.01z"/><circle class="st1" cx="871.36" cy="636.76" r="73.51"/><circle class="st1" cx="389.77" cy="572.25" r="73.51"/><circle class="st1" cx="571.31" cy="869.3" r="73.51"/><circle class="st1" cx="635.99" cy="614.87" r="73.51"/><circle class="st1" cx="791.83" cy="866.74" r="73.51"/><circle class="st1" cx="738.6" cy="1112.49" r="73.51"/><circle class="st1" cx="504.46" cy="1166.19" r="73.51"/></svg>