<svg version="1.1" id="Ebene_1" xmlns="http://www.w3.org/2000/svg" x="0" y="0" viewBox="0 0 1410 2048" style="enable-background:new 0 0 1410 2048" xml:space="preserve"><style>.st0{fill:#8aff00}</style><ellipse class="st0" cx="704.53" cy="1801.83" rx="443.08" ry="138.92"/><path d="M704.53 1662.91c244.7 0 443.08 62.2 443.08 138.92 0 76.72-198.37 138.92-443.08 138.92s-443.08-62.2-443.08-138.92c0-76.72 198.37-138.92 443.08-138.92m0-107.25c-128.94 0-251.6 16.19-345.39 45.6-169.38 53.11-204.94 138.38-204.94 200.57s35.55 147.46 204.94 200.57c93.79 29.41 216.45 45.6 345.39 45.6s251.6-16.19 345.39-45.6c169.38-53.11 204.94-138.38 204.94-200.57s-35.55-147.46-204.94-200.57c-93.79-29.4-216.45-45.6-345.39-45.6z"/><path class="st0" d="M526.43 980.92h356.2v738.46h-356.2z"/><path d="M882.63 980.92v738.46h-356.2V980.92h356.2m107.25-107.25h-570.7v952.96h570.7V873.67z"/><ellipse class="st0" cx="704.31" cy="985.27" rx="178.31" ry="75.29"/><path d="M704.31 909.97c98.48 0 178.31 33.71 178.31 75.29 0 41.58-79.83 75.29-178.31 75.29S526 1026.84 526 985.26c0-41.58 79.84-75.29 178.31-75.29m0-107.25c-61.63 0-121.23 10.83-167.81 30.5C430.23 878.1 418.75 954.5 418.75 985.27c0 30.76 11.47 107.17 117.76 152.04 46.58 19.67 106.17 30.5 167.81 30.5s121.23-10.83 167.81-30.5c106.28-44.88 117.76-121.28 117.76-152.04 0-30.76-11.47-107.17-117.76-152.04-46.59-19.68-106.18-30.51-167.82-30.51z"/><circle cx="704.53" cy="704.53" r="597.28" style="fill:#e6ff00"/><path d="M704.53 107.25c329.87 0 597.28 267.41 597.28 597.28s-267.41 597.28-597.28 597.28c-329.87 0-597.28-267.41-597.28-597.28s267.41-597.28 597.28-597.28m0-107.25C316.05 0 0 316.05 0 704.53s316.05 704.53 704.53 704.53c388.48 0 704.53-316.05 704.53-704.53S1093 0 704.53 0z"/><path d="M1119.76 677.57H725.32L984.1 418.79l75.84 75.84-75.7 75.69h135.52zM683.74 677.57H289.3V570.32h135.51l-75.69-75.69 75.83-75.84z"/><ellipse cx="704.53" cy="1021.41" rx="312.76" ry="180.27"/><ellipse class="st0" cx="704.53" cy="1801.83" rx="443.08" ry="138.92"/><path class="st0" d="M526.43 980.92h356.2v738.46h-356.2z"/><ellipse class="st0" cx="704.31" cy="985.27" rx="178.31" ry="75.29"/></svg>