<svg width="16" height="16" viewBox="0 0 16 16" fill="none" xmlns="http://www.w3.org/2000/svg">
<path opacity="0.5" fill-rule="evenodd" clip-rule="evenodd" d="M3.80617 8.80664V2.7758C3.80617 2.74484 3.80683 2.71406 3.80813 2.68346L3.24143 2.83531C2.70796 2.97825 2.39138 3.52658 2.53432 4.06005L3.80617 8.80664Z" fill="currentColor" fill-opacity="0.9"/>
<path opacity="0.75" fill-rule="evenodd" clip-rule="evenodd" d="M4.75 9.81055C4.75324 9.67394 4.77264 9.53554 4.80958 9.3977L6.4919 3.11918C6.57289 2.81694 6.72823 2.55448 6.93298 2.34621H5.75C5.19772 2.34621 4.75 2.79392 4.75 3.34621V9.81055Z" fill="currentColor" fill-opacity="0.9"/>
<path fill-rule="evenodd" clip-rule="evenodd" d="M10.5877 12.9817C11.3879 13.1961 12.2104 12.7213 12.4248 11.9211L14.2365 5.15958C14.4509 4.35938 13.9761 3.53687 13.1759 3.32246L9.31215 2.28719C8.51195 2.07277 7.68945 2.54765 7.47503 3.34785L5.6633 10.1093C5.44889 10.9095 5.92376 11.732 6.72396 11.9464L10.5877 12.9817ZM8 8.84668C8.55228 8.84668 9 9.29439 9 9.84668C9 10.399 8.55228 10.8467 8 10.8467C7.44772 10.8467 7 10.399 7 9.84668C7 9.29439 7.44772 8.84668 8 8.84668Z" fill="currentColor" fill-opacity="0.9"/>
</svg>
