<svg xmlns="http://www.w3.org/2000/svg" viewBox="0 0 2048 2048" style="enable-background:new 0 0 2048 2048" xml:space="preserve"><style>.st0{display:none}.st1{display:inline}.st2{fill:#e6ff00}.st3{fill:#fff}.st6{fill:#00ffc1}.st8{fill:#e6d200}</style><g id="Ebene_14"><circle class="st2" cx="1024" cy="1024" r="868.12"/><path d="M1024 155.88c479.45 0 868.12 388.67 868.12 868.12s-388.67 868.12-868.12 868.12S155.88 1503.45 155.88 1024 544.55 155.88 1024 155.88M1024 0C459.36 0 0 459.36 0 1024s459.36 1024 1024 1024 1024-459.36 1024-1024S1588.64 0 1024 0z"/><path d="m760.2 1463.32-59.41-72.24 216.23-177.83h575v93.53H950.54z"/><circle cx="754.08" cy="801.47" r="170.47"/><circle class="st3" cx="804.59" cy="760.43" r="46.3"/><circle cx="1383.34" cy="801.47" r="170.47"/><circle class="st3" cx="1433.85" cy="760.43" r="46.3"/><path d="m600.92 616.2-63.76-142.25 239.68-107.43 204.11 109.93-73.91 137.24-136.51-73.51z"/><path transform="rotate(-10.26 1330.136 514.025)" d="M1143.07 435.95h374.96v155.89h-374.96z"/></g></svg>