<svg version="1.1" id="Ebene_1" xmlns="http://www.w3.org/2000/svg" x="0" y="0" viewBox="0 0 2048 1696" style="enable-background:new 0 0 2048 1696" xml:space="preserve"><style>.st0{fill:#be894a}.st1{fill:#fecc73}.st2{fill:#fff}</style><circle class="st0" cx="1664.21" cy="388.31" r="254.7"/><path d="M1664.21 133.6c140.67 0 254.7 114.03 254.7 254.7S1804.88 643 1664.21 643s-254.7-114.03-254.7-254.7c0-140.66 114.03-254.7 254.7-254.7m0-129.08c-211.62 0-383.79 172.17-383.79 383.79 0 211.62 172.17 383.79 383.79 383.79 211.62 0 383.79-172.17 383.79-383.79 0-211.63-172.17-383.79-383.79-383.79z"/><circle class="st0" cx="383.79" cy="388.31" r="254.7"/><path d="M383.79 133.6c140.67 0 254.7 114.03 254.7 254.7S524.46 643 383.79 643s-254.7-114.03-254.7-254.7c0-140.66 114.03-254.7 254.7-254.7m0-129.08C172.17 4.52 0 176.68 0 388.31 0 599.93 172.17 772.1 383.79 772.1s383.79-172.17 383.79-383.79c0-211.63-172.17-383.79-383.79-383.79z"/><circle class="st0" cx="1059.06" cy="847.98" r="718.89"/><path d="M1059.06 129.09c397.03 0 718.89 321.86 718.89 718.89s-321.86 718.89-718.89 718.89-718.89-321.86-718.89-718.89 321.86-718.89 718.89-718.89m0-129.09C591.48 0 211.08 380.4 211.08 847.98s380.4 847.98 847.98 847.98c467.58 0 847.98-380.4 847.98-847.98S1526.64 0 1059.06 0z"/><ellipse class="st1" cx="1059.06" cy="772.39" rx="522.76" ry="397.7"/><ellipse class="st1" cx="1064.06" cy="1158.41" rx="701.72" ry="451.59"/><path d="M1059.06 129.09c397.03 0 718.89 321.86 718.89 718.89s-321.86 718.89-718.89 718.89-718.89-321.86-718.89-718.89 321.86-718.89 718.89-718.89m0-129.09C591.48 0 211.08 380.4 211.08 847.98s380.4 847.98 847.98 847.98c467.58 0 847.98-380.4 847.98-847.98S1526.64 0 1059.06 0z"/><circle cx="1289.11" cy="663.7" r="141.17"/><circle class="st2" cx="1330.94" cy="629.72" r="38.34"/><circle cx="829.01" cy="663.7" r="141.17"/><circle class="st2" cx="870.84" cy="629.72" r="38.34"/><path d="M970.18 1109.91c-75.95 0-137.74-57.25-137.74-127.61h77.45c0 27.66 27.04 50.16 60.28 50.16s60.28-22.5 60.28-50.16h77.45c.02 70.36-61.77 127.61-137.72 127.61z"/><path d="M1176.08 1109.91c-75.95 0-137.74-57.25-137.74-127.61h77.45c0 27.66 27.04 50.16 60.28 50.16s60.28-22.5 60.28-50.16h77.45c.01 70.36-61.78 127.61-137.72 127.61z"/><path d="M1077.07 1434.07c-275.05 0-498.83-202.66-498.83-451.77h77.45c0 206.4 189.03 374.32 421.37 374.32s421.37-167.92 421.37-374.32h77.45c.02 249.11-223.76 451.77-498.81 451.77z"/></svg>