<svg width="62" height="58" xmlns="http://www.w3.org/2000/svg"><g fill-rule="nonzero" fill="none"><path d="M61.3 34.5C61.3 47.5 49.4 58 31 58S.7 47.5.7 34.5 12.6 2 31 2s30.3 19.5 30.3 32.5Z" fill="#F7910B"/><path d="M61.3 34.5C61.3 47.5 49.4 54 31 54S.7 47.5.7 34.5 12.6 0 31 0s30.3 21.5 30.3 34.5Z" fill="#F7910B"/><path d="M31 0c18.4 0 30.3 21.5 30.3 34.5S49.4 54 31 54" fill="#F9A908"/><path d="M61.3 34.5C61.3 47.5 49.4 54 31 54S.7 47.5.7 34.5 12.6 2 31 2s30.3 19.5 30.3 32.5Z" fill="#F9A908"/><path d="M.7 34.5C.7 21.5 12.6 2 31 2" fill="#F9C55D"/><path d="M31 2c18.4 0 30.3 19.5 30.3 32.5S49.4 58 31 58" fill="#F7910B"/><path d="M31 2c18.4 0 30.3 19.5 30.3 32.5" fill="#EA7103"/><g transform="translate(17 18)"><circle fill="#EA7103" cx="3.6" cy="4.7" r="3.2"/><circle fill="#EA7103" cx="24.4" cy="4.7" r="3.2"/><circle fill="#1E4784" cx="3.6" cy="3.8" r="3.2"/><path d="M3.6.6C5.4.6 6.8 2 6.8 3.8 6.8 5.6 5.4 7 3.6 7" fill="#00233F"/><circle fill="#1E4784" cx="24.4" cy="3.8" r="3.2"/><path d="M24.4.6c1.8 0 3.2 1.4 3.2 3.2 0 1.8-1.4 3.2-3.2 3.2" fill="#00233F"/></g><path d="M26.8 27.8c0 1.2-3.5.7-7.8.7s-7.8.6-7.8-.7c0-1.2 3.5-2.2 7.8-2.2s7.8 1 7.8 2.2Z" fill="#F9C55D"/><path d="M50.8 27.8c0 1.2-3.5.7-7.8.7s-7.8.6-7.8-.7c0-1.2 3.5-2.2 7.8-2.2s7.8 1 7.8 2.2Z" fill="#F9A908"/><circle fill="#F7910B" cx="9.3" cy="31.5" r="1"/><circle fill="#F7910B" cx="4.8" cy="33.5" r="1.1"/><circle fill="#F7910B" cx="7.8" cy="29.5" r="1"/><circle fill="#F7910B" cx="12.4" cy="31.3" r="1"/><circle fill="#F9A908" cx="51.6" cy="31.8" r="1"/><circle fill="#F9A908" cx="54.1" cy="33.2" r="1"/><circle fill="#F9A908" cx="48.8" cy="24.4" r="1"/><circle fill="#F9A908" cx="48.3" cy="36" r="1.3"/><circle fill="#F9A908" cx="55.5" cy="36.1" r="1"/><circle fill="#F7910B" cx="8.3" cy="35.5" r="1"/><circle fill="#F7910B" cx="9.1" cy="27.1" r="1"/><circle fill="#F9A908" cx="3.8" cy="13.3" r="1.1"/><circle fill="#F9A908" cx="7" cy="9.8" r="1"/><circle fill="#F9A908" cx="58.2" cy="15.7" r="1"/><circle fill="#F9A908" cx="57.4" cy="12.8" r="1"/><path d="M60.5 13.3c0 .3-.2.5-.5.5s-.5-.2-.5-.5.2-.5.5-.5c.2 0 .5.3.5.5Z" fill="#F9A908"/><circle fill="#F9A908" cx="5" cy="16.3" r="1"/><path d="M38.4 36.9c0 2.6-3.3 4.7-7.4 4.7-4.1 0-7.4-2.1-7.4-4.7M24.3 24.1c0 .9-2.1 2.7-4.8 2.7-2.7 0-4.8-1.8-4.8-2.7 0-.9 2.1-.4 4.8-.4 2.7 0 4.8-.5 4.8.4Z" fill="#F7910B"/><path d="M24.3 23.9c0 .9-2.1 1.6-4.8 1.6-2.7 0-4.8-.7-4.8-1.6 0-.9 2.1-.4 4.8-.4 2.7 0 4.8-.5 4.8.4Z" fill="#CBEBEF"/><path d="M19.6 23.5c2.6 0 4.8-.5 4.8.4s-2.1 1.6-4.8 1.6" fill="#89D3DB"/><g transform="translate(8 25)"><circle fill="#F7910B" cx="2.9" cy="3.5" r="2.5"/><circle fill="#CBEBEF" cx="2.9" cy="2.6" r="2.5"/><path d="M1.2.9c1-1 2.5-1 3.5 0s1 2.5 0 3.5" fill="#89D3DB"/></g><g transform="translate(8 32)"><circle fill="#F7910B" cx="2.9" cy="3.5" r="2.5"/><circle fill="#CBEBEF" cx="2.9" cy="2.6" r="2.5"/><path d="M1.2.8c1-1 2.5-1 3.5 0s1 2.5 0 3.5" fill="#89D3DB"/></g><g transform="translate(11 21)"><circle fill="#F7910B" cx="1.7" cy="2.5" r="1.2"/><circle fill="#CBEBEF" cx="1.7" cy="2" r="1.2"/><path d="M.9 1.2c.5-.5 1.3-.5 1.8 0s.5 1.3 0 1.8" fill="#89D3DB"/></g><g transform="translate(11 38)"><circle fill="#F7910B" cx="1.7" cy="2.6" r="1.2"/><circle fill="#CBEBEF" cx="1.7" cy="2.1" r="1.2"/><path d="M.8 1.2c.5-.5 1.3-.5 1.8 0s.5 1.3 0 1.8" fill="#89D3DB"/></g><g transform="translate(14 42)"><circle fill="#F7910B" cx="1.1" cy="1.6" r="1"/><circle fill="#CBEBEF" cx="1.1" cy="1.3" r="1"/><path d="M.5.7c.3-.3.9-.3 1.3 0 .3.3.3.9 0 1.2" fill="#89D3DB"/></g><path d="M37.7 24.1c0 .9 2.1 2.7 4.8 2.7 2.6 0 4.8-1.8 4.8-2.7 0-.9-2.1-.4-4.8-.4-2.7-.1-4.8-.5-4.8.4Z" fill="#F7910B"/><path d="M37.7 23.9c0 .9 2.1 1.6 4.8 1.6 2.6 0 4.8-.7 4.8-1.6 0-.9-2.1-.4-4.8-.4-2.7 0-4.8-.5-4.8.4Z" fill="#89D3DB"/><path d="M42.4 23.5c-2.6 0-4.8-.5-4.8.4s2.1 1.6 4.8 1.6" fill="#CBEBEF"/><g transform="translate(48 25)"><circle fill="#F7910B" cx="3.1" cy="3.5" r="2.5"/><circle fill="#89D3DB" cx="3.1" cy="2.6" r="2.5"/><path d="M4.8.9c-1-1-2.5-1-3.5 0s-1 2.5 0 3.5" fill="#CBEBEF"/></g><g transform="translate(48 32)"><circle fill="#F7910B" cx="3.1" cy="3.5" r="2.5"/><circle fill="#89D3DB" cx="3.1" cy="2.6" r="2.5"/><path d="M4.8.8c-1-1-2.5-1-3.5 0s-1 2.5 0 3.5" fill="#CBEBEF"/></g><g transform="translate(47 21)"><circle fill="#F7910B" cx="2.3" cy="2.5" r="1.2"/><circle fill="#89D3DB" cx="2.3" cy="2" r="1.2"/><path d="M3.1 1.2c-.5-.5-1.3-.5-1.8 0S.8 2.5 1.3 3" fill="#CBEBEF"/></g><g transform="translate(48 38)"><circle fill="#F7910B" cx="1.3" cy="2.6" r="1.2"/><circle fill="#89D3DB" cx="1.3" cy="2.1" r="1.2"/><path d="M2.2 1.2C1.7.7.9.7.4 1.2S-.1 2.5.4 3" fill="#CBEBEF"/></g><g transform="translate(46 42)"><circle fill="#F7910B" cx=".9" cy="1.6" r="1"/><circle fill="#89D3DB" cx=".9" cy="1.3" r="1"/><path d="M1.5.7C1.2.4.6.4.3.7 0 1 0 1.6.3 1.9" fill="#CBEBEF"/></g><g fill="#19BCA4"><path d="M19.7 17.3c-.3-.4.8-.8 2-1.6s2-1.6 2.2-1.2c.3.4-.5 1.4-1.6 2.1-1.1.8-2.3 1.1-2.6.7ZM42.3 17.3c.3-.4-.8-.8-2-1.6s-2-1.6-2.2-1.2c-.3.4.5 1.4 1.6 2.1 1.1.8 2.3 1.1 2.6.7Z"/></g><path d="M23.1 33.7c4.4-4.4 11.4-4.4 15.8 0" fill="#F7910B"/><path d="M38.5 36.1c-.6 0-1.1-.5-1.1-1.1 0-2.1 1.7-3.8 3.8-3.8.6 0 1.1.5 1.1 1.1 0 .6-.5 1.1-1.1 1.1-.9 0-1.6.7-1.6 1.6 0 .6-.5 1.1-1.1 1.1ZM23.5 36.1c-.6 0-1.1-.5-1.1-1.1 0-.9-.7-1.6-1.6-1.6-.6 0-1.1-.5-1.1-1.1 0-.6.5-1.1 1.1-1.1 2.1 0 3.8 1.7 3.8 3.8 0 .6-.5 1.1-1.1 1.1Z" fill="#02243E"/><path d="M38.9 34.1c-.3 0-.6-.1-.8-.3-1.9-1.9-4.4-2.9-7.1-2.9-2.7 0-5.2 1-7.1 2.9-.4.4-1.1.4-1.6 0s-.4-1.1 0-1.6c2.3-2.3 5.4-3.6 8.7-3.6 3.3 0 6.4 1.3 8.7 3.6.4.4.4 1.1 0 1.6-.2.2-.5.3-.8.3Z" fill="#02243E"/></g></svg>