<svg width="62" height="60" xmlns="http://www.w3.org/2000/svg"><g fill-rule="nonzero" fill="none"><g transform="translate(0 1)"><path d="M61.3 35.2c0 13-11.9 23.5-30.3 23.5S.7 48.2.7 35.2 12.6 2.7 31 2.7s30.3 19.5 30.3 32.5Z" fill="#F7910B"/><path d="M61.3 35.2c0 13-11.9 19.5-30.3 19.5S.7 48.2.7 35.2 12.6.7 31 .7s30.3 21.5 30.3 34.5Z" fill="#F7910B"/><path d="M31 .7c18.4 0 30.3 21.5 30.3 34.5S49.4 54.7 31 54.7" fill="#F9A908"/><path d="M61.3 35.2c0 13-11.9 19.5-30.3 19.5S.7 48.2.7 35.2 12.6 2.7 31 2.7s30.3 19.5 30.3 32.5Z" fill="#F9A908"/><path d="M.7 35.2C.7 22.2 12.6 2.7 31 2.7" fill="#F9C55D"/><path d="M31 2.7c18.4 0 30.3 19.5 30.3 32.5S49.4 58.7 31 58.7" fill="#F7910B"/><path d="M31 2.7c18.4 0 30.3 19.5 30.3 32.5" fill="#EA7103"/><circle fill="#F7910B" cx="9.3" cy="32.1" r="1"/><circle fill="#F7910B" cx="4.8" cy="34.1" r="1.1"/><circle fill="#F7910B" cx="7.8" cy="30.1" r="1"/><circle fill="#F7910B" cx="12.4" cy="32" r="1"/><circle fill="#F9A908" cx="51.6" cy="32.5" r="1"/><circle fill="#F9A908" cx="54.1" cy="33.9" r="1"/><circle fill="#F9A908" cx="48.8" cy="25.1" r="1"/><circle fill="#F9A908" cx="48.3" cy="36.7" r="1.3"/><circle fill="#F9A908" cx="55.5" cy="36.8" r="1"/><circle fill="#F7910B" cx="8.3" cy="36.2" r="1"/><circle fill="#F7910B" cx="9.1" cy="27.8" r="1"/><circle fill="#F9A908" cx="3.8" cy="14" r="1.1"/><circle fill="#F9A908" cx="7" cy="10.5" r="1"/><circle fill="#F9A908" cx="58.2" cy="16.4" r="1"/><circle fill="#F9A908" cx="57.4" cy="13.5" r="1"/><circle fill="#F9A908" cx="60" cy="14" r="1"/><circle fill="#F9A908" cx="5" cy="17" r="1"/><path d="M38.2 45.6c0 2.6-3.3 7.2-7.4 7.2-4.1 0-7.4-4.6-7.4-7.2" fill="#F7910B"/><g transform="translate(15 18)"><circle fill="#D87703" cx="4.6" cy="5.7" r="3.5"/><path d="M30.9 5.7c0 1.9-1.6 3.5-3.5 3.5s-3.5-1.6-3.5-3.5 1.6-3.5 3.5-3.5c2 0 3.5 1.6 3.5 3.5Z" fill="#D87703"/><circle fill="#1E4784" cx="4.6" cy="4.7" r="3.5"/><path d="M4.6 1.2c1.9 0 3.5 1.6 3.5 3.5S6.5 8.2 4.6 8.2" fill="#00233F"/><path d="M30.9 4.7c0 1.9-1.6 3.5-3.5 3.5s-3.5-1.6-3.5-3.5 1.6-3.5 3.5-3.5c2 0 3.5 1.6 3.5 3.5Z" fill="#1E4784"/><path d="M27.4 1.2c1.9 0 3.5 1.6 3.5 3.5s-1.6 3.5-3.5 3.5" fill="#00233F"/><path d="M.5 4.3C.5 2 2.3.2 4.6.2S8.7 2 8.7 4.3" fill="#F9A908"/><path d="M23.3 4.3C23.3 2 25.1.2 27.4.2s4.1 1.8 4.1 4.1" fill="#F7910B"/></g><path d="M26.8 28.5c0 1.2-3.5.7-7.8.7s-7.8.6-7.8-.7c0-1.2 3.5-2.2 7.8-2.2s7.8 1 7.8 2.2Z" fill="#F9C55D"/><path d="M50.8 28.5c0 1.2-3.5.7-7.8.7s-7.8.6-7.8-.7c0-1.2 3.5-2.2 7.8-2.2s7.8 1 7.8 2.2Z" fill="#F9A908"/></g><path d="M38.6 44.8c0 3.8-3.4 5.3-7.6 5.3-4.2 0-7.6-1.5-7.6-5.3S26.8 39 31 39c4.2 0 7.6 2 7.6 5.8Z" fill="#C42260"/><path d="M38.5 45.9c-.9-.2-1.9-.3-3-.3-1.6 0-3.2.2-4.5.7-1.3-.4-2.9-.7-4.5-.7-1 0-2 .1-3 .3.6 3 3.7 4.3 7.5 4.3 3.8-.1 6.9-1.3 7.5-4.3Z" fill="#E2446E"/><path d="M38.3 43c-.9-3-3.8-4-7.3-4s-6.4 1-7.3 4h14.6Z" fill="#99144A"/><path d="M57.2 12.1 52.2.4l-5 11.7c-.3.7-.5 1.4-.5 2.2 0 3 2.4 5.4 5.4 5.4 3 0 5.4-2.4 5.4-5.4.1-.8 0-1.6-.3-2.2Z" fill="#19DAF4"/><path d="M52.2 19.7c3 0 5.4-2.4 5.4-5.4 0-.8-.2-1.6-.5-2.2L52.1.4" fill="#0EB2CC"/><path d="m56.4 29-4.2-9.9L48 29c-.3.6-.4 1.2-.4 1.9 0 2.5 2 4.6 4.6 4.6 2.5 0 4.6-2 4.6-4.6 0-.7-.2-1.3-.4-1.9Z" fill="#19DAF4"/><path d="M52.2 35.5c2.5 0 4.6-2 4.6-4.6 0-.7-.1-1.3-.4-1.9l-4.2-9.8" fill="#0EB2CC"/><g fill="#92CFDD"><path d="M5 11.2c0 .2-.3.5-.5.5-.3 0-.5-.2-.5-.5V4.9c0-.2.2-.5.5-.5.2 0 .5.2.5.5v6.3ZM8 8.5c0 .2-.2.5-.5.5S7 8.8 7 8.5V2.1c0-.2.2-.5.5-.5.3.1.5.3.5.5v6.4ZM11 7.6c0 .2-.2.5-.5.5-.3-.1-.5-.3-.5-.5V1.2c0-.2.2-.5.5-.5.3.1.5.3.5.5v6.4Z"/></g><g fill="#19BCA4"><path d="M23.2 11.2c0 1-1.1.5-2.5.5s-2.5.5-2.5-.5 1.1-1.7 2.5-1.7 2.5.7 2.5 1.7ZM38.8 11.2c0 1 1.1.5 2.5.5s2.5.5 2.5-.5-1.1-1.7-2.5-1.7-2.5.7-2.5 1.7Z"/></g></g></svg>