<svg width="64" height="58" xmlns="http://www.w3.org/2000/svg"><g fill-rule="nonzero" fill="none"><path d="M62 34.5c0 12.8-11.8 23.2-30 23.2S2 47.3 2 34.5C2 21.6 13.8 2.4 32 2.4s30 19.2 30 32.1Z" fill="#F7910B"/><path d="M62 34.5c0 12.8-11.8 19.3-30 19.3S2 47.4 2 34.5 13.8.4 32 .4s30 21.2 30 34.1Z" fill="#F7910B"/><path d="M32 .4c18.2 0 30 21.3 30 34.1S50.2 53.8 32 53.8" fill="#F9A908"/><path d="M62 34.5c0 12.8-11.8 19.3-30 19.3S2 47.4 2 34.5 13.8 2.4 32 2.4s30 19.2 30 32.1Z" fill="#F9A908"/><path d="M2 34.5C2 21.6 13.8 2.4 32 2.4" fill="#F9C55D"/><path d="M32 2.4c18.2 0 30 19.3 30 32.1S50.2 57.7 32 57.7" fill="#F7910B"/><path d="M32 2.4c18.2 0 30 19.3 30 32.1" fill="#EA7103"/><path d="M25.3 14.9c-.4.7-1.5-.3-3-1.2-1.6-.9-3-1.2-2.6-2 .4-.7 2-.6 3.6.3 1.5.8 2.4 2.1 2 2.9Z" fill="#19BCA4"/><path d="M25.3 14.9c-.4.7-1.5-.3-3-1.2-1.6-.9-3-1.2-2.6-2" fill="#109DA0"/><path d="M38.6 16.1c.4.8 1.5-.3 3-1.2 1.6-.9 3-1.2 2.6-1.9-.4-.7-2-.7-3.6.2-1.5.8-2.5 2.1-2 2.9Z" fill="#19BCA4"/><path d="M38.6 16.1c.4.8 1.5-.3 3-1.2 1.6-.9 3-1.2 2.6-1.9" fill="#109DA0"/><path d="M27.9 27.9c0 1.2-3.5.6-7.7.6-4.3 0-7.7.6-7.7-.6s3.5-2.2 7.7-2.2 7.7.9 7.7 2.2Z" fill="#F9C55D"/><path d="M51.5 27.9c0 1.2-3.5.6-7.7.6-4.3 0-7.7.6-7.7-.6s3.4-2.2 7.7-2.2c4.3 0 7.7.9 7.7 2.2Z" fill="#F9A908"/><path d="M26.8 32.7c0-2.3 2.3-4.2 5.2-4.2 2.9 0 5.2 1.9 5.2 4.2" fill="#F9C55D"/><circle fill="#F7910B" cx="10.6" cy="31.5" r="1"/><circle fill="#F7910B" cx="6.2" cy="33.4" r="1.1"/><circle fill="#F7910B" cx="9.1" cy="29.5" r="1"/><circle fill="#F7910B" cx="13.6" cy="31.3" r="1"/><circle fill="#F9A908" cx="52.3" cy="31.8" r="1"/><circle fill="#F9A908" cx="54.8" cy="33.2" r="1"/><circle fill="#F9A908" cx="49.5" cy="24.5" r="1"/><circle fill="#F9A908" cx="49.1" cy="36" r="1.3"/><circle fill="#F9A908" cx="56.2" cy="36" r="1"/><circle fill="#F7910B" cx="9.6" cy="35.4" r="1"/><circle fill="#F7910B" cx="10.4" cy="27.1" r="1"/><circle fill="#F9A908" cx="5.2" cy="13.6" r="1.1"/><circle fill="#F9A908" cx="8.3" cy="10" r="1"/><circle fill="#F9A908" cx="58.9" cy="15.9" r="1"/><circle fill="#F9A908" cx="58.1" cy="13" r="1"/><circle fill="#F9A908" cx="60.6" cy="13.6" r="1"/><circle fill="#F9A908" cx="6.3" cy="16.5" r="1"/><path d="M25.6 24c-.4 0-.8-.1-1.2-.4-1.5-1.2-3.8-1-5 .5-.6.7-1.6.8-2.3.2-.7-.6-.8-1.6-.2-2.3 2.4-2.9 6.7-3.4 9.6-1 .7.6.8 1.6.2 2.3-.3.5-.7.7-1.1.7Z" fill="#1E4784"/><path d="M26.4 21.2c.7.6.8 1.6.2 2.3-.2.3-.6.5-1 .5s-.8-.1-1.2-.4c-1.5-1.2-3.8-1-5 .5-.6.7-1.6.8-2.3.2-.7-.6-.8-1.6-.2-2.3" fill="#02243E"/><path d="M38.4 24c.4 0 .8-.1 1.2-.4 1.5-1.2 3.8-1 5 .5.6.7 1.6.8 2.3.2.7-.6.8-1.6.2-2.3-2.4-2.9-6.7-3.4-9.6-1-.7.6-.8 1.6-.2 2.3.3.5.7.7 1.1.7Z" fill="#1E4784"/><path d="M37.6 21.2c-.7.6-.8 1.6-.2 2.3.3.4.7.6 1.1.6.4 0 .8-.1 1.2-.4 1.5-1.2 3.8-1 5 .5.6.7 1.6.8 2.3.2.7-.6.8-1.6.2-2.3" fill="#02243E"/><path d="m11.3 28.8 8.3-3.5-8.2-3.5c-.5-.2-1-.3-1.6-.3-2.1 0-3.8 1.7-3.8 3.8 0 2.1 1.7 3.8 3.8 3.8.5.1 1 0 1.5-.3Z" fill="#19DAF4"/><path d="M5.9 25.4c0 2.1 1.7 3.8 3.8 3.8.6 0 1.1-.1 1.6-.3l8.2-3.5" fill="#0EB2CC"/><path d="m6.6 38 5.1-6.2-8 .7c-.5 0-.9.2-1.4.4-1.7.9-2.3 3-1.4 4.6.9 1.7 3 2.3 4.6 1.4.5-.2.8-.5 1.1-.9Z" fill="#19DAF4"/><path d="M.9 37.5c.9 1.7 3 2.3 4.6 1.4.5-.2.8-.5 1.1-.9l5-6.2" fill="#0EB2CC"/><path d="m11.7 45.2-1.1-6.9-4.2 5.6c-.2.3-.4.7-.5 1.1-.4 1.6.6 3.2 2.2 3.6 1.6.4 3.2-.6 3.6-2.2.1-.4.1-.8 0-1.2Z" fill="#19DAF4"/><path d="M8.1 48.6c1.6.4 3.2-.6 3.6-2.2.1-.4.1-.9 0-1.3l-1.1-6.9M52.7 28.8l-8.3-3.5 8.2-3.5c.5-.2 1-.3 1.6-.3 2.1 0 3.8 1.7 3.8 3.8 0 2.1-1.7 3.8-3.8 3.8-.5.1-1 0-1.5-.3Z" fill="#0EB2CC"/><path d="M58.1 25.4c0 2.1-1.7 3.8-3.8 3.8-.6 0-1.1-.1-1.6-.3l-8.2-3.5" fill="#19DAF4"/><path d="m57.4 38-5.1-6.2 8 .7c.5 0 .9.2 1.4.4 1.7.9 2.3 3 1.4 4.6-.9 1.7-3 2.3-4.6 1.4-.5-.2-.8-.5-1.1-.9Z" fill="#0EB2CC"/><path d="M63.1 37.5c-.9 1.7-3 2.3-4.6 1.4-.4-.2-.8-.6-1.1-.9l-5-6.2" fill="#19DAF4"/><path d="m52.3 45.2 1.1-6.9 4.2 5.6c.3.3.5.7.6 1.1.4 1.6-.6 3.2-2.2 3.6-1.6.4-3.2-.6-3.6-2.2-.2-.4-.2-.8-.1-1.2Z" fill="#0EB2CC"/><path d="M55.9 48.6c-1.6.4-3.2-.6-3.6-2.2-.1-.4-.1-.9 0-1.3l1.1-6.9" fill="#19DAF4"/><path d="M39.3 43.5c0 2.6-3.3 4.6-7.3 4.6s-7.3-2.1-7.3-4.6" fill="#F7910B"/><path d="M17.4 45.2c0-9 6.5-16.3 14.6-16.3s14.6 7.3 14.6 16.3" fill="#C42260"/><path d="M17.4 45.2c0-3 6.5-5.5 14.6-5.5s14.6 2.5 14.6 5.5" fill="#E2446E"/><path d="M32 28.8c-4.5 0-8.5 2.3-11.2 5.8 1.7 2.1 4.1 3.4 6.7 3.4 1.6 0 3.1-.5 4.5-1.3 1.3.8 2.8 1.3 4.5 1.3 2.7 0 5.1-1.3 6.7-3.4-2.7-3.5-6.7-5.8-11.2-5.8Z" fill="#99144A"/><circle fill="#19DAF4" cx="51.6" cy="5.8" r="1.3"/><circle fill="#19DAF4" cx="54.2" cy="10.3" r="1"/><circle fill="#19DAF4" cx="57.3" cy="2.3" r="2"/><circle fill="#19DAF4" cx="7.3" cy="6.2" r="2.3"/><circle fill="#19DAF4" cx="10.8" cy="18.7" r="1"/><circle fill="#19DAF4" cx="11.2" cy="14" r="1.4"/></g></svg>