<svg xmlns="http://www.w3.org/2000/svg" viewBox="0 0 2048 2048" style="enable-background:new 0 0 2048 2048" xml:space="preserve"><style>.st0{display:none}.st1{display:inline}.st2{fill:#e6ff00}.st3{fill:#fff}.st6{fill:#00ffc1}.st8{fill:#e6d200}</style><g id="Ebene_11"><circle class="st2" cx="1024" cy="1024" r="868.12"/><path d="M1024 155.88c479.45 0 868.12 388.67 868.12 868.12s-388.67 868.12-868.12 868.12S155.88 1503.45 155.88 1024 544.55 155.88 1024 155.88M1024 0C459.36 0 0 459.36 0 1024s459.36 1024 1024 1024 1024-459.36 1024-1024S1588.64 0 1024 0z"/><circle cx="714.56" cy="801.47" r="170.47"/><circle class="st3" cx="765.07" cy="760.43" r="46.3"/><path d="M680.97 1583.61c0-238.85 153.58-432.49 343.03-432.49s343.03 193.63 343.03 432.49H680.97z"/><path d="M1401.76 1618.34H646.24v-34.73c0-257.62 169.46-467.22 377.76-467.22s377.76 209.59 377.76 467.22v34.73zm-684.9-69.46h614.28c-13.69-203.13-146.21-363.03-307.14-363.03s-293.45 159.9-307.14 363.03z"/><circle cx="1343.82" cy="801.47" r="170.47"/><circle class="st3" cx="1394.33" cy="760.43" r="46.3"/><path class="st6" d="M1098.82 780.13h494.57v44.2h-494.57zM459.91 780.13h494.57v44.2H459.91z"/><path class="st8" d="M976.75 823.32c0 146.45-118.72 265.17-265.17 265.17S446.41 969.77 446.41 823.32M1606.01 823.32c0 146.45-118.72 265.17-265.17 265.17s-265.17-118.72-265.17-265.17"/><path class="st6" d="M1680.2 995.93c0 47.18-38.25 85.43-85.43 85.43-47.18 0-85.43-38.25-85.43-85.43 0-47.18 85.43-214.53 85.43-214.53s85.43 167.35 85.43 214.53z"/></g></svg>