<svg width="62" height="58" xmlns="http://www.w3.org/2000/svg"><g fill-rule="nonzero" fill="none"><path d="M18.6 18.7h-.2c-4.8-.3-9.2-5.3-9.9-11.2-.2-1.9 0-3.6.5-5.1C6.9 3.9 5.2 6.2 4.5 9 3 14.6 5.6 20.1 10.3 21.4c3 .7 6.1-.4 8.3-2.7Z" fill="#ED1841"/><path d="M43.4 18.7h.2c4.8-.3 9.2-5.3 9.9-11.2.2-1.9 0-3.6-.5-5.1 2.1 1.4 3.8 3.7 4.5 6.6 1.5 5.6-1.2 11.1-5.9 12.3-2.9.8-6-.3-8.2-2.6Z" fill="#C1053A"/><path d="M61.3 34.5C61.3 47.5 49.4 58 31 58S.7 47.5.7 34.5 12.6 2 31 2s30.3 19.5 30.3 32.5Z" fill="#ED1841"/><path d="M61.3 34.5C61.3 47.5 49.4 54 31 54S.7 47.5.7 34.5 12.6 0 31 0s30.3 21.5 30.3 34.5Z" fill="#ED1841"/><path d="M31 0c18.4 0 30.3 21.5 30.3 34.5S49.4 54 31 54" fill="#FC4777"/><path d="M61.3 34.5C61.3 47.5 49.4 54 31 54S.7 47.5.7 34.5 12.6 2 31 2s30.3 19.5 30.3 32.5Z" fill="#FC4777"/><path d="M.7 34.5C.7 21.5 12.6 2 31 2" fill="#F98A9F"/><path d="M31 2c18.4 0 30.3 19.5 30.3 32.5S49.4 58 31 58" fill="#ED1841"/><path d="M31 2c18.4 0 30.3 19.5 30.3 32.5" fill="#C1053A"/><g transform="translate(9 26)"><g transform="translate(8 1)" fill="#C1053A"><circle cx="3.6" cy="3.8" r="3.2"/><circle cx="24.4" cy="3.8" r="3.2"/></g><circle fill="#1E4784" cx="11.6" cy="3.9" r="3.2"/><path d="M11.6.7c1.8 0 3.2 1.4 3.2 3.2 0 1.8-1.4 3.2-3.2 3.2" fill="#00233F"/><circle fill="#1E4784" cx="32.4" cy="3.9" r="3.2"/><path d="M32.4.7c1.8 0 3.2 1.4 3.2 3.2 0 1.8-1.4 3.2-3.2 3.2" fill="#00233F"/><path d="M17.4 10.1c0 1.3-3.8.8-8.6.8-4.7 0-8.6.5-8.6-.8S4 7.7 8.8 7.7s8.6 1.1 8.6 2.4Z" fill="#F98A9F"/><path d="M43.8 10.1c0 1.3-3.8.8-8.6.8s-8.6.5-8.6-.8 3.8-2.4 8.6-2.4 8.6 1.1 8.6 2.4Z" fill="#FF5069"/></g><circle fill="#F98A9F" cx="9.3" cy="31.5" r="1"/><circle fill="#F98A9F" cx="4.8" cy="33.5" r="1.1"/><circle fill="#F98A9F" cx="7.8" cy="29.5" r="1"/><circle fill="#F98A9F" cx="12.4" cy="31.3" r="1"/><circle fill="#FC4777" cx="51.6" cy="31.8" r="1"/><circle fill="#FC4777" cx="54.1" cy="33.2" r="1"/><circle fill="#FC4777" cx="48.8" cy="24.4" r="1"/><circle fill="#FC4777" cx="43.9" cy="23.3" r="1.3"/><circle fill="#FC4777" cx="55.5" cy="36.1" r="1"/><circle fill="#F98A9F" cx="8.3" cy="35.5" r="1"/><circle fill="#F98A9F" cx="9.1" cy="27.1" r="1"/><circle fill="#FC4777" cx="3.8" cy="4" r="1.1"/><circle fill="#FC4777" cx="11.1" cy="5.7" r="1"/><circle fill="#ED1841" cx="58.2" cy="15.7" r="1"/><circle fill="#ED1841" cx="48.4" cy="3" r="1"/><circle fill="#ED1841" cx="57.1" cy="2.1" r="1"/><circle fill="#FC4777" cx="11.3" cy=".6" r="1"/><path d="M38.4 47.4c0 2.6-3.3 7.3-7.4 7.3-4.1 0-7.4-4.7-7.4-7.3" fill="#ED1841"/><path d="M42.9 38.5c0 6.8-5.3 12.3-11.9 12.3-6.6 0-11.9-5.5-11.9-12.3" fill="#1E4784"/><path d="M42.9 38.5c0 2.3-5.3 4.1-11.9 4.1-6.6 0-11.9-1.8-11.9-4.1" fill="#00233F"/><path d="M31 50.8c3.7 0 6.9-1.7 9.1-4.4-1.3-1.5-3.3-2.5-5.5-2.5-1.3 0-2.6.4-3.6 1-1.1-.6-2.3-1-3.6-1-2.2 0-4.1 1-5.5 2.5 2.2 2.7 5.4 4.4 9.1 4.4Z" fill="#F98A9F"/><g fill="#7A0B0B"><path d="M17.5 21.7c-.7 1.5 1.4 2.1 3.5 3.7 2.1 1.7 3.5 3.8 4.2 2.2.7-1.5-.4-4.1-2.6-5.8-2-1.5-4.4-1.6-5.1-.1ZM44.5 21.7c.7 1.5-1.4 2.1-3.5 3.7-2.1 1.7-3.5 3.8-4.2 2.2-.7-1.5.4-4.1 2.6-5.8 2-1.5 4.4-1.6 5.1-.1Z"/></g></g></svg>