<svg width="61" height="42" xmlns="http://www.w3.org/2000/svg"><g fill-rule="nonzero" fill="none"><g transform="translate(0 3)"><path d="M60.08 22.617c0 12.031-13.244 15.408-29.58 15.408S.92 34.648.92 22.617C.92 10.584 14.164.83 30.5.83s29.58 9.754 29.58 21.787Z" fill="#FFC533"/><path d="M60.08 22.617c0 12.031-13.244 15.408-29.58 15.408S.92 34.648.92 22.617C.92 10.584 14.164 3.855 30.5 3.855s29.58 6.729 29.58 18.762Z" fill="#FFB031"/><path d="M60.08 22.617c0 12.031-13.244 15.408-29.58 15.408S.92 34.648.92 22.617c0-12.033 13.244-5.492 29.58-5.492s29.58-6.541 29.58 5.492Z" fill="#FF912E"/><ellipse fill="#FF4817" cx="30.5" cy="25.641" rx="10.688" ry="2.375"/><path d="M41.188 25.641c0 1.312-4.785 2.375-10.688 2.375-5.903 0-10.688-1.062-10.688-2.375 0-1.311 4.785.502 10.688.502 5.903 0 10.688-1.813 10.688-.502Z" fill="#D33213"/><g transform="translate(16 17)" fill="#082856"><circle cx="2.81" cy="3.312" r="2.657"/><circle cx="26.19" cy="3.312" r="2.657"/></g><g fill="#000"><path d="M21.467 20.312a2.656 2.656 0 1 1-5.314 0M44.848 20.312a2.656 2.656 0 1 1-5.314 0"/></g></g><path d="M32.416 1.891c0 1.059-.857 3.75-1.916 3.75s-1.916-2.691-1.916-3.75a1.915 1.915 0 1 1 3.832 0Z" fill="#FFC533"/></g></svg>