<svg width="62" height="58" xmlns="http://www.w3.org/2000/svg"><g fill-rule="nonzero" fill="none"><path d="M61.3 34.5C61.3 47.5 49.4 58 31 58S.7 47.5.7 34.5 12.6 2 31 2s30.3 19.5 30.3 32.5Z" fill="#F7910B"/><path d="M61.3 34.5C61.3 47.5 49.4 54 31 54S.7 47.5.7 34.5 12.6 0 31 0s30.3 21.5 30.3 34.5Z" fill="#F7910B"/><path d="M31 0c18.4 0 30.3 21.5 30.3 34.5S49.4 54 31 54" fill="#F9A908"/><path d="M61.3 34.5C61.3 47.5 49.4 54 31 54S.7 47.5.7 34.5 12.6 2 31 2s30.3 19.5 30.3 32.5Z" fill="#F9A908"/><path d="M.7 34.5C.7 21.5 12.6 2 31 2" fill="#F9C55D"/><path d="M31 2c18.4 0 30.3 19.5 30.3 32.5S49.4 58 31 58" fill="#F7910B"/><path d="M31 2c18.4 0 30.3 19.5 30.3 32.5" fill="#EA7103"/><g transform="translate(17 26)"><circle fill="#EA7103" cx="3.6" cy="4.7" r="3.2"/><circle fill="#EA7103" cx="24.4" cy="4.7" r="3.2"/><circle fill="#1E4784" cx="3.6" cy="3.8" r="3.2"/><path d="M3.6.6C5.4.6 6.8 2 6.8 3.8 6.8 5.6 5.4 7 3.6 7" fill="#00233F"/><circle fill="#1E4784" cx="24.4" cy="3.8" r="3.2"/><path d="M24.4.6c1.8 0 3.2 1.4 3.2 3.2 0 1.8-1.5 3.2-3.2 3.2" fill="#00233F"/></g><g fill="#19BCA4"><path d="M24.1 25.8c-.4.8-1.5-.2-3.1-1s-3.1-1-2.8-1.8c.4-.8 2-.8 3.6 0 1.7.7 2.7 2 2.3 2.8ZM37.7 27.3c.3.8 1.5-.1 3.2-.8 1.7-.6 3.2-.8 2.9-1.6-.3-.8-1.9-.9-3.6-.3-1.7.8-2.8 1.9-2.5 2.7Z"/></g><g fill="#109DA0"><path d="M24.1 25.8c-.4.8-1.5-.2-3.1-1s-3.1-1-2.8-1.8M37.7 27.3c.3.8 1.5-.1 3.2-.8 1.7-.6 3.2-.8 2.9-1.6"/></g><path d="M26.8 35.1c0 1.2-3.5.7-7.8.7s-7.8.6-7.8-.7c0-1.2 3.5-2.2 7.8-2.2s7.8.9 7.8 2.2Z" fill="#F9C55D"/><path d="M50.8 35.1c0 1.2-3.5.7-7.8.7s-7.8.6-7.8-.7c0-1.2 3.5-2.2 7.8-2.2s7.8.9 7.8 2.2Z" fill="#F9A908"/><circle fill="#F7910B" cx="9.3" cy="31.5" r="1"/><circle fill="#F7910B" cx="4.8" cy="33.5" r="1.1"/><circle fill="#F7910B" cx="7.8" cy="29.5" r="1"/><circle fill="#F7910B" cx="12.4" cy="31.3" r="1"/><circle fill="#F9A908" cx="51.6" cy="31.8" r="1"/><circle fill="#F9A908" cx="54.1" cy="33.2" r="1"/><circle fill="#F9A908" cx="48.8" cy="24.4" r="1"/><circle fill="#F9A908" cx="48.3" cy="36" r="1.3"/><circle fill="#F9A908" cx="55.5" cy="36.1" r="1"/><circle fill="#F7910B" cx="8.3" cy="35.5" r="1"/><circle fill="#F7910B" cx="9.1" cy="27.1" r="1"/><circle fill="#25A1D8" cx="3.8" cy="13.3" r="1.1"/><circle fill="#25A1D8" cx="7" cy="9.8" r="1"/><circle fill="#0767A8" cx="58.2" cy="15.7" r="1"/><circle fill="#0767A8" cx="57.4" cy="12.8" r="1"/><circle fill="#0767A8" cx="60" cy="13.3" r="1"/><circle fill="#25A1D8" cx="5" cy="16.3" r="1"/><path d="M31 0C12.6 0 .7 21.5.7 34.5S12.6 58 31 58s30.3-10.5 30.3-23.5S49.4 0 31 0Zm0 37c-13.4 0-24.3-.8-24.3-9.9 0-9 10.9-5.3 24.3-5.3s24.2-3.8 24.2 5.3S44.4 37 31 37Z" fill="#25A1D8"/><path d="M61.3 34.5C61.3 21.5 49.4 0 31 0c-6.5 0-12.3 2.7-16.9 6.8-1.9 4.4-3.1 9.4-3.5 14.8 4.3-1.3 11.8.3 20.4.3 13.4 0 24.2-3.8 24.2 5.3 0 9-10.9 9.9-24.2 9.9-8.1 0-15.2-.3-19.6-2.5C13.7 46 19.9 54.9 27.8 58H31c18.4 0 30.3-10.5 30.3-23.5Z" fill="#0767A8"/><path d="M31 7.2c10.5 0 18.9.7 18.9 7.7C49.9 22 41.5 22 31 22c-10.5 0-18.9-.1-18.9-7.1S20.5 7.2 31 7.2Z" fill="#C8D4DB"/><path d="M12.1 14.2c.6 5.3 8.8 5.4 18.9 5.4 10.1 0 18.3-.1 18.9-5.4-.6-6.4-8.8-7-18.9-7-10.1 0-18.3.6-18.9 7Z" fill="#E1EAEF"/><path fill="#25A1D8" d="m30.7 9 1.4 2.9 3.2.5-2.3 2.2.6 3.2-2.9-1.5-2.8 1.5.5-3.2-2.3-2.2 3.2-.5z"/><path fill="#0767A8" d="m30.7 9 1.4 2.9 3.2.5-2.3 2.2.6 3.2-2.9-1.5-2.8 1.5 1.4-2.3-3.2-3.1 4.1.3z"/></g></svg>