<svg width="62" height="58" xmlns="http://www.w3.org/2000/svg"><g fill-rule="nonzero" fill="none"><circle fill="#FFFEFA" cx="19.7" cy="42.8" r="5.1"/><path d="M61.3 34.5C61.3 47.5 49.4 58 31 58S.7 47.5.7 34.5 12.6 2 31 2s30.3 19.5 30.3 32.5Z" fill="#F7910B"/><path d="M61.3 34.5C61.3 47.5 49.4 54 31 54S.7 47.5.7 34.5 12.6 0 31 0s30.3 21.5 30.3 34.5Z" fill="#F7910B"/><path d="M31 0c18.4 0 30.3 21.5 30.3 34.5S49.4 54 31 54" fill="#F9A908"/><path d="M61.3 34.5C61.3 47.5 49.4 54 31 54S.7 47.5.7 34.5 12.6 2 31 2s30.3 19.5 30.3 32.5Z" fill="#F9A908"/><path d="M.7 34.5C.7 21.5 12.6 2 31 2" fill="#F9C55D"/><path d="M31 2c18.4 0 30.3 19.5 30.3 32.5S49.4 58 31 58" fill="#F7910B"/><path d="M31 2c18.4 0 30.3 19.5 30.3 32.5" fill="#EA7103"/><path d="M26.2 15c-.8 1-1.7-.6-3.4-2-1.6-1.4-3.4-2-2.6-3 .8-1 2.8-.7 4.5.7 1.7 1.4 2.3 3.3 1.5 4.3Z" fill="#19BCA4"/><path d="M26.2 15c-.8 1-1.7-.6-3.4-2-1.6-1.4-3.4-2-2.6-3" fill="#109DA0"/><path d="M35.8 15c.8 1 1.7-.6 3.4-2 1.6-1.4 3.4-2 2.6-3-.8-1-2.8-.7-4.5.7-1.7 1.4-2.3 3.3-1.5 4.3Z" fill="#19BCA4"/><path d="M35.8 15c.8 1 1.7-.6 3.4-2 1.6-1.4 3.4-2 2.6-3" fill="#109DA0"/><path d="M26.8 27.8c0 1.2-3.5.7-7.8.7s-7.8.6-7.8-.7c0-1.2 3.5-2.2 7.8-2.2s7.8 1 7.8 2.2Z" fill="#F9C55D"/><path d="M50.8 27.8c0 1.2-3.5.7-7.8.7s-7.8.6-7.8-.7c0-1.2 3.5-2.2 7.8-2.2s7.8 1 7.8 2.2Z" fill="#F9A908"/><circle fill="#F7910B" cx="9.3" cy="31.5" r="1"/><circle fill="#F7910B" cx="4.8" cy="33.5" r="1.1"/><circle fill="#F7910B" cx="7.8" cy="29.5" r="1"/><circle fill="#F7910B" cx="12.4" cy="31.3" r="1"/><circle fill="#F9A908" cx="51.6" cy="31.8" r="1"/><circle fill="#F9A908" cx="54.1" cy="33.2" r="1"/><circle fill="#F9A908" cx="48.8" cy="24.4" r="1"/><circle fill="#F9A908" cx="48.3" cy="36" r="1.3"/><circle fill="#F9A908" cx="55.5" cy="36.1" r="1"/><circle fill="#F7910B" cx="8.3" cy="35.5" r="1"/><circle fill="#F7910B" cx="9.1" cy="27.1" r="1"/><circle fill="#F9A908" cx="3.8" cy="13.3" r="1.1"/><circle fill="#F9A908" cx="7" cy="9.8" r="1"/><circle fill="#F9A908" cx="58.2" cy="15.7" r="1"/><circle fill="#F9A908" cx="57.4" cy="12.8" r="1"/><path d="M60.5 13.3c0 .3-.2.5-.5.5s-.5-.2-.5-.5.2-.5.5-.5c.2 0 .5.3.5.5Z" fill="#F9A908"/><circle fill="#F9A908" cx="5" cy="16.3" r="1"/><path d="M17.2 18.4c.4.1.7.4.9.8.9 1.8 3 2.5 4.8 1.7.8-.4 1.8 0 2.2.8.4.8 0 1.8-.8 2.2-3.4 1.6-7.6.2-9.2-3.2-.4-.8 0-1.8.8-2.2.5-.2.9-.2 1.3-.1Z" fill="#1E4784"/><path d="M15.2 20.7c-.4-.8 0-1.8.8-2.2.4-.2.9-.2 1.3-.1s.7.4.9.8c.9 1.8 3 2.5 4.8 1.7.8-.4 1.8 0 2.2.8.4.8 0 1.8-.8 2.2" fill="#02243E"/><path d="M44.8 18.4c-.4.1-.7.4-.9.8-.9 1.8-3 2.5-4.8 1.7-.8-.4-1.8 0-2.2.8-.4.8 0 1.8.8 2.2 3.4 1.6 7.6.2 9.2-3.2.4-.8 0-1.8-.8-2.2-.5-.2-.9-.2-1.3-.1Z" fill="#1E4784"/><path d="M46.8 20.7c.4-.8 0-1.8-.8-2.2-.4-.2-.9-.2-1.3-.1s-.7.4-.9.8c-.9 1.8-3 2.5-4.8 1.7-.8-.4-1.8 0-2.2.8-.4.8 0 1.8.8 2.2" fill="#02243E"/><path d="M23.6 38.9c0-2.6 3.3-4.7 7.4-4.7 4.1 0 7.4 2.1 7.4 4.7" fill="#F7910B"/><g fill="#02243E"><path d="M43.4 37.6c-.6 0-1.1-.5-1.1-1.1 0-2.1 1.7-3.8 3.8-3.8.6 0 1.1.5 1.1 1.1 0 .6-.6 1.2-1.2 1.2-.9 0-1.6.7-1.6 1.6.1.5-.4 1-1 1ZM18.6 37.6c-.6 0-1.1-.5-1.1-1.1 0-.9-.7-1.6-1.6-1.6-.6 0-1.1-.5-1.1-1.1 0-.6.5-1.1 1.1-1.1 2.1 0 3.8 1.7 3.8 3.8 0 .6-.5 1.1-1.1 1.1Z"/><path d="M44.2 35.5c-.3 0-.6-.1-.8-.3C40.1 31.8 35.7 30 31 30s-9.1 1.8-12.4 5.1c-.4.4-1.1.4-1.6 0-.4-.4-.4-1.1 0-1.6 3.7-3.7 8.7-5.8 13.9-5.8 5.2 0 10.2 2.1 13.9 5.8.4.4.4 1.1 0 1.6-.1.3-.4.4-.6.4Z"/></g><path d="m24.3 41.5 3.5-14-8.8 8.7c-.4-.1-.8-.1-1.2-.1-1.2 0-2.3.4-3.2 1.1-.7-.3-1.4-.4-2.2-.4-3.2 0-5.9 2.6-5.9 5.9 0 1.5.6 2.9 1.6 4-.7 1-1.2 2.2-1.2 3.5 0 3.2 2.6 5.9 5.9 5.9 1.3 0 2.5-.5 3.5-1.2.9.7 2 1.1 3.2 1.1 2.8 0 5-2.1 5.3-4.7 1.6-.9 2.8-2.7 2.8-4.7 0-2.4-1.4-4.3-3.3-5.1Z" fill="#FFFEFA"/><path d="m37.7 41.5-3.5-14 8.7 8.7c.4-.1.8-.1 1.2-.1 1.2 0 2.3.4 3.2 1.1.7-.3 1.4-.4 2.2-.4 3.2 0 5.9 2.6 5.9 5.9 0 1.5-.6 2.9-1.6 4 .7 1 1.2 2.2 1.2 3.5 0 3.2-2.6 5.9-5.9 5.9-1.3 0-2.5-.5-3.5-1.2-.9.7-2 1.1-3.2 1.1-2.8 0-5-2.1-5.3-4.7-1.6-.9-2.8-2.7-2.8-4.7.1-2.4 1.5-4.3 3.4-5.1Z" fill="#EDE5CE"/></g></svg>