<svg width="62" height="58" xmlns="http://www.w3.org/2000/svg"><g fill-rule="nonzero" fill="none"><path d="M61.3 34.5C61.3 47.5 49.4 58 31 58S.7 47.5.7 34.5 12.6 2 31 2s30.3 19.5 30.3 32.5Z" fill="#F7910B"/><path d="M61.3 34.5C61.3 47.5 49.4 54 31 54S.7 47.5.7 34.5 12.6 0 31 0s30.3 21.5 30.3 34.5Z" fill="#F7910B"/><path d="M31 0c18.4 0 30.3 21.5 30.3 34.5S49.4 54 31 54" fill="#F9A908"/><path d="M61.3 34.5C61.3 47.5 49.4 54 31 54S.7 47.5.7 34.5 12.6 2 31 2s30.3 19.5 30.3 32.5Z" fill="#F9A908"/><path d="M.7 34.5C.7 21.5 12.6 2 31 2" fill="#F9C55D"/><path d="M31 2c18.4 0 30.3 19.5 30.3 32.5S49.4 58 31 58" fill="#F7910B"/><path d="M31 2c18.4 0 30.3 19.5 30.3 32.5" fill="#EA7103"/><g transform="translate(9 26)"><g transform="translate(8 1)" fill="#EA7103"><circle cx="3.6" cy="3.8" r="3.2"/><circle cx="24.4" cy="3.8" r="3.2"/></g><circle fill="#1E4784" cx="11.6" cy="3.9" r="3.2"/><path d="M11.6.7c1.8 0 3.2 1.4 3.2 3.2 0 1.8-1.4 3.2-3.2 3.2" fill="#00233F"/><circle fill="#1E4784" cx="32.4" cy="3.9" r="3.2"/><path d="M32.4.7c1.8 0 3.2 1.4 3.2 3.2 0 1.8-1.4 3.2-3.2 3.2" fill="#00233F"/><g fill="#FF4200"><path d="M17.4 10.9c0 1.3-3.8 1.8-8.6 1.8-4.7 0-8.6-.5-8.6-1.8S4 8.5 8.8 8.5s8.6 1.1 8.6 2.4ZM43.8 10.9c0 1.3-3.8 1.8-8.6 1.8s-8.6-.5-8.6-1.8 3.8-2.4 8.6-2.4 8.6 1.1 8.6 2.4Z"/></g></g><g fill="#19BCA4"><path d="M24.7 13c0 .9-1.4.5-3.3.6-1.8.1-3.3.6-3.3-.3 0-.9 1.4-1.6 3.2-1.7 1.9-.1 3.4.5 3.4 1.4ZM37.3 13c0 .9 1.4.5 3.3.6 1.8.1 3.3.6 3.3-.3 0-.9-1.4-1.6-3.2-1.7-1.9-.1-3.4.5-3.4 1.4Z"/></g><g fill="#109DA0"><path d="M24.7 13c0 .9-1.4.5-3.3.6-1.8.1-3.3.6-3.3-.3M37.3 13c0 .9 1.4.5 3.3.6 1.8.1 3.3.6 3.3-.3"/></g><circle fill="#F7910B" cx="9.3" cy="31.5" r="1"/><circle fill="#F7910B" cx="4.8" cy="33.5" r="1.1"/><circle fill="#F7910B" cx="7.8" cy="29.5" r="1"/><circle fill="#F7910B" cx="12.4" cy="31.3" r="1"/><circle fill="#F9A908" cx="51.6" cy="31.8" r="1"/><circle fill="#F9A908" cx="54.1" cy="33.2" r="1"/><circle fill="#F9A908" cx="48.8" cy="24.4" r="1"/><circle fill="#F9A908" cx="43.9" cy="23.3" r="1.3"/><circle fill="#F9A908" cx="55.5" cy="36.1" r="1"/><circle fill="#F7910B" cx="8.3" cy="35.5" r="1"/><circle fill="#F7910B" cx="9.1" cy="27.1" r="1"/><circle fill="#F9A908" cx="3.8" cy="13.3" r="1.1"/><circle fill="#F9A908" cx="7" cy="9.8" r="1"/><circle fill="#F9A908" cx="58.2" cy="15.7" r="1"/><circle fill="#F9A908" cx="57.4" cy="12.8" r="1"/><circle fill="#F9A908" cx="60" cy="13.3" r="1"/><circle fill="#F9A908" cx="5" cy="16.3" r="1"/><path d="M38.4 43.7c0 2.6-3.3 8.1-7.4 8.1-4.1 0-7.4-5.5-7.4-8.1" fill="#F7910B"/><path d="M31 45.2c-3.5 0-6.5-.8-7.9-2.2-.4-.4-.4-1.1 0-1.6.4-.4 1.1-.4 1.6 0 1 1 3.5 1.6 6.3 1.6s5.4-.6 6.3-1.6c.4-.4 1.1-.4 1.6 0 .4.4.4 1.1 0 1.6-1.4 1.4-4.4 2.2-7.9 2.2Z" fill="#02243E"/></g></svg>