<svg width="72" height="72" viewBox="0 0 72 72" fill="none"
  xmlns="http://www.w3.org/2000/svg">
  <rect x="9" y="19" width="54" height="34" fill="white" fill-opacity="0.85"/>
  <rect x="9" y="19" width="54" height="34" fill="url(#paint0_linear_1146_141570)" fill-opacity="0.5"/>
  <rect x="9.5" y="19.5" width="53" height="33" stroke="black" stroke-opacity="0.25"/>
  <path d="M41.5616 32.041L37.84 31L34.1075 32.0514L30.6365 31.0667C30.5621 31.0456 30.4838 31.0421 30.4078 31.0563C30.3319 31.0706 30.2602 31.1023 30.1985 31.1489C30.1369 31.1955 30.0868 31.2558 30.0524 31.325C30.0179 31.3942 30 31.4705 30 31.5478V40.0628C30.0004 40.1933 30.0431 40.3201 30.1218 40.4242C30.2005 40.5283 30.3108 40.604 30.4362 40.64L34.1067 41.6812L37.8408 40.6294L41.3654 41.6153C41.4397 41.6361 41.5178 41.6394 41.5936 41.6249C41.6694 41.6105 41.7408 41.5787 41.8023 41.5321C41.8637 41.4854 41.9136 41.4252 41.9479 41.3561C41.9822 41.2869 42 41.2108 42 41.1336V32.6188C41.9997 32.488 41.9567 32.3607 41.8776 32.2565C41.7985 32.1522 41.6876 32.0766 41.5616 32.041ZM33.675 40.7271L30.8 39.9115V31.9447L33.675 32.7603V40.7271ZM37.4404 39.9109L34.475 40.7462V32.779L37.4404 31.9437V39.9109ZM41.2 40.7382L38.2404 39.9104V31.9427L41.2 32.7704V40.7382Z" fill="#121A21" fill-opacity="0.7"/>
  <defs>
    <linearGradient id="paint0_linear_1146_141570" x1="36" y1="19" x2="36" y2="53" gradientUnits="userSpaceOnUse">
      <stop stop-color="white"/>
      <stop offset="1" stop-color="white" stop-opacity="0"/>
    </linearGradient>
  </defs>
</svg>
