<svg width="16" height="16" viewBox="0 0 16 16" fill="none" xmlns="http://www.w3.org/2000/svg">
  <path fill-rule="evenodd" clip-rule="evenodd" d="M5.00203 1.5L5.002 1L4.002 1.00005L4.00203 1.50005L4.00216 4.00003L1.50294 4L1.00294 3.99999L1.00293 4.99999L1.50293 5L4.00222 5.00003L4.00246 9.50008C4.00253 10.8807 5.12178 11.9999 6.50243 11.9999L10.998 12L10.9981 14.5L10.9981 15L11.9981 15L11.9981 14.5L11.998 12L14.4972 12L14.9972 12L14.9972 11L14.4972 11L11.9979 11L11.9977 6.49995C11.9976 5.1193 10.8783 4.0001 9.49769 4.00008L5.00216 4.00004L5.00203 1.5ZM5.00222 5.00004L5.00246 9.50002C5.0025 10.3284 5.67405 10.9999 6.50244 10.9999L10.9979 11L10.9977 6.5C10.9976 5.67161 10.3261 5.00009 9.49768 5.00008L5.00222 5.00004Z" fill="currentColor" fill-opacity="0.9" />
</svg>