<svg width="16" height="16" viewBox="0 0 16 16" fill="none" xmlns="http://www.w3.org/2000/svg">
  <path fill-rule="evenodd" clip-rule="evenodd" d="M3.5 3H5.5C5.77614 3 6 3.22386 6 3.5V5.5C6 5.77614 5.77614 6 5.5 6H3.5C3.22386 6 3 5.77614 3 5.5V3.5C3 3.22386 3.22386 3 3.5 3ZM2 3.5C2 2.67157 2.67157 2 3.5 2H5.5C6.32843 2 7 2.67157 7 3.5V5.5C7 6.32843 6.32843 7 5.5 7H3.5C2.67157 7 2 6.32843 2 5.5V3.5ZM10.5 10H12.5C12.7761 10 13 10.2239 13 10.5V12.5C13 12.7761 12.7761 13 12.5 13H10.5C10.2239 13 10 12.7761 10 12.5V10.5C10 10.2239 10.2239 10 10.5 10ZM9 10.5C9 9.67157 9.67157 9 10.5 9H12.5C13.3284 9 14 9.67157 14 10.5V12.5C14 13.3284 13.3284 14 12.5 14H10.5C9.67157 14 9 13.3284 9 12.5V10.5Z" fill="currentColor" fill-opacity="0.9" />
  <g opacity="0.75">
    <mask id="path-2-inside-1" fill="currentColor">
      <path fill-rule="evenodd" clip-rule="evenodd" d="M3 8C3 10.7614 5.23858 13 8 13V12C5.79086 12 4 10.2091 4 8H3ZM8 4V3C10.7614 3 13 5.23858 13 8H12C12 5.79086 10.2091 4 8 4Z" />
    </mask>
    <path fill-rule="evenodd" clip-rule="evenodd" d="M3 8C3 10.7614 5.23858 13 8 13V12C5.79086 12 4 10.2091 4 8H3ZM8 4V3C10.7614 3 13 5.23858 13 8H12C12 5.79086 10.2091 4 8 4Z" fill="currentColor" fill-opacity="0.9" />
    <path d="M3 8V7H2V8H3ZM8 13V14H9V13H8ZM8 12H9V11H8V12ZM4 8H5V7H4V8ZM8 4H7V5H8V4ZM8 3V2H7V3H8ZM13 8V9H14V8H13ZM12 8H11V9H12V8ZM2 8C2 11.3137 4.68629 14 8 14V12C5.79086 12 4 10.2091 4 8H2ZM7 12V13H9V12H7ZM3 8C3 10.7614 5.23858 13 8 13V11C6.34315 11 5 9.65685 5 8H3ZM3 9H4V7H3V9ZM9 4V3H7V4H9ZM14 8C14 4.68629 11.3137 2 8 2V4C10.2091 4 12 5.79086 12 8H14ZM13 7H12V9H13V7ZM13 8C13 5.23858 10.7614 3 8 3V5C9.65685 5 11 6.34315 11 8H13Z" fill="currentColor" fill-opacity="0.9" mask="url(#path-2-inside-1)" />
  </g>
</svg>