<svg width="16" height="16" viewBox="0 0 16 16" fill="none" xmlns="http://www.w3.org/2000/svg">
  <path fill-rule="evenodd" clip-rule="evenodd" d="M2.11579 4.18262L4.61579 1.18066L5.38421 1.8206L3.56899 4.00029H8.5C10.9853 4.00029 13 6.01501 13 8.50029C13 10.9856 10.9853 13.0003 8.5 13.0003C6.61069 13.0003 4.99448 11.8361 4.32729 10.1879L5.25423 9.81268C5.77381 11.0963 7.03193 12.0003 8.5 12.0003C10.433 12.0003 12 10.4333 12 8.50029C12 6.56729 10.433 5.00029 8.5 5.00029H3.56561L5.38411 7.18249L4.61589 7.82268L2.11589 4.82268C1.96141 4.6373 1.96137 4.36804 2.11579 4.18262Z" fill="currentColor" fill-opacity="0.9" />
</svg>