<svg width="16" height="16" viewBox="0 0 16 16" fill="none" xmlns="http://www.w3.org/2000/svg">
  <path d="M6.03487 6.17936C6.20133 5.75728 6.79867 5.75729 6.96513 6.17936L7.97596 8.74235C8.02678 8.87121 8.12879 8.97322 8.25765 9.02404L10.8206 10.0349C11.2427 10.2013 11.2427 10.7987 10.8206 10.9651L8.25765 11.976C8.12879 12.0268 8.02678 12.1288 7.97596 12.2576L6.96513 14.8206C6.79867 15.2427 6.20133 15.2427 6.03487 14.8206L5.02404 12.2576C4.97322 12.1288 4.87121 12.0268 4.74235 11.976L2.17936 10.9651C1.75728 10.7987 1.75729 10.2013 2.17936 10.0349L4.74235 9.02404C4.87121 8.97322 4.97322 8.87121 5.02404 8.74235L6.03487 6.17936Z" fill="currentColor" fill-opacity="0.9" />
  <path opacity="0.75" d="M11.0349 3.17936C11.2013 2.75729 11.7987 2.75729 11.9651 3.17936L12.4103 4.30804C12.4611 4.4369 12.5631 4.5389 12.692 4.58972L13.8206 5.03487C14.2427 5.20133 14.2427 5.79867 13.8206 5.96513L12.692 6.41028C12.5631 6.4611 12.4611 6.5631 12.4103 6.69196L11.9651 7.82064C11.7987 8.24271 11.2013 8.24271 11.0349 7.82064L10.5897 6.69196C10.5389 6.5631 10.4369 6.4611 10.308 6.41028L9.17936 5.96513C8.75729 5.79867 8.75729 5.20133 9.17936 5.03487L10.308 4.58972C10.4369 4.5389 10.5389 4.4369 10.5897 4.30804L11.0349 3.17936Z" fill="currentColor" fill-opacity="0.9" />
  <path opacity="0.5" d="M3.03487 2.17936C3.20133 1.75728 3.79867 1.75728 3.96513 2.17936L4.12743 2.59088C4.17826 2.71974 4.28026 2.82174 4.40912 2.87257L4.82064 3.03487C5.24272 3.20133 5.24271 3.79867 4.82064 3.96513L4.40912 4.12743C4.28026 4.17826 4.17826 4.28026 4.12743 4.40912L3.96513 4.82064C3.79867 5.24272 3.20133 5.24271 3.03487 4.82064L2.87257 4.40912C2.82174 4.28026 2.71974 4.17826 2.59088 4.12743L2.17936 3.96513C1.75728 3.79867 1.75728 3.20133 2.17936 3.03487L2.59088 2.87257C2.71974 2.82174 2.82174 2.71974 2.87257 2.59088L3.03487 2.17936Z" fill="currentColor" fill-opacity="0.9" />
</svg>
  