<svg width="16" height="16" viewBox="0 0 16 16" fill="currentColor" xmlns="http://www.w3.org/2000/svg">
<path fill-rule="evenodd" clip-rule="evenodd" d="M7.5 2.5H8.5C8.77614 2.5 9 2.72386 9 3V4H7V3C7 2.72386 7.22386 2.5 7.5 2.5ZM6 4V3C6 2.17157 6.67157 1.5 7.5 1.5H8.5C9.32843 1.5 10 2.17157 10 3V4H11.5H12.5H13V5H12.5H12V12.3008C12 12.744 11.8325 13.1737 11.5273 13.4941C11.2213 13.8154 10.8009 14.0008 10.3571 14.0008H5.64286C5.19905 14.0008 4.77867 13.8154 4.47267 13.4941C4.16745 13.1737 4 12.744 4 12.3008V5H3.5H3V4H3.5H4.5H6ZM10 5H9H7H6H5V12.3008C5 12.4941 5.07336 12.6749 5.1968 12.8045C5.31946 12.9333 5.48045 13.0008 5.64286 13.0008H10.3571C10.5195 13.0008 10.6805 12.9333 10.8032 12.8045C10.9266 12.6749 11 12.4941 11 12.3008V5H10ZM7.5 7.5V7H6.5V7.5V10.5V11H7.5V10.5V7.5ZM9.5 7V7.5V10.5V11H8.5V10.5V7.5V7H9.5Z" />
</svg>
