<svg viewBox="0 0 1723 2048" xml:space="preserve" xmlns="http://www.w3.org/2000/svg"><style>.st1{fill:#fff}</style><circle cx="860.81" cy="861.31" r="730.19" fill="#e6ff00"/><path d="M860.81 131.12c403.27 0 730.19 326.92 730.19 730.19s-326.92 730.19-730.19 730.19-730.19-326.92-730.19-730.19 326.92-730.19 730.19-730.19m0-131.12C385.88 0-.5 386.38-.5 861.31s386.38 861.31 861.31 861.31 861.31-386.38 861.31-861.31S1335.74 0 860.81 0z"/><circle cx="1097.3" cy="447.36" r="143.39"/><circle class="st1" cx="1139.8" cy="412.84" r="38.94"/><circle cx="511.96" cy="666.89" r="143.39"/><circle class="st1" cx="554.44" cy="632.37" r="38.94"/><path id="a" d="M1495.4 931.43c0 314.63-284.12 569.69-634.59 569.69s-634.59-255.06-634.59-569.69h1269.2z"/><path d="M752.23 1271.5c.003 179.9-.007 359.81.005 539.71.121 18.902 5.358 37.732 14.998 53.991 11.315 19.227 28.654 34.842 48.983 44.041 17.617 8.039 37.427 11.142 56.664 8.963 19.425-2.136 38.182-9.75 53.679-21.642 17.018-12.984 30.118-31.054 37.029-51.323 4.077-11.85 5.995-24.416 5.802-36.942v-538.8H752.23v2z" fill="red"/><path d="M623.11 1271.5v538.8c0 131.07 106.63 237.7 237.7 237.7s237.7-106.63 237.7-237.7v-538.8H967.39v538.79c0 58.62-47.96 106.58-106.58 106.58s-106.58-47.96-106.58-106.58V1271.5H623.11z"/></svg>