<svg xmlns="http://www.w3.org/2000/svg" viewBox="0 0 2048 1556" style="enable-background:new 0 0 2048 1556" xml:space="preserve"><path d="M655.4 572.1h1103.14V264.75c0-31.41 14.43-74.63 83.39-74.63 61.19 0 74.63 43.22 74.63 74.63V1424.4h-861.85c-64.59 0-51.12-36.42-51.12-119.65V686.31H655.4c-31.41 0-57.11-25.7-57.11-57.11s25.7-57.1 57.11-57.1z" style="fill:#e6ff00" transform="matrix(-1 0 0 1 2048 0)"/><path d="M206.07 190.12c68.96 0 83.39 43.22 83.39 74.63V572.1H1392.6c31.41 0 57.11 25.7 57.11 57.11s-25.7 57.11-57.11 57.11h-348.19v618.44c0 83.23 13.47 119.65-51.12 119.65H131.44V264.75c0-31.4 13.43-74.63 74.63-74.63m0-131.43C86.67 58.69 0 145.35 0 264.76v1291.08h993.29c56.65 0 102.21-17.33 135.42-51.5 51.02-52.51 49.13-118.5 47.75-166.68-.3-10.5-.61-21.36-.61-32.9v-487h216.75c103.96 0 188.54-84.58 188.54-188.54s-84.58-188.54-188.54-188.54H420.89V264.75c0-50.67-15.95-96.68-46.14-133.04-27.65-33.31-79.36-73.02-168.68-73.02z"/><path d="M1165.55 1177.88H556v131.44h609.55zM1165.55 931.63H556v131.44h609.55zM1165.55 685.37H556v131.44h609.55zM2048 533.08h-288.47v78.86H2048zM1902.645 148.742l-55.762-55.77-204.006 203.977 55.762 55.77zM1468.2 0h-78.86v288.47h78.86zM1902.655 1022.496 1698.678 818.52l-55.762 55.762 203.977 203.977zM1468.2 938.2h-78.86v288.47h78.86z"/></svg>