<svg width="62" height="60" xmlns="http://www.w3.org/2000/svg"><g fill-rule="nonzero" fill="none"><g transform="translate(0 1)"><path d="M61.3 34.8c0 13-11.9 23.5-30.3 23.5S.7 47.8.7 34.8 12.6 2.3 31 2.3s30.3 19.5 30.3 32.5Z" fill="#F7910B"/><path d="M61.3 34.8c0 13-11.9 19.5-30.3 19.5S.7 47.8.7 34.8 12.6.3 31 .3s30.3 21.5 30.3 34.5Z" fill="#F7910B"/><path d="M31 .3c18.4 0 30.3 21.5 30.3 34.5S49.4 54.3 31 54.3" fill="#F9A908"/><path d="M61.3 34.8c0 13-11.9 19.5-30.3 19.5S.7 47.8.7 34.8 12.6 2.3 31 2.3s30.3 19.5 30.3 32.5Z" fill="#F9A908"/><path d="M.7 34.8C.7 21.8 12.6 2.3 31 2.3" fill="#F9C55D"/><path d="M31 2.3c18.4 0 30.3 19.5 30.3 32.5S49.4 58.3 31 58.3" fill="#F7910B"/><path d="M31 2.3c18.4 0 30.3 19.5 30.3 32.5" fill="#EA7103"/><path d="M24.9 12.2c.3.8-1.2.9-2.9 1.6-1.7.6-2.9 1.6-3.2.8-.3-.8.8-2 2.5-2.6 1.6-.8 3.2-.6 3.6.2Z" fill="#19BCA4"/><path d="M24.9 12.2c.3.8-1.2.9-2.9 1.6-1.7.6-2.9 1.6-3.2.8" fill="#109DA0"/><path d="M37.1 12.2c-.3.8 1.2.9 2.9 1.6 1.7.6 2.9 1.6 3.2.8.3-.8-.8-2-2.5-2.6-1.6-.8-3.2-.6-3.6.2Z" fill="#19BCA4"/><path d="M37.1 12.2c-.3.8 1.2.9 2.9 1.6 1.7.6 2.9 1.6 3.2.8" fill="#109DA0"/><path d="M26.8 28.1c0 1.2-3.5.7-7.8.7s-7.8.6-7.8-.7c0-1.2 3.5-2.2 7.8-2.2s7.8.9 7.8 2.2Z" fill="#F9C55D"/><path d="M50.8 28.1c0 1.2-3.5.7-7.8.7s-7.8.6-7.8-.7c0-1.2 3.5-2.2 7.8-2.2s7.8.9 7.8 2.2Z" fill="#F9A908"/><circle fill="#F7910B" cx="9.3" cy="31.7" r="1"/><circle fill="#F7910B" cx="4.8" cy="33.7" r="1.1"/><circle fill="#F7910B" cx="7.8" cy="29.7" r="1"/><circle fill="#F7910B" cx="12.4" cy="31.5" r="1"/><circle fill="#F9A908" cx="51.6" cy="32.1" r="1"/><circle fill="#F9A908" cx="54.1" cy="33.5" r="1"/><circle fill="#F9A908" cx="48.8" cy="24.6" r="1"/><circle fill="#F9A908" cx="48.3" cy="36.3" r="1.3"/><circle fill="#F9A908" cx="55.5" cy="36.3" r="1"/><circle fill="#F7910B" cx="8.3" cy="35.8" r="1"/><circle fill="#F7910B" cx="9.1" cy="27.3" r="1"/><circle fill="#F9A908" cx="3.8" cy="13.6" r="1.1"/><circle fill="#F9A908" cx="7" cy="10" r="1"/><circle fill="#F9A908" cx="58.2" cy="16" r="1"/><circle fill="#F9A908" cx="57.4" cy="13" r="1"/><circle fill="#F9A908" cx="60" cy="13.6" r="1"/><circle fill="#F9A908" cx="5" cy="16.5" r="1"/><path d="M39.2 18.9c.4.1.8.3 1.1.7 1.1 1.6 3.4 2 5 .9.8-.5 1.8-.3 2.3.4.5.7.3 1.8-.4 2.3-3.1 2.2-7.4 1.4-9.6-1.8-.5-.7-.3-1.8.4-2.3.4-.2.8-.3 1.2-.2Z" fill="#1E4784"/><path d="M37.6 21.4c-.5-.7-.3-1.8.4-2.3.4-.3.8-.3 1.2-.3.4.1.8.3 1.1.7 1.1 1.6 3.4 2 5 .9.8-.5 1.8-.3 2.3.4.5.7.3 1.8-.4 2.3" fill="#02243E"/><path d="M22.9 18.9c-.4.1-.8.3-1.1.7-1.1 1.6-3.4 2-5 .9-.8-.5-1.8-.3-2.3.4-.5.7-.3 1.8.4 2.3 3.1 2.2 7.4 1.4 9.6-1.8.5-.7.3-1.8-.4-2.3-.3-.2-.7-.3-1.2-.2Z" fill="#1E4784"/><path d="M24.6 21.4c.5-.7.3-1.8-.4-2.3-.4-.3-.8-.3-1.2-.3-.4.1-.8.3-1.1.7-1.1 1.6-3.4 2-5 .9-.8-.5-1.8-.3-2.3.4-.5.7-.3 1.8.4 2.3" fill="#02243E"/></g><path fill="#9011BF" d="m48.2 13.6 6.6-9.5h-6V1.5h10v1.8l-6.4 9.3v.1h6.5v2.6H48.2z"/><path fill="#BD45F4" d="m40.1 8.7 3.4-4.8h-3V2.5h5.1v.9l-3.3 4.8h3.3v1.3h-5.5zM4.8 8.9l4.4-6.4h-4V.7H12V2L7.7 8.3v.1H12v1.7H4.8z"/><path fill="#9011BF" d="m10 17.9 2.6-3.8h-2.4v-1h4v.7l-2.6 3.7h2.6v1H10z"/><path d="M38.4 32.4c0 2.6-3.3 4.7-7.4 4.7-4.1 0-7.4-2.1-7.4-4.7" fill="#F7910B"/><path d="M38.7 31.1c0 2.3-3.4 3.2-7.6 3.2-4.2 0-7.6-.9-7.6-3.2 0-2.3 3.4-3.5 7.6-3.5 4.2 0 7.6 1.1 7.6 3.5Z" fill="#C42260"/><path d="M38.5 31.7c-.9-.1-1.9-.2-3-.2-1.6 0-3.2.2-4.5.4-1.3-.3-2.9-.4-4.5-.4-1 0-2 .1-3 .2.6 1.8 3.7 2.6 7.5 2.6s7-.8 7.5-2.6Z" fill="#E2446E"/><path d="M38.4 30c-.9-1.6-3.8-2.4-7.3-2.4s-6.4.8-7.3 2.4h14.6Z" fill="#99144A"/><path d="M33.3 34.2s3.3-2.7 4.9-2.2c0 0 1.4.3 1.3 2.8v10.5s.2 2.6-1.4 2.3c-1.7-.4-1.4-10.4-1.4-10.4s-1.3 1.6-1.4.2c-.1-2.4-2-3.2-2-3.2Z" fill="#5DD6E2"/><path d="M38.2 32s1.4.3 1.3 2.8v10.5s.2 2.6-1.4 2.3" fill="#0EB2CC"/></g></svg>