<svg width="62" height="60" xmlns="http://www.w3.org/2000/svg"><g fill-rule="nonzero" fill="none"><g transform="translate(0 2)"><path d="M61.3 34.5C61.3 47.4 49.4 58 31 58S.7 47.4.7 34.5 12.6 2 31 2s30.3 19.5 30.3 32.5Z" fill="#F7910B"/><path d="M61.3 34.5C61.3 47.4 49.4 54 31 54S.7 47.4.7 34.5 12.6 0 31 0s30.3 21.5 30.3 34.5Z" fill="#F7910B"/><path d="M31 0c18.4 0 30.3 21.5 30.3 34.5S49.4 54 31 54" fill="#F9A908"/><path d="M61.3 34.5C61.3 47.4 49.4 54 31 54S.7 47.4.7 34.5 12.6 2 31 2s30.3 19.5 30.3 32.5Z" fill="#F9A908"/><path d="M.7 34.5C.7 21.5 12.6 2 31 2" fill="#F9C55D"/><path d="M31 2c18.4 0 30.3 19.5 30.3 32.5S49.4 58 31 58" fill="#F7910B"/><path d="M31 2c18.4 0 30.3 19.5 30.3 32.5" fill="#EA7103"/><g transform="translate(17 21)"><ellipse fill="#EA7103" cx="3.6" cy="2.6" rx="3.2" ry="2"/><ellipse fill="#EA7103" cx="24.4" cy="2.6" rx="3.2" ry="2"/><ellipse fill="#1E4784" cx="3.6" cy="2" rx="3.2" ry="2"/><path d="M3.6.1c1.8 0 3.2.9 3.2 2s-1.4 2-3.2 2" fill="#00233F"/><ellipse fill="#1E4784" cx="24.4" cy="2" rx="3.2" ry="2"/><path d="M24.4.1c1.8 0 3.2.9 3.2 2s-1.4 2-3.2 2" fill="#00233F"/></g><g fill="#19BCA4"><path d="M24.2 15.5c-.3.8-1.5-.2-3.2-.9-1.7-.7-3.2-.9-2.8-1.7.3-.8 2-.9 3.6-.2 1.7.8 2.7 2 2.4 2.8ZM37.7 11.9c.4.8 1.5-.3 3.1-1.2 1.6-.9 3.1-1.2 2.7-1.9-.4-.8-2-.7-3.6.2-1.7.8-2.6 2.1-2.2 2.9Z"/></g><g fill="#109DA0"><path d="M24.2 15.5c-.3.8-1.5-.2-3.2-.9-1.7-.7-3.2-.9-2.8-1.7M37.7 11.9c.4.8 1.5-.3 3.1-1.2 1.6-.9 3.1-1.2 2.7-1.9"/></g><path d="M26.8 27.8c0 1.2-3.5.7-7.8.7s-7.8.6-7.8-.7c0-1.2 3.5-2.2 7.8-2.2s7.8 1 7.8 2.2Z" fill="#F9C55D"/><path d="M50.8 27.8c0 1.2-3.5.7-7.8.7s-7.8.6-7.8-.7c0-1.2 3.5-2.2 7.8-2.2s7.8 1 7.8 2.2Z" fill="#F9A908"/><circle fill="#F7910B" cx="9.3" cy="31.4" r="1"/><circle fill="#F7910B" cx="4.8" cy="33.4" r="1.1"/><circle fill="#F7910B" cx="7.8" cy="29.4" r="1"/><circle fill="#F7910B" cx="12.4" cy="31.2" r="1"/><circle fill="#F9A908" cx="51.6" cy="31.8" r="1"/><circle fill="#F9A908" cx="54.1" cy="33.2" r="1"/><circle fill="#F9A908" cx="48.8" cy="24.4" r="1"/><circle fill="#F9A908" cx="48.3" cy="36" r="1.3"/><circle fill="#F9A908" cx="55.5" cy="36.1" r="1"/><circle fill="#F7910B" cx="8.3" cy="35.5" r="1"/><circle fill="#F7910B" cx="9.1" cy="27.1" r="1"/><circle fill="#F9A908" cx="3.8" cy="13.3" r="1.1"/><circle fill="#F9A908" cx="7" cy="9.7" r="1"/><circle fill="#F9A908" cx="58.2" cy="15.7" r="1"/><circle fill="#F9A908" cx="57.4" cy="12.7" r="1"/><circle fill="#F9A908" cx="60" cy="13.3" r="1"/><circle fill="#F9A908" cx="5" cy="16.2" r="1"/></g><path fill="#F9C55D" d="m55.7 29.5-7.9 1.2-3.4 2.6-3.3-2.6-3.4 2.6-3.3-2.6-3.4 2.6-3.4-2.6-3.3 2.6-3.4-2.6-3.3 2.6-3.4-2.6-7.9-1.2 7.9 16.3 3.4-2.7 3.3 2.7 3.4-2.7 3.3 2.7 3.4-2.7 3.4 2.7 3.3-2.7 3.4 2.7 3.3-2.7 3.4 2.7z"/><path fill="#960E08" d="m55.7 29.5-7.9 2.6-3.4 2.6-3.3-2.6-3.4 2.6-3.3-2.6-3.4 2.6-3.4-2.6-3.3 2.6-3.4-2.6-3.3 2.6-3.4-2.6-7.9-2.6 7.9 14.9 3.4-2.6 3.3 2.6 3.4-2.6 3.3 2.6 3.4-2.6 3.4 2.6 3.3-2.6 3.4 2.6 3.3-2.6 3.4 2.6z"/><path fill="#490101" d="m14.2 36.9 3.4 2.6 3.3-2.6 3.4 2.6 3.3-2.6 3.4 2.6 3.4-2.6 3.3 2.6 3.4-2.6 3.3 2.6 3.4-2.6 4.8-1.6 3.1-5.8-7.9 2.6-3.4 2.6-3.3-2.6-3.4 2.6-3.3-2.6-3.4 2.6-3.4-2.6-3.3 2.6-3.4-2.6-3.3 2.6-3.4-2.6-7.9-2.6 3.1 5.8z"/><g fill="#F9C55D"><path d="M32 7c0 .6-.4 1-1 1s-1-.4-1-1 .4-1 1-1 1 .4 1 1ZM32 14c0 .6-.4 1-1 1s-1-.4-1-1 .4-1 1-1 1 .4 1 1ZM32 21c0 .6-.4 1-1 1s-1-.4-1-1 .4-1 1-1 1 .4 1 1ZM32 27.8c0 .6-.5 1-1 1-.6 0-1-.5-1-1 0-.6.5-1 1-1 .6 0 1 .5 1 1Z"/></g><path d="M36.1 3.3c0 1.8-2.3 1.2-5.1 1.2s-5.1.5-5.1-1.2S28.2 0 31 0s5.1 1.5 5.1 3.3Z" fill="#109DA0"/><path d="M36.1 3.3c0 1.8-2.3 1.2-5.1 1.2s-5.1.5-5.1-1.2" fill="#19BCA4"/></g></svg>