<svg width="64" height="62" xmlns="http://www.w3.org/2000/svg"><g fill-rule="nonzero" fill="none"><g transform="translate(1 3)"><path d="M61.3 35.4c0 13-11.9 23.5-30.3 23.5S.7 48.4.7 35.4 12.6 2.9 31 2.9s30.3 19.5 30.3 32.5Z" fill="#F7910B"/><path d="M61.3 35.4c0 13-11.9 19.5-30.3 19.5S.7 48.4.7 35.4 12.6.9 31 .9s30.3 21.5 30.3 34.5Z" fill="#F7910B"/><path d="M31 .9c18.4 0 30.3 21.5 30.3 34.5S49.4 54.9 31 54.9" fill="#F9A908"/><path d="M61.3 35.4c0 13-11.9 19.5-30.3 19.5S.7 48.4.7 35.4 12.6 2.9 31 2.9s30.3 19.5 30.3 32.5Z" fill="#F9A908"/><path d="M.7 35.4C.7 22.4 12.6 2.9 31 2.9" fill="#F9C55D"/><path d="M31 2.9c18.4 0 30.3 19.5 30.3 32.5S49.4 58.9 31 58.9" fill="#F7910B"/><path d="M31 2.9c18.4 0 30.3 19.5 30.3 32.5" fill="#EA7103"/><path d="M26.8 33.2c0 1.2-3.5.7-7.8.7s-7.8.6-7.8-.7c0-1.2 3.5-2.2 7.8-2.2s7.8 1 7.8 2.2Z" fill="#F9C55D"/><path d="M50.8 33.2c0 1.2-3.5.7-7.8.7s-7.8.6-7.8-.7c0-1.2 3.5-2.2 7.8-2.2s7.8 1 7.8 2.2Z" fill="#F9A908"/><circle fill="#F7910B" cx="9.3" cy="32.4" r="1"/><circle fill="#F7910B" cx="4.8" cy="34.4" r="1.1"/><circle fill="#F7910B" cx="7.8" cy="30.4" r="1"/><circle fill="#F7910B" cx="12.4" cy="32.2" r="1"/><circle fill="#F9A908" cx="51.6" cy="32.7" r="1"/><circle fill="#F9A908" cx="54.1" cy="34.1" r="1"/><circle fill="#F9A908" cx="48.8" cy="25.3" r="1"/><circle fill="#F9A908" cx="48.3" cy="36.9" r="1.3"/><circle fill="#F9A908" cx="55.5" cy="37" r="1"/><circle fill="#F7910B" cx="8.3" cy="36.4" r="1"/><circle fill="#F7910B" cx="9.1" cy="28" r="1"/><circle fill="#F9A908" cx="3.8" cy="14.2" r="1.1"/><circle fill="#F9A908" cx="7" cy="10.7" r="1"/><circle fill="#F9A908" cx="58.2" cy="16.6" r="1"/><circle fill="#F9A908" cx="57.4" cy="13.7" r="1"/><path d="M60.5 14.2c0 .3-.2.5-.5.5s-.5-.2-.5-.5.2-.5.5-.5c.2 0 .5.3.5.5Z" fill="#F9A908"/><circle fill="#F9A908" cx="5" cy="17.2" r="1"/></g><g transform="translate(9 28)"><circle fill="#FFF" cx="11.7" cy="11.7" r="9.3"/><path d="M11.7 22.7c-6.1 0-11-4.9-11-11s4.9-11 11-11 11 4.9 11 11-5 11-11 11Zm0-18.7C7.5 4 4 7.4 4 11.7c0 4.3 3.4 7.7 7.7 7.7 4.2 0 7.7-3.4 7.7-7.7 0-4.3-3.5-7.7-7.7-7.7Z" fill="#756A49"/></g><path d="M52.7 39.7c0 5.2-4.2 9.3-9.3 9.3-5.2 0-9.3-4.2-9.3-9.3 0-5.1 4.2-9.3 9.3-9.3 5.1 0 9.3 4.2 9.3 9.3Z" fill="#FFF"/><path d="M43.3 50.7c-6.1 0-11-4.9-11-11s4.9-11 11-11 11 4.9 11 11-4.9 11-11 11Zm0-18.7c-4.2 0-7.7 3.4-7.7 7.7 0 4.3 3.4 7.7 7.7 7.7 4.2 0 7.7-3.4 7.7-7.7 0-4.3-3.4-7.7-7.7-7.7Z" fill="#756A49"/><g transform="translate(17 35)"><circle fill="#CECDCC" cx="3.6" cy="5.2" r="3.5"/><circle fill="#CECDCC" cx="26.4" cy="5.2" r="3.5"/><circle fill="#1E4784" cx="3.6" cy="4.2" r="3.5"/><path d="M3.6.7c1.9 0 3.5 1.6 3.5 3.5S5.5 7.7 3.6 7.7" fill="#00233F"/><circle fill="#1E4784" cx="26.4" cy="4.2" r="3.5"/><path d="M26.4.7c1.9 0 3.5 1.6 3.5 3.5s-1.6 3.5-3.5 3.5" fill="#00233F"/></g><path d="M2 37.5h9" fill="#FFF"/><path d="M11 39H2c-.8 0-1.5-.7-1.5-1.5S1.2 36 2 36h9c.8 0 1.5.7 1.5 1.5S11.8 39 11 39Z" fill="#756A49"/><path d="M53 37.5h9" fill="#FFF"/><path d="M62 39h-9c-.8 0-1.5-.7-1.5-1.5S52.2 36 53 36h9c.8 0 1.5.7 1.5 1.5S62.8 39 62 39Z" fill="#756A49"/><g fill="#109DA0"><path d="M24 19.1c0 .6-1.5.2-3.2 0-1.8-.2-3.2 0-3.2-.6s.8-2.3 2.6-2.1c1.7.2 3.9 2.1 3.8 2.7ZM40 19.9c0 .6 1.5.2 3.2 0 1.8-.2 3.2 0 3.2-.6-.1-.6-.8-2.3-2.6-2.1-1.7.2-3.9 2.2-3.8 2.7Z"/></g><path d="M42.8 6.2s-1.4 12.3-23 14.4l.6-3s-6.8 3.4-6.9 8c0 0-2-13.4 1.3-19.2C19.2-1.2 27.5-1 38.3 2.2l4.5 4Z" fill="#641E82"/><path d="m38.3 2.2 4.5 3.9s-1.4 12.3-23 14.4l.6-3s-6.8 3.4-6.9 8c0 0-2-13.4 1.3-19.2" fill="#00233F"/><path d="M38.8 3.7s3.6 8.5 11.8 15.1c0 0 3.7-16.6-9.1-16.8l-4.8.1 2.1 1.6Z" fill="#00233F"/><path d="m41.5 2-4.8.1 2.1 1.6s3.6 8.5 11.8 15.1" fill="#641E82"/><path fill="#FCF492" d="M21.2 21.8 17.8 25h2.8l-3.7 4h7.6l3.8-4h-3.1l3.4-3.4zM12.5 47.1l-2.4 5.3 4.2-3.8z"/><path d="M39.4 53.6c0 2.6-3.3 8.1-7.4 8.1-4.1 0-7.4-5.5-7.4-8.1" fill="#F7910B"/><path d="M32 55.1c-3.5 0-6.5-.8-7.9-2.2-.4-.4-.4-1.1 0-1.6s1.1-.4 1.6 0c1 1 3.5 1.6 6.3 1.6s5.4-.6 6.3-1.6c.4-.4 1.1-.4 1.6 0 .4.4.4 1.1 0 1.6-1.4 1.4-4.4 2.2-7.9 2.2Z" fill="#02243E"/></g></svg>