<svg width="64" height="60" xmlns="http://www.w3.org/2000/svg"><g fill-rule="nonzero" fill="none"><g transform="translate(1)"><path d="M61 34.8c0 13-11.9 23.5-30.3 23.5S.4 47.8.4 34.8 12.2 2.3 30.7 2.3C49.1 2.3 61 21.8 61 34.8Z" fill="#F7910B"/><path d="M61 34.8c0 13-11.9 19.5-30.3 19.5S.4 47.8.4 34.8 12.2.3 30.7.3C49.1.3 61 21.8 61 34.8Z" fill="#F7910B"/><path d="M30.7.3C49.1.3 61 21.8 61 34.8S49.1 54.3 30.7 54.3" fill="#F9A908"/><path d="M61 34.8c0 13-11.9 19.5-30.3 19.5S.4 47.8.4 34.8 12.2 2.3 30.7 2.3C49.1 2.3 61 21.8 61 34.8Z" fill="#F9A908"/><path d="M.3 34.8c0-13 11.9-32.5 30.3-32.5" fill="#F9C55D"/><path d="M30.7 2.3C49.1 2.3 61 21.8 61 34.8S49.1 58.3 30.7 58.3" fill="#F7910B"/><path d="M30.7 2.3C49.1 2.3 61 21.8 61 34.8" fill="#EA7103"/><path d="M28.4 5.3c-1.8.1-3.2.8-3.2 1.7l6.5-.3c0-.8-1.5-1.5-3.3-1.4ZM47.7 5.3c-1.8-.1-3.3.6-3.3 1.4l6.5.3c.1-.9-1.4-1.6-3.2-1.7Z" fill="#19BCA4"/><path d="M28.5 7.3c1.8-.1 3.3.3 3.3-.6l-6.6.3c0 .9 1.5.4 3.3.3ZM47.6 7.3c1.8.1 3.3.6 3.3-.3l-6.5-.3c-.1.9 1.4.5 3.2.6Z" fill="#109DA0"/><path d="M26.1 18.9c-4.3 0-7.8 1-7.8 2.2 0 1.2 3.5.7 7.8.7s7.8.6 7.8-.7c0-1.3-3.5-2.2-7.8-2.2Z" fill="#F9C55D"/><path d="M50 18.9c-4.3 0-7.8 1-7.8 2.2 0 1.2 3.5.7 7.8.7s7.8.6 7.8-.7c0-1.3-3.4-2.2-7.8-2.2Z" fill="#F9A908"/><path d="M25.2 14.3c.4.1.8.3 1.1.6 1.2 1.6 3.5 1.9 5.1.6.7-.6 1.8-.4 2.3.3.6.7.4 1.8-.3 2.3-3 2.3-7.4 1.8-9.7-1.2-.6-.7-.4-1.8.3-2.3.4-.3.8-.4 1.2-.3Z" fill="#1E4784"/><path d="M23.7 16.9c-.6-.7-.4-1.8.3-2.3.4-.3.8-.4 1.2-.3.4.1.8.3 1.1.6 1.2 1.6 3.5 1.9 5.1.6.7-.6 1.8-.4 2.3.3.6.7.4 1.8-.3 2.3" fill="#02243E"/><path d="M50.9 14.3c-.4.1-.8.3-1.1.6-1.2 1.6-3.5 1.9-5.1.6-.7-.5-1.7-.4-2.3.3-.6.7-.4 1.8.3 2.3 3 2.3 7.4 1.8 9.7-1.2.6-.7.4-1.8-.3-2.3-.3-.3-.8-.4-1.2-.3Z" fill="#1E4784"/><path d="M52.4 16.9c.6-.7.4-1.8-.3-2.3-.4-.3-.8-.4-1.2-.3-.4.1-.8.3-1.1.6-1.2 1.6-3.5 1.9-5.1.6-.7-.5-1.7-.4-2.3.3-.6.7-.4 1.8.3 2.3" fill="#02243E"/><path d="M44.6 29.3c0 2.6-3.3 4.7-7.4 4.7-4.1 0-7.4-2.1-7.4-4.7" fill="#ED7E11"/><path d="M37.4 30.6c-3.2 0-6.4-.7-7.9-2.2-.4-.4-.4-1.1 0-1.6.4-.4 1.1-.4 1.6 0 2.1 2.1 10.6 2.1 12.7 0 .4-.4 1.1-.4 1.6 0 .4.4.4 1.1 0 1.6-1.6 1.4-4.8 2.2-8 2.2Z" fill="#02243E"/><circle fill="#F7910B" cx="9" cy="31.8" r="1"/><circle fill="#F7910B" cx="4.5" cy="33.8" r="1.1"/><circle fill="#F7910B" cx="7.5" cy="29.8" r="1"/><circle fill="#F7910B" cx="12" cy="31.6" r="1"/><circle fill="#F9A908" cx="57.2" cy="34.7" r="1"/><circle fill="#F9A908" cx="53.7" cy="33.5" r="1"/><circle fill="#F9A908" cx="57.9" cy="40.5" r="1"/><circle fill="#F9A908" cx="54.1" cy="44.3" r="1.3"/><circle fill="#F9A908" cx="55.1" cy="36.4" r="1"/><circle fill="#F7910B" cx="8" cy="35.8" r="1"/><circle fill="#F7910B" cx="8.7" cy="27.4" r="1"/><circle fill="#F9A908" cx="3.5" cy="13.6" r="1.1"/><circle fill="#F9A908" cx="6.7" cy="10.1" r="1"/><circle fill="#F9A908" cx="57.9" cy="16" r="1"/><circle fill="#F9A908" cx="57" cy="13.1" r="1"/><circle fill="#F9A908" cx="59.6" cy="13.6" r="1"/><circle fill="#F9A908" cx="4.7" cy="16.6" r="1"/></g><g fill="#1E4784"><g transform="translate(0 25)"><path d="M24.7 15.7c0 8.5-6.1 15.4-13.6 15.4C3.7 31 .6 24.2.6 15.7S3.7.3 11.2.3s13.5 6.9 13.5 15.4Z"/><ellipse cx="25.3" cy="15.7" rx="10.5" ry="11.9"/></g><g transform="translate(0 29)"><path d="M24.7 15.3c0 8.5-6.1 15.4-13.6 15.4S.5 23.8.5 15.3C.6 6.9 3.7 0 11.2 0c7.5 0 13.5 6.9 13.5 15.3Z"/><ellipse cx="25.3" cy="15.3" rx="10.5" ry="11.9"/></g></g><g transform="translate(0 27)"><g fill="#02243E"><path d="M24.7 15.5c0 8.5-6.1 15.4-13.6 15.4C3.7 30.9.6 24 .6 15.5S3.7.1 11.2.1 24.7 7 24.7 15.5Z"/><ellipse cx="25.3" cy="15.5" rx="10.5" ry="11.9"/></g><path d="M9.2 20c0 .7-.6 1.2-1.2 1.2-.7 0-1.2-.6-1.2-1.2v-9c0-.7.6-1.2 1.2-1.2.7 0 1.2.6 1.2 1.2v9Z" fill="#F9A908"/><circle fill="#EA7103" cx="21.7" cy="15.5" r="4"/></g><path d="M58.9 41.6c0 2 .4 3.6-1.6 3.6H33.5c-2 0-1.6-1.6-1.6-3.6s-.4-3.6 1.6-3.6h23.8c2 0 1.6 1.6 1.6 3.6Z" fill="#844414"/><path d="M58.9 42.5c0 2 .4 3.6-1.6 3.6H33.5c-2 0-1.6-1.6-1.6-3.6s-.4-3.6 1.6-3.6h23.8c2 0 1.6 1.6 1.6 3.6Z" fill="#683409"/><path d="M37 44.6c0 .1-.1.2-.2.2s-.2-.1-.2-.2v-4.1c0-.1.1-.2.2-.2s.2.1.2.2v4.1ZM41.5 44.6c0 .1-.1.2-.2.2s-.2-.1-.2-.2v-4.1c0-.1.1-.2.2-.2s.2.1.2.2v4.1ZM45.9 44.6c0 .1-.1.2-.2.2s-.2-.1-.2-.2v-4.1c0-.1.1-.2.2-.2s.2.1.2.2v4.1ZM50.4 44.6c0 .1-.1.2-.2.2s-.2-.1-.2-.2v-4.1c0-.1.1-.2.2-.2s.2.1.2.2v4.1ZM54.8 44.6c0 .1-.1.2-.2.2s-.2-.1-.2-.2v-4.1c0-.1.1-.2.2-.2s.2.1.2.2v4.1Z" fill="#844414"/><circle fill="#F9A908" cx="39" cy="42.5" r="1"/><circle fill="#F9A908" cx="47.6" cy="42.5" r="1"/><path d="M63.4 46c0 2.1-1.7 3.8-3.8 3.8-2.1 0-3.8-1.7-3.8-3.8v-7c0-2.1 1.7-3.8 3.8-3.8 2.1 0 3.8 1.7 3.8 3.8v7Z" fill="#02243E"/><g fill="#02243E"><g transform="translate(57 31)"><circle cx="1.2" cy="1.4" r="1.1"/><circle cx="1.2" cy="21.6" r="1.1"/></g><g transform="translate(60 31)"><circle cx="1.8" cy="1.4" r="1.1"/><circle cx="1.8" cy="21.6" r="1.1"/></g></g></g></svg>