<svg xmlns="http://www.w3.org/2000/svg" viewBox="0 0 1601 2048" style="enable-background:new 0 0 1601 2048" xml:space="preserve"><path d="M1276.4 710.14H393.15v-429.9c0-42.72-19.63-101.5-113.41-101.5-83.22 0-101.5 58.78-101.5 101.5V1869.25h1172.11c87.84 0 69.52-49.53 69.52-162.72V824.39c0-116.41-100.76-114.25-143.47-114.25z" style="fill:#e6ff00"/><path d="M279.75 178.75c93.78 0 113.41 58.78 113.41 101.5v429.9h888.05c45 0 138.66 2.02 138.66 114.25v882.14c0 113.19 18.32 162.72-69.52 162.72H178.24V280.24c.01-42.71 18.28-101.49 101.51-101.49m0-178.75C117.36 0-.5 117.86-.5 280.25V2048h1350.86c77.04 0 139.01-23.57 184.17-70.04 69.39-71.42 66.81-161.15 64.93-226.68-.41-14.28-.83-29.05-.83-44.75V824.39c0-116.55-55.11-210.97-151.21-259.06-67.81-33.94-136.76-33.94-166.2-33.94H571.91V280.25c0-68.91-21.7-131.48-62.74-180.93C471.56 54.01 401.23 0 279.75 0z"/><path d="M755.64 1534h828.99v178.75H755.64zM755.64 1199.09h828.99v178.75H755.64zM755.64 864.2h828.99v178.75H755.64z"/></svg>