<svg width="62" height="62" xmlns="http://www.w3.org/2000/svg"><g fill-rule="nonzero" fill="none"><g transform="translate(0 3)"><path d="M61.3 35.3c0 13-11.9 23.5-30.3 23.5S.7 48.3.7 35.3 12.6 2.8 31 2.8s30.3 19.5 30.3 32.5Z" fill="#F7910B"/><path d="M61.3 35.3c0 13-11.9 19.5-30.3 19.5S.7 48.3.7 35.3 12.6.8 31 .8s30.3 21.5 30.3 34.5Z" fill="#F7910B"/><path d="M31 .8c18.4 0 30.3 21.5 30.3 34.5S49.4 54.8 31 54.8" fill="#F9A908"/><path d="M61.3 35.3c0 13-11.9 19.5-30.3 19.5S.7 48.3.7 35.3 12.6 2.8 31 2.8s30.3 19.5 30.3 32.5Z" fill="#F9A908"/><path d="M.7 35.3C.7 22.3 12.6 2.8 31 2.8" fill="#F9C55D"/><path d="M31 2.8c18.4 0 30.3 19.5 30.3 32.5S49.4 58.8 31 58.8" fill="#F7910B"/><path d="M31 2.8c18.4 0 30.3 19.5 30.3 32.5" fill="#EA7103"/><path d="M26.8 28.6c0 1.2-3.5.7-7.8.7s-7.8.6-7.8-.7c0-1.2 3.5-2.2 7.8-2.2s7.8 1 7.8 2.2Z" fill="#F9C55D"/><path d="M50.8 28.6c0 1.2-3.5.7-7.8.7s-7.8.6-7.8-.7c0-1.2 3.5-2.2 7.8-2.2s7.8 1 7.8 2.2Z" fill="#F9A908"/><circle fill="#F7910B" cx="9.3" cy="32.3" r="1"/><circle fill="#F7910B" cx="4.8" cy="34.3" r="1.1"/><circle fill="#F7910B" cx="7.8" cy="30.3" r="1"/><circle fill="#F7910B" cx="12.4" cy="32.1" r="1"/><circle fill="#F9A908" cx="51.6" cy="32.7" r="1"/><circle fill="#F9A908" cx="54.1" cy="34" r="1"/><circle fill="#F9A908" cx="48.8" cy="25.2" r="1"/><circle fill="#F9A908" cx="48.3" cy="36.8" r="1.3"/><circle fill="#F9A908" cx="55.5" cy="36.9" r="1"/><circle fill="#F7910B" cx="8.3" cy="36.3" r="1"/><circle fill="#F7910B" cx="9.1" cy="27.9" r="1"/><circle fill="#F9A908" cx="3.8" cy="14.2" r="1.1"/><circle fill="#F9A908" cx="7" cy="10.6" r="1"/><circle fill="#F9A908" cx="58.2" cy="16.5" r="1"/><circle fill="#F9A908" cx="57.4" cy="13.6" r="1"/><circle fill="#F9A908" cx="60" cy="14.2" r="1"/><circle fill="#F9A908" cx="5" cy="17.1" r="1"/><path d="M40.5 45.8c0 2.6-4.2 4.7-9.5 4.7-5.2 0-9.5-2.1-9.5-4.7" fill="#F7910B"/><path d="M42.7 39.3c0 6.7-5.2 9.3-11.7 9.3-6.5 0-11.7-2.6-11.7-9.3 0-6.7 5.2-10.2 11.7-10.2 6.5.1 11.7 3.6 11.7 10.2Z" fill="#C42260"/><path d="M42.5 41.2c-1.4-.3-3-.5-4.6-.5-2.5 0-4.9.4-7 1.2-2.1-.7-4.4-1.2-7-1.2-1.6 0-3.1.2-4.6.5.9 5.3 5.7 7.4 11.5 7.4 6 0 10.8-2.1 11.7-7.4Z" fill="#E2446E"/><path d="M42.2 36c-1.2-4.1-5.9-7-11.2-7-5.4 0-10 3-11.2 7h22.4Z" fill="#99144A"/><path d="M23.5 27.3c-.4-.2-.7-.5-.9-.9-.7-1.9-2.8-2.8-4.7-2.1-.8.3-1.8-.1-2.1-1-.3-.8.1-1.8.9-2.1 3.6-1.4 7.6.4 8.9 4 .3.9-.1 1.8-1 2.1-.3.2-.8.2-1.1 0Z" fill="#1E4784"/><path d="M25.7 25.2c.3.9-.1 1.8-1 2.1-.4.2-.9.1-1.3 0-.4-.2-.7-.5-.9-.9-.7-1.9-2.8-2.8-4.7-2.1-.8.3-1.8-.1-2.1-1-.3-.8.1-1.8.9-2.1" fill="#02243E"/><path d="M38.5 27.3c.4-.2.7-.5.9-.9.7-1.9 2.8-2.8 4.7-2.1.8.3 1.8-.1 2.1-1 .3-.8-.1-1.8-.9-2.1-3.6-1.4-7.6.4-8.9 4-.3.9.1 1.8 1 2.1.3.2.8.2 1.1 0Z" fill="#1E4784"/><path d="M36.3 25.2c-.3.9.1 1.8 1 2.1.4.2.9.1 1.3 0 .4-.2.7-.5.9-.9.7-1.9 2.8-2.8 4.7-2.1.8.3 1.8-.1 2.1-1 .3-.8-.1-1.8-.9-2.1" fill="#02243E"/><g fill="#109DA0"><path d="M26.6 20.3c-1 1.7-2.6-.4-5.3-1.9-2.6-1.5-5.3-1.9-4.3-3.6 1-1.7 3.9-1.8 6.5-.3 2.7 1.6 4 4.2 3.1 5.8ZM35.4 20.3c1 1.7 2.6-.4 5.3-1.9 2.6-1.5 5.3-1.9 4.3-3.6-1-1.7-3.9-1.8-6.5-.3-2.7 1.6-4 4.2-3.1 5.8Z"/></g></g><path fill="#B20644" d="m56 10.8 4.5 4.1-6.1-.3.3 6.1-4.1-4.6-4 4.6.3-6.1-6.1.3 4.5-4.1-4.5-4.1 6.1.4-.3-6.1 4 4.5L54.7 1l-.3 6.1 6.1-.4z"/><path fill="#FF004F" d="m55.6 8.8 5.7 2.2-5.8 1.9 2.6 5.5-5.5-2.6-2.1 5.7-2-5.8-5.5 2.6 2.7-5.5-5.7-2.1 5.8-2-2.6-5.5 5.5 2.7L50.8.2l1.9 5.7 5.6-2.5z"/></g></svg>