<svg version="1.1" id="Ebene_1" xmlns="http://www.w3.org/2000/svg" x="0" y="0" viewBox="0 0 1937 2048" style="enable-background:new 0 0 1937 2048" xml:space="preserve"><style>.st0{fill:#fff}</style><path class="st0" d="m791.79 744.6 72.66-283.43c24.08-93.93 48.16-187.85 72.23-281.78 13.67-53.31 27.33-106.62 41-159.93-16.85 4.51-33.69 9.03-50.54 13.54a5596.351 5596.351 0 0 1 171.14 227.72c54.84 76.99 107.76 155.37 158.58 235.07 28.6 44.86 56.56 90.14 83.87 135.8 14.22-6.57 28.44-13.13 42.67-19.7-9.8-.71-19.59-1.41-29.39-2.12-12.31-.89-27.34 1.7-37.06 9.93-2.72 2.3-6.7 5.68-5.61 9.77 1.02 3.8 6.47 5.42 9.74 5.66 9.8.71 19.59 1.41 29.39 2.12 10.11.73 20.01-1.12 29.23-5.41 3.51-1.63 6.75-3.5 9.58-6.17 1.57-1.48 5.42-5.5 3.86-8.12A5666.074 5666.074 0 0 0 1239.55 375c-53-79.17-108.02-156.99-165-233.35-32.19-43.14-65.01-85.8-98.43-128-2.24-2.82-7.76-3-10.91-3.15-5.5-.27-11.21.39-16.51 1.91-4.42 1.27-8.76 2.89-12.83 5.03-3.27 1.73-9.24 5.64-10.3 9.75l-72.72 283.68c-24.08 93.93-48.16 187.85-72.23 281.78-13.64 53.23-27.29 106.45-40.93 159.68-2.7 10.52 16.23 9.45 21.9 8.52 6.82-1.13 13.9-2.99 19.9-6.51 3.74-2.19 9.14-5.22 10.3-9.74z"/><path class="st0" d="M755.57 755.19c-95.26 23.34-190.51 46.67-285.77 69.99s-190.53 46.61-285.8 69.9c-53.53 13.09-107.06 26.17-160.59 39.25-5.7 1.39-13.23 4.7-17.45 9.01-2.79 2.85-6.77 7.42-5.06 11.82 10.78 27.76 42.66 39.4 67.95 50.25 27.57 11.82 55.91 21.9 84.58 30.71 55.1 16.92 111.63 28.7 168.33 38.78 57.37 10.2 115.04 18.65 172.41 28.81 56.25 9.96 112.35 21.55 167.01 38.3 6.87 2.1 13.71 4.29 20.52 6.56 3.16 1.05 6.31 2.14 9.45 3.22 2.14.74-1.07-.38-1.22-.43.97.31 1.93.68 2.89 1.03 1.69.6 3.37 1.21 5.05 1.83a713.71 713.71 0 0 1 39.16 15.6c25.88 11.22 51.05 24.11 75.1 38.86 6.19 3.8 12.3 7.72 18.34 11.75 4.32 2.88 12.63 2.69 17.36 2.15 6.51-.74 14.34-3.08 19.82-6.8 8.17-5.55 14.63-14.53 4.34-21.4-47.9-31.98-100.39-55.58-154.82-74.03-53.72-18.21-109.17-30.82-164.86-41.29-56.7-10.66-113.78-19.12-170.66-28.75-56.66-9.59-113.22-20.31-168.66-35.58-13.54-3.73-27.01-7.73-40.38-12.05-3.46-1.12-6.91-2.26-10.36-3.42-1.48-.5-2.95-1-4.42-1.51-.98-.34-1.98-.64-2.94-1.02 1.47.57 2.56.91.44.15-6.6-2.35-13.18-4.76-19.72-7.28a711.185 711.185 0 0 1-39.5-16.56c-6.2-2.83-12.42-5.68-18.43-8.89-2.83-1.51-5.61-3.11-8.31-4.84-.53-.34-4.36-3.08-3.05-2.05 1.53 1.2-.36-.32-.54-.48-.91-.79-1.84-1.54-2.72-2.35-2.27-2.08-4.38-4.33-6.23-6.79-.84-1.13-1.65-2.29-2.36-3.51 1.35 2.31-.91-2.38-1.16-3-7.5 6.94-15 13.88-22.51 20.82 95.27-23.28 190.54-46.57 285.8-69.87s190.53-46.62 285.78-69.94l160.57-39.33c8.06-1.98 25.46-9.79 22.51-20.82-3-11.26-22.25-8.68-29.89-6.8z"/><path class="st0" d="M782.43 1209.09a8947.55 8947.55 0 0 1 55.63 321.6 8954.745 8954.745 0 0 1 43.85 323.42c7.08 60.46 13.53 121 19.37 181.59.37 3.85 7.21 5.76 9.87 6.13 5.33.74 10.66.23 15.9-.85 5.57-1.14 11.45-2.87 16.34-5.85 3.74-2.27 9.2-5.5 10.19-10.14 2.8-13.2 6.88-26.08 12.04-38.55 2.67-6.46 5.62-12.81 8.78-19.05 1.46-2.89 2.96-5.77 4.52-8.61-.86 1.57 1-1.75 1.26-2.21.94-1.65 1.89-3.3 2.85-4.93 13.89-23.68 30.08-45.89 46.02-68.21 32.71-45.78 61.09-93.78 85.19-144.65 23.66-49.95 43.65-101.52 63.08-153.23 19.47-51.83 38.39-103.91 59.9-154.94 10.74-25.49 22.13-50.71 34.54-75.43 12.35-24.6 24.36-46.2 39.52-70.08a714.95 714.95 0 0 1 11.27-17.19c6.58-9.75-5.71-13.52-13.64-13.32-6.95.17-14.11 1.49-20.5 4.24-5 2.15-11.09 4.86-14.23 9.52-31.35 46.46-57.14 96.49-79.69 147.72-22.41 50.9-41.75 103.08-61.21 155.16-19.45 52.06-39.02 104.13-61.9 154.81-5.74 12.72-11.69 25.35-17.89 37.85-3.04 6.12-6.14 12.21-9.3 18.27a898.37 898.37 0 0 1-6.94 13.02c.05-.1-1.24 2.26-.62 1.14.53-.96-1.23 2.23-1.42 2.57-13.43 24.17-28.15 47.55-44.02 70.19-31.78 45.32-67.75 90.11-84.61 143.67-2.03 6.46-3.73 13-5.13 19.62 17.43-3.57 34.86-7.14 52.3-10.71a8977.214 8977.214 0 0 0-37.23-324.25 8935.482 8935.482 0 0 0-49.04-322.67 9026.089 9026.089 0 0 0-32.57-179.69c-.76-3.97-6.81-5.6-9.87-6.13-6.08-1.05-13.6-.12-19.44 1.57-6.11 1.77-12.79 4.07-17.62 8.36-3.03 2.61-6.4 5.85-5.55 10.24z"/><path class="st0" d="M1260.15 1282.26c77.74 38.15 155.49 76.31 233.23 114.46 77.63 38.1 155.26 76.19 232.89 114.29 44.11 21.65 88.21 43.29 132.32 64.94 8.9 4.37 21.52.96 30.33-1.81 4.89-1.53 10.2-3.36 14.44-6.3 1.83-1.26 7.72-4.95 6.12-7.88-53.97-98.72-107.93-197.45-161.9-296.17-25.97-47.51-53.01-94.6-77.4-142.94-11.51-22.8-22.08-46.15-30.21-70.38-7.31-21.79-11.48-43.95-15.31-66.55-6.21-36.69-15.7-84.19-58.08-93.9-11.57-2.65-26.29 1.42-36.64 6.65-4.35 2.2-18.13 11.09-6.38 13.78 2.11.48 4.16 1.07 6.2 1.76 2.06.7-2.67-1.37.51.22.83.41 1.67.79 2.49 1.22 3.54 1.86 6.82 4.16 9.8 6.82 5.9 5.27 9.67 10.98 13.31 18.23 7.88 15.7 11.69 33.23 14.83 50.39 3.85 21.07 6.79 42.12 12.86 62.73 7.13 24.2 16.92 47.53 27.87 70.23 23.17 48.03 50.15 94.33 75.72 141.1 26.59 48.64 53.18 97.28 79.77 145.93 30.05 54.97 60.1 109.95 90.16 164.92 16.96-5.33 33.92-10.65 50.89-15.98-78.22-38.39-156.43-76.77-234.65-115.16-77.63-38.1-155.26-76.19-232.89-114.29-43.64-21.41-87.27-42.83-130.91-64.24-9.76-4.79-24.21-.77-33.77 2.89-5.05 1.93-10.78 4.07-14.65 7.98-1.63 1.65-4.35 5.4-.95 7.06z"/><path class="st0" d="M1377.6 635.57a1340.6 1340.6 0 0 1 23.18-16.33c3.77-2.6 7.57-5.17 11.36-7.74 2.4-1.62-1.85 1.23.56-.38.95-.64 1.91-1.27 2.86-1.9 2.15-1.42 4.3-2.84 6.46-4.26 15.81-10.36 31.85-20.37 48.1-30.02 16.25-9.66 32.71-18.97 49.36-27.91 8.07-4.34 16.19-8.59 24.35-12.76 2.04-1.04 4.08-2.08 6.13-3.11 1.02-.52 2.05-1.03 3.07-1.54 3.6-1.81.25-.14-.4.2 4.33-2.22 8.74-4.3 13.12-6.42 17.03-8.21 34.23-16.06 51.59-23.54 8.68-3.74 17.4-7.38 26.16-10.93 4.25-1.72 8.51-3.42 12.77-5.1.63-.25 3.43-1.35.16-.07-3.44 1.35.11-.04.97-.37a1313.694 1313.694 0 0 1 60.65-21.76c8.97-2.97 17.98-5.83 27.01-8.63 3.49-1.08-5.47 1.66-1.97.61l3.29-.99c2.19-.66 4.39-1.31 6.59-1.96 4.67-1.38 9.35-2.73 14.03-4.05 9.92-2.81 19.88-5.49 29.86-8.06 5.27-1.36 10.55-2.68 15.83-3.97 2.5-.61 5.01-1.22 7.52-1.81 2.09-.5 11.46-2.43 3.01-.73 20.78-4.19 41.41-8.96 62.3-12.7-7.01-.5-14.01-.99-21.02-1.49-17.8 88.49-71.47 164-120.5 237.75-25.36 38.16-50.28 76.77-70.3 118.06-21.91 45.2-38.32 92.87-51.21 141.37-14.67 55.22-24.92 111.5-33.88 167.89-.43 2.73 8.78 2.81 8.98 2.82 6.22.06 13.13-1.28 19.07-2.95 6.11-1.72 12.55-3.63 17.99-6.98 2.84-1.76 5.81-3.38 6.37-6.93 15.84-99.65 35.89-199.93 78.13-292.2 38.17-83.4 96.62-154.72 142.25-233.81 25.12-43.55 45.56-89.58 55.52-139.07.43-2.14-5.66-2.6-6.74-2.67-4.79-.32-9.56.33-14.27 1.18-79.97 14.32-158.82 35.65-235.08 63.65-75.58 27.76-148.86 61.8-218.51 102.21-38.45 22.31-75.76 46.6-111.82 72.58-2.14 1.54-3.81 4.16-1.22 6.02 2.87 2.06 10.25 1.23 13.15.89 12.06-1.45 25.16-4.88 35.17-12.09zM122.41 995.16c-8.04-4.4-16.09-8.81-24.13-13.21-9.47-5.19-24.46-.95-33.83 2.68-3.51 1.36-22.98 9.4-15.49 15.4 74.61 59.77 166.59 92.71 258.81 113.87 98.2 22.54 198.77 32.07 297.34 52.67 56.15 11.74 111.97 27.03 164.5 50.38 10.2 4.53 23.84 1.19 33.83-2.68 3-1.16 23.44-10.02 15.49-15.4-45.04-30.47-96.97-48.94-149.35-62.29-55.95-14.26-113.04-24.27-169.64-35.6-34.7-6.95-69.4-13.9-104.09-20.84-12.79 7.12-25.59 14.25-38.38 21.37 18.47.66 36.92 1.97 55.29 3.98 4.52.49 9.03 1.03 13.54 1.6.9.12 1.8.23 2.7.35.35.05 4.05.54 2.22.29-1.61-.22 1.34.19 1.32.19 1.5.21 3 .43 4.5.65a745.39 745.39 0 0 1 27.79 4.66 755.355 755.355 0 0 1 106.27 27.98c19.26 6.6 38.25 13.98 56.89 22.19 10.23 4.51 23.81 1.2 33.83-2.68 2.3-.89 23.97-11.09 15.49-15.4-98.97-50.27-211.98-57.23-320.57-67.37l-101.87-9.51c2.99 2.17 5.98 4.33 8.96 6.5.18-1.26.42-2.48.88-3.67.53-1.38 1.88-2.99.17-1.14-.02.02 1.37-1.31 1.38-1.44 0 0-3.15 2.27-1.63 1.27 2.26-1.49-4.51 2.18-4.71 2.26-2.2.88-2.7 1.09-1.5.63 2.07-.76.67-.32-4.19 1.31.77-.19-7.07 1.5-4.2.92.58-.12 1.2-.15 1.77-.3-6.26 1.64-4.85.48-2.86.43.73-.02 1.79.02 2.47-.12.05-.01-4.76-.21-2.56.09.81.11 1.65.06 2.47.11.61.04 1.22.08 1.83.13.75.07 3.87.93 1.29.11-2.21-.71-.58-.08.03.04 1.22.25 2.46.44 3.69.66l6.46 1.17c4.61.84 9.23 1.7 13.84 2.56a2864 2864 0 0 1 27.63 5.33 2762.36 2762.36 0 0 1 107.2 23.49 2763.948 2763.948 0 0 1 212.08 59.93c39.24 12.8 78.19 26.49 116.82 41.02l-4.73-3.35c.45 2.78.4 4.8-.66 7.43-.23.57-1.73 3.35-1.28 2.74.54-.62.32-.39-.67.71-2.55 2.26-1.15 1.45 4.21-2.43-3 1.64-9.29 4.54-10.68 8.33-1.21 3.32 1.45 5.15 4.4 5.87 5.35 1.31 11.4.72 16.71-.27 6.74-1.26 13.92-2.96 19.96-6.27 11.54-6.32 22.8-15.5 20.41-30.14-.95-1.93-2.52-3.05-4.73-3.35-72.88-27.41-146.89-51.78-221.81-72.96a2768.346 2768.346 0 0 0-227.18-53.99c-20.56-3.98-41.78-9.71-62.85-8.75-14.13.65-29.09 4.05-41.75 10.45-8.22 4.15-18.02 10.27-19.47 20.21-.81 5.58 4.39 6.07 8.96 6.5 57.34 5.35 114.72 10.39 172.01 16.15 13.49 1.36 26.97 2.81 40.42 4.45 2.93.36 5.85.72 8.77 1.1l5.26.69c-.45-.06 5.3.72 2.97.4-2.32-.32 3.42.48 2.97.42 1.75.25 3.5.5 5.24.76 3.49.52 6.98 1.05 10.47 1.6 26.01 4.12 51.88 9.33 77.27 16.35 28.12 7.78 55.52 17.82 81.55 31.04 16.44-6.03 32.88-12.05 49.32-18.08-70.63-31.13-145.08-51.48-221.7-60.79a760.417 760.417 0 0 0-64.32-5.02c-11.75-.42-24.36 2.85-34.59 8.55-4.25 2.37-14.42 10.69-3.8 12.82 61.04 12.22 122.09 24.45 183.13 36.67 52.47 10.51 105.31 21 155.6 39.72 27.27 10.15 53.68 23.25 77.98 39.69 16.44-6.03 32.88-12.05 49.32-18.08-95.33-42.37-198.33-59.73-300.7-75.71-95.75-14.94-192.46-29.68-283.43-64.47-48.47-18.54-95.53-43.92-136.51-76.75-16.44 6.03-32.88 12.05-49.32 18.08 8.04 4.4 16.09 8.81 24.13 13.21 9.47 5.19 24.46.95 33.83-2.68 2.48-.97 23.88-10.83 15.51-15.42z"/><path class="st0" d="M764.34 1190.13c8.49 67.1 12.48 134.78 11.6 202.36 17.49-3.37 34.97-6.75 52.46-10.12a883.484 883.484 0 0 0-30.4-191.69l-52.41 14.04a802.29 802.29 0 0 1 39.81 233.62l52.41-14.04a756.99 756.99 0 0 1-40.79-228.73l-52.41 14.04c14 54.13 23.62 109.35 28.63 165.04 2.44 27.1 3.89 54.85 4.04 81.71.16 27.87-.92 55.73-.73 83.6.19 28.4 1.37 56.87 6.55 84.86 4.77 25.79 13.19 50.68 22.04 75.31 8.8 24.48 18.08 48.86 24.6 74.08 6.16 23.82 8.84 48.06 10.19 72.58 1.46 26.47 1.76 53.06 5.37 79.36 3.72 27.04 11.68 52.65 26.44 75.76 2.12 3.32 7.87 4.22 11.31 4.65 5.49.69 11.35.27 16.67-1.29 8.56-2.51 19.99-7.38 22.55-16.9 27.18-100.79 20.67-207.38 4.97-309.49-15.53-101-40.67-200.23-56.27-301.21-8.63-55.87-14.4-113.01-13.49-168.93.08-4.73-1.08-7.53-5.49-9.92-4.8-2.61-12.15-2.87-17.36-2.14-6.85.96-14.04 2.88-19.82 6.8-3.69 2.51-9.52 6.55-9.83 11.47-7.27 113.74-5.49 227.95 2.01 341.63 7.49 113.6 20.7 226.75 36.15 339.52 3.83 27.97 6.55 56.52 12.91 84.07 5.41 23.43 15.36 47.61 34.91 62.69 9.65 7.45 24.19 5.92 34.82 1 5.05-2.34 11.18-5.47 13.96-10.54 1.78-3.24 3.47-8.5-.21-11.34-4.12-3.18-7.9-6.72-11.25-10.71-1.5-1.78-2.91-3.64-4.25-5.55a81.63 81.63 0 0 1-2.31-3.51c-.32-.52-2.31-4.04-.91-1.45-5.04-9.31-8.51-19.41-11.13-29.64-5.94-23.12-8.32-47.18-11.61-70.77-7.78-55.91-15.04-111.89-21.39-167.98-12.59-111.39-21.55-223.29-23.47-335.41-1.08-62.63.26-125.61 4.27-188.24l-52.5 6.21c-1.7 103.47 17.04 205.29 37.47 306.29 20.25 100.11 42.21 200.78 45.41 303.23 1.77 56.56-3.18 114.84-18.09 170.12 16.85-4.51 33.69-9.03 50.54-13.54-.86-1.35-1.69-2.71-2.53-4.07-2.68-4.31 1.16 2.37-1.2-2.09-1.23-2.32-2.41-4.65-3.52-7.02-2.42-5.19-4.53-10.51-6.36-15.93-3.69-10.9-6.23-22.17-8.05-33.52-3.76-23.45-4.52-47.25-5.59-70.93-1.09-24.04-2.44-48.16-7.3-71.79-5.12-24.92-13.53-48.99-22.16-72.86-8.84-24.48-18-48.93-24.25-74.24-6.6-26.74-9.25-54.19-10.06-81.67-.78-26.83.26-54.35.46-81.55.21-28.29-.53-56.58-2.52-84.79-4.39-62.43-14.56-124.4-30.23-184.98-1.15-4.44-6.36-6.75-10.29-7.7-6.03-1.46-13.75-.8-19.61.92-10.08 2.96-22.77 8.81-22.51 20.82a756.682 756.682 0 0 0 40.79 228.73c3.73 10.85 21.37 9.28 29.9 6.78 10.1-2.96 22.75-8.8 22.51-20.82a802.29 802.29 0 0 0-39.81-233.62c-3.57-10.89-21.48-9.25-29.9-6.78-6.15 1.8-12.88 4.34-17.45 9.01-3.01 3.08-6.34 7.13-5.06 11.81a883.484 883.484 0 0 1 30.4 191.69c.2 4.18 7.28 7.08 10.29 7.7 5.35 1.1 10.73.8 16.06-.24 5.58-1.08 11.52-2.89 16.27-6.11 3.55-2.41 9.77-6.65 9.83-11.47.92-70.25-2.87-140.5-11.69-210.2-.55-4.34-6.94-6.89-10.29-7.7-6.03-1.46-13.75-.8-19.61.92-9.06 2.65-23.98 9.03-22.49 20.8zM1292.17 1300.3c30.81 79.83 118.54 109.84 192.83 134.03 41.04 13.37 81.19 28.52 120.05 47.39a840.959 840.959 0 0 1 112.46 65.82c38.89 27.01 75.33 58.66 121.73 72 4.19 1.21 9.18.37 13.37-.22 5.8-.81 11.68-2.13 17.17-4.19 3.78-1.42 7.56-3 11.03-5.07 1.61-.96 7.12-4.47 6.22-7.48-10.67-35.87-46.02-54.69-78.51-67.37-19.35-7.56-39.18-13.81-58.54-21.36-22.34-8.71-44.31-18.37-65.86-28.9-42.48-20.76-82.91-45.08-122.07-71.52-36.23-24.46-71.85-50.01-109.99-71.49-43.44-24.46-89.85-42.28-139.77-46.81-9.39-.85-20.59 2.66-29.05 6.08-1.76.71-17.14 7.25-14.23 11.33 25.86 36.24 66.24 55.9 107.01 70.79 45.38 16.57 91.84 29.93 137.73 44.99 44.58 14.63 88.79 31 130.18 53.29 40.09 21.59 74.77 49.97 109.83 78.7 38.37 31.45 78.42 61.57 126.94 75.05 4.78 1.33 11.97.23 16.61-.67 5.81-1.13 11.47-2.74 16.96-4.96 4.27-1.73 18.06-7.07 12.75-13.12-23.76-27.03-47.53-54.06-71.29-81.09-2.12-2.41-11.07-1.55-13.27-1.36-6.75.58-14.06 2.26-20.4 4.64-4.4 1.65-21.66 7.65-15.77 14.34 23.76 27.03 47.53 54.06 71.29 81.09 15.44-6.25 30.87-12.5 46.31-18.74-40.61-11.29-76.69-37.31-109.7-63.88-34.49-27.76-67.71-56.93-106.08-79.37-82.59-48.28-176.92-70.28-266.69-100.96-43.21-14.76-91.98-33.54-119.99-72.8-14.43 5.8-28.85 11.61-43.28 17.41 5.31.48-3.36-.46 1.92.19 1.07.13 2.13.25 3.2.39 2.65.34 5.3.72 7.94 1.14 5.25.84 10.48 1.85 15.67 3.01 10.33 2.31 20.52 5.23 30.54 8.66 18.57 6.36 37.57 15.31 55.28 24.81 38.05 20.41 73.44 45.31 109.07 69.58 37.97 25.86 76.73 50.27 117.65 71.24 21.34 10.94 43.12 21.03 65.29 30.18 20.61 8.51 41.63 15.77 62.6 23.29-1.68-.6 1.04.38 1.41.51 1.52.55 3.03 1.11 4.55 1.68 2.17.81 4.33 1.64 6.49 2.49 4.74 1.86 9.45 3.81 14.1 5.9 9.08 4.08 17.97 8.67 26.28 14.17 16.14 10.69 28.91 24.64 34.51 43.47 15.93-5.65 31.86-11.3 47.79-16.96-39.15-11.26-71.51-38.28-104.01-61.65a842.54 842.54 0 0 0-109.71-66.85c-38.87-19.79-79.23-36.31-120.58-50.15-40.81-13.66-82.7-25.46-120.44-46.67-35.88-20.16-67.99-48.98-83.09-88.09-1.19-3.09-6.71-3.28-9.13-3.37-6.2-.24-13.22 1.05-19.13 2.72-6.11 1.72-12.59 3.69-17.93 7.21-2.01 1.34-7.44 4.43-6.25 7.51zM714.77 795.86c43.43-31.72 71.61-76.73 89.58-126.8 18.55-51.7 24.43-106.45 31.14-160.64 3.66-29.59 7.62-59.19 14.12-88.31 6.28-28.12 15.63-55.18 26.13-81.97 2.11-5.39-1.24 3.08.91-2.3.65-1.64 1.31-3.28 1.97-4.92 1.1-2.73 2.19-5.46 3.29-8.19 3.21-7.96 6.41-15.92 9.57-23.9 5.17-13.07 10.19-26.21 14.64-39.54 9.02-26.98 14.34-54.11 17.3-82.36 1.66-15.79 3.4-31.74 8.26-46.93.54-1.68 1.11-3.34 1.72-4.99-1.02 2.73 1.06-2.44 1.32-3.01 1.56-3.42 3.28-6.76 5.09-10.05 3.91-7.11 8.24-13.98 12.29-21 14.73-25.49 26.28-59.18 5.84-85.13-5.82-7.39-20.37-6.45-28.19-4.14-9.52 2.81-18.92 7.85-22.34 17.68C872.05 121 836.84 222.71 801.79 324.47a105006.12 105006.12 0 0 0-104.35 304.51c-19.53 57.28-39.01 114.58-58.43 171.9-1.19 3.5 1.38 7.32 3.91 9.32 3.51 2.77 8.17 4.07 12.63 4.24 10.88.4 23.25-2.98 31.13-10.83 37.94-37.84 71.06-80.81 97.75-127.28a586.346 586.346 0 0 0 34.19-69.87c9.15-22.37 19.24-45.77 21.39-70.1 2.13-24.11-3.27-50.34-26.91-62.02-8.7-4.29-19.15-3.21-28.01-.1-7.2 2.53-17.52 7.96-18.93 16.48-5.67 34.2-13.82 67.96-24.48 100.95-2.71 8.38-5.58 16.72-8.6 24.99-1.41 3.86-2.86 7.71-4.34 11.55-.42 1.1-.85 2.19-1.28 3.29-.01.03-1.07 2.72-.45 1.15.7-1.76-.65 1.61-.79 1.96-.55 1.36-1.1 2.72-1.66 4.08A701.24 701.24 0 0 1 703 685.98a705.106 705.106 0 0 1-28.68 51.58l49.27 2.88c22.05-51.83 44.09-103.66 66.14-155.49l-50.96 1.38c-2.15 9.59-4.72 19.08-7.78 28.43-1.53 4.67-3.17 9.3-4.92 13.9-.11.28-1.31 3.35-.73 1.91.58-1.44-.67 1.61-.78 1.89-1 2.4-2.02 4.79-3.08 7.17-8 17.97-17.78 35.1-29.07 51.21l50.96-1.38c7.84-28.55 15.67-57.1 23.51-85.65l-52.65 5.64c-9.15 39.9-18.29 79.8-27.44 119.7-2.74 11.96 15.32 14.41 23.2 13.38 10.72-1.4 26.66-6.83 29.45-19.02 9.15-39.9 18.29-79.8 27.44-119.7 2.74-11.96-15.32-14.41-23.2-13.38-11.18 1.46-26.11 6.83-29.45 19.02-7.84 28.55-15.67 57.1-23.51 85.65-1.17 4.26 2.15 8.9 5.71 10.75 4.4 2.29 9.27 2.86 14.16 2.72 11.7-.31 24.18-4.99 31.09-14.85 23.75-33.89 40.69-72.65 49.75-113.02 2.43-10.84-12.55-13.67-19.87-13.47-5.81.16-11.99 1.3-17.26 3.82-4.88 2.34-11.6 5.78-13.83 11.03-22.05 51.83-44.09 103.66-66.14 155.49-1.82 4.28-2.86 8.17.43 12.16 3.15 3.83 9.8 5.49 14.42 5.66 12.03.44 27.7-3.95 34.42-14.94 37.24-60.87 65.34-127.57 82.96-196.72 4.93-19.36 9-38.92 12.27-58.63-15.65 5.46-31.3 10.92-46.94 16.38.51.25 6.27 3.33 6.07 3.66-.11.18-3.15-2.84-.17.12.53.52 1.04 1.07 1.53 1.63 1.49 1.7 2.56 3.62 3.9 5.41-1.98-2.65-.87-1.8-.41-.73.6 1.4 1.23 2.77 1.75 4.21 1.47 4.1 2.36 8.4 2.86 12.73.14 1.18.4 7.18.35 3.26.03 2.99-.05 5.98-.28 8.96-.72 9.45-2.66 18.82-5.42 27.88-1.65 5.41-3.56 10.74-5.47 16.06-1.12 3.12-2.27 6.22-3.44 9.32-.39 1.03-.79 2.06-1.18 3.09l-1.2 3.09c.68-1.69.63-1.57-.15.36-18.91 46.59-43.53 90.72-73.56 131.06-3.96 5.31-8 10.56-12.13 15.74 3.09-3.87-.4.47-.87 1.05a572.417 572.417 0 0 1-10.66 12.68 590.12 590.12 0 0 1-29.37 31.48l47.67 2.73a102692.787 102692.787 0 0 1 208.9-609.99c19.79-57.19 39.62-114.37 59.51-171.53-16.85 4.51-33.69 9.03-50.54 13.54.91 1.15 1.71 2.35 2.57 3.54 2.43 3.38-.68-2.53.7 1.37.96 2.73 1.99 5.33 2.58 8.19.5 2.38.77 4.78.93 7.2-.23-3.49-.08 1.31-.1 1.7-.09 1.99-.28 3.98-.56 5.95-.76 5.5-2.24 10.8-4.09 16.02 1.43-4.05-.49 1.05-.67 1.46-.71 1.58-1.46 3.14-2.24 4.7-1.68 3.36-3.5 6.66-5.38 9.92-6.78 11.79-14.29 23.18-19.55 35.78-5.86 14.05-9.18 28.51-11.14 43.58-1.76 13.52-2.72 27.13-4.73 40.62-2.06 13.85-5.25 27.51-9.15 40.95-3.75 12.9-8.17 25.6-12.89 38.18-1.24 3.29-2.49 6.58-3.77 9.86l-1.92 4.92c.17-.42-1.96 4.95-1.1 2.79.86-2.16-1.28 3.21-1.11 2.78-.66 1.64-1.31 3.27-1.97 4.91l-4.62 11.46c-10.71 26.59-21.41 53.26-28.99 80.94-7.72 28.15-12.49 57.01-16.4 85.91-7.36 54.48-11.56 109.79-27.09 162.76-1.88 6.4-3.91 12.76-6.11 19.05-1.18 3.38-2.41 6.75-3.7 10.1-.18.47-2.1 5.2-.56 1.45-.58 1.42-1.16 2.83-1.75 4.24-5.3 12.6-11.41 24.87-18.47 36.57-3.36 5.58-6.94 11.02-10.75 16.3-.88 1.21-1.76 2.42-2.66 3.62-.64.85-4.71 6.27-1.3 1.79-1.8 2.37-3.81 4.62-5.78 6.85-4.28 4.86-8.8 9.52-13.54 13.93-2.57 2.39-5.23 4.65-7.89 6.94-4.04 3.48 4.24-3.18-.02.03-1.61 1.22-3.22 2.44-4.85 3.64-3.9 2.85-8.8 6.92-9.66 12.11-.74 4.45 1.78 8.7 5.71 10.75 10.77 5.62 27.57 2.75 37.21-4.29zM1553.83 904.85c.56 14.6 1.13 29.19 1.69 43.79l52.75-9.03-9.51-20.25c-2.51-5.35-5.29-8.5-11.07-10.6-5.94-2.16-13.95-2.08-19.93-.28-11.36 3.42-23.29 11.68-21.41 24.92 3.28 23.07 21.11 41.6 42.44 49.49 10.01 3.7 24.22 1.03 32.51-5.71 7.24-5.89 12.17-14.64 6.63-23.44-2.46-3.91-4.91-7.82-7.23-11.81-1.16-2-2.26-4.04-3.37-6.07-.34-.61-1.64-3.33-.12-.12-.61-1.29-1.2-2.6-1.77-3.92-1.67-3.91-3.09-7.95-4.09-12.09-.53-2.21-.89-4.43-1.24-6.68-.56-3.66-.08-.85-.07-.03-.02-1.35-.04-2.69.01-4.05.16-4.34 1.14-8.38 1.85-12.63.48-2.86-1.14 3.12-.16.37.36-1.01.68-2.03 1.06-3.04.85-2.28 1.8-4.52 2.82-6.72 1.86-3.98 4-7.83 6.3-11.58.44-.71.9-1.4 1.33-2.12 1.61-2.69-2.18 3.1-.37.53 1.45-2.06 2.87-4.13 4.35-6.16 11.92-16.29 24.98-31.8 37.55-47.59 13.19-16.57 26.38-33.14 39.58-49.71 15.02-18.87 30.04-37.73 45.05-56.6-15.66-3.56-31.31-7.11-46.97-10.67-44.47 69.86-88.94 139.73-133.41 209.59 16.7 1.98 33.4 3.96 50.1 5.95 11.95-24.79 25.05-49.02 39.33-72.55 3.45-5.69 6.97-11.34 10.55-16.94 1.79-2.8 3.61-5.59 5.42-8.38 2.8-4.31-1.74 2.58.88-1.33 1.01-1.51 2.02-3.01 3.04-4.52 7.8-11.52 15.9-22.83 24.25-33.96-15.66-3.56-31.31-7.11-46.97-10.67a1229.74 1229.74 0 0 0-91.86 183.06l51.25-4.05c-.39-2.55-.73-5.11-.98-7.67-.1-1-.24-2.05-.26-3.05.07 4.17.09 1.33.08.45-.05-5.02-.1-10 .28-15.02.69-9.16 2.33-18.24 4.73-27.11.18-.66 1-3.81.28-1.1-.84 3.14.51-1.59.58-1.8.62-1.91 1.27-3.8 1.96-5.69 1.73-4.76 3.65-9.44 5.74-14.05 3.95-8.71 8.48-17.15 13.4-25.34a336.884 336.884 0 0 1 5.42-8.71c.16-.24 3.09-4.57 1.05-1.62-2.04 2.96.95-1.37 1.11-1.6.6-.88 1.21-1.76 1.82-2.63 1.53-2.19 3.08-4.37 4.64-6.53 6.01-8.28 12.29-16.35 18.75-24.28 12.48-15.35 25.6-30.16 38.6-45.06 57.81-66.24 109.45-137.89 154.47-213.41 25.18-42.24 48.15-85.77 68.87-130.37 5.33-11.48-4.9-20.96-15.96-21.97-13.15-1.2-27.48 4.12-34.13 16.03-38.55 69.06-77.09 138.12-115.64 207.19-18.74 33.57-37.36 67.22-56.23 100.71-7.55 13.41-15.26 26.73-23.44 39.77-2.05 3.27-4.13 6.51-6.24 9.74-2.16 3.33 2.4-3.56-.71 1.05a525.09 525.09 0 0 1-3.91 5.71c-4.36 6.27-8.89 12.44-13.6 18.45-5.29 6.74-10.83 13.28-16.67 19.56-2.72 2.93-5.51 5.79-8.37 8.59-.71.7-1.44 1.38-2.15 2.08-3.09 3.04 2.97-2.65.74-.66-1.48 1.33-2.95 2.66-4.45 3.96-6.37 5.52-13.06 10.67-20.07 15.35-1.85 1.24-3.83 2.34-5.64 3.62-.22.16 5.05-2.95 2.58-1.56-1.09.61-2.16 1.26-3.24 1.87-3.95 2.21-7.98 4.25-12.08 6.17 11.17 7.7 22.34 15.39 33.51 23.09 38.47-47.28 76.95-94.56 115.42-141.85 7.41-9.11 5.03-21.56-6.78-25.32-12.8-4.07-28 .02-37.06 9.93-45.89 50.17-93.01 99.22-141.34 147.05a4155.41 4155.41 0 0 1-41.42 40.42c-8.72 8.39-4.02 21.88 6.78 25.32 13.46 4.28 27.23-.47 37.06-9.93 48.99-47.15 96.82-95.5 143.41-145.03 13.22-14.05 26.33-28.2 39.35-42.43-14.61-5.13-29.23-10.26-43.84-15.39-38.47 47.28-76.95 94.56-115.42 141.85-5.63 6.92-6.75 17.42 1.72 22.79 9.42 5.98 22.04 4.86 31.8.3 62.22-29.12 102.39-86.14 135.81-143.88 38.92-67.26 75.94-135.69 113.81-203.55 22.14-39.67 44.28-79.34 66.42-119-16.7-1.98-33.4-3.96-50.1-5.95-18.5 39.81-38.79 78.79-60.85 116.75a1437.42 1437.42 0 0 1-34.86 56.89c-2.86 4.43-5.71 8.86-8.64 13.23.42-.63 2.49-3.73.21-.33-.65.97-1.3 1.95-1.95 2.92a1407.898 1407.898 0 0 1-23.96 34.67 1433.161 1433.161 0 0 1-81.85 104.23c-27.3 31.63-55.18 62.55-77.83 97.81-12.04 18.74-21.77 38.55-28.18 59.91-6.74 22.47-8.48 45.27-4.94 68.51 1.48 9.75 16.04 12.93 23.86 12.11 10-1.05 23.3-5.97 27.39-16.16a1229.74 1229.74 0 0 1 91.86-183.06c6.13-10.02-4-19.25-12.94-21.29-11.19-2.55-26.8.98-34.03 10.62-34.52 46.02-64.74 95.28-89.72 147.11-5.51 11.43 5.03 20.98 15.96 21.97 13.8 1.26 26.71-4.37 34.13-16.03 44.47-69.86 88.94-139.73 133.41-209.59 2.5-3.93 1.88-10.97-1.05-14.5-3.1-3.73-7.23-5.72-11.88-6.78-11.44-2.6-26.46 1.11-34.03 10.62l-82.8 104.01c-13.18 16.55-26.88 32.81-39.37 49.89-12.43 16.98-24.21 36.07-26.22 57.54-2.34 24.98 9.93 46.61 22.76 67 13.04-9.72 26.09-19.44 39.13-29.15-.89-.33-1.76-.69-2.65-1.03-3.33-1.28 1.33.51 1.24.68-.09.16-4.81-3-5.38-3.42-.76-.56-1.51-1.14-2.24-1.74-.51-.42-2.57-2.65-.75-.59 1.89 2.14-.22-.33-.59-.75-.79-.88-1.56-1.78-2.29-2.71a49.685 49.685 0 0 1-3.24-4.66c-.12-.2-1.35-2.48-1.41-2.46.25-.07 1.56 3.68.36.67-1.59-4.01-2.75-8-3.36-12.27l-52.41 14.04 9.51 20.25c2.42 5.15 5.34 8.78 11.07 10.6 5.38 1.71 10.83 1.84 16.37.89 5.61-.96 11.65-2.95 16.14-6.6 3.94-3.2 9.39-8.37 9.18-13.93-.56-14.6-1.13-29.19-1.69-43.79-.22-5.62-1.5-9.67-6.34-13.09-4.76-3.36-12.21-4.62-17.86-4.03-6.9.72-14.24 2.76-19.71 7.22-3.97 3.21-9.43 8.38-9.21 13.93z"/><path class="st0" d="M1665.56 768.47c-16.42 26.86-31.71 54.41-45.75 82.6-7.09 14.23-13.86 28.61-20.31 43.14-6.37 14.35-13.19 28.87-17.96 43.85-5.31 16.67-7.01 33.42-.89 50.19 5.29 14.49 13.91 27.4 22.37 40.17 16.98 25.64 33.43 51.63 49.34 77.95a2242.026 2242.026 0 0 1 88.45 160.87c1.58 3.18 3.16 6.36 4.72 9.54.78 1.59 1.56 3.19 2.34 4.78.39.8.78 1.59 1.17 2.39-.87-1.78-.63-1.29.09.2 3.35 6.92 6.67 13.85 9.95 20.81 6.56 13.91 12.98 27.88 19.26 41.92 12.43 27.8 24.3 55.86 35.59 84.15a2240.432 2240.432 0 0 1 61.02 173.14c2.26 7.35 4.47 14.71 6.65 22.08 3.65 12.34 20.52 14.37 31.08 11.19 9.96-3 25.12-12.41 21.32-25.23-17.21-58.13-36.74-115.56-58.59-172.11a2253.234 2253.234 0 0 0-72.72-167.6c-26.86-55.59-55.75-110.17-86.98-163.43a2219.278 2219.278 0 0 0-47.33-77.11c-8.19-12.76-16.73-25.29-24.89-38.07-1.8-2.83-3.57-5.68-5.23-8.59-.83-1.45-1.62-2.92-2.41-4.39-.15-.28-1.39-2.77-.37-.67 1.03 2.13-.46-1.07-.62-1.45-1.41-3.25-2.64-6.58-3.57-9.99-.43-1.56-.8-3.15-1.1-4.74-.15-.8-.28-1.6-.39-2.4-.06-.44-.33-3.89-.23-1.51.11 2.37.03-.4.05-.73.03-.89.03-1.79.08-2.68.09-1.78.28-3.55.55-5.31.31-2.06.77-4.08 1.21-6.12.06-.26.83-3.13.21-.93-.61 2.19.47-1.39.6-1.76 2.41-7.16 5.4-14.13 8.32-21.09a1079.305 1079.305 0 0 1 75.15-146.79c2.61-4.26 1.68-10.88-1.12-14.74-3.21-4.42-9.71-7.15-14.96-7.66-13.76-1.34-26.88 4.32-34.1 16.13zM907.49 1963.62l-2.58 26.47c-.89 9.16 8.72 12.86 16.41 13.08 10.66.31 23.5-2.89 31.15-10.77 68.85-70.85 104-163.94 136.59-255.31 8.09-22.69 16.1-45.41 24.57-67.95 4.25-11.32 8.63-22.6 13.19-33.81-.07.18 1.88-4.59.93-2.28-1.01 2.46 1.29-3.08 1.07-2.57 1.46-3.49 2.94-6.96 4.44-10.43 2.87-6.65 5.81-13.27 8.82-19.86 23.88-52.39 51.53-102.94 78.79-153.61 31.71-58.94 63.41-117.89 95.12-176.83 9.34-17.36-18.36-18.67-28.45-15.67-26.47 7.87-50.62 22.23-69.02 42.98-16.53 18.64-28.86 39.99-38.9 62.7-10.12 22.89-18.35 46.5-26.61 70.11-4.79 13.69-9.86 27.29-15.24 40.76-1.34 3.36-2.7 6.71-4.08 10.05 1.03-2.49-.53 1.26-.84 2-.75 1.8-1.51 3.59-2.27 5.38-2.94 6.91-5.94 13.8-9.01 20.65-23.92 53.52-51.46 105.32-79.24 156.92-27.88 51.79-56.09 103.45-81.27 156.63-25.35 53.55-47.84 108.77-63.35 166.03-1.89 6.97-3.66 13.97-5.34 20.99-2.83 11.83 15.47 13.88 23.06 12.86 10.56-1.42 26.65-6.69 29.53-18.72 6.64-27.74 14.94-55.05 24.57-81.89 4.85-13.53 10.09-26.9 15.48-40.22.75-1.86-.01.01-.14.32.32-.77.64-1.53.96-2.3.75-1.79 1.49-3.57 2.25-5.35 1.4-3.31 2.82-6.62 4.25-9.92 2.87-6.6 5.8-13.18 8.78-19.73 23.88-52.49 51.1-103.35 78.44-154.09 27.42-50.88 55.03-101.71 79.67-154.02 12.61-26.77 24.41-53.93 35.1-81.53 9.1-23.5 16.8-47.51 25.75-71.07 1.06-2.8 2.14-5.59 3.25-8.38.51-1.28 1.02-2.57 1.54-3.85l.78-1.92c.96-2.36-1.14 2.67-.13.33 2.36-5.46 4.7-10.92 7.25-16.3 4.97-10.49 10.47-20.74 16.83-30.46 3.09-4.72 6.6-9.07 9.85-13.66 1.24-1.75-1.26 1.53-1.29 1.54.41-.19.93-1.11 1.23-1.46.83-.96 1.66-1.92 2.51-2.86 1.83-2.03 3.72-4 5.67-5.92 1.94-1.9 3.93-3.74 5.99-5.5.95-.81 1.94-1.58 2.88-2.39 1.85-1.61-2.49 1.89-2.25 1.76.7-.4 1.35-1.01 2-1.49 2.19-1.59 4.44-3.09 6.74-4.51 1.07-.66 2.15-1.28 3.24-1.91 4.6-2.69-4.47 2.13-.86.47 2.51-1.15 4.99-2.35 7.57-3.37 1.11-.44 5.7-2.08.83-.38-5.1 1.78.52-.09 1.58-.41-9.48-5.22-18.97-10.45-28.45-15.67l-84.45 156.99c-27.38 50.91-55.39 101.57-80.27 153.76-22.2 46.58-40.57 94.62-57.89 143.19-8.19 22.95-16.28 45.93-24.85 68.73-4.08 10.85-8.27 21.66-12.62 32.4-.59 1.46-1.19 2.92-1.79 4.37 1.44-3.5-.55 1.31-.69 1.66-1.01 2.42-2.03 4.83-3.06 7.23-2.47 5.76-5 11.5-7.6 17.2-10.94 24.01-23.14 47.48-37.3 69.76-6.9 10.86-14.27 21.44-22.14 31.62-2.05 2.66-4.16 5.27-6.26 7.88-2 2.49 3.16-3.69-.15.16-1.35 1.57-2.68 3.16-4.04 4.72-4.45 5.11-9.04 10.08-13.76 14.93 15.85.77 31.71 1.54 47.56 2.32l2.58-26.47c1.16-11.89-14.22-14.05-23.06-12.86-6.85.92-14.08 2.86-19.8 6.87-3.9 2.73-9.25 6.75-9.75 11.88zM80.67 956.64c1.68-10.54-9.08-13.71-17.66-14.02-12.22-.44-26.24 3.54-35.55 11.66-5.98 5.21-9.58 12.1-4.54 19.3 3.75 5.36 11.07 7.61 17.26 8.57 13.75 2.13 28.38.99 42.24.66 14.57-.35 29.13-1.09 43.67-2.04 54.37-3.55 108.26-12.09 161.48-23.67 105.15-22.89 207.06-59.29 306.56-99.83 55.39-22.57 110.18-46.58 164.91-70.7-8.83-6.04-17.67-12.08-26.5-18.12-7.82 4.44-15.73 8.72-23.74 12.83-1.06.54-2.12 1.13-3.2 1.63.62-.28 5.18-2.57 1.09-.56-1.88.92-3.76 1.85-5.65 2.77-4.04 1.96-8.1 3.88-12.18 5.76-16.32 7.53-32.92 14.45-49.69 20.92-8.4 3.24-16.85 6.36-25.32 9.39-4.24 1.52-8.5 3.01-12.76 4.48-.85.29-1.71.59-2.56.88-4.91 1.69 1.55-.69 1.72-.58-.79-.49-5.67 1.91-6.84 2.3-17.13 5.7-34.35 11.1-51.63 16.35-73.72 22.4-147.79 43.72-221.69 65.51-42.7 12.59-85.39 25.18-128.09 37.76-6.08 1.79-12.72 4.4-17.52 8.74-2.84 2.56-6.38 6.89-5.24 11.16 2.94 10.97 22.55 7.34 29.65 5.85a2908.373 2908.373 0 0 0 196.72-48.4c32.34-9.17 64.52-18.9 96.51-29.19 31.6-10.16 63.56-20.05 94.32-32.55 32.35-13.14 63.56-30.93 85.49-58.72 3.91-4.96 1.71-10.39-3.48-13-7.41-3.72-16.7-1.97-24.34-.31-68.62 14.87-134.52 40.3-198.98 67.71-62.79 26.69-124.76 55.48-189.08 78.41-4.55 1.62-9.12 3.18-13.68 4.77-.19.07 5.74-1.93 2.81-.96-1.35.44-2.69.9-4.04 1.35-2.16.71-4.31 1.42-6.48 2.12a839.99 839.99 0 0 1-27.68 8.44c-18.58 5.31-37.35 9.9-56.31 13.67l13.74 23.43c45.57-20.8 91.92-39.85 138.98-57.03 11.91-4.35 23.86-8.58 35.85-12.69 1.69-.58 6.13-2.03-.7.23 1.17-.39 2.34-.79 3.51-1.19 2.93-.99 5.86-1.97 8.8-2.94a1908.53 1908.53 0 0 1 90.5-27.54c27.41-7.61 54.99-14.59 82.71-20.98 9.36-2.16 23.12-8.75 22.75-19.9-.42-12.82-15.14-18.62-25.9-19.95-17.57-2.18-33.78 1.74-50.54 6.61-31.43 9.13-62.78 18.52-94.05 28.19-64.54 19.94-128.71 41.05-192.54 63.16a5816.92 5816.92 0 0 0-104.25 37.24c6.86 7.03 13.72 14.07 20.59 21.1 16.25-7.41 32.67-14.44 49.26-21.04 8.58-3.42 17.21-6.73 25.87-9.92 4.04-1.49 8.1-2.96 12.16-4.41 2.32-.83 4.64-1.64 6.97-2.45.77-.27 8.05-2.85 3.57-1.24s2.81-.94 3.58-1.2c2.34-.78 4.68-1.55 7.02-2.31 4.1-1.33 8.21-2.64 12.32-3.93 8.52-2.66 17.08-5.22 25.67-7.67 17.47-4.99 35.07-9.52 52.76-13.63l-6.9-25.75c-18.25 5.25-36.61 10.13-55.08 14.59-9.23 2.23-18.49 4.36-27.76 6.4-4.64 1.02-9.28 2.01-13.93 2.97-2.17.45-4.34.9-6.51 1.34l-3.72.75c3.98-.79 4.48-.89 1.5-.3-37.33 7.14-74.87 12.88-112.66 16.92-10.02 1.07-24.23 5.98-28.92 15.74-4.45 9.27 7.72 13.53 15.03 13.21 30.67-1.34 61.35-2.69 92.02-4.03-1.99-7.41-3.97-14.82-5.96-22.24-5.75 3.94-11.63 7.67-17.68 11.13-3.02 1.73-6.1 3.36-9.17 5-4.93 2.64 4.36-2.03-.31.15-1.84.86-3.67 1.75-5.52 2.59-6.34 2.88-12.8 5.5-19.36 7.85-6.01 2.15 2.82-.87.25-.07-1.66.52-3.32 1.07-4.98 1.57-3.61 1.1-7.25 2.1-10.9 3.05-5.73 1.48-13.14 4.51-17.52 8.74-2.6 2.51-5.45 5.46-5.23 9.32.55 9.69 15.57 10.46 22.56 9.1 48.7-9.49 97.39-18.98 146.09-28.48 9.55-1.86 19.48-4.56 26.31-11.99 4.27-4.66 5.47-11.99-1.78-14.85-29.56-11.65-61.06-12.44-91.83-5.27l13.74 23.43c3.42-1.24 6.83-2.47 10.25-3.71 4.75-1.72 11.19-5.73 14.07-10.11 2.05-3.12 3.1-7.67-.02-10.63-8.71-8.26-25.06-3.82-34.64-.36-3.42 1.24-6.83 2.47-10.25 3.71-6.37 2.3-19.95 10.7-14.98 19.16 5.18 8.82 20.93 6.09 28.73 4.27 1.14-.27 2.32-.46 3.44-.77-6.94 1.93-2.89.61-1.02.33 2.33-.35 4.67-.52 7-.82 3.15-.39-5.21.08-.45.03 1.18-.01 2.35-.05 3.53-.05 2.65.01 5.28.23 7.93.3 3.24.09-3.79-.55-.58-.08 1.16.17 2.33.3 3.49.48 2.61.4 5.21.89 7.79 1.47 2.3.52 4.56 1.15 6.82 1.77-3.47-.96.38.16 1.07.4 1.38.49 2.75 1.02 4.12 1.56 8.17-8.95 16.35-17.9 24.52-26.84-48.7 9.49-97.39 18.98-146.09 28.48-.06 9.05-.13 18.11-.19 27.16 33.05-8.55 64.99-22.57 93.18-41.88 4.42-3.03 11.76-8.03 10-14.6-1.64-6.13-10.72-7.87-15.96-7.64-30.67 1.34-61.35 2.69-92.02 4.03-4.63 9.65-9.26 19.3-13.89 28.94 78.53-8.38 156.44-23.64 232.35-45.47 6.06-1.74 12.75-4.43 17.52-8.74 2.84-2.56 6.38-6.89 5.24-11.16-2.91-10.86-22.59-7.5-29.65-5.85-73.08 17-144.6 41.34-212.87 72.45-4.91 2.24-10.97 5.39-14.07 10.11-2.05 3.12-3.1 7.67.02 10.63 8.67 8.24 25.1 3.87 34.64.36a5825.27 5825.27 0 0 1 88.79-31.86c14.54-5.08 29.1-10.1 43.68-15.07 6.37-2.17-5.92 2 .45-.15 1.82-.62 3.65-1.24 5.47-1.85 3.04-1.03 6.08-2.05 9.12-3.08 7.91-2.66 15.82-5.3 23.74-7.92a5778.552 5778.552 0 0 1 176.34-55.32c8.61-2.55 17.24-5.08 25.86-7.6 4.31-1.26 8.63-2.51 12.94-3.75 1.58-.46 3.2-.86 4.77-1.36 4.42-1.42-7.02 1.04-2.57.46 1.15-.15 2.43-.2 3.55-.45-4.61.21-5.61.27-3.01.18.8-.02 1.59-.01 2.39.02 4.42-.1-5.46-1.04-1.21-.17.74.11 1.47.25 2.2.42 1.99.52 1.42.32-1.71-.6.13.11 2.68 1.29 2.75 1.26-2.08-1.54-2.46-1.78-1.13-.73.46.4.89.84 1.28 1.31.18.24.37.48.55.72-1.02-1.89-1.22-2.13-.6-.71-.06 1.19.58 2.71.62 3.98 7.58-6.63 15.17-13.26 22.75-19.9-100.54 23.17-199.3 54.4-294.95 93.06-26.37 10.66-52.5 21.92-78.38 33.73-6.13 2.8-20.14 10.37-14.98 19.16 5.27 8.97 20.82 5.84 28.73 4.27 68.8-13.67 134.93-38.47 199.42-65.59 62.92-26.47 124.84-55.43 188.96-78.98a1109.921 1109.921 0 0 1 20.09-7.17c1.07-.37 2.16-.73 3.23-1.11-1.13.4-5.55 1.87-2 .68 9.16-3.06 18.36-6.02 27.61-8.8 18.52-5.56 37.23-10.45 56.13-14.55-9.27-4.44-18.55-8.87-27.82-13.31-.95 1.2-1.91 2.4-2.9 3.57-1.11 1.32-2.7 3.54-.67.84-2.05 2.73-5.08 5.13-7.62 7.39-2.26 2.01-4.6 3.95-7 5.8-.6.46-1.22.9-1.81 1.38-1.96 1.57 1.7-1.2 1.7-1.2-1.74 1-3.35 2.33-5.04 3.43-5.6 3.66-11.53 6.6-17.28 9.97-.16.1 5-2.45 2.46-1.24-.7.33-1.39.68-2.09 1.02-1.4.67-2.8 1.33-4.22 1.98-3.07 1.41-6.16 2.75-9.27 4.06-12.7 5.32-25.7 9.86-38.72 14.32-.97.33-6.82 2.33-2.88.99 3.94-1.34-1.91.65-2.89.97-4.21 1.42-8.42 2.83-12.63 4.23a2888.577 2888.577 0 0 1-211.88 61.57c-36 8.99-72.17 17.27-108.48 24.88l6.9 25.75c76.6-22.58 153.2-45.17 229.8-67.75 73.68-21.72 148.07-42.01 220.11-68.84 39.97-14.89 79.01-32.37 116.13-53.44 6.28-3.56 15.13-13 6.41-18.95-8.93-6.1-23.84-3.17-32.91.83-88.83 39.13-177.88 78.06-269.29 110.87-5.45 1.96-10.91 3.89-16.38 5.8l-7.77 2.7c-1.73.6-3.46 1.19-5.18 1.78-5.25 1.8 5.62-1.88-.08.02-11.53 3.86-23.08 7.67-34.68 11.32-22.54 7.1-45.24 13.73-68.09 19.77-23.33 6.18-46.82 11.75-70.47 16.6l-3.54.72c-6.29 1.29 6.31-1.21 0 0-2.66.51-5.32 1.03-7.98 1.53-6.21 1.17-12.43 2.28-18.65 3.35-11.85 2.02-23.74 3.85-35.66 5.47a984.213 984.213 0 0 1-39.42 4.56c-6.59.63-13.19 1.19-19.79 1.68-3.3.24-6.61.47-9.91.68-1.57.1-5.98.23.29 0-1.81.07-3.61.2-5.42.29-13.27.67-26.56 1.05-39.85 1.12-6.12.03-12.76-.83-18.82-.18 1.12.09 2.23.19 3.35.28-2.06-.46-1.64-.29 1.26.53-2.53-1.02 1.12 2.2-.15-.23.67 1.28 1.06 1.77.69 3.3-3.92 9.22-12.33 13.93-25.21 14.14-13.56 2.56-20.03-.18-19.41-8.24-1.81 11.38 15.06 12.04 22.55 10.93 6.84-1.01 14-2.91 19.84-6.71 3.88-2.49 9.27-6.06 10.05-10.94zM909.48 49.4c19.31 50.37 50.3 95.22 84.32 136.71 34.46 42.03 72.25 81.19 106.72 123.21 37.02 45.12 68.61 94.1 93.42 146.96 22.91 48.8 37.55 100.44 56.18 150.87 17 46.01 38.85 92.58 75.66 126.19 4.61 4.21 9.45 8.16 14.45 11.9 6.5 4.86 16.63 3.51 23.88 1.99 8.14-1.7 19.48-5.11 24.71-12.22 23.59-32.04 50.02-61.8 78.76-89.31 3.58-3.42-1.87 1.72.38-.36.94-.86 1.86-1.74 2.79-2.6 1.68-1.56 3.37-3.11 5.07-4.65 3.96-3.6 7.96-7.15 12-10.65 7.31-6.34 14.76-12.54 22.33-18.57a711.414 711.414 0 0 1 48.13-35.18c2.12-1.42 4.25-2.81 6.38-4.22 3.28-2.17-.53.32-1 .63 1.05-.72 2.15-1.38 3.22-2.06 4.52-2.88 9.06-5.7 13.64-8.48 8.29-5.02 16.67-9.87 25.15-14.55 8.93-4.93 17.96-9.67 27.09-14.21a830.4 830.4 0 0 1 12.38-6.02c.6-.28 5.26-2.45 1.17-.56-4.09 1.89.58-.26 1.18-.54a719.735 719.735 0 0 1 62.39-25.14c2.41-.84 4.82-1.67 7.23-2.48.96-.32 1.94-.63 2.9-.97-7.57 2.71-3.65 1.2-1.78.59 5.09-1.65 10.2-3.24 15.32-4.77a710.73 710.73 0 0 1 27.99-7.74c5.43-1.38 10.88-2.7 16.34-3.95 2.73-.62 5.47-1.23 8.2-1.82 1.24-.27 2.49-.52 3.74-.8-8.53 1.91-2.84.6-1.08.25 10.99-2.21 22.03-4.15 33.11-5.81 11.08-1.66 22.21-3.05 33.36-4.16 2.06-.2 10.46-.63 2.58-.27 2.79-.13 5.6-.46 8.38-.66 5.85-.43 11.7-.77 17.56-1.04 10.3-.49 23.14-3.3 31.3-10.22 1.98-1.68 4.71-3.99 5.45-6.63 1.14-4.08-1.68-6.1-4.9-7.72-60.64-30.36-140.29-17.5-193.62 22.2l44.71 2.22c1.52-1.5 1.5-1.49-.06.03.79-.7 1.6-1.39 2.42-2.05 1.41-1.14 3.37-3.18 5.09-3.77-2.42 1.53-2.92 1.87-1.5 1.01.68-.41 1.36-.81 2.06-1.19.92-.51 1.86-1.01 2.81-1.48-3.59 1.62-4.14 1.88-1.64.79.97-.41 1.96-.8 2.95-1.17 2.77-.98 1.98-.74-2.35.74 1.23-.04 3.55-.72 4.6-1.22-4.49.89-5.29 1.08-2.41.55 1.04-.17 2.09-.32 3.14-.44-3.93.29-4.53.35-1.82.17 1.06-.05 2.11-.08 3.17-.09.3-7.22.6-14.44.91-21.66-65.84 23.09-130.28 49.82-193.36 79.62a1947.855 1947.855 0 0 0-179.15 96.39 2045.024 2045.024 0 0 0-99.95 64.8c13.73 1.84 27.47 3.69 41.2 5.53 26.21-21.9 53.58-42.4 82-61.35 1.7-1.13 3.4-2.26 5.11-3.38.76-.5 5.86-3.78 3.45-2.26-2.37 1.49.14-.09.52-.33.98-.63 1.97-1.26 2.95-1.89a956.984 956.984 0 0 1 27.64-16.92 946.559 946.559 0 0 1 45.22-24.99c8.3-4.29 16.66-8.46 25.08-12.5 2.11-1.01 4.22-2.01 6.33-3.01 4.06-1.92-.63.26-1.2.55 1.3-.66 2.65-1.23 3.98-1.83 4.51-2.07 9.04-4.1 13.58-6.1-8.52-4.86-17.03-9.72-25.55-14.57-55.71 33.4-111.41 66.81-167.12 100.21-13.37 8.02-26.55 16.57-40.36 23.81-.97.51-3.48 2.34-4.56 2.3.96-.45 1.92-.89 2.88-1.34-1.03.47-2.07.92-3.11 1.35-1.15.48-3.82 1-4.7 1.83 1.24-.4 2.47-.79 3.71-1.19-1.05.33-2.1.64-3.16.93-5.58 1.81 6.51-.79.75-.1l-1.58.24c-2.71.31-2.1.26 1.84-.16-.52.01-1.04.02-1.56.04-2.45-.04-2.07-.02 1.12.06-1.03-.11-2.05-.26-3.06-.45 2.17.57 2.22.55.17-.04-1.47-.6-2.96-1.13-4.42-1.77-3.97-1.74 1.25 1.39-1.7-1.04-2.16-1.78-4.31-3.4-6.22-5.47-3.85-4.15-5.72-7.4-8.21-12.7-5.82-12.42-9.29-25.97-13.38-39.01-10.9-34.75-21.8-69.5-32.71-104.25-16.9 5.57-33.8 11.13-50.69 16.7 47.43 43.64 88.98 93.9 122.2 149.17 9.61 15.98 18.54 32.36 26.82 49.07 4.6 9.27 21.28 6.17 29.13 3.91 6.11-1.76 12.76-4 17.67-8.17 2.64-2.24 6.83-5.77 5.6-9.79-13.71-44.81-36.14-86.65-65.45-123.19-2.49-3.1-10.59-3.43-13.79-3.31-5.84.22-11.51 1.36-17.06 3.18-4.87 1.6-10.28 3.68-14.24 7.04-2.42 2.05-7.2 6.03-5.6 9.79 12.21 28.78 24.42 57.56 36.63 86.35 2.81 6.62 13.1 6.17 18.79 5.68 10.21-.9 19.47-4.36 28.02-9.93.89-.58 7.15-4.7 2.59-1.69 1.73-1.14 3.48-2.24 5.22-3.35 3.98-2.55 7.97-5.08 11.97-7.59 7.5-4.71 15.04-9.37 22.61-13.97 15.39-9.35 30.93-18.47 46.61-27.34 31.35-17.75 63.25-34.53 95.63-50.32 7.96-3.88 15.96-7.68 23.98-11.47 1.21-.57 4.41-2-1.15.53.81-.37 1.61-.75 2.41-1.12 1.88-.87 3.75-1.74 5.63-2.6 4.29-1.97 8.6-3.93 12.9-5.86a1752.57 1752.57 0 0 1 49.62-21.4c33.3-13.76 67.02-26.5 101.09-38.18 4.75-1.63 9.5-3.24 14.27-4.82 1.12-.37 2.24-.74 3.36-1.12 3.52-1.17-.54.19-1.81.59 2.53-.8 5.05-1.65 7.58-2.47 9.55-3.08 19.14-6.09 28.74-9.01 19.5-5.92 39.1-11.5 58.79-16.75 5.97-1.59 12.77-4.26 17.67-8.17 2.52-2.01 6.64-5.92 5.6-9.79-2.6-9.69-23.41-5.44-29.13-3.91-72.49 19.32-143.89 43.1-213.44 71.23-69.35 28.05-137.08 60.36-202.44 96.76-37.3 20.77-73.73 42.98-109.5 66.29l46.8-4.26c-12.21-28.78-24.42-57.56-36.63-86.35-16.9 5.57-33.8 11.13-50.69 16.7 28.04 34.96 48.92 75.04 62.02 117.88l52.41-14.04c-29.57-59.64-67.64-115.19-112.84-164.08a692.66 692.66 0 0 0-39.62-39.48c-7.29-6.71-22.94-2.73-30.85-.13-4.87 1.6-10.28 3.68-14.24 7.04-2.63 2.23-6.86 5.79-5.6 9.79l30.66 97.74c8.23 26.24 14.04 59.83 40.94 73.5 17.22 8.75 40.22 5.98 57.98.56 18.15-5.53 34.45-14.21 50.64-23.92 29.54-17.71 59.08-35.43 88.62-53.14 33.48-20.08 66.96-40.15 100.44-60.23 5.28-3.16 15.87-10.97 7.06-16.53-8.53-5.39-24.32-1.7-32.61 1.95-66.88 29.45-130.5 65.8-189.42 109.07-16 11.75-31.61 24.02-46.85 36.74-2.49 2.08-6.65 5.87-5.6 9.79 1.02 3.79 6.58 5.3 9.75 5.67 12.81 1.53 26.56-2.68 37.06-9.93a1925.146 1925.146 0 0 1 46.73-31.29c.25-.16.5-.32.75-.49 1.81-1.17 2-1.29.58-.37-.31.2-.62.4-.92.6.5-.32 1-.64 1.5-.97 3.76-2.41 7.52-4.81 11.29-7.2a1940.567 1940.567 0 0 1 108.45-63.83c29.25-15.97 58.92-31.18 88.95-45.62 3.75-1.81 7.51-3.6 11.28-5.38 1.61-.76 3.23-1.52 4.84-2.28 1.07-.5 2.15-1.04 3.23-1.51-1.44.64-4.04 1.87-1.11.52 7.56-3.5 15.14-6.96 22.74-10.37a1944.23 1944.23 0 0 1 46.69-20.21c34.88-14.56 70.18-28.07 105.84-40.58 5.22-1.83 16.57-7.36 16.33-14.12-.25-6.99-10.19-7.63-15.43-7.54-31.78.52-63.47 12.69-86.06 35.18-2.53 2.52-2.99 6.58-.38 9.13 2.73 2.67 7.38 2.99 10.91 3.16 11.71.59 24.74-3.05 34.18-10.07 1.22-.9 2.44-1.8 3.68-2.67.83-.58 1.66-1.15 2.5-1.71-2.53 1.61-3.08 1.97-1.67 1.08 2.59-1.57 5.17-3.13 7.83-4.56 1.55-.84 3.13-1.62 4.7-2.42 4.28-2.21-5.28 2.21-.49.23 2.8-1.16 5.57-2.34 8.41-3.38 1.93-.71 6.98-2.04-1.14.29 1.45-.42 2.89-.9 4.34-1.32 2.91-.83 5.87-1.46 8.8-2.23-8.95 2.37.88-.09 3.35-.45 1.5-.22 3-.42 4.5-.6 1-.12 2.01-.23 3.01-.33-3.79.31-4.72.4-2.78.25 3.03-.17 6.04-.35 9.08-.39 1.51-.02 3.03-.02 4.54.01.76.01 1.51.03 2.27.05 2.43.1 2.02.07-1.23-.07 2.22-.7 6.7.55 9.04.84 3 .37 5.99.84 8.96 1.4 1.49.28 2.96.59 4.44.91 4.93 1.05-3.66-1.07 1.18.31 2.91.83 5.81 1.64 8.68 2.61 6.22 2.09 12.26 4.65 18.12 7.59 10.61-8.19 21.23-16.38 31.84-24.57-87.42 4.12-174.07 23.82-254.81 57.57-78.28 32.72-151.6 78.06-214.58 135.02-35.05 31.7-67.11 66.51-95.14 104.58 16.2-3.41 32.4-6.81 48.59-10.22-39.82-29.77-62.91-72.17-80.87-117.58-19.16-48.44-32.58-98.92-53.28-146.78-23.81-55.04-54.83-106.98-91.69-154.26-33.26-42.67-70.75-81.79-105.84-122.91-34.28-40.16-66.46-82.43-88.11-130.84-2.68-5.98-5.17-12.04-7.52-18.16-3.65-9.52-22-5.97-29.13-3.91-6.11 1.76-12.76 4-17.67 8.17-2.48 2.12-7.06 5.94-5.59 9.79zM1214.49 929.61c5.32 0 13.95-2.13 17.49-6.44 3.78-4.61-3.36-5-6.38-5-5.32 0-13.95 2.13-17.49 6.44-3.77 4.61 3.37 5 6.38 5zM1166.94 1112.99c6.02 0 13.97-1.77 17.21-7.49 2.99-5.29-2.56-9-7.45-9-6.02 0-13.97 1.77-17.21 7.49-2.99 5.29 2.56 9 7.45 9z"/><path class="st0" d="M1181.82 1099.32c-36.26-15.87-72.52-31.75-108.78-47.62-5.75-2.52-13.41-.78-18.56 2.43-3.36 2.09-8.1 7.77-2.27 10.32 36.26 15.87 72.52 31.75 108.78 47.62 5.75 2.52 13.41.78 18.56-2.43 3.36-2.09 8.1-7.77 2.27-10.32zM984.43 1002.45h-24.11c-5.35 0-13.96 2.11-17.47 6.49-3.74 4.66 3.31 5.18 6.43 5.18h24.11c5.35 0 13.96-2.11 17.47-6.49 3.73-4.65-3.32-5.18-6.43-5.18z"/><path class="st0" d="M977.09 1001.28c-8.04-4.02-16.08-8.04-24.11-12.06-5.82-2.91-13.42-1.68-18.68 1.98-3.71 2.58-7.67 9.12-1.81 12.04 8.04 4.02 16.08 8.04 24.11 12.06 5.82 2.91 13.42 1.68 18.68-1.98 3.71-2.57 7.67-9.11 1.81-12.04zM974.13 896.34c6.11 0 14-1.71 17.16-7.65 2.84-5.34-2.46-9.59-7.61-9.59-6.11 0-14 1.71-17.16 7.65-2.84 5.34 2.46 9.59 7.61 9.59zM708.23 1014.52c5.43 0 13.99-2.05 17.43-6.65 3.6-4.81-3.14-5.8-6.59-5.8-5.43 0-13.99 2.05-17.43 6.65-3.6 4.81 3.14 5.8 6.59 5.8z"/><path class="st0" d="M708.42 1015.24c5.74 0 13.83-1.99 17.35-6.96 3.54-5-3.04-6.96-6.9-6.96-5.74 0-13.83 1.99-17.35 6.96-3.54 5.01 3.04 6.96 6.9 6.96zM599.59 1002c5.33 0 13.95-2.12 17.48-6.47 3.76-4.63-3.34-5.08-6.4-5.08-5.33 0-13.95 2.12-17.48 6.47-3.76 4.63 3.34 5.08 6.4 5.08z"/><path class="st0" d="m609.66 986.69-72.34-12.06c-6.08-1.01-14.38 2.21-17.06 8.03-2.81 6.11 2.56 10.15 8 11.05l72.34 12.06c6.08 1.01 14.38-2.21 17.06-8.03 2.81-6.11-2.55-10.14-8-11.05zM302.48 957.38c5.61 0 13.76-4.31 14.48-10.44.79-6.81-7.06-8.33-12.04-8.33-5.61 0-13.76 4.31-14.48 10.44-.79 6.81 7.06 8.33 12.04 8.33z"/><path class="st0" d="M295.09 952.91c6.19 0 13.19-1.83 18.53-4.96 4.06-2.39 3.82-4.86-1.3-4.86-6.19 0-13.19 1.83-18.53 4.96-4.07 2.39-3.82 4.86 1.3 4.86zM712.46 885.16c5.66 0 13.76-4.35 14.45-10.52.77-6.83-7.02-8.48-12.08-8.48-5.66 0-13.76 4.35-14.45 10.52-.77 6.83 7.02 8.48 12.08 8.48z"/><path class="st0" d="M725.89 876.12c8.04-12.06 16.08-24.11 24.11-36.17 3.45-5.18-2.97-8.01-7.24-8.2-5.9-.26-13.8 2.09-17.26 7.28-8.04 12.06-16.08 24.11-24.11 36.17-3.45 5.18 2.97 8.01 7.24 8.2 5.9.27 13.8-2.09 17.26-7.28zM865.5 642.7c6.01 0 13.96-1.78 17.21-7.47 3.01-5.28-2.58-8.91-7.42-8.91-6.01 0-13.96 1.78-17.21 7.47-3.02 5.28 2.57 8.91 7.42 8.91zM937.83 485.93c6 0 13.96-1.78 17.22-7.46 3.02-5.27-2.59-8.86-7.41-8.86-6 0-13.96 1.78-17.22 7.46-3.03 5.27 2.59 8.86 7.41 8.86zM1046.1 316.22c5.8 0 13.86-1.94 17.32-7.08 3.41-5.08-2.92-7.41-7.02-7.41-5.8 0-13.86 1.94-17.32 7.08-3.42 5.07 2.92 7.41 7.02 7.41z"/><path class="st0" d="M1038.14 312.48c12.06 20.1 24.11 40.19 36.17 60.29 4.03 6.71 28.59-3.04 26.2-7.02-12.06-20.1-24.11-40.19-36.17-60.29-4.02-6.71-28.58 3.04-26.2 7.02zM1178.61 605.15c5.56 0 14.03-1.96 17.37-6.89 3.38-5-2.91-6.71-6.84-6.71-5.56 0-14.03 1.96-17.37 6.89-3.38 5 2.92 6.71 6.84 6.71z"/><path class="st0" d="M1178.53 604.84c5.49 0 14.01-2.01 17.4-6.77 3.5-4.91-3.03-6.22-6.71-6.22-5.49 0-14.01 2.01-17.4 6.77-3.5 4.9 3.04 6.22 6.71 6.22zM994.43 687.76c6.2 0 13.19-1.76 18.53-4.96 4.03-2.42 3.82-5.06-1.36-5.06-6.2 0-13.19 1.76-18.53 4.96-4.02 2.42-3.81 5.06 1.36 5.06z"/><path class="st0" d="M997.83 689.85c5.77 0 13.85-1.96 17.33-7.02 3.47-5.04-2.98-7.19-6.96-7.19-5.77 0-13.85 1.96-17.33 7.02-3.47 5.04 2.98 7.19 6.96 7.19zM1404.45 856.84c6.25 0 13.21-1.55 18.53-4.96 3.93-2.52 3.8-5.63-1.51-5.63-6.25 0-13.21 1.55-18.53 4.96-3.92 2.52-3.8 5.63 1.51 5.63zM1440.52 1013.21c6.19 0 13.19-1.82 18.53-4.96 4.06-2.39 3.82-4.88-1.31-4.88-6.19 0-13.19 1.82-18.53 4.96-4.05 2.39-3.81 4.88 1.31 4.88z"/><path class="st0" d="M1439.04 1007.69c-12.06 8.04-24.11 16.08-36.17 24.11-4.15 2.77-3.26 5.81 1.65 6.17 6.04.44 13.48-1.6 18.53-4.96 12.06-8.04 24.11-16.08 36.17-24.11 4.15-2.77 3.26-5.81-1.65-6.17-6.04-.45-13.48 1.59-18.53 4.96zM1275.43 1112.88c5.99 0 13.96-1.78 17.22-7.45 3.03-5.27-2.6-8.83-7.4-8.83-5.99 0-13.96 1.78-17.22 7.45-3.04 5.28 2.59 8.83 7.4 8.83zM1093.92 1170.74c5.32 0 13.95-2.14 17.49-6.44 3.79-4.6-3.37-4.97-6.37-4.97-5.32 0-13.95 2.14-17.49 6.44-3.79 4.59 3.37 4.97 6.37 4.97zM1058.45 1233.66c6.04 0 13.98-1.75 17.19-7.53 2.95-5.3-2.53-9.15-7.49-9.15-6.04 0-13.98 1.75-17.19 7.53-2.95 5.3 2.54 9.15 7.49 9.15z"/><path class="st0" d="M1058.41 1233.52c6.01 0 13.96-1.77 17.21-7.47 3.01-5.28-2.58-8.93-7.43-8.93-6.01 0-13.96 1.77-17.21 7.47-3 5.28 2.58 8.93 7.43 8.93zM1074.14 1499.97c5.61 0 13.76-4.31 14.48-10.45.79-6.81-7.06-8.34-12.04-8.34-5.61 0-13.76 4.31-14.48 10.45-.79 6.81 7.06 8.34 12.04 8.34zM1046.39 1571.24c6.04 0 13.98-1.75 17.2-7.52 2.96-5.3-2.54-9.12-7.48-9.12-6.04 0-13.98 1.75-17.2 7.52-2.96 5.3 2.54 9.12 7.48 9.12zM973.98 1607.18c5.98 0 13.95-1.79 17.22-7.43 3.05-5.26-2.61-8.75-7.38-8.75-5.98 0-13.95 1.79-17.22 7.43-3.05 5.26 2.61 8.75 7.38 8.75z"/><path class="st0" d="M970.43 1604.52c6.28 0 13.22-1.46 18.53-4.96 3.88-2.56 3.79-5.89-1.58-5.89-6.28 0-13.22 1.46-18.53 4.96-3.88 2.56-3.79 5.89 1.58 5.89zM883.49 1414.72l-12.06-48.23c-1.75-7-28.02-.24-26.2 7.02l12.06 48.23c1.75 7 28.02.24 26.2-7.02zM829.23 1293.43c5.92 0 13.93-1.84 17.25-7.32 3.16-5.21-2.7-8.33-7.27-8.33-5.92 0-13.93 1.84-17.25 7.32-3.17 5.21 2.7 8.33 7.27 8.33z"/><path class="st0" d="M853.52 1282.04c6.08 0 13.99-1.73 17.18-7.6 2.89-5.33-2.49-9.4-7.56-9.4-6.08 0-13.99 1.73-17.18 7.6-2.88 5.33 2.5 9.4 7.56 9.4zM1010.17 1317.85c5.99 0 13.96-1.78 17.22-7.45 3.03-5.27-2.6-8.82-7.4-8.82-5.99 0-13.96 1.78-17.22 7.45-3.04 5.27 2.59 8.82 7.4 8.82zM1088.47 1436.54c-8.26-6.92-16.52-13.83-24.78-20.75-5.51-4.61-17.65.11-22.51 3.58-16.51 11.78-26.52 30.05-26.87 50.36-.1 5.85 26.05 1.77 26.2-7.02.28-15.98 8.13-31.68 21.16-40.98-7.5 1.19-15.01 2.39-22.51 3.58 8.26 6.92 16.52 13.83 24.78 20.75 4.18 3.5 12.66 1.03 17.09-.7 2.15-.83 11.55-5.38 7.44-8.82z"/><path class="st0" d="m1064.86 1440.23-48.23 48.23c-3.77 3.77-3.05 8.01 2.46 9.2 5.71 1.23 14.29-.72 18.53-4.96l48.23-48.23c3.77-3.77 3.06-8.01-2.46-9.2-5.71-1.24-14.28.72-18.53 4.96zM929.4 1765.02h7.46c5.53 0 13.77-4.24 14.51-10.3.83-6.76-7.13-8.08-11.97-8.08h-7.46c-5.53 0-13.77 4.24-14.51 10.3-.83 6.76 7.13 8.08 11.97 8.08h7.46c5.53 0 13.77-4.24 14.51-10.3.83-6.76-7.13-8.08-11.97-8.08h-7.46c-5.53 0-13.77 4.24-14.51 10.3-.83 6.76 7.13 8.08 11.97 8.08zM943.78 1450.89c-8.04-20.1-16.08-40.19-24.11-60.29-2.35-5.87-10.02-6.14-15.31-4.72-4.08 1.09-13.22 5.92-10.9 11.74 8.04 20.1 16.08 40.19 24.11 60.29 2.35 5.87 10.02 6.14 15.31 4.72 4.08-1.09 13.23-5.91 10.9-11.74zM804.9 1172.06c5.75 0 13.84-1.97 17.34-6.99 3.51-5.02-3.01-7.06-6.93-7.06-5.75 0-13.84 1.97-17.34 6.99-3.51 5.01 3.01 7.06 6.93 7.06zM1564.5 1172.06c5.75 0 13.84-1.97 17.34-6.99 3.51-5.02-3.01-7.06-6.93-7.06-5.75 0-13.84 1.97-17.34 6.99-3.51 5.01 3.01 7.06 6.93 7.06zM1508.24 1319.24c5.67 0 13.76-4.36 14.45-10.54.76-6.84-7.01-8.51-12.09-8.51-5.67 0-13.76 4.36-14.45 10.54-.76 6.84 7.01 8.51 12.09 8.51zM1721.14 1388.71c5.52 0 14.02-1.98 17.38-6.83 3.44-4.96-2.97-6.47-6.77-6.47-5.52 0-14.02 1.98-17.38 6.83-3.44 4.96 2.97 6.47 6.77 6.47z"/><path class="st0" d="M1725.34 1391.85c5.78 0 13.76-4.46 14.4-10.74.7-6.89-6.92-8.85-12.18-8.85-5.78 0-13.76 4.46-14.4 10.74-.7 6.9 6.92 8.85 12.18 8.85zM1605.86 1376.45l-24.11-24.11c-4.59-4.59-12.13-4.12-17.68-1.52-3.72 1.74-11.03 8.09-6.4 12.73l24.11 24.11c4.59 4.59 12.13 4.12 17.68 1.52 3.72-1.74 11.04-8.09 6.4-12.73zM1443.66 1219.3c5.39 0 13.97-2.08 17.45-6.58 3.67-4.74-3.22-5.5-6.51-5.5-5.39 0-13.97 2.08-17.45 6.58-3.66 4.74 3.23 5.5 6.51 5.5zM1395.39 1195.01c5.35 0 13.96-2.11 17.47-6.5 3.73-4.67-3.3-5.22-6.44-5.22-5.35 0-13.96 2.11-17.47 6.5-3.73 4.66 3.3 5.22 6.44 5.22zM1275.54 1101.25c6.09 0 14-1.72 17.17-7.62 2.86-5.33-2.47-9.5-7.58-9.5-6.09 0-14 1.72-17.17 7.62-2.87 5.34 2.47 9.5 7.58 9.5zM1159.73 833.83l-12.06-12.06c-4.53-4.53-12.2-4.46-17.71-1.64-2.61 1.33-5.58 3.21-6.78 6.02-.91 2.12-1.42 5.07.44 6.93l12.06 12.06c4.53 4.53 12.2 4.46 17.71 1.64 2.61-1.33 5.58-3.21 6.78-6.02.91-2.12 1.42-5.07-.44-6.93z"/><path class="st0" d="M1146.64 849.44c5.84 0 13.75-4.52 14.37-10.85.67-6.93-6.87-9.05-12.23-9.05-5.84 0-13.75 4.52-14.37 10.85-.68 6.92 6.86 9.05 12.23 9.05zM1344.08 904.75c6.2 0 13.19-1.78 18.53-4.96 4.04-2.41 3.82-4.99-1.34-4.99-6.2 0-13.19 1.78-18.53 4.96-4.04 2.41-3.81 4.99 1.34 4.99zM1467.78 688.8c5.39 0 13.98-2.08 17.45-6.58 3.66-4.75-3.22-5.53-6.52-5.53-5.39 0-13.98 2.08-17.45 6.58-3.66 4.75 3.22 5.53 6.52 5.53z"/><path class="st0" d="M1464.84 688.43c6.32 0 13.24-1.27 18.53-4.96 3.79-2.65 3.78-6.41-1.72-6.41-6.32 0-13.24 1.27-18.53 4.96-3.79 2.65-3.77 6.41 1.72 6.41zM1613.22 739.84c6.17 0 14.03-1.67 17.14-7.75 2.75-5.37-2.4-9.99-7.71-9.99-6.17 0-14.03 1.67-17.14 7.75-2.75 5.38 2.39 9.99 7.71 9.99z"/><path class="st0" d="M1628.78 740.4c5.63 0 13.76-4.32 14.47-10.47.78-6.81-7.04-8.38-12.05-8.38-5.63 0-13.76 4.32-14.47 10.47-.78 6.81 7.04 8.38 12.05 8.38zM1745.19 544.47c5.47 0 14-2.02 17.41-6.73 3.53-4.88-3.07-6.09-6.67-6.09-5.47 0-14 2.02-17.41 6.73-3.53 4.88 3.07 6.09 6.67 6.09z"/><path class="st0" d="M1742.01 543.18c6.22 0 13.2-1.68 18.53-4.96 3.99-2.46 3.81-5.28-1.41-5.28-6.22 0-13.2 1.68-18.53 4.96-4 2.46-3.82 5.28 1.41 5.28zM1540.2 701.12c5.45 0 14-2.04 17.42-6.69 3.57-4.85-3.11-5.94-6.63-5.94-5.45 0-14 2.04-17.42 6.69-3.57 4.84 3.1 5.94 6.63 5.94zM1178.64 762c5.73 0 13.82-1.99 17.35-6.94 3.56-4.98-3.06-6.89-6.88-6.89-5.73 0-13.82 1.99-17.35 6.94-3.56 4.99 3.06 6.89 6.88 6.89zM913.51 509.27c5.83 0 13.88-1.91 17.3-7.14 3.35-5.11-2.86-7.64-7.09-7.64-5.83 0-13.88 1.91-17.3 7.14-3.34 5.12 2.87 7.64 7.09 7.64zM925.5 412.58c5.78 0 13.85-1.95 17.33-7.04 3.45-5.05-2.96-7.26-6.98-7.26-5.78 0-13.85 1.95-17.33 7.04-3.45 5.05 2.96 7.26 6.98 7.26zM966.64 446.36c33.48 22.77 70.82 39.52 110.17 49.11 6.07 1.48 12.97.01 18.42-2.95 2.4-1.3 8.95-6.85 2.8-8.34-38.17-9.31-74.37-25.25-106.86-47.35-4.67-3.18-12.27-1.18-17.09.7-1.77.7-11.9 5.8-7.44 8.83zM1245.5 615.94c-28.3-19.85-56.61-39.7-84.91-59.55-4.73-3.32-12.21-1.54-17.16.44-1.94.78-11.9 6.08-7.32 9.29 28.3 19.85 56.61 39.7 84.91 59.55 4.73 3.32 12.21 1.54 17.16-.44 1.95-.78 11.9-6.08 7.32-9.29zM913.52 316.4c5.84 0 13.88-1.9 17.3-7.15 3.33-5.12-2.85-7.7-7.1-7.7-5.84 0-13.88 1.9-17.3 7.15-3.33 5.12 2.85 7.7 7.1 7.7zM427.82 1001.54c6.26 0 13.21-1.54 18.53-4.96 3.92-2.53 3.8-5.66-1.52-5.66-6.26 0-13.21 1.54-18.53 4.96-3.92 2.53-3.79 5.66 1.52 5.66z"/><path class="st0" d="M430.78 1001.98c5.33 0 13.95-2.13 17.48-6.46 3.77-4.62-3.35-5.04-6.39-5.04-5.33 0-13.95 2.13-17.48 6.46-3.77 4.61 3.35 5.04 6.39 5.04zM283.04 1013.24h24.11c6.19 0 13.19-1.8 18.53-4.96 4.05-2.4 3.82-4.93-1.32-4.93h-24.11c-6.19 0-13.19 1.8-18.53 4.96-4.05 2.4-3.82 4.93 1.32 4.93zM869.35 909.82c5.88 0 13.75-4.56 14.35-10.92.65-6.94-6.83-9.18-12.27-9.18-5.88 0-13.75 4.56-14.35 10.92-.65 6.95 6.84 9.18 12.27 9.18z"/><path class="st0" d="M877.52 907.84c5.98 0 13.95-1.8 17.23-7.42 3.06-5.26-2.62-8.71-7.37-8.71-5.98 0-13.95 1.8-17.23 7.42-3.07 5.25 2.62 8.71 7.37 8.71zM961.6 737.84c5.57 0 14.03-1.95 17.36-6.92 3.36-5.02-2.89-6.81-6.86-6.81-5.57 0-14.03 1.95-17.36 6.92-3.37 5.02 2.88 6.81 6.86 6.81z"/><path class="st0" d="M978.86 725.27c-8.04-12.06-16.08-24.11-24.11-36.17-6.36-9.54-31.42.31-24.03 11.4 8.04 12.06 16.08 24.11 24.11 36.17 6.36 9.54 31.42-.31 24.03-11.4z"/><path class="st0" d="M941.52 728.34c5.62 0 13.76-4.32 14.47-10.47.78-6.81-7.05-8.38-12.05-8.38-5.62 0-13.76 4.32-14.47 10.47-.78 6.81 7.05 8.38 12.05 8.38zM1094.14 761.62c5.49 0 14.01-2 17.4-6.78 3.49-4.92-3.02-6.28-6.72-6.28-5.49 0-14.01 2-17.4 6.78-3.49 4.92 3.02 6.28 6.72 6.28zM941.58 1186.74h12.06c3.21 0 7.33-1.69 9.85-3.62 1.99-1.52 4.45-4.31 4.57-7.02.32-6.87-6.62-8.67-12.13-8.67h-12.06c-3.21 0-7.33 1.69-9.85 3.62-1.99 1.52-4.45 4.31-4.57 7.02-.31 6.88 6.63 8.67 12.13 8.67z"/><path class="st0" d="M949.78 1184.85c5.91 0 13.92-1.85 17.26-7.29 3.19-5.2-2.72-8.23-7.24-8.23-5.91 0-13.92 1.85-17.26 7.29-3.19 5.2 2.72 8.23 7.24 8.23zM1021.66 1195.19c5.39 0 13.98-2.08 17.45-6.58 3.66-4.74-3.22-5.51-6.52-5.51-5.39 0-13.98 2.08-17.45 6.58-3.65 4.74 3.23 5.51 6.52 5.51zM1130.44 1099.71c5.75 0 13.84-1.98 17.34-6.98 3.51-5.01-3.02-7.05-6.93-7.05-5.75 0-13.84 1.98-17.34 6.98-3.51 5.01 3.02 7.05 6.93 7.05zM1665.13 620.48h12.06c3.24 0 7.32-1.67 9.84-3.66 2.03-1.61 4.41-4.5 4.5-7.28.24-6.96-6.5-9.21-12.28-9.21h-12.06c-3.24 0-7.32 1.67-9.84 3.66-2.03 1.61-4.41 4.5-4.5 7.28-.24 6.95 6.5 9.21 12.28 9.21z"/><path class="st0" d="M1673.52 619.31c6.18 0 14.03-1.66 17.13-7.77 2.73-5.38-2.38-10.06-7.73-10.06-6.18 0-14.03 1.66-17.13 7.77-2.73 5.39 2.38 10.06 7.73 10.06z"/></svg>