<svg version="1.1" id="Ebene_1" xmlns="http://www.w3.org/2000/svg" x="0" y="0" viewBox="0 0 1386 2048" style="enable-background:new 0 0 1386 2048" xml:space="preserve"><style>.st1{fill:#fff}</style><path d="M203.42 1296.6c-37.94-5.42-46.06 37.94-40.65 157.16 5.42 119.23 0 143.61 5.42 192.39 2.95 26.52 13.55 54.19 51.48 56.9s176.13 8.13 176.13 8.13 0 238.45 10.84 262.84c10.84 24.39 16.26 62.32 127.36 70.45s243.87 0 265.55-2.71c21.68-2.71 59.61-10.84 51.48-135.49-8.13-124.65-2.71-211.36-2.71-211.36s249.29-2.71 260.13-18.97c10.84-16.26 21.68-344.13-32.52-368.52-29.76-13.39-216.78-5.42-246.58-13.55-29.81-8.13-67.74-48.77-16.26-84 51.48-35.23 269.27-174.59 322.45-224.91 100.26-94.84 241.16-233.03 249.29-501.3 8.13-268.26-100.85-414.95-270.97-460.65C932.33-25.73 715.55 96.2 715.55 96.2S466.26-66.38 260.32 31.17-51.29 394.27 24.58 654.4c56.82 194.8 228.56 389.76 289.94 455.23 40.65 43.36 227.62 143.61 186.97 159.87-40.65 16.26-298.07 27.1-298.07 27.1z" style="fill:#ff0001"/><path d="m616.99 186.3-154.45 87.39 41.66 65.03 49.79 26.42 87.39 56.9 123.97 11.18 214.4-61.98 109.74 7.11 10.17-124.98-103.65-58.94-196.12-7.11zM366.23 1366.42c1.24 1.24 2.23 2.67 2.97 4.27.75 1.61 1.12 3.41 1.12 5.38-.25 2.48-1.12 4.71-2.6 6.68-1.48 1.98-3.1 3.96-4.83 5.94-.5 0-.74.25-.74.75-7.43 9.9-12.69 20.55-15.78 31.93-3.1 11.38-5.01 23.14-5.76 35.26-.74 11.39-1.37 22.84-1.86 34.34-.49 11.51-.99 23.09-1.48 34.72v.37c0 3.22-.06 6.37-.18 9.46-.13 3.1-.32 6.13-.56 9.1l-1.86 43.81c0 1.24-.13 2.22-.37 2.97 0 1.73-.74 3.34-2.22 4.83-1.74 1.73-4.22 2.84-7.43 3.34-1.48 0-2.97-.06-4.45-.19s-2.85-.31-4.08-.56a42.35 42.35 0 0 1-6.68-1.3c-2.23-.62-3.96-1.79-5.2-3.52-.99-1.23-1.61-2.6-1.86-4.08s-.37-2.84-.37-4.09l-1.11-28.96v-20.42c.49-13.61.8-27.1.93-40.46.12-13.37-1.17-26.73-3.9-40.1-2.72-13.37-6.19-26.23-10.39-38.61-4.22-12.37-9.53-24.5-15.96-36.38-.5-.75-.93-1.54-1.3-2.41-.37-.87-.81-1.67-1.3-2.41-2.97-4.7-2.85-9.03.37-13 1.98-1.98 4.08-3.4 6.31-4.27 2.23-.86 4.7-.67 7.42.56 2.48.99 4.89 2.04 7.24 3.15 2.35 1.11 4.52 2.54 6.5 4.27 2.47 1.98 4.64 5.69 6.49 11.14 1.86 5.45 3.59 11.32 5.2 17.63 1.6 6.31 3.02 12.38 4.27 18.2 1.23 5.82 2.35 10.21 3.34 13.18.49 1.48.98 2.97 1.48 4.45.49 1.48.98 3.1 1.48 4.83h.37c1.24-6.43 2.6-13 4.09-19.67 1.48-6.68 2.97-13.24 4.45-19.68.49-3.46 1.11-6.8 1.86-10.03.74-3.22 1.86-6.43 3.34-9.65 2.22-4.45 5.5-8.29 9.84-11.5 4.33-3.22 8.97-4.58 13.92-4.09 1.98 0 3.72.5 5.2 1.48 1.49.99 2.84 2.1 4.08 3.34zM382.56 1504.9c-.5-8.66-.87-16.7-1.11-24.13-.25-7.42-.32-14.54-.19-21.35.12-6.8.43-13.55.93-20.24.49-6.68 1.24-13.61 2.23-20.79.74-5.94 1.91-11.69 3.52-17.26 1.6-5.57 4.02-10.96 7.24-16.16 3.22-5.44 6.99-10.08 11.32-13.92 4.33-3.83 9.47-6.74 15.41-8.72 14.6-4.46 26.6-.75 36.01 11.14 2.98 3.47 5.26 7.24 6.87 11.32 1.6 4.09 3.02 8.35 4.26 12.81 1.98 8.66 3.53 17.32 4.64 25.98 1.11 8.67 1.54 17.33 1.3 25.99-.5 17.82-.62 35.45-.37 52.9s.12 34.96-.37 52.54c-.25 4.95-.8 9.15-1.67 12.62-.87 3.47-2.18 7.55-3.9 12.25-1.98 5.45-5.51 9.84-10.58 13.18-5.08 3.34-10.71 5.57-16.89 6.68-6.19 1.11-12.5 1.05-18.93-.18-6.44-1.25-12.01-3.72-16.71-7.43-4.95-3.71-8.79-8.72-11.5-15.04-2.73-6.31-4.83-13.36-6.31-21.16-1.49-7.8-2.6-16.09-3.34-24.88-.75-8.76-1.37-17.48-1.86-26.15zm60.52 50.49c.24-7.42.43-15.04.56-22.83.12-7.8.18-15.53.18-23.2 0-6.68.13-13.98.37-21.9.25-7.91.49-15.96.75-24.13.24-8.17.43-16.15.56-23.94.12-7.8.18-15.04.18-21.72-.5-3.72-.99-7.67-1.48-11.88-.5-4.2-1.48-8.03-2.97-11.5-.75-2.48-2.85-4.09-6.31-4.83-3.47-.75-6.57-.87-9.28-.37-2.97.74-5.38 2.48-7.24 5.2-1.86 2.72-3.03 5.19-3.52 7.42-1.74 9.41-3.22 19.49-4.46 30.25a552.673 552.673 0 0 0-2.78 32.68c-.63 11.02-.81 21.9-.56 32.67.25 10.77 1.12 20.98 2.6 30.64.98 8.66 2.84 17.08 5.56 25.24s5.76 14.35 9.1 18.56c3.34 4.22 6.74 5.45 10.21 3.72 3.45-1.76 6.3-8.44 8.53-20.08zM544.8 1568.76c3.46.5 5.87-2.66 7.24-9.47 1.36-6.8 2.22-14.97 2.6-24.5.37-9.53.49-19.31.37-29.33-.13-10.02-.06-17.88.18-23.57.75-14.11 1.24-28.09 1.48-41.96.25-13.86.62-27.85 1.12-41.96.24-3.46.67-6.99 1.29-10.58a63.34 63.34 0 0 1 2.79-10.57c1.98-5.2 5.26-9.03 9.84-11.51 4.57-2.47 9.46-3.46 14.66-2.97 3.71.5 6.18 1.48 7.42 2.97 1.24 1.48 1.61 4.08 1.11 7.8-.74 11.14-1.61 22.16-2.6 33.04-.99 10.89-1.98 21.9-2.97 33.04a550.732 550.732 0 0 0-2.41 55.32c.12 18.31-.81 36.76-2.79 55.32-.5 4.95-1.06 9.84-1.67 14.66-.62 4.83-1.55 9.6-2.79 14.3-1.48 5.69-4.02 10.46-7.61 14.29-3.59 3.83-7.8 6.68-12.62 8.54-4.83 1.86-9.96 2.66-15.41 2.41-5.45-.25-10.89-1.61-16.33-4.09-5.7-2.72-10.65-6.12-14.85-10.21-4.22-4.08-7.3-9.09-9.28-15.04-1.74-4.95-3.29-10.15-4.64-15.59-1.37-5.44-2.04-10.76-2.04-15.96 0-42.07.75-84.28 2.23-126.6.49-6.18.86-12.38 1.11-18.57.25-6.18 1.36-12.25 3.34-18.19.98-5.45 3.22-9.78 6.68-13 3.46-3.22 6.92-5.01 10.39-5.38 3.46-.37 6.43.93 8.91 3.9 2.48 2.97 3.22 8.04 2.23 15.22.75 9.65 1.11 19.06 1.11 28.22-.49 19.8-.37 39.48.37 59.02.75 19.56.87 39.11.37 58.67.25 2.48.25 6.12 0 10.95-.25 4.83-.18 9.65.18 14.48.37 4.83 1.3 8.98 2.79 12.44 1.51 3.47 4.23 4.96 8.2 4.46zM767.54 1593.26c-4.71 3.46-8.61 4.76-11.69 3.9-3.1-.87-6-3.9-8.72-9.1-1.98-3.72-3.22-7.55-3.72-11.51-.5-3.95-.87-8.04-1.11-12.25-.25-3.46-.44-6.74-.56-9.84-.13-3.1-.32-6.37-.56-9.84-.25-1.48-.63-2.97-1.12-4.45-.5-1.48-.99-2.97-1.48-4.45-2.72-6.18-6.56-9.84-11.51-10.96-4.95-1.11-9.65.68-14.11 5.38-5.69 5.95-9.28 13.37-10.76 22.28-.75 4.45-1.37 8.98-1.86 13.55-.5 4.59-1.11 9.1-1.86 13.55-.49 3.22-1.24 6.26-2.22 9.1-.99 2.85-2.48 5.64-4.45 8.35-1.98 2.97-4.27 4.83-6.87 5.57-2.6.74-5.88-.62-9.84-4.09-3.72-3.21-5.82-7.8-6.31-13.73v-7.8c0-2.47.12-4.95.37-7.42 2.97-24.51 5.01-48.82 6.12-72.96 1.12-24.13 3.16-48.45 6.13-72.96.49-15.35 3.59-28.46 9.28-39.35 5.69-10.89 16.34-18.31 31.93-22.28 9.15-.25 16.39 1.48 21.72 5.2 5.32 3.71 9.28 8.3 11.88 13.73 2.6 5.45 4.26 11.26 5.01 17.45.74 6.19 1.11 11.51 1.11 15.96-.5 10.15-.74 19-.74 26.55 0 7.55.12 14.92.37 22.09.25 7.18.68 14.61 1.3 22.28.62 7.68 1.3 16.59 2.04 26.74.99 13.36 1.24 26.48.75 39.35-.5 12.87-.13 25.99 1.11 39.35 0 1.26.13 2.12.37 2.61zm-56.43-142.94h.37c0 6.68-.06 13.43-.18 20.24-.13 6.81-.06 13.55.18 20.24 0 5.7 2.35 8.54 7.06 8.54 4.21.49 7.91-.8 11.14-3.9 3.22-3.1 5.19-7.11 5.94-12.07.49-3.22.75-6.37.75-9.47v-9.46c.24-7.18.12-14.35-.37-21.54-.5-7.18-.62-14.35-.37-21.53.98-6.18.37-11.82-1.86-16.89-2.22-5.07-4.95-8.54-8.17-10.4-3.22-1.86-6.37-1.6-9.46.75-3.1 2.35-4.77 7.98-5.02 16.89v38.6zM851.07 1463.32c3.72-12.12 5.81-24.25 6.31-36.38.49-12.12.12-24.51-1.11-37.13a86.99 86.99 0 0 1-.37-7.98c0-2.6.25-5.14.74-7.61.25-1.48.75-2.91 1.48-4.27.75-1.36 1.61-2.65 2.6-3.9 3.46-3.95 7.36-5.68 11.69-5.19 4.33.49 7.49 3.22 9.47 8.16 1.72 4.22 2.6 9.04 2.6 14.48 0 5.95-.18 11.95-.56 18.01-.37 6.07-.81 12.07-1.3 18-1.98 26.98-3.84 53.65-5.56 80.01-1.74 26.36-3.6 52.9-5.57 79.63-.25 2.23-.44 4.4-.56 6.5-.13 2.1-.32 4.27-.56 6.49-.5 3.72-1.86 6.31-4.09 7.8-2.22 1.49-5.07 1.61-8.53.37-4.71-1.98-8.54-4.95-11.51-8.91-3.47-4.21-5.82-8.97-7.06-14.3-1.24-5.32-2.1-10.7-2.6-16.15-.75-7.18-1.37-14.42-1.86-21.72-.5-7.3-1.11-14.54-1.86-21.72-.25-2.22-.99-6.8-2.22-13.73-1.25-6.93-2.73-14.3-4.45-22.09-1.74-7.8-3.53-15.04-5.39-21.72-1.85-6.68-3.52-10.76-5.01-12.25-.5-.49-1.11-.93-1.86-1.3-.74-.37-1.73-1.05-2.97-2.04-.25 2.48-.37 4.52-.37 6.13v5.01c-.25 6.68-.43 15.91-.56 27.66-.13 11.76-.25 24.01-.37 36.76-.13 12.75-.25 25.01-.37 36.76-.13 11.76-.19 20.97-.19 27.66-.25 5.2-1.11 8.98-2.6 11.33s-4.09 3.9-7.8 4.64c-4.22.98-7.06.62-8.54-1.11-1.48-1.74-3.22-4.7-5.2-8.92-1.98-3.95-3.22-8.1-3.71-12.43-.49-4.33-.62-8.6-.37-12.81.98-13.61 1.86-27.1 2.6-40.46.75-13.37 1.48-26.86 2.23-40.47.98-17.08 1.91-34.09 2.79-51.05.87-16.95 1.79-33.97 2.78-51.05.25-2.97.75-5.62 1.49-7.98.74-2.35 2.84-4.14 6.31-5.38 2.72-.75 5.56-.62 8.53.37 2.97.99 5.45 3.1 7.43 6.32 2.71 3.96 4.83 8.04 6.31 12.25 4.69 11.88 9.28 23.58 13.73 35.08 4.45 11.51 8.91 23.2 13.37 35.09.49.99.92 1.92 1.29 2.79s.83 1.76 1.33 2.75zM974.34 1508.99c-.5 7.18-.99 14.73-1.48 22.64-.5 7.93-1.25 15.96-2.23 24.13-.5 3.96-1.24 7.86-2.23 11.69-.99 3.84-2.22 7.61-3.71 11.33-5.95 16.58-17.58 23.76-34.9 21.53-3.97-.5-7.87-1.24-11.7-2.22-3.83-.99-7.61-2.11-11.32-3.34-5.94-1.98-10.09-4.83-12.44-8.54-2.35-3.72-3.52-8.78-3.52-15.22.49-15.1.8-30.13.93-45.11.12-14.97.43-29.88.93-44.73.25-16.34.49-32.67.74-49l.75-49c.25-.99.37-1.98.37-2.98v-3.33c1.23-10.4 6.43-15.96 15.59-16.71 5.69-.74 11.38-1.05 17.08-.93 5.69.13 11.38.93 17.08 2.41 6.44 1.74 11.88 4.64 16.34 8.72 4.45 4.09 7.43 9.72 8.92 16.89 1.23 6.44 2.29 12.94 3.15 19.49.87 6.57 1.55 13.06 2.04 19.5 1.24 13.36 1.68 26.86 1.3 40.46-.4 13.6-.96 27.71-1.69 42.32zm-26.74-30.08c.49-10.39.8-20.6.93-30.63.13-10.03.31-20.24.56-30.63 0-3.72-.31-7.36-.92-10.96-.63-3.58-1.92-7.11-3.91-10.58-2.22-4.45-5.38-6.92-9.46-7.42-4.09-.49-7.86 1.11-11.32 4.83-2.98 2.48-4.83 5.57-5.57 9.28-1.24 5.7-1.61 11.51-1.11 17.45.98 13.87 1.79 27.72 2.41 41.58.61 13.87.56 27.85-.19 41.96-.49 10.39-1.11 20.6-1.85 30.63-.75 10.03-1.37 20.12-1.86 30.26-.25 2.22-.13 3.71.37 4.45.5.74 1.73 1.24 3.72 1.48 2.97.5 5.94.13 8.92-1.11 7.42-2.72 12.25-7.92 14.47-15.6 1.73-6.92 2.84-14.34 3.34-22.28.49-8.66.87-17.39 1.12-26.17.22-8.77.35-17.63.35-26.54zM642.63 1702.72c2.47 8.41 3.72 17.58 3.72 27.48-.5 24.01-.99 47.77-1.48 71.28-.5 23.51-.99 47.15-1.48 70.92-.25 4.95-.37 9.72-.37 14.29v13.92c0 2.48-.13 4.33-.37 5.56-.5 9.42-3.84 14.61-10.03 15.6-3.22.49-6.44-.14-9.65-1.86-3.22-1.73-5.57-4.33-7.06-7.8-2.48-5.45-3.59-10.4-3.34-14.85.25-6.93.56-13.8.93-20.61.37-6.8.93-13.67 1.67-20.6.75-8.66 1.61-17.27 2.6-25.8.98-8.54.49-17.14-1.48-25.81-.75-3.46-1.68-6.68-2.79-9.65-1.11-2.97-2.17-6.06-3.16-9.28h-2.22l-2.23 5.57a510.62 510.62 0 0 0-9.84 51.97c-2.36 17.33-4.02 34.9-5.01 52.72-.26 5.2-.95 8.79-2.07 10.76-1.13 1.98-3.45 3.22-6.95 3.72-4.27.74-8.29.18-12.04-1.68-3.76-1.86-6.27-4.76-7.52-8.72-.75-3.22-1.25-6.49-1.49-9.84s-.37-6.74-.37-10.21c-.25-2.47-.19-4.88.18-7.24.37-2.35.56-4.76.56-7.24v-2.23c-.5-5.94-1.61-13.42-3.34-22.46a794.55 794.55 0 0 0-5.56-26.55c-2.23-9.89-4.71-20.17-7.42-30.81 0 .74-.07 1.55-.19 2.41-.13.87-.18 1.79-.18 2.78-.25 5.95-.56 14.85-.93 26.73s-.75 24.39-1.11 37.5c-.37 13.12-.75 25.62-1.12 37.49-.37 11.88-.68 20.79-.93 26.74-.5 8.66-4.83 12.25-13 10.76-3.71-.75-6.93-2.23-9.65-4.45-2.73-2.23-4.59-5.2-5.57-8.92-1.98-7.18-2.97-14.35-2.97-21.53 0-19.31.06-38.55.18-57.74.13-19.17.19-38.42.19-57.73.24-11.88.3-23.57.18-35.08-.13-11.51-.06-23.2.18-35.09 0-2.47.13-4.88.37-7.24.25-2.35.75-4.76 1.48-7.24 1.25-3.71 3.23-5.99 5.96-6.87 2.74-.87 5.84-.3 9.32 1.68 2.73 1.48 5.22 3.59 7.45 6.31 18.39 18.81 29.81 40.22 34.29 64.22 1.98 8.67 3.85 17.08 5.59 25.25 1.48 6.93 2.98 13.92 4.47 20.97 1.49 7.05 2.73 12.69 3.73 16.89.75-3.96 1.56-8.72 2.43-14.3.88-5.56 1.75-11.14 2.64-16.7.87-5.57 1.74-10.96 2.62-16.16.87-5.19 1.68-9.65 2.44-13.36 2.48-11.14 4.83-22.15 7.06-33.05 2.23-10.88 4.45-21.9 6.68-33.04 1.73-7.67 6.56-11.01 14.48-10.02 5.69.99 10.39 2.97 14.11 5.94 3.7 3.02 6.17 7.1 7.41 12.3zM709.08 1901.72c5.94.5 10.82.99 14.66 1.48 3.83.5 7.06 1.3 9.65 2.41 2.6 1.11 4.83 2.6 6.68 4.45 1.86 1.86 3.9 4.27 6.12 7.24 1.73 1.98.37 3.72-4.08 5.2s-10.21 2.53-17.27 3.16c-7.05.61-14.35.74-21.9.37-7.55-.37-13.31-1.29-17.27-2.78-2.97-.99-5.19-2.79-6.68-5.39-1.48-2.6-2.54-5.38-3.16-8.35-.62-2.97-.93-5.81-.93-8.53 0-2.72-.13-4.83-.37-6.31-.49-25.49-1.11-50.8-1.85-75.92-.75-25.12-1.48-50.43-2.23-75.92-.25-5.94-.37-11.94-.37-18 0-6.07-.13-12.19-.37-18.38 0-2.72.25-5.26.75-7.61.49-2.35 1.36-4.64 2.6-6.87 1.48-1.98 2.91-3.34 4.27-4.09 1.36-.74 3.28-.49 5.76.75 2.97 1.48 6.99 2.41 12.07 2.79 5.07.37 9.22.44 12.44.18 3.21 0 6.37-.06 9.46-.18 3.1-.13 6.25-.06 9.47.18 3.71.25 7.18 1.06 10.39 2.41 3.22 1.37 5.81 3.65 7.8 6.87 1.98 3.22 2.48 6.07 1.48 8.54-.99 2.48-3.47 3.72-7.42 3.72-1.98.25-3.9.13-5.76-.37-1.86-.49-3.78-.87-5.76-1.11-1.24-.5-2.54-.87-3.9-1.12-1.36-.24-2.66-.37-3.9-.37-4.95-.49-8.41.25-10.39 2.23-1.98 1.98-3.1 5.45-3.34 10.4 0 2.72.06 5.45.18 8.16.13 2.73.31 5.45.56 8.17.49 9.42.87 18.7 1.12 27.85.24 9.16.61 18.31 1.11 27.48.25 3.47.8 5.75 1.67 6.87.87 1.11 2.91 2.17 6.13 3.15 1.48.5 2.97.75 4.45.75s2.84.13 4.09.37c3.46.25 6.8.74 10.02 1.48 1.48.49 2.79 1.17 3.9 2.04 1.12.87 1.79 2.29 2.05 4.27.98 3.96-.25 6.56-3.72 7.8-1.98.99-3.78 1.55-5.38 1.67-1.61.13-3.52.56-5.76 1.3-1.24.25-2.41.37-3.52.37-1.12 0-2.29.13-3.53.37-3.22.75-5.63 2.29-7.24 4.64-1.61 2.36-2.54 5.14-2.78 8.35a886.19 886.19 0 0 0-.19 31.75c.13 10.48.19 21.19.19 32.08z"/><path d="M1051.26 342.72s-63.32-27.92-163.94 4.06c-102.29 32.52-136.5 45.39-150.05 71.13-13.55 25.74-18.75 67.77 30.82 64.36 39.29-2.71 31.36-52.37 172.4-76.55 142.26-24.39 181.8 73.4 167.66 178.16-23.03 170.71-105.68 216.78-327.87 367.16-61.75 41.8-142.26 66.39-142.26 90.78 0 0-1.65 59.55 23.03 63 5.42.76 17.37 18.05 159.53-60.97 436.94-242.86 478.6-598.51 368.86-785.48-71.72-122.19-297.73-118.89-394.26-104.66s-101.61 38.61-101.61 38.61"/><path class="st1" d="M1056.06 340.27c-13.52-5.93-29.16-8.35-43.68-9.98-38.93-4.36-78.74.69-116.25 11.5-21.97 6.33-43.71 13.72-65.36 21.04-15.4 5.2-30.78 10.57-45.77 16.87-17.62 7.4-37.4 16.2-49.09 32.08-11.4 15.5-20.74 43.83-8.09 61 8.47 11.5 24.64 13.09 37.81 12.13 7.6-.55 15.05-2.51 21.79-6.1 12.6-6.71 22.32-17.98 33.58-26.58 21.08-16.11 45.76-26.32 71.15-33.51 60.81-17.21 141.01-28.22 184.73 28.96 35.68 46.67 31.2 112.58 20.61 166.85-10.2 52.21-30.94 100.56-65.72 141.15-40.9 47.72-93.82 84.33-145.16 119.81-36.73 25.38-73.84 50.21-110.87 75.15-33.72 22.71-71.02 38.76-106.5 58.35-11.04 6.1-23.38 12.64-31.73 22.36-4.6 5.36-5.47 10.47-5.35 17.18.2 11.08 1.2 22.33 3.97 33.08 2.52 9.8 7.23 21.99 17.94 25.17 1.09.32 2.22.4 3.32.68-1.81-.46-.96-.21-.65-.1.27.09.55.16.82.27.66.27 1.34.5 2.02.71 2.66.81 5.42 1.15 8.19 1.22 14 .37 28.2-4.4 41.2-9.03 30.17-10.76 59.02-25.48 87.26-40.47 40.26-21.37 79.63-44.46 117.4-69.99 63.85-43.17 123.49-93.15 174.69-150.89 42.7-48.16 79.53-101.85 106.94-160.18 23.33-49.66 39.76-102.67 47.08-157.1 6.43-47.8 5.95-96.63-2.83-144.1-7.79-42.11-22.07-83.31-43.75-120.34-30.36-51.86-86.81-80.01-142.98-95.13-59.82-16.11-122.93-19.98-184.64-17.55-24.69.97-49.39 3.04-73.83 6.73-19.9 3-39.82 6.86-59.02 12.95-11.13 3.53-22.17 7.72-32.18 13.81-5.07 3.08-13.93 8.49-15.34 15.01-.68 3.16 10.96 1.33 11.66-1.9.44-2.01 1.23-2.67 2.27-3.88 3.56-4.13 7.81-6.98 12.81-9.69 10.93-5.91 22.95-9.68 34.92-12.81 17.37-4.55 35.14-7.6 52.93-9.93 54-7.08 109.38-7.59 163.51-1.84 59.69 6.34 122.7 20.75 171.87 56.94 21.81 16.05 38.7 36.14 51.54 59.89 9.78 18.08 17.89 37.04 24.42 56.52 14.28 42.56 21.03 87.51 21.21 132.35.21 50.83-8.1 101.51-23.24 149.99-17.47 55.95-44 108.9-76.85 157.38-38.87 57.37-86.54 108.54-139.06 153.62-64.75 55.58-137.05 101.64-212.51 141.21-26.44 13.87-53.44 27.55-81.76 37.23-3.59 1.23-6.8 2.23-10.89 3.33-1.54.41-3.1.79-4.65 1.16-1.8.42.53-.08-1.22.26-.72.14-1.44.28-2.16.4-1.23.21-2.46.39-3.7.55-1.31.17 1.03-.07-.45.04-.63.05-1.27.1-1.9.13-.56.03-3.21.01-1.5.06-.78-.02-1.56-.07-2.34-.13-.59-.04-1.18-.14-1.77-.23 1.52.24-.32-.06-.75-.19-.79-.23-1.56-.5-2.34-.75-4.1-1.3-7.72-2.15-10.89-5.46-7.94-8.27-10.17-21.82-11.6-32.72-1.04-7.92-1.88-16.27-1.41-24.27.49-8.4 8.44-14.29 14.75-18.74 12.95-9.12 27.42-16.11 41.51-23.26 18.2-9.23 36.47-18.31 54.23-28.37 19.07-10.8 37.04-23.19 55.2-35.43 61.45-41.45 124.69-81.62 181.44-129.52 39.66-33.47 74.78-72.12 95.99-120.01 10.89-24.6 18.09-50.66 22.97-77.08 5.42-29.27 8.63-59.17 5.51-88.91-2.73-26.04-10.34-51.99-25.84-73.39-15.6-21.52-38.64-35.76-64.33-42.02-36.31-8.85-74.12-3.36-110.05 4.54-30.63 6.74-61.26 16.32-88.22 32.68-14.09 8.55-25.85 19.87-38.46 30.01-2.27 1.83-4.62 3.59-7.12 5.09.83-.5-.93.52-1.21.66-.66.34-1.31.67-1.98.98.46-.21-2.97 1.05-2.15.81-.59.17-1.19.33-1.79.48-1.5.38.93-.18-.04.01-.4.08-.79.16-1.19.22-2.29.33-3.6.46-6.96.49-7.03.07-14.54-1-20.56-4.86-20.07-12.88-10.94-44.35-.91-60.79 9.12-14.95 26.26-23.27 41.75-29.96 14.5-6.26 29.43-11.53 44.37-16.63 21.1-7.2 42.3-14.31 63.67-20.65 36.47-10.83 75.06-15.73 112.97-11.04 13.02 1.61 26.88 3.98 39.01 9.29 2.77 1.24 13.51-3.15 9.58-4.87z"/><path d="M295.25 449.75s21.68-54.19 81.29-92.13 132.23-33.32 216.78-8.13c82.98 24.73 143.54 72.76 121.94 113.81-13.55 25.74-27.1 16.26-127.36-32.52s-207.29-14.9-246.58 97.55c-43.61 124.82-13.98 232.98 69.1 338.71 44.71 56.9 119.23 126 207.29 168 67.65 32.26 46.07 98.9-2.71 92.13-48.77-6.77-117.87-42-182.91-93.48S245.33 892.11 169.25 676.01c-93.48-265.55 16.26-552.78 323.81-540.59 134.58 5.34 184.33 29.6 200.52 56.9 12.49 21.07 14.56 50.47-7.11 47.76"/><path class="st1" d="M300.81 450.13c5.31-13.2 13.53-25.6 21.99-36.94 19.4-25.99 45.11-48.78 74.48-62.79 29.85-14.24 63.06-18.25 95.81-16.24 38.26 2.35 76.69 11.53 112.84 24.07 30.92 10.73 63.03 25.56 86.71 48.72 15.09 14.77 27.88 36.09 16.59 56.87-.61 1.13-1.26 2.24-1.95 3.32-.72 1.11-1.39 2.03-1.68 2.37-.68.8-1.4 1.55-2.18 2.26 1.11-1-2.54 1.78-.8.64-.39.26-.88.46-1.32.62-.97.37 1.39-.41-.22.06-.46.14-2.07.39-.28.12-.6.09-1.21.18-1.82.21-1.33.05.62.04-.44.02-.61-.01-1.23-.04-1.84-.09-1.9-.15-2.2-.22-3.78-.55-7.98-1.7-15.63-4.87-23.09-8.09-12.16-5.26-24.08-11.07-35.99-16.86-30.01-14.58-59.43-30.97-92.34-38.04-27.21-5.84-55.52-6.15-82.65.36-57.52 13.81-100.27 57.73-121 112.07-24.75 64.87-29.79 136.53-10.47 203.46 19.13 66.28 58.99 125.86 105.3 176.28 48.49 52.8 106.18 98.74 170.25 131.17 14.19 7.18 28.34 13.67 38.91 25.99 7.1 8.28 12.16 18.57 12.68 29.61.84 17.88-11.4 34.51-29.97 35.12-12.46.41-25.81-3.92-37.54-7.63-15.64-4.94-30.78-11.34-45.51-18.53-35.04-17.11-67.95-38.59-98.77-62.42-30.5-23.58-60.61-47.82-88.41-74.57-38.32-36.86-72.15-78.19-100.76-123.01-37.18-58.24-66.67-122.41-86.68-188.55-16.1-53.25-24.82-108.98-23.96-164.66.79-51.45 9.59-103.31 28.9-151.15 18.09-44.82 45.33-85.85 81.48-118.11 37.77-33.7 84.2-56.09 133.41-67.27 28.44-6.46 57.73-9.24 86.87-9.16 35.52.11 71.45 2.87 106.57 8.18 23.14 3.5 46.75 8.32 68.4 17.45 12.78 5.39 25.5 12.48 34.54 23.23 5.92 7.04 9.93 15.62 12.22 24.5 1.49 5.78 2.43 12.14.94 18.02-1.15 4.52-2.97 6.58-7.61 6.11-2.52-.25-6.54.91-7.73 3.39-1.23 2.58 1.07 3.91 3.37 4.14 12.59 1.26 23.34-5.81 24.43-18.81 1.07-12.72-3.88-26.18-10.69-36.74-7.3-11.32-18.82-19.51-30.63-25.58-19.76-10.15-41.74-15.8-63.44-19.95-34.85-6.67-70.39-9.51-105.8-11-59.02-2.48-118.79 5.18-173.26 28.9-46.7 20.34-87.66 52.17-118.86 92.43-31.16 40.2-51.97 87.68-63.51 137.06-12.45 53.23-14.29 108.69-8.09 162.9 7.36 64.29 26.89 126.08 52.81 185.2 26.23 59.83 59.63 116.61 100.9 167.32 29.69 36.49 63.36 69.39 99.56 99.37 44.63 36.96 90.92 72.54 143.11 98.25 15.07 7.42 30.59 14.08 46.57 19.3 12.86 4.21 26.84 8.36 40.45 8.88 20.89.79 41.4-10.89 47.14-31.76 6.5-23.62-8.93-45.87-27.47-58.9-7.21-5.07-15.15-8.68-23.01-12.61-8.82-4.4-17.49-9.08-26.04-13.98-16.91-9.71-33.27-20.37-49.08-31.77-57.7-41.61-109.14-93.21-148.74-152.41-39.86-59.59-65.83-128.53-63.24-201 1.32-36.95 9.11-74.37 22.64-108.79 11.21-28.53 28.56-55.08 52.53-74.49 45.63-36.92 106.73-40.23 160.44-20.48 17.35 6.38 33.76 15.25 50.35 23.36 13.66 6.67 27.3 13.4 41.15 19.65 13.42 6.06 30 14.83 45.3 12.41 13.53-2.14 22.07-14.81 24.9-27.45 5.4-24.06-13.55-45.51-30.72-59.52-27.57-22.5-61.65-36.94-95.45-47.19-36.8-11.16-75.19-19.74-113.78-20.33-33.94-.52-68.13 5.56-98.37 21.45-29.58 15.55-55.19 38.55-75.07 65.33-8.32 11.21-16.4 23.44-21.64 36.47-2.29 5.8 9.47 4.92 11.14.78z"/><path d="M286.11 283.78s67.07-65.03 165.63-72.15 201.43 20.4 225.58 28.45c45.73 15.24 49.79 54.87 21.34 56.9-28.45 2.03-69.1-12.19-69.1-12.19"/><path class="st1" d="M290.86 284.86c14.57-14.09 32.25-25.58 49.81-35.5 18.22-10.29 37.61-18.7 57.68-24.65 24.55-7.27 49.65-10.21 75.2-10.68 51.48-.96 103.11 5.71 153.3 16.92 14.54 3.25 29.06 6.83 43.28 11.28 15.63 4.89 33.51 14.24 39.18 30.84 1.9 5.56 2.3 12.55-1.92 17.22-5.16 5.71-16.45 3.51-23.15 2.88-17.27-1.62-34.72-5.98-51.1-11.68-3.9-1.36-13.76 4.31-7.15 6.62 15.51 5.41 31.82 9.31 48.1 11.38 15.07 1.91 39.69 4.23 46.97-13.31 6.16-14.84-6.5-30.23-17.75-38.32-13.38-9.64-29.95-13.69-45.69-17.81-48.92-12.79-99.56-20.76-150.11-22.66-29.04-1.09-58.48-.43-87.05 5.26-23.61 4.7-46.6 12.62-68.28 23.08-25.14 12.12-50.62 27.44-70.83 46.98-1.85 1.78-1.19 3.7 1.18 4.39 2.59.74 6.42-.39 8.33-2.24z"/><path class="st1" d="M285.31 369.59c16.17-17.08 34.13-32.74 52.68-47.16 16.07-12.5 33.03-24.16 51.27-33.29 21.11-10.57 44.32-15.85 67.6-19.1 46.07-6.43 92.57-3.4 137.45 8.57 19.38 5.17 38.19 12.01 55.77 21.73 10.01 5.54 19.58 11.85 28.77 18.65 8.17 6.04 17.36 12.16 23.86 20.08 7.3 8.9 12.73 22.57 8.33 33.96-1.68 4.35-5.13 8.87-9.89 9.98-9.27 2.16-20.81-1.68-29.44-4.64-2.35-.81-5.29.03-7.54.83-.41.14-5.27 2.48-3.59 3.05 16.69 5.73 36.66 9.13 52.67-.61 10.1-6.15 12.72-17.79 9.94-28.74-4.34-17.08-19.11-27.32-32.51-37.28-18.77-13.97-39.09-25.54-61.14-33.48-44.56-16.04-92.15-22.03-139.34-19.21-28.26 1.69-57.06 6.21-83.98 15.18-20.51 6.83-39.56 17.71-57.38 29.81-26.66 18.11-51.96 39.36-74.14 62.79-1.73 1.82 1.57 1.7 2.69 1.61 2.3-.18 6.24-.94 7.92-2.73z"/><path class="st1" d="M743.52 402.48c-1.6.14 3.03-.02.97-.07-1.14-.03-2.29.04-3.44.02-2.27-.03-1.13.03-3.56-.26-2.05-.25-4.1-.59-6.09-1.12-9-2.39-15.46-8.42-16.9-17.8-.59-3.86-24.37 1.04-23.56 6.31 2.99 19.43 25.87 22.88 42.11 21.42 4.86-.44 12.21-1.85 15.82-5.42 3.6-3.55-3.29-3.26-5.35-3.08zM718.38 343.9c1.01-1.21-.41.4.66-.75 1.28-1.39 2.58-2.76 3.92-4.1 4.76-4.77 9.82-9.23 15.06-13.45 18.13-14.6 38.68-26.18 60.27-34.8 64.75-25.85 138.84-22.48 206.4-11.02 17.48 2.97 35.07 6.39 52.13 11.32 3.84 1.11 13.83-4.59 7.18-6.51-14.76-4.27-29.94-7.33-45.04-10.07-34.49-6.26-69.61-9.89-104.67-9.74-37.66.16-75.17 4.75-110.8 17.32-24.62 8.68-47.96 21.05-68.84 36.73-9.73 7.3-19.44 15.34-27.25 24.75-1.85 2.22 1.58 3.47 3.22 3.57 2.83.17 5.95-1.07 7.76-3.25z"/><path d="M713.9 264.48s46.74-7.11 105.68-28.45c58.94-21.34 173.76-21.34 212.37-6.1"/><path class="st1" d="M713.26 268.35c12.54-1.92 24.99-4.72 37.31-7.7 13.06-3.16 26.02-6.72 38.86-10.66 13.63-4.18 26.92-9.42 40.57-13.49 21.73-6.48 44.41-9.62 66.95-11.53 23.94-2.03 48.04-2.5 72.03-1.18 19.76 1.09 40.85 2.56 59.49 9.79 4.45 1.73 13.75-4.67 6.97-7.3-16.38-6.36-34.74-8.23-52.12-9.6-24.08-1.9-48.36-1.84-72.46-.38-23.76 1.44-47.6 4.28-70.77 9.83-12.02 2.88-23.48 7.16-35.18 11.11a672.956 672.956 0 0 1-43.3 12.98c-11.42 3.01-22.93 5.73-34.51 8.07-5.21 1.05-7.66 1.57-12.56 2.31-2.31.35-6.29 1.58-6.57 4.44-.27 2.74 3.17 3.64 5.29 3.31zM706.16 317.49c-1.15-.49 1.78 1.15 1.26.6-.36-.39-1.23-.65-1.7-.91-.86-.5-1.69-1.03-2.49-1.61-.41-.29-.81-.6-1.21-.91-1.24-.98.27.34-.44-.38-3.63-3.69-5.03-7.11-2.6-12.33 5.51-11.87-18.22-11.4-22.42-2.33-3.83 8.25-3.53 17.3 2.83 24.23 3.65 3.98 8.09 6.91 13.03 9 5.24 2.21 13.04-.33 16.66-4.46 3.8-4.33 2-8.82-2.92-10.9zM754.45 450.64c16.45-11.89 45.88-42.51 27.13-63.48-2.33-2.61-13.51 1.53-11.01 4.33 16.93 18.94-10.67 47.36-25.36 57.97-2.08 1.5-1.15 2.89.92 3.42 2.56.64 6.26-.75 8.32-2.24zM728.33 381.18c13.94-6.18 25.73-16.08 33.12-29.54 3.63-6.61 7.17-15.43 3.74-22.85-3.15-6.82-9.87-9.27-16.96-8.27-1.65.23-6.68 1.43-6.77 3.7-.1 2.42 3.28 2.23 4.94 2 2.61-.37 5.64 3.12 6.71 5.07 1.44 2.62 1.81 5.82 1.48 8.75-.65 5.87-3.6 11.61-6.8 16.47-5.88 8.93-14.09 16.31-23.9 20.66-1.58.7-4.59 2.12-3.28 4.2 1.17 1.85 6.38.41 7.72-.19zM730.71 272.17c6.04-.78 12.32-.59 14.99 5.87 1.83 4.43 1.27 9.65-.54 13.98-1.64 3.91-5.66 10.31-10.23 11.13-5.28.94-10.8-4.63-12.5-8.93-1.09-2.75-12.65.97-11.78 3.16 6.92 17.44 32.48 10.51 41.84-.64 4.84-5.77 8.03-14.47 4.99-21.84-3.6-8.74-13.74-8.42-21.65-7.39-2.09.27-6.67.76-7.89 2.8-1.16 1.91 1.02 2.08 2.77 1.86zM720.43 231.66c14.84-5.31 33.49-12.97 36.17-30.77 2.59-17.15-12.91-29.43-28.55-30.79-2.71-.24-6.52.83-7.67 3.61-1.08 2.63.99 4.74 3.59 4.96 11.74 1.02 22.65 10.45 20.69 23.11-1.97 12.76-15.81 18-26.4 21.79-2.25.81-5.6 2.66-4.81 5.62.73 2.7 4.76 3.26 6.98 2.47zM656.71 169.18c-5.14 2.09-12.72 5.19-14.29 11.2-1.72 6.56 6.56 13.86 11.06 17.5 9.35 7.56 28.18 15.84 38.47 5.25 1.85-1.91-1.64-2.12-2.82-2.07-2.46.11-6.07.99-7.87 2.85 1.18-1.21 5.41.04 2.25-1.06-.94-.33-1.99-.44-2.95-.71-2.43-.67-4.8-1.55-7.07-2.65a46.44 46.44 0 0 1-10.67-7.15c-3.09-2.76-7.01-6.49-8.38-10.48-1.68-4.92 2.26-8.13 6.39-9.81 1.24-.51 4.66-1.69 3.48-3.47-1.02-1.54-6.51.15-7.6.6zM646.72 236.47c-4.85 4.5-6.96 11.78-4.51 18.08 2.73 7.02 10.77 11.08 17.38 13.66 12.46 4.88 36.06 7.36 44.65-5.89 2.51-3.87-9.03-2.33-10.8.39-3.06 4.71-9.06 3.86-14.05 3.16a45.151 45.151 0 0 1-17.01-6.03c-4.08-2.46-7.81-5.47-8.96-10.31-1.19-5.01.35-9.97 4.09-13.45 2.07-1.93-1.79-2.61-2.96-2.6-2.77.01-5.8 1.1-7.83 2.99z"/><path class="st1" d="M660.4 305.4c-7.76-3.86-17.8 1.06-19.54 9.53-1.81 8.8-.19 18.33 8.19 22.74 4.95 2.6 10.15 4.83 15.26 7.1 4.49 2 9.1 4.24 13.94 5.22 8.7 1.77 18.38-.57 23.65-8.08 1.67-2.38-1.44-3.85-3.34-4.03-2.81-.26-6.1 1.03-7.73 3.36-2.73 3.89-8.8 1.02-12.21-.39-5.26-2.19-10.44-4.6-15.58-7.03-4.33-2.04-8.97-3.62-10.19-8.75-.59-2.47-.6-5.1-.52-7.64.04-1.26.08-2.54.36-3.78.06-.58.23-1.12.52-1.63.89-1.41.2-1.58-2.08-.52 2.56 1.27 6.08.63 8.38-.95 1.63-1.11 3.5-3.85.89-5.15zM653.95 381.24c-10.33-.3-13.6 8.1-11.88 17.05 1.83 9.51 8.11 17.87 15.85 23.47 8.4 6.07 18.8 9.05 28.99 10.23 4.92.57 10.75 1.4 15.33-1.01 3.76-1.98 5.58-5.46 3.62-9.32-2.25-4.42-13.53-.26-10.81 5.09 3.15-1.78 3.76-2.63 1.85-2.53-.54-.02-1.08-.05-1.62-.09-1.41-.09-2.81-.21-4.21-.37-2.9-.34-5.78-.82-8.6-1.57-5.77-1.52-11.25-3.9-16.03-7.5-4.22-3.17-7.82-7.43-10.14-12.18a29.564 29.564 0 0 1-2.45-7.37c-.26-1.36-.52-2.81-.46-4.2.15-3.48 1.52-1.31-3.6-1.46 2.69.08 6.48-.75 7.69-3.54 1.07-2.51-.97-4.63-3.53-4.7zM525.16 1080.42c15.56-4.92 33.03-9.91 48.29-1.23 6.42 3.65 11.22 9.32 15.54 15.2 4.88 6.64 9.63 13.38 14.43 20.08 2.08 2.89 12.74-1.82 11.78-3.16-10.22-14.23-19.9-33.04-37.41-39.16-18.57-6.5-38.84-.13-56.72 5.53-1.26.4-4.62 1.7-3.5 3.39 1.03 1.56 6.48-.3 7.59-.65zM720.99 1092.85c3.15-17.05 13.88-31.43 28.74-40.21 14.2-8.39 35.25-14.08 50.52-5.57 3.78 2.11 14.47-3.22 9.26-6.12-19.02-10.6-44.92-4.5-63.13 5.16-18.69 9.91-33.32 26.86-37.22 48-.94 5.05 11 3.24 11.83-1.26zM917.1 917.66c11.51 10.6 23.02 21.2 34.54 31.79 7.64 7.04 28.17-4.36 18.16-13.57-11.51-10.6-23.02-21.2-34.54-31.79-7.64-7.03-28.17 4.36-18.16 13.57zM952.03 892.39c9.48 10.84 18.96 21.69 28.44 32.53 5.84 6.68 28.39-2.01 21.78-9.56-9.48-10.84-18.96-21.69-28.44-32.53-5.84-6.68-28.39 2.01-21.78 9.56zM315.53 901.87c8.14-7.8 17.13-14.58 26.69-20.53 4.09-2.54 2.48-5.99-1.75-6.52-5.78-.73-11.84 1.47-16.66 4.46-10.8 6.71-20.7 14.58-29.88 23.38-4.03 3.86 3.47 5.25 5.92 5.18 5.53-.17 11.63-2.1 15.68-5.97zM340.74 927.97c.66-1.83 1.95-4.12 3.33-6.01.1-.14 1.12-1.39.72-.93-.41.47.72-.71.84-.83.44-.44.96-.83 1.37-1.28 1.04-1.16-1.78 1.24.46-.38 3.29-2.38 6.84-7.16 1.86-9.95-4.66-2.62-12.6-.98-16.73 2.01-7.23 5.22-12.45 11.63-15.48 20.05-.68 1.89 1.09 3.84 2.52 4.65 2.16 1.22 5.47 1.4 7.83 1.08 5.24-.73 11.35-3.04 13.28-8.41zM484.55 338.88c-.59 8.2-.22 16.3 1.12 24.41.48 2.92 12.35.29 11.78-3.16-1.34-8.11-1.71-16.21-1.12-24.41.16-2.22-11.5-.71-11.78 3.16zM518.34 338.88v35.23c0 1.99 11.78.3 11.78-3.16v-35.23c-.01-1.99-11.78-.3-11.78 3.16zM495.22 268.63v24.39c0 6.25 11.95 4.57 11.95-.85v-24.39c0-6.25-11.95-4.57-11.95.85zM523.76 269.78v25.74c0 3.42 11.78 1.28 11.78-3.16v-25.74c-.01-3.42-11.78-1.28-11.78 3.16zM489.54 215.62c.87 7.68 1.73 15.36 2.6 23.04.52 4.6 12.35 1.87 11.78-3.16-.87-7.68-1.73-15.36-2.6-23.04-.52-4.59-12.35-1.86-11.78 3.16zM523.73 218.73v16.26c0 5.28 11.82 2.97 11.82-1.31v-16.26c.01-5.28-11.82-2.97-11.82 1.31zM477.66 135.67c4.86 8.06 8.57 16.6 11.12 25.65.65 2.32 12.42-.87 11.78-3.16-2.56-9.06-6.26-17.6-11.12-25.65-1.61-2.67-12.54 1.89-11.78 3.16zM519.75 141.07l1.62 29.79c.11 1.94 11.95.02 11.78-3.16l-1.62-29.79c-.11-1.94-11.95-.02-11.78 3.16zM875.92 152.06v23.03c0 6.45 11.97 4.95 11.97-.74v-23.03c0-6.46-11.97-4.95-11.97.74zM912.39 150.58c1.2 8.99.33 17.69-2.53 26.3-1.16 3.5 10.51 1.99 11.73-1.66 3-9.04 3.83-18.36 2.58-27.79-.46-3.44-12.32-.85-11.78 3.15zM881.44 227.78v20.32c0 1.99 11.78.3 11.78-3.16v-20.32c-.01-1.99-11.78-.3-11.78 3.16zM912.6 222.36v18.97c0 2.25 11.78.48 11.78-3.16V219.2c0-2.25-11.78-.48-11.78 3.16zM875.37 269.84l3.15 36.54c.16 1.84 12.03-.22 11.78-3.16l-3.15-36.54c-.16-1.84-12.03.22-11.78 3.16zM913.95 272.49v28.45c0 1.9 11.78.24 11.78-3.16v-28.45c0-1.9-11.78-.24-11.78 3.16zM889.57 349.72v27.1c0 1.42 11.78-.1 11.78-3.16v-27.1c-.01-1.42-11.78.1-11.78 3.16zM919.49 342.19c-.84 9.89-.07 19.64 2.49 29.24.99 3.73 12.78.62 11.78-3.16-2.43-9.1-3.33-18.31-2.53-27.7.37-4.35-11.43-2.03-11.74 1.62z"/></svg>