<svg width="63" height="41" xmlns="http://www.w3.org/2000/svg"><g fill-rule="nonzero" fill="none"><path d="M1.413 16.69c2.242 3.756 5.65-1.525 11.617-5.088 5.969-3.559 12.236-4.051 9.996-7.807-2.24-3.752-8.895-3.912-14.863-.352-5.967 3.564-8.99 9.494-6.75 13.247Z" fill="#F25595"/><path d="M9.265 6.556C4.54 9.376 1.673 13.679 1.79 17.214c2.244 2.652 5.598-2.242 11.24-5.611 4.621-2.756 9.402-3.678 10.295-5.695-2.76-2.739-8.683-2.559-14.06.648Z" fill="#DD4389"/><path d="M61.587 16.69c-2.24 3.756-5.65-1.525-11.617-5.088-5.967-3.559-12.236-4.051-9.996-7.807 2.24-3.752 8.895-3.912 14.863-.352 5.967 3.564 8.99 9.494 6.75 13.247Z" fill="#F25595"/><path d="M53.737 6.556c4.725 2.82 7.59 7.123 7.473 10.658-2.244 2.652-5.596-2.242-11.24-5.611-4.619-2.756-9.402-3.678-10.293-5.695 2.76-2.739 8.681-2.559 14.06.648Z" fill="#DD4389"/><path d="M61.08 24.718c0 12.031-13.243 15.408-29.579 15.408s-29.58-3.377-29.58-15.408c0-12.033 13.244-21.787 29.58-21.787S61.08 12.685 61.08 24.718Z" fill="#FF80BA"/><path d="M61.08 24.718c0 12.031-13.243 15.408-29.579 15.408s-29.58-3.377-29.58-15.408c0-12.033 13.244-18.762 29.58-18.762S61.08 12.685 61.08 24.718Z" fill="#F25595"/><path d="M61.08 24.718c0 12.031-13.243 15.408-29.579 15.408s-29.58-3.377-29.58-15.408c0-12.033 13.244-5.492 29.58-5.492s29.579-6.541 29.579 5.492Z" fill="#DD4389"/><g transform="translate(17 19)" fill="#082856"><circle cx="2.811" cy="3.413" r="2.657"/><circle cx="26.191" cy="3.413" r="2.657"/></g><g fill="#000"><path d="M22.468 22.413a2.656 2.656 0 1 1-5.314 0M45.848 22.413a2.656 2.656 0 1 1-5.313 0"/></g><path d="M21.804 28.854c0-3.943 4.34-5.051 9.697-5.051 5.355 0 9.697 1.107 9.697 5.051 0 3.945-4.342 7.145-9.697 7.145-5.357 0-9.697-3.199-9.697-7.145Z" fill="#E276B7"/><path d="M21.804 28.854c0-3.943 4.34-5.051 9.697-5.051 5.355 0 9.697 1.107 9.697 5.051 0 3.945-4.342 6.152-9.697 6.152-5.357.001-9.697-2.206-9.697-6.152Z" fill="#F28FC5"/><path d="M21.804 28.854c0-3.943 4.34-5.051 9.697-5.051 5.355 0 9.697 1.107 9.697 5.051 0 3.945-4.342 1.803-9.697 1.803-5.357 0-9.697 2.143-9.697-1.803Z" fill="#FFA4D2"/><g transform="translate(26 28)" fill="#DD4389"><circle cx="9.333" cy="1.61" r="1"/><circle cx="1.669" cy="1.61" r="1"/></g><g fill="#BA2A79"><path d="M34.462 29.61a.87.87 0 1 1 1.742 0M26.798 29.61a.871.871 0 0 1 1.742 0"/></g></g></svg>