<svg width="114" height="32" viewBox="0 0 114 32" fill="none" xmlns="http://www.w3.org/2000/svg">
<g clip-path="url(#clip0_600_188418)">
<path d="M0 4.59814H6.80116V27.3637H0V4.59814Z" fill="#161617"/>
<path d="M37.3524 27.3637H30.8044V13.2396L26.6803 27.3637H21.688L17.3106 13.2396V27.3637H10.7627V4.59814H19.3546L24.148 19.3031L28.9775 4.59814H37.3343V27.3637H37.3524Z" fill="#161617"/>
<path d="M53.1249 14.7474H65.8952V19.2133H63.7246C62.8745 24.4599 58.9674 28 52.2748 28C44.4969 28 40.1919 22.5356 40.1919 16C40.1919 9.75492 44.6235 4 52.2567 4C58.8408 4 63.1096 7.90318 63.5437 12.5325H56.0914C55.8563 11.2254 54.572 9.79123 52.2024 9.79123C48.5667 9.79123 47.0835 12.8775 47.0835 16.1089C47.0835 19.649 48.8923 22.4448 52.6185 22.4448C55.1508 22.4448 56.5798 21.0106 56.9054 19.2315H53.143V14.7474H53.1249Z" fill="#161617"/>
<path d="M71.6112 19.958C73.8722 19.958 75.5906 21.719 75.5906 23.8612C75.5906 26.0034 73.8722 27.7644 71.6112 27.7644C69.4044 27.7644 67.686 26.0034 67.686 23.8612C67.686 21.719 69.4044 19.958 71.6112 19.958Z" fill="#471AFF"/>
<path d="M91.3273 21.5724V27.3637H78.6475V4.59814H85.3944V21.5724H91.3273Z" fill="#161617"/>
<path d="M102.668 27.3618H95.0894L99.0145 19.3194L91.3994 4.57812H99.3039L102.958 12.6749L106.395 4.57812H113.919L102.668 27.3618Z" fill="#161617"/>
</g>
<defs>
<clipPath id="clip0_600_188418">
<rect width="113.919" height="32" fill="white"/>
</clipPath>
</defs>
</svg>
