<svg xmlns="http://www.w3.org/2000/svg" viewBox="0 0 2048 2048" style="enable-background:new 0 0 2048 2048" xml:space="preserve"><style>.st0{display:none}.st1{display:inline}.st2{fill:#e6ff00}.st3{fill:#fff}.st6{fill:#00ffc1}.st8{fill:#e6d200}</style><g id="Ebene_7"><circle class="st2" cx="1024" cy="1024" r="945.54"/><path d="M1024 2021.23c-549.88 0-997.23-447.36-997.23-997.23S474.12 26.76 1024 26.76s997.23 447.36 997.23 997.23-447.35 997.24-997.23 997.24zm0-1891.07c-492.87 0-893.84 400.97-893.84 893.84s400.97 893.84 893.84 893.84 893.84-400.97 893.84-893.84S1516.87 130.16 1024 130.16z"/><path d="M1190.33 1546.57h-93.53c0-33.4-32.66-60.57-72.8-60.57s-72.8 27.17-72.8 60.57h-93.53c0-84.97 74.61-154.1 166.33-154.1s166.33 69.13 166.33 154.1z"/><path class="st6" d="m1514.51 1839.9-202.03 97.86V839.44h202.03zM529.91 1839.9l202.04 97.86V839.44H529.91z"/><path d="M1024 155.88c479.45 0 868.12 388.67 868.12 868.12s-388.67 868.12-868.12 868.12S155.88 1503.45 155.88 1024 544.55 155.88 1024 155.88M1024 0C459.36 0 0 459.36 0 1024s459.36 1024 1024 1024 1024-459.36 1024-1024S1588.64 0 1024 0z"/><path d="M1417.97 985.85c-165.62 0-300.36-124.53-300.36-277.61h155.88c0 67.12 64.81 121.72 144.47 121.72 79.67 0 144.48-54.6 144.48-121.72h155.88c.01 153.08-134.74 277.61-300.35 277.61zM616.21 985.85c-165.62 0-300.36-124.53-300.36-277.61h155.88c0 67.12 64.81 121.72 144.48 121.72 79.66 0 144.47-54.6 144.47-121.72h155.88c.01 153.08-134.73 277.61-300.35 277.61z"/></g></svg>