<svg width="62" height="61" xmlns="http://www.w3.org/2000/svg"><g fill-rule="nonzero" fill="none"><g transform="translate(0 2)"><path d="M61.3 34.8c0 13-11.9 23.5-30.3 23.5S.7 47.8.7 34.8 12.6 2.3 31 2.3s30.3 19.6 30.3 32.5Z" fill="#F7910B"/><path d="M61.3 34.8c0 13-11.9 19.5-30.3 19.5S.7 47.8.7 34.8 12.6.3 31 .3s30.3 21.6 30.3 34.5Z" fill="#F7910B"/><path d="M31 .3c18.4 0 30.3 21.5 30.3 34.5S49.4 54.3 31 54.3" fill="#F9A908"/><path d="M61.3 34.8c0 13-11.9 19.5-30.3 19.5S.7 47.8.7 34.8 12.6 2.3 31 2.3s30.3 19.6 30.3 32.5Z" fill="#F9A908"/><path d="M.7 34.8C.7 21.8 12.6 2.3 31 2.3" fill="#F9C55D"/><path d="M31 2.3c18.4 0 30.3 19.5 30.3 32.5S49.4 58.3 31 58.3" fill="#F7910B"/><path d="M31 2.3c18.4 0 30.3 19.5 30.3 32.5" fill="#EA7103"/><circle fill="#F7910B" cx="9.3" cy="31.8" r="1"/><circle fill="#F7910B" cx="4.8" cy="33.8" r="1.1"/><circle fill="#F7910B" cx="7.8" cy="29.8" r="1"/><circle fill="#F7910B" cx="12.4" cy="31.6" r="1"/><circle fill="#F9A908" cx="51.6" cy="32.2" r="1"/><circle fill="#F9A908" cx="54.1" cy="33.6" r="1"/><circle fill="#F9A908" cx="48.8" cy="24.7" r="1"/><circle fill="#F9A908" cx="48.3" cy="36.4" r="1.3"/><circle fill="#F9A908" cx="55.5" cy="36.4" r="1"/><circle fill="#F7910B" cx="8.3" cy="35.8" r="1"/><circle fill="#F7910B" cx="9.1" cy="27.4" r="1"/><circle fill="#F9A908" cx="3.8" cy="13.7" r="1.1"/><circle fill="#F9A908" cx="7" cy="10.1" r="1"/><circle fill="#F9A908" cx="58.2" cy="16.1" r="1"/><circle fill="#F9A908" cx="57.4" cy="13.1" r="1"/><circle fill="#F9A908" cx="60" cy="13.7" r="1"/><circle fill="#F9A908" cx="5" cy="16.6" r="1"/><g fill="#109DA0"><path d="M26.6 19.9c-1 1.7-2.6-.4-5.3-1.9-2.6-1.6-5.3-2-4.3-3.6 1-1.7 3.9-1.8 6.5-.3 2.7 1.5 4 4.1 3.1 5.8ZM35.4 19.9c1 1.7 2.6-.4 5.3-1.9 2.6-1.5 5.3-1.9 4.3-3.6-1-1.7-3.9-1.8-6.5-.3-2.7 1.5-4 4.1-3.1 5.8Z"/></g></g><path d="M23.6 43.6c0-2.6 3.3-4.7 7.4-4.7 4.1 0 7.4 2.1 7.4 4.7" fill="#F7910B"/><g fill="#02243E"><path d="M43.4 42.3c-.6 0-1.1-.5-1.1-1.1 0-2.1 1.7-3.8 3.8-3.8.6 0 1.1.5 1.1 1.1 0 .6-.5 1.1-1.1 1.1-.9 0-1.6.7-1.6 1.6 0 .6-.5 1.1-1.1 1.1ZM18.6 42.3c-.6 0-1.1-.5-1.1-1.1 0-.9-.7-1.6-1.6-1.6-.6 0-1.1-.5-1.1-1.1 0-.6.5-1.1 1.1-1.1 2.1 0 3.8 1.7 3.8 3.8 0 .6-.5 1.1-1.1 1.1Z"/><path d="M44.2 40.2c-.3 0-.6-.1-.8-.3-3.3-3.3-7.7-5.1-12.4-5.1s-9.1 1.8-12.4 5.1c-.4.4-1.1.4-1.6 0s-.4-1.1 0-1.6c7.7-7.7 20.2-7.7 27.9 0 .4.4.4 1.1 0 1.6-.2.1-.5.3-.7.3Z"/></g><g transform="translate(16 21)"><circle fill="#D87703" cx="3.6" cy="5.1" r="3.5"/><circle fill="#D87703" cx="26.4" cy="5.1" r="3.5"/><circle fill="#1E4784" cx="3.6" cy="4.1" r="3.5"/><path d="M3.6.6c1.9 0 3.5 1.6 3.5 3.5S5.5 7.6 3.6 7.6" fill="#00233F"/><circle fill="#1E4784" cx="26.4" cy="4.1" r="3.5"/><path d="M26.4.6c1.9 0 3.5 1.6 3.5 3.5s-1.6 3.5-3.5 3.5" fill="#00233F"/></g><path d="M26.8 30.2c0 1.2-3.5.7-7.8.7s-7.8.6-7.8-.7c0-1.2 3.5-2.2 7.8-2.2 4.3-.1 7.8.9 7.8 2.2Z" fill="#F9C55D"/><path d="M50.8 30.2c0 1.2-3.5.7-7.8.7s-7.8.6-7.8-.7c0-1.2 3.5-2.2 7.8-2.2s7.8.9 7.8 2.2Z" fill="#F9A908"/><path fill="#81CCB1" d="M56.1 24h-2.9L50.9 0h7.5z"/><path fill="#109DA0" d="M56.1 24h-2.9l.4-24h4.8z"/><path fill="#81CCB1" d="M52 26h5v6h-5z"/><path fill="#109DA0" d="M57 32h-5l1.9-3.4L57 26z"/></g></svg>