<svg xmlns="http://www.w3.org/2000/svg" viewBox="0 0 2048 2048" style="enable-background:new 0 0 2048 2048" xml:space="preserve"><path d="m1034.04 1054.86 763.53 386.68c-147.7 271.89-435.76 456.46-766.93 456.46-481.7 0-872.2-390.5-872.2-872.2s390.5-872.2 872.2-872.2c349.06 0 650.22 205.05 789.62 501.26l-786.22 400z" style="fill:#e6ff00"/><path d="M1030.64 153.59c349.06 0 650.22 205.05 789.62 501.26l-786.22 400.01 763.53 386.68c-147.7 271.89-435.76 456.46-766.93 456.46-481.7 0-872.2-390.5-872.2-872.2 0-481.71 390.5-872.21 872.2-872.21m0-156.62C463.35-3.03 1.82 458.5 1.82 1025.79s461.53 1028.82 1028.82 1028.82c377.57 0 724.17-206.27 904.55-538.31l76.95-141.65-143.81-72.83-488.27-247.28 511.22-260.1 135.36-68.86-64.67-137.41C1880.01 414 1751.1 266.52 1589.2 161.69 1422.8 53.93 1229.65-3.03 1030.64-3.03z"/><circle cx="1310.31" cy="540.99" r="171.27"/><circle cx="1361.05" cy="499.75" r="46.52" style="fill:#fff"/></svg>