<svg viewBox="0 0 2048 1810" xml:space="preserve" xmlns="http://www.w3.org/2000/svg"><circle cx="1024" cy="904.59" r="766.89" fill="#e6ff00"/><path d="M1024 137.71c423.54 0 766.89 343.35 766.89 766.89s-343.35 766.89-766.89 766.89-766.89-343.35-766.89-766.89S600.46 137.71 1024 137.71M1024 0C525.21 0 119.41 405.8 119.41 904.59s405.8 904.59 904.59 904.59 904.59-405.8 904.59-904.59S1522.79 0 1024 0z"/><path d="M793.35 1408.4h461.31v82.62H793.35zm284.63-655.72c0 267.86-29.54 485.01 485.01 485.01 492.84 0 485.01-217.15 485.01-485.01s-970.02-267.86-970.02 0z"/><path d="M1078 752.7c0 267.86-29.54 485.01 485.01 485.01 492.84 0 485.01-217.15 485.01-485.01S1078 484.84 1078 752.7zM.31 752.7c0 267.86-29.54 485.01 485.01 485.01 492.84 0 485.01-217.15 485.01-485.01S.31 484.84.31 752.7z"/><path d="M.31 752.7c0 267.86-29.54 485.01 485.01 485.01 492.84 0 485.01-217.15 485.01-485.01S.31 484.84.31 752.7z"/><path d="m1379.9 660.39-153.05 37.979 289.54 288.47 174.5 98.23-63.58 12.69 125.67 125.68c58.964-10.268 106.2-25.851 143.94-46.027l-219.4-219.41-163.7-74.42 60.92-28.359-194.84-194.83z" clip-path="url(#b)" fill="#75b0a4"/><path d="m302.28 660.39-153.05 37.979 289.54 288.47 174.49 98.23-63.57 12.69 125.67 125.68c58.963-10.269 106.2-25.85 143.94-46.027l-219.41-219.41-163.69-74.42 60.91-28.359-194.83-194.83z" clip-path="url(#d)" fill="#75b0a4"/><path d="M.47 525.37h2046.8v217.48H.47z"/></svg>