<svg width="62" height="60" xmlns="http://www.w3.org/2000/svg"><g fill-rule="nonzero" fill="none"><g transform="translate(-1)"><ellipse fill="#EA7103" transform="rotate(-15.885 11.604 50.798)" cx="11.604" cy="50.798" rx="8.8" ry="8.5"/><g transform="translate(1)"><path d="M61.3 35.2c0 13-11.9 23.5-30.3 23.5S.7 48.2.7 35.2 12.6 2.7 31 2.7s30.3 19.5 30.3 32.5Z" fill="#F7910B"/><path d="M61.3 35.2c0 13-11.9 19.5-30.3 19.5S.7 48.2.7 35.2 12.6.7 31 .7s30.3 21.5 30.3 34.5Z" fill="#F7910B"/><path d="M31 .7c18.4 0 30.3 21.5 30.3 34.5S49.4 54.7 31 54.7" fill="#F9A908"/><path d="M61.3 35.2c0 13-11.9 19.5-30.3 19.5S.7 48.2.7 35.2 12.6 2.7 31 2.7s30.3 19.5 30.3 32.5Z" fill="#F9A908"/><path d="M.7 35.2C.7 22.2 12.6 2.7 31 2.7" fill="#F9C55D"/><path d="M31 2.7c18.4 0 30.3 19.5 30.3 32.5S49.4 58.7 31 58.7" fill="#F7910B"/><path d="M31 2.7c18.4 0 30.3 19.5 30.3 32.5" fill="#EA7103"/><g transform="translate(17 19)"><circle fill="#EA7103" cx="3.6" cy="4.4" r="3.2"/><circle fill="#EA7103" cx="24.4" cy="4.4" r="3.2"/><circle fill="#1E4784" cx="3.6" cy="3.5" r="3.2"/><path d="M3.6.3c1.8 0 3.2 1.4 3.2 3.2 0 1.8-1.4 3.2-3.2 3.2" fill="#00233F"/><circle fill="#1E4784" cx="24.4" cy="3.5" r="3.2"/><path d="M24.4.3c1.8 0 3.2 1.4 3.2 3.2 0 1.8-1.4 3.2-3.2 3.2" fill="#00233F"/></g><g fill="#19BCA4"><path d="M24.2 16.2c-.3.8-1.5-.2-3.2-.9-1.7-.7-3.2-.9-2.8-1.7.3-.8 2-.9 3.6-.2 1.7.8 2.7 2.1 2.4 2.8ZM37.7 12.6c.4.8 1.5-.3 3.1-1.2 1.6-.9 3.1-1.2 2.7-1.9-.4-.8-2-.7-3.6.2-1.7.8-2.6 2.1-2.2 2.9Z"/></g><g fill="#109DA0"><path d="M24.2 16.2c-.3.8-1.5-.2-3.2-.9-1.7-.7-3.2-.9-2.8-1.7M37.7 12.6c.4.8 1.5-.3 3.1-1.2 1.6-.9 3.1-1.2 2.7-1.9"/></g><path d="M26.8 28.5c0 1.2-3.5.7-7.8.7s-7.8.6-7.8-.7c0-1.2 3.5-2.2 7.8-2.2s7.8 1 7.8 2.2Z" fill="#F9C55D"/><path d="M50.8 28.5c0 1.2-3.5.7-7.8.7s-7.8.6-7.8-.7c0-1.2 3.5-2.2 7.8-2.2s7.8 1 7.8 2.2Z" fill="#F9A908"/><circle fill="#F7910B" cx="9.3" cy="32.2" r="1"/><circle fill="#F7910B" cx="4.8" cy="34.2" r="1.1"/><circle fill="#F7910B" cx="7.8" cy="30.2" r="1"/><circle fill="#F7910B" cx="12.4" cy="32" r="1"/><circle fill="#F9A908" cx="51.6" cy="32.5" r="1"/><circle fill="#F9A908" cx="54.1" cy="33.9" r="1"/><circle fill="#F9A908" cx="48.8" cy="25.1" r="1"/><circle fill="#F9A908" cx="48.3" cy="36.7" r="1.3"/><circle fill="#F9A908" cx="55.5" cy="36.8" r="1"/><circle fill="#F7910B" cx="8.3" cy="36.2" r="1"/><circle fill="#F7910B" cx="9.1" cy="27.8" r="1"/><circle fill="#F9A908" cx="3.8" cy="14" r="1.1"/><circle fill="#F9A908" cx="7" cy="10.5" r="1"/><circle fill="#F9A908" cx="58.2" cy="16.4" r="1"/><circle fill="#F9A908" cx="57.4" cy="13.5" r="1"/><circle fill="#F9A908" cx="60" cy="14" r="1"/><circle fill="#F9A908" cx="5" cy="17" r="1"/></g></g><path d="M23.7 40.3c.3 7.4-1.5 5.6-3.6 5.7-2.1.1-3.8 2.1-4.1-5.3-.3-7.4 1.3-10.4 3.4-10.5 2.2-.1 4 2.7 4.3 10.1Z" fill="#CCF2E3"/><path d="M19.5 30.2c2.1-.1 4 2.8 4.3 10.2.3 7.4-1.5 5.6-3.6 5.7" fill="#AAD6C3"/><path d="M24 45.2c.3 6.8-3 12.7-9.9 13-6.9.3-12.7-5-13-11.8-.3-6.8 5.2-9.6 12.1-9.9 6.8-.3 10.5 1.9 10.8 8.7Z" fill="#CCF2E3"/><path d="M24 45.2c.3 6.8-3 12.7-9.9 13-6.9.3-9.6-5.7-9.6-12.5 0-5.3-2.5-8.1 8.3-9.2 6.8-.6 10.9 1.7 11.2 8.7Z" fill="#AAD6C3"/><path d="M28.3 44c1.7 1.9-.8 6.7-5.4 10.7-4.6 4-9.7 4-11.4 2.1-1.6-1.9.8-4.9 5.4-9 4.7-4 9.8-5.7 11.4-3.8Z" fill="#CCF2E3"/><path d="M28.3 44c1.7 1.9-.8 6.7-5.4 10.7-4.6 4-9.7 4-11.4 2.1" fill="#AAD6C3"/><path d="M17.4 32.8c-.4 1-.5 1.8-.2 2 .3.1.9-.6 1.3-1.5.4-1 .5-1.8.2-2-.3-.2-.9.5-1.3 1.5ZM3.4 44.6c.1 2.2-.2 4.1-.7 4.1-.5 0-1-1.8-1.2-4-.1-2.2.2-2.8.7-2.8.7-.1 1.1.4 1.2 2.7ZM21.7 45.4c1.6-1 3.1-1.5 3.4-1.1.3.4-.8 1.6-2.4 2.6-1.6 1-2.2.9-2.5.5-.2-.4-.1-1 1.5-2Z" fill="#E7F7EF"/><path d="M12.4 41c.3 2.7-.1 5-1 5.1-.9.1-1.8-2-2.1-4.7-.3-2.7.3-3.6 1.1-3.7.9-.1 1.7.6 2 3.3Z" fill="#CCF2E3"/><path d="M9.7 41.1c0 1 .3 1.9.7 1.9.3 0 .5-.9.5-1.9 0-1-.3-1.9-.7-1.9-.3 0-.5.9-.5 1.9Z" fill="#E7F7EF"/><path d="M38.4 33.3c0 2.6-3.3 4.7-7.4 4.7-4.1 0-7.4-2.1-7.4-4.7" fill="#F7910B"/><path d="M38 34H24c-.6 0-1-.4-1-1s.4-1 1-1h14c.6 0 1 .4 1 1s-.4 1-1 1Z" fill="#02243E"/></g></svg>