<svg width="62" height="62" xmlns="http://www.w3.org/2000/svg"><g fill-rule="nonzero" fill="none"><g transform="translate(0 3)"><path d="M61.2 34.8c0 13-11.9 23.5-30.3 23.5S.6 47.8.6 34.8 12.5 2.3 30.9 2.3s30.3 19.5 30.3 32.5Z" fill="#F7910B"/><path d="M61.2 34.8c0 13-11.9 19.5-30.3 19.5S.6 47.8.6 34.8 12.5.3 30.9.3s30.3 21.5 30.3 34.5Z" fill="#F7910B"/><path d="M30.9.3c18.4 0 30.3 21.5 30.3 34.5S49.3 54.3 30.9 54.3" fill="#F9A908"/><path d="M61.2 34.8c0 13-11.9 19.5-30.3 19.5S.6 47.8.6 34.8 12.5 2.3 30.9 2.3s30.3 19.5 30.3 32.5Z" fill="#F9A908"/><path d="M.5 34.8c0-13 11.9-32.5 30.3-32.5" fill="#F9C55D"/><path d="M30.9 2.3c18.4 0 30.3 19.5 30.3 32.5S49.3 58.3 30.9 58.3" fill="#F7910B"/><path d="M30.9 2.3c18.4 0 30.3 19.5 30.3 32.5" fill="#EA7103"/><path d="M24.8 12.5c.2.8-1.3.8-3 1.3s-3 1.3-3.3.4c-.2-.8 1-1.9 2.7-2.4 1.7-.4 3.3-.1 3.6.7Z" fill="#19BCA4"/><path d="M24.8 12.5c.2.8-1.3.8-3 1.3s-3 1.3-3.3.4" fill="#109DA0"/><path d="M37.1 9.5c-.3.8 1.2 1 2.8 1.7 1.7.7 2.8 1.7 3.2.9.3-.8-.7-2-2.4-2.7-1.7-.8-3.3-.7-3.6.1Z" fill="#19BCA4"/><path d="M37.1 9.5c-.3.8 1.2 1 2.8 1.7 1.7.7 2.8 1.7 3.2.9" fill="#109DA0"/><circle fill="#F7910B" cx="9.2" cy="31.8" r="1"/><circle fill="#F7910B" cx="4.7" cy="33.8" r="1.1"/><circle fill="#F7910B" cx="7.7" cy="29.8" r="1"/><circle fill="#F7910B" cx="12.3" cy="31.6" r="1"/><circle fill="#F9A908" cx="51.5" cy="32.1" r="1"/><circle fill="#F9A908" cx="54" cy="33.5" r="1"/><circle fill="#F9A908" cx="48.6" cy="24.7" r="1"/><circle fill="#F9A908" cx="48.1" cy="36.3" r="1.3"/><circle fill="#F9A908" cx="55.3" cy="36.4" r="1"/><circle fill="#F7910B" cx="8.2" cy="35.8" r="1"/><circle fill="#F7910B" cx="9" cy="27.4" r="1"/><circle fill="#F9A908" cx="3.7" cy="13.6" r="1.1"/><circle fill="#F9A908" cx="6.9" cy="10.1" r="1"/><circle fill="#F9A908" cx="58.1" cy="16" r="1"/><path d="M22.7 25.3c-.4-.1-.8-.3-1.1-.7-1.1-1.6-3.4-2-5-.9-.8.5-1.8.3-2.3-.4-.5-.8-.3-1.8.4-2.3 3.1-2.2 7.4-1.4 9.6 1.8.5.7.3 1.8-.4 2.3-.3.2-.8.2-1.2.2Z" fill="#1E4784"/><path d="M24.4 22.7c.5.7.3 1.8-.4 2.3-.4.3-.8.3-1.2.3-.4-.1-.8-.3-1.1-.7-1.1-1.6-3.4-2-5-.9-.8.5-1.8.3-2.3-.4-.5-.8-.3-1.8.4-2.3" fill="#02243E"/><g transform="translate(37 18)"><circle fill="#D87703" cx="3.6" cy="5" r="3.5"/><circle fill="#1E4784" cx="3.6" cy="4" r="3.5"/><path d="M3.6.5C5.5.5 7.1 2.1 7.1 4S5.5 7.5 3.6 7.5" fill="#00233F"/></g><circle fill="#F9A908" cx="57.3" cy="13.1" r="1"/><circle fill="#F9A908" cx="59.8" cy="13.6" r="1"/><circle fill="#F9A908" cx="4.9" cy="16.6" r="1"/><path d="M26.7 28.1c0 1.2-3.5.7-7.8.7s-7.8.6-7.8-.7c0-1.3 3.5-2.2 7.8-2.2s7.8 1 7.8 2.2Z" fill="#F9C55D"/><path d="M50.6 28.1c0 1.2-3.5.7-7.8.7s-7.8.6-7.8-.7c0-1.3 3.5-2.2 7.8-2.2 4.4 0 7.8 1 7.8 2.2Z" fill="#F9A908"/><path d="M34.8 30.8c0 .8-1.7 1.5-3.9 1.5s-3.9-.7-3.9-1.5" fill="#F9C55D"/><path d="M36.3 32.7c0 1.9-2.4 5.4-5.4 5.4-3 0-5.4-3.5-5.4-5.4" fill="#F7910B"/><g fill="#02243E"><path d="M19.8 31.5c-.6 0-1.1-.5-1.1-1.1 0-.6.5-1.1 1.1-1.1.5 0 .9-.4.9-.9 0-.6.5-1.1 1.1-1.1.6 0 1.1.5 1.1 1.1 0 1.7-1.4 3.1-3.1 3.1ZM41.9 31.5c-1.7 0-3.1-1.4-3.1-3.1 0-.6.5-1.1 1.1-1.1.6 0 1.1.5 1.1 1.1 0 .5.4.9.9.9.6 0 1.1.5 1.1 1.1 0 .6-.5 1.1-1.1 1.1Z"/></g><path d="M30.9 35.1c-3.8 0-7.6-1.4-10.4-4.3-.4-.4-.4-1.1 0-1.6.4-.4 1.1-.4 1.6 0 4.9 4.9 12.9 4.9 17.8 0 .4-.4 1.1-.4 1.6 0 .4.4.4 1.1 0 1.6-3.1 2.9-6.9 4.3-10.6 4.3Z" fill="#02243E"/></g><path d="M.5 38.3c.3 12.7 12.1 23 30.3 23 18.2 0 30-10.3 30.3-23H.5Z" fill="#3CC676"/><path d="M30.9 61.3c18.2 0 30-10.3 30.3-23H.5" fill="#12AF6B"/><path d="M45.4 57.7c-.8-7.4-7-13.1-14.6-13.1S17 50.3 16.2 57.7h29.2Z" fill="#D63834"/><path d="M16.3 57.7h29.1c-.8-7.4-7-13.1-14.6-13.1" fill="#BC1E1E"/><path d="M40.6 57.7c-.6-4.9-4.7-8.7-9.7-8.7-5 0-9.2 3.8-9.7 8.7h19.4Z" fill="#F7DF77"/><path d="M21.2 57.7h19.4c-.6-4.9-4.7-8.7-9.7-8.7" fill="#F2C549"/><path d="M35.9 57.7c-.3-2.6-2.4-4.6-5.1-4.6-2.6 0-4.8 2-5.1 4.6h10.2Z" fill="#3CC676"/><path d="M25.8 57.7H36c-.3-2.6-2.4-4.6-5.1-4.6" fill="#12AF6B"/><circle fill="#D63834" cx="11.4" cy="48.5" r="1"/><circle fill="#D63834" cx="18" cy="45.5" r="1"/><circle fill="#D63834" cx="49.8" cy="46.7" r="2.2"/><circle fill="#D63834" cx="55.9" cy="42.6" r="1"/><circle fill="#D63834" cx="57" cy="47" r="1"/><circle fill="#F7DF77" cx="16.8" cy="41.6" r="1"/><circle fill="#F7DF77" cx="23" cy="40.9" r="1"/><circle fill="#F7DF77" cx="18.3" cy="45.2" r="1"/><circle fill="#F7DF77" cx="40" cy="44" r="1.4"/><circle fill="#F7DF77" cx="45.4" cy="41.6" r="1"/><circle fill="#F7DF77" cx="51.3" cy="41.8" r="1"/><circle fill="#F7DF77" cx="34.3" cy="41.6" r="1"/><circle fill="#98F4F1" cx="48.9" cy="53.5" r="1"/><circle fill="#98F4F1" cx="13.3" cy="43.8" r="1"/><circle fill="#98F4F1" cx="14.5" cy="52.5" r="1.1"/><circle fill="#98F4F1" cx="6.4" cy="47.1" r="1"/><circle fill="#98F4F1" cx="44.8" cy="48" r="1"/><circle fill="#98F4F1" cx="53.2" cy="44.2" r="1"/><circle fill="#98F4F1" cx="53.5" cy="50.5" r="1"/><circle fill="#98F4F1" cx="4.4" cy="40.6" r="1"/><circle fill="#D63834" cx="9.5" cy="43.5" r="1.6"/><path d="M36.6 38.2c0 3.2-2.6 5.8-5.8 5.8-3.2 0-5.8-2.6-5.8-5.8" fill="#F7910B"/><path d="M50.3 10.5c0 .6-.4 1-1 1H12.4c-.6 0-1-.4-1-1s.4-1 1-1h36.8c.6 0 1.1.4 1.1 1Z" fill="#12AF6B"/><path d="M49.3 9.5c.6 0 1 .4 1 1s-.4 1-1 1H12.4c-.6 0-1-.4-1-1" fill="#3CC676"/><g transform="translate(49)"><ellipse fill="#D63834" cx="2.7" cy="5.4" rx="2.7" ry="4.7"/><path d="M2.7.7c1.5 0 2.7 2.1 2.7 4.7S4.2 10 2.7 10" fill="#BC1E1E"/></g><g transform="translate(49 10)"><ellipse fill="#D63834" cx="2.7" cy="5.5" rx="2.7" ry="4.7"/><path d="M2.7.9C4.2.9 5.4 3 5.4 5.6s-1.2 4.7-2.7 4.7" fill="#BC1E1E"/></g><g transform="translate(50 1)"><ellipse fill="#D63834" transform="rotate(45 5.272 5.882)" cx="5.272" cy="5.882" rx="2.7" ry="4.7"/><path d="M8.6 2.6C9.7 3.7 9 6 7.2 7.8 5.4 9.6 3 10.2 2 9.2" fill="#BC1E1E"/></g><g transform="translate(42 8)"><ellipse fill="#D63834" transform="rotate(45 6.137 5.998)" cx="6.137" cy="5.998" rx="2.7" ry="4.7"/><path d="M9.4 2.7c1.1 1.1.4 3.4-1.4 5.2-1.8 1.8-4.2 2.5-5.2 1.4" fill="#BC1E1E"/></g><g transform="translate(52 7)"><ellipse fill="#D63834" cx="4.8" cy="3.5" rx="4.7" ry="2.7"/><path d="M9.5 3.5c0 1.5-2.1 2.7-4.7 2.7S.1 5 .1 3.5" fill="#BC1E1E"/></g><g transform="translate(41 7)"><ellipse fill="#D63834" cx="5.6" cy="3.5" rx="4.7" ry="2.7"/><path d="M10.3 3.5c0 1.5-2.1 2.7-4.7 2.7S.9 5 .9 3.5" fill="#BC1E1E"/></g><path d="M53.4 15.9c-1.8-1.8-2.5-4.2-1.4-5.2 1.1-1.1 3.4-.4 5.2 1.4 1.8 1.8 2.5 4.2 1.4 5.2-1 1.1-3.4.5-5.2-1.4Z" fill="#D63834"/><path d="M58.6 17.3c-1 1.1-3.4.4-5.2-1.4-1.8-1.8-2.5-4.2-1.4-5.2" fill="#BC1E1E"/><g transform="translate(42 1)"><ellipse fill="#D63834" transform="rotate(134.984 6.105 5.814)" cx="6.105" cy="5.814" rx="2.7" ry="4.7"/><path d="M9.4 9.2c-1.1 1.1-3.4.4-5.2-1.4C2.4 6 1.7 3.6 2.8 2.6" fill="#BC1E1E"/></g><g transform="translate(46 4)"><circle fill="#F9A908" cx="5.7" cy="6.5" r="5.6"/><path d="M9.6 2.5c2.2 2.2 2.2 5.7 0 7.9s-5.7 2.2-7.9 0" fill="#F7910B"/><path d="M5.9 2.6c.5.6 0 1.8-1 2.5-1 .8-2.2.9-2.7.3-.5-.6 0-1.8 1-2.5 1-.8 2.2-1 2.7-.3Z" fill="#F9C55D"/></g></g></svg>