<svg width="62" height="64" xmlns="http://www.w3.org/2000/svg"><g fill-rule="nonzero" fill="none"><g transform="translate(20 55)"><circle fill="#7C0A3E" cx="4.3" cy="4.3" r="4.2"/><ellipse fill="#F2E1C2" cx="2.6" cy="4.3" rx="1" ry="1.8"/><circle fill="#7C0A3E" cx="32.6" cy="4.3" r="4.2"/><ellipse fill="#F2E1C2" cx="30.8" cy="4.3" rx="1" ry="1.8"/></g><path d="M61.3 35c0 13-11.9 23.5-30.3 23.5S.7 48 .7 35 12.6 2.5 31 2.5 61.3 22 61.3 35Z" fill="#F7910B"/><path d="M61.3 35c0 13-11.9 19.5-30.3 19.5S.7 48 .7 35 12.6.5 31 .5 61.3 22 61.3 35Z" fill="#F7910B"/><path d="M31 .5C49.4.5 61.3 22 61.3 35S49.4 54.5 31 54.5" fill="#F9A908"/><path d="M61.3 35c0 13-11.9 19.5-30.3 19.5S.7 48 .7 35 12.6 2.5 31 2.5 61.3 22 61.3 35Z" fill="#F9A908"/><path d="M.7 35C.7 22 12.6 2.5 31 2.5" fill="#F9C55D"/><path d="M31 2.5C49.4 2.5 61.3 22 61.3 35S49.4 58.5 31 58.5" fill="#F7910B"/><path d="M31 2.5C49.4 2.5 61.3 22 61.3 35" fill="#EA7103"/><path d="M28.8 14.5c-1.8.1-3.2.8-3.2 1.7l6.5-.3c0-.8-1.5-1.5-3.3-1.4ZM48.1 14.5c-1.8-.1-3.3.6-3.3 1.4l6.5.3c0-.9-1.4-1.6-3.2-1.7Z" fill="#19BCA4"/><path d="M28.8 16.5c1.8-.1 3.3.3 3.3-.6l-6.5.3c0 .9 1.4.4 3.2.3ZM48 16.5c1.8.1 3.3.6 3.3-.3l-6.5-.3c-.1.9 1.4.5 3.2.6Z" fill="#109DA0"/><path d="M26.4 27.3c-4.3 0-7.8 1-7.8 2.2 0 1.2 3.5.7 7.8.7s7.8.6 7.8-.7c0-1.3-3.4-2.2-7.8-2.2Z" fill="#F9C55D"/><path d="M50.4 27.3c-4.3 0-7.8 1-7.8 2.2 0 1.2 3.5.7 7.8.7s7.8.6 7.8-.7c0-1.3-3.5-2.2-7.8-2.2Z" fill="#F9A908"/><circle fill="#F7910B" cx="9.3" cy="32" r="1"/><circle fill="#F7910B" cx="4.8" cy="34" r="1.1"/><circle fill="#F7910B" cx="7.8" cy="30" r="1"/><circle fill="#F7910B" cx="12.4" cy="31.8" r="1"/><circle fill="#F9A908" cx="57.6" cy="34.9" r="1"/><circle fill="#F9A908" cx="54.1" cy="33.7" r="1"/><circle fill="#F9A908" cx="58.2" cy="40.7" r="1"/><circle fill="#F9A908" cx="54.4" cy="44.5" r="1.3"/><circle fill="#F9A908" cx="55.5" cy="36.6" r="1"/><circle fill="#F7910B" cx="8.3" cy="36" r="1"/><circle fill="#F7910B" cx="9.1" cy="27.6" r="1"/><circle fill="#F9A908" cx="3.8" cy="13.8" r="1.1"/><circle fill="#F9A908" cx="7" cy="10.3" r="1"/><circle fill="#F9A908" cx="58.2" cy="16.2" r="1"/><circle fill="#F9A908" cx="57.4" cy="13.3" r="1"/><circle fill="#F9A908" cx="60" cy="13.8" r="1"/><circle fill="#F9A908" cx="5" cy="16.8" r="1"/><g transform="translate(25 21)"><circle fill="#EA7103" cx="3.2" cy="4.7" r="3.2"/><circle fill="#EA7103" cx="24" cy="4.7" r="3.2"/><circle fill="#1E4784" cx="3.2" cy="3.8" r="3.2"/><path d="M3.2.6C5 .6 6.4 2 6.4 3.8 6.4 5.6 5 7 3.2 7" fill="#00233F"/><circle fill="#1E4784" cx="24" cy="3.8" r="3.2"/><path d="M24 .6c1.8 0 3.2 1.4 3.2 3.2C27.2 5.6 25.8 7 24 7" fill="#00233F"/></g><path d="M48.8 32c0 6.8-4.9 12.2-10.9 12.2S27 38.7 27 32" fill="#C42260"/><path d="M48.8 32c0 2.3-4.9 4.1-10.9 4.1S27 34.3 27 32" fill="#99144A"/><path d="M37.9 44.2c3.4 0 6.4-1.7 8.4-4.4-1.2-1.5-3-2.5-5-2.5-1.2 0-2.4.4-3.3 1-1-.6-2.1-1-3.3-1-2 0-3.8 1-5 2.5 1.8 2.7 4.8 4.4 8.2 4.4Z" fill="#E2446E"/><path d="M61 56.5c0 1.4-1.1 2.5-2.5 2.5h-54C3.1 59 2 57.9 2 56.5S3.1 54 4.5 54h54c1.4 0 2.5 1.1 2.5 2.5Z" fill="#19BCA4"/><g transform="translate(6 55)"><circle fill="#C42260" cx="4.6" cy="4.3" r="4.2"/><ellipse fill="#F2E1C2" cx="2.8" cy="4.3" rx="1" ry="1.8"/><circle fill="#C42260" cx="32.8" cy="4.3" r="4.2"/><ellipse fill="#F2E1C2" cx="31.1" cy="4.3" rx="1" ry="1.8"/></g></g></svg>