<svg xmlns="http://www.w3.org/2000/svg" fill="white" viewBox="0 0 114 32" width="114" aria-hidden="true">
  <g>
    <path fill="#161617" d="M0 4.6h6.8v22.8H0V4.6ZM37.4 27.4h-6.6V13.2l-4.1 14.2h-5l-4.4-14.2v14.2h-6.5V4.6h8.6L24 19.3 29 4.6h8.3v22.8ZM53.1 14.7H66v4.5h-2.2C63 24.5 59 28 52.3 28c-7.8 0-12.1-5.5-12.1-12 0-6.2 4.4-12 12-12 6.6 0 11 3.9 11.3 8.5h-7.4c-.2-1.3-1.5-2.7-3.9-2.7-3.6 0-5.1 3-5.1 6.3 0 3.5 1.8 6.3 5.5 6.3 2.6 0 4-1.4 4.3-3.2h-3.8v-4.5Z"/>
    <path fill="#471AFF" d="M71.6 20a4 4 0 1 1 0 7.8 3.9 3.9 0 1 1 0-7.8Z"/>
    <path fill="#161617" d="M91.3 21.6v5.8H78.6V4.6h6.8v17h6ZM102.7 27.4H95l4-8-7.7-14.8h7.9l3.7 8 3.4-8h7.5l-11.2 22.8Z"/>
  </g>
</svg>