<svg width="62" height="58" xmlns="http://www.w3.org/2000/svg"><g transform="translate(-1)" fill-rule="nonzero" fill="none"><ellipse fill="#EA7103" transform="rotate(-15.89 11.303 49.289)" cx="11.303" cy="49.289" rx="8.8" ry="8.5"/><g transform="translate(1)"><path d="M61.3 34.5C61.3 47.5 49.4 58 31 58S.7 47.5.7 34.5 12.6 2 31 2s30.3 19.5 30.3 32.5Z" fill="#F7910B"/><path d="M61.3 34.5C61.3 47.5 49.4 54 31 54S.7 47.5.7 34.5 12.6 0 31 0s30.3 21.5 30.3 34.5Z" fill="#F7910B"/><path d="M31 0c18.4 0 30.3 21.5 30.3 34.5S49.4 54 31 54" fill="#F9A908"/><path d="M61.3 34.5C61.3 47.5 49.4 54 31 54S.7 47.5.7 34.5 12.6 2 31 2s30.3 19.5 30.3 32.5Z" fill="#F9A908"/><path d="M.7 34.5C.7 21.5 12.6 2 31 2" fill="#F9C55D"/><path d="M31 2c18.4 0 30.3 19.5 30.3 32.5S49.4 58 31 58" fill="#F7910B"/><path d="M31 2c18.4 0 30.3 19.5 30.3 32.5" fill="#EA7103"/><path d="M28.8 8.7c-1.8.1-3.2.8-3.2 1.7l6.5-.3c0-.8-1.5-1.5-3.3-1.4ZM48.1 17.7c-1.8-.1-3.3.6-3.3 1.4l6.5.3c0-.9-1.4-1.6-3.2-1.7Z" fill="#19BCA4"/><path d="M28.8 10.7c1.8-.1 3.3.3 3.3-.6l-6.5.3c0 .9 1.4.4 3.2.3ZM48 19.7c1.8.1 3.3.6 3.3-.3l-6.5-.3c-.1.9 1.4.5 3.2.6Z" fill="#109DA0"/><path d="M26.4 35.3c-4.3 0-7.8 1-7.8 2.2 0 1.2 3.5.7 7.8.7s7.8.6 7.8-.7c0-1.2-3.4-2.2-7.8-2.2Z" fill="#F9C55D"/><path d="M50.4 35.3c-4.3 0-7.8 1-7.8 2.2 0 1.2 3.5.7 7.8.7s7.8.6 7.8-.7c0-1.2-3.5-2.2-7.8-2.2Z" fill="#F9A908"/><path d="M25.6 30.6c.4.1.8.3 1.1.6 1.2 1.6 3.5 1.9 5.1.6.7-.6 1.8-.4 2.3.3.6.7.4 1.8-.3 2.3-3 2.3-7.4 1.8-9.7-1.2-.6-.7-.4-1.8.3-2.3.3-.2.8-.3 1.2-.3Z" fill="#1E4784"/><path d="M24.1 33.3c-.6-.7-.4-1.8.3-2.3.4-.3.8-.4 1.2-.3.4.1.8.3 1.1.6 1.2 1.6 3.5 1.9 5.1.6.7-.6 1.8-.4 2.3.3.6.7.4 1.8-.3 2.3" fill="#02243E"/><path d="M51.2 30.6c-.4.1-.8.3-1.1.6-1.2 1.6-3.5 1.9-5.1.6-.7-.6-1.8-.4-2.3.3-.6.7-.4 1.8.3 2.3 3 2.3 7.4 1.8 9.7-1.2.6-.7.4-1.8-.3-2.3-.3-.2-.7-.3-1.2-.3Z" fill="#1E4784"/><path d="M52.8 33.3c.6-.7.4-1.8-.3-2.3-.4-.3-.8-.4-1.2-.3-.4.1-.8.3-1.1.6-1.2 1.6-3.5 1.9-5.1.6-.7-.6-1.8-.4-2.3.3-.6.7-.4 1.8.3 2.3" fill="#02243E"/><path d="M30.2 44.6c0-2.6 3.3-4.7 7.4-4.7 4.1 0 7.4 2.1 7.4 4.7" fill="#ED7E11"/><path d="M44.6 47.4c-.3 0-.6-.1-.8-.3-1-1-3.5-1.6-6.3-1.6s-5.4.6-6.3 1.6c-.4.4-1.1.4-1.6 0-.4-.4-.4-1.1 0-1.6 1.4-1.4 4.4-2.2 7.9-2.2s6.5.8 7.9 2.2c.4.4.4 1.1 0 1.6-.3.2-.6.3-.8.3Z" fill="#02243E"/><circle fill="#F7910B" cx="9.3" cy="31.5" r="1"/><circle fill="#F7910B" cx="4.8" cy="33.5" r="1.1"/><circle fill="#F7910B" cx="7.8" cy="29.5" r="1"/><circle fill="#F7910B" cx="12.4" cy="31.3" r="1"/><circle fill="#F9A908" cx="57.6" cy="34.4" r="1"/><circle fill="#F9A908" cx="54.1" cy="33.2" r="1"/><circle fill="#F9A908" cx="58.2" cy="40.2" r="1"/><circle fill="#F9A908" cx="54.4" cy="44" r="1.3"/><circle fill="#F9A908" cx="55.5" cy="36.1" r="1"/><circle fill="#F7910B" cx="8.3" cy="35.5" r="1"/><circle fill="#F7910B" cx="9.1" cy="27.1" r="1"/><circle fill="#F9A908" cx="3.8" cy="13.3" r="1.1"/><circle fill="#F9A908" cx="7" cy="9.8" r="1"/><circle fill="#F9A908" cx="58.2" cy="15.7" r="1"/><circle fill="#F9A908" cx="57.4" cy="12.8" r="1"/><circle fill="#F9A908" cx="60" cy="13.3" r="1"/><circle fill="#F9A908" cx="5" cy="16.3" r="1"/></g><g transform="translate(1 23)"><path d="M17.8 12c-.4 8-2.2 5.9-4.5 5.8-2.3-.1-4.3 1.8-3.9-6.2.4-8 2.4-11.1 4.7-11C16.5.7 18.2 4 17.8 12Z" fill="#CCF2E3"/><path d="M14.2.6c2.3.1 4 3.4 3.6 11.4-.4 8-2.2 5.9-4.5 5.8" fill="#AAD6C3"/><path d="M9.2 16.5c-.4 8-2.2 5.9-4.5 5.8-2.3-.1-4.4 3-4-5.1.4-8 2.6-12.2 4.9-12.1 2.3.1 4 3.4 3.6 11.4Z" fill="#CCF2E3"/><path d="M5.6 5.1c2.3.1 4 3.4 3.6 11.4-.4 8-2.2 5.9-4.5 5.8" fill="#AAD6C3"/><path d="M25.9 15.7c-.4 8-2.2 5.9-4.5 5.8-2.3-.1-4.3 1.8-3.9-6.2.4-8 2.4-11.1 4.7-11 2.4.1 4.1 3.4 3.7 11.4Z" fill="#CCF2E3"/><path d="M22.3 4.3c2.3.1 4 3.4 3.6 11.4-.4 8-2.2 5.9-4.5 5.8" fill="#AAD6C3"/><path d="M25.7 21.1c-.4 7.4-4.6 13.5-12.1 13.1C6.1 33.8.3 27.4.7 20c.4-7.4 6.6-9.8 14.1-9.5 7.5.4 11.2 3.1 10.9 10.6Z" fill="#CCF2E3"/><path d="M25.7 21.1c-.4 7.4-4.6 13.5-12.1 13.1-7.5-.4-9.5-7.1-9.1-14.5.4-7.4-1.9-9 9.9-9.1 7.5-.1 11.6 2.8 11.3 10.5Z" fill="#AAD6C3"/><path d="M30.5 20.1c1.6 2.2-1.5 7.2-6.9 11-5.4 3.9-10.9 3.4-12.5 1.2-1.6-2.2 1.4-5.3 6.8-9.2 5.3-3.8 11-5.2 12.6-3Z" fill="#CCF2E3"/><path d="M30.5 20.1c1.6 2.2-1.5 7.2-6.9 11-5.4 3.9-10.9 3.4-12.5 1.2" fill="#AAD6C3"/><path d="M21.5 15.5c.1.3-.1.5-.4.6L7.8 19c-.3.1-.5-.1-.6-.4-.1-.3.1-.5.4-.6l13.3-3c.3 0 .6.2.6.5ZM21.1 18.4c.1.3-.1.5-.4.6L7.4 22c-.2 0-.4-.2-.5-.5-.1-.2.1-.5.4-.5l13.3-3c.2-.1.5.1.5.4Z" fill="#CCF2E3"/><ellipse fill="#E7F7EF" transform="rotate(-152.246 12.29 3.332)" cx="12.289" cy="3.332" rx="1" ry="2.1"/><path d="M3 8c-.5 1-.7 1.9-.4 2.1.3.2 1-.5 1.5-1.5s.7-1.9.4-2.1C4.2 6.3 3.6 7 3 8Z" fill="#E7F7EF"/><ellipse fill="#E7F7EF" transform="rotate(-152.205 20.624 7.233)" cx="20.624" cy="7.233" rx="1" ry="2.1"/><path d="M3.5 18.2c-.1 2.4-.6 4.4-1.1 4.4-.5 0-.9-2-.8-4.4.1-2.4.5-3 1.1-3 .5 0 .9.6.8 3ZM23.2 21c1.8-.9 3.5-1.3 3.8-.8.3.5-1 1.7-2.9 2.6-1.8.9-2.5.8-2.7.3-.2-.6 0-1.2 1.8-2.1Z" fill="#E7F7EF"/></g></g></svg>