<svg viewBox="0 0 276.66 521.8" xmlns="http://www.w3.org/2000/svg"><path d="m46.385 305.497 74.931 41.289 86.655-32.113 21.919-67.795 6.117-121.83-13.253-57.09-38.74-36.191-24.977-5.097-14.273 16.82-73.402 6.627 7.136 31.604-38.74 18.35-6.117 18.86 21.41 9.685 7.136 18.35s-20.39 19.37-20.39 22.428c0 3.059-13.762 53.522-13.762 53.522l9.175 67.285z" fill="#fff" stroke="#000" stroke-width=".265"/><path d="M135.288 36.187c-14.632-1.85-30.093-2.545-44.725-.828-8.008.94-16.335 1.474-23.854 4.908-4.908 2.24-9.504 5.146-11.676 10.324-3.83 9.131 2.526 21.215 11.993 23.696-2.81 2.036-7.11 2.579-10.319 3.935-7.934 3.355-16.449 7.747-22.392 14.147-10.587 11.401-16.243 34.132-.053 43.748 4.87 2.892 11.091 3.522 16.624 3.522v.529c-3.78.419-8.54 5.174-10.975 7.889-7.13 7.947-12.014 16.246-16.025 26.13-9.536 23.502-9.45 49.366-8.722 74.196.487 16.587.787 34.819 6.956 50.459 3.397 8.612 7.964 16.312 14.535 22.908 4.54 4.553 12.375 8.993 12.568 16.327.16 6.056-7.369 6.35-11.565 6.35-9.688 0-26.49-1.747-31.476 9.02-2.761 5.96-1.063 13.702-1.343 20.084-.616 14.084-1.841 27.903-1.841 42.07 0 5.682-.039 14.26 3.909 18.835 2.505 2.905 6.51 3.644 10.114 4.294 8.62 1.559 17.695.948 26.458.948 3.086 0 6.173-.016 9.26 0 1.246.008 3.106.103 3.977 1.14 1.172 1.397 1.293 3.998 1.314 5.739.04 3.471.09 6.853.005 10.319-.267 10.877-1.202 21.709-1.597 32.544-.2 5.48-1.059 11.314 2.516 16.137 2.703 3.646 6.803 5.522 10.983 6.882 7.959 2.59 16.296 3.085 24.606 3.45 29.939 1.31 59.713 2.9 89.694 2.9 8.717 0 17.348.19 25.929-1.003 3.803-.53 8.076-.632 11.102-3.408 4.851-4.45 4.244-10.732 4.244-16.756 0-13.338-2.382-26.628-2.382-39.952v-10.583c0-1.479-.216-3.426.774-4.678.732-.926 2.438-.656 3.46-.497 3.175.495 6.311.413 9.525.413 10.98 0 27.75-1.072 31.366-14.097 1.754-6.33 1.892-13.496 2.545-20.034a1023.288 1023.288 0 0 0 2.614-30.69c.67-9.546.37-20.541-6.761-28.071-8.412-8.882-21.471-3.36-31.64-8.083-3.749-1.739-9.161-4.347-9.487-9.091-.297-4.321 1.314-8.295 3.023-12.173 3.047-6.914 7.218-13.152 10.65-19.852 2.708-5.29 3.663-11.655 4.49-17.452 3.994-28.018 1.564-56.801 3.533-84.927.591-8.45 1.739-16.924 2.586-25.404 2.326-23.26 2.81-48.085-1.081-71.173-1.947-11.55-5.136-23.505-10.912-33.821-4.686-8.37-10.903-15.401-17.066-22.673-9.286-10.957-19.477-21.42-31.77-29.06-9.29-5.772-18.788-10.226-29.59-12.147-5.515-.981-12.594-1.127-16.957 3.027-7.444 7.085-7.144 20.144-7.144 29.585m-75.406 264.05c-1.69-5.578-6.326-10.086-8.144-15.875-1.688-5.371-2.705-10.917-3.915-16.404-.57-2.583-.714-5.62-2.493-7.673 1.305-2.348-.33-6.839-.938-9.336-1.448-5.948-2.237-12.583-2.237-18.71 0-3.087-.536-7.496 2.646-9.26v-.265c-5.912-.788-2.823-10.83-1.96-14.552 3.205-13.833 6.536-30.534 15.753-41.868 10.127-12.453 27.46-24.001 44.15-22.127 6.788.762 13.585 2.822 19.997 5.18 3.83 1.407 7.777 3.421 11.753 4.31.846-4.123 1.15-8.558.156-12.7-.833-3.47-1.84-6.719-3.708-9.79-3.056-5.02-7.813-8.184-13.117-10.431-15.006-6.357-29.898-2.525-45.244.134-6.377 1.105-13.579 1.98-19.844-.205-3.694-1.288-6.83-3.597-7.196-7.754-.47-5.341 4.451-10.134 8.783-12.296 3.678-1.834 7.898-2.553 11.882-3.379 7.298-1.511 14.615-2.755 21.984-3.973 7.776-1.284 15.602-2.34 23.544-2.043 4.062.152 8.523 1.108 12.443 2.235 3.571 1.026 7.158 2.475 10.35 4.388 18.436 11.047 22.861 32.446 31.98 50.258 2.32-6.367-.163-14.757-1.255-21.167-2.547-14.954-9.361-32.503-23.881-39.5-6.751-3.252-14.152-3.95-21.431-5.128-2.283-.37-4.57-.374-6.856-.65-12.383-1.492-32.136-3.431-31.504-20.335.232-6.212 10.467-5.824 14.812-5.824 15.132 0 31.112-2.085 45.697 3.526 13.812 5.314 26.763 14.63 34.858 27.165 4.151 6.43 6.699 13.721 9.19 20.9 2.755 7.941 5.716 16.097 7.446 24.344.713 3.4.706 6.989 1.5 10.32 1.563-4.722 1.322-10.386 1.322-15.347 0-8.687-.876-18.018-4.146-26.194-5.478-13.695-16.134-24.39-25.643-35.316-5.413-6.219-9.381-11.886-11.601-19.937-.855-3.098-1.136-7.906 1.337-10.349 2.143-2.117 5.66-1.755 8.258-.808 5.548 2.023 9.645 5.78 14.352 9.26 6.242 4.616 11.674 10.518 17.001 16.13 11.041 11.632 21.711 24.17 25.458 40.227 4.338 18.585 3.026 38.249 1.73 57.15-.985 14.376-2.07 28.556-3.507 42.862-1.1 10.969-3.156 21.707-4.663 32.544-1.053 7.575-.769 15.394-1.103 23.019-.756 17.26-.24 38.936-15.117 51.065-2.67 2.174-5.571 4.085-8.702 5.535-11.585 5.368-25.376 6.014-37.84 7.75-9.887 1.378-19.61 2.16-29.632 2.6-11.094.487-22.106.566-32.81-2.894-8.157-2.638-14.223-7.525-21.43-11.785-.946-.559-2.144-.434-3.071-1.046-.894-.59-.716-1.606-1.124-2.465-.736-1.554-2.53-3.398-4.272-3.517zm0-78.581c.635 1.218 2.158 1.715 3.12 2.69 1.168 1.184 1.916 2.849 2.59 4.351 1.613 3.594 2.265 7.71 3.381 11.48 1.46 4.929 3.264 9.78 5.2 14.541 2.254 5.548 4.884 12.375 10.162 15.716 2.605 1.646 6.218 1.48 9.148.985 6.772-1.14 13.236-3.92 16.8-10.071 6.32-10.91 11.03-22.995 12.535-35.482 1.025-8.499-.654-17.518-1.743-25.906-.886-6.82-1.627-14.133-5.061-20.221-1.827-3.238-4.565-6.107-8.507-6.475-3.616-.338-7.29.027-10.848.453-5.601.67-11.393.944-15.864 4.994-3.451 3.126-5.425 8.137-6.705 12.517-2.215 7.584-2.724 16.049-5.944 23.283-1.512 3.397-4.221 6.881-8.264 7.144z" fill="#01ffff"/><path d="M135.626 496.407c-.554-.62-.888-1.327-1.283-2.71-.187-.655-.451-1.556-.587-2.003-.145-.477-.247-10.717-.247-24.771v-23.96l.879-.959c.495-.54 1.13-.959 1.455-.959.317 0 .577-.119.577-.264 0-.146.655-.265 1.455-.265s1.455-.12 1.455-.265.536-.264 1.19-.264c.656 0 1.191.119 1.191.264s.536.265 1.19.265c.656 0 1.192.119 1.192.265 0 .145.347.264.771.264.425 0 .812.093.86.207.049.113.46.383.915.6 1.315.625 3.01 2.127 3.01 2.667 0 .444-.228.495-2.234.495-1.228 0-2.306.119-2.396.264-.09.146-.455.265-.81.265s-.646.12-.646.265-.238.264-.529.264-.529.12-.529.265c0 .145-.133.264-.296.264-.42 0-1.796 1.606-1.984 2.315-.087.328-.265.596-.394.596-.13 0-.236.357-.236.794 0 .436-.12.793-.265.793-.154 0-.265.882-.265 2.117s-.11 2.117-.264 2.117c-.146 0-.265.178-.265.397s.12.396.265.396c.16 0 .264 1.098.264 2.763 0 1.556.116 2.834.265 2.926.146.09.265.456.265.813 0 1.308 1.015 2.472 2.167 2.486.391.005.785.127.875.273.09.145.371.264.625.264.579 0 1.884.595 1.887.86 0 .11.126.199.279.199.359 0 1.575 1.216 1.575 1.575 0 .152.12.277.265.277s.264.433.264.963c0 1.104-.55 1.661-1.653 1.674-.4.004-.728.128-.728.273s-.536.265-1.19.265c-.655 0-1.191.119-1.191.264s-.357.265-.794.265c-.437 0-.794.119-.794.265 0 .145-.17.264-.379.264-.208 0-.454.238-.547.53-.092.29-.279.528-.414.528-.136 0-.247.232-.247.514 0 .282-.12.587-.265.677-.168.104-.264 3.707-.264 9.938 0 6.34-.093 9.774-.265 9.774-.145 0-.265.184-.265.409 0 .621-1.22 1.709-1.906 1.697-.334-.006-.786-.21-1.004-.455zm30.089-.596c-.25-.293-.456-.71-.456-.927s-.119-.393-.264-.393c-.146 0-.265-.239-.265-.53 0-.29-.106-.529-.235-.529-.401 0-.627-1.856-.596-4.895.06-5.943.334-11.245.58-11.245.15 0 .251-1.975.251-4.894 0-2.7.106-4.895.237-4.895.13 0 .302-2.292.383-5.093.308-10.672.906-18.67 1.444-19.317.643-.775 1.75-1.053 2.933-.734.928.25 1.27.56 2.28 2.066.655.975 1.19 1.984 1.19 2.242s.119.706.264.995l.53 1.052c.145.289.264.705.264.926 0 .22.12.4.265.4.145 0 .264.357.264.794s.12.794.265.794.265.18.265.4c0 .22.105.607.233.86.129.253.367.787.53 1.187l.538 1.323c.134.327.562 1.488.953 2.58.39 1.09.817 2.19.947 2.443.131.253.238.64.238.86 0 .22.12.4.265.4s.268.269.273.596c.008.586.55 1.521.88 1.521.093 0 .17-.357.17-.793 0-.437.108-.794.24-.794.44 0 .617-2.966.673-11.201.032-4.74.16-8.232.305-8.335.137-.096.457-.503.712-.903.255-.4.639-.727.854-.727.215 0 .39-.12.39-.265 0-.145.494-.265 1.096-.265 1.323 0 2.415.98 2.853 2.558.39 1.4.346 5.938-.11 11.597-.211 2.62-.387 6.02-.391 7.554-.004 1.535-.12 2.905-.258 3.043-.236.238-.36 2.271-.692 11.298-.08 2.188-.253 3.903-.394 3.903-.146 0-.251 1.443-.251 3.44 0 2.116-.102 3.439-.265 3.439-.161 0-.264 1.202-.264 3.078 0 2.9-.302 4.834-.873 5.587-.368.486-2.47.405-3.304-.128-2.839-1.81-3.622-4.041-4.3-12.242-.138-1.673-.38-4.173-.535-5.556a416.685 416.685 0 0 1-.423-3.902c-.077-.764-.247-1.39-.38-1.39-.132 0-.24-.588-.24-1.307s-.119-1.38-.264-1.47c-.146-.09-.265-.633-.265-1.207 0-.573-.119-1.042-.264-1.042s-.265-.41-.265-.91c0-.502-.119-.985-.264-1.075-.146-.09-.265-.406-.265-.702 0-1.14-.88-3.485-1.606-4.284l-.76-.835-.008 7.592c-.005 4.766-.106 7.652-.272 7.754-.169.104-.265 3.663-.265 9.805 0 6.252-.093 9.642-.264 9.642-.146 0-.265.135-.265.3 0 1.206-3.152 1.796-4.042.755zm28.292.146c-2.759-.984-3.078-2.556-3.081-15.158-.001-5.698-.098-9.062-.26-9.062-.159 0-.309-3.27-.392-8.533a1543.44 1543.44 0 0 0-.283-13.933c-.098-3.583-.055-5.493.128-5.676.152-.151.276-.549.276-.884 0-.334.105-.608.233-.608s.296-.238.372-.53c.112-.427.361-.528 1.301-.528.64 0 1.3.138 1.47.306.2.2 2.222.371 5.82.491 3.693.124 5.726.298 6.162.529.858.455 1.839 1.605 1.84 2.157 0 .243.128.484.286.537.475.158-.229 1.365-1.013 1.734-.843.398-2.09.433-2.316.066-.09-.145-.566-.264-1.058-.264-.493 0-.969-.12-1.059-.265-.09-.145-.67-.264-1.288-.264-1.247 0-2.127.616-2.585 1.811-.328.856.19 16.452.61 18.371.239 1.09.406 1.319 1.207 1.654.512.213 1.481.391 2.155.394 1.616.008 3.089.365 3.594.87.513.514.532 2.213.03 2.715-.208.208-.736.378-1.175.378-.438 0-.87.119-.96.264-.09.146-.76.265-1.489.265-1.149 0-1.454.122-2.3.92l-.974.918-.08 8.055-.08 8.054 1.8.13c2.453.177 3.525.426 4.354 1.009.387.271.807.493.935.493s.442.353.696.784c.255.432.638.959.851 1.172.34.34.306.452-.285.916-.37.29-1.268.657-1.997.813-1.96.42-10.185.347-11.445-.102zm-90.525-.542c-.58-.207-1.096-.5-1.147-.65-.05-.151-.236-.274-.414-.274-.936 0-4.13-4.807-4.13-6.215 0-.22-.12-.4-.265-.4s-.265-.476-.265-1.058c0-.582-.119-1.059-.264-1.059s-.265-.654-.265-1.455c0-.8-.11-1.455-.246-1.455-.135 0-.312-1.042-.394-2.315s-.218-3.372-.304-4.663c-.1-1.526-.055-2.447.13-2.632.157-.157.285-.624.285-1.038 0-1.228 1.921-2.846 3.38-2.846.887 0 2.256.571 2.89 1.206.404.404.464 2.393.08 2.63-.153.095-.265 1.518-.265 3.371 0 1.764.12 3.602.265 4.085.145.484.391 1.326.546 1.871.156.546.382 1.23.503 1.522.121.29.37.926.553 1.411.183.486.464 1.021.625 1.19.161.17.503.636.759 1.037s.59.727.743.727c.462 0 1.033-.721 1.033-1.304 0-.301.105-.548.234-.548s.305-.744.393-1.653c.087-.91.283-2.428.434-3.374.52-3.253.818-6.749.674-7.9-.134-1.065-1.097-3.235-1.522-3.428-.101-.046-.63-.492-1.176-.992-.546-.5-1.148-.909-1.337-.909-.19 0-.346-.12-.346-.265s-.178-.264-.396-.264-.397-.12-.397-.265-.184-.264-.41-.264c-.514 0-4.402-3.725-4.904-4.699-.206-.399-.434-.785-.507-.858-.316-.314-.794-1.348-.794-1.716 0-.22-.119-.4-.265-.4s-.264-.417-.264-.926-.105-.926-.234-.926c-.247 0-.608-2.85-.586-4.63.027-2.109.341-4.63.578-4.63.133 0 .242-.348.242-.772 0-.425.09-.812.198-.86.11-.049.496-.684.86-1.411.364-.728.84-1.556 1.058-1.84.783-1.022 2.783-3.047 3.012-3.051.129-.003.426-.219.662-.48.732-.816 2.474-1.475 4.208-1.592 1.664-.112 4.025.345 4.025.78 0 .126.16.23.355.23.42 0 2.82 2.21 2.82 2.597 0 .148.089.308.198.357.314.14 1.654 2.76 1.654 3.233 0 .235.119.427.264.427s.265.333.265.74c0 .408.107.855.237.993.845.893.845 10.722 0 11.615-.13.138-.237.467-.237.731 0 .264-.11.687-.243.94-.133.252-.386.846-.56 1.319-.257.691-.466.86-1.066.86-.41 0-.82-.12-.91-.265-.09-.145-.459-.264-.82-.264-.362 0-.95-.293-1.308-.65l-.65-.65V454.8c0-7.109-.18-8.557-1.24-9.985-.912-1.228-1.225-1.173-2.935.51-1.957 1.924-2.47 3.423-2.638 7.702-.11 2.808-.054 3.335.557 5.292.749 2.396 1.897 4.395 3.174 5.525.459.406 1.097.978 1.42 1.272.322.294.709.535.86.535.15 0 .274.12.274.265s.178.264.396.264.397.12.397.265.179.264.397.264c.219 0 .397.111.397.247s.263.33.584.432c.851.27 3.133 2.771 3.304 3.62.081.401.239.728.35.728.236 0 .438 1.236.776 4.725.296 3.053-.212 8.815-.81 9.184-.13.08-.234.406-.232.725.004.706-1.37 4.778-1.653 4.901-.111.049-.202.236-.202.415 0 .18-.635 1.01-1.411 1.843-1.062 1.14-1.727 1.611-2.688 1.9-1.612.485-4.968.477-6.35-.014zm-15.776-.846c-.83-.128-2.616-1.696-2.616-2.297 0-.235-.1-.427-.224-.427-.662 0-1.398-11.994-1.412-23.02-.014-10.483.72-22.983 1.39-23.666.135-.138.246-.466.246-.728 0-.262.12-.476.265-.476s.264-.135.264-.3c0-.165.257-.522.57-.794 1.073-.93 3.928-.413 3.928.712 0 .21.12.382.265.382s.264.238.264.53.13.528.29.528c.205 0 .243 1.816.13 6.284-.086 3.456-.228 9.141-.313 12.634-.085 3.493-.26 6.478-.39 6.634-.135.165-.127 2.275.019 5.027.138 2.609.255 7.765.258 11.46.006 6.549-.008 6.727-.563 7.21-.554.48-.935.529-2.37.307zm67.998 0c-.83-.128-2.616-1.696-2.616-2.297 0-.235-.102-.427-.226-.427-.226 0-.407-1.297-.851-6.086-.421-4.535-.604-23.829-.278-29.236.406-6.727.832-11.058 1.12-11.364.129-.138.235-.465.235-.727 0-.262.12-.476.265-.476s.264-.135.264-.3c0-.634 1.143-1.288 2.25-1.288s2.248.654 2.248 1.288c0 .165.12.3.265.3s.264.238.264.529.131.529.292.529c.29 0 .279 1.161-.185 19.182-.086 3.347-.25 6.204-.364 6.35-.114.145-.11 1.872.01 3.836.121 1.965.226 7.13.233 11.478.014 7.773.004 7.915-.555 8.4-.554.481-.935.53-2.37.309zm-62.361-73.655c-1.163-.682-2.168-1.71-2.168-2.215 0-.225-.119-.409-.264-.409s-.265-.23-.265-.513c0-.283-.119-.587-.264-.677-.152-.094-.265-1.453-.265-3.175 0-1.723.113-3.082.265-3.175.145-.09.264-1.102.264-2.25 0-1.146.12-2.158.265-2.248.151-.094.264-1.458.264-3.191 0-1.842.104-3.027.265-3.027.167 0 .264-1.94.264-5.292 0-3.351.097-5.292.265-5.292.173 0 .265-4.18.265-12.012v-12.012l1.389-.34c2.046-.503 5.811-.445 8.136.125 1.958.481 4.811 1.667 4.983 2.071.048.115.265.208.482.208s.547.15.734.331c.188.182.752.653 1.253 1.046 1.44 1.131 2.602 2.306 2.602 2.63 0 .163.21.49.465.725s.633.755.838 1.155c.206.4.473.728.594.728s.22.18.22.4c0 .22.104.608.232.86 2.254 4.458 2.127 11.796-.287 16.665-.307.619-.658 1.125-.78 1.125-.123 0-.224.212-.224.47 0 .26-.238.643-.529.853-.291.21-.53.479-.53.598 0 .12-.25.48-.556.802-1.293 1.357-1.314 1.46-.885 4.3.219 1.448.514 2.84.656 3.094.141.252.257.699.257.992 0 .293.119.532.264.532.146 0 .265.298.265.662s.119.661.264.661.265.298.265.662c0 .364.12.661.265.661s.264.172.264.382c0 .433 1.065 2.35 1.38 2.485.114.048.208.23.208.405 0 .395 1.625 3.004 2.364 3.796.3.323.546.77.546.993 0 .223.12.406.265.406s.264.536.264 1.19c0 .655-.119 1.191-.264 1.191s-.265.19-.265.422-.238.484-.529.56c-.291.076-.53.243-.53.372s-.273.234-.608.234-.754.146-.932.324c-.256.256-.434.256-.843 0-.286-.178-.711-.324-.946-.324-1.071 0-4.608-5.093-4.608-6.636 0-.28-.119-.508-.264-.508s-.265-.298-.265-.661c0-.364-.119-.662-.264-.662-.146 0-.265-.357-.265-.794 0-.436-.12-.793-.265-.793s-.264-.18-.264-.4c0-.221-.105-.608-.234-.86-.322-.634-.612-1.368-1.749-4.429-1.64-4.417-1.628-4.402-3.166-4.31l-1.312.077-.727 2.249c-.508 1.57-.73 2.823-.738 4.151-.006 1.047-.13 1.977-.276 2.066-.34.21-.349 4.822-.01 4.94.14.048.288 1.533.33 3.3.068 2.851.02 3.275-.427 3.77-.278.307-.665.558-.86.558s-.356.12-.356.265c0 .483-2.977.265-3.918-.287zm11.679-28.144c.27-.205.55-.849.631-1.453.08-.597.249-1.149.374-1.227.305-.188.297-14.804-.009-15.394-.13-.252-.449-.972-.708-1.6-.683-1.652-1.545-2.166-3.63-2.166-1.337 0-1.754.094-1.882.427-.229.598-.947 13.127-.949 16.562l-.002 2.835.987.67c.544.37 1.198.672 1.456.672.257 0 .467.094.467.21 0 .24 1.458.76 2.25.803.29.016.747-.137 1.014-.34zm66.322 28.431c0-.145-.182-.264-.405-.264s-.483-.209-.577-.463c-.095-.255-.371-.642-.615-.86s-.54-.814-.66-1.323-.257-11.982-.305-25.494l-.09-24.568.981-.898c.793-.726 1.196-.898 2.104-.898.618 0 1.197.119 1.287.264.09.146.38.265.645.265.285 0 .615.323.81.794.18.436.433.793.561.793s.233.291.233.646c0 .355.119.72.264.81.146.09.265.573.265 1.074 0 .5.119.91.264.91.168 0 .265 1.847.265 5.011 0 3.056-.103 5.076-.265 5.175-.147.092-.264 1.32-.264 2.779s-.117 2.687-.265 2.778c-.145.09-.264.87-.264 1.732 0 1.59.495 2.633 1.25 2.633.185 0 .337.12.337.265 0 .145.356.264.792.264.834 0 2.119-.91 2.119-1.502 0-.193.119-.35.264-.35s.265-.238.265-.529.106-.529.235-.529.304-.387.386-.86c.083-.473.266-1.455.406-2.183.527-2.722 1.7-12.033 2.182-17.316.367-4.024.653-4.622 2.346-4.908 3.264-.552 4.664 2.67 3.966 9.127-.165 1.528-.398 3.672-.518 4.763-.992 9.05-1.39 16.277-1.56 28.374l-.167 11.838-.716.664c-.602.558-.974.663-2.334.663-.95 0-1.748-.136-1.933-.33-.633-.664-1.235-1.78-1.235-2.29 0-.288-.119-.597-.264-.687-.167-.103-.265-3.134-.265-8.218 0-5.193-.094-8.054-.265-8.054-.145 0-.264-.238-.264-.53 0-.352-.177-.528-.53-.528-.29 0-.528-.12-.528-.265s-.358-.264-.794-.264c-.437 0-.794.119-.794.264s-.135.265-.3.265c-.445 0-1.28 1.059-1.449 1.834-.08.374-.256 1.024-.39 1.446-.133.422-.242 4.5-.242 9.062 0 5.354-.094 8.295-.265 8.295-.145 0-.265.209-.266.463-.001.255-.323.612-.715.794-.85.395-2.723.44-2.723.066zm-142.35-.518c-.218-.147-.784-.27-1.257-.271-.473-.002-.86-.124-.86-.27 0-.145-.22-.264-.487-.264-.76 0-1.583-1.959-1.888-4.49-.149-1.234-.27-6.383-.27-11.444 0-5.791-.096-9.2-.258-9.2-.16 0-.311-3.364-.397-8.798-.302-19.065-.313-18.8.797-19.996.492-.53.753-.613 1.484-.468.488.097 1.572.245 2.408.33.837.086 1.522.26 1.522.388 0 .324 3.37.294 3.572-.032.09-.145.744-.264 1.455-.264.71 0 1.365.119 1.455.264.09.146.692.265 1.339.265.646 0 1.175.119 1.175.264s.184.265.408.265c1.09 0 2.473 2.538 1.893 3.472-.433.697-2.16 1.144-3.061.793-1.012-.395-3.59-.647-4.623-.454-.706.133-.986.377-1.344 1.171-.425.942-.427 1.554-.045 9.851.224 4.866.485 9.12.58 9.453.23.801 1.665 1.379 3.43 1.379.774 0 1.481.119 1.57.264.09.146.464.265.83.265.943 0 1.42.596 1.42 1.776 0 1.285-.828 1.844-3.072 2.075-2.003.206-2.804.518-3.578 1.394-.624.705-.626.736-.707 8.473-.094 8.984-.243 8.484 2.532 8.498.911.005 1.864.114 2.117.242.252.129.816.397 1.253.596.747.34 1.496 1.015 2.587 2.33.412.497.422.616.085.953-.212.212-.573.386-.801.386-.229 0-.416.107-.416.239 0 .333-2.126.56-6.615.707-2.358.077-3.99.022-4.233-.142zm23.019-.011c0-.146-.149-.265-.33-.265-.513 0-1.787-1.201-1.787-1.684 0-.238-.119-.432-.264-.432s-.265-.231-.265-.514c0-.282-.119-.587-.264-.677-.146-.09-.265-.514-.265-.942 0-.428-.102-.778-.226-.778-.207 0-.345-1.885-1.124-15.346-.284-4.92-1.17-14.6-1.598-17.462a60.547 60.547 0 0 1-.396-3.505c-.076-.983-.248-1.786-.382-1.786s-.243-.715-.243-1.588c0-.873-.108-1.587-.24-1.587s-.3-.625-.374-1.39a24.871 24.871 0 0 0-.444-2.711c-.17-.728-.37-1.944-.444-2.702-.129-1.335-.105-1.395.75-1.917 2.477-1.51 6.422.285 8.173 3.718 1.097 2.15 1.134 3.026.776 18.269-.376 15.962-.353 16.324 1.12 17.563.428.36.874.654.991.654.461 0 .818-2.087 1.335-7.805.299-3.307.4-4.895.938-14.684.447-8.15.852-12.644 1.197-13.292.135-.253.245-.583.245-.735 0-.421 2.316-2.642 2.756-2.642.213 0 .462-.12.552-.265.09-.145.697-.264 1.35-.264.937 0 1.338.15 1.9.713.695.695.712.786.648 3.506-.037 1.547-.184 2.832-.329 2.88-.144.049-.262.674-.262 1.39 0 .715-.108 1.3-.24 1.3-.13 0-.311.625-.4 1.39-.09.763-.231 1.984-.315 2.711-.084.728-.26 1.436-.392 1.575-.133.138-.24.568-.24.956 0 .387-.37 2.715-.82 5.172-.45 2.458-.93 5.183-1.067 6.056-.137.873-.371 2.242-.52 3.043-.15.8-.335 2.08-.412 2.844-.078.764-.249 1.389-.381 1.389s-.24.655-.24 1.455-.105 1.455-.233 1.455-.303.685-.389 1.522a40.748 40.748 0 0 1-.439 2.976 201.663 201.663 0 0 0-1.167 6.615c-.826 5.058-1.61 6.085-4.648 6.085-.884 0-1.59-.117-1.59-.264zm23.812.01c-.218-.146-.784-.268-1.257-.27-.473-.003-.86-.124-.86-.27 0-.145-.187-.264-.415-.264-.535 0-1.172-.637-1.172-1.171 0-.23-.095-.416-.212-.416-.535 0-.846-4.844-.846-13.177 0-5.68-.094-8.784-.265-8.784s-.265-3.037-.265-8.583c0-5.437-.097-8.643-.264-8.747-.163-.1-.265-2.252-.265-5.572 0-3.43.097-5.408.265-5.408.145 0 .264-.303.264-.673 0-.37.288-.983.639-1.362.688-.742.424-.74 3.992-.035 2.216.438 4.662.556 4.976.241.362-.361 2.74-.38 2.961-.023.09.145.692.264 1.339.264s1.175.12 1.175.265c0 .145.194.264.432.264.536 0 1.684 1.297 1.684 1.903 0 .246.115.518.255.605.16.098.143.4-.043.81-.378.83-2.064 1.346-3.088.947-1.016-.396-3.592-.647-4.634-.451-.703.131-1.004.383-1.36 1.132-.43.905-.433 1.504-.06 9.981.217 4.96.485 9.231.594 9.491.288.687 1.84 1.247 3.458 1.247.774 0 1.481.119 1.57.264.09.146.464.265.83.265.949 0 1.42.598 1.42 1.803 0 .927-.101 1.095-.885 1.467-.487.231-1.588.5-2.447.596-1.752.198-2.638.568-3.416 1.426-.499.551-.533 1.02-.61 8.388-.092 8.975-.219 8.522 2.385 8.537 2.604.014 4.48.977 5.94 3.05.466.661.5.85.205 1.125-.196.182-.54.331-.764.331-.224 0-.408.108-.408.24 0 .333-2.126.56-6.615.706-2.358.077-3.99.022-4.233-.142zm131.3-.256c-.872-.96-1.124-1.32-1.124-1.598 0-.154-.106-.487-.234-.74-.813-1.597-.847-1.894-.706-6.154l.29-8.79c.083-2.533.253-4.432.397-4.432.151 0 .253-1.968.253-4.895 0-2.763.104-4.895.24-4.895.133 0 .306-2.352.385-5.226.17-6.163.606-13.842.86-15.139.198-1.013.419-1.286 1.488-1.838.62-.32.888-.32 1.852-.008.62.202 1.27.504 1.444.672.417.402 2.074 3.497 2.324 4.34.219.737.846 2.268 1.218 2.974.134.252.243.699.243.992 0 .293.119.533.264.533s.265.297.265.661.097.662.217.662c.119 0 .378.595.577 1.322.198.728.457 1.323.577 1.323.119 0 .216.298.216.662s.1.661.22.661c.121 0 .35.506.507 1.125.352 1.382 1.201 3.723 1.415 3.902.087.073.238.46.336.86.284 1.16.962.926.962-.33 0-.583.103-1.059.229-1.059.589 0 .883-10.329.433-15.174-.12-1.293-.09-2.292.08-2.646.15-.312.427-.947.616-1.411.369-.904 1.894-1.935 2.863-1.935 1.041 0 2.394.948 2.394 1.679 0 .216.148.443.33.504.406.136.331 12.607-.078 13.016-.139.14-.252 1.77-.252 3.624 0 1.962-.111 3.44-.265 3.535-.156.096-.265 1.678-.265 3.852 0 2.282-.1 3.688-.264 3.688s-.265 1.456-.265 3.837c0 2.11-.106 3.836-.236 3.836s-.302 1.756-.384 3.903c-.34 8.976-.88 13.635-1.648 14.215-.631.478-1.782.51-2.558.072-1.048-.592-2.993-2.713-3.348-3.65a54.128 54.128 0 0 0-.569-1.443c-.395-.939-.891-5.666-1.201-11.443-.096-1.783-.278-3.242-.406-3.242s-.233-.654-.233-1.455c0-.8-.12-1.455-.265-1.455s-.264-.595-.264-1.323-.107-1.323-.238-1.323-.3-.506-.377-1.124c-.433-3.52-1.929-8.47-2.737-9.063-.457-.335-.49-.243-.562 1.608-.043 1.08-.191 1.964-.33 1.964-.16 0-.254 5.645-.254 15.081 0 9.878-.091 15.081-.265 15.081-.145 0-.264.188-.264.416 0 .529-.635 1.172-1.156 1.172-.22 0-.474.119-.564.265-.28.451-1.695.292-2.183-.246zm-76.134-.283c-.09-.146-.403-.265-.696-.265-.645 0-1.196-.515-1.552-1.452-.165-.435-.266-5.884-.266-14.44 0-8.985-.091-13.741-.264-13.741-.146 0-.265-.648-.265-1.44 0-.792-.119-1.513-.264-1.603-.146-.09-.265-.692-.265-1.338 0-.647-.119-1.175-.264-1.175s-.265-.26-.265-.577c0-.66-.104-1.037-1.475-5.377-.553-1.746-1.101-3.288-1.22-3.426-.118-.138-.215-.466-.215-.728 0-.261-.12-.476-.265-.476s-.265-.238-.265-.529-.119-.53-.264-.53-.265-.297-.265-.66c0-.364-.119-.662-.264-.662s-.265-.228-.265-.507c0-.28-.09-.547-.198-.595-.448-.2-1.654-2.924-1.648-3.725.01-1.442 1.281-2.581 2.881-2.581 1.52 0 5.05 2.304 5.05 3.295 0 .225.12.409.265.409s.265.29.265.646c0 .355.119.719.264.809.146.09.265.447.265.794s.119.704.264.793c.146.09.265.446.265.79 0 .345.297 1.737.66 3.094.364 1.357.662 2.846.662 3.31 0 .465.12.919.265 1.009.146.09.269.424.273.743.008.573.554 1.506.881 1.506.093 0 .17-.477.17-1.059s.118-1.058.264-1.058.264-.529.264-1.175.12-1.249.265-1.339c.146-.09.265-.549.265-1.02 0-.472.106-.971.237-1.11.13-.138.302-.727.38-1.31.464-3.454 1.02-4.901 2.46-6.4 1.362-1.421 2.44-1.934 4.064-1.934 1.211 0 1.45.104 2.394 1.038.834.826 1.048 1.232 1.048 1.988 0 1.124-.32 1.73-1.654 3.136-.545.575-.992 1.21-.992 1.411 0 .2-.09.365-.199.365-.186 0-.78 1.064-1.76 3.15-.232.495-.422 1.12-.422 1.389 0 .268-.12.488-.265.488s-.264.417-.264.926c0 .51-.12.926-.265.926s-.264.536-.264 1.19c0 .656-.106 1.191-.236 1.191-.368 0-.91 8.045-1.339 19.844a939.86 939.86 0 0 1-.516 12.098c-.244 4.643-.278 4.847-.921 5.49-.587.587-.893.669-2.517.669-1.017 0-1.922-.12-2.012-.265zm23.746-.095c-.327-.162-.595-.386-.595-.497 0-.111-.187-.202-.416-.202-1.116 0-2.747-3.08-3.052-5.763-.217-1.911-.006-16.044.525-35.078.117-4.2.158-7.92.091-8.268-.112-.588-.24-.633-1.794-.633-.92 0-1.747-.119-1.837-.264-.09-.146-.365-.265-.61-.265-.539 0-1.702-.968-2.126-1.768-.397-.749-.379-2.223.033-2.73.828-1.019 1.864-1.156 11.27-1.492 5.26-.187 6.575.003 9.485 1.374 2.025.955 2.427 1.514 2.08 2.896-.163.65-.211.662-2.791.662-1.465 0-2.697.117-2.789.264-.09.146-.603.269-1.14.273-.537.005-1.185.167-1.44.36-.435.33-.463 1.865-.464 25.59l-.002 25.24-.713.33c-.854.397-2.888.38-3.715-.03zm85.394-.434c0-.146-.35-.265-.778-.265-.428 0-.852-.119-.942-.264-.09-.146-.368-.265-.618-.265s-.627-.238-.837-.53c-.21-.29-.521-.528-.692-.528-.263 0-.975-.737-2.228-2.304-.14-.176-.255-.503-.255-.728s-.09-.409-.198-.41c-.269-.003-.86-1.311-.86-1.903 0-.262-.12-.476-.265-.476-.145 0-.265-.417-.265-.926s-.119-.926-.264-.926c-.15 0-.265-.776-.265-1.8 0-.989-.122-1.92-.271-2.07-.18-.18-.23-3.21-.146-8.983.145-10.025.349-14.135.7-14.135.135 0 .246-.952.246-2.117s.106-2.116.234-2.116c.129 0 .303-.744.387-1.654.085-.91.282-2.308.44-3.109.156-.8.352-1.842.435-2.315.082-.473.256-.86.386-.86s.235-.242.235-.538c0-.296.298-1.125.662-1.843.363-.718.661-1.427.661-1.576 0-.433 2.167-2.918 2.554-2.928.123-.003.522-.239.886-.523s.989-.52 1.389-.523c.4-.003.727-.125.727-.27 0-.155.882-.265 2.117-.265 1.235 0 2.117.11 2.117.264 0 .146.35.265.778.265.428 0 .852.119.942.264.09.146.34.265.556.265.215 0 .536.121.712.27 1.164.982 1.44 1.3 1.968 2.272.72 1.323 1.176 3.856 1.329 7.38.155 3.583-.28 5.935-1.363 7.356-.796 1.046-.931 1.115-2.336 1.19-1.133.06-1.63-.037-2.06-.398-1.2-1.005-1.352-1.705-1.267-5.846.097-4.762-.134-6.584-.956-7.541-1.12-1.303-1.641-.909-2.035 1.535-1.721 10.686-2.52 22.81-2.084 31.644.418 8.464.875 11.172 2.028 12.015.625.457 1.84-.831 2.914-3.086 1.372-2.881 1.668-4.241 1.668-7.66v-3.107l-1.22-2.335a544.046 544.046 0 0 1-1.521-2.929c-.166-.326-.391-.594-.5-.595-.11 0-.199-.181-.199-.4s-.093-.396-.207-.396c-.113 0-.34-.357-.506-.794-.164-.436-.19-.794-.058-.794.133 0 .242-.153.242-.34 0-.188.669-.692 1.487-1.12 1.343-.702 1.732-.777 4.034-.781 2.28-.003 2.653.066 3.538.656.544.363.99.808.992.99.002.182.131.33.288.33.35 0 .146 11.676-.263 15.082-.485 4.038-1.148 7.044-1.865 8.448-.296.58-.538 1.198-.538 1.372 0 .174-.463.744-1.029 1.267-1.498 1.386-1.815 1.613-2.252 1.613-.216 0-.466.119-.556.264-.09.146-.632.265-1.206.265-.573 0-1.043.12-1.043.265 0 .15-.793.264-1.852.264-1.058 0-1.852-.113-1.852-.264zm-43.368-.722c-.351-.066-.803-.285-1.005-.487a9.13 9.13 0 0 0-.817-.704c-1.51-1.13-2.011-5.598-2.334-20.842-.114-5.382-.064-10.396.14-14.155.39-7.173 1.02-13.464 1.358-13.582.14-.048.254-.262.254-.475 0-.511 1.189-1.685 1.707-1.685.225 0 .41-.12.41-.265 0-.364.68-.332 1.389.066.526.296.854.61 1.78 1.709.149.176.27.496.27.712 0 .216.119.466.264.556.339.209.345 5.662.01 9.51-.573 6.613-.828 20.048-.552 29.207.275 9.147.233 9.855-.622 10.425-.308.206-1.194.21-2.252.01zm-85.087-98.894c-.146-.07-1.991-.246-4.101-.391-6.111-.42-8.628-.755-12.165-1.615-3.656-.889-5.038-1.302-5.417-1.62-.138-.116-.525-.21-.86-.21-.334 0-.608-.12-.608-.265s-.298-.265-.662-.265-.661-.119-.661-.264c0-.146-.238-.265-.53-.265s-.529-.119-.529-.264-.16-.265-.354-.265c-.406 0-6.044-2.835-6.254-3.145-.076-.112-.525-.373-.998-.579-.473-.205-.86-.464-.86-.574 0-.11-.15-.2-.331-.2-.182 0-.747-.358-1.257-.794-.51-.435-1.075-.792-1.257-.793-.181 0-.331-.09-.332-.199-.001-.109-.415-.48-.919-.823a22.446 22.446 0 0 1-1.652-1.256c-.404-.348-.87-.632-1.037-.632-.166 0-.37-.18-.455-.398-.18-.47.054-1.19.389-1.19.13 0 .236-.118.236-.262 0-.245.503-.939 1.257-1.733.182-.192.33-.425.33-.519 0-.093.15-.336.331-.539.592-.66.854-1.036 1.236-1.776.206-.4.474-.727.595-.727s.22-.179.22-.397.119-.397.265-.397.264-.238.264-.53c0-.29.12-.528.265-.528.378 0 .327-1.302-.066-1.673-.182-.171-.786-.471-1.342-.666-.837-.294-1.212-.295-2.183-.008-.644.19-1.172.498-1.172.685 0 .186-.119.339-.264.339s-.265.179-.265.397-.119.397-.265.397-.264.178-.264.397-.12.397-.265.397-.264.178-.264.396-.094.397-.208.397c-.114 0-.432.387-.708.86-.275.473-.57.92-.658.992-.087.073-.367.46-.621.86-.255.4-.584.728-.73.728s-.695-.428-1.218-.95l-.95-.95 4.134-4.034c2.273-2.218 4.134-4.24 4.134-4.492 0-.864-.684-1.216-2.363-1.216-.894 0-1.606.117-1.606.265 0 .145-.163.264-.361.264-.344 0-1.484 1.005-5.063 4.464l-1.588 1.534-.595-.608c-.327-.334-.595-.732-.595-.882 0-.151-.12-.274-.265-.274s-.264-.179-.264-.397-.1-.397-.22-.397c-.121 0-.389-.327-.595-.728-.206-.4-.435-.787-.508-.86-.226-.225-.992-1.642-1.859-3.44-.456-.945-.939-1.926-1.073-2.178-.134-.253-.243-.64-.243-.86 0-.22-.12-.4-.265-.4s-.264-.291-.264-.647c0-.355-.12-.719-.265-.809-.146-.09-.265-.447-.265-.794s-.119-.703-.264-.793c-.146-.09-.265-.567-.265-1.059s-.119-.968-.264-1.058c-.146-.09-.265-.452-.265-.804 0-.353-.417-2.415-.926-4.583-.51-2.168-.926-4.247-.926-4.62s-.12-.751-.265-.84c-.145-.09-.264-.627-.264-1.191 0-.565-.12-1.101-.265-1.191-.145-.09-.264-.752-.264-1.47 0-.72-.12-1.308-.265-1.308-.145 0-.265-.476-.265-1.058 0-1.059 0-1.059 1.058-1.059 2.65 0 6.728-2.239 7.287-4 .087-.274.269-.498.405-.498s.246-.23.246-.513.12-.587.265-.677c.145-.09.265-.61.265-1.154s.124-1.114.277-1.267c.298-.298.202-8.215-.12-9.882-.478-2.47-1.53-5.204-2.462-6.396-1.51-1.932-3.917-3.659-5.1-3.659-.235 0-.555-.127-.711-.284-.324-.323-4.704-.224-5.444.124-.431.202-.463-.078-.463-4.008 0-4.17.009-4.235.67-4.897.79-.789 2.672-1.202 6.55-1.438 2.707-.165 3.665 0 6.075 1.05.691.302 1.257.639 1.257.75s.238.277.529.37c.29.092.53.315.53.496s.237.585.528.897c.291.313.53.645.53.738 0 .093.176.545.391 1.003.647 1.377 1.46 3.918 1.46 4.564 0 .332.12.678.265.768.146.09.265.513.265.941 0 .428.119.779.264.779s.265.476.265 1.058.119 1.058.264 1.058.265.357.265.794c0 .436.119.794.265.794s.264.299.264.665c0 .365.116.871.259 1.124.142.253.808 2.186 1.48 4.296 1.156 3.624 1.506 4.622 1.952 5.556.104.219.354.963.556 1.654.202.691.46 1.257.573 1.257s.207.29.207.646.12.719.265.809c.145.09.264.395.264.677s.12.514.265.514.265.18.265.4c0 .22.102.607.228.86.9 1.808 1.624 3.47 1.624 3.727 1.017.98 1.22 3.028 2.38 4.008.146 0 .265.128.265.283 0 .502 1.5 2.48 3.003 3.963 1.952 1.924 2.04 1.99 3.52 2.642.706.31 1.49.673 1.742.807.253.133.997.243 1.654.243.657 0 1.194.119 1.194.264s.655.265 1.455.265 1.455-.12 1.455-.265c0-.149.745-.264 1.704-.264.938 0 1.778-.12 1.868-.265.09-.145.508-.264.93-.264s1.039-.105 1.373-.232c.334-.128 1.203-.373 1.93-.545 1.834-.434 6.774-2.556 6.968-2.994.048-.109.257-.198.463-.198.206 0 .375-.111.375-.247s.257-.328.572-.428c.71-.225 4.984-4.407 4.984-4.875 0-.188.21-.534.465-.77.255-.234.642-.784.86-1.22.216-.437.458-.854.536-.927.34-.316 2.108-3.954 2.108-4.338 0-.233.119-.424.264-.424s.265-.168.265-.372c.573-1.94 2.097-4.053 2.646-5.56 0-.207.169-.713.376-1.125 2.856-6.361 4.716-11.815 5.752-18.344 1.034-6.577.766-17.204-.728-28.84-.458-3.573-.637-5.067-.796-6.68-.098-.983-.28-1.786-.407-1.786-.126 0-.229-.595-.229-1.323s-.119-1.323-.264-1.323-.265-.529-.265-1.175-.119-1.249-.264-1.338c-.146-.09-.265-.507-.265-.926 0-.42-.119-.837-.265-.927-.145-.09-.264-.41-.264-.71 0-1.273-2.45-7.03-3.447-8.1-.287-.308-.522-.687-.522-.843 0-.406-2.045-2.393-3.475-3.377-2.196-1.51-2.953-1.646-9.245-1.65-3.14-.002-7.01.123-8.6.278-4.83.472-9.708 1.59-11.695 2.681-.477.262-1.043.477-1.257.477-.214 0-.389.119-.389.264 0 .146-.194.265-.432.265s-.624.209-.86.465c-.235.255-.731.62-1.102.81s-1.051.724-1.511 1.188c-1.973 1.989-2.71 2.828-2.71 3.084 0 .15-.118.274-.264.274s-.264.178-.264.397-.09.397-.199.399c-.109 0-.327.269-.485.595a43.699 43.699 0 0 1-.956 1.784c-.368.655-.82 1.667-1.002 2.249s-.437 1.171-.565 1.31c-.128.138-.233.525-.233.86 0 .334-.119.608-.265.608s-.264.357-.264.794c0 .436-.12.793-.265.793s-.264.417-.264.926c0 .51-.12.926-.265.926s-.264.41-.264.91c0 .502-.106.977-.236 1.057-.227.14-.412.95-.728 3.193-.082.582-.256 1.171-.387 1.31-.13.138-.237.574-.237.968 0 .395-.298 1.977-.661 3.517s-.662 3.15-.662 3.58-.119.854-.264.944c-.146.09-.265.566-.265 1.058 0 .492-.12.968-.265 1.058-.145.09-.264.514-.264.942 0 .428-.12.778-.265.778s-.264.357-.264.794-.12.794-.265.794-.265.238-.265.529-.119.529-.264.529-.266.208-.268.463c-.003.461-.594 1.327-1.849 2.707-.75.827-3.158 2.121-3.944 2.121-.287 0-.588.107-.669.237-.178.288-1.556.506-5.044.798-1.455.121-2.864.312-3.131.424-.512.214-3.026-.246-4.145-.759-.818-.374-1.323-.837-1.323-1.21 0-.156-.119-.283-.265-.283-.15 0-.264-.794-.264-1.852 0-1.059.113-1.853.264-1.853.146 0 .265-.458.265-1.018v-1.019l2.712-.177c1.492-.097 2.752-.294 2.8-.437.049-.142.31-.259.58-.259.27 0 .565-.12.655-.265.09-.145.368-.264.619-.264.25 0 .626-.238.836-.53.21-.29.537-.529.727-.529.495 0 2.491-2.065 3.608-3.734.525-.783 1.074-1.569 1.22-1.745.146-.175.266-.496.266-.711 0-.216.119-.467.265-.556.145-.09.264-.395.264-.678s.12-.513.265-.513.264-.357.264-.794.12-.794.265-.794.264-.466.264-1.036c0-.57.13-1.08.288-1.132.402-.134.407-7.698.005-7.832-.161-.054-.293-.386-.293-.737 0-.352-.119-.64-.264-.64-.146 0-.265-.178-.265-.396s-.119-.397-.265-.397-.264-.118-.264-.263c0-.785-2.975-3.177-3.95-3.177-.302 0-.548-.119-.548-.264s-.536-.265-1.19-.265c-1.125 0-1.19-.04-1.182-.728.005-.4.18-1.025.388-1.389.208-.364.382-.93.387-1.257.005-.327.129-.595.274-.595s.265-.184.265-.41.238-.902.529-1.504c.29-.603.529-1.252.529-1.443 0-.19.119-.347.265-.347s.264-.148.264-.328c0-.524 2.995-6.37 3.506-6.845.255-.236.463-.624.463-.862s.119-.432.264-.432.265-.178.265-.397.12-.396.265-.396c.145 0 .264-.128.264-.284 0-.156.149-.434.33-.618s.57-.664.86-1.067c1.156-1.6 6.232-6.763 6.65-6.763.074 0 .294-.149.487-.33.73-.688 2.183-1.84 3.844-3.047.946-.688 1.76-1.34 1.808-1.45.048-.11.316-.2.595-.2.28 0 .507-.119.507-.264 0-.637.958-.2 1.304.595.205.473.45.92.544.992.36.28 1.589 4.522 1.736 5.994.286 2.866.193 2.737 1.978 2.737.878 0 1.582-.117 1.582-.264 0-.146.254-.265.565-.265 1.157 0 2.129-1.883 1.586-3.074-.164-.36-.299-1.045-.299-1.522 0-1.552-2.48-7.722-3.24-8.06-.559-.248-.034-.834 1.413-1.581 1.263-.651 1.68-.761 1.919-.507.619.657 1.496 2.646 1.496 3.392 0 .423.119.769.264.769.152 0 .265.806.265 1.889 0 1.489.098 1.963.463 2.24.614.466 1.79.452 3.202-.04 1.87-.651 2.033-.947 1.96-3.543-.036-1.246-.185-2.305-.331-2.354-.147-.049-.267-.436-.267-.86 0-.425-.12-.772-.265-.772s-.265-.208-.265-.463-.239-.853-.53-1.33c-.29-.476-.528-.958-.528-1.07 0-.4 5.465-1.117 8.467-1.11 1.674.004 4.223.185 5.666.403 1.442.217 2.96.395 3.373.395s.75.12.75.265c0 .145.41.264.911.264.5 0 .984.12 1.074.265.09.145.573.264 1.074.264.5 0 .91.12.91.265s.358.265.794.265c.437 0 .794.119.794.264 0 .146.417.265.926.265.51 0 .926.119.926.264 0 .146.357.265.794.265s.794.119.794.264.277.265.617.265.693.075.785.167c.145.146 1.473.639 5.212 1.937 1.088.377 2.067.776 2.709 1.102.252.128.64.234.86.234.22 0 .4.119.4.264s.238.265.53.265.528.119.528.264c0 .146.24.265.533.265.293 0 .74.104.992.232 1.012.511 2.417.826 3.686.826 1.146 0 1.475-.126 2.297-.878.527-.484.959-1.131.959-1.44 0-.308.119-.634.265-.724.145-.09.264-.871.264-1.736 0-.871.118-1.572.265-1.572.16 0 .264-1.19.264-3.042 0-1.674-.109-3.043-.242-3.043s-.298-.744-.367-1.654c-.13-1.719-.342-2.867-.696-3.77-.115-.291-.426-1.243-.693-2.117-.54-1.769-2.478-5.688-2.813-5.688-.119 0-.216-.212-.216-.471s-.238-.642-.529-.852c-.29-.21-.53-.535-.53-.723 0-.43-4.033-4.569-4.452-4.569-.17 0-.31-.119-.31-.264 0-.146-.178-.265-.396-.265s-.397-.099-.397-.22c0-.12-.328-.388-.728-.595-.4-.206-.787-.438-.86-.515-.073-.077-.638-.363-1.257-.636-.618-.272-1.124-.583-1.124-.69 0-.108-.536-.354-1.19-.547-.656-.194-1.191-.445-1.191-.559 0-.114-.231-.207-.514-.207-.282 0-.587-.119-.677-.264-.09-.146-.454-.265-.81-.265-.355 0-.645-.119-.645-.264s-.357-.265-.794-.265c-.436 0-.794-.119-.794-.265s-.35-.264-.778-.264-.843-.106-.923-.235c-.08-.13-.534-.3-1.008-.378a30.631 30.631 0 0 1-2.053-.445c-2.198-.559-9.101-1.304-12.04-1.3-1.6.003-4.874.243-7.275.535-2.401.291-4.961.593-5.689.671-.727.078-1.436.25-1.574.383-.138.132-.756.24-1.373.24s-1.196.119-1.286.264c-.09.146-.811.265-1.603.265-.792 0-1.44.108-1.44.24s-.625.307-1.389.388c-3.058.326-4.046.492-4.286.72-.138.132-.882.24-1.654.24s-1.402.095-1.402.212c0 .437-8.726.895-11.377.598-2.687-.302-4.762-.796-4.762-1.133 0-.114-.155-.207-.345-.207-.486 0-1.768-.622-1.77-.86-.001-.109-.166-.198-.366-.198-.484 0-2.34-1.81-2.714-2.646-.937-2.096-1.182-3.44-.626-3.44.145 0 .264-.178.264-.396 0-.536.204-.501 1.549.267.633.362 1.377.659 1.653.659s.503.119.503.264c0 .146.347.265.771.265.425 0 .816.131.87.292.132.399 8.494.39 8.627-.009.052-.156.501-.283.998-.283.498 0 .904-.12.904-.265 0-.145.24-.264.533-.264.293 0 .74-.112.992-.248.253-.136 1.085-.514 1.849-.84.764-.327 1.389-.678 1.389-.78 0-.101.328-.32.729-.487 1.165-.482 4.012-3.45 4.613-4.807.189-.427.433-.776.543-.776s.2-.357.2-.794.12-.793.265-.793.264-.477.264-1.059.12-1.058.265-1.058.265-.655.265-1.455c0-1.117.092-1.455.396-1.455.219 0 .397-.12.397-.265s.596-.265 1.323-.265c.728 0 1.323-.108 1.323-.24s.685-.305 1.522-.383a55.29 55.29 0 0 0 3.24-.426c1.857-.308 2.457-.392 10.452-1.461 6.334-.847 14.757-1.032 19.645-.43l2.976.365v4.066c0 2.534-.1 4.065-.264 4.065-.146 0-.265.47-.265 1.043s-.119 1.116-.264 1.206c-.146.09-.265.43-.265.757 0 .326-.135.728-.3.893-.225.224-.196.405.113.714.47.47 3.627.6 3.627.15 0-.146.184-.265.408-.265.643 0 1.708-1.23 1.708-1.972 0-.37.12-.674.265-.674s.264-.417.264-.926.101-.926.225-.926.298-1.39.39-3.088c.166-3.11.418-3.923 1.026-3.315.174.175.591.318.926.318.335 0 .608.119.608.264s.298.265.662.265c.798 0 .845.28.132.794-.466.336-.529.685-.529 2.927 0 3.175-.927 6.156-2.41 7.747-.803.863-.636 1.44.506 1.747 1.613.434 4.313-.61 4.878-1.887.182-.41.404-.745.494-.745.259 0 1.559-3.049 1.559-3.655 0-.3.12-.62.265-.71.145-.09.264-.815.264-1.612 0-1.083.107-1.489.424-1.61.233-.09.5-.056.595.075.095.13.5.406.9.612.4.206.727.474.727.595s.179.22.397.22c.218 0 .397.119.397.264s.127.265.283.265c.156 0 .442.149.635.33.193.183.782.689 1.309 1.125 1.415 1.173 5.975 5.822 5.975 6.091 0 .086.356.536.792 1.001.436.465.793.94.794 1.055 0 .116.123.354.27.53 1.04 1.232 1.322 1.631 1.461 2.07.087.274.27.498.405.498.136 0 .247.179.247.397 0 .218.104.397.232.397s.38.357.561.794c.181.436.434.793.562.793.127 0 .232.238.232.53s.09.53.199.53c.109.002.333.27.497.596s1.088 2.122 2.05 3.991c.964 1.87 1.752 3.566 1.752 3.77 0 .205.12.373.265.373s.264.298.264.661.09.663.199.664c.237.002.86 1.284.86 1.77 0 .19.119.345.264.345s.265.203.265.45c0 .38 1.328 3.58 2.145 5.168.13.253.236.64.236.86s.097.4.217.4c.119 0 .379.596.577 1.324s.457 1.323.577 1.323c.119 0 .216.23.216.513s.12.587.265.677c.146.09.265.395.265.677s.119.514.264.514.265.173.265.384c0 .211.427 1.372.95 2.58s1.086 2.523 1.254 2.923c.169.4.396.727.506.727.11 0 .2.193.2.428 0 .755 1.859 2.218 2.818 2.218 1.231 0 2.15-.494 2.534-1.363.184-.415.424-.754.534-.754s.2-.476.2-1.058c0-.582.119-1.058.264-1.058.167 0 .265-1.808.265-4.895 0-3.087-.098-4.895-.265-4.895-.155 0-.264-.926-.264-2.249s-.11-2.249-.265-2.249c-.147 0-.265-.7-.265-1.572 0-.864-.119-1.645-.264-1.735-.146-.09-.265-.685-.265-1.323s-.119-1.233-.264-1.323c-.146-.09-.268-.543-.271-1.008-.005-.671-1.577-7.134-2.169-8.914-.567-1.707-.735-2.362-.735-2.863 0-.317-.12-.576-.265-.576-.145 0-.265-.358-.265-.794s-.119-.794-.264-.794-.265-.231-.265-.513-.119-.588-.264-.677c-.146-.09-.265-.455-.265-.81 0-.355-.119-.646-.264-.646-.146 0-.265-.297-.265-.661s-.12-.662-.265-.662-.264-.172-.264-.382c0-.474-1.896-4.48-2.177-4.6-.112-.05-.204-.317-.204-.596 0-.279-.12-.507-.265-.507s-.265-.179-.265-.397c0-.218-.105-.397-.233-.397-.129 0-.3-.208-.38-.463-.22-.692-1.005-1.946-1.971-3.15a20.65 20.65 0 0 1-.855-1.161 10.628 10.628 0 0 0-.992-1.203c-.328-.337-.596-.685-.596-.772 0-.212-2.86-2.988-3.995-3.878a57.653 57.653 0 0 1-1.693-1.388c-.437-.376-.888-.684-1.003-.684-.116 0-.465-.239-.778-.53-.312-.291-.724-.53-.915-.53s-.347-.118-.347-.264-.178-.264-.397-.264-.397-.12-.397-.265-.238-.264-.529-.264-.529-.12-.529-.265-.167-.265-.372-.265-.83-.23-1.389-.51c-1.418-.711-4.992-1.87-5.766-1.87-.354 0-.717-.12-.807-.265-.09-.146-.55-.265-1.021-.265s-.97-.107-1.11-.237c-.264-.251-1.632-.49-4.153-.726-.837-.078-1.522-.25-1.522-.383s-.714-.241-1.587-.241-1.588-.107-1.588-.236c0-.13-.863-.307-1.918-.394a89.448 89.448 0 0 1-3.902-.429 171.36 171.36 0 0 0-4.366-.52c-1.31-.136-4.405-.56-6.88-.94-2.473-.38-5.185-.76-6.026-.843-.84-.084-1.592-.255-1.67-.38-.076-.125-.542-.227-1.034-.227-.493 0-.969-.12-1.059-.265-.09-.145-.513-.264-.941-.264-.428 0-.779-.12-.779-.265 0-.145-.297-.265-.661-.265-.364 0-.661-.119-.661-.264s-.268-.267-.596-.27c-.327-.004-.893-.24-1.257-.524s-.81-.52-.992-.523c-.182-.003-.33-.117-.33-.253 0-.135-.209-.316-.464-.401-.637-.213-2.14-1.629-3.243-3.056-.506-.655-1.01-1.23-1.12-1.279-.11-.049-.2-.316-.2-.595 0-.28-.09-.507-.2-.507-.11 0-.356-.387-.547-.86a16.956 16.956 0 0 0-.594-1.32 2.449 2.449 0 0 1-.247-.976c0-.285-.12-.59-.265-.68-.145-.09-.264-1.17-.264-2.398 0-1.312.109-2.233.264-2.233.146 0 .265-.16.265-.356 0-.651.95-1.227 2.268-1.375.717-.081 1.631-.198 2.031-.26l.728-.113v2.227c0 1.225.12 2.3.265 2.39.145.09.264.372.264.626 0 .44.984 1.691 2.576 3.278.885.881 4.038 2.579 4.79 2.579.297 0 .614.119.704.264.09.146.55.265 1.021.265s.983.126 1.137.28c.514.513 8.184.099 9.748-.528 2.21-.885 3.531-1.593 4.345-2.326.52-.47 1.022-.856 1.113-.86.092-.003.315-.363.495-.8.181-.436.434-.793.562-.793.127 0 .232-.238.232-.53 0-.29.12-.528.265-.528s.264-.298.264-.662.107-.661.238-.661c.223 0 .346-.645.721-3.77.083-.692.246-1.257.362-1.257 1.805 0 12.182 1.312 12.765 1.614 2.829.819 6.812 1.314 9.33 2.619.09.145.395.264.677.264.282 0 .514.12.514.265s.179.265.397.265c.518 0 5.529 2.38 5.644 2.68.048.126.316.23.595.23.279 0 .507.12.507.265s.238.264.53.264.529.12.529.265.127.264.283.264.802.358 1.436.794c.635.437 1.227.794 1.316.794.089 0 .306.122.481.271.176.15.884.636 1.573 1.081 1.08.698 1.202.861.879 1.184-.206.206-.451.374-.545.374-.48 0-.926.876-.926 1.818 0 .584-.119 1.135-.264 1.225-.146.09-.265.573-.265 1.074 0 .5-.119.91-.264.91-.246 1.383-1.258 2.4-1.852 3.459 0 .156-.179.462-.397.68-.219.218-.397.627-.397.907 0 .452.197.51 1.72.51.97 0 1.72-.115 1.72-.264 0-.145.243-.265.54-.265.564 0 1.84-1.093 1.84-1.575 0-.152.12-.277.265-.277.687-.595 1.06-2.101 1.588-2.645.145 0 .264-.291.264-.646 0-.355.12-.72.265-.81.145-.09.265-.522.265-.96 0-.673.091-.783.592-.712.724.104.902.801.347 1.357-.302.302-.41.968-.41 2.53 0 1.166-.12 2.193-.265 2.283-.145.09-.264.454-.264.81s-.12.645-.265.645-.265.177-.265.393c0 .564-2.298 2.948-3.202 3.323-.594.246-.766.488-.766 1.079 0 .738.041.762 1.325.762 1.316 0 3.702-.872 3.702-1.352 0-.13.156-.236.348-.236.508 0 3.62-3.049 3.62-3.546 0-.232.12-.423.265-.423.146 0 .265-.238.265-.529s.119-.529.264-.529.265-.224.265-.497.157-.627.348-.786c.27-.223.78.163 2.25 1.701 1.045 1.095 1.9 2.078 1.9 2.185 0 .107.473.726 1.052 1.375.579.65 1.123 1.39 1.209 1.644.086.255.259.463.385.463s.3.224.386.497c.087.273.452.839.812 1.257.359.418.653.909.653 1.09 0 .183.098.331.216.331s.379.417.579.927.442.926.538.926.745 1.22 1.441 2.712c.697 1.491 1.489 3.18 1.76 3.753.272.573.494 1.258.494 1.522s.119.48.264.48c.146 0 .265.237.265.528 0 .292.119.53.265.53.145 0 .264.357.264.793 0 .437.12.794.265.794.145 0 .264.218.264.485s.073.558.163.648c.155.155.993 2.404 1.847 4.953.219.654.496 1.428.617 1.72.696 1.688.813 2.07.813 2.658 0 .357.119.649.264.649s.265.297.265.661.12.662.265.662c.145 0 .264.357.264.793 0 .437.12.794.265.794s.264.357.264.794c0 .436.12.794.265.794s.266.267.267.595c.001.327.418 1.887.926 3.466.508 1.579.924 3.15.924 3.49 0 .34.106.685.235.765.13.08.308.563.397 1.074l.323 1.857c.089.51.267.994.397 1.074.13.08.235.614.235 1.188s.12 1.043.265 1.043c.145 0 .264.392.264.873 0 .48.109.986.242 1.124.24.251.35 1.076.81 6.072.578 6.308.889 7.667 2.006 8.785.403.403 1.97.465 1.97.079 0-.146.182-.265.405-.265s.482-.208.576-.463c.094-.254.246-.522.338-.595.16-.127.944-4.518 1.652-9.26.224-1.501.336-5.461.336-11.906 0-10.19-.085-11.212-1.477-17.86-.305-1.455-.617-3.033-.693-3.508-.076-.474-.244-.927-.373-1.007-.13-.08-.236-.496-.236-.924s-.119-.778-.264-.778c-.146 0-.265-.357-.265-.794s-.119-.794-.264-.794c-.146 0-.265-.35-.265-.778s-.119-.851-.264-.941c-.146-.09-.265-.395-.265-.677 0-.283-.12-.514-.265-.514-.145 0-.264-.238-.264-.53 0-.29-.12-.528-.265-.528s-.264-.176-.264-.391c0-.473-1.375-3.41-1.654-3.534-.11-.048-.198-.262-.198-.474 0-.212-.238-.642-.53-.954-.29-.312-.529-.784-.529-1.047s-.119-.48-.264-.48-.265-.178-.265-.396c0-.219-.119-.397-.264-.397s-.265-.179-.265-.397c0-.218-.09-.397-.2-.397s-.36-.36-.554-.8c-.195-.44-.492-.947-.66-1.128-.168-.18-.718-.922-1.221-1.647-.504-.726-1.01-1.36-1.125-1.408-.115-.049-.209-.257-.209-.463 0-.206-.119-.375-.264-.375-.146 0-.265-.135-.265-.3 0-.164-.208-.492-.463-.727-.255-.236-1.176-1.38-2.048-2.545s-1.884-2.414-2.25-2.778c-.365-.364-.977-1.078-1.358-1.587s-1.334-1.604-2.116-2.432c-1.548-1.638-2.348-2.554-2.348-2.686 0-.046-.923-1.045-2.05-2.22a120.191 120.191 0 0 1-3.374-3.663 65.394 65.394 0 0 0-2.121-2.342c-.44-.447-1.088-1.23-1.443-1.739s-.858-1.118-1.12-1.354c-.262-.235-.476-.536-.476-.669s-.238-.413-.529-.623c-.29-.21-.529-.48-.529-.6s-.393-.838-.873-1.595c-1.095-1.727-2.567-4.781-2.567-5.328 0-.228-.119-.414-.264-.414-.146 0-.265-.35-.265-.778s-.119-.852-.264-.942c-.146-.09-.265-.513-.265-.941 0-.428-.119-.779-.264-.779s-.265-.41-.265-.91-.12-.984-.265-1.074c-.153-.095-.264-1.55-.264-3.467 0-3.234.015-3.319.712-4.016.642-.642.885-.708 2.443-.665.951.026 1.772.174 1.823.328.051.154.258.28.459.28.768 0 2.236.9 2.236 1.371 0 .264-.12.48-.265.48-.145 0-.264.358-.264.794 0 .437-.103.794-.228.794-.28 0-.655 2.58-.633 4.366.021 1.704.324 3.307.625 3.307.13 0 .236.298.236.661s.098.662.22.662c.12 0 .388.327.594.727s.435.788.508.86.609.728 1.191 1.455c1.437 1.796 3.227 3.572 3.6 3.572.169 0 .5.215.735.478.673.751 2.64 1.53 4.694 1.86 3.158.506 6.043-.275 8.155-2.21.517-.473.94-.942.94-1.042 0-.1.16-.342.357-.539.3-.3.757.038 2.844 2.099 3.054 3.015 8.028 8.207 10.16 10.606.873.982 1.829 2.037 2.123 2.345.294.307.815.955 1.157 1.44.342.484.876 1.145 1.185 1.469.962 1.007 1.753 2.01 1.753 2.223 0 .113.238.376.53.586.29.21.528.534.528.72 0 .186.12.338.265.338s.265.153.265.339c0 .186.238.51.529.72.29.21.529.468.529.574 0 .107.536.96 1.19 1.897.655.937 1.191 1.781 1.191 1.876 0 .095.238.428.53.74.29.313.528.725.528.916s.12.347.265.347.265.178.265.396c0 .219.119.397.264.397s.265.238.265.53.119.529.264.529.265.238.265.529c0 .29.119.529.264.529s.265.119.265.265-.179.264-.397.264c-.218 0-.397.12-.397.265 0 .16-1.146.264-2.91.264s-2.91.105-2.91.265c0 .145-.184.264-.409.264-.225 0-.727.296-1.116.657-1.069.99-.52 1.31 2.433 1.418 1.902.07 2.934-.036 4.488-.463 1.11-.304 2.076-.553 2.146-.553.19 0 1.453 2.687 1.453 3.092 0 .191.12.347.265.347s.265.225.265.499c0 .344-.452.712-1.463 1.19-1.604.76-2.18.828-3.566.422-2.134-.626-4.496.58-4.496 2.297 0 1.556.75 1.922 4.36 2.13 1.97.113 3.525-.133 4.698-.743.253-.131.7-.238.992-.238.293 0 .533-.12.533-.265s.09-.264.198-.263c.27.003.86 1.313.86 1.907 0 .264.109.687.241.94.462.88 1.45 6.07 2.154 11.306.962 7.157 1.176 19.248.55 31.09-.195 3.71-.45 8.651-.564 10.98-.367 7.445-.754 13.441-1.303 20.167-.756 9.273-.812 9.994-.96 12.508-.074 1.237-.245 2.487-.382 2.778-.136.291-.313 1.542-.393 2.778l-.291 4.565c-.081 1.273-.258 2.315-.393 2.315s-.246 1.012-.246 2.249-.107 2.249-.238 2.249-.304.982-.386 2.182c-.283 4.13-.49 5.888-.727 6.139-.13.138-.237.76-.237 1.381s-.416 3.756-.926 6.966c-.51 3.21-.926 6.429-.926 7.152 0 .723-.11 1.315-.243 1.315-.244 0-.444 1.771-.708 6.284-.079 1.346-.254 2.447-.39 2.447-.14 0-.246 1.593-.246 3.704 0 2.172-.105 3.705-.253 3.705-.154 0-.302 4.7-.382 12.105-.072 6.657-.245 13.355-.386 14.883l-.446 4.834c-.105 1.132-.294 2.12-.42 2.199-.127.078-.23.626-.23 1.218 0 1.141-1.211 6.911-1.614 7.686a2.521 2.521 0 0 0-.238.977c0 .284-.096.576-.212.648-.117.072-.377.734-.577 1.47-.201.738-.463 1.34-.582 1.34-.12 0-.217.228-.217.505 0 .54-1.059 2.744-1.389 2.891-.109.049-.198.289-.198.534 0 .245-.298.884-.662 1.42-.363.534-.661 1.098-.661 1.251 0 .153-.099.279-.22.279-.12 0-.388.327-.593.727s-.583.92-.839 1.156c-.256.235-.465.563-.465.727 0 .165-.119.3-.264.3-.146 0-.265.11-.265.244 0 .341-4.162 4.519-4.503 4.519-.153 0-.542.246-.864.547-.846.79-3.35 2.363-3.762 2.363-.194 0-.391.09-.44.199-.147.33-2.351 1.389-2.891 1.389-.278 0-.504.097-.504.216 0 .12-.603.381-1.34.582-.737.2-1.399.46-1.471.577-.072.117-.474.212-.894.212-.419 0-.836.12-.926.265-.09.145-.429.264-.753.264-.325 0-1.3.19-2.168.424-.867.232-2.589.597-3.826.81-2.759.475-4.56.796-6.548 1.166-.837.156-2.265.345-3.175.42-.91.075-1.654.245-1.654.378s-.654.242-1.455.242c-.8 0-1.455.105-1.455.234s-.804.313-1.786.41l-3.241.319c-.8.078-1.568.25-1.707.383-.138.133-.793.244-1.455.247-.662.003-1.979.117-2.926.254-1.647.239-3.612.476-8.86 1.07-7.738.877-29.212 1.908-30.163 1.449zm33.925-55.726c.55-.308 1.088-.695 1.195-.86.107-.165.196-1.675.198-3.356.002-1.68.118-3.17.257-3.308s.317-2.455.397-5.146l.288-9.722c.083-2.8.25-4.83.396-4.83.151 0 .254-1.712.254-4.232 0-3.666.055-4.234.414-4.234.228 0 1.316.417 2.418.926 3.829.973 8.785 5.356 12.466 5.953.727.412 1.446.957 2.23 1.304.473.206.92.445.992.53.073.087.698.443 1.39.791.69.349 1.256.734 1.256.857s.11.223.246.223c.325 0 3.566 1.919 3.679 2.178 2.03 1.16 4.092 2.411 5.865 3.907l1.245 1.056c.176.147.42.267.544.267s.657.387 1.186.86c.529.473 1.64 1.455 2.47 2.183 1.787 1.565 5.932 5.674 5.932 5.88 0 .079.256.365.57.637.417.362.986.494 2.134.494 2.213 0 3.381-.693 3.381-2.006 0-.578-.774-1.489-3.902-4.585-2.147-2.126-4.498-4.335-5.226-4.911-.727-.576-1.515-1.26-1.75-1.52s-.58-.472-.763-.472c-.184 0-.528-.217-.763-.482s-1.44-1.157-2.677-1.982a138.822 138.822 0 0 1-2.513-1.7c-.146-.111-.592-.37-.993-.577-1.061-.736-2.31-1.688-3.373-2.138-.437-.18-.796-.404-.798-.495-.002-.091-.747-.524-1.654-.96s-1.689-.883-1.737-.992-.262-.199-.474-.199-.642-.238-.954-.529c-1.133-.342-1.808-1.14-2.602-1.587-.155 0-2.076-.893-4.268-1.985-2.188-.498-4.503-2.352-6.082-3.042-.171 0-.886-.26-1.587-.577-1.087-.49-1.275-.687-1.275-1.323.237-.743 1.449-3.24 1.852-3.657.145 0 .264-.124.264-.277s.417-.929.927-1.725.926-1.564.926-1.707c0-.143.104-.26.232-.26s.38-.357.561-.793c.997-1.485 1.906-2.813 2.712-3.767.255-.301.463-.63.463-.731 0-.161.315-.585 1.318-1.775.149-.176.27-.392.27-.482s.149-.319.33-.51c.639-.673 1.257-1.474 1.257-1.628 0-.085.358-.489.794-.897s.794-.85.794-.982c0-.133.212-.472.47-.754.26-.282.825-.989 1.257-1.571s1.112-1.374 1.513-1.76.729-.81.729-.942c0-.133.208-.473.463-.757s.936-1.11 1.516-1.835c.579-.726 1.204-1.478 1.389-1.67.185-.193.336-.432.336-.532s.27-.479.599-.841c.33-.362 1.163-1.433 1.853-2.379s1.372-1.863 1.517-2.04.264-.413.264-.528c0-.116.269-.527.596-.915 1.134-1.339 4.832-6.77 4.96-7.757 0-.22.12-.401.265-.401.402 0 .316-1.31-.113-1.74-.398-.396-3.591-.555-3.591-.177 0 .11-.328.347-.728.526-.493.221-1.068.968-1.784 2.314-1.132 2.116-2.45 3.89-3.574 5.691-.36.582-.745 1.059-.856 1.059s-.204.148-.206.33c-.002.182-.36.734-.794 1.227s-.79.993-.79 1.112c0 .12-.297.515-.66.878-.365.364-.662.76-.662.88s-.238.39-.53.6c-.29.21-.529.504-.529.653 0 .15-.296.63-.656 1.066-.832 1.007-.891 1.081-1.997 2.514-.505.655-1.008 1.23-1.117 1.279-.11.048-.198.201-.198.34 0 .138-.387.644-.86 1.125-.753.765-2.177 2.603-2.977 3.842-.145.225-.592.729-.992 1.119a83.874 83.874 0 0 0-2.585 3.485c-.632.75-1.212 1.5-1.582 2.047-.219.322-.516.72-.662.884s-.433.626-.64 1.026c-.532.88-1.2 1.429-1.63 2.25-.207.4-.47.846-.585.991-.641.809-2.04 3.207-2.04 3.497 0 .187-.09.34-.2.34s-.358.357-.55.794c-.693 1.563-.921.92-.729-2.05.102-1.565.293-4.988.426-7.608.337-6.676.745-14.169.906-16.669.076-1.164.275-5.263.444-9.108l.307-6.992-.596-.483c-.807-.654-2.29-.609-3.722.113l-1.18.595-.075 3.11c-.04 1.71-.183 3.108-.315 3.108s-.309 2.292-.393 5.093l-.293 9.723c-.077 2.546-.253 4.743-.392 4.881-.142.143-.252 2.425-.252 5.227 0 2.736-.106 4.974-.235 4.974s-.306 2.47-.394 5.49c-.088 3.02-.278 7.633-.422 10.253-.144 2.62-.375 6.965-.515 9.657-.139 2.693-.317 5.729-.395 6.747-.078 1.019-.282 5.22-.453 9.337-.366 8.807-.37 8.787 1.657 8.787.802 0 1.639-.206 2.27-.56zm-94.052-5.521c-.426-.397-.934-.534-1.988-.534h-1.415l-.84-6.68a972.366 972.366 0 0 1-.982-8.004c-.08-.727-.264-2.216-.411-3.307a113.853 113.853 0 0 1-.416-3.545l-.15-1.561 1.283.175c.705.097 1.322.293 1.37.437.049.143.208.26.354.26s1.01.752 1.92 1.671c1.69 1.706 3.062 4.086 3.062 5.309 0 .364.101.725.225.801.574.355.918 8.626.474 11.402-.287 1.795-1.124 3.849-1.637 4.018-.152.05-.534-.149-.849-.442zm-6.067-49.241c.084-.496.272-1.437.42-2.092.147-.655.383-1.81.525-2.569s.624-2.746 1.07-4.418.812-3.285.812-3.583.119-.543.264-.543.265-.35.265-.778.119-.852.265-.941c.145-.09.264-.574.264-1.074 0-.501.12-.91.265-.91s.264-.358.264-.795.12-.793.265-.793.268-.387.273-.86c.011-1.18.528-1.804 1.32-1.597.78.204 2.11 1.364 2.11 1.839 0 .194.1.353.223.353.342 0 .836 1.258.836 2.13 0 .429.12.78.265.78.159 0 .264 1.059.264 2.646s-.105 2.646-.264 2.646c-.146 0-.265.438-.265.973 0 1.13-.583 3.13-1.354 4.646-.128.253-.233.621-.233.82s-.238.634-.53.97c-.29.335-.53.68-.533.767-.008.313-1.465 1.8-2.112 2.156-.364.2-1.376.439-2.25.53-.872.09-1.81.262-2.083.381-.445.194-.481.122-.346-.684zm12.881-99.54c-1.527-.443-3.166-1.227-3.82-1.828-.282-.26-.643-.472-.801-.472s-.46-.238-.67-.529c-.263-.364-.685-.53-1.357-.53-1.36 0-1.125-.56.995-2.38.932-.8 1.863-1.604 2.068-1.786.205-.182.5-.33.656-.33.156 0 .283-.12.283-.266s.18-.264.4-.264c.221 0 .608-.105.86-.234.87-.442 1.784-.785 2.445-.916.363-.073 2.267-.499 4.229-.946 1.962-.448 3.89-.815 4.284-.815s.79-.119.88-.264c.09-.146.513-.265.94-.265h.779v2.253c0 1.239-.103 2.46-.23 2.712l-.936 1.866c-.93 1.85-2.75 3.637-4.54 4.456-1.754.803-4.702 1.048-6.465.538zm44.847-43.84c-.09-.145-.513-.264-.941-.264-.428 0-.779-.119-.779-.265s-.297-.264-.661-.264-.662-.12-.662-.265a.264.264 0 0 0-.261-.264c-.608 0-3.178-2.43-3.178-3.004 0-.24-.093-.436-.207-.436-.35 0-.892-2.25-.803-3.336l.084-1.03 8.438-.212c4.64-.117 8.6-.15 8.797-.074.425.163.515 3.064.095 3.064-.145 0-.265.596-.265 1.323 0 .728-.119 1.323-.264 1.323s-.265.238-.265.53c0 .29-.119.529-.264.529s-.265.15-.265.332c0 .5-1.796 2.049-2.374 2.049-.278 0-.579.119-.669.264-.09.148-1.32.265-2.778.265-1.457 0-2.687-.117-2.778-.265zm74.348-13.267c-2.017-1.097-6.2-4.906-6.213-5.657-.003-.15-.243-.444-.534-.654s-.529-.593-.529-.852c0-.26-.119-.471-.264-.471-.16 0-.265-1.102-.265-2.778 0-3.157.185-3.377 1.668-1.984.465.437 1.054.862 1.309.944.254.082.463.252.463.378s.244.307.542.401c.298.095.95.58 1.446 1.077.498.497 1.001.904 1.12.904s.386.238.596.529c.21.29.469.529.575.529.107 0 .478.268.825.595.346.328 1.072.953 1.612 1.39.54.436 1.347 1.12 1.791 1.52l.81.728-.823.768c-.452.422-.821 1.018-.821 1.323 0 .305-.12.555-.265.555-.146 0-.265.166-.265.369 0 .692-1.764.937-2.778.386z"/></svg>