<svg width="16" height="16" viewBox="0 0 16 16" fill="none" xmlns="http://www.w3.org/2000/svg">
<path opacity="0.75" fill-rule="evenodd" clip-rule="evenodd" d="M5.05466 9.7487C5.26572 10.159 5.55053 10.5258 5.89201 10.8314C6.55596 11.4257 7.4309 11.7861 8.39183 11.7861C9.86311 11.7861 11.1379 10.9389 11.7524 9.70236L13.0957 10.3699C12.2375 12.0968 10.4543 13.2861 8.39183 13.2861C7.04769 13.2861 5.81997 12.78 4.89164 11.9491C4.54444 11.6384 4.23866 11.2819 3.98386 10.8888L3.78248 13.104L2.28864 12.9682L2.64219 9.07912C2.67497 8.71855 2.96065 8.43288 3.32121 8.4001L7.2103 8.04655L7.3461 9.54039L5.05466 9.7487Z" fill="currentColor"/>
<path fill-rule="evenodd" clip-rule="evenodd" d="M11.041 6.53841C10.83 6.12813 10.5452 5.76131 10.2037 5.45567C9.53975 4.86142 8.6648 4.50098 7.70388 4.50098C6.23259 4.50098 4.9578 5.34817 4.34327 6.58475L3 5.9172C3.85817 4.19035 5.64144 3.00098 7.70388 3.00098C9.04802 3.00098 10.2757 3.50709 11.2041 4.33796C11.5513 4.64872 11.857 5.00526 12.1118 5.39827L12.3132 3.1831L13.8071 3.31891L13.4535 7.20799C13.4207 7.56856 13.1351 7.85423 12.7745 7.88701L8.88541 8.24056L8.7496 6.74672L11.041 6.53841Z" fill="currentColor"/>
</svg>
