<svg xmlns="http://www.w3.org/2000/svg" viewBox="0 0 2048 2048" style="enable-background:new 0 0 2048 2048" xml:space="preserve"><style>.st0{display:none}.st1{display:inline}.st2{fill:#e6ff00}.st3{fill:#fff}.st6{fill:#00ffc1}.st8{fill:#e6d200}</style><g id="Ebene_12"><circle class="st2" cx="1024" cy="1024" r="868.12"/><path d="M1024 155.88c479.45 0 868.12 388.67 868.12 868.12s-388.67 868.12-868.12 868.12S155.88 1503.45 155.88 1024 544.55 155.88 1024 155.88M1024 0C459.36 0 0 459.36 0 1024s459.36 1024 1024 1024 1024-459.36 1024-1024S1588.64 0 1024 0z"/><circle class="st3" cx="1364.51" cy="766.13" r="293.56"/><circle cx="1364.51" cy="766.13" r="94.98"/><circle class="st3" cx="700.99" cy="766.13" r="293.56"/><circle cx="700.99" cy="766.13" r="99.99"/><path d="M762.9 1456.71h522.2v93.53H762.9z"/></g></svg>