<svg xmlns="http://www.w3.org/2000/svg" viewBox="0 0 2048 1556" style="enable-background:new 0 0 2048 1556" xml:space="preserve"><path d="M655.4 572.1h1103.14V264.75c0-31.41 14.43-74.63 83.39-74.63 61.19 0 74.63 43.22 74.63 74.63V1424.4h-861.85c-64.59 0-51.12-36.42-51.12-119.65V686.31H655.4c-31.41 0-57.11-25.7-57.11-57.11s25.7-57.1 57.11-57.1z" style="fill:#e6ff00"/><path d="M1841.93 190.12c-68.96 0-83.39 43.22-83.39 74.63V572.1H655.4c-31.41 0-57.11 25.7-57.11 57.11s25.7 57.11 57.11 57.11h348.19v618.44c0 83.23-13.47 119.65 51.12 119.65h861.85V264.75c0-31.4-13.43-74.63-74.63-74.63m0-131.43c119.4 0 206.07 86.66 206.07 206.07v1291.08h-993.29c-56.65 0-102.21-17.33-135.42-51.5-51.02-52.51-49.13-118.5-47.75-166.68.3-10.5.61-21.36.61-32.9v-487H655.4c-103.96 0-188.54-84.58-188.54-188.54s84.58-188.54 188.54-188.54h971.71V264.75c0-50.67 15.95-96.68 46.14-133.04 27.65-33.31 79.36-73.02 168.68-73.02z"/><path d="M882.45 1177.88H1492v131.44H882.45zM882.45 931.63H1492v131.44H882.45zM882.45 685.37H1492v131.44H882.45zM0 533.08h288.47v78.86H0zM145.355 148.742l55.762-55.77 204.006 203.977-55.762 55.77zM579.8 0h78.86v288.47H579.8zM145.345 1022.496 349.322 818.52l55.762 55.762-203.977 203.977zM579.8 938.2h78.86v288.47H579.8z"/></svg>