<svg width="62" height="58" xmlns="http://www.w3.org/2000/svg"><g fill-rule="nonzero" fill="none"><g transform="translate(1)"><path d="M61 34.5C61 47.5 49 58 30.6 58S.3 47.5.3 34.5 12.2 2 30.6 2 61 21.5 61 34.5Z" fill="#F7910B"/><path d="M61 34.5C61 47.5 49 54 30.6 54S.3 47.5.3 34.5 12.2 0 30.6 0 61 21.5 61 34.5Z" fill="#F7910B"/><path d="M30.6 0C49 0 61 21.5 61 34.5S49 54 30.6 54" fill="#F9A908"/><path d="M61 34.5C61 47.5 49 54 30.6 54S.3 47.5.3 34.5 12.2 2 30.6 2 61 21.5 61 34.5Z" fill="#F9A908"/><path d="M.3 34.5C.3 21.5 12.2 2 30.6 2" fill="#F9C55D"/><path d="M30.6 2C49 2 61 21.5 61 34.5S49 58 30.6 58" fill="#F7910B"/><path d="M30.6 2C49 2 61 21.5 61 34.5" fill="#EA7103"/><path d="M27.5 11.8c-1.7.6-2.9 1.7-2.6 2.5l6.2-2.1c-.3-.8-1.9-1-3.6-.4ZM14.9 11.9c-1.8-.4-3.3-.1-3.5.8l6.4 1.5c.1-.9-1.2-1.9-2.9-2.3Z" fill="#19BCA4"/><path d="M14.4 13.8c1.8.4 3.1 1.2 3.3.3l-6.4-1.5c-.2.9 1.4.8 3.1 1.2ZM28.2 13.6c1.7-.6 3.2-.6 3-1.5L25 14.2c.2.9 1.4 0 3.2-.6Z" fill="#109DA0"/><path d="M9.9 24.3c-4.3 0-7.8 1-7.8 2.2 0 1.2 3.5.7 7.8.7s7.8.6 7.8-.7c0-1.2-3.5-2.2-7.8-2.2Z" fill="#F9C55D"/><path d="M31 24.3c-4.3 0-7.8 1-7.8 2.2 0 1.2 3.5.7 7.8.7s7.8.6 7.8-.7c0-1.2-3.5-2.2-7.8-2.2Z" fill="#F9A908"/><path d="M9 22.1c.4-.2.8-.3 1.3-.1 1.9.6 3.9-.5 4.5-2.4.3-.9 1.2-1.4 2.1-1.1.9.3 1.4 1.2 1.1 2.1-1.1 3.6-5 5.7-8.6 4.6-.9-.3-1.4-1.2-1.1-2.1 0-.4.3-.8.7-1Z" fill="#1E4784"/><path d="M9.3 25.1c-.9-.3-1.4-1.2-1.1-2.1.1-.4.4-.8.8-1 .4-.2.8-.3 1.3-.1 1.9.6 3.9-.5 4.5-2.4.3-.9 1.2-1.4 2.1-1.1.9.3 1.4 1.2 1.1 2.1" fill="#02243E"/><path d="M32.6 22.2c-.4-.2-.8-.3-1.3-.2-1.9.5-3.9-.6-4.4-2.5-.2-.9-1.1-1.4-2-1.2-.9.2-1.4 1.1-1.2 2 1 3.7 4.8 5.8 8.5 4.8.9-.2 1.4-1.1 1.2-2-.1-.3-.4-.6-.8-.9Z" fill="#1E4784"/><path d="M32.3 25.3c.9-.2 1.4-1.1 1.2-2-.1-.4-.4-.8-.8-1-.4-.2-.8-.3-1.3-.2-1.9.5-3.9-.6-4.4-2.5-.2-.9-1.1-1.4-2-1.2-.9.2-1.4 1.1-1.2 2" fill="#02243E"/><circle fill="#F7910B" cx="9" cy="31.5" r="1"/><circle fill="#F7910B" cx="4.5" cy="33.5" r="1.1"/><circle fill="#F7910B" cx="7.5" cy="29.5" r="1"/><circle fill="#F7910B" cx="12" cy="31.3" r="1"/><circle fill="#F9A908" cx="57.2" cy="34.4" r="1"/><circle fill="#F9A908" cx="53.7" cy="33.2" r="1"/><circle fill="#F9A908" cx="57.8" cy="40.2" r="1"/><circle fill="#F9A908" cx="54.1" cy="44" r="1.3"/><circle fill="#F9A908" cx="55.1" cy="36.1" r="1"/><circle fill="#F7910B" cx="8" cy="35.5" r="1"/><circle fill="#F7910B" cx="20.8" cy="18.2" r="1"/><circle fill="#F9A908" cx="3.5" cy="13.3" r="1.1"/><circle fill="#F9A908" cx="6.6" cy="9.8" r="1"/><circle fill="#F9A908" cx="57.8" cy="15.7" r="1"/><circle fill="#F9A908" cx="57" cy="12.8" r="1"/><circle fill="#F9A908" cx="59.6" cy="13.3" r="1"/><circle fill="#F9A908" cx="4.6" cy="16.3" r="1"/></g><path d="M33 41.6c.8 7.1-3.9 13.4-9.1 14-5.2.6-8.7-4.8-9.5-11.9-.8-7.1.1-13 5.2-13.6 5.2-.5 12.6 4.5 13.4 11.5Z" fill="#C42260"/><path d="M14.5 43.8c-.8-7.1.1-13 5.2-13.6 5.1-.6 12.5 4.4 13.3 11.4" fill="#99144A"/><path d="M32.5 47.2c-1.1-.3-2.2-.5-3.4-.5-1.1 0-2.2.2-3.2.4-1-.3-2.1-.4-3.2-.4-2.7 0-5.2.9-7.1 2.3 1.6 4.3 4.5 7.1 8.3 6.7 3.8-.5 7.3-4 8.6-8.5Z" fill="#E2446E"/><g transform="translate(0 31)"><path d="M26.8 7.2s-6.3-4.5-15-4C2.6 3.8-3.1 8.9 2 13.7c0 0-3.5 3.6-1 6.5 4.9 5.6 13.3-7.8 18.1-8.1 0 0-3 .8-2.7 4.5.2 3.7 5.1 5.1 7.7-.3 2.6-5.3 2.7-9.1 2.7-9.1Z" fill="#11D389"/><path d="M24.1 16.4c2.6-5.4 2.7-9.1 2.7-9.1s-6.3-4.5-15-4M2 13.7s-3.5 3.6-1 6.5c4.9 5.6 13.3-7.8 18.1-8.1" fill="#12AD79"/><path d="M6.4 8.2c.1.8-.5 1.5-1.3 1.6-.8.1-1.5-.5-1.6-1.3-.1-.8.5-1.5 1.3-1.6.9-.1 1.6.5 1.6 1.3Z" fill="#38E8A0"/><circle fill="#38E8A0" cx="7.4" cy="6.3" r="1"/><circle fill="#38E8A0" cx="12.3" cy="10.6" r="1"/><circle fill="#38E8A0" cx="11.1" cy="5.8" r="1"/><circle fill="#38E8A0" cx="3.8" cy="16.5" r="1"/><circle fill="#38E8A0" cx="13.8" cy="8.1" r="1"/><path d="M23.4 7.2c.1.9-.6 1.8-1.5 1.8-.9.1-1.8-.6-1.8-1.5-.1-.9.6-1.8 1.5-1.8.9-.1 1.7.5 1.8 1.5Z" fill="#11D389"/><circle fill="#38E8A0" cx="21.9" cy=".9" r="1"/><circle fill="#12AD79" cx="25.5" cy="2.2" r="1"/><circle fill="#11D389" cx="22.4" cy="3.6" r="1"/><circle fill="#11D389" cx="17.8" cy="9.2" r="1.2"/><circle fill="#38E8A0" cx="20.1" cy="15.5" r="1"/></g><g transform="translate(9 43)"><path d="M8.9.4s1.8 3.4.9 7.6c-.9 4.5-3.9 6.9-5.9 4 0 0-2 1.5-3.3 0-2.4-2.8 4.8-5.9 5.3-8.3 0 0-.6 1.4-2.4 1-1.8-.4-2.1-2.8.7-3.7C7 .2 8.9.4 8.9.4Z" fill="#11D389"/><path d="M4.2 1.1C7 .2 8.9.4 8.9.4s1.8 3.4.9 7.6M3.9 12.1s-2 1.5-3.3 0c-2.4-2.8 4.8-5.9 5.3-8.3" fill="#12AD79"/><path d="M6.9 10.3c-.4-.1-.8.1-.9.5-.1.4.1.8.5.9.4.1.8-.1.9-.5.1-.4-.1-.8-.5-.9Z" fill="#38E8A0"/><circle fill="#38E8A0" cx="7.9" cy="10" r="1"/><circle fill="#38E8A0" cx="6.2" cy="7.3" r="1"/><circle fill="#38E8A0" cx="8.4" cy="8.2" r="1"/><circle fill="#38E8A0" cx="2.6" cy="11" r="1"/><circle fill="#38E8A0" cx="7.5" cy="6.7" r="1"/><path d="M8.6 2.1c-.4-.1-.9.2-1 .6-.1.4.2.9.6 1 .4.1.9-.2 1-.6.2-.4-.1-.9-.6-1Z" fill="#11D389"/><circle fill="#38E8A0" cx="11.6" cy="3.3" r="1"/><circle fill="#12AD79" cx="11.2" cy="1.4" r="1"/><circle fill="#11D389" cx="10.3" cy="2.8" r="1"/><circle fill="#11D389" cx="7.2" cy="4.7" r="1"/><circle fill="#38E8A0" cx="4.3" cy="3.1" r="1"/></g></g></svg>