<svg width="62" height="60" xmlns="http://www.w3.org/2000/svg"><g transform="translate(-1)" fill-rule="nonzero" fill="none"><ellipse fill="#EA7103" transform="rotate(-15.885 11.604 50.799)" cx="11.604" cy="50.799" rx="8.8" ry="8.5"/><g transform="translate(1)"><path d="M61.3 35.2c0 13-11.9 23.5-30.3 23.5S.7 48.2.7 35.2 12.6 2.7 31 2.7s30.3 19.5 30.3 32.5Z" fill="#F7910B"/><path d="M61.3 35.2c0 13-11.9 19.5-30.3 19.5S.7 48.2.7 35.2 12.6.7 31 .7s30.3 21.5 30.3 34.5Z" fill="#F7910B"/><path d="M31 .7c18.4 0 30.3 21.5 30.3 34.5S49.4 54.7 31 54.7" fill="#F9A908"/><path d="M61.3 35.2c0 13-11.9 19.5-30.3 19.5S.7 48.2.7 35.2 12.6 2.7 31 2.7s30.3 19.5 30.3 32.5Z" fill="#F9A908"/><path d="M.7 35.2C.7 22.2 12.6 2.7 31 2.7" fill="#F9C55D"/><path d="M31 2.7c18.4 0 30.3 19.5 30.3 32.5S49.4 58.7 31 58.7" fill="#F7910B"/><path d="M31 2.7c18.4 0 30.3 19.5 30.3 32.5" fill="#EA7103"/><g transform="translate(17 19)"><circle fill="#EA7103" cx="3.6" cy="4.4" r="3.2"/><circle fill="#EA7103" cx="24.4" cy="4.4" r="3.2"/><circle fill="#1E4784" cx="3.6" cy="3.5" r="3.2"/><path d="M3.6.3c1.8 0 3.2 1.4 3.2 3.2 0 1.8-1.4 3.2-3.2 3.2" fill="#00233F"/><circle fill="#1E4784" cx="24.4" cy="3.5" r="3.2"/><path d="M24.4.3c1.8 0 3.2 1.4 3.2 3.2 0 1.8-1.4 3.2-3.2 3.2" fill="#00233F"/></g><g fill="#19BCA4"><path d="M24.7 9.8c0 .9-1.4.5-3.3.6-1.8.1-3.3.6-3.3-.3 0-.9 1.4-1.6 3.2-1.7 1.9-.2 3.4.5 3.4 1.4ZM37.3 9.8c0 .9 1.4.5 3.3.6 1.8.1 3.3.6 3.3-.3 0-.9-1.4-1.6-3.2-1.7-1.9-.2-3.4.5-3.4 1.4Z"/></g><g fill="#109DA0"><path d="M24.7 9.8c0 .9-1.4.5-3.3.6-1.8.1-3.3.6-3.3-.3M37.3 9.8c0 .9 1.4.5 3.3.6 1.8.1 3.3.6 3.3-.3"/></g><path d="M26.8 28.5c0 1.2-3.5.7-7.8.7s-7.8.6-7.8-.7c0-1.2 3.5-2.2 7.8-2.2s7.8 1 7.8 2.2Z" fill="#F9C55D"/><path d="M50.8 28.5c0 1.2-3.5.7-7.8.7s-7.8.6-7.8-.7c0-1.2 3.5-2.2 7.8-2.2s7.8 1 7.8 2.2Z" fill="#F9A908"/><path d="M37.7 35.8c0 2.4-3 6.6-6.7 6.6s-6.7-4.3-6.7-6.6" fill="#F7910B"/><g fill="#02243E"><path d="M17.3 33.8c-.6 0-1-.4-1-1s.4-1 1-1c.8 0 1.4-.6 1.4-1.4 0-.6.4-1 1-1s1 .4 1 1c.1 1.9-1.5 3.4-3.4 3.4ZM44.7 33.8c-1.9 0-3.4-1.5-3.4-3.4 0-.6.4-1 1-1s1 .4 1 1c0 .8.6 1.4 1.4 1.4.6 0 1 .4 1 1s-.5 1-1 1Z"/></g><path d="M31 38.3c-4.8 0-9.3-1.9-12.7-5.2-.4-.4-.4-1 0-1.4.4-.4 1-.4 1.4 0 3 3 7 4.7 11.3 4.7 4.3 0 8.2-1.7 11.3-4.7.4-.4 1-.4 1.4 0 .4.4.4 1 0 1.4-3.4 3.4-7.9 5.2-12.7 5.2Z" fill="#02243E"/><path d="M36.3 33.3c0 1.1-2.4 2.1-5.3 2.1s-5.3-.9-5.3-2.1" fill="#F9C55D"/><circle fill="#F7910B" cx="9.3" cy="32.2" r="1"/><circle fill="#F7910B" cx="4.8" cy="34.2" r="1.1"/><circle fill="#F7910B" cx="7.8" cy="30.2" r="1"/><circle fill="#F7910B" cx="12.4" cy="32" r="1"/><circle fill="#F9A908" cx="51.6" cy="32.5" r="1"/><circle fill="#F9A908" cx="54.1" cy="33.9" r="1"/><circle fill="#F9A908" cx="48.8" cy="25.1" r="1"/><circle fill="#F9A908" cx="48.3" cy="36.7" r="1.3"/><circle fill="#F9A908" cx="55.5" cy="36.8" r="1"/><circle fill="#F7910B" cx="8.3" cy="36.2" r="1"/><circle fill="#F7910B" cx="9.1" cy="27.8" r="1"/><circle fill="#F9A908" cx="3.8" cy="14" r="1.1"/><circle fill="#F9A908" cx="7" cy="10.5" r="1"/><circle fill="#F9A908" cx="58.2" cy="16.4" r="1"/><circle fill="#F9A908" cx="57.4" cy="13.5" r="1"/><circle fill="#F9A908" cx="60" cy="14" r="1"/><circle fill="#F9A908" cx="5" cy="17" r="1"/></g><g transform="translate(1 32)"><path d="M13 8c2.9 5.8.8 5-.8 5.8-1.7.8-2.3 3-5.2-2.8-2.9-5.8-2.7-8.8-1-9.6 1.6-.8 4.1.8 7 6.6Z" fill="#CCF2E3"/><path d="M5.9 1.4C7.6.6 10.1 2.2 13 8c2.9 5.8.8 5-.8 5.8" fill="#AAD6C3"/><path d="M8.8 14.5c2.9 5.8.8 5-.9 5.8-1.7.8-1.9 3.8-4.8-2S.1 8.7 1.7 7.9c1.7-.8 4.2.8 7.1 6.6Z" fill="#CCF2E3"/><path d="M1.7 7.9c1.7-.8 4.2.8 7 6.6 2.9 5.8.8 5-.9 5.8" fill="#AAD6C3"/><path d="M20.2 7.4c2.9 5.8.8 5-.8 5.8-1.7.8-2.3 3-5.2-2.8-2.9-5.8-2.7-8.8-1-9.6 1.6-.8 4.1.8 7 6.6Z" fill="#CCF2E3"/><path d="M13.1.8c1.7-.8 4.2.8 7.1 6.6 2.9 5.8.8 5-.8 5.8" fill="#AAD6C3"/><path d="M22.1 11.2c2.7 5.3 2.1 11.2-3.3 13.9-5.4 2.7-11.9.6-14.6-4.8-2.7-5.3.7-9.5 6.1-12.2 5.4-2.6 9.1-2.2 11.8 3.1Z" fill="#CCF2E3"/><path d="M22.1 11.2c2.7 5.3 2.1 11.2-3.3 13.9-5.4 2.7-9.4-1.2-12.1-6.6C4 13.3 1.8 13.1 10 8.3c5.3-3 9.3-2.6 12.1 2.9Z" fill="#AAD6C3"/><path d="M25.1 8.7c2 .9 1.8 5.6-.5 10.5-2.2 4.9-6.3 6.7-8.3 5.8-2-.9-1.1-4.2 1.1-9.1 2.3-4.9 5.7-8.1 7.7-7.2Z" fill="#CCF2E3"/><path d="M25.1 8.7c2 .9 1.8 5.6-.5 10.5-2.2 4.9-6.3 6.7-8.3 5.8" fill="#AAD6C3"/><path d="M17 8.9c.1.2.1.4 0 .5l-8.2 7.4c-.2.1-.4.1-.5 0-.1-.2-.1-.4 0-.5l8.2-7.4c.1-.1.4-.1.5 0ZM17.9 11.1c.1.2.1.4 0 .5L9.7 19c-.2.1-.4.1-.5 0-.1-.2-.1-.4 0-.5l8.2-7.4c.1-.2.3-.1.5 0Z" fill="#CCF2E3"/><path d="M5.2 4.1c0 .9.3 1.6.6 1.6s.5-.8.5-1.7c0-.9-.3-1.6-.6-1.6s-.5.8-.5 1.7Z" fill="#E7F7EF"/><ellipse fill="#E7F7EF" transform="rotate(178.291 1.59 11.025)" cx="1.59" cy="11.025" rx="1" ry="1.7"/><ellipse fill="#E7F7EF" transform="rotate(178.343 13.074 3.547)" cx="13.074" cy="3.547" rx="1" ry="1.7"/><path d="M5.5 18c.9 1.7 1.3 3.3.9 3.5-.4.2-1.4-1-2.3-2.8-.9-1.7-.8-2.3-.4-2.5.3-.2.9.1 1.8 1.8ZM20.4 12.1c.9-1.4 2-2.3 2.3-2.1.4.2-.1 1.6-1 3s-1.4 1.5-1.8 1.3c-.4-.3-.5-.8.5-2.2Z" fill="#E7F7EF"/></g></g></svg>