<svg width="62" height="58" xmlns="http://www.w3.org/2000/svg"><g fill-rule="nonzero" fill="none"><path d="M61.3 34.5C61.3 47.5 49.4 58 31 58S.7 47.5.7 34.5 12.6 2 31 2s30.3 19.5 30.3 32.5Z" fill="#F7910B"/><path d="M61.3 34.5C61.3 47.5 49.4 54 31 54S.7 47.5.7 34.5 12.6 0 31 0s30.3 21.5 30.3 34.5Z" fill="#F7910B"/><path d="M31 0c18.4 0 30.3 21.5 30.3 34.5S49.4 54 31 54" fill="#F9A908"/><path d="M61.3 34.5C61.3 47.5 49.4 54 31 54S.7 47.5.7 34.5 12.6 2 31 2s30.3 19.5 30.3 32.5Z" fill="#F9A908"/><path d="M.7 34.5C.7 21.5 12.6 2 31 2" fill="#F9C55D"/><path d="M31 2c18.4 0 30.3 19.5 30.3 32.5S49.4 58 31 58" fill="#F7910B"/><path d="M37 31c0 2.3-2.8 4.2-6.2 4.2-3.4 0-6.2-1.9-6.2-4.2 0-2.3 2.8-4.2 6.2-4.2 3.4 0 6.2 1.9 6.2 4.2Z" fill="#00233F"/><path d="M31 2c18.4 0 30.3 19.5 30.3 32.5" fill="#EA7103"/><circle fill="#F7910B" cx="9.3" cy="31.5" r="1"/><circle fill="#F7910B" cx="4.8" cy="33.5" r="1.1"/><circle fill="#F7910B" cx="7.8" cy="29.5" r="1"/><circle fill="#F7910B" cx="12.4" cy="31.3" r="1"/><circle fill="#F9A908" cx="51.6" cy="31.8" r="1"/><circle fill="#F9A908" cx="54.1" cy="33.2" r="1"/><circle fill="#F9A908" cx="48.8" cy="24.4" r="1"/><circle fill="#F9A908" cx="48.3" cy="36" r="1.3"/><circle fill="#F9A908" cx="55.5" cy="36.1" r="1"/><circle fill="#F7910B" cx="8.3" cy="35.5" r="1"/><circle fill="#F7910B" cx="9.1" cy="27.1" r="1"/><circle fill="#F9A908" cx="3.8" cy="13.3" r="1.1"/><circle fill="#F9A908" cx="7" cy="9.8" r="1"/><circle fill="#F9A908" cx="58.2" cy="15.7" r="1"/><circle fill="#F9A908" cx="57.4" cy="12.8" r="1"/><path d="M60.5 13.3c0 .3-.2.5-.5.5s-.5-.2-.5-.5.2-.5.5-.5c.2 0 .5.3.5.5Z" fill="#F9A908"/><circle fill="#F9A908" cx="5" cy="16.3" r="1"/><path d="M38.4 32c0 2.6-3.3 7.2-7.4 7.2-4.1 0-7.4-4.6-7.4-7.2" fill="#F7910B"/><g transform="translate(15 11)"><circle fill="#D87703" cx="4.6" cy="7.3" r="3.5"/><path d="M30.9 7.3c0 1.9-1.6 3.5-3.5 3.5s-3.5-1.6-3.5-3.5 1.6-3.5 3.5-3.5c2 0 3.5 1.6 3.5 3.5Z" fill="#D87703"/><circle fill="#1E4784" cx="4.6" cy="6.3" r="3.5"/><path d="M4.6 2.8c1.9 0 3.5 1.6 3.5 3.5S6.5 9.8 4.6 9.8" fill="#00233F"/><path d="M30.9 6.3c0 1.9-1.6 3.5-3.5 3.5s-3.5-1.6-3.5-3.5 1.6-3.5 3.5-3.5c2 0 3.5 1.6 3.5 3.5Z" fill="#1E4784"/><path d="M27.4 2.8c1.9 0 3.5 1.6 3.5 3.5s-1.6 3.5-3.5 3.5" fill="#00233F"/><path d="M.5 5.6C.5 3.3 2.3.5 4.6.5s4.1 2.8 4.1 5.1" fill="#F9A908"/><path d="M23.3 5.6c0-2.3 1.8-5.1 4.1-5.1 2.2 0 4.1 2.8 4.1 5.1" fill="#F7910B"/></g><path d="M26.8 23.1c0 1.2-3.5.7-7.8.7s-7.8.6-7.8-.7c0-1.3 3.5-2.2 7.8-2.2s7.8 1 7.8 2.2Z" fill="#F9C55D"/><path d="M50.8 23.1c0 1.2-3.5.7-7.8.7s-7.8.6-7.8-.7c0-1.3 3.5-2.2 7.8-2.2s7.8 1 7.8 2.2Z" fill="#F9A908"/><g fill="#19BCA4"><path d="M25.2 13.5c0 1.1-2.3.5-5.1.4-2.8-.1-5.1.4-5.1-.7s2.3-2 5.1-1.9c2.9.1 5.2 1.1 5.1 2.2ZM36.8 13.5c0 1.1 2.3.5 5.1.4 2.8-.1 5.1.4 5.1-.7s-2.3-2-5.1-1.9c-2.9.1-5.2 1.1-5.1 2.2Z"/></g><path d="M28.3 29.6c.5 1.1.1 2.4-1 2.9l-18.2 9c-1.1.5-2.4.1-2.9-1s-.1-2.4 1-3l18.2-9c1-.5 2.3 0 2.9 1.1Z" fill="#FFFDF3"/><path d="M28.3 29.6c.5 1.1.1 2.4-1 2.9l-18.2 9c-1.1.5-2.4.1-2.9-1" fill="#DFF6F7"/><path d="M7 37.7c-1 .6-1.4 1.8-.9 2.9.5 1 1.8 1.5 2.8 1 1-.6 1.4-1.8.9-2.9-.5-1-1.8-1.5-2.8-1Z" fill="#F7552F"/><path d="M8.9 41.6c1-.6 1.4-1.8.9-2.9-.5-1-1.8-1.5-2.8-1" fill="#E03405"/><path d="m26.1 28.2-8.6 4.3c1.1-.5 2.4-.1 2.9 1s.1 2.4-1 2.9l8.6-4.3c1.1-.5 1.5-1.9 1-2.9-.5-1.1-1.8-1.6-2.9-1Z" fill="#754108"/><path d="m25.3 28.6-8.6 4.3c1.1-.5 2.4-.1 2.9 1s.1 2.4-1 3l8.6-4.3c1.1-.5 1.5-1.9 1-2.9-.5-1.2-1.8-1.7-2.9-1.1Z" fill="#935914"/><path d="M16.7 32.8c1.1-.5 2.4-.1 2.9 1s.1 2.4-1 3l8.6-4.3c1.1-.5 1.5-1.9 1-2.9" fill="#754108"/><path d="M21.7 32.8c-.5-1.1-1.9-1.5-3-1L16.4 33c1.1-.5 2.4-.1 2.9 1s.1 2.4-1 2.9l2.3-1.2c1.2-.5 1.7-1.8 1.1-2.9Z" fill="#DFF6F7"/><path d="M8.5 27.6c0 .4-.3.8-.8.8-.4-.1-.7-.4-.7-.8v-8c0-.4.3-.8.8-.8.4 0 .8.3.8.8v8h-.1ZM11.6 33.7c0 .4-.3.8-.8.8-.4 0-.8-.3-.8-.8v-8c0-.4.3-.8.8-.8.4 0 .8.3.8.8v8Z" fill="#FFFDF3"/><circle fill="#FFFDF3" cx="5" cy="30.3" r="1"/><circle fill="#FFFDF3" cx="9.7" cy="16.7" r="1"/><circle fill="#FFFDF3" cx="7.7" cy="33.8" r="1"/><circle fill="#FFFDF3" cx="9.2" cy="12.5" r="1.8"/><circle fill="#FFFDF3" cx="4.8" cy="26.2" r="1"/><circle fill="#FFFDF3" cx="5" cy="35.9" r="1"/><circle fill="#FFFDF3" cx="10.1" cy="22.5" r="1"/></g></svg>