<svg width="62" height="62" xmlns="http://www.w3.org/2000/svg"><g fill-rule="nonzero" fill="none"><g transform="translate(0 3)"><path d="M61.3 34.9c0 13-11.9 23.5-30.3 23.5S.7 47.9.7 34.9 12.6 2.4 31 2.4s30.3 19.5 30.3 32.5Z" fill="#F7910B"/><path d="M61.3 34.9c0 13-11.9 19.5-30.3 19.5S.7 47.9.7 34.9 12.6.4 31 .4s30.3 21.5 30.3 34.5Z" fill="#F7910B"/><path d="M31 .4c18.4 0 30.3 21.5 30.3 34.5S49.4 54.4 31 54.4" fill="#F9A908"/><path d="M61.3 34.9c0 13-11.9 19.5-30.3 19.5S.7 47.9.7 34.9 12.6 2.4 31 2.4s30.3 19.5 30.3 32.5Z" fill="#F9A908"/><path d="M.7 34.9C.7 21.9 12.6 2.4 31 2.4" fill="#F9C55D"/><path d="M31 2.4c18.4 0 30.3 19.5 30.3 32.5S49.4 58.4 31 58.4" fill="#F7910B"/><path d="M31 2.4c18.4 0 30.3 19.5 30.3 32.5" fill="#EA7103"/><path d="M26.8 28.2c0 1.2-3.5.7-7.8.7s-7.8.6-7.8-.7c0-1.2 3.5-2.2 7.8-2.2s7.8 1 7.8 2.2Z" fill="#F9C55D"/><path d="M50.8 28.2c0 1.2-3.5.7-7.8.7s-7.8.6-7.8-.7c0-1.2 3.5-2.2 7.8-2.2s7.8 1 7.8 2.2Z" fill="#F9A908"/><circle fill="#F7910B" cx="9.3" cy="31.9" r="1"/><circle fill="#F7910B" cx="4.8" cy="33.9" r="1.1"/><circle fill="#F7910B" cx="7.8" cy="29.9" r="1"/><circle fill="#F7910B" cx="12.4" cy="31.7" r="1"/><circle fill="#F9A908" cx="51.6" cy="32.2" r="1"/><circle fill="#F9A908" cx="54.1" cy="33.6" r="1"/><circle fill="#F9A908" cx="48.8" cy="24.8" r="1"/><circle fill="#F9A908" cx="48.3" cy="36.4" r="1.3"/><circle fill="#F9A908" cx="55.5" cy="36.5" r="1"/><circle fill="#F7910B" cx="8.3" cy="35.9" r="1"/><circle fill="#F7910B" cx="9.1" cy="27.5" r="1"/><circle fill="#F9A908" cx="3.8" cy="13.7" r="1.1"/><path d="M52.2 16.7c0-7-9.5-14.8-21.2-14.8S9.7 9.7 9.7 16.7c0 .7.1 1.7.3 2.9-.1 6.5 1.8 14.4 2.8 16.4.5 1 1.4 1.7 2.6 2.2 3.9 9.9 9.5 19.3 15.6 19.3 6.2 0 11.8-9.4 15.6-19.3 1.2-.5 2.1-1.2 2.6-2.2 1-2 2.9-10 2.8-16.4.1-1.2.2-2.2.2-2.9Z" fill="#FFF"/><path d="M34.7 58.2c5.6 0 10.6-9.1 14.2-18.6 1.1-.5 1.9-1.2 2.3-2.1.9-1.9 2.6-9.6 2.5-15.8.2-1.1.3-2.1.3-2.8 0-6.7-8.6-14.3-19.3-14.3" fill="#EA7103"/><path d="M31 57.6c6.2 0 11.8-9.4 15.6-19.3 1.2-.5 2.1-1.2 2.6-2.2 1-2 2.9-10 2.8-16.4.2-1.2.3-2.2.3-2.9 0-7-9.5-14.8-21.2-14.8" fill="#E5E5E5"/><circle fill="#F9A908" cx="7" cy="10.2" r="1"/><circle fill="#F9A908" cx="58.2" cy="16.1" r="1"/><circle fill="#F9A908" cx="57.4" cy="13.2" r="1"/><circle fill="#F9A908" cx="60" cy="13.7" r="1"/><circle fill="#F9A908" cx="5" cy="16.7" r="1"/><path d="M24 25.4c-.4-.1-.8-.3-1.1-.7-1.1-1.6-3.4-2-5-.9-.7.5-1.8.3-2.3-.4-.5-.7-.3-1.8.4-2.3 3.1-2.2 7.4-1.4 9.6 1.8.5.7.3 1.8-.4 2.3-.3.2-.7.3-1.2.2Z" fill="#1E4784"/><path d="M25.7 22.8c.5.7.3 1.8-.4 2.3-.4.3-.8.3-1.2.3-.4-.1-.8-.3-1.1-.7-1.1-1.6-3.4-2-5-.9-.7.5-1.8.3-2.3-.4-.5-.7-.3-1.8.4-2.3" fill="#02243E"/><path d="M38 25.4c.4-.1.8-.3 1.1-.7 1.1-1.6 3.4-2 5-.9.8.5 1.8.3 2.3-.4.5-.7.3-1.8-.4-2.3-3.1-2.2-7.4-1.4-9.6 1.8-.5.7-.3 1.8.4 2.3.3.2.7.3 1.2.2Z" fill="#1E4784"/><path d="M36.3 22.8c-.5.7-.3 1.8.4 2.3.4.3.8.3 1.2.3.4-.1.8-.3 1.1-.7 1.1-1.6 3.4-2 5-.9.8.5 1.8.3 2.3-.4.5-.7.3-1.8-.4-2.3" fill="#02243E"/><path d="M26.7 16.9c-.6.7-1.9-1-3.8-2.7-2-1.7-3.8-2.7-3.3-3.3.6-.7 2.6.1 4.6 1.8 1.9 1.7 3.1 3.6 2.5 4.2Z" fill="#19BCA4"/><path d="M26.7 16.9c-.6.7-1.9-1-3.8-2.7-2-1.7-3.8-2.7-3.3-3.3" fill="#109DA0"/><path d="M35.3 16.9c.6.7 1.9-1 3.8-2.7 2-1.7 3.8-2.7 3.3-3.3-.6-.7-2.6.1-4.6 1.8-1.9 1.7-3.1 3.6-2.5 4.2Z" fill="#19BCA4"/><path d="M35.3 16.9c.6.7 1.9-1 3.8-2.7 2-1.7 3.8-2.7 3.3-3.3" fill="#109DA0"/></g><path fill="#1E4784" d="M34.1 60.4 31 61.5l-3.1-1.1L31 50.3z"/><path fill="#02243E" d="M34.1 60.4 31 61.5l.7-2.2-.7-9z"/><path fill="#C6C6C2" d="M34.3 42h-6.6l-1-3h8.6zM34.3 48h-6.6l-1-1h8.6z"/><path fill="#1E4784" d="m18.5 36.2 4 6.8H31v2h-9.3z"/><path fill="#02243E" d="m43.5 36.2-4 6.8H31v2h9.3z"/><path fill="#E5E5E5" d="M15.6 34h9l1.6 3.9z"/><path fill="#FFF" d="M46.4 34h-9l-1.6 3.9z"/><circle fill="#F7910B" cx="11.1" cy="5" r="3.3"/><circle fill="#F7910B" cx="39.6" cy="1.7" r="1"/><circle fill="#F7910B" cx="53.7" cy="5.2" r="2.8"/><circle fill="#F7910B" cx="22.8" cy="1.1" r="1"/></g></svg>