<svg width="62" height="58" xmlns="http://www.w3.org/2000/svg"><g fill-rule="nonzero" fill="none"><path d="M61.3 34.5C61.3 47.5 49.4 58 31 58S.7 47.5.7 34.5 12.6 2 31 2s30.3 19.5 30.3 32.5Z" fill="#F7910B"/><path d="M61.3 34.5C61.3 47.5 49.4 54 31 54S.7 47.5.7 34.5 12.6 0 31 0s30.3 21.5 30.3 34.5Z" fill="#F7910B"/><path d="M31 0c18.4 0 30.3 21.5 30.3 34.5S49.4 54 31 54" fill="#F9A908"/><path d="M61.3 34.5C61.3 47.5 49.4 54 31 54S.7 47.5.7 34.5 12.6 2 31 2s30.3 19.5 30.3 32.5Z" fill="#F9A908"/><path d="M.7 34.5C.7 21.5 12.6 2 31 2" fill="#F9C55D"/><path d="M31 2c18.4 0 30.3 19.5 30.3 32.5S49.4 58 31 58" fill="#F7910B"/><path d="M31 2c18.4 0 30.3 19.5 30.3 32.5" fill="#EA7103"/><g transform="translate(17 18)"><circle fill="#EA7103" cx="3.6" cy="4.7" r="3.2"/><circle fill="#EA7103" cx="24.4" cy="4.7" r="3.2"/><circle fill="#1E4784" cx="3.6" cy="3.8" r="3.2"/><path d="M3.6.6C5.4.6 6.8 2 6.8 3.8 6.8 5.6 5.4 7 3.6 7" fill="#00233F"/><circle fill="#1E4784" cx="24.4" cy="3.8" r="3.2"/><path d="M24.4.6c1.8 0 3.2 1.4 3.2 3.2 0 1.8-1.4 3.2-3.2 3.2" fill="#00233F"/></g><g fill="#19BCA4"><path d="M24.7 13c0 .9-1.4.5-3.3.6-1.8.1-3.3.6-3.3-.3 0-.9 1.4-1.6 3.2-1.7 1.9-.1 3.4.5 3.4 1.4ZM37.3 13c0 .9 1.4.5 3.3.6 1.8.1 3.3.6 3.3-.3 0-.9-1.4-1.6-3.2-1.7-1.9-.1-3.4.5-3.4 1.4Z"/></g><g fill="#109DA0"><path d="M24.7 13c0 .9-1.4.5-3.3.6-1.8.1-3.3.6-3.3-.3M37.3 13c0 .9 1.4.5 3.3.6 1.8.1 3.3.6 3.3-.3"/></g><path d="M26.8 27.8c0 1.2-3.5.7-7.8.7s-7.8.6-7.8-.7c0-1.2 3.5-2.2 7.8-2.2s7.8 1 7.8 2.2Z" fill="#F9C55D"/><path d="M50.8 27.8c0 1.2-3.5.7-7.8.7s-7.8.6-7.8-.7c0-1.2 3.5-2.2 7.8-2.2s7.8 1 7.8 2.2Z" fill="#F9A908"/><circle fill="#F7910B" cx="9.3" cy="31.5" r="1"/><circle fill="#F7910B" cx="4.8" cy="33.5" r="1.1"/><circle fill="#F7910B" cx="7.8" cy="29.5" r="1"/><circle fill="#F7910B" cx="12.4" cy="31.3" r="1"/><circle fill="#F9A908" cx="51.6" cy="31.8" r="1"/><circle fill="#F9A908" cx="54.1" cy="33.2" r="1"/><circle fill="#F9A908" cx="48.8" cy="24.4" r="1"/><circle fill="#F9A908" cx="48.3" cy="36" r="1.3"/><circle fill="#F9A908" cx="55.5" cy="36.1" r="1"/><circle fill="#F7910B" cx="8.3" cy="35.5" r="1"/><circle fill="#F7910B" cx="9.1" cy="27.1" r="1"/><circle fill="#F9A908" cx="3.8" cy="13.3" r="1.1"/><circle fill="#F9A908" cx="7" cy="9.8" r="1"/><circle fill="#F9A908" cx="58.2" cy="15.7" r="1"/><circle fill="#F9A908" cx="57.4" cy="12.8" r="1"/><circle fill="#F9A908" cx="60" cy="13.3" r="1"/><circle fill="#F9A908" cx="5" cy="16.3" r="1"/><path d="M38.4 45.9c0 2.6-3.3 4.7-7.4 4.7-4.1 0-7.4-2.1-7.4-4.7" fill="#F7910B"/><path d="M42.9 31.1c0 6.8-5.3 12.3-11.9 12.3-6.6 0-11.9-5.5-11.9-12.3" fill="#C42260"/><path d="M42.9 31.1c0 2.3-5.3 4.1-11.9 4.1-6.6 0-11.9-1.8-11.9-4.1" fill="#99144A"/><path d="M31 43.3c3.7 0 6.9-1.7 9.1-4.4-1.4-1.5-3.3-2.5-5.5-2.5-1.3 0-2.6.4-3.6 1-1.1-.6-2.3-1-3.6-1-2.2 0-4.1 1-5.5 2.5 2.2 2.7 5.4 4.4 9.1 4.4Z" fill="#E2446E"/></g></svg>