<svg width="62" height="58" xmlns="http://www.w3.org/2000/svg"><g fill-rule="nonzero" fill="none"><path d="M61.3 34.5C61.3 47.5 49.4 58 31 58S.7 47.5.7 34.5 12.6 2 31 2s30.3 19.5 30.3 32.5Z" fill="#F7910B"/><path d="M61.3 34.5C61.3 47.5 49.4 54 31 54S.7 47.5.7 34.5 12.6 0 31 0s30.3 21.5 30.3 34.5Z" fill="#F7910B"/><path d="M31 0c18.4 0 30.3 21.5 30.3 34.5S49.4 54 31 54" fill="#F9A908"/><path d="M61.3 34.5C61.3 47.5 49.4 54 31 54S.7 47.5.7 34.5 12.6 2 31 2s30.3 19.5 30.3 32.5Z" fill="#F9A908"/><path d="M.7 34.5C.7 21.5 12.6 2 31 2" fill="#F9C55D"/><path d="M31 2c18.4 0 30.3 19.5 30.3 32.5S49.4 58 31 58" fill="#F7910B"/><path d="M31 2c18.4 0 30.3 19.5 30.3 32.5" fill="#EA7103"/><path d="M24.6 9.9c.2 1.3-1.3.9-3.1 1.2-1.8.3-3.1 1.2-3.3-.1-.2-1.3 1.1-2.6 2.9-2.8 1.7-.4 3.3.4 3.5 1.7Z" fill="#19BCA4"/><path d="M24.6 9.9c.2 1.3-1.3.9-3.1 1.2-1.8.3-3.1 1.2-3.3-.1" fill="#109DA0"/><path d="M37.1 11.9c-.3.8 1.2.9 2.9 1.6 1.7.6 2.9 1.6 3.2.8.3-.8-.8-2-2.5-2.6-1.6-.7-3.2-.6-3.6.2Z" fill="#19BCA4"/><path d="M37.1 11.9c-.3.8 1.2.9 2.9 1.6 1.7.6 2.9 1.6 3.2.8" fill="#109DA0"/><path d="M26.8 27.8c0 1.2-3.5.7-7.8.7s-7.8.6-7.8-.7c0-1.2 3.5-2.2 7.8-2.2s7.8 1 7.8 2.2Z" fill="#F9C55D"/><path d="M50.8 27.8c0 1.2-3.5.7-7.8.7s-7.8.6-7.8-.7c0-1.2 3.5-2.2 7.8-2.2s7.8 1 7.8 2.2Z" fill="#F9A908"/><circle fill="#F7910B" cx="9.3" cy="31.5" r="1"/><circle fill="#F7910B" cx="4.8" cy="33.5" r="1.1"/><circle fill="#F7910B" cx="7.8" cy="29.5" r="1"/><circle fill="#F7910B" cx="12.4" cy="31.3" r="1"/><circle fill="#F9A908" cx="51.6" cy="31.8" r="1"/><circle fill="#F9A908" cx="54.1" cy="33.2" r="1"/><circle fill="#F9A908" cx="48.8" cy="24.4" r="1"/><circle fill="#F9A908" cx="48.3" cy="36" r="1.3"/><circle fill="#F9A908" cx="55.5" cy="36.1" r="1"/><circle fill="#F7910B" cx="8.3" cy="35.5" r="1"/><circle fill="#F7910B" cx="9.1" cy="27.1" r="1"/><circle fill="#F9A908" cx="3.8" cy="13.3" r="1.1"/><circle fill="#F9A908" cx="7" cy="9.8" r="1"/><circle fill="#F9A908" cx="58.2" cy="15.7" r="1"/><circle fill="#F9A908" cx="57.4" cy="12.8" r="1"/><circle fill="#F9A908" cx="60" cy="13.3" r="1"/><circle fill="#F9A908" cx="5" cy="16.3" r="1"/><path d="M39.2 19.9c.4.1.8.3 1.1.7 1.1 1.6 3.4 2 5 .9.8-.5 1.8-.3 2.3.4.5.7.3 1.8-.4 2.3-3.1 2.2-7.4 1.4-9.6-1.8-.5-.7-.3-1.8.4-2.3.4-.2.8-.2 1.2-.2Z" fill="#1E4784"/><path d="M37.6 22.5c-.5-.7-.3-1.8.4-2.3.4-.3.8-.3 1.2-.3.4.1.8.3 1.1.7 1.1 1.6 3.4 2 5 .9.8-.5 1.8-.3 2.3.4.5.7.3 1.8-.4 2.3" fill="#02243E"/><path d="M22.9 19.9c-.4.1-.8.3-1.1.7-1.1 1.6-3.4 2-5 .9-.8-.5-1.8-.3-2.3.4-.5.7-.3 1.8.4 2.3 3.1 2.2 7.4 1.4 9.6-1.8.5-.7.3-1.8-.4-2.3-.3-.2-.7-.2-1.2-.2Z" fill="#1E4784"/><path d="M24.6 22.5c.5-.7.3-1.8-.4-2.3-.4-.3-.8-.3-1.2-.3-.4.1-.8.3-1.1.7-1.1 1.6-3.4 2-5 .9-.8-.5-1.8-.3-2.3.4-.5.7-.3 1.8.4 2.3" fill="#02243E"/><path d="M40.8 34.9c0 2.6-4.4 1.8-9.8 1.8s-9.8.9-9.8-1.8c0-2.6 4.4-4.8 9.8-4.8 5.4.1 9.8 2.2 9.8 4.8Z" fill="#99144A"/><path d="M40.8 34.9c0 2.6-4.4 1.8-9.8 1.8s-9.8.9-9.8-1.8" fill="#6D0C38"/><path d="M33.6 27.8s15.9.3 11.9 13.8 18.4 13.8 15-1.3C56.6 23 33.6 27.8 33.6 27.8Z" fill="#A4D8EA"/><path d="M33.6 27.8s15.9.3 11.9 13.8 18.4 13.8 15-1.3C56.6 23 33.6 27.8 33.6 27.8Z" fill="#A4D8EA"/><path d="M60.5 40.3c-3.6-16-23.6-13.1-26.6-12.6 7 .3 15.1.4 19 9.9 3.7 9.2.1 13.5-4 13.3 5.4 2.4 13.8-.9 11.6-10.6Z" fill="#78C7DD"/></g></svg>