<svg width="28" height="27" viewBox="0 0 28 27" fill="none" xmlns="http://www.w3.org/2000/svg">
<path d="M14.0017 2.60059C7.89062 2.60059 2.89062 7.58948 2.89062 13.7339C2.89062 19.2895 6.95729 23.9006 12.2684 24.7339V16.9561H9.44618V13.7339H12.2684V11.2784C12.2684 8.48948 13.924 6.95614 16.4684 6.95614C17.6795 6.95614 18.9462 7.16725 18.9462 7.16725V9.9117H17.5462C16.1684 9.9117 15.7351 10.7673 15.7351 11.645V13.7339H18.824L18.324 16.9561H15.7351V24.7339C18.3533 24.3204 20.7375 22.9845 22.4572 20.9673C24.1769 18.9501 25.1188 16.3846 25.1128 13.7339C25.1128 7.58948 20.1128 2.60059 14.0017 2.60059Z" fill="#282F35"/>
</svg>
