<svg width="27" height="28" viewBox="0 0 27 28" fill="none" xmlns="http://www.w3.org/2000/svg">
<path d="M8.78038 2.88867H18.1137C21.6693 2.88867 24.5582 5.77756 24.5582 9.33312V18.6664C24.5582 20.3756 23.8792 22.0148 22.6706 23.2234C21.4621 24.4319 19.8229 25.1109 18.1137 25.1109H8.78038C5.22483 25.1109 2.33594 22.222 2.33594 18.6664V9.33312C2.33594 7.62394 3.0149 5.98477 4.22347 4.77621C5.43204 3.56764 7.07121 2.88867 8.78038 2.88867ZM8.55816 5.11089C7.49729 5.11089 6.47988 5.53232 5.72973 6.28247C4.97959 7.03261 4.55816 8.05003 4.55816 9.11089V18.8887C4.55816 21.0998 6.34705 22.8887 8.55816 22.8887H18.3359C19.3968 22.8887 20.4142 22.4672 21.1644 21.7171C21.9145 20.967 22.3359 19.9495 22.3359 18.8887V9.11089C22.3359 6.89978 20.547 5.11089 18.3359 5.11089H8.55816ZM19.2804 6.77756C19.6487 6.77756 20.002 6.92389 20.2625 7.18436C20.5229 7.44482 20.6693 7.79809 20.6693 8.16645C20.6693 8.53481 20.5229 8.88807 20.2625 9.14854C20.002 9.40901 19.6487 9.55534 19.2804 9.55534C18.912 9.55534 18.5588 9.40901 18.2983 9.14854C18.0378 8.88807 17.8915 8.53481 17.8915 8.16645C17.8915 7.79809 18.0378 7.44482 18.2983 7.18436C18.5588 6.92389 18.912 6.77756 19.2804 6.77756ZM13.447 8.44423C14.9205 8.44423 16.3336 9.02954 17.3754 10.0714C18.4173 11.1133 19.0026 12.5264 19.0026 13.9998C19.0026 15.4732 18.4173 16.8863 17.3754 17.9282C16.3336 18.97 14.9205 19.5553 13.447 19.5553C11.9736 19.5553 10.5605 18.97 9.51868 17.9282C8.47681 16.8863 7.89149 15.4732 7.89149 13.9998C7.89149 12.5264 8.47681 11.1133 9.51868 10.0714C10.5605 9.02954 11.9736 8.44423 13.447 8.44423ZM13.447 10.6664C12.563 10.6664 11.7151 11.0176 11.09 11.6428C10.4649 12.2679 10.1137 13.1157 10.1137 13.9998C10.1137 14.8838 10.4649 15.7317 11.09 16.3568C11.7151 16.9819 12.563 17.3331 13.447 17.3331C14.3311 17.3331 15.1789 16.9819 15.8041 16.3568C16.4292 15.7317 16.7804 14.8838 16.7804 13.9998C16.7804 13.1157 16.4292 12.2679 15.8041 11.6428C15.1789 11.0176 14.3311 10.6664 13.447 10.6664Z" fill="#282F35"/>
</svg>
