<svg width="28" height="28" viewBox="0 0 28 28" fill="none" xmlns="http://www.w3.org/2000/svg">
<path d="M21.6684 3.99902C22.2578 3.99902 22.823 4.23315 23.2398 4.6499C23.6565 5.06664 23.8906 5.63188 23.8906 6.22125V21.7768C23.8906 22.3662 23.6565 22.9314 23.2398 23.3482C22.823 23.7649 22.2578 23.999 21.6684 23.999H6.11285C5.52348 23.999 4.95825 23.7649 4.5415 23.3482C4.12475 22.9314 3.89063 22.3662 3.89062 21.7768V6.22125C3.89062 5.63188 4.12475 5.06664 4.5415 4.6499C4.95825 4.23315 5.52348 3.99902 6.11285 3.99902H21.6684ZM21.1128 21.2212V15.3324C21.1128 14.3717 20.7312 13.4504 20.0519 12.7711C19.3726 12.0918 18.4513 11.7101 17.4906 11.7101C16.5462 11.7101 15.4462 12.2879 14.9128 13.1546V11.9212H11.8128V21.2212H14.9128V15.7435C14.9128 14.8879 15.6017 14.1879 16.4573 14.1879C16.8699 14.1879 17.2655 14.3518 17.5572 14.6435C17.849 14.9352 18.0128 15.3309 18.0128 15.7435V21.2212H21.1128ZM8.20174 10.1768C8.69681 10.1768 9.1716 9.98014 9.52167 9.63007C9.87174 9.28 10.0684 8.80521 10.0684 8.31013C10.0684 7.2768 9.23507 6.43236 8.20174 6.43236C7.70372 6.43236 7.2261 6.63019 6.87395 6.98235C6.5218 7.3345 6.32396 7.81212 6.32396 8.31013C6.32396 9.34347 7.1684 10.1768 8.20174 10.1768ZM9.74618 21.2212V11.9212H6.6684V21.2212H9.74618Z" fill="#282F35"/>
</svg>
