<svg width="62" height="58" xmlns="http://www.w3.org/2000/svg"><g fill-rule="nonzero" fill="none"><path d="M61.3 34.5C61.3 47.5 49.4 58 31 58S.7 47.5.7 34.5 12.6 2 31 2s30.3 19.5 30.3 32.5Z" fill="#F7910B"/><path d="M61.3 34.5C61.3 47.5 49.4 54 31 54S.7 47.5.7 34.5 12.6 0 31 0s30.3 21.5 30.3 34.5Z" fill="#F7910B"/><path d="M31 0c18.4 0 30.3 21.5 30.3 34.5S49.4 54 31 54" fill="#F9A908"/><path d="M61.3 34.5C61.3 47.5 49.4 54 31 54S.7 47.5.7 34.5 12.6 2 31 2s30.3 19.5 30.3 32.5Z" fill="#F9A908"/><path d="M.7 34.5C.7 21.5 12.6 2 31 2" fill="#F9C55D"/><path d="M31 2c18.4 0 30.3 19.5 30.3 32.5S49.4 58 31 58" fill="#F7910B"/><path d="M31 2c18.4 0 30.3 19.5 30.3 32.5" fill="#EA7103"/><path d="M24.8 18.1c-.6.7-1.4-.6-2.8-1.8-1.4-1.2-2.8-1.8-2.2-2.4.6-.7 2.1-.3 3.5.9 1.4 1.1 2 2.6 1.5 3.3Z" fill="#19BCA4"/><path d="M24.8 18.1c-.6.7-1.4-.6-2.8-1.8-1.4-1.2-2.8-1.8-2.2-2.4" fill="#109DA0"/><path d="M37.1 13.9c.2.8 1.5.1 3.3-.4 1.8-.4 3.3-.4 3.1-1.2-.2-.8-1.8-1.2-3.6-.7-1.8.4-3 1.4-2.8 2.3Z" fill="#19BCA4"/><path d="M37.1 13.9c.2.8 1.5.1 3.3-.4 1.8-.4 3.3-.4 3.1-1.2" fill="#109DA0"/><circle fill="#F7910B" cx="9.3" cy="31.5" r="1"/><circle fill="#F7910B" cx="4.8" cy="33.5" r="1.1"/><circle fill="#F7910B" cx="7.8" cy="29.5" r="1"/><circle fill="#F7910B" cx="12.4" cy="31.3" r="1"/><circle fill="#F9A908" cx="51.6" cy="31.8" r="1"/><circle fill="#F9A908" cx="54.1" cy="33.2" r="1"/><circle fill="#F9A908" cx="48.8" cy="24.4" r="1"/><circle fill="#F9A908" cx="48.3" cy="36" r="1.3"/><circle fill="#F9A908" cx="55.5" cy="36.1" r="1"/><circle fill="#F7910B" cx="8.3" cy="35.5" r="1"/><circle fill="#F7910B" cx="9.1" cy="27.1" r="1"/><circle fill="#F9A908" cx="3.8" cy="13.3" r="1.1"/><circle fill="#F9A908" cx="7" cy="9.8" r="1"/><circle fill="#F9A908" cx="58.2" cy="15.7" r="1"/><path d="M22.9 25c-.4-.1-.8-.3-1.1-.7-1.1-1.6-3.4-2-5-.9-.8.5-1.8.3-2.3-.4-.5-.7-.3-1.8.4-2.3 3.1-2.2 7.4-1.4 9.6 1.8.5.7.3 1.8-.4 2.3-.4.2-.8.2-1.2.2Z" fill="#1E4784"/><path d="M24.5 22.4c.5.7.3 1.8-.4 2.3-.4.3-.8.3-1.2.3-.4-.1-.8-.3-1.1-.7-1.1-1.6-3.4-2-5-.9-.8.5-1.8.3-2.3-.4-.5-.7-.3-1.8.4-2.3" fill="#02243E"/><g transform="translate(37 18)"><circle fill="#D87703" cx="3.8" cy="4.7" r="3.5"/><circle fill="#1E4784" cx="3.8" cy="3.7" r="3.5"/><path d="M3.8.2c1.9 0 3.5 1.6 3.5 3.5S5.7 7.2 3.8 7.2" fill="#00233F"/></g><circle fill="#F9A908" cx="57.4" cy="12.8" r="1"/><circle fill="#F9A908" cx="60" cy="13.3" r="1"/><circle fill="#F9A908" cx="5" cy="16.3" r="1"/><path d="M26.8 27.8c0 1.2-3.5.7-7.8.7s-7.8.6-7.8-.7c0-1.2 3.5-2.2 7.8-2.2s7.8 1 7.8 2.2Z" fill="#F9C55D"/><path d="M50.8 27.8c0 1.2-3.5.7-7.8.7s-7.8.6-7.8-.7c0-1.2 3.5-2.2 7.8-2.2s7.8 1 7.8 2.2Z" fill="#F9A908"/><path d="M38.4 43.8c0 2.6-6.1 12.6-10.2 12.6s-4.5-10-4.5-12.6" fill="#F7910B"/><path d="M42.9 29.9c0 6.8-5.3 12.3-11.9 12.3-6.6 0-11.9-5.5-11.9-12.3" fill="#C42260"/><path d="M42.9 29.9c0 2.3-5.3 4.1-11.9 4.1-6.6 0-11.9-1.8-11.9-4.1" fill="#99144A"/><path d="M31 42.2c3.7 0 6.9-1.7 9.1-4.4-1.4-1.5-3.3-2.5-5.5-2.5-1.3 0-2.6.4-3.6 1-1.1-.6-2.3-1-3.6-1-2.2 0-4.1 1-5.5 2.5 2.2 2.6 5.4 4.4 9.1 4.4Z" fill="#E2446E"/><path d="M39.8 37.9c0 2.1-3.9 16.3-8.8 16.3S22.2 40 22.2 37.9c0-2.1 3.9-.6 8.8-.6s8.8-1.4 8.8.6Z" fill="#E2446E"/><path d="M26 45.6c-.4.1-1.1-1.4-1.6-3.3s-.5-3.5-.2-3.7c.4-.2.7-.3 1.2 1.6.5 1.9 1 5.3.6 5.4ZM32.1 45.2c-.4 0-.7-1.6-.7-3.6s.3-3.5.7-3.6c.5-.1.8-.1.8 1.8-.1 2-.4 5.4-.8 5.4Z" fill="#EF86AE"/></g></svg>