<svg width="62" height="58" xmlns="http://www.w3.org/2000/svg"><g fill-rule="nonzero" fill="none"><path d="M61.3 34.5C61.3 47.5 49.4 58 31 58S.7 47.5.7 34.5 12.6 2 31 2s30.3 19.5 30.3 32.5Z" fill="#F7910B"/><path d="M61.3 34.5C61.3 47.5 49.4 54 31 54S.7 47.5.7 34.5 12.6 0 31 0s30.3 21.5 30.3 34.5Z" fill="#F7910B"/><path d="M31 0c18.4 0 30.3 21.5 30.3 34.5S49.4 54 31 54" fill="#F9A908"/><path d="M61.3 34.5C61.3 47.5 49.4 54 31 54S.7 47.5.7 34.5 12.6 2 31 2s30.3 19.5 30.3 32.5Z" fill="#F9A908"/><path d="M.7 34.5C.7 21.5 12.6 2 31 2" fill="#F9C55D"/><path d="M31 2c18.4 0 30.3 19.5 30.3 32.5S49.4 58 31 58" fill="#F7910B"/><path d="M31 2c18.4 0 30.3 19.5 30.3 32.5" fill="#EA7103"/><path d="M50.7 48.8c0 2.6-6.7 7.3-13.2 7.5-10.1.3-10.5-4.9-10.5-7.5" fill="#F7910B"/><circle fill="#F7910B" cx="9.3" cy="31.5" r="1"/><circle fill="#F7910B" cx="4.8" cy="33.5" r="1.1"/><circle fill="#F7910B" cx="7.8" cy="29.5" r="1"/><circle fill="#F7910B" cx="12.4" cy="31.3" r="1"/><circle fill="#F9A908" cx="57.6" cy="34.4" r="1"/><circle fill="#F9A908" cx="54.1" cy="33.2" r="1"/><circle fill="#F9A908" cx="58.2" cy="40.2" r="1"/><circle fill="#F9A908" cx="54.4" cy="44" r="1.3"/><circle fill="#F9A908" cx="55.5" cy="36.1" r="1"/><circle fill="#F7910B" cx="8.3" cy="35.5" r="1"/><circle fill="#F7910B" cx="9.1" cy="27.1" r="1"/><circle fill="#F9A908" cx="3.8" cy="13.3" r="1.1"/><circle fill="#F9A908" cx="7" cy="9.8" r="1"/><circle fill="#F9A908" cx="58.2" cy="15.7" r="1"/><circle fill="#F9A908" cx="55" cy="4.8" r="1"/><circle fill="#F9A908" cx="60" cy="13.3" r="1"/><circle fill="#F9A908" cx="5" cy="16.3" r="1"/><g transform="translate(23 32)"><circle fill="#D87703" cx="3.9" cy="5.1" r="3.5"/><circle fill="#D87703" cx="26.8" cy="5.1" r="3.5"/><circle fill="#1E4784" cx="3.9" cy="4.1" r="3.5"/><path d="M3.9.6c1.9 0 3.5 1.6 3.5 3.5S5.8 7.6 3.9 7.6" fill="#00233F"/><circle fill="#1E4784" cx="26.8" cy="4.1" r="3.5"/><path d="M26.8.6c1.9 0 3.5 1.6 3.5 3.5s-1.6 3.5-3.5 3.5" fill="#00233F"/></g><path d="M29.1 24.4c-2-.7-4-.5-4.3.5l7.4 2.6c.3-1-1.1-2.4-3.1-3.1ZM47.6 18.2c-1.8.2-3.2 1.1-3.1 1.9l6.5-.8c-.1-.8-1.7-1.3-3.4-1.1Z" fill="#19BCA4"/><path d="M28.3 26.7c2 .7 3.5 1.8 3.9.8l-7.4-2.6c-.4 1 1.4 1.1 3.5 1.8ZM47.8 20.2c1.8-.2 3.3.1 3.2-.8l-6.5.8c.1.8 1.5.2 3.3 0Z" fill="#109DA0"/><path d="M26.4 38.9c-4.3 0-7.8 1-7.8 2.2 0 1.2 3.5.7 7.8.7s7.8.6 7.8-.7c0-1.3-3.4-2.2-7.8-2.2Z" fill="#F9C55D"/><path d="M50.4 38.9c-4.3 0-7.8 1-7.8 2.2 0 1.2 3.5.7 7.8.7s7.8.6 7.8-.7c0-1.3-3.5-2.2-7.8-2.2Z" fill="#F9A908"/><path d="M48.5 50.4c0 1.4-6.2 5.4-12.6 4.3-5.5-.9-8-3.7-8-5.1 0-1.4 4.9-2.6 10.5-2.6s10.1 2 10.1 3.4Z" fill="#D14905"/><path d="M48.5 50.4c0 1.4-6.5 3.8-12.9 2.7-5.5-.9-7.6-2-7.6-3.4S32.8 47 38.4 47c5.6 0 10.1 2 10.1 3.4Z" fill="#B73E08"/><path d="M27.7 47.4s2.5-5.5 10-5.5 8 .7 10.5 4.2c2 2.8 7.6 2.8 1.7 4.3-5.7 1.5-18.8.5-21.2-.3-3.7-1.2-1-2.7-1-2.7Z" fill="#F95D06"/><path d="M37.7 41.9c7.5 0 8 .7 10.5 4.2 2 2.8 7.6 2.8 1.7 4.3" fill="#D14905"/><path d="M37.6 47.8c-1.4-2.7-2.1-4-4.8-4.9-3.7 1.6-5.1 4.6-5.1 4.6s-2.7 1.4 1 2.7c1.5.5 7.2 1.1 12.6 1.1-.8-.8-2.8-1.8-3.7-3.5Z" fill="#F77F08"/></g></svg>