<svg width="62" height="58" xmlns="http://www.w3.org/2000/svg"><g fill-rule="nonzero" fill="none"><path d="M61.3 34.5C61.3 47.5 49.4 58 31 58S.7 47.5.7 34.5 12.6 2 31 2s30.3 19.5 30.3 32.5Z" fill="#109DA0"/><path d="M61.3 34.5C61.3 47.5 49.4 54 31 54S.7 47.5.7 34.5 12.6 0 31 0s30.3 21.5 30.3 34.5Z" fill="#109DA0"/><path d="M31 0c18.4 0 30.3 21.5 30.3 34.5S49.4 54 31 54" fill="#19BCA4"/><path d="M61.3 34.5C61.3 47.5 49.4 54 31 54S.7 47.5.7 34.5 12.6 2 31 2s30.3 19.5 30.3 32.5Z" fill="#19BCA4"/><path d="M.7 34.5C.7 21.5 12.6 2 31 2" fill="#28DDBF"/><path d="M31 2c18.4 0 30.3 19.5 30.3 32.5S49.4 58 31 58" fill="#109DA0"/><path d="M31 2c18.4 0 30.3 19.5 30.3 32.5" fill="#0C838C"/><path d="M26.4 34.1c0 1.3-3.8 1.8-8.6 1.8-4.7 0-8.6-.5-8.6-1.8s3.8-2.4 8.6-2.4 8.6 1.1 8.6 2.4Z" fill="#28DDBF"/><path d="M52.8 34.1c0 1.3-3.8 1.8-8.6 1.8-4.7 0-8.6-.5-8.6-1.8s3.8-2.4 8.6-2.4c4.7 0 8.6 1.1 8.6 2.4Z" fill="#19BCA4"/><circle fill="#109DA0" cx="9.3" cy="31.5" r="1"/><circle fill="#109DA0" cx="4.8" cy="33.5" r="1.1"/><circle fill="#109DA0" cx="7.8" cy="29.5" r="1"/><circle fill="#109DA0" cx="12.4" cy="31.3" r="1"/><circle fill="#19BCA4" cx="51.6" cy="31.8" r="1"/><circle fill="#19BCA4" cx="54.1" cy="33.2" r="1"/><circle fill="#19BCA4" cx="55.5" cy="36.1" r="1"/><circle fill="#19BCA4" cx="55.8" cy="29.5" r="1"/><circle fill="#109DA0" cx="8.3" cy="35.5" r="1"/><circle fill="#109DA0" cx="9.1" cy="27.1" r="1"/><circle fill="#19BCA4" cx="3.8" cy="13.3" r="1.1"/><circle fill="#19BCA4" cx="7" cy="9.8" r="1"/><circle fill="#109DA0" cx="58.2" cy="15.7" r="1"/><circle fill="#19BCA4" cx="57.4" cy="12.8" r="1"/><path d="M60.5 13.3c0 .3-.2.5-.5.5s-.5-.2-.5-.5.2-.5.5-.5c.2 0 .5.3.5.5Z" fill="#19BCA4"/><circle fill="#109DA0" cx="5" cy="16.3" r="1"/><path d="M38.4 36.8c0 2.6-3.3 8.1-7.4 8.1-4.1 0-7.4-5.5-7.4-8.1" fill="#109DA0"/><path d="M34 40h-6c-.6 0-1-.4-1-1s.4-1 1-1h6c.6 0 1 .4 1 1s-.4 1-1 1Z" fill="#02243E"/><path d="M26.4 31c-2.1 3-7.2 3.1-11.5.1-4.3-2.9-6.1-7.8-4.1-10.8 2.1-3 7.2-3.1 11.6-.1 4.2 2.9 6 7.8 4 10.8Z" fill="#109DA0"/><path d="M27.4 29.4c-2.1 3-7.2 3.1-11.6.1-4.3-2.9-6.1-7.8-4.1-10.8 2.1-3 7.2-3.1 11.5-.1 4.5 3 6.3 7.8 4.2 10.8Z" fill="#1E4784"/><path d="M23.4 18.6c4.3 2.9 6.1 7.8 4.1 10.8-2.1 3-7.2 3.1-11.6.1" fill="#00233F"/><path d="M35.6 31c2.1 3 7.2 3.1 11.5.1 4.3-2.9 6.1-7.8 4.1-10.8-2.1-3-7.2-3.1-11.6-.1-4.2 2.9-6 7.8-4 10.8Z" fill="#19BCA4"/><path d="M34.6 29.4c2.1 3 7.2 3.1 11.6.1 4.3-2.9 6.1-7.8 4.1-10.8-2.1-3-7.2-3.1-11.6-.1-4.4 3-6.2 7.8-4.1 10.8Z" fill="#1E4784"/><path d="M38.6 18.6c-4.3 2.9-6.1 7.8-4.1 10.8 2.1 3 7.2 3.1 11.6.1" fill="#00233F"/><path fill="#28DDBF" d="m30.951 8.92 3.89 3.888-3.888 3.89-3.89-3.889z"/><g transform="translate(30 41)" fill="#28DDBF"><circle cx="1" cy="1.4" r="1"/><circle cx="1" cy="5.5" r="1"/><circle cx="1" cy="9.5" r="1"/></g></g></svg>