<svg version="1.1" id="Ebene_1" xmlns="http://www.w3.org/2000/svg" x="0" y="0" viewBox="0 0 849 2048" style="enable-background:new 0 0 849 2048" xml:space="preserve"><style>.st1{fill:#fff}</style><path d="M125.75 1766.16c-5.78 86.75-85.73 288.6 112.3 278.94 198.03-9.66 483.01 14.49 520.44-4.83 37.43-19.32-8.45-129.2 1.21-225.8 9.66-96.6-28.98-101.43 14.49-108.68 85.89-14.32 72.45-68.83 72.45-68.83s18.11-292.22-59.17-297.05c-77.28-4.83-154.56-28.98-154.56-28.98s101.43-91.77 106.26-169.05c4.83-77.28-9.66-594.1-14.49-661.72S671.55 325.6 632.91 325.6c-38.64 0-48.3-62.79-86.94-67.62l-38.64-4.83s0-246.33-43.47-251.16-115.92-4.83-125.58 48.3c-9.66 53.13-19.32 275.31-19.32 275.31s-24.15-9.66-57.96 28.98-38.64 173.88-38.64 173.88-72.45 14.49-86.94 86.94-43.47 183.54-24.15 309.12 14.49 212.52 14.49 231.84 0 101.43 24.15 130.41c24.15 28.98 28.98 62.79-19.32 62.79S5 1339.9 5 1383.37s-19.32 282.56 14.49 315.16c33.81 32.61 111.09-4.83 106.26 67.63z" style="fill:#fbff00"/><path d="M146.76 1442.13c.45.45.55 1.05.33 1.82-.22.78-.66 1.16-1.32 1.16h-6.79c-2.1 0-4.13.22-6.12.66-14.12 1.55-22.83 9.6-26.14 24.16-1.11 5.52-1.66 10.98-1.66 16.38 0 5.41.33 10.87.99 16.38.44 3.98 1.1 7.73 1.99 11.25 1.32 6.4 4.96 9.71 10.92 9.93 7.72.88 14.01 4.97 18.86 12.25 2.65 3.53 2.2 6.4-1.32 8.6-1.55.88-3.15 1.49-4.8 1.82-1.66.33-3.26.72-4.8 1.16-.88.45-1.71.61-2.48.5-.78-.11-1.61-.05-2.48.16-5.29 1.11-9.1 2.87-11.42 5.29-2.31 2.43-3.69 6.51-4.13 12.25-.23 1.77-.33 3.64-.33 5.62v5.96c.22 7.28.38 14.61.5 22s.17 14.72.17 22c0 4.41-.56 9.16-1.66 14.23-.45 1.77-1.22 3.47-2.32 5.13-1.1 1.65-2.53 2.7-4.3 3.14-2.21.44-4.03-.17-5.46-1.82-1.44-1.66-2.48-3.37-3.14-5.13a63.274 63.274 0 0 1-2.65-8.6c-.66-2.87-1.32-5.84-1.98-8.94-.23-1.1-.28-2.09-.17-2.98.11-.88.17-1.87.17-2.98 0-28.01-.06-55.8-.17-83.38-.11-27.57-.16-55.36-.16-83.38 0-5.51.77-9.43 2.31-11.74 1.54-2.32 4.85-4.25 9.93-5.79 18.53-4.87 35.08-.56 49.63 12.89zM196.39 1613.86c3.08.45 5.24-2.37 6.45-8.44 1.21-6.06 1.98-13.34 2.31-21.83.33-8.49.44-17.21.33-26.14-.11-8.93-.06-15.93.16-21.01.67-12.58 1.1-25.04 1.32-37.39s.55-24.82 1-37.39c.21-3.08.6-6.23 1.15-9.43.55-3.19 1.38-6.33 2.48-9.42 1.76-4.63 4.68-8.05 8.77-10.26 4.08-2.2 8.43-3.08 13.07-2.65 3.3.45 5.51 1.32 6.62 2.65s1.44 3.64.99 6.95c-.66 9.93-1.44 19.75-2.31 29.45-.88 9.71-1.77 19.52-2.65 29.45a492.787 492.787 0 0 0-2.15 49.31c.11 16.32-.72 32.76-2.48 49.3-.45 4.41-.94 8.77-1.49 13.07-.55 4.3-1.38 8.55-2.48 12.74-1.32 5.07-3.59 9.32-6.79 12.74s-6.95 5.96-11.25 7.61c-4.3 1.66-8.88 2.37-13.73 2.15-4.85-.23-9.71-1.44-14.55-3.64-5.08-2.43-9.49-5.45-13.24-9.1-3.76-3.64-6.51-8.1-8.27-13.4-1.55-4.41-2.93-9.04-4.14-13.9-1.22-4.85-1.82-9.59-1.82-14.23 0-37.5.67-75.11 1.99-112.83.44-5.51.76-11.03.99-16.55a58.18 58.18 0 0 1 2.98-16.21c.88-4.85 2.87-8.72 5.96-11.58 3.08-2.87 6.17-4.46 9.26-4.8 3.08-.33 5.73.83 7.94 3.47 2.21 2.65 2.87 7.17 1.99 13.56.67 8.6.99 16.99.99 25.15-.44 17.65-.33 35.19.33 52.6.67 17.43.77 34.86.33 52.29.22 2.21.22 5.46 0 9.76-.23 4.3-.16 8.6.16 12.91.33 4.3 1.16 8 2.48 11.09 1.35 3.07 3.77 4.39 7.3 3.95zM322.45 1549.33c.44 9.71.99 19.2 1.66 28.46.66 9.27.54 18.64-.33 28.13-.88 6.18-2.48 11.14-4.8 14.89-2.31 3.76-5.91 7.5-10.75 11.25a23.547 23.547 0 0 1-9.76 4.97c-3.64.88-7.34 1.15-11.08.83-3.76-.33-7.34-1.27-10.75-2.82-3.42-1.54-6.24-3.75-8.44-6.62-3.75-4.63-6.79-8.99-9.1-13.08-2.31-4.08-3.59-8.99-3.81-14.72.22-12.79.77-25.53 1.66-38.21.88-12.69 1.44-25.53 1.66-38.55.22-7.49.33-14.99.33-22.5 0-7.49.11-15.11.33-22.83 0-8.82 1.54-17.53 4.63-26.14 3.53-9.93 9.37-17.31 17.54-22.17 3.31-1.76 6.89-2.86 10.75-3.3 3.86-.44 7.61-.22 11.25.66 3.64.88 7 2.48 10.09 4.8s5.51 5.24 7.28 8.77c3.31 6.18 5.29 12.47 5.96 18.86.66 6.4.66 13.13 0 20.19 0 1.32-.33 2.65-.99 3.97-.67 1.33-1.71 2.65-3.15 3.98a17.377 17.377 0 0 1-4.8 3.14c-1.77.78-3.47 1.27-5.13 1.49-1.65.23-3.04-.21-4.13-1.32-2.43-2.65-3.76-6.45-3.97-11.41-.23-4.97-.33-9.43-.33-13.4-.67-8.16-1.94-13.01-3.81-14.56-1.87-1.54-3.86-1.16-5.96 1.16-2.1 2.31-3.97 5.9-5.62 10.75s-2.48 9.59-2.48 14.23c-.22 7.06-.71 14.12-1.49 21.18-.78 7.06-.94 14.23-.5 21.51l1.32 35.73 1.32 35.74c0 1.55.05 2.6.16 3.14.11.56.22 1.05.33 1.49.11.45.22.94.33 1.49.11.56.16 1.61.16 3.15.22 1.54.44 3.04.67 4.46.21 1.44.66 2.93 1.32 4.46 1.76 4.63 4.08 4.75 6.95.33 1.54-3.08 2.31-6.17 2.31-9.26.22-3.31.5-6.06.83-8.28.33-2.2.61-4.29.83-6.28s.38-4.08.5-6.29c.11-2.2.28-4.96.5-8.27.45-3.08 1-6.73 1.66-10.92.67-4.19 1.87-7.5 3.64-9.93 1.32-2.2 3.42-3.25 6.28-3.14 2.86.08 5.84.35 8.93.79zM379.37 1513.6c3.75-2.87 6.67-5.9 8.77-9.1a39.29 39.29 0 0 0 4.8-10.43c1.32-3.97 2.48-7.94 3.47-11.91.99-3.97 2.04-8.05 3.14-12.25 1.1-3.52 2.2-7.05 3.31-10.58a70.67 70.67 0 0 1 4.3-10.59c1.98-4.41 5.07-8.16 9.26-11.25 3.75-3.08 7.44-3.86 11.09-2.31 3.64 1.54 5.57 4.85 5.79 9.93.22 2.65.05 5.35-.5 8.11s-1.38 5.35-2.48 7.78c-4.41 12.35-8.82 24.6-13.23 36.73a1259.83 1259.83 0 0 1-13.9 36.4c-5.74 14.12-5.62 28.24.33 42.35 1.99 4.41 4.03 8.89 6.12 13.4 2.09 4.53 4.25 9.11 6.45 13.73 1.76 3.97 3.31 8.06 4.63 12.25 1.32 4.19 2.2 8.49 2.65 12.91.22 2.87.16 5.74-.16 8.6-.33 2.87-1.38 5.84-3.15 8.94-6.4-4.85-11.74-10.26-16.05-16.21-4.3-5.96-8-12.25-11.08-18.86-3.09-6.62-5.75-13.51-7.95-20.68-2.21-7.17-4.41-14.39-6.62-21.67-.67.88-1.27 1.66-1.82 2.31-.56.67-1.05 1.32-1.49 1.99-7.06 13.9-9.26 28.78-6.62 44.67.44.88.66 1.66.66 2.32.88 3.75 1 6.57.33 8.43-.66 1.88-2.31 3.47-4.96 4.8-3.09 1.32-6.18 1.77-9.27 1.32-3.09-.44-5.52-1.87-7.28-4.3-1.1-1.76-2.15-3.74-3.14-5.95s-1.61-4.41-1.82-6.62c-.44-3.75-.61-7.39-.5-10.92.11-3.52.38-7.17.83-10.92l11.91-119.12c.44-6.18.55-12.25.33-18.2-.23-5.95-1.66-11.91-4.3-17.86-1.99-4.41-.99-8.38 2.98-11.91 3.75-3.74 8.27-4.63 13.56-2.65 3.75 1.55 6.62 3.81 8.6 6.79 1.99 2.98 3.31 6.35 3.97 10.09.45 2.43.71 4.86.83 7.28.11 2.43.06 4.85-.16 7.28-.22 8.16-.45 16.27-.67 24.32-.22 8.06-.55 16.17-.99 24.32v7.24zM521.32 1446.1c-4.41-.21-8.38-.54-11.91-.99-2.65 0-4.97-.67-6.95-1.99-2.21-1.1-3.98-2.75-5.3-4.96-1.32-2.2-1.87-4.41-1.66-6.62.67-4.85 3.86-7.61 9.6-8.28 12.79-.88 25.81-1.54 39.04-1.98 3.75-.22 7.5-.17 11.25.16s7.5.72 11.25 1.16c2.43.45 4.68 1.22 6.79 2.31 2.09 1.11 4.25 2.21 6.45 3.31 1.76.88 3.14 2.21 4.14 3.97.99 1.77 1.15 4.08.5 6.95-5.52.23-10.98.61-16.38 1.16-5.41.55-10.98 1.71-16.71 3.47.22 32.87.28 65.35.16 97.45-.11 32.09-.06 64.36.17 96.78-5.08 2.87-10.26 3.47-15.55 1.82-5.29-1.66-9.49-5.24-12.57-10.75-2.43-3.74-3.98-7.66-4.63-11.74-.67-4.08-.99-8.32-.99-12.74v-11.09c0-3.64.11-7.33.33-11.09.45-21.83 1-43.56 1.66-65.18.67-21.61 1.21-43.34 1.66-65.18.22-1.1.22-2.09 0-2.98-.24-.87-.35-1.86-.35-2.97zM587.49 1533.12v-82.72c0-4.85.44-8.21 1.32-10.09.88-1.88 2.87-3.47 5.96-4.8 3.31-1.1 6.45-1.16 9.43-.17 2.98 1 5.34 3.15 7.11 6.45 1.32 2.43 2.43 5.08 3.31 7.95.88 2.87 1.43 5.74 1.66 8.6.66 9.93.71 19.63.16 29.11-.55 9.49-1.38 19.08-2.48 28.79-.22 1.1-.38 2.09-.5 2.98-.11.88-.16 1.87-.16 2.98-.45 2.21-.45 4.25 0 6.12.44 1.87 1.76 3.47 3.97 4.8 2.2 1.1 4.41 1.6 6.62 1.49 2.21-.11 4.08-1.27 5.62-3.47 3.31-4.41 5.41-8.93 6.29-13.56 2.39-13.9 4.35-27.57 5.88-41.03.87-6.4 1.58-12.74 2.12-19.03.54-6.29 1.15-12.63 1.8-19.03.43-4.19 1.13-7 2.12-8.44.98-1.43 2.78-2.48 5.39-3.14 2.61-.67 5.24-.5 7.87.5 2.62.99 4.61 2.93 5.93 5.79.88 1.99 1.6 4.09 2.15 6.29.54 2.21.83 4.42.83 6.62.22 3.97.11 7.95-.33 11.91-.45 3.97-.88 7.83-1.32 11.58-3.09 25.81-5.19 51.51-6.28 77.09-1.1 25.59-1.43 51.4-1 77.43 0 5.07-.54 8.55-1.63 10.42-1.09 1.87-3.16 3.37-6.21 4.46-3.27 1.1-6.32 1-9.16-.33-2.83-1.33-5.01-3.86-6.53-7.61-.88-2.43-1.58-4.85-2.13-7.28-.54-2.43-.81-4.85-.81-7.28-.23-7.72-.28-15.27-.16-22.66.11-7.39.16-14.94.16-22.67 0-4.41-.39-7.44-1.16-9.1-.77-1.66-2.37-2.81-4.8-3.47-3.09-.88-5.84-.54-8.27.99-2.43 1.55-4.2 4.2-5.29 7.95a33.75 33.75 0 0 0-1.32 6.62c-.23 2.21-.33 4.41-.33 6.62-.23 8.39-.33 16.77-.33 25.15v25.15c0 4.42-.45 7.44-1.32 9.1-.88 1.66-2.76 3.03-5.62 4.14-5.74 1.76-10.48-.45-14.23-6.62-1.77-3.3-2.87-6.89-3.31-10.75-.45-3.86-.66-7.66-.66-11.41-.23-12.57-.33-25.2-.33-37.89v-44.53zM718.19 1620.81c5.29.45 9.64.88 13.07 1.32 3.42.45 6.29 1.16 8.6 2.15s4.3 2.32 5.96 3.97c1.66 1.66 3.47 3.81 5.46 6.45 1.54 1.77.33 3.31-3.64 4.63-3.97 1.32-9.1 2.26-15.39 2.82-6.28.54-12.79.66-19.52.33s-11.86-1.15-15.39-2.48c-2.65-.88-4.63-2.48-5.95-4.8-1.32-2.31-2.26-4.8-2.82-7.44-.55-2.65-.83-5.18-.83-7.61 0-2.43-.11-4.3-.33-5.62-.44-22.72-.99-45.27-1.65-67.67-.67-22.39-1.32-44.94-1.99-67.67-.22-5.29-.33-10.64-.33-16.05s-.11-10.87-.33-16.38c0-2.43.22-4.68.67-6.79a21.85 21.85 0 0 1 2.31-6.12c1.32-1.76 2.59-2.98 3.81-3.64 1.21-.66 2.92-.44 5.13.67 2.65 1.32 6.23 2.15 10.75 2.48 4.52.33 8.21.39 11.09.16 2.86 0 5.67-.05 8.43-.16s5.57-.06 8.44.16c3.3.23 6.4.94 9.26 2.15 2.87 1.22 5.18 3.25 6.95 6.12 1.77 2.87 2.21 5.41 1.32 7.61-.88 2.21-3.09 3.31-6.62 3.31-1.77.22-3.47.11-5.13-.33-1.66-.44-3.37-.77-5.13-.99-1.1-.45-2.26-.77-3.47-1-1.21-.21-2.37-.33-3.47-.33-4.41-.44-7.5.23-9.26 1.99-1.77 1.77-2.76 4.85-2.98 9.27 0 2.43.05 4.85.16 7.27.11 2.43.28 4.86.5 7.28.44 8.39.77 16.66 1 24.82.21 8.16.54 16.32.99 24.49.22 3.09.71 5.12 1.49 6.12.77.99 2.59 1.93 5.46 2.81 1.32.45 2.65.67 3.97.67 1.32 0 2.53.11 3.64.33 3.08.22 6.06.66 8.93 1.32 1.32.44 2.48 1.05 3.47 1.82 1 .77 1.6 2.04 1.83 3.81.88 3.53-.23 5.84-3.31 6.95-1.77.88-3.37 1.38-4.8 1.49-1.44.11-3.14.5-5.13 1.16-1.1.22-2.15.33-3.14.33-1 0-2.04.11-3.15.33-2.87.67-5.02 2.04-6.45 4.14-1.44 2.1-2.26 4.58-2.48 7.44-.23 9.49-.28 18.92-.17 28.29.12 9.37.17 18.92.17 28.62zM315.01 1909.95c2.43 3.09 3.69 5.62 3.81 7.61.11 1.99-.71 4.2-2.48 6.62-2.21 2.43-4.92 4.13-8.11 5.12-3.21 1-6.24.61-9.1-1.15-3.98-2.65-7.17-5.62-9.6-8.94a63.342 63.342 0 0 1-4.13-7.61c-1.22-2.65-2.38-5.4-3.47-8.27-3.09-8.38-6.23-16.7-9.43-24.98-3.2-8.27-6.45-16.59-9.76-24.98-.45-.88-1.27-1.49-2.48-1.82-1.22-.33-2.48-.5-3.81-.5-1.32 0-2.6.16-3.81.5-1.22.33-1.93.94-2.15 1.82-1.77 4.42-3.09 8.77-3.97 13.08-.88 4.3-1.55 8.66-1.99 13.07-1.32 12.8-.77 25.92 1.66 39.37.67 4.63.06 8.22-1.8 10.75-1.85 2.53-4.25 4.14-7.2 4.8-2.94.67-6.04.44-9.31-.66-3.27-1.11-6.1-3.09-8.5-5.96-5.96-6.62-8.27-14.77-6.95-24.49 3.52-26.69 5.73-53.33 6.61-79.91.88-26.58 1.1-53.33.67-80.24v-22.5c8.27-2.43 15.8-3.52 22.58-3.31 6.79.23 14.36 1.77 22.75 4.63 13.45 5.29 23.82 12.91 31.1 22.83s11.74 20.57 13.4 31.93c1.66 11.36.83 22.61-2.48 33.75s-8.6 20.46-15.88 27.96c-1.32 1.32-2.31 2.21-2.98 2.65v.33c.44 12.35 3.09 24.21 7.95 35.57 4.85 11.37 11.14 22.34 18.86 32.93zm-45.33-163.13c-.88-1.99-2.15-3.36-3.8-4.14-1.66-.77-3.47-1.21-5.46-1.32-1.99-.11-3.97-.05-5.96.16-1.98.23-3.86.33-5.62.33-.66 12.57-1.32 24.88-1.98 36.9-.67 12.02-1.33 24.21-1.99 36.56 1.1 2.43 3.75 4.63 7.94 6.62 4.19 1.98 8.72 3.64 13.57 4.96.88-.44 1.6-.77 2.15-.99a4.62 4.62 0 0 0 1.49-.99c1.99-2.87 3.31-7.17 3.97-12.91.67-5.74 1.05-11.75 1.16-18.03.11-6.29 0-12.41-.33-18.37-.33-5.96-.5-10.8-.5-14.55 0-2.43-.5-4.8-1.49-7.12-1-2.31-2.05-4.68-3.15-7.11zM369.6 1903.66c3.08.45 5.24-2.37 6.45-8.44 1.21-6.06 1.98-13.34 2.31-21.83.33-8.49.44-17.21.33-26.14-.11-8.93-.06-15.93.16-21.01.67-12.58 1.1-25.04 1.32-37.39.22-12.35.55-24.82 1-37.39.21-3.08.6-6.23 1.15-9.43.55-3.19 1.38-6.33 2.48-9.42 1.76-4.63 4.68-8.05 8.77-10.26 4.08-2.2 8.43-3.08 13.07-2.65 3.3.45 5.51 1.32 6.62 2.65 1.1 1.32 1.44 3.64.99 6.95-.66 9.93-1.44 19.75-2.31 29.45-.88 9.71-1.77 19.52-2.65 29.45a492.787 492.787 0 0 0-2.15 49.31c.11 16.32-.72 32.76-2.48 49.3-.45 4.42-.94 8.77-1.49 13.07-.55 4.3-1.38 8.55-2.48 12.74-1.32 5.07-3.59 9.32-6.79 12.74s-6.95 5.96-11.25 7.61c-4.3 1.66-8.88 2.37-13.73 2.15-4.85-.23-9.71-1.44-14.55-3.64-5.08-2.43-9.49-5.46-13.24-9.1-3.76-3.64-6.51-8.1-8.27-13.4-1.55-4.41-2.93-9.04-4.14-13.9-1.22-4.85-1.82-9.59-1.82-14.23 0-37.5.67-75.11 1.99-112.83.44-5.51.76-11.03.99-16.55a58.18 58.18 0 0 1 2.98-16.21c.88-4.85 2.87-8.72 5.96-11.58 3.08-2.87 6.17-4.46 9.26-4.8 3.08-.33 5.73.83 7.94 3.47 2.21 2.65 2.87 7.17 1.99 13.56.67 8.6.99 16.99.99 25.15-.44 17.65-.33 35.19.33 52.6.67 17.43.77 34.86.33 52.29.22 2.21.22 5.46 0 9.76-.23 4.3-.16 8.6.16 12.91.33 4.3 1.16 8 2.48 11.09 1.35 3.07 3.77 4.4 7.3 3.95zM506.58 1928.48c-5.07 0-10.58.05-16.54.16-5.96.11-11.48.05-16.54-.16-4.2-.23-8.28-.67-12.25-1.33-3.97-.66-7.94-1.21-11.91-1.65-1.11-.22-2.32-.5-3.64-.83-1.32-.33-2.54-.71-3.64-1.16-5.08-1.76-8.77-3.25-11.09-4.46-2.31-1.21-3.47-4.47-3.47-9.76 0-6.17.05-12.24.16-18.2.11-5.96.28-12.02.5-18.2.88-22.72 1.71-45.44 2.48-68.16s1.71-45.44 2.82-68.16c0-5.51.99-10.59 2.98-15.22 2.2-5.74 6.06-6.73 11.58-2.98 5.95 3.97 9.48 9.49 10.58 16.54.88 4.85 1.6 9.76 2.15 14.72.55 4.97.93 9.98 1.16 15.06.21 18.75.27 37.34.16 55.75-.11 18.42-.06 37.01.17 55.75 0 7.51.66 14.89 1.98 22.17 1.1 5.07 3.86 8.16 8.27 9.26 4.41 1.11 9.37 1.99 14.89 2.65 3.52.45 7.17 1.11 10.92 1.99 7.29 2.21 10.04 7.62 8.28 16.22zM551.59 1910.61c5.29.45 9.64.88 13.07 1.32 3.42.45 6.29 1.16 8.6 2.15 2.31.99 4.3 2.32 5.96 3.97 1.66 1.66 3.47 3.81 5.46 6.45 1.54 1.77.33 3.31-3.64 4.63-3.97 1.32-9.1 2.26-15.39 2.82-6.28.54-12.79.66-19.52.33s-11.86-1.15-15.39-2.48c-2.65-.88-4.63-2.48-5.95-4.8-1.32-2.31-2.26-4.8-2.82-7.44s-.83-5.18-.83-7.61c0-2.43-.11-4.3-.33-5.62-.44-22.72-.99-45.27-1.65-67.67-.67-22.39-1.32-44.94-1.99-67.67-.22-5.29-.33-10.64-.33-16.05s-.11-10.87-.33-16.38c0-2.43.22-4.68.67-6.79a21.85 21.85 0 0 1 2.31-6.12c1.32-1.76 2.59-2.98 3.81-3.64 1.21-.66 2.92-.44 5.13.67 2.65 1.32 6.23 2.15 10.75 2.48 4.52.33 8.21.39 11.09.16 2.86 0 5.67-.05 8.43-.16s5.57-.06 8.44.16c3.3.23 6.4.94 9.26 2.15 2.87 1.22 5.18 3.25 6.95 6.12 1.77 2.87 2.21 5.41 1.32 7.61-.88 2.21-3.09 3.31-6.62 3.31-1.77.22-3.47.11-5.13-.33-1.66-.44-3.37-.77-5.13-.99-1.1-.45-2.26-.77-3.47-1-1.21-.21-2.37-.33-3.47-.33-4.41-.44-7.5.23-9.26 1.99-1.77 1.77-2.76 4.85-2.98 9.27 0 2.43.05 4.85.16 7.27.11 2.43.28 4.86.5 7.28.44 8.39.77 16.66 1 24.82.21 8.16.54 16.32.99 24.49.22 3.09.71 5.12 1.49 6.12.77.99 2.59 1.93 5.46 2.81 1.32.45 2.65.67 3.97.67 1.32 0 2.53.11 3.64.33 3.08.22 6.06.66 8.93 1.32 1.32.44 2.48 1.05 3.47 1.82 1 .77 1.6 2.04 1.83 3.81.88 3.53-.23 5.84-3.31 6.95-1.77.88-3.37 1.38-4.8 1.49-1.44.11-3.14.5-5.13 1.16-1.1.22-2.15.33-3.14.33-1 0-2.04.11-3.15.33-2.87.67-5.02 2.04-6.45 4.14-1.44 2.1-2.26 4.58-2.48 7.44-.23 9.49-.28 18.92-.17 28.29s.17 18.92.17 28.62zM631.98 1800.43c4.85 6.4 9.54 11.03 14.07 13.9 4.52 2.87 8.65 5.62 12.41 8.27 3.75 2.65 6.95 6.12 9.59 10.42 2.65 4.3 4.52 11.09 5.62 20.35 1.1 9.27.83 18.37-.83 27.3a157.46 157.46 0 0 1-7.44 26.63c-1.1 3.09-2.65 6.07-4.63 8.94a56.983 56.983 0 0 1-6.62 7.95c-1.55 1.76-3.86 3.14-6.95 4.13-3.09.99-6.35 1.54-9.76 1.66-3.42.11-6.79-.06-10.09-.5-3.31-.45-5.96-1.32-7.95-2.65-5.29-3.31-9.59-7.66-12.91-13.08-3.3-5.4-5.84-11.41-7.61-18.03-1.77-6.62-3.04-13.57-3.81-20.85-.78-7.28-1.49-14.44-2.15-21.51-.22-2.42-.11-4.74.33-6.95.44-2.2.88-4.41 1.32-6.62.66-2.2 1.98-4.52 3.97-6.95 4.41-4.41 9.48-5.29 15.22-2.65 2.65 1.1 4.36 2.43 5.13 3.97s.83 3.97.17 7.28c-3.31 16.54-1.55 32.54 5.29 47.98 3.52 7.28 6.28 11.31 8.27 12.08 1.99.78 3.52-.38 4.63-3.47 1.1-3.08 1.98-7.28 2.65-12.57.66-5.29 1.43-10.37 2.31-15.22.44-3.31.83-6.62 1.16-9.93.33-3.31.71-6.62 1.16-9.93.21-10.59-4.41-18.86-13.9-24.82-1.1-.66-2.04-1.32-2.81-1.99-.78-.66-1.71-1.21-2.82-1.65-16.1-9.49-26.03-22.95-29.78-40.37-2.21-10.58-2.21-20.79 0-30.61 2.21-9.81 7.28-18.91 15.23-27.3 3.52-3.75 7.72-7.06 12.57-9.93 11.02-6.18 21.4-5.41 31.1 2.31 3.97 3.09 7.28 6.74 9.93 10.92 3.31 5.07 5.96 10.97 7.94 17.7a81.567 81.567 0 0 1 3.31 20.68c.22 7.06-.45 14.12-1.99 21.18s-3.97 13.56-7.28 19.52c-3.09-1.54-5.62-2.53-7.61-2.98-1.99-.44-3.59-1.1-4.8-1.99-1.22-.88-2.04-2.26-2.48-4.13-.45-1.87-.45-5.02 0-9.43 0-1.1.05-3.69.16-7.78s.17-8.65.17-13.73c0-5.07-.28-10.15-.83-15.22-.55-5.07-1.44-9.32-2.65-12.74-1.22-3.42-2.98-5.51-5.3-6.28-2.31-.77-5.35.71-9.1 4.46-3.53 3.53-6.12 8.11-7.78 13.73-1.66 5.62-2.48 11.47-2.48 17.53 0 6.07.76 12.08 2.31 18.03 1.6 6 3.7 10.97 6.34 14.94zM269.93 638.99c-9.66-26.57-4.83-50.72-36.23-21.74s-70.64 210.11-32.6 269.88c19.27 30.29 25.36 278.94 25.36 278.94 7.25 28.98 95.39 52.53 167.84 56.15s161.81 14.49 198.03-36.23c36.23-50.72 19.92-143.09 30.79-291.61s12.68-277.12 12.68-277.12-.74-185.68-16.3-190.18c-68.83-19.92-72.34 22.89-75.96 98.97"/><path class="st1" d="M275.18 637.58c-3.02-8.48-4.48-17.37-7.33-25.89-1.9-5.69-4.89-10.87-11.5-11.28-8.91-.55-17.08 6.6-23.3 12.06-4.42 3.88-8.01 7.85-11.22 12.78-7 10.78-11.78 23.05-16.01 35.12-5.68 16.25-10.18 32.91-13.89 49.71-8.18 37.08-13.2 75.6-11.54 113.63.69 15.76 2.41 31.74 7.27 46.81 3.06 9.51 8.77 17.21 11.58 25.95 7.25 22.58 8.84 47.52 11.1 70.97 3.12 32.43 5.15 64.97 6.82 97.51 1.38 26.79 2.49 53.6 3.36 80.41.21 6.37.4 12.73.57 19.1.21 7.91 5.83 14.05 11.66 18.9 14.45 12.03 33.77 18.71 51.48 24.13 23.34 7.15 47.47 11.9 71.65 15.06 23.6 3.08 47.42 3.97 71.16 5.28 22.89 1.27 45.88 2.27 68.79 1.06 38.55-2.04 81.37-11.13 103.77-45.76 16.31-25.21 19.93-56.97 21.88-86.23 3.01-45.1 2.02-90.43 3.46-135.6 1.87-58.43 7.13-116.72 10.12-175.1 2.27-44.36 4.03-88.75 5.22-133.15.35-13.16.88-26.34.78-39.51-.39-51.96-.76-104.66-7.23-156.27-1.12-8.92-2.05-18.67-5.57-27.04-1.18-2.8-2.54-5.18-5.4-6.46-7.61-3.4-17.97-4.57-26.22-5.1-13.72-.88-27.71 1.97-37.69 12-9.71 9.75-13.48 24.19-15.79 37.33-3.38 19.26-4.03 38.99-4.96 58.48-.25 5.26 10.39 3.64 10.61-.89.93-19.5 1.58-39.22 4.96-58.48 2.11-12.03 5.39-26.23 15.03-34.65 9.82-8.58 24.35-7.17 36.21-4.81 2.28.46 4.55 1 6.8 1.58.72.19 5.78 1.95 4.08.99.88.49.05-.22.21.1.25.51.76 1 1.07 1.49 1 1.61 2.18 5.84 2.85 8.61 5.86 24.52 6.48 50.74 7.74 75.81 1.36 27.13 2.09 54.3 2.49 81.46.59 40.42-1.17 80.87-2.74 121.24-2.08 53.38-4.89 106.74-8.6 160.04-3.6 51.79-5.25 103.47-6.03 155.37-.53 35.67-.12 72.36-7.63 107.41-2.81 13.12-7.04 25.99-13.94 37.56-8.74 14.63-21.96 24.97-37.62 31.41-18.79 7.73-39.59 10.04-59.72 10.93-22.06.98-44.16-.1-66.18-1.35-23.31-1.32-46.66-2.23-69.83-5.33-23.32-3.12-46.53-7.77-69.01-14.77-16.8-5.23-35.29-11.55-48.77-23.33-4.89-4.28-8.38-8.58-8.54-14.46-.49-18.13-1.14-36.26-1.87-54.38-2.44-59.88-4.79-120.31-13.14-179.71-1.43-10.19-3.02-20.45-5.67-30.4-2.17-8.14-6.55-14.5-9.82-22.15-12.52-29.26-11.65-64.17-9.3-95.26 2.72-35.95 9.29-71.92 19.79-106.42 4.02-13.21 8.69-26.39 14.96-38.72 5.56-10.93 13.56-21.82 25.1-27.06 1.62-.73 1.67-.88 2.85.46 1.78 2.03 2.54 4.89 3.3 7.41 2.41 8.03 3.98 16.25 6.8 24.18 1.67 4.61 12.13 1.68 10.54-2.78z"/><path d="M278.38 753.7s-10.26-160 0-282.56c1.66-19.85 77.28-50.72 79.7 4.83l-1.7 150.29"/><path class="st1" d="M283.63 752.3c-1.91-29.84-2.95-59.76-3.7-89.65-1.49-59.87-1.5-119.94 2.78-179.7.6-8.45-.08-15.02 6.29-20.97 5.1-4.76 11.66-8.12 18.16-10.51 13.07-4.79 30.73-6.35 39.92 6.32 6.35 8.75 5.7 19.56 5.58 29.76-.18 15.6-.35 31.19-.53 46.79-.34 30.22-.87 60.45-1.03 90.68 0 .59-.01 1.19-.02 1.78-.06 4.96 10.52 3.06 10.57-1.05.31-27.7.63-55.41.94-83.11.2-17.44.39-34.87.59-52.31.12-10.35 1.2-21.34-3.12-31.07-7.32-16.46-25.66-20.05-41.95-17.29-14.92 2.52-32.95 9.56-41.99 22.45-1.54 2.2-2.64 4.59-3.03 7.26-1.12 7.63-1.21 15.58-1.69 23.27-.99 15.99-1.66 32-2.12 48.01-.9 31.78-.94 63.58-.45 95.36.4 25.26 1.15 50.51 2.21 75.75.55 13 .56 26.28 1.96 39.23.07.6.07 1.21.11 1.81.29 4.1 10.82 1.76 10.52-2.81z"/><path d="M355.67 678.84s19.97-506.63 19.32-528.89c-1.81-61.58 65.21-130.41 76.07-3.62 6.83 79.73-1.21 525.27-1.21 525.27"/><path class="st1" d="M361 678.51c.76-19.33 1.52-38.65 2.27-57.98 1.77-45.37 3.53-90.73 5.27-136.1 2.06-53.65 4.09-107.3 6.08-160.96 1.59-43.09 3.18-86.19 4.58-129.29.39-12.11.8-24.22 1.05-36.34.28-13.35.41-26.32 4.55-39.24 3.15-9.83 7.68-19.4 14.15-27.48 2.54-3.18 5.36-6.06 8.68-8.44 1.19-.85 2.35-1.55 4.03-2.32.71-.32 3.19-1.05 3.47-1.08 2.82-.36 5.01-.01 7.69 1.52 3.58 2.05 6.25 5.36 8.44 8.78 8.1 12.61 10.9 28.72 12.92 43.3 2.29 16.57 2.82 33.73 3.27 51.21.56 21.34.77 42.69.91 64.04.34 55.12.03 110.25-.43 165.36-.45 54.13-1.1 108.25-1.88 162.38-.44 30.56-.91 61.11-1.44 91.66-.03 1.46-.05 2.92-.08 4.38-.1 5.75 10.58 4.43 10.67-.66.4-22.28.75-44.57 1.09-66.86.78-51.49 1.45-102.99 1.97-154.48.58-57.66 1-115.33.89-172.99-.08-40.75.23-81.67-2.14-122.37-.73-12.53-2.01-25.07-4.5-37.38-2.55-12.59-6.29-26.77-14.91-36.73-13.29-15.37-32.28-9.39-44.59 3.81-14.63 15.69-22.45 38.85-23.31 60.02-.34 8.42-.16 16.9-.39 25.32-1.03 37.2-2.43 74.39-3.78 111.58-1.93 53.24-3.93 106.48-5.96 159.72-1.91 50.17-3.84 100.33-5.8 150.5-1.09 27.97-2.18 55.94-3.28 83.91l-.15 3.86c-.24 5.74 10.46 4.45 10.66-.65z"/><path d="M539.21 710.23s19.82-307.4-4.83-323.01c-54.34-34.41-82.11 45.28-82.11 45.28l-4.11 231.19"/><path class="st1" d="M544.5 709.75c2.42-37.6 4.17-75.26 5.54-112.91 1.14-31.58 1.96-63.19 2-94.79.04-27.03-.16-54.24-2.86-81.16-.85-8.45-1.83-17.08-4.22-25.26-2.3-7.86-5.58-11.32-13.09-14.95-14.39-6.97-30.64-7.58-44.91.09-12.27 6.6-21.56 17.46-28.79 29.17-4.13 6.69-8.53 14.25-10.77 21.87-.93 3.17-.52 6.82-.58 10.12-.41 22.94-.82 45.89-1.22 68.83-.89 50.18-1.79 100.35-2.68 150.53-.02.97-.03 1.94-.05 2.91-.09 5.11 10.51 3.32 10.59-.98.75-42.03 1.5-84.05 2.24-126.08.47-26.68.95-53.36 1.42-80.04l.39-21.65c.02-1.13 0-2.27.06-3.4-.08 1.49-.25.62.12-.28.49-1.22.96-2.44 1.48-3.64 8.14-19.14 23.83-45.99 47.6-45.98 8.12 0 16.96 3.26 23.53 7.95.97.7-.32-.45.35.27.29.31.58.63.81.99.82 1.25.9 1.38 1.29 2.28 2.83 6.42 3.87 13.72 4.82 20.62 3.34 24.2 3.63 48.88 3.83 73.26.25 30.81-.38 61.64-1.34 92.43-1.35 42.88-3.33 85.76-6 128.58-.05.73-.09 1.47-.14 2.2-.33 5.05 10.3 3.34 10.58-.98zM402.71 119.1c-11.93 13.89-14.12 31.99-12.82 49.66.37 5 .99 9.97 1.65 14.94.53 3.96.84 8.37 3.51 11.59 4.44 5.36 14.36 4.7 20.59 4.53 7.39-.2 15.27-1.93 20.83-7.1 6.22-5.78 6.97-14.34 8.03-22.29 2.32-17.33 3.14-37.12-9.38-51.04-4.72-5.25-14.01-12.7-21.22-8.38-3.57 2.14-6.88 4.87-10.28 7.27-1.84 1.3-2.62 3.63-.64 5.16 2.03 1.56 5.64.62 7.51-.7 3.43-2.42 6.85-4.85 10.28-7.27-2.17.39-4.34.78-6.5 1.17 14.55 4.64 20.64 20.71 21.06 34.76.24 8.25-.9 16.51-2.09 24.65-1.02 7-2.49 14.1-10.35 15.82-4.8 1.06-16.44 2.26-19.2-2.62-1.47-2.6-1.41-6.43-1.79-9.31-.57-4.35-1.12-8.7-1.46-13.07-1.22-15.64.34-32.59 10.96-44.96 4.3-4.96-5.74-6.24-8.69-2.81zM403.21 292.44h19.32c4.32 0 11.2-1.67 13.98-5.27 2.94-3.8-2.58-4.4-5.22-4.4h-19.32c-4.32 0-11.2 1.67-13.98 5.27-2.94 3.79 2.58 4.4 5.22 4.4zM403.74 316.17h20.53c4.87 0 11.21-1.38 13.76-6.1 2.31-4.27-1.99-7.56-6.06-7.56h-20.53c-4.87 0-11.21 1.38-13.76 6.1-2.31 4.27 1.99 7.56 6.06 7.56zM323.51 828.57h22.94c4.31 0 11.2-1.67 13.98-5.26 2.94-3.79-2.59-4.39-5.21-4.39h-22.94c-4.31 0-11.2 1.67-13.98 5.26-2.95 3.79 2.58 4.39 5.21 4.39zM391.32 824.46h16.91c4.59 0 11.08-1.6 13.9-5.57 2.84-4-2.45-5.54-5.52-5.54H399.7c-4.59 0-11.08 1.6-13.9 5.57-2.84 4 2.45 5.54 5.52 5.54zM459.96 815.98h22.94c4.95 0 10.69-1.13 14.85-3.98 3.03-2.08 3.12-4.64-1.24-4.64h-22.94c-4.95 0-10.69 1.13-14.85 3.98-3.04 2.07-3.12 4.64 1.24 4.64zM534.15 825.75h20.53c4.88 0 11.21-1.38 13.76-6.1 2.3-4.27-1.99-7.58-6.07-7.58h-20.53c-4.88 0-11.21 1.38-13.76 6.1-2.29 4.27 1.99 7.58 6.07 7.58z"/></svg>