<svg width="17" height="16" viewBox="0 0 17 16" fill="none" xmlns="http://www.w3.org/2000/svg">
<g clip-path="url(#clip0_2411_8650)">
<path opacity="0.75" d="M8.93301 1.75L9.36602 1.5C8.98113 0.833335 8.01888 0.833331 7.63398 1.5L1.5718 12C1.1869 12.6667 1.66802 13.5 2.43782 13.5H14.5622C15.332 13.5 15.8131 12.6667 15.4282 12L9.36603 1.5L8.93301 1.75Z" stroke="#AC6109"/>
<path fill-rule="evenodd" clip-rule="evenodd" d="M8.5 4C7.94772 4 7.5 4.44772 7.5 5V8C7.5 8.55228 7.94772 9 8.5 9C9.05228 9 9.5 8.55228 9.5 8V5C9.5 4.44772 9.05228 4 8.5 4ZM8.5 10C7.94772 10 7.5 10.4477 7.5 11C7.5 11.5523 7.94772 12 8.5 12C9.05228 12 9.5 11.5523 9.5 11C9.5 10.4477 9.05228 10 8.5 10Z" fill="#AC6109" fill-opacity="0.9"/>
</g>
<defs>
<clipPath id="clip0_2411_8650">
<rect width="16" height="16" fill="white" transform="translate(0.5)"/>
</clipPath>
</defs>
</svg>
