<svg width="17" height="16" viewBox="0 0 17 16" fill="none" xmlns="http://www.w3.org/2000/svg">
<path d="M12.3956 11.9827C12.3953 8.08681 4.60456 8.08771 4.60406 11.9826" stroke="#C81111" stroke-opacity="0.9"/>
<path fill-rule="evenodd" clip-rule="evenodd" d="M5.50039 5.70652L6.76535 6.97148L7.47245 6.26437L6.20749 4.99941L7.47245 3.73445L6.76535 3.02734L5.50039 4.2923L4.23543 3.02734L3.52832 3.73445L4.79328 4.99941L3.52832 6.26437L4.23543 6.97148L5.50039 5.70652Z" fill="#C81111" fill-opacity="0.9"/>
<path fill-rule="evenodd" clip-rule="evenodd" d="M11.5004 5.70652L12.7653 6.97148L13.4725 6.26437L12.2075 4.99941L13.4725 3.73445L12.7653 3.02734L11.5004 4.2923L10.2354 3.02734L9.52832 3.73445L10.7933 4.99941L9.52832 6.26437L10.2354 6.97148L11.5004 5.70652Z" fill="#C81111" fill-opacity="0.9"/>
</svg>
