<svg version="1.1" id="Ebene_1" xmlns="http://www.w3.org/2000/svg" x="0" y="0" viewBox="0 0 2048 984" style="enable-background:new 0 0 2048 984" xml:space="preserve"><style>.st0{stroke:#fff;stroke-miterlimit:10}.st0,.st1{fill:#fff}</style><path class="st0" d="M23.97 376.83C6.96 290.97 201.39 270.98 256.73 263.62c87.06-11.57 175.71-11.14 262.59 1.88 174.9 26.21 347.58 82.22 518.73 126.03 171.64 43.94 342.97 89.42 515.04 131.64 76.47 18.76 152.93 32.91 231.59 38.01 42.54 2.76 85.19 3.94 127.68 7.45 22.49 1.86 50.65 1.25 70.6 12.89 34.49 20.11 19.18 63.1 1.65 89.43-95.69 143.76-266.11 245.53-429.05 291.9-13.33 3.79-9.88 17.26 3.6 13.42 159.22-45.31 303.86-135.18 412.23-260.76 34.29-39.74 95.23-121.49 16.61-151.21-39.78-15.04-89.74-12.01-131.44-14.23-52.8-2.81-105.55-5.26-157.9-13.11-107.38-16.11-212.65-47.76-317.68-74.65-104.73-26.81-209.45-53.62-314.18-80.42-104.73-26.81-209.45-53.62-314.18-80.42-94.18-24.11-188.5-49.53-285.74-57.52-103.1-8.48-207.37-.33-307.96 23.76-52.77 12.63-172.46 36.93-156.99 115.03 1.8 9.1 23.91 3.55 22.04-5.91z"/><path class="st0" d="M0 373.91c.61 55.31 22.91 102.43 54.11 147.14 39.76 56.97 86.1 111.2 131.18 163.99 80.4 94.15 179.94 147.24 304.8 150.73 12.88.36 16.62-16.46 1.76-16.87-130.33-3.64-224.34-67.72-304.75-165.74-65.09-79.38-163.5-171-164.71-280.73-.14-11.92-22.51-8.94-22.39 1.48zM661.92 282.74c19.07-104.69 86.2-191.8 184.94-233.28 98.46-41.36 212.63-38.38 315.37-16.49a715.114 715.114 0 0 1 145.54 47.8c23.53 10.64 47.03 22.24 69.03 35.82 24.81 15.32 35.51 34.79 45.02 61.56 36.04 101.45 40.01 211.04 16.18 315.63-1.87 8.19 20.32 4.82 22.04-2.75 14.27-62.63 19.11-126.55 12.51-190.53-5.39-52.2-14.93-119.95-44.36-164.78-26.8-40.83-92.32-62.39-135.44-79.45-55.46-21.94-113.65-37.11-172.78-44.92-204.74-27.06-438.51 45.83-480.09 274.14-1.54 8.45 20.66 4.82 22.04-2.75z"/><path class="st0" d="M21.63 344.08c137.81-76.38 304.71-53.32 453.52-29.29 135.15 21.83 268.37 53.89 401.05 87.29 265.12 66.74 530.74 138.72 805.47 148.7 4.35.16 24.85-7.94 14.48-8.32-314.45-11.43-616.11-105-920-177.59-144.63-34.55-291.84-66.72-440.41-77.9-113.84-8.57-229.36.92-330.8 57.15-8.98 4.96 12.88 2.07 16.69-.04zM692.65 202.98c97.63-82.24 218.39-124.11 346.07-120.02 126.3 4.05 247.82 46.54 365.98 87.63 6.26 2.18 26.23-7.23 17.66-10.21-134.91-46.91-275.28-95.27-420.18-88.94C881.53 76.71 767.36 122.32 675.15 200c-9.43 7.94 12.39 7.29 17.5 2.98z"/><path class="st0" d="M676.97 231.03c231.94-90.85 488.27-97.08 725.09-20.74 4.74 1.53 24-6.28 18.22-8.14-245.03-78.99-511.24-69.16-750.72 24.64-14.61 5.72-.75 7.44 7.41 4.24z"/><path class="st0" d="M662.36 269.5c121.54-51.75 253.16-64.29 384.12-60.04 66.53 2.16 132.86 8.48 199 15.74 59.79 6.56 129.22 6.51 177.15 47.48 8.04 6.87 26.82-4.77 16.83-13.31-47.76-40.83-112.61-42.93-172.3-49.61-68.02-7.62-136.18-14.32-204.6-17.03-140.12-5.57-280.16 7.26-410.27 62.65-13.8 5.88-1.66 19.11 10.07 14.12z"/><path class="st0" d="M667.72 286.08c253.17-55.93 517.84-30.57 756.33 70.77 8.45 3.59 25.6-8.53 12.98-13.89-243.82-103.6-514.45-127.73-773-70.62-13.68 3.02-9.88 16.74 3.69 13.74z"/><path class="st0" d="M732.82 305.17c237.45-17.01 475.16 22.12 694.85 113.68 6.73 2.81 26.78-6.96 17.5-10.83-224.52-93.57-466.85-132.74-709.42-115.37-10.99.79-18.2 13.62-2.93 12.52z"/><path class="st0" d="M857.96 331.33c195.94-8.39 380.89 65.99 569.4 107.24 5.2 1.14 24.33-7.27 18.09-8.63-191.75-41.96-378.7-116.16-577.98-107.63-6.03.25-23.99 9.64-9.51 9.02zM732.92 142.46c104-47.03 206.16-87.58 322.43-84.85 107.39 2.52 224.73 23.99 326.93 57.29 6.38 2.08 26.28-7.5 17.63-10.32-109.87-35.8-235.47-59.25-351.24-59.08-116.33.17-219.84 41.32-324.29 88.55-13.98 6.34-1.13 12.79 8.54 8.41z"/><path class="st0" d="M695.35 285.76c20.53-61.07 55.26-114.54 90.69-167.82 6.16-9.27-16.16-8.45-20.79-1.47-36.2 54.43-71.12 109.2-92.08 171.53-2.96 8.78 19.37 6.13 22.18-2.24zM758.96 288.2c11.53-95.49 54.19-182.25 124.05-248.64 8.88-8.44-12.75-6.94-17.38-2.53-71.8 68.24-116.7 155.83-128.6 254.35-.91 7.58 21.14 3.44 21.93-3.18zM842.53 313.43c5.43-49.51 19.52-96.65 34.04-144.1 8.53-27.88 19.35-108.25 53.05-118.61 12.61-3.88 10.93-11.58-2.03-7.59-41.96 12.9-48.83 51.59-60.69 90.31-18.75 61.23-39.39 121.96-46.41 185.9-.38 3.42 21.27 1.12 22.04-5.91zM918.81 335.54c-14.01-53.91.99-115.97 16.67-168.33 17.76-59.3 53.61-100.82 98.77-141.6 4.62-4.17-15.92-2.04-19.97 1.61-46.38 41.88-82.21 83.05-100.55 143.85-15.7 52.04-30.88 116.84-16.97 170.38 1.28 4.91 23.37-.84 22.05-5.91zM980.7 361.33c4.82-59.62 5.28-121.9 22.81-179.51 16.57-54.45 46.72-102.49 86.09-143.27 9.66-10-11.4-14.43-18.58-7-40.47 41.92-71.52 91.48-88.68 147.39-18.16 59.17-19.07 122.63-24.02 183.88-.95 11.74 21.54 8.94 22.38-1.49z"/><path class="st0" d="M1051.58 374.55c-10.03-123.83 2.34-266.51 118.06-338.86 12.58-7.86-5.37-16.65-14.8-10.75-121.6 76.02-135.86 225.08-125.3 355.51.85 10.55 22.94 5.17 22.04-5.9z"/><path class="st0" d="M1107.36 393.34c-7.22-69.57 10.98-136.62 33.64-201.86 20.44-58.83 65.9-101 106.28-146.96 9.27-10.55-11.64-15.1-18.62-7.15-46.91 53.39-91.15 97.28-113.68 165.45-21.18 64.09-36.72 128.48-29.67 196.44 1.12 10.66 23.2 5.2 22.05-5.92z"/><path class="st0" d="M1170.58 412.56c-.25-69.86 6.84-131.58 32.07-197.12 11.22-29.15 21.8-62.1 38.53-88.48 14.62-23.06 41.12-33.19 58.55-53.7 6.04-7.11-15.95-5.59-20.47-.27-22.63 26.62-47.31 32.03-64.05 64.38-13.37 25.84-24.16 53.8-34.57 80.94-25.43 66.29-32.36 129.67-32.1 200.16.03 6.51 22.07 2.45 22.04-5.91z"/><path class="st0" d="M1251.95 426.2c-.43-53.46-.87-106.92-1.3-160.37-.41-50.15-13.21-128.95 40.91-156.81 13.31-6.85 1.43-19.77-10-13.89-43.42 22.35-52.82 64.87-53.75 110.58-1.5 73.86 1.14 148.06 1.74 221.93.1 12 22.49 9.09 22.4-1.44zM1313.33 433.28c-.71-52.22.3-104.41 3.7-156.53 3.55-54.51-.09-111.2 46.22-147.97 11.7-9.29-6.12-16.25-14.5-9.6-39.79 31.6-45.94 63.1-50.38 112.55-6.07 67.65-8.26 135.47-7.33 203.38.15 11.24 22.42 7.7 22.29-1.83z"/><path class="st0" d="M1380.93 453.92c-11.7-53.49-18.42-107.83-17.36-162.67.56-29.14 3.93-54.68 16.52-81.21 9.61-20.25 20.07-35.98 23.73-58.66 1.32-8.16-20.83-4.36-22 2.9-4.17 25.78-19.72 45.47-29.12 69.23-9.12 23.05-10.88 47.37-11.33 71.92-1.01 55.37 5.72 110.38 17.53 164.4 1.57 7.24 23.7 1.72 22.03-5.91z"/><path class="st0" d="M1427.59 457.82c-14.08-70.58-21.02-174.82 17.98-239.04 5.2-8.57-16.8-6.35-20.48-.29-40.01 65.9-34.16 171.97-19.54 245.24 1.45 7.3 23.59 1.9 22.04-5.91zM679.55 255.97c10.56-15.83 18.14-31.66 24.09-49.58l-22.11 2.49c-1.14 24.21-5.52 45.94-13.8 68.66l21.25-5.7c-29.95-25.9 91.03-163.77 109.43-186.9 6.58-8.27-15.14-6.9-19.27-2.67-39.39 40.36-72.64 84.73-100.13 134.01l21.39-.75c4.17-41.41 22.09-75 54.68-101.13l-17.87-4.35c-33.46 39.43-52.27 83.66-55.93 135.42l22.11-2.49c5.2-203.81 312.57-238.97 463.23-223.78 2.78-4.46 5.56-8.93 8.34-13.39C1041.32 8.97 909.89 29.85 782 68.78c3.98 2.17 7.96 4.35 11.95 6.52 8.7-16.83 44.72-18.18 60.87-21.67 20.35-4.41 40.71-8.76 61.09-13.05 46.06-9.7 92.5-21.26 139.39-25.97 94.21-9.46 177.18 25.77 260.75 64.74 5.8-3.73 11.6-7.46 17.4-11.18C1234.78 28.63 1133.41-8 1026.13 14.4c-10.75 2.24-12.64 13.32.24 12.62 105.58-5.72 221.21-8.98 308.45 60.45 6.06 4.82 27.17-2.82 20.4-8.9-45.23-40.56-119.57-43.64-176.74-52.45-63.98-9.88-128.76-15.76-193.48-11.05-108.58 7.9-216.67 49.22-287.84 134.15l19.27 2.67c21.74-51.38 65.55-86.15 121.98-91-1.04-3.87-2.08-7.75-3.11-11.62-94.83 33.21-164.72 113.63-182.45 212.82-.7 3.93 3.95 5.23 6.89 5.45l111.05 8.22c1.85-4.43 3.69-8.86 5.54-13.29-28.91 5.38-56.96 7.26-86.37 5.59-6.37-.36-23.31 11.27-10.82 13.04 22.94 3.26 45.89 6.53 68.83 9.79 3.61-4.35 7.21-8.7 10.82-13.04l-26.69-.99c-6.03-.22-23.53 9.02-10.82 13.04 16.81 5.33 33.61 10.65 50.42 15.98l13.3-12.7c-21.85-5.55-43.7-11.11-65.55-16.66-5.46-1.39-25.38 7.62-15.35 11.94 22.37 9.63 43.22 14.42 67.59 15.32 4.11.15 22.69-7.01 12.87-12.29-24.34-13.09-48.91-22.97-75.44-30.51.1 3.35.2 6.71.31 10.06 12.42-9.42 25.08-16.43 39.69-21.89 7.08-2.64 9.22-11.59-.32-11.72-9.37-.13-18.74-.25-28.11-.38.11 3.91.21 7.81.32 11.72l27.81-11.46c2.26-.93 6.4-3.36 6.57-6.27 1.49-25.57 6.81-47.34 17.97-70.57l-21.39.75c-3.03 22.19-6.06 44.39-9.08 66.58l22.11-2.49c.62-20.75 1.24-41.5 1.85-62.25.31-10.55-19.57-4.16-22.11 2.49-7.71 20.16-15.41 40.32-23.12 60.48l22.11-2.49c.02-12.07.03-24.14.05-36.21.01-10.09-18.11-4.42-21.39.75-8.53 13.43-13.96 28.06-20.06 42.52-.75 1.79-1.24 3.27.13 4.94 4.7 5.73 5.68 5.87 12.7 8.17 4.86 1.59 12.05-.75 15.59-4.18 1.19-1.15 2.37-2.3 3.56-3.45l-17.87-4.35c-51.6 56.96 132.64 58.88 152.92 61.02 2.78-4.46 5.56-8.93 8.34-13.39-35.63-2.16-71.25-4.33-106.88-6.49-6.17-.38-23.42 9.08-10.82 13.04l58.65 18.45c7.6 2.39 25.88-8.74 13.3-12.7l-58.65-18.45c-3.61 4.35-7.21 8.7-10.82 13.04 35.63 2.16 71.25 4.33 106.88 6.49 8.88.54 23.34-11.8 8.34-13.39-21.73-2.3-43.46-4.59-65.19-6.89-8.13-.86-103.05-8.97-78.19-36.4 9.04-9.97-12.4-9.65-17.87-4.35 2.83-1.57 5.65-3.15 8.48-4.72 1.47-3.49 0-5.9-3.68-6.84-13.37-3.41-27.29.55-29.97 15.48-.24 1.21.05 2.28.86 3.2 33.7 26.86 40.91-34.03 50.93-49.8l-21.39.75c-.02 12.07-.03 24.14-.05 36.21-.02 10.57 19.55 4.23 22.11-2.49 7.71-20.16 15.41-40.32 23.12-60.48l-22.11 2.49c-.62 20.75-1.24 41.5-1.85 62.25-.29 9.73 21.04 5.41 22.11-2.49 3.03-22.19 6.06-44.39 9.08-66.58 1.31-9.58-18.75-4.74-21.39.75-13.11 27.28-11.26 67.11-40.66 79.23-6.85 2.82-9.38 11.59.32 11.72 9.37.13 18.74.25 28.11.38-.11-3.91-.21-7.81-.32-11.72-16.71 6.24-30.44 13.76-44.63 24.51-4.23 3.2-6.28 8.19.31 10.06 25.17 7.16 48.39 16.65 71.34 28.99 4.29-4.1 8.58-8.19 12.87-12.29-20.95-.77-39.05-4.73-58.52-13.11-5.12 3.98-10.23 7.96-15.35 11.94 21.85 5.55 43.7 11.11 65.55 16.66 7.36 1.87 26.12-8.64 13.3-12.7-16.81-5.33-33.61-10.65-50.42-15.98-3.61 4.35-7.21 8.7-10.82 13.04l26.69.99c6.17.23 23.45-11.25 10.82-13.04-22.94-3.26-45.89-6.53-68.83-9.79-3.61 4.35-7.21 8.7-10.82 13.04 31.27 1.77 61.09-.04 91.96-5.78 7.18-1.34 20.12-12.21 5.54-13.29-15.55-1.15-89.47 2.1-98.63-10.76-11.3-15.85 16.47-63.6 25.6-79.16 31.46-53.58 79.69-92.64 138.17-113.12 10.2-3.57 6.62-12.46-3.11-11.62-64.53 5.56-119.93 43.05-145.38 103.21-4.37 10.32 15.36 7.33 19.27 2.67C781.69 74 880.46 35.73 982.25 28.26c61.05-4.48 122.58 1.26 182.92 10.55 52.96 8.16 128.11 11.4 169.65 48.65 6.8-2.97 13.6-5.93 20.4-8.9-92.67-73.74-213.74-70.83-326.1-64.74l.24 12.62c99.21-20.71 195.87 16.5 286.69 52.9 6.63 2.66 27.37-6.54 17.4-11.18-93.71-43.7-185.1-79.33-290.25-64.91C989.08 10.68 935.5 23.6 882.12 35c-32.06 6.85-91.69 6.13-108.84 39.31-3.77 7.29 7.62 7.84 11.95 6.52 124.08-37.77 251.71-58.57 381.39-61.64 8.26-.2 23.8-11.83 8.34-13.39-109.72-11.05-220.78 2.97-323.27 44.35-84.57 34.14-167.89 96.13-170.41 195.33-.25 9.69 21.55 5.49 22.11-2.49 3.42-48.35 20.2-91.47 51.69-128.58 9.11-10.74-12.52-8.63-17.87-4.35-34.53 27.69-54.47 63.84-58.92 107.97-1 9.9 18.51 4.4 21.39-.75 26.78-48 58.91-91.26 97.34-130.64l-19.27-2.67c-31.47 39.54-61.46 80.16-89.47 122.23-12.41 18.64-43.75 53.74-19.69 74.55 5.87 5.08 18.63 1.49 21.25-5.7 8.31-22.77 12.67-44.5 13.8-68.66.48-10.3-19.8-4.48-22.11 2.49-6 18.09-12.39 30.75-22.64 46.11-5.91 8.85 16.31 7.49 20.66.98z"/><path class="st1" d="M775.61 296.49c4.88 0 11.85-1.52 14.52-6.14 2.54-4.4-2.17-6.96-6.1-6.96-4.88 0-11.85 1.52-14.52 6.14-2.54 4.4 2.17 6.96 6.1 6.96z"/><path class="st0" d="M841.77 300.64c8.87 2.54 17.75 5.07 26.62 7.61 5.18 1.48 11.9-.17 15.59-4.18 3.3-3.59 2.26-8.25-2.58-9.63-8.87-2.54-17.75-5.07-26.62-7.61-5.18-1.48-11.9.17-15.59 4.18-3.3 3.59-2.25 8.25 2.58 9.63z"/><path class="st0" d="M785.99 301.94c53.63 16.49 107.98 23.84 164.04 22.96 6.19-.1 23.99-9.44 9.46-9.21-53.04.83-104.77-6.91-155.44-22.49-5.16-1.59-24.69 6.7-18.06 8.74z"/><path class="st0" d="M748.67 307.5c71.27 17.79 143.37 25.87 216.81 24.36 6.85-.14 23.81-10.61 9.16-10.31-70.59 1.45-139.59-6.34-208.09-23.44-5.68-1.41-25.23 7.55-17.88 9.39z"/><path class="st0" d="M809.3 315.51c62.46 20.71 126.01 34.16 191.44 40.92 4.77.49 25.15-7.83 14.31-8.95-64.1-6.62-126.48-20.21-187.63-40.48-4.95-1.64-24.46 6.4-18.12 8.51z"/><path class="st0" d="M947.97 341.4c22.82 3.8 45.64 7.61 68.46 11.41 4.59.76 12.43-.3 15.59-4.18 2.61-3.2 3.24-6.59-2-7.47-22.82-3.8-45.64-7.61-68.46-11.41-4.59-.77-12.43.3-15.59 4.18-2.61 3.2-3.24 6.6 2 7.47zM775.4 250.1c33.69-.54 67 1.9 100.26 7.32 6.39 1.04 25.78-9.21 13.71-11.18-34.86-5.68-69.82-8.24-105.14-7.67-7.62.11-23.58 11.76-8.83 11.53zM755.56 231.56c40.58-4.96 81.16-9.91 121.74-14.87 10.91-1.33 18.11-14.63 2.86-12.77-40.58 4.96-81.16 9.91-121.74 14.87-10.91 1.33-18.11 14.63-2.86 12.77zM807.91 211.73c12.68-2.54 25.35-5.07 38.03-7.61 3.23-.65 10.74-4.02 9.56-8.42-1.25-4.66-9.46-3.12-12.49-2.52-12.68 2.54-25.35 5.07-38.03 7.61-3.23.65-10.74 4.02-9.56 8.42 1.25 4.67 9.46 3.13 12.49 2.52zM849.53 180.52l64.65-19.02c12.86-3.78 10.62-13.21-2.51-9.35l-64.65 19.02c-12.86 3.77-10.62 13.21 2.51 9.35z"/><path class="st0" d="M842.81 180.03c35.5-11.41 70.99-22.82 106.49-34.23 13.37-4.3 9.31-20.35-4.28-15.98-35.5 11.41-70.99 22.82-106.49 34.23-13.37 4.29-9.31 20.35 4.28 15.98z"/><path class="st1" d="M867.68 145.84c5.15 0 11.2-1.4 15.59-4.18 3.29-2.09 3.28-4.28-1.15-4.28-5.15 0-11.2 1.4-15.59 4.18-3.29 2.08-3.28 4.28 1.15 4.28z"/><path class="st0" d="M849.11 150.99c39.3-15.21 78.6-30.43 117.9-45.64 14.2-5.49 1.49-15.32-9.27-11.15-39.3 15.21-78.6 30.43-117.9 45.64-14.2 5.49-1.5 15.32 9.27 11.15z"/><path class="st0" d="M877.01 134.27c25.35-8.87 50.71-17.75 76.06-26.62 13.16-4.61 9.27-20.47-4.22-15.75-25.35 8.87-50.71 17.75-76.06 26.62-13.16 4.61-9.27 20.47 4.22 15.75z"/><path class="st0" d="M860.42 131.63c15.21-6.34 30.43-12.68 45.64-19.02 3.49-1.45 8.66-5.64 5.64-9.73-3.01-4.08-11.03-2.26-14.72-.72-15.21 6.34-30.43 12.68-45.64 19.02-3.49 1.45-8.66 5.64-5.64 9.73 3.01 4.08 11.03 2.25 14.72.72z"/><path class="st0" d="M838.43 124.62c38.46-8.01 76.05-18.57 113.17-31.42 14.49-5.02 1.37-13.21-8.87-9.66-35.16 12.17-71 21.85-107.42 29.43-13.54 2.81-10.26 14.43 3.12 11.65z"/><path class="st0" d="M769.63 146.18c64.15-16.75 128.99-29.22 194.75-37.56 9.76-1.24 19.03-12.02 3.58-10.06-67.79 8.6-134.59 21.56-200.69 38.82-12.99 3.38-10.77 12.22 2.36 8.8z"/><path class="st0" d="M777.89 160.85c16.84-2.18 33.52-1.7 50.02 1.43 3.83-3.51 7.66-7.02 11.49-10.52-19.08-.44-33.92 2.43-51.75 8.91-9.4 3.41-7.6 10.37 2.28 8.53 18.57-3.47 36.13-8.4 53.72-15.32-3.55-1.94-7.11-3.87-10.66-5.81-9.38 5.98-19.39 10.43-30.05 13.35-9.53 3.17-7.51 10.49 2.28 8.53 4.61-.92 9.22-1.85 13.82-2.77l-6.84-6.09c-10.58 9.34-9.52 7.99-18.17 19.14-4.84 6.25 8.97 4.63 11.3 4.1 9.13-2.07 18.27-4.14 27.4-6.2l-7.77-6.75c-21.68 12.54-43.37 25.09-65.05 37.63-2.09 1.21-7.46 5.54-2.33 7.11 13.04 3.98 24.04 4.06-11.59 17.31-1.58.59-11.57 6.69-4.85 8.26 11.57-1.29 15.05 3.26 10.44 13.65-2.29 1.75-3.61 4.47-.29 5.82 11.11 4.52 14 4.27 25.99 2.7 2.87-.38 12.46-2.69 12.73-6.72 2.55-37.77 5.05-79.71 27.46-111.72 24.82-35.44 69.49-45.4 101.99-72.14 7.68-6.32-5.85-6.69-9.82-5.46-12.26 3.81-80.59 29.2-52.74-2.54 5.26-5.99-9.26-4.6-11.3-4.1-17.61 4.25-28.27 10-40.88 22.95-6.04 6.21 12.18 4.05 14.19 3.16 8.16-3.61 16.32-7.21 24.48-10.82 14.37-6.35.97-10.19-8.14-6.96-40.16 14.25-72.62 36.96-99.04 70.52-4.89 6.22 9.01 4.63 11.3 4.1 29.82-6.85 59.19-15.15 87.86-25.87 33.14-12.38 75.58-42.56 110.1-43.32 3.03-3.54 6.05-7.08 9.08-10.62-41.05 3.54-82.74 5.3-123.58 10.79-19.69 2.65-36.19 7.37-49.9 22.27-6.09 6.62 12.45 3.74 14.19 3.16 50.13-16.7 101.09-26.5 153.82-29.89 3.03-3.54 6.05-7.08 9.08-10.62-92.11 6.3-169.64 52.04-245.17 101.65-9.64 6.33 12.42 5.26 17.26 2.08 67.03-44.02 136.73-87.49 218.83-93.11 6.87-.47 23.71-11.56 9.08-10.62-58.76 3.78-115.17 14.94-171.04 33.55 4.73 1.05 9.46 2.11 14.19 3.16 16.38-17.8 56.92-14.28 78.95-16.19 21.74-1.88 43.48-3.75 65.23-5.63 6.48-.56 24.11-10.95 9.08-10.62-26.11.57-45.63 10.27-68.92 21.62-45.05 21.95-91.66 38.12-140.49 49.34 3.77 1.37 7.53 2.74 11.3 4.1 23.27-29.55 51.31-50.28 86.95-62.93-2.71-2.32-5.43-4.64-8.14-6.96-8.16 3.61-16.32 7.21-24.48 10.82 4.73 1.05 9.46 2.11 14.19 3.16 7.67-4.49 15.35-8.98 23.02-13.47-3.77-1.37-7.53-2.74-11.3-4.1-7.31 8.34-14.34 15.33-19.15 25.27-.31.92-.1 1.71.63 2.35 21.23 19.1 71.82-10.03 93.86-16.87-3.27-1.82-6.54-3.64-9.82-5.46-32.32 26.59-76.44 36.21-102.47 70.65-25.49 33.71-28.86 77.95-31.6 118.64 4.24-2.24 8.49-4.48 12.73-6.72-10.45 1.37.94-9.26 1.83-10.52 1.34-1.89 1.19-3.61-1.2-4.46-7.25-3.09-14.75-5.3-22.52-6.65-1.62 2.75-3.23 5.51-4.85 8.26 16.08-5.98 27.29-13.38 38.44-26.42 2.3-2.69-.41-4.71-3.16-4.9-11.84-.81 12.8-12.26 16.19-14.22 10.84-6.27 21.68-12.54 32.52-18.82 10.66-6.17-1.63-8.14-7.77-6.75-9.13 2.07-18.27 4.14-27.4 6.2 3.77 1.37 7.53 2.74 11.3 4.1 5.07-5.48 10.14-10.95 15.2-16.43 6.04-5.34-2.12-7.03-6.84-6.09-4.61.92-9.22 1.85-13.82 2.77.76 2.84 1.52 5.69 2.29 8.53 12.58-4.19 23.61-9.14 35.08-15.65 12.12-6.88-4.8-8.11-10.66-5.81a169.703 169.703 0 0 1-42 12.18c.76 2.84 1.52 5.69 2.29 8.53 11.51-1.75 23.02-3.5 34.52-5.25 4.65.11 23.29-8.81 11.49-10.52-20.66-3-39.64-3.14-60.36-1.1-9.86 1-19.01 11.65-3.56 10.13z"/><path class="st0" d="M886.76 160.99c16.89-5.79 34.39-8.93 52.22-9.65 4.02-.16 12.83-1.4 14.58-5.88 1.68-4.27-1.4-6.15-5.84-5.97-23.91.96-46.87 5.41-69.48 13.17-3.17 1.09-8.6 4.59-6 8.38 2.6 3.78 11.48.99 14.52-.05zM782.67 218.24c48.1-4.41 95.93-10.55 143.59-18.44 8.96-1.48 19.51-11.06 4-8.5-45.84 7.59-91.86 13.5-138.13 17.75-5.99.56-23.86 10.52-9.46 9.19z"/><path class="st0" d="M804.97 216.13c57.03-7.75 114.06-15.5 171.08-23.26 10.84-1.47 18.1-14.82 2.86-12.75-57.03 7.75-114.06 15.5-171.08 23.26-10.84 1.47-18.1 14.82-2.86 12.75zM813.25 230.35c45.71.71 91.32-.56 136.91-3.8 6.61-.47 23.75-11.18 9.21-10.14-45.6 3.24-91.21 4.51-136.91 3.8-6.82-.11-23.87 9.91-9.21 10.14zM825.89 244.88c22.82 1.27 45.64 2.54 68.46 3.8 4.12.23 12.7-.89 15.59-4.18 2.28-2.59 4.05-4.31-1.23-4.6-22.82-1.27-45.64-2.54-68.46-3.8-4.12-.23-12.7.89-15.59 4.18-2.29 2.59-4.06 4.31 1.23 4.6z"/><path class="st1" d="M862.93 257.87c4.73 0 11.81-1.61 14.58-5.9 2.76-4.27-2.36-6.03-5.85-6.03-4.73 0-11.81 1.61-14.58 5.9-2.76 4.27 2.35 6.03 5.85 6.03z"/><path class="st0" d="M871.53 268.23c22.82 1.26 45.64 2.53 68.46 3.79 4.15.23 12.69-.83 15.59-4.18 2.26-2.61 4.04-4.5-1.29-4.8-22.82-1.26-45.64-2.53-68.46-3.79-4.15-.23-12.69.83-15.59 4.18-2.25 2.62-4.04 4.51 1.29 4.8z"/><path class="st0" d="M923.95 277.54h87.47c8.77 0 23.22-13.24 8.38-13.24h-87.47c-8.77 0-23.22 13.24-8.38 13.24z"/><path class="st1" d="M950.33 253.81c4.67 0 11.8-1.65 14.61-5.79 2.85-4.21-2.45-5.63-5.75-5.63-4.67 0-11.8 1.65-14.61 5.79-2.84 4.21 2.46 5.63 5.75 5.63zM938.7 199.58c4.98 0 11.57-3.87 12.05-9.24.53-5.85-5.72-7.82-10.35-7.82-4.98 0-11.57 3.87-12.05 9.24-.53 5.86 5.73 7.82 10.35 7.82zM950.15 180.86c4.39 0 11.94-1.72 14.69-5.51 2.91-4.01-2.55-4.54-5.45-4.54-4.39 0-11.94 1.72-14.69 5.51-2.91 4.02 2.55 4.54 5.45 4.54zM977.07 143.94c4.77 0 11.82-1.58 14.56-5.97 2.69-4.32-2.3-6.3-5.92-6.3-4.77 0-11.82 1.58-14.56 5.97-2.7 4.32 2.3 6.3 5.92 6.3z"/><path class="st0" d="M957.48 141.65c30.43-2.54 60.85-5.07 91.28-7.61 12.05-1 17.28-16.56 2.18-15.3-30.43 2.54-60.85 5.07-91.28 7.61-12.06 1.01-17.28 16.56-2.18 15.3zM972.96 119.99c30.43-1.27 60.85-2.54 91.28-3.8 6.61-.28 23.84-10.62 9.24-10.01-30.43 1.27-60.85 2.54-91.28 3.8-6.61.28-23.83 10.62-9.24 10.01z"/><path class="st0" d="M980.54 112.29c12.68-1.27 25.35-2.54 38.03-3.8 4.35-.43 12-1.45 14.7-5.46 2.57-3.83-2.24-4.67-5.4-4.35-12.68 1.27-25.35 2.54-38.03 3.8-4.35.43-12 1.45-14.7 5.46-2.57 3.83 2.23 4.66 5.4 4.35z"/><path class="st1" d="M984.5 93.86c4.62 0 11.78-1.68 14.63-5.7 2.93-4.14-2.54-5.28-5.65-5.28-4.62 0-11.78 1.68-14.63 5.7-2.93 4.13 2.54 5.28 5.65 5.28zM976.55 69.61c4.71 0 11.58-3.62 12.18-8.77.67-5.72-5.95-6.98-10.12-6.98-4.71 0-11.58 3.62-12.18 8.77-.67 5.73 5.95 6.98 10.12 6.98z"/><path class="st0" d="M1006.55 45.19c16.48-2.54 32.96-5.07 49.44-7.61 3.89-.6 11.87-2.7 12.49-7.6.62-4.88-6.26-5.44-9.57-4.93-16.48 2.54-32.96 5.07-49.44 7.61-3.89.6-11.87 2.7-12.49 7.6-.62 4.88 6.26 5.44 9.57 4.93z"/><path class="st0" d="M857.94 58.22c33.89-6.79 67.93-12.59 102.22-16.97 35.5-4.53 79.28-13.16 114.32-4.45 8.72 2.17 26.06-10.72 12.96-13.97-35.91-8.92-73.54-2.56-109.87 1.66-41.4 4.8-82.48 11.69-123.34 19.88-13.78 2.76-9.86 16.57 3.71 13.85z"/><path class="st0" d="M857.71 57.17c64.71-12.33 129.86-18.57 195.74-18.78 9.62-.03 22.86-14.62 8.02-14.58-69.92.22-138.67 6.84-207.35 19.93-13.79 2.63-9.94 16.01 3.59 13.43z"/><path class="st0" d="M862.22 57.69c58.57-6.58 117.06-8.13 175.89-4.68 9.12.54 23.18-12.68 8.29-13.55-60.72-3.56-121.04-1.94-181.49 4.86-11.19 1.25-17.9 15.08-2.69 13.37zM894.42 77.83c54 3.86 107.99 5.07 162.12 3.78 6.23-.15 23.97-9.65 9.43-9.3-52.54 1.25-104.94-.08-157.35-3.83-5.01-.36-25.22 8.56-14.2 9.35zM36.27 365.31c.07-5.51.15-11.01.22-16.52.16-12.28-20.64-8.71-22.4 1.43-21.37 123.57 73.49 214.42 155.22 291.65 42.93 40.57 80.04 99.09 134.52 124.84 57.86 27.36 128.14 38.55 190.44 51-.43-5.12-.87-10.25-1.3-15.37-52.38 21.65-107.15 19.91-158.7-2.88-3.33 5.39-6.65 10.79-9.98 16.18 51.48 2.09 102.31 0 153.4-6.8 9.1-1.21 18.88-16.41 4.56-16.94-44.26-1.65-88.3-5.03-132.29-10.17-9-1.05-22.11 10.02-9.98 16.18 50.12 25.45 102.32 37.23 158.47 36.86 8.1-.05 18.28-12 7.13-16.29-35.07-13.49-70.71-23.16-107.75-29.34-11.36-1.89-22.14 14.17-7.41 16.84 17.34 3.14 30.12 2.36 46.94-2.63 13.52-4.01 9.36-20.1-4.3-16.05-11.74.61-23.48 1.23-35.23 1.84-2.47 5.61-4.94 11.23-7.41 16.84 35.44 5.91 69.13 15.14 102.61 28.02 2.38-5.43 4.75-10.86 7.13-16.29-52.27.35-101.13-11.72-147.64-35.34-3.33 5.39-6.65 10.79-9.98 16.18 43.99 5.14 88.03 8.53 132.29 10.17 1.52-5.65 3.04-11.3 4.56-16.94-49.13 6.53-98.17 9.01-147.7 7-8.16-.33-23.06 10.4-9.98 16.18 59.21 26.17 121.64 25.9 181.25 1.26 8.49-3.51 7.51-13.61-1.3-15.37C442.32 789 378 778.52 322.42 753.77c-51.18-22.78-85.93-77.18-125.96-115.39-80.87-77.2-181.5-165.09-159.97-289.59-7.47.48-14.93.95-22.4 1.43-.07 5.51-.15 11.01-.22 16.52-.16 11.99 22.26 9.14 22.4-1.43zM39.4 336.31c43.16-12.49 86.32-24.97 129.47-37.46 12.96-3.75 10.5-13.84-2.69-10.02-43.16 12.49-86.32 24.97-129.47 37.46-12.95 3.74-10.49 13.83 2.69 10.02z"/><path class="st0" d="M23.64 347.31c54.47-22.51 110.2-40.62 167.51-54.38 12.94-3.11 11.08-10.47-1.97-7.33-59.28 14.24-116.95 32.93-173.3 56.21-14.4 5.95-.85 9.06 7.76 5.5zM38.04 364.5c75.18-26.9 151.63-48.84 229.59-66.08 13.18-2.92 10.79-11.71-2.36-8.8-79.9 17.68-158.32 40.4-235.36 67.97-14.63 5.23-1.07 10.2 8.13 6.91z"/><path class="st0" d="M42.33 393.42c75.81-35.04 153.54-64.89 233.37-89.47 13.22-4.07 9.78-17.85-3.67-13.71-81.75 25.18-161.45 55.64-239.1 91.53-13.76 6.35-1.43 16.65 9.4 11.65zM71.05 416.53c94.94-47.19 193.32-86.02 295.02-116 12.55-3.7 11.22-10.05-1.67-6.25-105.43 31.07-207.49 70.9-305.92 119.83-12.95 6.44 7.57 4.9 12.57 2.42zM74.24 461.48c105.23-47.3 211.14-93.02 317.73-137.16 13.98-5.79 1.56-16.96-9.59-12.35-106.59 44.14-212.5 89.86-317.73 137.16-13.78 6.2-1.5 17.33 9.59 12.35zM110.07 476.42c108.37-55.37 220.63-102.13 336.27-140.03 12.79-4.19 10.3-14.99-2.86-10.68a2413.678 2413.678 0 0 0-347 144.47c-13.14 6.71 6.5 9.86 13.59 6.24zM103.65 507.43c138.79-57.38 277.58-114.75 416.37-172.13 14.4-5.95.87-9.21-7.79-5.63C373.44 387.05 234.65 444.43 95.86 501.8c-14.4 5.95-.88 9.21 7.79 5.63zM108.56 545.71a10104.76 10104.76 0 0 0 348.43-140.59c13.92-5.92 1.55-17.08-9.59-12.34A10104.76 10104.76 0 0 1 98.97 533.37c-14.14 5.39-1.6 16.61 9.59 12.34zM244.52 538.76c112.79-47 225.57-94.01 338.36-141.01 14.2-5.92 1.22-12.75-8.6-8.65-112.79 47-225.57 94.01-338.36 141.01-14.2 5.91-1.22 12.74 8.6 8.65zM176.41 583.07c13.74 5.64 24.3 3.36 38.48-.71 38.75-11.12 76.8-27.9 114.59-41.92 81.8-30.36 163.36-61.38 244.71-92.92 14.63-5.67.75-7.47-7.43-4.29-59.17 22.94-118.43 45.62-177.84 67.95-29.7 11.16-59.43 22.24-89.19 33.25-22.58 8.35-80.59 40.34-102.5 31.34-5.85-2.42-22.37 6.66-20.82 7.3zM211.61 644.23c112.8-39.51 224-83.18 333.48-131.12 13.84-6.06 1.54-17.45-9.64-12.56-107.63 47.12-216.88 90.18-327.76 129.02-13.05 4.58-9.48 19.36 3.92 14.66zM219.72 667.73c41.56 10.85 82.35-15.87 119.51-31.82 63.58-27.28 126.82-55.31 189.8-83.94 14.04-6.38 1.02-11.61-8.26-7.39-43.6 19.82-87.32 39.38-131.2 58.56a9496.93 9496.93 0 0 1-58.6 25.38c-23.77 10.2-67.08 36.31-93.47 29.42-5.98-1.56-25.66 7.73-17.78 9.79zM271.63 711.1c90.86-38.3 179.94-80.36 267.31-126.06 13.08-6.84-6.49-10.08-13.62-6.34-85.73 44.85-173.18 85.99-262.33 123.57-14.17 5.95-1.24 12.99 8.64 8.83zM356.4 725.17c66.01-32.79 132.01-65.58 198.02-98.37 13.08-6.5-7.18-6.79-12.97-3.91-66.01 32.79-132.01 65.58-198.02 98.37-13.08 6.5 7.18 6.79 12.97 3.91zM445.82 720.92c24.09-12.68 48.17-25.35 72.26-38.03 13.41-7.06 1.14-15.39-8.98-10.07-24.09 12.68-48.17 25.35-72.26 38.03-13.4 7.07-1.13 15.4 8.98 10.07zM459.1 747.79l64.65-34.23c12.84-6.8-7.46-5.72-12.71-2.94l-64.65 34.23c-12.85 6.79 7.46 5.72 12.71 2.94z"/><path class="st0" d="M138.69 563.29c126.18-60.82 252.35-121.64 378.53-182.46 13.67-6.59 1.32-15.96-9.2-10.89-126.18 60.82-252.35 121.64-378.53 182.46-13.67 6.59-1.32 15.96 9.2 10.89zM102.4 524.17a8743.973 8743.973 0 0 1 309.22-126.58c14.33-5.55 1.3-13.03-8.73-9.15A8763.024 8763.024 0 0 0 93.67 515.02c-14.08 6.08-1.25 13.46 8.73 9.15zM61.57 477.3a2665.05 2665.05 0 0 1 266.46-117.37c14.31-5.39 1.42-14.17-9.02-10.24A2665.05 2665.05 0 0 0 52.55 467.06c-13.54 6.87-1.21 15.43 9.02 10.24z"/><path class="st0" d="M28.42 353.65A2908.799 2908.799 0 0 1 332.4 593.77c4.31 3.9 24.11-4.48 20.77-7.5A2907.477 2907.477 0 0 0 49.19 346.15c-5.07-3.49-23.84 5.39-20.77 7.5z"/><path class="st0" d="M32.34 401.34a3412.64 3412.64 0 0 1 400.88 271.3c8.18 6.42 27.1-5.15 16.87-13.19a3411.807 3411.807 0 0 0-400.88-271.3c-8.85-5.11-27.84 6.85-16.87 13.19zM67.97 474.33A3840.31 3840.31 0 0 1 400.9 708.64c7.18 5.65 26.77-4.66 17.12-12.25A3838.132 3838.132 0 0 0 85.09 462.08c-7.71-4.83-27.33 5.85-17.12 12.25z"/><path class="st0" d="M65.69 514.84a3738.897 3738.897 0 0 1 379.58 248.11c5.3 3.94 24.92-4.73 20.66-7.89A3737.286 3737.286 0 0 0 86.35 506.94c-5.86-3.34-24.61 5.65-20.66 7.9zM181.34 634.07a4174.523 4174.523 0 0 1 263.27 150.7c5.98 3.72 26.35-5.09 17.57-10.55a4174.523 4174.523 0 0 0-263.27-150.7c-6.24-3.28-26.51 5.86-17.57 10.55zM85.69 339.03 74.6 323.77c-6.25 3.53-12.5 7.06-18.75 10.58a4236.366 4236.366 0 0 1 406.7 232.48c7.27 4.71 27.09-5.5 17.21-11.9a4238.492 4238.492 0 0 0-406.7-232.48c-5.53-2.77-25.33 1.53-18.75 10.58l11.09 15.26c5.25 7.24 26.43-.81 20.29-9.26z"/><path class="st0" d="M85.52 336.08C219.6 377.49 319.8 480.71 441.19 546.4c8.94 4.84 27.93-7.2 16.86-13.19-122.87-66.49-224.26-170.72-359.98-212.64-10.03-3.1-25.93 11.38-12.55 15.51zM178.58 420.68c105.12 64.81 210.25 129.63 315.37 194.44 7.92 4.89 27.43-6.04 17.07-12.42-105.12-64.81-210.24-129.63-315.37-194.44-7.92-4.88-27.43 6.04-17.07 12.42z"/><path class="st0" d="M172.42 354.36a6785.027 6785.027 0 0 1 266.06 141.03c5.52 3.09 23.53-5.97 20.77-7.51a6812.038 6812.038 0 0 0-266.06-141.03c-5.71-2.86-23.34 6.23-20.77 7.51zM290.42 385.54c54.51 22.82 109.02 45.64 163.54 68.46 9.94 4.16 25.59-10.14 12.52-15.61-54.51-22.82-109.02-45.64-163.54-68.46-9.94-4.17-25.59 10.14-12.52 15.61zM210.6 317.27c111.62 33.18 219.68 75.85 323.98 127.6 6.35 3.15 26.58-6.12 17.56-10.59-105.58-52.39-215.05-95.29-328.02-128.88-6.92-2.06-25.81 8.22-13.52 11.87zM383.03 337.82c40.57 16.48 81.13 32.96 121.7 49.45 7.16 2.91 27.07-7.32 17.38-11.26-40.57-16.48-81.13-32.96-121.7-49.45-7.16-2.9-27.07 7.33-17.38 11.26zM435.02 335.55c38.03 11.41 76.06 22.82 114.1 34.23 9.75 2.92 25.97-11.17 12.64-15.17-38.03-11.41-76.06-22.82-114.1-34.23-9.75-2.92-25.97 11.17-12.64 15.17z"/><path class="st0" d="M415.65 385.36a3009.618 3009.618 0 0 1 202.14 113.13c5.63 3.44 24.46-5.49 20.69-7.8a3007.15 3007.15 0 0 0-202.14-113.13c-5.94-3.03-24.18 6.02-20.69 7.8zM204.44 348.81A4413.286 4413.286 0 0 1 508.7 512.34c6.76 3.98 26.88-5.65 17.39-11.24a4413.286 4413.286 0 0 0-304.26-163.53c-7-3.41-27.03 6.54-17.39 11.24zM168.43 404.05a3924.3 3924.3 0 0 1 384.16 216.68c5.07 3.25 23.26-5.77 20.82-7.33a3920.177 3920.177 0 0 0-384.16-216.68c-5.61-2.77-22.79 6.36-20.82 7.33zM254.27 508.89c71 45.62 142.01 91.24 213.01 136.86 8.02 5.15 27.42-5.9 17.03-12.58-71-45.62-142.01-91.24-213.01-136.86-8.02-5.15-27.42 5.9-17.03 12.58zM151.33 497.82A4370.748 4370.748 0 0 1 478.54 714.4c7.63 5.56 27.08-5.17 17.06-12.48a4370.748 4370.748 0 0 0-327.21-216.58c-8.04-4.81-27.51 6.22-17.06 12.48zM200.84 588.69c78.77 50 158.58 98.25 239.46 144.75 7.66 4.41 27.37-6.2 17.16-12.07A6386.636 6386.636 0 0 1 218 576.62c-7.5-4.76-27.22 5.69-17.16 12.07z"/><path class="st1" d="M330.69 711.24c4.93 0 11.86-1.49 14.49-6.23 2.47-4.44-2.11-7.28-6.19-7.28-4.93 0-11.86 1.49-14.49 6.23-2.46 4.43 2.12 7.28 6.19 7.28z"/><path class="st0" d="M313.07 723.53c40.57 20.28 81.13 40.57 121.7 60.85 5.86 2.93 23.82-6.13 20.72-7.68-40.57-20.28-81.13-40.57-121.7-60.85-5.86-2.93-23.81 6.13-20.72 7.68z"/><path class="st1" d="M349.44 755.88c4.68 0 11.8-1.64 14.6-5.81 2.83-4.22-2.44-5.7-5.77-5.7-4.68 0-11.8 1.64-14.6 5.81-2.83 4.21 2.44 5.7 5.77 5.7z"/><path class="st0" d="M292.07 611.76c24.09 11.41 48.17 22.82 72.26 34.23 8.15 3.86 27.67-7.32 17.1-12.32-24.09-11.41-48.17-22.82-72.26-34.23-8.15-3.86-27.67 7.31-17.1 12.32z"/><path class="st1" d="M425.76 513.41c4.91 0 11.86-1.5 14.5-6.2 2.49-4.43-2.13-7.18-6.16-7.18-4.91 0-11.86 1.5-14.5 6.2-2.49 4.42 2.12 7.18 6.16 7.18z"/><path class="st0" d="M1437.78 542.81c96.85 46.53 199.62 74.95 306.65 84.64 5.05.46 23.33-7.74 18.2-8.2-106.07-9.6-208-37.63-304.04-83.77-5.63-2.71-22.72 6.42-20.81 7.33z"/><path class="st0" d="M1467.11 560.87c127.62 69.27 267.32 108.2 412.37 114.82 5.23.24 25.25-9.24 14.09-9.74-142.74-6.51-280.19-44.7-405.77-112.86-5.84-3.18-24.26 5.84-20.69 7.78z"/><path class="st0" d="M1556.79 557c.27 19.39 33.5 20.14 46.61 22.92 35.45 7.52 71.07 14.15 106.8 20.18 76.61 12.92 153.67 22.99 230.69 33.08 7.28.95 25.9-10.71 13.4-12.35-61.63-8.07-123.26-16.13-184.69-25.65-20.05-3.11-190.45-21.86-190.77-44.08-.1-7.26-22.16-2.93-22.04 5.9z"/><path class="st0" d="M1647.88 605.09c94.02 27.51 190.05 43.88 287.88 49.09 9.57.51 23-13.46 8.1-14.25-96.14-5.12-190.47-21.21-282.87-48.25-8.23-2.41-25.99 9.64-13.11 13.41zM1682.26 568.03a3650.947 3650.947 0 0 0 288.67 44.05c6.59.74 25.76-10.15 13.62-11.51a3646.322 3646.322 0 0 1-288.67-44.05c-6.66-1.29-25.85 9.14-13.62 11.51zM1494.33 577.92c98.4 84.12 215.04 137.91 342.74 158.76 9.61 1.57 22.86-11.72 8.14-14.12-122.61-20.02-236.16-73.08-330.54-153.76-6.61-5.65-27.33 3.15-20.34 9.12z"/><path class="st0" d="M1530.9 596.5c71.84 107.89 186.41 178.2 314.81 194.72 6.22.8 25.71-9.46 13.76-11-126.24-16.24-237.57-86.2-308-191.98-3.6-5.41-25.03 1.56-20.57 8.26z"/><path class="st0" d="M1525.35 616.13c6.34 115.1 141.44 191.03 241.88 209.58 4.91.91 23.53-7.07 18.24-8.05-99.46-18.37-231.83-93.97-238.08-207.44-.17-3.08-22.34.39-22.04 5.91z"/><path class="st0" d="M1525.55 614.28c-28.62 126.61 54.96 242.18 182.16 259.8 9.86 1.37 22.84-12.45 8.04-14.5-120.48-16.69-194.49-130.21-167.99-247.44 2.19-9.7-20.22-6.65-22.21 2.14z"/><path class="st0" d="M1501.29 729.07c29.52 83.09 78.26 166.35 173.36 179.37 5.22.71 25.38-8.07 14.13-9.61-91.15-12.47-137.51-97.02-165.45-175.66-2.01-5.69-23.82.86-22.04 5.9zM1507.92 577.93c-27.16 58.96 31.33 101.07 75.28 128.14 57.96 35.71 121.31 61.33 184.24 86.76 5.73 2.32 25.83-6.46 17.8-9.71-57.48-23.23-115.4-46.46-169.07-77.78-45-26.26-114.9-68.7-86.35-130.69 2.42-5.24-18.94-3.15-21.9 3.28z"/><path class="st0" d="M1496.38 608.06c53.07 119.83 171.5 197.13 302.12 200.15 7.9.18 23.56-11.47 8.76-11.82-125.22-2.89-238.28-80.07-288.84-194.24-3.19-7.19-24.8-.31-22.04 5.91zM1544.86 591.34c111.83 66.01 235.62 104.46 365.18 113.33 5.5.38 25.39-9.31 14-10.09-127.23-8.71-248.7-46.34-358.52-111.16-5.83-3.44-24.73 5.52-20.66 7.92z"/><path class="st0" d="M1560.45 674.42c58.67 71.24 142.24 110.73 234.13 113.73 7.33.24 23.73-10.42 9-10.9-87.73-2.86-166.98-43.5-222.53-110.97-4.14-5.03-25.23 2.5-20.6 8.14zM1546.57 730.91c40.97 63.29 101.14 107.39 173.2 128.93 7.01 2.1 25.82-8.29 13.49-11.98-69.41-20.75-126.96-64.93-166.23-125.58-3.96-6.14-25.38 1.02-20.46 8.63z"/><path class="st0" d="M1642.31 748.04c56.67 28.53 116.44 46.83 179.33 55.11 9.77 1.29 22.88-12.43 8.07-14.38-59.79-7.87-116.29-25.37-170.15-52.49-7.51-3.78-27.34 6.69-17.25 11.76zM1548.7 568.71c96.97 85.35 219.67 131.01 348.79 130.28 8.4-.05 23.35-12.78 8.52-12.69-124.81.71-243.22-43.85-336.86-126.27-5.9-5.19-26.55 3.32-20.45 8.68z"/><path class="st0" d="M1556.14 914.11c21.35 6.9 36.69-.5 56.69-9.49 37.87-17.03 74.81-36.46 110.79-57.14 66.65-38.31 129.69-82.03 189.35-130.49 11.59-9.42-6.25-15.96-14.42-9.32-47.5 38.58-97.04 74.35-149.11 106.53-28.33 17.51-57.3 33.91-86.85 49.25-21.11 10.96-69.29 44.25-93.57 36.41-8.92-2.88-25.93 10.03-12.88 14.25zM1598.2 853.46c94.48-33.93 180.34-84.35 255.56-150.89 4.42-3.91-15.92-1.73-19.91 1.81-71.69 63.41-153.06 111.99-243.19 144.36-14.77 5.3-.82 7.72 7.54 4.72zM1575.3 811.81c116.98-42.05 225.53-101.95 323.61-178.29 9.68-7.53-12.25-7.21-17.53-3.1-95.39 74.25-200.85 132.15-314.6 173.04-14.52 5.22-1.22 11.85 8.52 8.35zM1640.3 744.99c65.2-29.9 127-65.64 185.5-107.12 12.17-8.63-5.7-16.63-14.67-10.27-57.02 40.43-117.12 75.03-180.65 104.16-13.69 6.28-1.55 18.44 9.82 13.23zM1581.97 729.76c9.53-28.52 85.19-59.3 110.63-72.75 31.37-16.58 63.42-31.72 95.92-45.97 13.97-6.12 1.36-14.92-9.06-10.36-44.97 19.72-88.95 41.39-131.71 65.54-28.1 15.88-76.93 33.09-87.91 65.94-2.81 8.4 19.43 5.66 22.13-2.4zM1612.27 659.53c36.76-22.82 73.53-45.64 110.29-68.46 12.65-7.85-5.84-14.25-14.33-8.98-36.76 22.82-73.53 45.64-110.29 68.46-12.64 7.85 5.84 14.25 14.33 8.98zM1540.61 650.45c47.28-27.24 94.56-54.47 141.85-81.71 9.33-5.38-12.69-3.36-16.95-.9-47.28 27.24-94.56 54.47-141.85 81.71-9.33 5.37 12.69 3.35 16.95.9zM1518.4 622.27c27.9-12.66 55.8-25.32 83.69-37.98 13.88-6.3 1.33-15.03-9.05-10.32-27.9 12.66-55.8 25.32-83.69 37.98-13.87 6.3-1.32 15.03 9.05 10.32z"/><path class="st0" d="M1485.77 575.51c56.36-5.12 112.26-4.38 168.47 2.18.65-4.98 1.31-9.96 1.96-14.94-40.07 7.65-78.43 6.02-117.83-4.42-2.5 4.98-4.99 9.96-7.49 14.94 24.78-2.45 48.31-1.64 72.8 2.33 2.59-5.15 5.19-10.3 7.78-15.45-32.28-.61-63.76-3.7-95.55-9.39-.65 4.98-1.3 9.96-1.96 14.94 9.93-3.81 20.14-5.45 30.64-4.93-1.24-4.64-2.49-9.28-3.73-13.92-14.82.95-29.64 1.9-44.46 2.84-.54 4.46-1.09 8.91-1.63 13.37 76.14-29.16 159.6 2.38 238.52-3.57 12.15-.92 17.21-16.63 2.13-15.49-84.62 6.38-168.07-24.76-250.24 6.71-5.73 2.19-9.73 11.25-1.63 13.37 23.93 6.27 44.12 4.61 66.9-4.88 10.32-4.3 6.18-14.19-3.73-13.92-13.12.35-24.19 2.2-36.63 5.99-8.51 2.59-13.64 12.85-1.96 14.94 31.78 5.69 63.26 8.79 95.55 9.39 9.74.18 23.22-12.95 7.78-15.45-26.58-4.31-51.67-5.02-78.45-2.37-6.3.62-19.64 11.72-7.49 14.94 45.18 11.97 88.7 13.22 134.55 4.47 8.84-1.69 13.42-13.61 1.96-14.94-58.13-6.78-115.85-7.51-174.13-2.22-12.1 1.09-17.21 16.85-2.13 15.48z"/><path class="st0" d="M1573.83 572.31c91.72-3.56 183.46-4.77 275.24-3.55 5.17.07 25.14-9.57 14.1-9.72-93.38-1.24-186.71-.1-280.03 3.52-6.46.25-23.89 10.31-9.31 9.75zM1734.16 601.28c20.28 1.27 40.57 2.54 60.85 3.8 9.54.6 23.02-13.25 8.12-14.18-20.28-1.27-40.57-2.54-60.85-3.8-9.54-.6-23.02 13.25-8.12 14.18zM1516.31 586.55c96.2 53.15 200.08 85.24 309.6 94.78 11.43 1 22.2-15.74 7.36-17.04-105.87-9.23-207.08-39.65-300.13-91.06-9.05-5-27.95 7.17-16.83 13.32zM1569.67 660.19a1888.745 1888.745 0 0 0 178.75 68.46c6.36 2.07 26.26-7.49 17.64-10.3a1889.788 1889.788 0 0 1-178.75-68.46c-6.19-2.73-26.37 6.44-17.64 10.3z"/><path class="st0" d="M1551.29 645.79c60.47 51.26 128.43 89.83 203.31 115.73 9.35 3.23 25.88-10.22 12.75-14.77-73.49-25.42-139.77-63.37-199.05-113.62-7.39-6.26-26.67 4.47-17.01 12.66zM1590.99 723.71c31.69 20.28 63.39 40.57 95.08 60.85 5.79 3.71 25.09-5.17 20.63-8.03-31.69-20.28-63.39-40.57-95.08-60.85-5.79-3.7-25.09 5.17-20.63 8.03zM1630.68 786.28c19.02 8.87 38.03 17.75 57.05 26.62 4.84 2.26 11.35 1.3 15.69-1.78 2.91-2.06 6.66-7.35 1.64-9.7-19.02-8.87-38.03-17.75-57.05-26.62-4.84-2.26-11.35-1.3-15.69 1.78-2.92 2.07-6.67 7.36-1.64 9.7z"/><path class="st0" d="M1554.76 966.83c67.44-3.26 132.39-16.07 195.99-38.86 9.93-3.56 12.48-18.68-1.26-16.42-61.52 10.15-123.04 20.31-184.56 30.46-12.01 1.98-17.29 17.26-1.75 16.92 113.39-2.52 211.76-47.05 296.23-121.33 75.34-66.26 162.98-140.44 184.51-243.04-7.46.49-14.93.98-22.39 1.46-17.54 103.67-130.56 186.8-215.2 237.35-78.3 46.77-174.63 65.23-243.07 127.34-7.22 6.55-2.2 13.83 6.53 13.84 67.4.04 129.74-19.59 185.54-57.26 11.35-7.66-3.52-16.7-12.39-12.27-51.96 25.96-105.61 46.61-161.57 62.15 2.37 4.95 4.75 9.9 7.12 14.85 70.2-26.47 144.36-48.7 212.09-81.12 58.95-28.22 96.43-80.52 136.85-129.83 23.04-28.11 46.13-56.18 69.11-84.33 15.7-19.24 36.7-40.8 40.79-66.55 5.58-35.06-24.08-65.16-58.82-53.03-10.76 3.76-12.16 16.45 1.26 16.42 49.74-.13 27.39 60.92 12.29 80.91-7.67 10.15-16.83 19.3-25.44 28.63-20.55 22.28-41.34 44.35-63.14 65.41-48.39 46.74-101.66 87.77-165.39 111.15-13.22 4.85-9.78 18.55 4.26 15.91 91.15-17.09 155.2-85.43 213.74-152.38l-18.6-7.08c-42.72 51.68-93.13 93.23-152.14 125.04-11.14 6.01-4.41 18.27 7.12 14.85 111.46-33.11 171.51-131.68 224.77-227.72 6.26-11.28-16.09-11.41-21.18-2.93-60.15 100.08-143.96 182.23-245.28 240.29-10.98 6.29-4.54 17.99 7.12 14.85 43.22-11.65 81.81-30.56 117.5-57.58 12.28-9.3-5.74-16.56-14.81-10.76-79.95 51.13-165.21 91.97-255.13 122.3 2.37 4.95 4.75 9.9 7.12 14.85 44.61-21.09 89.23-42.17 133.84-63.26 13.94-6.59 1.44-18.14-9.97-13.78-50.95 19.47-101.9 38.95-152.86 58.42-11.92 4.55-4.06 18.68 7.12 14.85 16.21-5.56 32.42-11.11 48.63-16.67-2.37-4.95-4.75-9.9-7.12-14.85-21.34 11.7-42.69 23.39-64.03 35.09-11.11 6.09-4.44 18.16 7.12 14.85 193.54-55.54 378.6-167.35 456.67-361.5 4.83-12-17.32-12.55-21.18-2.93-75.36 187.4-252.86 294.88-439.75 348.51 2.37 4.95 4.75 9.9 7.12 14.85 21.34-11.7 42.69-23.39 64.03-35.09 10.91-5.98 4.43-18.8-7.12-14.85-16.21 5.56-32.42 11.11-48.63 16.67 2.37 4.95 4.75 9.9 7.12 14.85 50.95-19.47 101.9-38.95 152.86-58.42-3.32-4.59-6.65-9.18-9.97-13.78-44.61 21.09-89.23 42.17-133.84 63.26-11.49 5.43-4.17 18.65 7.12 14.85 93.77-31.63 182.3-74.14 265.67-127.46l-14.81-10.76c-33.05 25.03-66.93 41.64-106.95 52.43 2.37 4.95 4.75 9.9 7.12 14.85 106.37-60.95 193.33-146.04 256.49-251.13-7.06-.98-14.12-1.96-21.18-2.93-49.14 88.6-104.4 184.01-207.85 214.74 2.37 4.95 4.75 9.9 7.12 14.85 62.08-33.46 115.84-77.39 160.77-131.74 9.05-10.95-11.77-14.89-18.6-7.08-54.81 62.68-113.89 127.52-199.4 143.55l4.26 15.91c90.34-33.15 159.98-97.09 224.96-166.15 25.85-27.47 70.65-64.25 66.12-106.97-3.06-28.83-24.26-45.88-51.91-45.81l1.26 16.42c26.22 3.03 36.44 14.16 30.65 33.4 1.15 8.66-.91 16.37-6.16 23.12-4.77 10.52-12.37 19.07-19.45 28.03-16.08 20.36-32.92 40.17-49.36 60.24-29.77 36.32-58.15 74.75-90.53 108.81-38.74 40.75-84.73 58.19-136.03 77.53-47.79 18.02-95.57 36.03-143.36 54.05-12.17 4.59-3.99 17.93 7.12 14.85 57.93-16.08 113.5-37.42 167.28-64.29l-12.39-12.27c-50.96 34.41-107.57 51.14-168.98 51.11 2.18 4.61 4.35 9.23 6.53 13.84 42.39-38.47 94.89-56.65 146.73-78.48 49.32-20.77 96.27-46.39 139.99-77.29 74.25-52.47 163.13-126.61 179.13-221.15 1.97-11.65-20.27-8.61-22.39 1.46-20.35 96.97-105.8 168.33-176.93 230.81-80.19 70.45-171.87 112.78-279.67 115.18-.58 5.64-1.17 11.28-1.75 16.92 61.52-10.15 123.04-20.31 184.56-30.46l-1.26-16.42c-61.63 22.09-124.53 34.69-189.97 37.86-12.82.57-16.8 17.6-1.81 16.87zM45.65 336.89c146.68-44.1 300.85-40.89 445.96 7.71 5.99-3.01 11.99-6.02 17.98-9.03-97.95-21.83-195.93-41.35-296.44-26.79-5.77.84-20.58 9.65-6.58 9.4 126.25-2.3 251.74 8.62 375.71 32.62 5.99-3.01 11.99-6.02 17.98-9.03-73.93-13.09-147.85-26.18-221.78-39.26-4.94-.87-25.2 7.31-17.98 9.03 132.56 31.58 265.12 63.15 397.68 94.73 5.44 1.3 24.84-7.4 17.98-9.03-132.56-31.58-265.12-63.15-397.68-94.73-5.99 3.01-11.99 6.02-17.98 9.03 73.93 13.09 147.85 26.18 221.78 39.26 5.32.94 24.79-7.72 17.98-9.03-126.85-24.56-255.18-35.66-384.37-33.3l-6.58 9.4c95.51-13.84 189.35 6.02 282.31 26.73 4.65 1.04 25.59-6.48 17.98-9.03-151.4-50.71-313.24-52.41-466.03-6.47-12.67 3.8-10.91 11.69 2.08 7.79z"/><path class="st0" d="M589.11 345.62c72.82 28.23 147.24 50.14 223.73 65.88 5.5 1.13 24.78-7.68 17.96-9.08-76.5-15.74-150.92-37.65-223.73-65.88-5.25-2.04-25.18 6.28-17.96 9.08z"/><path class="st0" d="M653.11 376c100.34 45.55 206.54 71.67 316.58 77.56 9.53.51 23.02-13.39 8.12-14.18-106.85-5.72-209.99-30.79-307.43-75.02-7.48-3.41-27.31 7.08-17.27 11.64z"/><path class="st0" d="M710.25 374.59c79.71 33.65 161.86 59.11 246.66 76.38 4.65-2.76 9.29-5.53 13.94-8.29-81.68 9-150.23-52.55-227.84-67.97-6.06 2.74-12.13 5.49-18.19 8.23 69.42 10.33 136.78 26.83 203.47 48.63 69.01 22.56 136.16 36.88 208.17 46.43 150.23 19.92 300.47 39.77 450.71 59.66 5.43-2.8 10.87-5.6 16.3-8.4-24.61-.13-49.22-.27-73.82-.4-4.8 2.86-9.61 5.71-14.41 8.57 62.19-.94 123.53 4.37 184.63 15.99 5.43-2.8 10.87-5.6 16.3-8.4-101.2 1.51-198.26-24.29-294.97-51.19-5.06-1.41-21.43 7.08-19.5 7.79 41.42 15.3 82.84 30.61 124.26 45.91 5.08-2.61 10.17-5.23 15.25-7.84-32.45 3.24-57.97-2.1-86.71-16.42-5.24-2.61-23.25 5.99-20.81 7.35 7.65 4.27 15.29 8.54 22.94 12.82 6.5-2.6 13-5.19 19.5-7.79-199.94-42.89-399.88-85.77-599.82-128.66-2.95-.63-23.44 4.26-19.5 7.79 37.84 33.96 84.24 48.55 132.67 60.63 63.22 15.77 127.32 28.22 191.57 38.97 126.16 21.11 253.4 34.75 380.56 48.08 3.87.41 24.77-6.4 18.19-8.23-175.09-48.92-354.62-77.46-536.22-85.52-3.23-.14-23 6.52-16.3 8.4 159.61 44.79 323.61 68.68 489.34 71.5 4.8-2.86 9.61-5.71 14.41-8.57-136.05 2.02-267.83-30.16-398.82-63.33-6.06 2.74-12.13 5.49-18.19 8.23 108.4 20.92 217.7 35.4 327.79 43.59 4.52.34 24.99-7.78 14.41-8.57-108.84-8.1-216.85-22.58-324.01-43.26-4.6-.89-24.21 6.71-18.19 8.23 132.24 33.49 265.29 65.69 402.6 63.66 4.23-.06 25.02-8.39 14.41-8.57-164.57-2.8-327.11-26.69-485.56-71.16-5.43 2.8-10.87 5.6-16.3 8.4 180.37 8 358.57 36.61 532.44 85.19 6.06-2.74 12.13-5.49 18.19-8.23-121.98-12.8-244.02-25.86-365.12-45.54-59.18-9.62-118.13-20.79-176.55-34.27-57.47-13.26-115.5-26.61-160.5-66.99-6.5 2.6-13 5.19-19.5 7.79 199.94 42.89 399.88 85.77 599.82 128.66 3.61.77 22.91-5.89 19.5-7.79-7.65-4.27-15.29-8.54-22.94-12.82-6.94 2.45-13.87 4.9-20.81 7.35 31.55 15.72 62.9 20.9 97.83 17.42 2.09-.21 18.83-6.52 15.25-7.84-41.42-15.3-82.84-30.61-124.26-45.91-6.5 2.6-13 5.19-19.5 7.79 97.95 27.24 196.33 53.05 298.76 51.53 3.16-.05 22.88-7.15 16.3-8.4-62.39-11.86-124.91-17.28-188.41-16.32-4.3.06-24.94 8.51-14.41 8.57 24.61.13 49.22.27 73.82.4 3.63.02 22.41-7.59 16.3-8.4-150.24-19.89-300.48-39.74-450.71-59.66-69.46-9.21-134.84-22.26-201.44-44.2-68.94-22.71-138.37-40.18-210.21-50.87-4.66-.69-24.04 7.07-18.19 8.23 81.65 16.22 149.76 77.62 236.34 68.08 1.87-.21 21.14-6.82 13.94-8.29-83.87-17.08-165.16-42.19-244.04-75.49-5.85-2.48-22.53 6.61-20.82 7.34zM37.76 325.51c253.67-88.14 529.69-27.25 789.13 1.54 3.99.44 24.61-7.59 15.81-10.23C594.02 242 294.5 190.76 50.52 307.37c-12.25 5.85 4.48 8.88 10.75 6.17 194.36-84.07 409.91-68.39 611.82-22.55 3.19.73 23.12-5.77 17.22-9.43-50.04-31.01-103.03-46.42-161.77-47.83-4.76-.11-23.37 8.06-11.41 10.83 39.93 9.27 80.04 16.23 120.76 20.97 5.78.67 25.84-8.94 13.84-10.71-185.89-27.34-374.18-16.1-555.61 32.66.83 3.08 1.65 6.16 2.48 9.24 107.2-30.98 217.54-48.51 329.19-50.43 53.28-.92 106.53 1.71 159.48 7.58 40.38 4.48 77.91 9.24 117.13-3.66 3.34-1.1 16.18-9.23 5.68-9.97-34.56-2.44-68.7-1.79-103.14 1.89-.17 3.29-.33 6.57-.5 9.86l48.75-14.97c-1.79-2.76-3.57-5.52-5.36-8.29-23.41 7.82-46.82 15.63-70.23 23.45-9.94 3.32-7.19 10.05 2.39 8.91 57.56-6.87 109.82-26.57 157.77-59.08 9.7-6.57-12.36-5.73-17.34-2.36-41.8 28.34-86.84 44.97-136.96 50.96.8 2.97 1.59 5.94 2.39 8.91 23.41-7.82 46.82-15.63 70.23-23.45 12.23-4.08 4.49-11.31-5.36-8.29l-48.75 14.97c-9.26 2.84-14 11.3-.5 9.86 31.1-3.33 61.58-3.86 92.77-1.66 1.89-3.32 3.79-6.65 5.68-9.97-53.28 17.52-117.57-.79-172.5-3.82-51.42-2.83-102.99-2.65-154.38.75-94.61 6.27-187.87 23.26-278.92 49.58-12.89 3.73-10.71 12.78 2.48 9.24 176.19-47.35 358.82-57.74 539.3-31.19 4.61-3.57 9.22-7.14 13.84-10.71-40.72-4.74-80.83-11.7-120.76-20.97-3.8 3.61-7.61 7.22-11.41 10.83 54.18 1.3 104.2 16.54 150.16 45.02 5.74-3.14 11.48-6.29 17.22-9.43-209.38-47.54-432.7-61.12-633.9 25.92 3.58 2.06 7.17 4.11 10.75 6.17 232.36-111.06 524.79-56.9 761.13 14.21l15.81-10.23c-268.58-29.8-548.61-89.41-811.22 1.84-14.66 5.07-1.12 10.57 8.24 7.32z"/><path class="st0" d="M960.1 362.15c68.73 18.56 137.46 37.11 206.2 55.67 4.47-4.08 8.95-8.16 13.42-12.25-68.25-15.3-134.07-37.28-197.81-66.06-5.15 3.85-10.3 7.7-15.46 11.55a2771.741 2771.741 0 0 1 321.73 88.46c4.47-4.08 8.95-8.16 13.42-12.25l-187.09-43.47c-7.08-1.64-26.08 8.85-13.42 12.25a4021.436 4021.436 0 0 0 348.24 77.05c6.84 1.2 26.29-9.22 13.42-12.25-57.8-13.61-115.61-27.23-173.41-40.84-6.98-1.64-26.11 8.48-13.42 12.25a4420.77 4420.77 0 0 0 302.28 78.27l10.95-12.54c-58.38-5.91-114.99-18.16-170.71-36.49-4.47 4.08-8.95 8.16-13.42 12.25 103.44 24.58 208.16 42.86 313.89 54.12 52.41 5.58 105.02 9.44 157.68 11.57 27.56 1.11 56-.55 83.38 2.86 14.4 1.79 32.7 4.15 42.17 17.06 5.92 8.07 11.29 41.25-7.48 39.22-8.72-.94-23.28 11.23-8.48 12.83 25.44 2.75 48.52-17.54 43.62-44.76-8.61-47.8-88.15-38.21-121.01-39.22-165.35-5.08-329.44-27.7-490.34-65.93-6.91-1.64-26.1 8.08-13.42 12.25 57.33 18.85 115.64 31 175.65 37.07 6.12.62 23.3-9.81 10.95-12.54a4419.264 4419.264 0 0 1-302.28-78.27c-4.47 4.08-8.95 8.16-13.42 12.25 57.8 13.61 115.61 27.23 173.41 40.84 4.47-4.08 8.95-8.16 13.42-12.25a4017.722 4017.722 0 0 1-348.24-77.05c-4.47 4.08-8.95 8.16-13.42 12.25l187.09 43.47c6.87 1.6 26.12-7.92 13.42-12.25a2769.752 2769.752 0 0 0-321.73-88.46c-4.86-1.03-25.42 7.05-15.46 11.55 65.12 29.41 132.15 51.82 201.87 67.45 7.02 1.57 26.12-8.82 13.42-12.25-68.73-18.56-137.46-37.11-206.2-55.67-7.24-1.95-25.9 8.88-13.41 12.26zM483.73 785.31c17.02-17.21 34.04-34.43 51.06-51.64 8.85-8.95-12.68-8.03-17.54-3.12-17.02 17.21-34.04 34.43-51.06 51.64-8.85 8.95 12.68 8.03 17.54 3.12z"/><path class="st0" d="M473.16 770.52c24.24-7.18 43.55-20.47 56.72-42.33-6.84-.15-13.68-.29-20.52-.44l-33.12 63.3 21.28-1.17c-.48-3.4.47-6.07 2.87-8.02-1.6 8.13 14.86 3.8 17.85 1.86 41.92-27.17 25.94-78.41 47.7-116.89 5.07-8.97-16.95-6.75-20.52-.44-18.45 32.62-6.5 88.57-40.85 110.83l17.85 1.86c2.49-12.66-10.03-17.39-20.89-16.13-16.46 1.9-23.25 14.91-26.05 29.71-1.67 8.83 18.76 3.64 21.28-1.17l33.12-63.3c4.91-9.38-16.93-6.4-20.52-.44-9.32 15.46-21.45 26.55-39.15 31.79-13.01 3.86-10.31 14.9 2.95 10.98zM665.61 427.04c-48.95 37.55-88.85 83.66-118.98 137.49-2.43 4.33 18.46 2.74 21.88-3.37 28.96-51.73 67.31-96.03 114.35-132.12 9.3-7.14-12.61-5.56-17.25-2zM1498.95 623.77c5.44 40.66 5.5 81.04.18 121.71-.35 2.71 21.16.83 22.04-5.91 5.31-40.67 5.25-81.06-.18-121.71-.59-4.35-22.82.14-22.04 5.91zM1552.1 684.63l10.98 125.54c.91 10.35 22.99 4.99 22.04-5.91l-10.98-125.54c-.9-10.35-22.99-4.99-22.04 5.91z"/><path class="st0" d="M1523.46 707.28c.29 66.86 2.21 133.13 33.47 193.79 3.89 7.55 25.32.46 22.04-5.91-31.27-60.66-33.18-126.93-33.47-193.79-.03-6.88-22.08-2.7-22.04 5.91z"/><path class="st0" d="M1499.08 760.68c-1.97 53.97 6.75 105.66 26.33 156.02 1.78 4.58 23.4-2.41 22.04-5.91-19.57-50.34-28.3-102.03-26.33-156.02.09-2.42-21.82.02-22.04 5.91z"/><path class="st1" d="M1604.17 781.15c4.85 0 11.57-3.74 12.12-9.01.6-5.79-5.83-7.41-10.23-7.41-4.85 0-11.57 3.74-12.12 9.01-.6 5.79 5.82 7.41 10.23 7.41z"/><path class="st0" d="M1521.15 597.19c2.55 28.85 13.59 55.21 32.05 77.49 5.39 6.5 26.54-1.58 20.36-9.03-17.81-21.5-27.92-46.6-30.37-74.36-.73-8.27-22.86-3.34-22.04 5.9z"/><path class="st0" d="M1516.86 544.17c-12.64-1.03-18.18.5-29.67 5.86-1.15.53-5.46 2.88-4.54 4.9 4.16 9.14 8.33 18.28 12.49 27.42 7.12-2.29 14.24-4.57 21.36-6.86-9.87-10.91-16.4-14.28-30.28-17.01-2.49-.49-23.35 2.45-20 7.51 11.83 17.85 23.67 35.7 35.5 53.55 3.47 5.24 24.32-1.19 22.04-5.91-8.78-18.18-19.12-33.35-32.77-48.2-3.28-3.57-23.49 1.8-21.36 6.86l25.56 60.78c2.48 5.9 24.04-1.01 22.04-5.91l-21.9-53.58c-7.12 2.29-14.24 4.57-21.36 6.86 8.22 11.48 16.43 22.96 24.65 34.43 6.9-2.6 13.79-5.21 20.69-7.81-23.45-28.16-46.9-56.32-70.35-84.47-6.9 2.6-13.79 5.21-20.69 7.81 31.76 23.7 63.43 49.77 84.03 84.28 8.27 13.84 14.92 28.88 18.94 44.52 1.53 5.95 3.43 55.2 3.34 55.16-5.13-2.33-25.25 5.8-17.96 9.11 35.85 16.28 42.99-26.87 39.9-52.44-7.86-64.92-58.03-111.46-107.57-148.44-4.23-3.15-25.04 2.59-20.69 7.81 23.45 28.16 46.9 56.32 70.35 84.47 3.63 4.36 24.52-2.46 20.69-7.81-8.21-11.48-16.43-22.96-24.65-34.43-2.94-4.1-23.36 1.99-21.36 6.86l21.9 53.58 22.04-5.91-25.56-60.78c-7.12 2.29-14.24 4.57-21.36 6.86 13.01 14.15 23.1 29.07 31.41 46.3l22.04-5.91c-11.83-17.85-23.67-35.7-35.5-53.55-6.67 2.5-13.33 5.01-20 7.51 12.1.89 21.29 6.13 27.54 15.71 3.3 3.65 23.58-2 21.36-6.86-2.39-9.09-7.19-16.58-14.4-22.46 5.34.42 25.38-8.89 14.1-9.81z"/><path class="st0" d="M1477.12 640.89c7.61 12.68 15.21 25.35 22.82 38.03 5.11 8.51 26.12.19 20.17-9.72-7.61-12.68-15.21-25.35-22.82-38.03-5.1-8.52-26.12-.2-20.17 9.72z"/><path class="st0" d="m1505.3 563.31-9.42-4.32c-3.18-1.46-22.77 1.19-21.42 6.64l24.66 99.93c1.1 4.45 23.21-1.16 22.04-5.91l-24.66-99.93c-7.14 2.21-14.28 4.43-21.42 6.64l9.42 4.32c5.74 2.64 22.75-6.47 20.8-7.37z"/><path class="st0" d="M1495.21 642.78c3.27 7.94 7.47 14.63 13.4 20.88 5.01 5.28 19.4 1.12 21.25-5.7 3.74-13.76 1.64-26.45-5.4-38.73-3.3-5.75-20.97-.69-21.25 5.7-1.05 23.66 10.72 44.6 31.61 55.87 4.71 2.54 19.32.24 19.77-6.8 1.39-21.84-1.05-43.03-7.72-63.9-2.58-8.08-24.53-1.99-22.04 5.91 5.83 18.5 22.87 26.34 41.23 25.23 11.16-.68 18.08-13.78 2.84-12.86-10.88.66-19.08-8.94-22.03-18.28l-22.04 5.91c6.32 19.77 8.99 39.84 7.67 60.58 6.59-2.27 13.18-4.53 19.77-6.8-17.42-9.4-27.85-27.63-26.97-47.45l-21.25 5.7c5.86 10.22 6.79 21.26 3.73 32.51l21.25-5.7c-5.15-5.43-8.92-11.04-11.78-17.98-3.31-8.02-25.07-1.44-22.04 5.91zM1580.59 627.11c17.9 3.79 35.75 5.31 54.04 4.39 4.11-.21 12.41-1.51 14.67-5.55s-1.93-4.89-5.5-4.71c-15.27.77-30.35-.31-45.32-3.48-5.12-1.08-10.9 0-15.48 2.53-1.86 1.01-7.65 5.71-2.41 6.82zM515.84 607.22c-5.23 34.9-10.47 69.8-15.7 104.71-1.48 9.88 18.44 2.85 21.31-1.04l18.54-25.14c-7.1.88-14.2 1.77-21.3 2.65 6.72 9.34 7.78 19.72 3.17 31.15-2.24 8.47 19.61 4.32 22.06-2.69 3.99-14.97 12.09-27.22 24.31-36.74-6.63-.19-13.26-.38-19.89-.56l-8.55 44.92c7.35-1.43 14.7-2.87 22.05-4.3-4.03-22.82-3.99-43.98-.01-66.65-7.35.9-14.71 1.79-22.06 2.69-.27 10.98-.54 21.96-.8 32.94-.23 9.23 18.62 4.33 21.31-1.04 13.61-27.2 18.42-53.37 14.99-83.62-.84-7.38-17.1-1.84-19.88 1.04-12.29 12.71-18.01 23.1-20.04 41.18-1.08 9.62 18.47 3.44 21.31-1.04 12.16-19.22 24.32-38.44 36.49-57.66-7.1.35-14.21.69-21.31 1.04-8.57 19.81-17.13 39.62-25.7 59.44-3.33 7.7 18.29 3.73 21.31-1.04 18.95-29.96 33.24-60.74 43.94-94.5 2.81-8.86-18.53-3.12-21.31 1.04-6.45 9.64-12.9 19.27-19.35 28.91 6.85.2 13.71.4 20.56.61 33.67-66.42 83.63-119.36 148.44-156.23 8.26-4.7 1.91-10.81-5.4-9.63-18.84 3.04-37.69 6.07-56.53 9.11 2.94 2.18 5.87 4.36 8.81 6.54 7.69-13.08 15.38-26.17 23.08-39.25 4.8-8.17-11.1-6.71-14.67-4.97-11.45 5.56-22.89 11.12-34.34 16.68 4.42 2.19 8.84 4.38 13.25 6.58 6.48-5.24 12.96-10.48 19.43-15.73l-13.74-6.78c-24.4 18.1-43.12 38.7-57.79 65.46-5.67 10.36 15.82 4.75 19.14 2.21 23.88-18.25 47.75-36.51 71.63-54.76 10.1-7.72-11.02-8.06-15.73-5.3-10.43 6.12-15.04 11.21-17.73 23.4-1.09 4.93 6.69 5.22 9.56 4.89 16.95-1.95 28.43-5.92 42.55-16.05 3.71-2.66 6.84-8.34-.15-9.48-40.16-6.5-80.32-13-120.48-19.51-2.73 4.11-5.46 8.21-8.19 12.32 24.06-1.82 48.13-3.65 72.19-5.47 4.95-.37 19.95-10.73 8.19-12.32l-65.82-8.91c-2.73 4.11-5.46 8.21-8.19 12.32l76.04-5.19c3.72-.25 18.87-7.75 10.22-11.64-34.62-15.56-71.14-6.02-94.56 23.49-2.54 3.21.83 5.57 3.56 6.39 17.93 5.35 32.77 3.6 49.58-4.12-4.42-2.19-8.84-4.38-13.25-6.58-16.92 13.81-30.59 28.63-43.08 46.52-4.94 7.08 8.64 6.62 11.8 5.96 21.71-4.58 40.29-11.58 59.93-21.75-5.97-.68-11.93-1.36-17.9-2.05l-19.59 45.27c-3.43 7.93 15.69 3.34 17.9 2.05 14.86-8.71 29.73-17.41 44.59-26.12l-17.15-3.69c-11.44 16.87-22.88 33.75-34.32 50.62-5.97 8.8 16.37 5.9 20.56.61 30.05-37.95 67.42-83.53 121.72-78.11 1.91-4.2 3.82-8.41 5.72-12.61-64.73 9.61-124.68 31.11-180.61 65.12-8.1 4.92-2.02 10.7 5.4 9.63 47.36-6.83 92.61-19.12 136.9-37.23 7.06-2.89 9.3-10.46-.14-11.04-52.55-3.2-99.52 17.16-132.61 58.14-6.53 8.09 13.98 5.86 17.15 3.69 43.37-29.72 87.46-59.56 141.99-61.43.91-4.01 1.83-8.02 2.74-12.02-99.2 20.3-219.94 53.03-246.5 165.96-2.09 8.88 18.7 3.84 21.31-1.04 25.98-48.65 58.99-90.55 100.45-127.05-6.63-.19-13.26-.38-19.89-.56-11.12 37.66-28.07 71.35-51.53 102.79 7.1-.35 14.21-.69 21.31-1.04 4.28-21.54 11.44-40.52 22.77-59.51-6.85-.2-13.71-.4-20.56-.61-19.68 34.26-39.36 68.53-59.03 102.79 7.1-.88 14.2-1.77 21.3-2.65-.91-20.47 1.22-34.08 7.03-52.8-7.35.9-14.71 1.79-22.06 2.69-3.63 18.26-7.27 36.52-10.9 54.78-1.76 8.87 18.84 4.14 21.31-1.04 11.98-25.08 23.96-50.17 35.94-75.25 4.7-9.84-17.01-6.76-20.56-.61-9.46 16.37-18.92 32.75-28.38 49.12-5.31 9.18 16.73 6.72 20.56.61 20.84-33.24 39-67.65 54.87-103.52 3.68-8.31-18.41-2.6-21.31 1.04-23.69 29.75-43.47 61.16-60.07 95.38-4.91 10.12 15.5 5.73 19.14 2.21 36.6-35.38 68.11-74.22 95.02-117.47 5.24-8.42-11.44-6.1-14.67-4.97-23.82 8.31-44.82 18.92-65.66 33.11 5.24 1.77 10.49 3.53 15.73 5.3 17.85-14.12 34.2-29.17 49.76-45.76 3.01-3.21 2.83-6.97-2.14-7.99-24.5-5.04-46.61-4.33-70.81 1.62-13.39 3.29-10.31 14.26 3.03 11.31 29.85-6.61 57.05-16.77 84.18-30.74 5.33-2.74 5.41-7.64-.15-9.48-19.77-6.53-36.19-7.47-56.59-3.86.02 3.96.03 7.93.05 11.89 16.27-5.52 32.54-11.03 48.81-16.55 9.28-3.15 13.69-13.65-.05-11.89-31.12 4-62.01 6.04-93.4 6.08-2.84 4.25-5.67 8.5-8.51 12.74 15.34-.73 51.71-5.32 62.84 5.77 16.51 16.45 4.07 18.35-11.48 33.04-26.6 25.13-53.2 50.27-79.8 75.4-2.16 2.04-3.49 5.83.11 7.31 35.49 14.61 11.19 52.13-4.63 70.96 6.85.2 13.71.4 20.56.61 7.16-9.84 14.32-19.67 21.48-29.51-7.1.35-14.21.69-21.31 1.04-9.73 27.5-19.45 54.99-29.18 82.49-2.78 7.87 15.33 3.93 17.9 2.05 5.94-4.37 11.87-8.74 17.81-13.11-5.96-.15-11.93-.29-17.89-.44 4.99 34.21-14.61 59.38-35.46 84.1l19.03-5.1c-22.35-15.64-47.48-13.33-69.54 1.52-9.98 6.71 1.1 10.98 8.39 9.04 13.34-.64 26.67-1.28 40.01-1.91 3.66-4.15 7.32-8.3 10.98-12.46-24.46-1.08-45.34-6.28-67.6-16.57-5.88-2.72-26.85 4.31-17.5 10.81 20.15 13.99 40.47 24.4 63.55 32.58 5.67 2.01 27.48-5.37 17.5-10.81-17.58-9.56-34.97-16.19-54.27-20.97-3.78-.94-23.41 3.84-16.95 10.44 21.42 21.87 45.85 32.61 76.1 35.49 4.59.44 18.97-3.98 14.48-10.72-11.48-17.22-24.71-25.49-44.85-29.73-3.63-.76-23.56 3.81-16.95 10.44 19.79 19.81 40.48 33.02 67.1 42.38 6.14 2.16 27.24-6.55 17.5-10.81-24.79-10.83-47.57-13.87-74.29-10.5-3.63.46-16.34 4.74-11.69 10.59 11.66 14.68 22.6 22.9 39.79 30.18 5.83-3.6 11.67-7.2 17.5-10.81-20.81-7.7-62.87-33.65-85.98-17.03-31.64 22.75 9.61 45.23 30.75 49.06 4.61.84 25.54-7.03 15.47-11.49-30.78-13.63-62.08-25.08-94.33-34.66-3.47-1.03-21.31 2.71-17.74 9.04 11.37 20.16 25.05 30.75 47.01 37.45 5.34 1.63 24.93-7.01 15.47-11.49-36.53-17.3-73.06-34.59-109.58-51.89-5.04-2.39-24.11 1.48-18.98 9.75 18.32 29.51 46.32 43.18 80.69 42.18 3.2-.09 20.62-4.71 14.48-10.72a789.463 789.463 0 0 0-73.91-63.89c-5.66-4.31-26.93 2.69-20.45 8.7 29.22 27.11 61.38 47.05 98.84 60.93 4.11 1.52 26.19-3.2 18.98-9.75-25.25-22.95-50.5-45.91-75.74-68.86-6.33 3.25-12.65 6.5-18.98 9.75 43.68 21.9 88.51 40.18 134.95 55.33 3.98 1.3 23.26-4.11 16.95-10.44-21.87-21.91-43.74-43.83-65.61-65.74-6.33 3.25-12.65 6.5-18.98 9.75 37.1 20.41 74.2 40.82 111.31 61.23 4.1 2.25 22.97-.98 19.77-8.36-13.23-30.51-30.79-55.88-55.04-78.82-5.54-5.24-26.52 2.53-20.45 8.7 22.73 23.11 47.27 41.38 75.85 56.61 4.49 2.39 22.14-.61 19.77-8.36-11.44-37.41-28.49-70.43-52.19-101.45-6.82 2.9-13.63 5.8-20.45 8.7 26.16 21.22 52.33 42.44 78.49 63.67 5.19 4.21 26.35-.84 20.45-8.7-19.11-25.44-38.23-50.87-57.34-76.31-6.82 2.9-13.63 5.8-20.45 8.7l74.94 61.8c5.32 4.39 26.65-1.61 20.45-8.7-26.68-30.48-53.37-60.96-80.05-91.44-6.82 2.9-13.63 5.8-20.45 8.7 16.23 17.23 32.46 34.46 48.69 51.68 4.25 4.51 23.92.43 21.25-7.3-8.78-25.4-17.56-50.81-26.35-76.21-7.08 2.43-14.16 4.87-21.25 7.3 17.27 12.93 34.55 25.86 51.82 38.79 4.57 3.42 23.63 1.38 21.25-7.3-8.95-32.54-20.83-62.9-36.35-92.86-7.08 2.43-14.16 4.87-21.25 7.3 22.35 17.53 45.39 32.37 70.73 45.32 4.56 2.33 22.02-.52 19.77-8.36-7.29-25.4-16.53-49.48-28.13-73.25-7.08 2.43-14.16 4.87-21.25 7.3 9.34 10.85 17.49 17.16 29.9 23.72 5.09 2.68 21.07-.46 19.77-8.36-3.7-22.61-10.99-41.98-22.49-61.67-6.82 2.9-13.63 5.8-20.45 8.7 10.81 10.97 20.59 18.15 34.03 25.2 4.39 2.31 19.67.14 19.78-6.75.29-18.64-2.27-33.98-9.4-51.43-6.59 2.79-13.18 5.57-19.77 8.36 9.07 6.06 18.14 12.12 27.22 18.18 5.34 3.57 17.82-.6 19.78-6.75 5.62-17.6 3.81-28.72-5.21-44.43-6.33 3.25-12.65 6.5-18.98 9.75 12.45 6.02 24.89 12.04 37.34 18.06 5.87 2.84 19.9-.39 19.77-8.36-.19-11.68-3.88-16.08-14.24-20.92-4.77-2.23-19.16-.29-19.78 6.75-1.41 15.92.8 23.58 10.55 36.13 3.9-3.53 7.8-7.06 11.69-10.59-27.77 4.46-56.7-26.73-84.21-5.77-25.34 19.31-3.74 69.62 3.41 92.74 7.08-2.43 14.16-4.87 21.25-7.3-15.49-20.16-33.2-31.38-57.5-38.08-4.49-1.24-19.67 1.88-17.74 9.04 8.9 33.13 19.63 65.27 32.41 97.1 6.59-2.79 13.18-5.57 19.77-8.36-28.08-10.21-56.16-20.41-84.24-30.62-4.69-1.71-21.89.01-19.77 8.36 7.41 29.27 21.37 51.13 45.06 70.02 6.33-3.25 12.65-6.5 18.98-9.75-21.71-12.07-43.42-24.13-65.14-36.2-4.82-2.68-24.65 2.15-18.98 9.75 20.93 28.08 43.41 54.17 68.1 79.01 6.33-3.25 12.65-6.5 18.98-9.75a1270.19 1270.19 0 0 0-81.74-45.85c-5.08-2.61-24.02 1.58-18.98 9.75 15.82 25.63 34.07 47.2 56.72 67.05 6.33-3.25 12.65-6.5 18.98-9.75-26.02-15.85-49.89-33.87-72.33-54.46-4.29-3.94-25.08.25-21.25 7.3 18.14 33.32 40.63 61.5 69.49 86.16 5.63 4.81 26.7-2.6 20.45-8.7-27.86-27.2-57.86-51.06-90.47-72.26-4.81-3.13-24.9 2.87-18.98 9.75 27.34 31.78 57.34 60.09 90.64 85.55 6.33-3.25 12.65-6.5 18.98-9.75-30.24-19.28-60.47-38.55-90.71-57.83-4.96-3.16-24.15 2.07-18.98 9.75 16.35 24.24 34.88 44.45 57.63 62.82 6.33-3.25 12.65-6.5 18.98-9.75-24.48-12.16-48.96-24.31-73.44-36.47-4.59-2.28-25.61 3.19-18.98 9.75 25.9 25.62 54.55 44.8 88.19 58.88 5.83-3.6 11.67-7.2 17.5-10.81l-106.23-44.37c-5.78-2.41-27.11 4.57-17.5 10.81 30.36 19.7 60.72 39.4 91.07 59.1 5.83-3.6 11.67-7.2 17.5-10.81-37.59-18.1-76.01-31.28-116.78-40.1-5.01-1.08-24.72 4.98-15.47 11.49 32.57 22.93 67.21 38.07 105.99 46.81 4.97 1.12 25.29-7.23 15.47-11.49-20.92-9.08-41.84-18.16-62.77-27.24-5.93-2.57-27.1 5.05-17.5 10.81 31.43 18.85 63.58 28.72 100 31.79 8.63.73 23.34-11.49 8.51-12.74-33.19-2.8-62.55-12.78-91.01-29.85-5.83 3.6-11.67 7.2-17.5 10.81 20.92 9.08 41.84 18.16 62.77 27.24 5.16-3.83 10.32-7.66 15.47-11.49-37.5-8.45-70.6-23.38-101.93-45.45-5.16 3.83-10.32 7.66-15.47 11.49 39.37 8.51 76.43 21.26 112.72 38.74 5.99 2.88 26.88-4.72 17.5-10.81-30.36-19.7-60.72-39.4-91.07-59.1-5.83 3.6-11.67 7.2-17.5 10.81l106.23 44.37c6.7 2.8 26.76-6.93 17.5-10.81-32.64-13.66-59.98-31.79-85.25-56.78-6.33 3.25-12.65 6.5-18.98 9.75 24.48 12.16 48.96 24.31 73.44 36.47 4.83 2.4 25.77-4.27 18.98-9.75-22.75-18.37-41.29-38.58-57.63-62.82-6.33 3.25-12.65 6.5-18.98 9.75 30.24 19.28 60.47 38.55 90.71 57.83 5.39 3.44 25.24-4.97 18.98-9.75-33.31-25.46-63.3-53.77-90.64-85.55-6.33 3.25-12.65 6.5-18.98 9.75 31.8 20.67 60.44 43.71 87.53 70.15 6.82-2.9 13.63-5.8 20.45-8.7-28.2-24.1-50.1-50.67-67.9-83.37-7.08 2.43-14.16 4.87-21.25 7.3 23.41 21.48 48.16 40.04 75.28 56.57 5.02 3.06 25.39-4.13 18.98-9.75-22.66-19.85-40.9-41.42-56.72-67.05-6.33 3.25-12.65 6.5-18.98 9.75a1260.66 1260.66 0 0 1 81.74 45.85c4.84 2.95 25.27-3.42 18.98-9.75-24.69-24.84-47.17-50.93-68.1-79.01-6.33 3.25-12.65 6.5-18.98 9.75 21.71 12.07 43.42 24.13 65.14 36.2 5.08 2.82 25.54-4.51 18.98-9.75-22.42-17.88-36.37-39.23-43.46-67.23-6.59 2.79-13.18 5.57-19.77 8.36 28.08 10.21 56.16 20.41 84.24 30.62 4.04 1.47 22.99-.35 19.77-8.36a855.032 855.032 0 0 1-32.41-97.1c-5.91 3.01-11.83 6.03-17.74 9.04 21.86 6.04 36.97 17.02 50.49 34.61 4 5.21 23.56.19 21.25-7.3-6.92-22.39-29.4-79.79 8.52-76.99 18.53 1.37 27.64 11.57 47.31 8.41 3.63-.58 16.32-4.63 11.69-10.59-2.98-10.04-5.96-20.08-8.93-30.12-6.59 2.25-13.19 4.5-19.78 6.75 3.24 5.34 6.47 10.68 9.71 16.02 6.59-2.79 13.18-5.57 19.77-8.36-12.45-6.02-24.89-12.04-37.34-18.06-5.21-2.52-23.79 1.38-18.98 9.75 8.42 13.05 9.62 25.86 3.6 38.42 6.59-2.25 13.19-4.5 19.78-6.75-9.07-6.06-18.14-12.12-27.22-18.18-4.16-2.78-22.7 1.2-19.77 8.36 6.95 17 9.69 28.87 9.39 48.22 6.59-2.25 13.19-4.5 19.78-6.75-12.28-5.31-22.64-13.01-31.09-23.1-5.07-5.15-25.29.41-20.45 8.7 11.29 19.32 17.33 37.1 20.9 58.88 6.59-2.79 13.18-5.57 19.77-8.36-11.15-4.73-20.14-11.93-26.96-21.61-4.17-4.84-24.61.42-21.25 7.3 11.59 23.75 20.84 47.83 28.13 73.25 6.59-2.79 13.18-5.57 19.77-8.36-24.14-12.34-46.43-26.47-67.79-43.22-4.18-3.28-25.18-.3-21.25 7.3 15.52 29.97 27.4 60.32 36.35 92.86 7.08-2.43 14.16-4.87 21.25-7.3-17.27-12.93-34.55-25.86-51.82-38.79-4.37-3.27-24.18-1.19-21.25 7.3 8.78 25.4 17.56 50.81 26.35 76.21 7.08-2.43 14.16-4.87 21.25-7.3-16.23-17.23-32.46-34.46-48.69-51.68-5.23-5.55-26.28 2.04-20.45 8.7 26.68 30.48 53.37 60.96 80.05 91.44 6.82-2.9 13.63-5.8 20.45-8.7l-74.94-61.8c-5.19-4.28-26.33.87-20.45 8.7 19.11 25.44 38.23 50.87 57.34 76.31 6.82-2.9 13.63-5.8 20.45-8.7-26.16-21.22-52.33-42.44-78.49-63.67-5.19-4.21-26.4.91-20.45 8.7 23.22 30.4 39.45 62.21 50.59 98.65 6.59-2.79 13.18-5.57 19.77-8.36-27.37-14.58-51.17-32.41-72.9-54.5-6.82 2.9-13.63 5.8-20.45 8.7 23.48 22.22 40.46 46.09 53.44 76.03 6.59-2.79 13.18-5.57 19.77-8.36-37.1-20.41-74.2-40.82-111.31-61.23-4.72-2.6-25.44 3.28-18.98 9.75 21.87 21.91 43.74 43.83 65.61 65.74l16.95-10.44c-45.06-14.7-88.53-32.73-130.89-53.97-4.67-2.34-25.71 3.63-18.98 9.75 25.25 22.95 50.5 45.91 75.74 68.86 6.33-3.25 12.65-6.5 18.98-9.75-36.24-13.43-67.47-32.46-95.89-58.82-6.82 2.9-13.63 5.8-20.45 8.7a790.743 790.743 0 0 1 73.91 63.89c4.83-3.57 9.65-7.15 14.48-10.72-30.3.88-53.25-13.16-68.75-38.13-6.33 3.25-12.65 6.5-18.98 9.75 36.53 17.3 73.06 34.59 109.58 51.89 5.16-3.83 10.32-7.66 15.47-11.49-17.93-4.58-30.73-14.98-38.41-31.18-5.91 3.01-11.83 6.03-17.74 9.04 30.91 9.18 60.8 20.25 90.27 33.3 5.16-3.83 10.32-7.66 15.47-11.49-14.18-2.57-23.23-18.58-6.85-20.57 6.54-.79 25.76 9.53 31.14 11.52 6.37 2.35 27.06-6.76 17.5-10.81-15.22-6.44-26.57-15.14-36.85-28.08-3.9 3.53-7.8 7.06-11.69 10.59 21.12-3.84 41.03-.89 59.73 8.84 5.83-3.6 11.67-7.2 17.5-10.81-25.13-8.83-45.23-21.33-64.15-40.28l-16.95 10.44c17.57 3.7 28.19 11.78 37.84 26.26 4.83-3.57 9.65-7.15 14.48-10.72-26.95-2.56-45.64-12.54-64.16-31.45l-16.95 10.44c19.3 4.77 33.26 10.38 50.21 19.6 5.83-3.6 11.67-7.2 17.5-10.81-23.12-8.19-43.44-18.61-63.55-32.58-5.83 3.6-11.67 7.2-17.5 10.81 24.78 11.46 49.31 17.3 76.59 18.5 5.8.26 23.48-10.4 10.98-12.46-20.17-3.32-36.71-2.48-56.48 2.78 2.8 3.01 5.59 6.03 8.39 9.04 15.12-8.21 27.89-7.37 38.3 2.51 5.41 3.78 15.42-.82 19.03-5.1 22.72-26.95 42.28-53.96 36.94-90.61-.95-6.55-15-2.57-17.89-.44-5.94 4.37-11.87 8.74-17.81 13.11 5.97.68 11.93 1.36 17.9 2.05 9.73-27.5 19.45-54.99 29.18-82.49 3.12-8.81-18.5-2.82-21.31 1.04-7.16 9.84-14.32 19.67-21.48 29.51-6.19 8.5 16.25 5.74 20.56.61 11.23-13.37 23.8-27.93 24.7-46.22.65-13.26-12.79-22.91-13.32-31.66-.81-13.34 25.64-30.56 35.9-40.26 22.8-21.54 45.6-43.09 68.4-64.63 2.12-2 3.53-5.89-.11-7.31-30.99-12.12-61.43-17.34-94.67-15.75-7.96.38-23.67 12.76-8.51 12.74 33.25-.04 65.96-2.11 98.97-6.35-.02-3.96-.03-7.93-.05-11.89-16.27 5.52-32.54 11.03-48.81 16.55-9.15 3.1-13.66 14.31.05 11.89 16.15-3.95 31.51-2.77 46.08 3.56l-.15-9.48c-23.65 12.18-47.61 20.49-73.46 26.22l3.03 11.31c13.58-7.64 26.03-8.15 37.35-1.52 9.26 2.26 7.91 6.32-4.04 12.18-7.05 10.31-21.34 18.81-30.88 26.35-9.69 7.67 10.71 8.72 15.73 5.3 19.23-13.09 38.83-22.93 60.7-30.56-4.89-1.66-9.78-3.31-14.67-4.97-26.14 41.99-56.6 79.85-92.19 114.26 6.38.74 12.76 1.48 19.14 2.21 16.6-34.22 36.37-65.62 60.07-95.38-7.1.35-14.21.69-21.31 1.04-15.43 34.86-33.13 67.95-53.37 100.22 6.85.2 13.71.4 20.56.61 9.46-16.37 18.92-32.75 28.38-49.12-6.85-.2-13.71-.4-20.56-.61-11.98 25.08-23.96 50.17-35.94 75.25 7.1-.35 14.21-.69 21.31-1.04 3.63-18.26 7.27-36.52 10.9-54.78 1.76-8.87-19.88-4.33-22.06 2.69-5.92 19.06-7.89 36.34-7.02 56.02.35 7.91 19.07 1.23 21.3-2.65 19.68-34.26 39.36-68.53 59.03-102.79 5.25-9.13-16.8-6.91-20.56-.61-12.07 20.22-19.64 39.54-24.26 62.8-1.94 9.77 18.51 2.71 21.31-1.04 24.3-32.55 41.54-67.15 53.03-106.09 2.66-9.02-17.28-2.87-19.89-.56-42.41 37.33-76.65 80.38-103.28 130.27 7.1-.35 14.21-.69 21.31-1.04 24.72-105.12 135.24-133.09 227.47-151.97 7.23-1.48 14.73-12.43 2.74-12.02-62.84 2.15-113.54 32.64-164.24 67.39l17.15 3.69c25.99-32.19 62.27-48.52 103.54-46-.05-3.68-.09-7.36-.14-11.04-40.84 16.7-81.51 27.8-125.18 34.09l5.4 9.63c50.82-30.91 105.07-50.69 163.93-59.43 7.37-1.1 19.9-11.19 5.72-12.61-66.14-6.61-112.85 42.32-150.79 90.24 6.85.2 13.71.4 20.56.61 11.44-16.87 22.88-33.75 34.32-50.62 6.11-9.02-14.11-5.47-17.15-3.69-14.86 8.71-29.73 17.41-44.59 26.12 5.97.68 11.93 1.36 17.9 2.05l19.59-45.27c3.5-8.08-15.81-3.13-17.9-2.05-15.5 8.71-31.9 14.45-49.22 17.22 3.93 1.99 7.86 3.97 11.8 5.96 11.6-16.63 24.6-30.55 40.24-43.31 9.28-7.57-8.81-8.61-13.25-6.58 10.9-1.88 21.8-3.75 32.69-5.63 3.41-3.88 6.81-7.76 10.22-11.64l-76.04 5.19c-5.01.34-19.91 10.73-8.19 12.32l65.82 8.91c2.73-4.11 5.46-8.21 8.19-12.32-24.06 1.82-48.13 3.65-72.19 5.47-4.96.38-19.96 10.42-8.19 12.32 40.16 6.5 80.32 13 120.48 19.51l-.15-9.48c-8.62 3.45-17.25 6.9-25.87 10.36 3.19 1.63 6.37 3.26 9.56 4.89 3.14-4.64 6.27-9.29 9.41-13.93-5.24-1.77-10.49-3.53-15.73-5.3-23.88 18.25-47.75 36.51-71.63 54.76 6.38.74 12.76 1.48 19.14 2.21 13.05-23.81 28.95-42.96 50.97-59.29 12.1-8.97-6.65-11.42-13.74-6.78-13.17 8.62-12.16 7.69-23.42 18.69-8.46 8.27 8.47 8.9 13.25 6.58 11.45-5.56 22.89-11.12 34.34-16.68-4.89-1.66-9.78-3.31-14.67-4.97-7.69 13.08-15.38 26.17-23.08 39.25-3.37 5.74 4.93 7.16 8.81 6.54 18.84-3.04 37.69-6.07 56.53-9.11l-5.4-9.63c-67.26 38.26-120.24 93.32-155.26 162.4-5 9.87 16.78 6.26 20.56.61 6.45-9.64 12.9-19.27 19.35-28.91-7.1.35-14.21.69-21.31 1.04-10.29 32.48-24.24 62.43-42.45 91.21 7.1-.35 14.21-.69 21.31-1.04 8.57-19.81 17.13-39.62 25.7-59.44 3.33-7.7-18.29-3.73-21.31 1.04-12.16 19.22-24.32 38.44-36.49 57.66 7.1-.35 14.21-.69 21.31-1.04-.01-13.35 5.22-24.91 15.71-34.68-6.63.35-13.26.7-19.88 1.04 3.28 28.96-.46 51.02-13.51 77.11 7.1-.35 14.21-.69 21.31-1.04.27-10.98.54-21.96.8-32.94.23-9.3-20.76-4.67-22.06 2.69-4.24 24.11-4.23 45.78.02 69.86 1.4 7.91 20.87 1.89 22.05-4.3l8.55-44.92c1.75-9.21-16.96-3.23-19.89-.56-13.89 12.63-22.42 25.49-28.64 43.24 7.35-.9 14.71-1.79 22.06-2.69 3.68-13.9 3.38-20.85-3.19-34.37-3.59-7.39-17.68-2.26-21.3 2.65l-18.54 25.14c7.1-.35 14.21-.69 21.31-1.04 5.23-34.9 10.47-69.8 15.7-104.71 1.4-8.67-20.82-4.9-21.97 2.78z"/><path class="st0" d="M359.33 703.56c46.9 26.55 93.84 53.03 140.82 79.43 4.22 2.37 22 .15 21.36-6.88-.97-10.59-5.74-12.78-15.75-13.26-4.11-.2-18.58 1.56-18.04 7.91-.53 6.14.99 11.73 4.57 16.75 6.01-2.64 12.03-5.27 18.04-7.91l-34.67-.87c-2.77-.07-22.14 3.14-17.36 8.88l20.47 24.61c5.79-2.96 11.57-5.92 17.36-8.88-29.56-3.98-59.13-7.97-88.69-11.95-2.86-.39-22.18 3.56-17.36 8.88 19.44 21.47 42.5 31.89 71.28 33.55 3.23.19 24.4-6.6 15.99-9.56-23.54-8.27-47.08-16.53-70.61-24.8-4.98-1.75-25.6 5.88-17.93 9.2 32.1 13.89 64.63 23.44 99.02 29.55 2.78.49 22.66-5.46 17.36-8.88-19.67-12.72-39.34-25.44-59.02-38.16-6.89 2.62-13.78 5.24-20.68 7.85 20.27 10.99 34.29 23.82 46.53 43.63 6.66-2.52 13.33-5.03 19.99-7.55-22.7-6.41-43.63-14.33-64.84-24.89-3.21-1.6-24.81 1.82-21.36 6.88 13.24 19.44 28.25 28.03 51.39 30.8 2.6.31 22.56-4.03 17.36-8.88-17.63-16.47-36.27-28.53-58.27-38.26-3.7-1.64-24.09 3.61-19.31 8.52 13.52 13.88 27.4 25.1 43.82 35.39 6.44-2.84 12.87-5.68 19.31-8.52-16.14-6.1-32.29-12.19-48.43-18.29-3.58-1.35-24.32 3.81-19.31 8.52 13.69 12.88 27.37 22.34 44.24 30.62 5.44 2.67 24.91-5.4 20.68-7.85-14.42-8.34-28.83-16.68-43.25-25.01-5.79 2.96-11.57 5.92-17.36 8.88 36.95 6.04 73.63 39.47 111.85 17.73 20.86-11.87 26.31-36.27 34.83-57.2 13.16-32.32 26.32-64.63 39.47-96.95L561 700.13c-7.49 32.52-19.03 61.54-35.9 90.33l21.83-3.54c9.47-16.8 18.34-28.46 31.31-41.93 6.15-6.39-16.15-1.84-18.63-.28-21.79 13.75-40.5 29.08-58.33 47.68 6.71-.33 13.42-.67 20.13-1 24.6-35.45 49.2-70.91 73.81-106.36 5.36-7.73-16.17-1.95-18.63-.28-10.87 7.38-9.51 5.67-15.23 17.42-2.89 5.94 18.61.11 20.98-2.27 27.17-27.27 50.26-56.98 70.17-89.86 3.16-5.22-17.39-.65-19.48.99-28.71 22.48-52.39 48.23-72.37 78.73 7.31-1.57 14.62-3.15 21.94-4.72 7.29-102.93 78.17-195.55 178.77-223.19 1.85-.51 15.19-6.32 7.88-8.66-16.41-5.24-49.92-22.51-29.11-44.91 6.01-6.47-16.06-2-18.63-.28L584.2 499.89c-9.3 6.22 9.34 5.23 12.54 3.91 45.21-18.6 84.35-44.37 118.78-79.12 6.17-6.23-14.56-2.52-16.57-1.51-41.43 20.88-78.09 47.12-111.17 79.65-5.49 5.4 16.18 2.38 20.13-1 26.87-23.03 53.75-46.06 80.62-69.08 6.35-5.44-14.42-2.58-16.57-1.51-38.98 19.44-72.34 44.54-101.6 76.84 6.71-.33 13.42-.67 20.13-1 7.27-8.14 14.54-16.27 21.8-24.41-6.99.76-13.99 1.51-20.98 2.27-14.92 53.79-37.77 103.04-69.66 148.92 6.99-.76 13.99-1.51 20.98-2.27l8.34-63.57c.89-6.81-19.89-1.66-21.83 3.54-14.14 37.9-26.7 76.2-37.74 115.11-1.91 6.75 18.69.69 20.98-2.27 15.04-19.44 25.53-39.04 32.99-62.67l-21.83 3.54c-8.84 32.54-21.45 61.69-39.12 90.41l21.83-3.54c-1.92 15.73-11.88 23.82-11.79 40.07l22.04-5.91c-1.89-11.54-4.84-16.9-12.44-25.21-3.92-4.28-19.3.94-21.25 5.7-8.43 20.51-9.44 37.05-2.98 58.69 7.12-2.29 14.24-4.59 21.36-6.88-5.1-6.3-10.21-12.6-15.31-18.9-3.43-4.23-19.85.91-21.25 5.7-4.53 15.45-4.97 24.84-1.05 41.02 1.45 5.99 18.96-.34 21.09-3.45 10.8-15.81 15.69-29.78 16.77-48.96l-22.04 5.91c4.19 15.34 8.39 30.68 12.58 46.02 1.81 6.61 19.9-.91 21.94-4.72 8.28-15.49 12.55-29.39 14.38-46.87-7.31 1.57-14.62 3.15-21.94 4.72 1.1 12 .16 23.9-2.84 35.68 7.31-1.57 14.62-3.15 21.94-4.72l3.15-53.4c.27-4.55-20.93-.73-21.94 4.72l-8.19 44.58c-1.13 6.17 20.69 2.47 21.83-3.54l4.38-22.97c-7.31 1.57-14.62 3.15-21.94 4.72-.07 3.93-.13 7.86-.2 11.8-.07 4.45 21.92 1.18 22.04-5.91.07-3.93.13-7.86.2-11.8.08-4.87-20.94-.51-21.94 4.72l-4.38 22.97 21.83-3.54 8.19-44.58c-7.31 1.57-14.62 3.15-21.94 4.72l-3.15 53.4c-.27 4.58 20.88.69 21.94-4.72 2.54-13.04 3.49-24.65 3.04-38.05-.17-4.98-21.38-.57-21.94 4.72-1.83 17.47-6.1 31.38-14.38 46.87 7.31-1.57 14.62-3.15 21.94-4.72-4.19-15.34-8.39-30.68-12.58-46.02-1.66-6.06-21.71 0-22.04 5.91.27 16.46-4.68 31.14-14.86 44.06l21.09-3.45c-4.87-12.68-4.59-25.56.84-38.65l-21.25 5.7c5.1 6.3 10.21 12.6 15.31 18.9 3.13 3.87 23.01-1.35 21.36-6.88-5.95-19.96-5.3-36.68 2.77-56.33l-21.25 5.7c7.19 6.36 10.88 14.12 11.07 23.26.91 5.58 22.08.38 22.04-5.91-.09-17.24 17-43.86-9.7-46.05-9.82-.81-21.23 5.96-22.38 15.42-.93 7.59 19.38.45 21.83-3.54 17.67-28.72 30.28-57.87 39.12-90.41 1.56-5.74-19.96-2.4-21.83 3.54-7.21 22.84-16.44 40.94-31.29 60.14 6.99-.76 13.99-1.51 20.98-2.27a1500.91 1500.91 0 0 1 37.74-115.11l-21.83 3.54-8.34 63.57c-.94 7.17 18.7 1.02 20.98-2.27 32.45-46.7 56.16-96.64 71.36-151.46 1.96-7.06-18.73-.25-20.98 2.27-7.27 8.14-14.54 16.27-21.8 24.41-5.09 5.69 16.22 3.31 20.13-1 27.54-30.41 57.74-53.49 94.47-71.81-5.52-.5-11.04-1.01-16.57-1.51-26.87 23.03-53.75 46.06-80.62 69.08 6.71-.33 13.42-.67 20.13-1 31.03-30.51 65.18-55.03 104.04-74.62-5.52-.5-11.04-1.01-16.57-1.51-31.19 31.48-65.54 54.96-106.61 71.86 4.18 1.3 8.36 2.61 12.54 3.91l137.31-91.89c-6.21-.09-12.42-.19-18.63-.28-24.52 26.39 7.68 45.56 31.3 53.11l7.88-8.66C649.82 483.81 568.61 576.7 560.52 690.98c-.44 6.22 19.98-1.74 21.94-4.72 18.81-28.7 40.61-52.45 67.66-73.63l-19.48.99c-19.55 32.29-41.9 60.66-68.47 87.33 6.99-.76 13.99-1.51 20.98-2.27 3.51-4.11 7.02-8.21 10.52-12.32-6.21-.09-12.42-.19-18.63-.28-24.6 35.45-49.2 70.91-73.81 106.36-4.97 7.16 16.72 2.55 20.13-1 16.74-17.45 34.91-32.23 55.33-45.11-6.21-.09-12.42-.19-18.63-.28-13.22 13.72-23.72 27.98-33.02 44.46-2.21 3.92 18.47 2.21 21.83-3.54 16.87-28.79 28.41-57.82 35.9-90.33 1.45-6.3-19.68-1.75-21.83 3.54-14.56 35.75-25.79 77.45-45.11 110.8-4.53 19.02-17.85 30.71-39.89 35.02a129.87 129.87 0 0 1-23.67-9.6c-14.7-6.02-25.97-10.75-41.54-13.3-2.83-.46-22.62 5.84-17.36 8.88 14.42 8.34 28.83 16.68 43.25 25.02 6.89-2.62 13.78-5.24 20.68-7.85-16.87-8.28-30.55-17.74-44.24-30.62-6.44 2.84-12.87 5.68-19.31 8.52 16.14 6.1 32.29 12.19 48.43 18.29 4.25 1.61 24.02-5.57 19.31-8.52-16.41-10.29-30.3-21.51-43.82-35.39-6.44 2.84-12.87 5.68-19.31 8.52 21.68 9.59 38.4 20.92 55.53 36.91 5.79-2.96 11.57-5.92 17.36-8.88-19.56-1.46-34.02-10.39-43.39-26.79-7.12 2.29-14.24 4.59-21.36 6.88 21.92 10.91 43.95 19.56 67.58 26.23 2.76.78 23.19-2.38 19.99-7.55-12.41-20.08-26.93-34.21-47.89-45.58-5.28-2.86-25.05 5.02-20.68 7.85 19.67 12.72 39.34 25.44 59.02 38.16 5.79-2.96 11.57-5.92 17.36-8.88-33.22-5.9-64.21-15.44-95.13-28.83-5.98 3.07-11.96 6.13-17.93 9.2 23.54 8.27 47.08 16.53 70.61 24.8 5.33-3.19 10.66-6.37 15.99-9.56-26.48-1.53-47.08-12.09-64.65-31.48-5.79 2.96-11.57 5.92-17.36 8.88 29.56 3.98 59.13 7.97 88.69 11.95 3 .4 21.97-3.34 17.36-8.88l-20.47-24.61c-5.79 2.96-11.57 5.92-17.36 8.88l34.67.87c2.57.06 20.61-2.58 18.04-7.91-3.58-5.02-5.1-10.6-4.57-16.75-6.01 2.64-12.03 5.27-18.04 7.91l7.75 9.25c7.12-2.29 14.24-4.59 21.36-6.88-46.98-26.4-93.92-52.88-140.82-79.43-5.84-3.3-24.51 5.69-20.69 7.85z"/></svg>