<svg version="1.1" id="Ebene_1" xmlns="http://www.w3.org/2000/svg" x="0" y="0" viewBox="0 0 2048 759" style="enable-background:new 0 0 2048 759" xml:space="preserve"><style>.st0{stroke:#fff;stroke-miterlimit:10}.st0,.st1{fill:#fff}</style><path class="st0" d="M1147.77 195.21c-318.5 50.91-626.47 152.43-945.29 201.56-42.8 6.6-85.9 10.7-128.73 16.91-26.56 3.86-52.75 11.26-70.38 32.68-1.41 1.72.33 2.67 1.88 2.97 368.6 69.85 755.04 35.23 1105.79-97.76 48.17-18.26 95.61-38.4 142.23-60.33 35.47-16.68 83.51-32.66 100.08-71.67.6-1.42-1.41-2.04-2.36-2.16-72.36-8.65-145-14.07-217.83-16.33-4.28-.13-13.89 6.09-5.27 6.36 48.72 1.51 97.38 4.38 145.92 8.84 9.14.84 62.98 1.19 64.29 10.93 1.04 7.79-18.33 21.66-23.65 25.48-9.33 6.7-19.86 11.79-30.1 16.9-76.68 38.28-156.09 71.21-237.12 99.07-165.2 56.8-337.99 91.92-512.23 104.49-86.87 6.27-174.16 7.07-261.11 2.11-41.75-2.38-83.43-6.06-124.95-11.05a1999.315 1999.315 0 0 1-89.27-12.79c-6.22-1.04-35.36-2.09-38.62-6.84-9.18-13.37 47.22-24.42 57.02-25.66 22.69-2.87 45.44-5.21 68.11-8.24 44.56-5.95 88.97-13.07 133.21-21.05 86.39-15.58 172.17-34.43 257.63-54.44 202.29-47.35 403.32-101.07 608.69-133.89 5.73-.93 11.06-7.53 2.06-6.09z"/><path class="st0" d="M59.3 459.6c170.08 13.69 339.62 15.99 508.81-9 163.6-24.17 323.61-68.13 480.17-120.75 88.15-29.62 175.33-62.02 262.11-95.4 8.31-3.2.87-8.94-5.42-6.51C1001.94 344.48 687.92 450.9 360.4 461.29c-98.9 3.14-197.82-2.16-296.38-10.09-5.67-.46-13.43 7.7-4.72 8.4z"/><path class="st0" d="M2.82 458.14c31.43 12.18 63.03 17.29 96.65 15.94 3.22-.13 11.53-6.57 4.71-7.52a572.426 572.426 0 0 1-71.71-14.74c-2.6 2.46-5.2 4.92-7.8 7.39l47.8 8.61c2.6-2.46 5.2-4.92 7.8-7.39l-58.22-9.21c-4.08-.65-15.49 5.58-7.8 7.39 43.43 10.2 87.43 15.58 132.04 16.1 1.09-2.57 2.17-5.15 3.26-7.72-30.44 1.62-60.5-1.69-90.68-5.31-3.8-.46-13.59 5.94-6.34 7.58 60.36 13.72 121.66 20.5 183.57 20.22 3.23-.01 14.01-5.75 6.34-7.58-34.65-8.27-69.58-14.65-104.9-19.29-3.85-.51-13.55 5.99-6.34 7.58 19.98 4.43 39.97 8.86 59.95 13.28 2.11-2.53 4.23-5.06 6.34-7.58-18.59-1.25-37.18-2.51-55.78-3.76-5.17-.35-13.65 6.65-4.89 7.78 58.12 7.49 116.5 11.13 175.11 10.9 5.15-.02 13.58-7.81 4.89-7.78-58.6.23-116.98-3.41-175.11-10.9-1.63 2.59-3.26 5.19-4.89 7.78 18.59 1.25 37.18 2.51 55.78 3.76 3.59.24 13.75-5.94 6.34-7.58-19.98-4.43-39.97-8.86-59.95-13.28-2.11 2.53-4.23 5.06-6.34 7.58 34.34 4.51 68.31 10.85 101.99 18.9 2.11-2.53 4.23-5.06 6.34-7.58-60.93.27-121.24-6.32-180.66-19.83-2.11 2.53-4.23 5.06-6.34 7.58 31.32 3.76 62.38 6.87 93.95 5.19 4.75-.25 11.33-7.62 3.26-7.72-43.67-.51-86.61-5.72-129.14-15.71-2.6 2.46-5.2 4.92-7.8 7.39l58.22 9.21c4.3.68 15.3-6.03 7.8-7.39l-47.8-8.61c-4.09-.74-15.48 5.29-7.8 7.39a572.426 572.426 0 0 0 71.71 14.74c1.57-2.51 3.14-5.01 4.71-7.52-30.42 1.22-59.74-3.81-88.09-14.79-4.12-1.61-15.78 4.33-10.18 6.5z"/><path class="st0" d="M190.12 482.94c56.79 1.12 112.64 15.3 169.59 9.92 6.59-.62 10.48-8.67 1.58-7.83-55.79 5.27-110.67-8.92-166.32-10.02-5.29-.11-13.56 7.76-4.85 7.93z"/><path class="st0" d="M205.1 486.82c68.45 10.98 137.43 12.51 206.29 4.38 6.55-.77 10.46-8.91 1.57-7.86-66.76 7.88-133.73 6.59-200.1-4.05-4.54-.74-15.21 6.33-7.76 7.53z"/><path class="st0" d="M302.44 488.35c54.59.35 108.49 11.3 162.47-1.38 7.51-1.76 6.63-5.36-.96-3.58-50.37 11.84-102.15.31-153.07-.02-2.59-.01-14.53 4.94-8.44 4.98z"/><path class="st0" d="M349.07 488.6c92.79 7.42 185.79 2.98 277.45-13.34 6.53-1.16 10.27-9.81 1.47-8.24-90.63 16.14-182.39 20.62-274.16 13.28-5.61-.45-13.47 7.61-4.76 8.3z"/><path class="st0" d="M583.26 479.54c26.93-4.27 56.21.42 83.7-2.56 27.98-3.04 55.46-8.88 82.46-16.75 7.65-2.23 6.02-8.81-1.75-6.55-28.51 8.3-57.57 14.23-87.17 16.88-24.78 2.22-51.15-2.12-75.49 1.74-6.21.99-10.66 8.66-1.75 7.24z"/><path class="st0" d="M621.94 472.77c52.2 2.88 103.81-1.85 154.68-13.88 7.79-1.84 6.1-8.11-1.68-6.27-48.69 11.51-98 15.75-147.94 13-4.83-.27-13.74 6.67-5.06 7.15z"/><path class="st0" d="M664.58 468.11c0-.08 65.96-3.94 73.93-4.96 24.56-3.16 48.65-8.63 72.34-15.75 7.5-2.26 6.21-7.77-1.46-5.46-38.86 11.69-78.72 18.18-119.35 18.27-9.09.02-39.05-5.44-38.35 11.36.13 3.35 13.07.98 12.89-3.46z"/><path class="st0" d="M682.99 467.08a967.596 967.596 0 0 0 159.14-29.58c7.74-2.12 5.97-9.01-1.84-6.87-51.08 13.99-102.96 23.61-155.65 28.9-6.45.65-10.57 8.44-1.65 7.55z"/><path class="st0" d="M798 446.92c104.36-18.24 206.88-45.65 306.24-82.43 90.47-33.49 180.26-73.67 252.24-139.37 6.44-5.88-3.76-10.23-8.55-5.86-73.58 67.16-165.98 107.45-258.63 141.02-95.39 34.57-193.74 60.35-293.66 77.82-8.17 1.45-5.64 10.22 2.36 8.82zM15.31 444.57c-2.38 3.9-3.25 7.63-2.95 12.17 4.3-1.15 8.6-2.3 12.9-3.46-2.13-4.44-5.09-7.12-10.3-6.62-3.84.37-9.93 2.7-10.06 7.26-.14 4.72 8.22 2.93 10.49 1.25 6.67-4.95 1.82-10.51-5.27-9.39-5.4.85-14.24 7.64-7.95 13.21 3.1 2.75 11.27.82 12.44-3.33.83-2.93.91-5.53.44-8.53-4.14 1.43-8.29 2.86-12.43 4.29 6.7 10.98 19.39 15.6 31.83 14.19 2.28-.26 6.95-1.65 7.3-4.47.37-2.92-3.66-3.14-5.61-2.92-9.01 1.03-17.02-4.47-21.56-11.92-2.19-3.58-13.12-.08-12.43 4.29.38 2.38.2 4.3-.46 6.62l12.44-3.33c-.16-.14-1.68-1.93-.82-2.38-1.63.56-3.25 1.11-4.88 1.67.1.01.21.03.31.04-1.17-.4-2.33-.81-3.5-1.21.67.32.8.78.38 1.39.81-.93 1.62-1.87 2.43-2.8-.24.18-.48.35-.71.53 3.5.42 6.99.83 10.49 1.25-.93.45-1.87.89-2.8 1.34l-4.82.24c1.1.62 1.82 1.55 2.17 2.79 2.14 4.46 13.22 1.46 12.9-3.46-.21-3.12.47-5.66 2.09-8.31 3.18-5.22-9.76-4.15-12.06-.4z"/><path class="st0" d="M23.63 448.52c-7.82-9.38 45.88-23.17 50.75-24.31 20.31-4.72 40.91-8.12 61.57-10.89 33.42-4.49 67.04-7.27 100.56-10.91 70.46-7.67 139.12-23.28 208.03-39.4l437.61-102.33c82.95-19.4 165.89-38.79 248.83-58.19 7.94-1.86 5.85-9.49-2.05-7.65-158.74 37.12-317.48 74.24-476.22 111.35-80.03 18.71-160.05 37.5-240.11 56.14-79.4 18.49-158.16 29.69-239.1 38.4-39.23 4.22-78.58 9.44-116.75 19.7-8.73 2.35-61.51 13.66-45.02 33.43 3.29 3.96 15.65-.85 11.9-5.34z"/><path class="st0" d="M1139.7 201.82c35.78-2.37 71.18 5.55 106.25 11.57l95.54 16.38c4.18.72 15.17-5.85 7.87-7.1l-112.15-19.23c-31.9-5.47-63.3-11.04-95.78-8.89-6.42.42-10.67 7.86-1.73 7.27zM1390.03 141.39c.71-9.1 5.29-61.1 15.87-61.41 7.9-.24 7.03 20.72 6.3 26.37-1.46 11.28-6.16 21.22-13.55 29.82-5.18 6.02 7.2 7.06 10.61 3.11 10.35-12.04 16.57-26.51 16.42-42.57-.1-10.52-2.22-26.58-14.87-28.87-10.37-1.88-17.49 6.33-21.05 14.95-7.75 18.76-11.16 39.75-12.72 59.86-.47 6.07 12.59 3.94 12.99-1.26zM1431.51 172.28c3.18-6.35 6.44-13.86 12.02-18.53 5.53-4.63 11.02-4.71 15.84-.15 1.61 1.52 2.29 3.91 4.33 4.94 3.16 1.59 15.71-.65 13.77-5.84-1.2-3.2-12.45-.2-12.84 2.77-.71 5.44-.32 9.96 1.75 15.13 1.4 3.51 14.08-.51 12.9-3.46-1.88-4.69-2.55-8.64-1.88-13.75-4.28.92-8.56 1.84-12.84 2.77.09.05.18.11.27.16 1.75-.89 3.5-1.78 5.25-2.66-.33.08-.66.15-.98.23 2.23.02 4.46.05 6.68.07-4.79-3.39-6.32-7.67-12.74-9.15-5.64-1.3-11.8-.53-17.26 1.21-13.75 4.37-20.93 16.07-27.07 28.34-1.2 2.45 11.04 1.45 12.8-2.08z"/><path class="st1" d="M1439.99 182.6c2.95 0 6.73-.54 9.12-2.44 1.69-1.35 2.02-3.03-.81-3.03-2.95 0-6.73.54-9.12 2.44-1.69 1.35-2.02 3.03.81 3.03z"/><path class="st1" d="M1439.12 184.55c7.34 0 9.92-9.39 1.16-9.39-7.35.01-9.92 9.39-1.16 9.39zM1401.56 183.44c2.57 0 7.23-.88 8.52-3.49 1.27-2.57-1.08-3.66-3.46-3.66-2.57 0-7.23.88-8.52 3.49-1.27 2.57 1.08 3.66 3.46 3.66zM1382.05 173.37c2.89 0 6.71-.76 9.12-2.44 1.81-1.26 2.04-2.38-.64-2.38-2.89 0-6.71.76-9.12 2.44-1.81 1.26-2.04 2.38.64 2.38z"/><path class="st0" d="M1372.6 176.25c-14.28 4.3-28.57 8.59-42.85 12.89-1.08.32-8.93 3.77-4.58 5.18 7.89 2.55 58 23.98 52.37-2.87-.68-3.25-6.84-10.61-6.83-10.56-1.37-4.33-.2-8.92 1.4-12.91 3.84-9.55 13.04-9.12 18.01-1.85 3.71 5.43-.5 12.45-1.36 18.08-2.01 13.05 9.23 18.3 21.09 21.39 3.29.86 14.75-4.34 10.47-5.46-6.12-1.59-13.04-3.45-16.78-9.02-3.47-5.17-2.44-5.52-1.19-11.6 1.34-6.49 3-13.06-.11-19.44-3.77-7.75-12.12-10.84-20.27-9.64-9.03 1.33-15.1 7.41-19.83 14.86-2.67 4.21-5.67 9.31-5.28 14.52.61 8.11 11.82 14.32 6.8 22.53 1.91-1.15 3.82-2.31 5.74-3.46-7.99 2.15-26.15-7.56-33.75-10.02l-4.58 5.18c14.28-4.3 28.57-8.59 42.85-12.89 7.44-2.25 6.31-7.2-1.32-4.91zM1446.9 201.08c5.19-2.23 10.39-4.45 15.58-6.68 2.24-.96 4.95-3.64 3.18-6.14-1.8-2.54-6.38-1.67-8.68-.68-5.19 2.23-10.39 4.45-15.58 6.68-2.24.96-4.95 3.64-3.18 6.14 1.79 2.54 6.38 1.66 8.68.68zM1520.72 167.71c14-2.87 27.65-4.06 41.95-3.85 2.41.03 8.55-1.2 8.94-4.51 1.63-13.83 7.02-23.57 18.14-31.97-3.88.2-7.76.41-11.63.61 1.7 5.76 3.41 11.52 5.11 17.28.99 3.34 7.02 1.74 9.02 1 7.09-2.61 9.39-6.55 17.12-7.26 8.1-.74 14.78 2.64 22.72 3.81 15.72 2.33 30.75-.4 45.51-5.84 2.43-.9 5.67-3.8 2.55-5.89-9.99-6.7-24.19-1.86-27.33 9.86-.59 2.2 2.48 2.88 3.96 2.94 7.88.31 13.99-.87 21.32-3.69 8.38-3.24.77-7.74-5.14-5.46-3.73.57-7.47 1.13-11.2 1.7l3.96 2.94c1.39-.65 2.79-1.31 4.18-1.96.85-1.96 1.7-3.93 2.55-5.89-19.17 7.07-32.52 3.86-51.25-.89-4.6-1.17-8.28-2.52-13.11-2.05-10.29 1-12.37 9.05-20.99 12.23 3.01.33 6.01.67 9.02 1-1.7-5.76-3.41-11.52-5.11-17.28-1.31-4.43-9.47-1.02-11.63.61-12.35 9.34-18.86 20.38-20.67 35.78 2.98-1.5 5.96-3.01 8.94-4.51-16.55-.24-32.49 1.37-48.7 4.69-7.91 1.61-6.04 8.2 1.77 6.6z"/><path class="st1" d="M1746.41 143.08c2.46 0 7.27-.92 8.56-3.36 1.32-2.51-1.12-3.19-3.33-3.19-2.46 0-7.27.92-8.56 3.36-1.32 2.51 1.12 3.19 3.33 3.19z"/><path class="st0" d="M1691.01 174.54c11.25-23.08 28.18-41.11 50.66-53.6-3.45.05-6.9.11-10.36.16 3.22 23 21.53 37.09 44.04 38 4.45.18 13.84-6.27 5.2-6.62-19.9-.81-33.71-16.01-36.35-34.84-.5-3.55-8.87-.66-10.36.16-24.57 13.64-43.36 33.28-55.68 58.56-1.55 3.21 10.98 2.02 12.85-1.82z"/><path class="st1" d="M1840.58 153.73c3.04 0 6.62-.56 9.12-2.44 1.77-1.34 1.94-3.16-.85-3.16-3.04 0-6.62.56-9.12 2.44-1.77 1.34-1.93 3.16.85 3.16z"/><path class="st0" d="M1852.52 115.82c14.83-3 29.66-6 44.49-8.99 1.55-.31 7.58-1.58 7.45-3.94-.14-2.47-3.41-2.39-5.36-1.99-14.83 3-29.66 6-44.49 8.99-1.55.31-7.58 1.58-7.45 3.94.14 2.47 3.42 2.39 5.36 1.99zM1957.97 76.95c6.96-.29 28.7-4.41 26.85 7.75-.38 2.51-5.49 7.14-6.54 10.26-3.75 11.15 1.07 23.12 6.44 32.78 11.61 20.88 29.93 36.24 51.61 45.82 3.4-2.15 6.81-4.29 10.21-6.44-2.58-1.14-5.17-2.28-7.75-3.42-4.01-1.77-15.74 4-10.21 6.44 2.58 1.14 5.17 2.28 7.75 3.42 4.01 1.77 15.74-3.99 10.21-6.44-18.98-8.39-35.19-21.25-46.46-38.82-6.47-10.08-12.27-22.26-8.4-34.14 2.83-8.68 9.03-11.04 7.46-20.22-.18-1.05-1.66-1.73-2.54-1.91-11.33-2.29-22.11-3.22-33.7-2.74-4.99.22-13.57 8.02-4.93 7.66z"/><path class="st0" d="M1823.5 93.98c-2.06-28.24 46.63-23.24 63.26-21.32 10.97 1.27 22.12 2.64 32.53 6.54 5.61 2.1 11.04 6.24 17.29 6.77 8.97.76 13.63-1.97 20.93-7.01 14.28-9.87 24.61-18.28 43.32-13.05 11.92 3.33 20.34 11.25 27.17 21.19 3.18 4.64 15.52-.22 11.83-5.6-12.16-17.74-31.6-28.22-53.39-26.08-10.72 1.05-19.13 5.24-28.37 10.3-10.4 5.7-3.46 10.49-23.68 8.36-5.37-.57-11.99-4.9-17.53-6.3-25.52-6.46-109.66-17.25-106.25 29.65.4 5.64 13.33 2.61 12.89-3.45zM952.87 409.33c-13.54 10.3-32.37 37.96-4.09 44.11 4.85 1.06 9.65-.33 14.48-.72 14.32-1.16 24.85-.42 38.21 5.42 14.53 6.34 27.97 6.6 43.63 6.87 21.82.38 43.77 2.93 63.41 13.08 10.3 5.33 19.7 19.76 31.7 20.68 8.96.68 18.43-7.78 23.48-14.07 7.74-9.64 7.81-37.38 18.51-42.21 8.05-3.63.89-10.31-5.65-7.36-21.14 9.54-9.11 35.89-25.51 48.36-10.58 8.04-20.98-6.44-30.13-11.6-9.5-5.36-19.74-9.03-30.34-11.54-28.4-6.72-58.28-.55-85.12-12.56-7.66-3.43-14.39-6.87-22.97-7.03-3.64-.07-7.12.7-10.68 1.22-4.4.78-8.79 1.62-13.18 2.49-11.22-13.57-10.31-23.4 2.74-29.49 6.96-5.28-3.51-9.45-8.49-5.65z"/><path class="st0" d="M1169.66 459.3c5.08 61.98 87.49 39.89 124.97 31.62 59.46-13.13 141.17-44.28 193.11 2.25 15.67 14.04 27.56 17.14 47.66 8.72 25.75-10.79 48.02-28.37 71.74-42.75 61.36-37.19 132.35-54.39 203.86-51.55 5.16.21 13.62-7.35 4.92-7.69-52.56-2.09-104.77 5.9-154.06 24.43-26.59 10-51.57 23.22-75.44 38.57-11.5 7.39-22.76 15.17-34.59 22.06-11.16 6.5-18.87 11.09-31.62 11.67-13.12.6-15.93-5.01-25.18-12.84-33.78-28.59-81.85-24.62-122.47-17.06-29.57 5.51-58.86 12.69-88.23 19.17-34.26 7.56-97.52 21.87-101.78-30.05-.36-4.52-13.31-1.72-12.89 3.45z"/><path class="st0" d="M1762.27 418.51c38.64 3.1 54.61 31.26 87.16 45.49 28.17 12.32 59.98 12.47 89.33 20.64 5.14 1.43 15.23-6.09 7.57-8.22-32.76-9.11-70.48-7.8-99.9-26.34-13.59-8.57-24.06-21.03-38.24-28.81-12.96-7.11-26.68-10.39-41.3-11.56-5.94-.47-13.34 8.1-4.62 8.8zM943.77 394.66c9.75-24.69-20.68-40.68-36.67-53.49-1.3 2.59-2.59 5.17-3.89 7.76 5.51-1.26 8.82-4.51 13.72-6.56 13.84-5.81 23.55 4.03 35.05 11.89 5 3.42 12.66 7.41 16.21 12.05 3.3 4.32 3.78 10.3 5.79 15.16 2.73 6.62 7.27 10.78 13.34 14.37 4.49 2.67 16.06-3.35 10.01-7.19-13.44-8.52-27.26-11.45-42.99-9.29-6.92.95-10.08 10.16-1.28 8.95 12.79-1.75 23.49.7 34.26 7.53l10.01-7.19c-12.65-7.51-11.16-21.98-21.36-31.66-8.84-8.39-20.84-14.85-30.98-21.54-6.91-4.55-13.12-8.48-21.55-6.81-8.72 1.72-13.94 10.03-22.47 11.97-3.37.77-7.65 4.75-3.89 7.76 12.23 9.8 42.05 25.76 34.42 45.08-2.63 6.67 10.28 6.24 12.27 1.21z"/><path class="st0" d="M943.96 406.06c2.71 1.29 5.43 2.59 8.14 3.88 2.29-2.04 4.58-4.08 6.86-6.12-35.53 3.56-71.76 10.57-105.01 24-10.96 4.43-43.62 19.49-37.39 36.26 6.47 17.41 48.74 7.84 60.06 3.68 12.4-4.56 23.54-11.61 33.98-19.6 8.14-6.23 15.72-13.11 23.5-19.76 2.52-2.15 23.74-22.65 14.88-10.28-3.4 4.74 9.53 3.76 12.01.29 2.18-3.04 4.36-6.09 6.54-9.13 1.31-1.83-.31-3.28-2.06-3.66-9.19-1.98-15.58.5-23.33 5.58-20.85 13.67-36.23 34.06-58.7 45.65-7.83 4.04-16.36 8.23-25.42 8.22-7.42 3.22-13 .92-16.75-6.9-10.15-4.53-11.04-8.83-2.67-12.91 8.01-10.63 27.95-15.08 39.98-18.79 25.64-7.91 51.94-12.8 78.61-15.48 1.46-.15 10.25-3.32 6.86-6.12-5.68-4.68-4.98-4.37-12.22-5.85-4.12-.84-15.15 5.55-7.87 7.04z"/><path class="st0" d="M949.89 425.99c-12.7 20.95-29.19 44.24-36.75 67.64-6.06 18.77 22.44 24.76 35.5 31.48 3.71 1.91 10.19.15 11.55-4.05 3.54-11 7.09-22 10.63-32.99.93-2.89 6.59-28.66 9.08-29.5.51-.17 7.59 4.25 9.52 4.36 4.04.24 6.4-1.06 9.75-3.33 7.22-4.91-3.64-7.85-8.24-4.72 3.67-2.49-8.93-7.08-10.61-7.05-3.73.06-7.39 1.97-9.86 4.55-5.87 6.11-8 22.75-10.48 30.45-4.25 13.2-8.51 26.39-12.76 39.59l11.55-4.05c-7.31-3.76-18.2-7.14-24.36-12.53-8.72-2.17-10.62-8.39-5.68-18.66 2.04-4.12 4.11-8.23 6.22-12.31 8.45-16.35 17.55-32.33 27.09-48.06 3.39-5.62-9.64-4.96-12.15-.82z"/><path class="st0" d="M1000.98 452.67c3.39-7.66 6.06-15.34 8.14-23.44.23-.9-.38-1.83-1.26-2.11-13.91-4.31-22.29 6.09-27.94 17.93-8.59 18-9.83 38.49 3.07 54.64 2.29 2.87 8.99.05 11.13-1.58 5.04-3.84 8.01-7.97 9.88-14.06l-12.88 2.61c.97 4.26 2.32 6.79 5.03 10.09 2.56 3.12 9.92-.17 11.98-2.45 9.75-10.85 25.15-39.87 7.57-51.09-8.92-5.69-25.88-.99-27.39 10.27-.71 5.3 11.37 1.26 12.86-1.76 5.17-10.53-1.22-20.03-11.71-22.81l-4.95 6.63c16.23-1.5 30.9-6.35 44.83-14.81 4.86-2.95 1.12-5.37-2.99-5-28.46 2.56-55.97 8.82-82.84 18.53-8.5 3.07-.71 6.83 4.96 4.79 24.64-8.9 49.9-14.34 75.98-16.69-1-1.67-1.99-3.33-2.99-5-11.06 6.71-22.23 10.36-35.06 11.55-2.82.26-11.52 4.89-4.95 6.63 8.97 2.38 10.11 11.32 6.85 17.94 4.29-.59 8.57-1.17 12.86-1.76 2.55 1 5.11 2 7.66 2.99.34 1.4.67 2.79 1.01 4.19 1.34 4.13-.41 10.65-1.55 14.64-2.28 7.95-6.61 14.66-12.1 20.76 3.99-.82 7.98-1.63 11.98-2.45-2.42-2.44-3.81-5.32-4.15-8.64-1-4.38-11.93-.48-12.88 2.61-.88 4.59-3.3 8.11-7.26 10.56 3.71-.53 7.42-1.05 11.13-1.58-8-10.02-10.14-21.17-8-33.81 1.51-8.9 5.91-25.35 14.63-29.57-2.55.2-5.1.39-7.65.59 4.18 1.3-4.8 20.02-5.87 22.43-1.57 3.56 11.1 2.22 12.87-1.77z"/><path class="st0" d="M947.44 432.29c-10.75 4.61-22.64 9.05-32.51 15.37-5.02 3.22-9.73 11.01-2.03 14.14 5.58 2.27 15.02-5.75 7.4-8.84.78 2.15 1.9 2.46 3.34.94a524.62 524.62 0 0 1 12.4-6.08c5.67-2.68 11.4-5.24 17.17-7.71 8.09-3.49.94-10.7-5.77-7.82zM954.65 426.44c17.1-5.97 34.52-10.77 52.29-14.35 5.43-1.1 11.13-7.47 2.16-5.66-20.1 4.05-39.78 9.43-59.14 16.19-8.61 3-.61 5.68 4.69 3.82z"/><path class="st0" d="M952.5 396.08c-2.34-.13-4.67-.26-7.01-.4-2.51-.14-13.46 4.63-7.45 7.47 17.94 8.51 36.68 13.3 56.67 12.48 15.49-.64 25.45.84 34.42 14.87 6.01 9.4 13.49 16 22.77 21.97 4.05 2.6 15.75-3.14 10.13-6.75-11.42-7.34-17.32-15.67-24.46-26.58-4.27-6.52-6.69-9.81-13.94-12.21-6.27-2.08-13.37-.35-19.7.01-19.9 1.13-37.65-1.94-55.77-10.54-2.48 2.49-4.97 4.98-7.45 7.48 2.34.13 4.67.26 7.01.4 5.51.3 13.5-7.71 4.78-8.2zM1059.4 398.51c13.63 1.11 21.23 10.96 32.66 16.34 7.83 3.69 15.39 4.42 24 4.47 25.22.16 50.63-3.4 75.45-7.54 5-.83 11.62-5.89 2.5-4.37-26.67 4.45-67.07 14.31-92.23 1.74-12.18-6.09-19.87-14.46-33.94-15.61-2.62-.22-14.61 4.47-8.44 4.97z"/><path class="st0" d="M1202.38 407.72c12.54-2.61 97.47-12.35 74.38 22.54-.83 1.25-.49 2.91.95 3.54 40.37 17.71 77.14-12.28 114.89-23.34 52.81-15.48 109.5-6.21 156.12 22.22 3.87 2.36 15.67-3.18 10.19-6.52-55.94-34.11-125.38-40.46-186.46-16.38-19.69 7.76-45.56 25.49-67.41 22.19-21.58-3.26-6.5-14.8-18.9-26.9-19.07-18.62-63.06-9.05-85.64-4.35-7.94 1.63-5.97 8.63 1.88 7zM1574.42 393.52c96.81-22.01 195.16-35.19 294.34-39.55 7.45-.33 9.82-10.21 1.04-9.82-100.36 4.42-199.91 17.87-297.86 40.14-8.09 1.84-5.56 11.06 2.48 9.23zM1100.57 489.58c43.14 16.38 86.74 32.93 132.53 40.22 46.75 7.44 93.33 2.61 139.53-6.14 106.86-20.22 211.69-43.36 319.7-15.09 3.14.82 14.53-4.2 10.53-5.24-91.86-24.05-186.39-13.99-278.18 4.96-53.72 11.09-108.12 23.82-163.35 18.48-52.14-5.04-101.64-23.97-150.23-42.42-3.03-1.16-14.65 3.67-10.53 5.23zM1699.58 474.23c35.08-2.77 68.53 15.04 99.06 30.36 29.72 14.91 58.18 32.02 85.65 50.72 4.95 3.37 16.08-3.45 9.88-7.67-30.5-20.76-62.25-39.46-95.42-55.65-31.02-15.14-62.84-30.43-98.15-27.64-7.39.6-9.8 10.58-1.02 9.88zM1075.78 490.5c-46.72-16.4-107.73-10.41-154.45 3.94-41.52 12.74-79.35 39.7-92.03 82.91-.88 2.99 11.73 1.34 12.75-2.14 11.52-39.25 43.87-65.06 82.21-76.69 42.31-12.84 98.87-17.56 140.98-2.77 3.07 1.07 14.64-3.81 10.54-5.25z"/><path class="st0" d="M831.07 573.44c-7.49-12.18-15.91-25.61-17.59-40.1-2.58-22.21 12.68-35.64 30.61-44.4 26.54-12.98 56.39-20.6 85.41-25.48 1.93-.32 8.88-2.57 7.1-6.14-12.74-25.62-55.83 3.47-71.03 12.55-33.11 19.78-59.3 49.75-64.22 88.98-.78 6.19 12.34 4.28 13.02-1.15 2.95-23.53 13.75-44.46 30.89-60.93 6.77-6.51 69.57-53.84 78.44-36 2.37-2.05 4.74-4.09 7.1-6.14-36.24 6.09-80.16 15.09-110.25 37.73-31.62 23.8-19.02 57.86-1.35 86.59 2.83 4.58 15.22-.06 11.87-5.51z"/><path class="st0" d="M820.9 446.42c-51.61-12.06-126 72.5-69.16 109.6 3.29 2.15 12.81-.07 11.46-5.3-5.85-22.73-18.43-39.89-6-63.68 11.7-22.38 35.71-33.42 57.44-43.69-1.85-2.34-3.7-4.68-5.56-7.03-25.74 13.95-113.74 83.04-64.66 115.71 11.4 7.59 27.41 4.81 31.74-8.86-.09-2.34-.68-4.6-1.77-6.77-4.41-8.11-2.11-16.84 6.89-26.17 12.14-12.29 24.36-6.72 37.96-8.03 8.44-.82 13.95-2.46 19.77-8.75 5.42-5.86-6.99-7.37-10.68-3.38-5.09 5.5-21.41 2.6-28.32 3.66-6.93 1.06-13.67 3.18-19.85 6.53-11.77 6.38-18.92 14.59-22.6 27.09-.55 1.86 1.62 4.9.77 6.51-.14.26-6.69 7.01-8.89 6.19-12.87-4.77.48-34.14 4.53-40.83 14.48-23.88 36.3-42.65 60.66-55.86 7.78-4.22.84-10.05-5.56-7.03-22.34 10.56-46.4 22.06-60.45 43.41-18.07 27.44-5.57 46.31 1.67 74.44 3.82-1.77 7.64-3.53 11.46-5.3-43.81-28.6 9.2-104.09 51.57-94.19 5.21 1.21 15.27-6.48 7.58-8.27z"/><path class="st0" d="M825.49 491.72c-14.43 9.73-31.8 18.57-44.41 30.67-7.23 6.94-10.36 19.93 1.47 24.04 3.11 1.08 14.7-3.85 10.51-5.31-5.28-1.83-6.71-8.11-4.97-12.97 2.22-6.18 9.32-9.94 14.44-13.41 10.97-7.42 21.96-14.81 32.95-22.22 5.45-3.67-7.41-2.55-9.99-.8z"/><path class="st0" d="M759.44 454.12c-27.74 6.87-52.9 22.6-68.61 46.93-17.83 27.6-.9 44.08 26.17 53.43 3.52 1.21 13.43-2.11 9.62-7.2-3.9-5.22-4.86-5.34-11.23-6.67l.63 8.51c3.15.56 6.31 1.13 9.46 1.69 2.9-2.69 5.79-5.39 8.69-8.08-16.62-4.72-26.35-21.95-29.18-38.26-4.61-26.52 17.78-30.28 36.03-40.49 7.76-4.34.9-10.52-5.72-7.63-27.6 12.08-53.55 38.02-45.6 70.81 7.29 30.02 40.25 38.91 66.55 44.8 2.93.66 10.36-2.27 8.68-6.43-16.91-41.78 35.14-55.9 65.37-59.52 5.2-.62 11.15-8.92 2.8-9.43-18.84-1.14-35.24 9.02-42.03 27.08-8.2 21.82 4.48 43.56 21.47 56.97 11.39 8.99 30.1 20.36 41.39 5.24 7.48-10.01 5.26-25.28 9.39-36.55 6.93-18.89 21.6-32.77 41.26-37.41 8.05-1.9 5.63-10.75-2.37-8.86-25.79 6.09-46.07 25.31-53.25 51.04-1.77 6.36-.79 16.11-4 21.78-6.28 11.05-19.22.41-26.6-6.53-8.53-8.03-14.63-17.23-16.19-29.09-2.05-15.56 8.26-35.38 26.47-34.27.93-3.14 1.87-6.29 2.8-9.43-35.36 4.24-99.54 22.72-79.41 72.44 2.89-2.14 5.79-4.28 8.68-6.43-20.35-4.56-44.63-10.44-54.79-30.63-14.86-29.54 9.17-56.62 35.1-67.97-1.91-2.54-3.81-5.08-5.72-7.63-18.22 10.19-45.97 16.66-44.73 42.59 1.05 21.9 14.38 46.3 36.15 52.49 3.99 1.13 14.85-3.55 8.69-8.08-8.23-6.05-16.05-6.01-25.12-1.86-4.79 2.2-4.59 7.42.63 8.51 1.29.99 2.59 1.98 3.88 2.96 3.21-2.4 6.42-4.8 9.62-7.2-9.95-3.44-25.63-8.56-28.67-20.68-2.57-10.28 8.54-24.99 14.62-31.8 13.8-15.46 31.37-25.35 51.42-30.31 8.04-1.96 5.65-10.81-2.35-8.83z"/><path class="st0" d="M851.26 558.98c32.3-19.82 66.97-34.94 103.88-43.83 19.28-4.64 38.73-5.31 58.08-8.79 4.91-.88 8.39-1.22 12.3-4.6.6-.52 1.64-1.38 1.4-2.34-8.46-32.97-76.69-.67-92.19 8.84-23.33 14.31-84.04 71.74-34.05 91.83 3.29 1.32 15.04-3.75 10.43-5.61-40.16-16.14 3.08-63.07 21.9-77.05 15.53-11.54 35.93-22.22 55.46-24.31 5.74-.61 23.72-1.62 21.5 7.65-.17.71-17.88 1.96-20.12 2.28-52.01 7.31-101.6 25.76-146.3 53.18-7.35 4.51 4.14 4.94 7.71 2.75z"/><path class="st0" d="M905.14 501.29c-47.43 18.53-12.8 82.58 17.72 99.27 3.4-2.15 6.8-4.31 10.2-6.46-17.38-7.01-31.26-28.86-34.96-47.02-6.8-33.4 41.78-47.62 66.48-50.78l-5.64-3.03c-3.72 13.66-38.58 26.55-49.07 38.27-12.94 14.47-19.88 32.01-21.34 51.25-.42 5.49 12.57 3.11 12.93-1.5 1.96-25.61 16.31-45.53 37.48-59.5 18.42-12.16 53.22-29.48 75.76-26.59 1.09-2.54 2.19-5.09 3.28-7.63-39.04 6.07-77.27 24-102.68 55.08-21.09 25.8-27.91 71.08 10.24 85.04 2.68.98 11.57.45 11.57-3.98-.01-9.75-2.48-18.45-3.84-28-3.13-22.01 8.63-34.82 26.5-45.82 28.75-17.7 61.01-26.67 94.69-27.29 5.06-.09 13.58-7.86 4.91-7.7-35.75.66-70.22 9.24-101.4 27.01-12.39 7.06-28.32 16.34-35.09 29.61-8.84 17.32 1.27 35.65 1.29 53.69 3.86-1.33 7.71-2.65 11.57-3.98-35.01-12.81-27.86-53.67-9.02-76.96 22.12-27.35 55.24-43.78 89.6-49.12 4.47-.7 11.55-6.57 3.28-7.63-26.36-3.37-59.97 13.25-82.22 26.09-25.99 15.01-46.5 38.31-48.86 69.2l12.93-1.5c2.1-27.72 16.55-51.96 41.73-64.8 12.4-6.32 24.69-10.11 28.67-24.73.79-2.9-4.02-3.24-5.64-3.03-25.8 3.3-65.11 14.17-78.74 39.23-12.89 23.69 12.89 63.53 35.37 72.6 3.59 1.45 16.05-3.26 10.2-6.46-15.45-8.45-27.01-20.53-33.28-37.24-5.54-14.76-9.03-42.19 10.57-49.84 8.37-3.28.82-8.1-5.19-5.75z"/><path class="st0" d="M912.06 576.48c.06-4.52-.78-8.87-2.53-13.04-1.89-6.2-14.56-2.83-12.9 3.46 5.78 21.92 11.19 56.66 35.53 65.79 3.7 1.39 7.95-.35 9.87-3.66 13.73-23.73-5.71-50.63 22.43-68.24 27.48-17.2 58.38-33.46 91.7-30.43 6.46.59 13.15-8.33 4.34-9.84-24.64-4.22-50.03 3.37-66.85 22.39-15.81 17.88-20.93 44.68-2.17 62.06 3.11 2.88 9.58.52 11.14-2.98 3.14-7.07 2.83-5.29 2.86-13.03.02-7.01-13.08-5.32-13.1.84l-2.16 10.44c3.71-.99 7.42-1.99 11.14-2.98-15.92-14.74-8.36-38.52 4.94-51.71 13.57-13.45 31.14-18.4 49.86-15.19 1.45-3.28 2.89-6.56 4.34-9.84-37.43-3.4-70.72 13.05-101.89 32.15-9.61 5.89-18.82 11.97-22.86 23-6.25 17.06 3.38 35.2-6.12 51.62l9.87-3.66c-20.45-7.67-25.12-41.78-29.98-60.17-4.3 1.15-8.6 2.3-12.9 3.46 1.75 4.17 2.59 8.52 2.53 13.04.56 6.2 13.48 3.02 12.91-3.48z"/><path class="st0" d="M1011.13 580.62c12.68 13.27 25.35 26.54 38.03 39.81 2.63 2.76 14.37.43 12.41-4.35-10.41-25.47-17.17-51.42 8-70.76 22.45-17.25 50.4-25.4 78.43-26.04 5.23-.12 13.51-8.16 4.84-7.96-32.7.75-64.98 9.65-91.44 29.53-28.56 21.45-25.28 47.99-12.73 78.7 4.14-1.45 8.27-2.9 12.41-4.35-12.68-13.27-25.35-26.54-38.03-39.81-3.38-3.56-15.67 1.32-11.92 5.23z"/><path class="st0" d="M1117.34 537.39c-.88 2.1-8.77 18.7-6.48 19.09-.75-.13-6.9-8.6-8.69-9.93-3.15-2.33-9.55-.57-11.14 2.98-10.23 22.92-13.78 46.01-11.08 70.99 4.3-1.15 8.6-2.3 12.9-3.46-13.05-27.5-21.97-57.49 6.96-78.46 24.86-18.02 57.73-25.73 87.77-27.87 7.17-.51 10.03-9.83 1.21-9.2-35.18 2.5-74.46 12.27-102.39 35.08-28.36 23.16-20.41 54.48-6.44 83.91 2.58 5.44 13.56 2.68 12.9-3.46-2.55-23.56.81-44.5 10.48-66.18-3.71.99-7.42 1.99-11.14 2.98 7.06 5.23 8.95 15.29 19.65 12.7 11.17-2.7 14.16-19.11 17.8-27.83 2.79-6.71-10.16-6.5-12.31-1.34z"/><path class="st0" d="M1152.59 536.07c27.45 1.48 54.89 2.97 82.34 4.45 6.16.33 13.22-8.73 4.51-9.21-27.45-1.48-54.89-2.97-82.34-4.45-6.16-.33-13.22 8.74-4.51 9.21z"/><path class="st0" d="M1188.55 527.71c130.61 22.53 258.09-25.07 376.08-76.3 8.3-3.6.59-6.44-4.78-4.11-114.19 49.58-236.7 96.1-363.17 74.28-3.42-.59-15 4.94-8.13 6.13zM1505.65 519.77c51.49-4.35 102.67-11.04 153.54-20.08 6.32-1.12 10.46-9.28 1.61-7.71a1690.828 1690.828 0 0 1-153.54 20.08c-6.56.56-10.52 8.46-1.61 7.71z"/><path class="st0" d="M1136.5 524.18c171.7 114.71 383.53 44.48 551.74-38.68 7.9-3.91.82-10.51-5.63-7.32-163.6 80.88-368.9 150.43-536.12 38.7-4.58-3.05-15.97 3.3-9.99 7.3z"/><path class="st0" d="M1110.63 539.31c48.4 21.21 96.07 45.63 147.47 58.95 51.01 13.22 104.39 13.59 156.2 4.95 107.55-17.94 203.41-72.4 296.77-125.88 7.54-4.32-3.56-7.28-8.21-4.61-90.14 51.63-183.15 105.06-287.03 122.47-51.17 8.57-103.54 8.02-153.79-5.61-49.14-13.33-94.81-36.61-141.26-56.97-4.28-1.88-15.92 4.17-10.15 6.7z"/><path class="st0" d="M1554.27 532.47c60.32-18.43 122-37.33 185.62-37.9 59.65-.54 114.03 19.18 165.12 48.61 3.06 1.76 13.34-3.58 12.19-4.24-54.96-31.66-113.19-51.15-177.19-49.05-63.95 2.1-125.91 20.61-186.66 39.18-7.28 2.22-6.59 5.7.92 3.4zM815.06 495.86c-12.9-38.45 92.47-34.74 110.09-34.97 7.58-.1 9.71-10.2.97-10.09-25.99.33-141.79-4.63-123.96 48.51 2.1 6.26 14.97 2.74 12.9-3.45z"/><path class="st0" d="M775.57 506.38c6.18-35.98 54.23-51.37 84.89-58.06 32.83-7.16 66.64-8.74 99.67-14.92 8.06-1.51 5.83-9.23-2.08-7.75-43.48 8.13-88.84 8.29-130.7 23.88-26.48 9.86-59.54 27.65-64.77 58.13-.99 5.8 12.11 3.87 12.99-1.28zM711.56 532.88c5.48 3.43 9.73 3.71 15.98 2.23 2-.48 6.65-3.17 5.31-5.97-6.33-13.27-14.36-23.48-5.07-38 9.3-14.52 27.81-17.38 43.54-19.87 6.92-1.1 10-10.49 1.23-9.11-18.68 2.96-39.28 6.49-52.52 21.35-5.55 6.23-9.62 14.19-10.03 22.62-.51 10.46 5.67 17.52 9.94 26.47l5.31-5.97c-1.24-.34-2.48-.67-3.72-1.01-4.6-2.91-16.01 3.47-9.97 7.26zM847.64 548.26c-20.04-30.54 54.15-62.38 74.67-70.75 32.3-13.18 66.23-18.64 100.97-14.65 5.55.64 13.47-7.17 4.79-8.17-45.77-5.27-90.89 5.24-131.74 26.03-22.57 11.49-82.64 39.25-60.6 72.84 2.69 4.11 15.15-.36 11.91-5.3zM895.25 569.51c4.5 3.15 4.57 3.29 10.04 4.09 2.5.37 10.15-.57 10.42-4.23 3.05-42.07 46.81-59.26 81.47-71.35 36.44-12.71 74.33-19.11 112.87-20.13 4.61-.12 13.74-7.24 5.1-7.01-45.7 1.21-90.64 9.51-133.37 25.94-34.4 13.23-75.91 32.48-78.94 74.26 3.47-1.41 6.95-2.82 10.42-4.23-2-.76-4-1.52-6-2.29-3.61-2.53-15.31 2.63-12.01 4.95z"/><path class="st0" d="M920.28 590.15c38.42-64.3 111.57-84.47 182.74-75.04 2.93.39 13.72-4.36 10.66-4.77-77.69-10.29-163.61 11.1-206.09 82.2-.69 1.15 10.81.75 12.69-2.39z"/><path class="st0" d="M1008.28 578.58c-12.08-64.43 94.45-93.42 141.3-101.15 6.38-1.05 10.46-9.22 1.6-7.76-51.53 8.51-169.32 40.18-155.79 112.36.9 4.83 13.85 1.66 12.89-3.45z"/><path class="st0" d="M1035.63 585.87c-36.31-53.18 49.95-81.1 82.9-99.66 7.56-4.26-3.54-7.3-8.22-4.66-35.43 19.95-126.37 51.34-86.58 109.62 2.76 4.06 15.22-.45 11.9-5.3z"/><path class="st0" d="M1045.75 593.04c.17-54.91 86.74-73.65 128.86-74.91 5.05-.15 13.57-7.97 4.91-7.71-46.31 1.39-146.51 22.18-146.7 84.11-.01 5.63 12.92 3.04 12.93-1.49zM1007.38 424.52c11.17-8.18 39.8 1.7 52.5 4.58 14.56 3.3 28.94 7.49 42.99 12.56 30.16 10.87 58.36 25.98 84.73 44.11 3.77 2.59 15.57-2.85 10.18-6.56-33.28-22.88-69.64-40.61-108.44-51.94-23.28-6.8-68.14-23.21-90.11-7.12-7.04 5.14 3.81 7.54 8.15 4.37z"/><path class="st0" d="M1087.17 439.1c137.9 75.29 304.06 85.93 450.99 30.85 8.52-3.2.59-5.78-4.69-3.8-141.44 53.03-301.8 40.61-434.21-31.68-3.49-1.9-14.4 3.37-12.09 4.63z"/><path class="st0" d="M1156.81 502.69c181.43 43.7 378.92-1.61 523.65-119.26 2.7-2.2-9.21-1.06-11.68.95-139.25 113.2-327.02 155.29-501.38 113.29-3.01-.73-14.24 4.14-10.59 5.02z"/><path class="st0" d="M1115.88 497.5c161.22 90.85 370.39 75.98 518.55-34.17 5.79-4.3-7.06-4.43-10.31-2.02-142.82 106.18-343.3 117.18-497.96 30.02-3.59-2.02-15.48 3.25-10.28 6.17z"/><path class="st0" d="M1069.55 491.41c31.4 42.88 80.89 63.43 131 75.99 63.87 16.02 130.42 22.3 196.18 19.7 99.37-3.93 221.59-22.66 287.26-105.89.62-.78-10.34-.63-12.7 2.35-69.26 87.78-204.59 100.98-308.36 98.91-54.31-1.08-109.05-8.17-161.52-22.48-45.78-12.49-90.25-32.82-118.97-72.05-2.2-2.99-13.74 2.31-12.89 3.47z"/><path class="st0" d="M1218.87 484.11c65.2 55.65 159.45 46.38 238.09 32.76 91.7-15.89 180.89-48.66 253.73-107.77 6.78-5.5-3.77-8.67-8.31-4.99-66.61 54.06-147.17 85.79-230.92 101.91-77.66 14.95-175.55 28.3-240.7-27.32-3.97-3.38-16.1 1.82-11.89 5.41z"/><path class="st0" d="M1120.7 475.16c100.94-9.3 201.27 24.66 301.97 7.75 79.87-13.42 153.27-53.99 207.84-113.66 5.31-5.8-7.15-6.7-10.57-2.96-58.03 63.46-138.02 104.65-224.03 111.9-91.57 7.72-182.05-19.76-273.76-11.32-6.77.62-10.33 9.1-1.45 8.29z"/><path class="st0" d="M1136.57 462.78c117.19 4.55 234.47 4.9 351.69 1.08 4.19-.14 13.87-6.63 5.27-6.35a4921.47 4921.47 0 0 1-351.69-1.08c-4.27-.17-13.88 6.02-5.27 6.35z"/><path class="st0" d="M1174.63 453.29c46.18 17.78 99.44 12.9 147.52 6.89 53.43-6.68 106.16-19.06 158.05-33.25 44.49-12.16 89.03-27.26 126.73-54.56 20.49-14.85 38.65-32.84 60.27-46.14 28.02-17.23 59.58-25.27 92.29-25.92 6.93-.14 10.27-8.54 1.43-8.36-42.91.84-83.17 14.48-117.66 40.07-19.38 14.38-36.83 31.21-57.35 44.06-24.23 15.16-50.76 25.81-77.93 34.43-50.45 16.01-102.84 28.36-155.03 37.03-54.5 9.05-117.85 18.19-170.66-2.15-4.8-1.85-15.07 5.05-7.66 7.9z"/><path class="st0" d="M1112.85 433.39c84.5 4.26 169.07 6.03 253.67 5.31 2.7-.02 14.56-5.25 8.38-5.19-84.6.72-169.17-1.04-253.67-5.31-2.74-.15-14.65 4.87-8.38 5.19z"/><path class="st0" d="M1081.47 409.84c-.63.81-1.27 1.62-1.9 2.44-.03.19-.06.38-.1.56 7.97 15.03 39.91 16.91 54.93 20.14 26.88 5.77 54.17 9.47 81.5 12.27 51.55 5.28 103.98 9.33 155.75 4.84 97.09-8.42 182.53-55.05 265.63-102.47 5.34-3.05-7.5-1.56-9.83-.22-81.05 46.25-163.66 91.93-258.72 98.34-44.94 3.03-90.33-.39-135.09-4.68-24.26-2.32-48.49-5.31-72.46-9.75-5.34-.99-73.01-16.11-67.01-23.8.68-.87-10.35-.68-12.7 2.33z"/><path class="st0" d="M1016.28 405.39c47.56-.36 94 6.91 139.24 21.59 5.58 1.81 15.17-6.24 7.43-8.75-47.28-15.34-95.85-22.73-145.55-22.36-7.38.05-9.88 9.58-1.12 9.52z"/><path class="st0" d="M1057.27 396.74c47.94 3.13 95.07 10.84 141.5 23.22 3.28.87 14.74-4.3 10.48-5.44-47.17-12.58-95.07-20.49-143.78-23.67-3.2-.2-14.85 5.45-8.2 5.89zM1076.61 378.85c79.31-.11 158.29 5.99 236.64 18.27 3.8.6 15.1-5.51 8-6.62a1531.615 1531.615 0 0 0-239.5-18.5c-4.54.01-13.79 6.86-5.14 6.85z"/><path class="st0" d="M1146.29 370.28c129.32 14.49 262.73 27.23 387.63-18.16 8.62-3.13.5-4.72-4.46-2.92-120.4 43.75-250.31 29.77-374.81 15.82-2.79-.31-14.72 4.55-8.36 5.26z"/><path class="st0" d="M1394.35 384.78c72.71-7.47 142.96-17.66 208-52.94 36.19-19.63 70.42-42.17 108.75-57.7 41.07-16.64 84.24-26.41 128.32-30.39 6.12-.55 10.88-7.48 1.89-6.67-74.33 6.72-142.39 31.06-206.7 68.31-37.35 21.63-73.9 42.5-116 53.72-39.98 10.65-81.34 14.79-122.38 19.01-6.08.62-10.86 7.58-1.88 6.66z"/><path class="st0" d="M1144.17 362.86c20.74 29.78 61.04 34.15 94.56 35.63 44.42 1.96 89.39-4.03 133.18-10.91 89.51-14.05 176.87-39.04 260.65-73.45 7.77-3.19-4.45-2.39-7.3-1.22-75.45 30.99-153.96 53.96-234.38 67.75-40.28 6.91-81.46 12.57-122.37 13.26-37.14.62-87.89-.7-111.44-34.51-2.03-2.91-13.66 2.37-12.9 3.45z"/><path class="st0" d="M1225.05 403.17c170.6 32.36 352.52-16.27 484.24-129.42 2.37-2.03-9.31-.71-11.6 1.25-126.61 108.77-297.97 154.56-461.96 123.45-2.88-.55-13.79 4.13-10.68 4.72z"/><path class="st0" d="M1276.95 422.14c156.28 1.26 310.3-35.6 449.24-107.11 7.68-3.95-3.78-5.93-7.99-3.77-134.82 69.39-284.63 104.84-436.22 103.62-4.83-.04-13.71 7.19-5.03 7.26zM1046.13 398.18c26.18-9.5 52.81-16.45 80.28-20.99l.36-5.53-107.5 24.66c-5.53 1.27-8.08 6.96-.36 5.53 28.81-5.35 57.09-12.38 85.02-21.26 5.13-1.63 8.29-7.14.36-5.53-10.52 2.14-20.18 2.71-30.95 1.64-1.13 1.88-2.25 3.75-3.38 5.63 6-1.46 12.01-2.92 18.01-4.37 5.48-1.33 8.12-6.91.36-5.53-15.84 2.83-30.47 7.62-44.89 14.75 2.57.9 5.14 1.81 7.7 2.71 4.96-2.66 9.91-5.32 14.87-7.98 7.22-3.87-2.87-4.64-6.23-3.38-10.6 3.97-21.21 7.94-31.81 11.9-7.18 2.69-2.59 6.09 3.07 4.61l11.58-3.03c7.63-2 6.31-6.95-1.38-5.16l-66.55 15.51 1.38 5.16c14.69-3.54 29.38-7.07 44.07-10.61-1.02-1.54-2.05-3.07-3.07-4.61a927.512 927.512 0 0 1-74.64 24.56c1.02 1.54 2.05 3.07 3.07 4.61 6.42-2.68 12.84-5.36 19.27-8.03 8.4-3.5.59-6.17-4.76-4.06-26.71 10.53-53.42 21.07-80.12 31.6 2.48.88 4.95 1.75 7.43 2.63 10.62-7.05 21.23-14.1 31.85-21.15 5.73-3.81-5.69-3.2-7.43-2.63-9.97 3.26-19.94 6.52-29.91 9.79-7.15 2.34-2.65 6.42 3.07 4.61 9.15-2.91 18.29-5.81 27.44-8.72 7.42-2.36 6.38-7.1-1.38-5.16-17.07 4.27-34.14 8.53-51.21 12.8-5.45 1.36-8.12 6.98-.36 5.53 13.51-2.53 27.02-5.06 40.53-7.58-.44-1.66-.89-3.32-1.33-4.97-12.64 4.31-25.27 8.63-37.91 12.94-7.12 2.43-2.64 6.45 3.07 4.61 103.75-33.49 209.71-59.17 317.3-76.8 3.54-.58 11.89-6.71 3.71-6.05-20.66 1.67-41.32 3.33-61.97 5-.09 1.71-.18 3.42-.28 5.13 5.25-2.01 10.51-4.02 15.76-6.03-1.59-1.35-3.17-2.7-4.76-4.06-8.32 3.25-16.63 6.5-24.95 9.75-8.47 3.31-.61 6.12 4.76 4.06 19.27-7.42 37.68-16.25 55.49-26.71 6.08-3.57-.82-4.99-4.54-3.93-10.05 2.84-20.09 5.67-30.14 8.51 1.02 1.54 2.05 3.07 3.07 4.61 7.15-2.81 14.31-5.61 21.46-8.42-2.08-1.13-4.15-2.26-6.23-3.38-8.75 4.39-17.49 8.79-26.24 13.18-6.3 3.17.92 5.1 4.54 3.93 39.09-12.55 78.17-25.09 117.26-37.64 3.54-1.14 9.16-5.53 1.97-5.68-21.26-.45-40.36 4.09-59.4 13.46-7.37 3.62 2.92 4.56 6.23 3.38 6.61-2.35 13.22-4.69 19.83-7.04-1.59-1.35-3.17-2.7-4.76-4.06-15.64 7-30.12 15.23-44.03 25.24-5.54 3.99 5.56 3.31 7.43 2.63 57.46-20.79 111.66-48.54 162.19-82.91 5.84-3.97-6.83-2.98-8.9-1.96-23.23 11.56-46.46 23.11-69.69 34.67 2.97.65 5.93 1.3 8.9 1.96 35.36-26.23 74.09-45.47 116.45-57.5 3.39-.96 9.2-6.3 1.97-5.68-12 1.03-22.21 3.82-32.98 9.33-7.64 3.91 4.09 4.56 7.7 2.71 6.65-1.95 13.31-3.9 19.96-5.84.66-1.89 1.31-3.79 1.97-5.68-45.38 12.89-87.27 33.34-125.17 61.46-5.77 4.28 6.9 2.95 8.9 1.96 23.23-11.56 46.46-23.11 69.69-34.67-2.97-.65-5.93-1.3-8.9-1.96-48.86 33.24-101.28 59.95-156.85 80.06 2.48.88 4.95 1.75 7.43 2.63 12.29-8.85 24.87-16.2 38.69-22.39 8.39-3.75.57-5.95-4.76-4.06-6.61 2.35-13.22 4.69-19.83 7.04 2.08 1.13 4.15 2.26 6.23 3.38 14.99-7.37 29.89-10.32 46.39-9.97.66-1.89 1.31-3.79 1.97-5.68-39.09 12.55-78.17 25.09-117.26 37.64 1.51 1.31 3.03 2.62 4.54 3.93 8.75-4.39 17.49-8.79 26.24-13.18 7.24-3.64-2.81-4.73-6.23-3.38-7.15 2.81-14.31 5.61-21.46 8.42-7.07 2.77-2.64 6.22 3.07 4.61 10.05-2.84 20.09-5.67 30.14-8.51-1.51-1.31-3.03-2.62-4.54-3.93-16.91 9.92-34.24 18.31-52.55 25.36 1.59 1.35 3.17 2.7 4.76 4.06 8.32-3.25 16.63-6.5 24.95-9.75 8.47-3.31.61-6.11-4.76-4.06-5.25 2.01-10.51 4.02-15.76 6.03-3.54 1.35-6.03 5.59-.28 5.13 20.66-1.67 41.32-3.33 61.97-5 1.24-2.02 2.47-4.03 3.71-6.05-108.75 17.82-215.91 43.68-320.78 77.53 1.02 1.54 2.05 3.07 3.07 4.61 12.64-4.31 25.27-8.63 37.91-12.94 5.58-1.9 4.4-6.05-1.33-4.97-13.51 2.53-27.02 5.06-40.53 7.58l-.36 5.53c17.07-4.27 34.14-8.53 51.21-12.8l-1.38-5.16c-9.15 2.91-18.29 5.81-27.44 8.72 1.02 1.54 2.05 3.07 3.07 4.61 9.97-3.26 19.94-6.52 29.91-9.79-2.48-.88-4.95-1.75-7.43-2.63-10.62 7.05-21.23 14.1-31.85 21.15-5.58 3.71 5.49 3.4 7.43 2.63 26.71-10.53 53.42-21.07 80.12-31.6-1.59-1.35-3.17-2.7-4.76-4.06-6.42 2.68-12.84 5.36-19.27 8.03-6.98 2.91-2.68 6.23 3.07 4.61 26.39-7.46 52.36-16 78.02-25.66 7.23-2.72 2.54-5.96-3.07-4.61-14.69 3.54-29.38 7.07-44.07 10.61-7.67 1.85-6.31 6.95 1.38 5.16l66.55-15.51-1.38-5.16-11.58 3.03c1.02 1.54 2.05 3.07 3.07 4.61 10.6-3.97 21.21-7.94 31.81-11.9-2.08-1.13-4.15-2.26-6.23-3.38-4.96 2.66-9.91 5.32-14.87 7.98-7.67 4.11 4.18 4.45 7.7 2.71 11.45-5.66 22.52-9.32 35.09-11.56l.36-5.53c-6 1.46-12.01 2.92-18.01 4.37-2.21.54-9.28 5.04-3.38 5.63 12.71 1.26 24.47.71 37-1.84l.36-5.53c-26.8 8.52-53.89 15.38-81.55 20.52l-.36 5.53 107.5-24.66c5.54-1.27 8.1-6.81.36-5.53-29.8 4.93-58.75 12.53-87.14 22.83-8.56 3.09-.64 6 4.75 4.04zM898.62 410.68c-18.12-15.12-39.72-22.66-63.26-22.8-2.93-.02-13.66 5.82-6.61 6.58 23.17 2.48 46.34 4.97 69.51 7.45-.65-1.06-1.29-2.13-1.94-3.19-1.12 1.98-2.23 3.96-3.35 5.94-2.75 4.87 10.02 3.25 11.91-.1 1.12-1.98 2.23-3.96 3.35-5.94.98-1.73.03-2.98-1.94-3.19-23.17-2.48-46.34-4.97-69.51-7.45l-6.61 6.58c21.13.12 40.25 7.48 56.42 20.97 3.22 2.69 15.11-2.28 12.03-4.85z"/><path class="st0" d="M917.34 394.5c-17.33-13.5-36.31-23.94-56.87-31.63-4.79-1.79-15.08 5.1-7.66 7.88 19.72 7.38 37.83 17.69 54.43 30.62 3.91 3.04 15.56-2.62 10.1-6.87z"/><path class="st0" d="M878.42 385.46c.65-2.03 1.29-4.07 1.94-6.1.58-1.83.38-3.47-1.26-4.69-2.17-1.62-4.34-3.25-6.51-4.87-2.62-1.96-6.84-1.22-9.27.7-2.25 1.77-3.22 5.03-.61 6.98 2.17 1.62 4.34 3.25 6.51 4.87l-1.26-4.69c-.65 2.03-1.29 4.07-1.94 6.1-2.3 7.24 10.57 7.47 12.4 1.7zM846.03 408.47h-35.61c-3.8 0-14 5.66-5.46 5.66h35.61c3.8 0 14-5.66 5.46-5.66z"/><path class="st0" d="M829.69 406.51c-19.29-1.48-38.57-2.97-57.86-4.45-2.72-.21-14.66 4.65-8.4 5.14 19.29 1.48 38.57 2.97 57.86 4.45 2.72.2 14.67-4.66 8.4-5.14z"/><path class="st0" d="M778.54 404.4c-16.32.74-32.64 1.48-48.96 2.23-2.53.12-7.27.46-9.12 2.44-1.2 1.29-2.52 2.61.66 2.46 16.32-.74 32.64-1.48 48.96-2.23 2.53-.12 7.27-.46 9.12-2.44 1.2-1.29 2.52-2.61-.66-2.46z"/><path class="st1" d="M1012.29 330.95c2.93 0 7-.82 8.45-3.75 1.31-2.64-1.14-4.68-3.73-4.68-2.93 0-7 .82-8.45 3.75-1.31 2.65 1.13 4.68 3.73 4.68z"/><path class="st0" d="M1063.38 351.71c-2.97-10.39-5.93-20.77-8.9-31.16-.96-3.35-13.84.15-12.9 3.46 2.97 10.39 5.93 20.77 8.9 31.16.96 3.35 13.85-.15 12.9-3.46zM988.72 367.4c7.79 8.91 16.1 17.23 24.95 25.08 3.32-2.47 6.63-4.94 9.95-7.41l-61.86-46.44c-4.53-3.4-15.84 2.99-9.95 7.41l61.86 46.44c4.46 3.35 15.55-2.43 9.95-7.41-8.23-7.31-15.85-15.05-23.09-23.34-3.82-4.36-16.08.79-11.81 5.67zM1074.26 364.01l8.9 8.9c2.29 2.29 7.08 1.1 9.28-.65 2.56-2.05 2.84-4.87.57-7.14l-8.9-8.9c-2.29-2.29-7.08-1.1-9.28.65-2.56 2.05-2.84 4.87-.57 7.14z"/><path class="st0" d="M1082.84 358.35c5.93 1.48 11.87 2.97 17.8 4.45 2.91.73 6.44-.12 9.05-1.52 1.16-.62 4.42-3.11 1.45-3.86-5.93-1.48-11.87-2.97-17.8-4.45-2.91-.73-6.44.12-9.05 1.52-1.16.62-4.42 3.12-1.45 3.86zM893.18 430.24c-77.38-34.6-165.63-33.93-242.93.53-8.24 3.67-.63 6.94 4.88 4.49 72.93-32.51 154.92-31.74 227.68.8 3.42 1.52 15.24-3.65 10.37-5.82zM746.82 458.97a825.284 825.284 0 0 0-57.86 62.31c-4.98 5.95 7.42 6.22 10.47 2.58a821.317 821.317 0 0 1 57.86-62.31c5.49-5.34-7.12-5.83-10.47-2.58zM710.56 465.62c-33.3 22.9-61.19 51.42-82.89 85.55-3.06 4.82 9.79 3.48 11.96.07 20.67-32.51 47.07-60.29 78.84-82.14 7.15-4.91-4-6.17-7.91-3.48z"/><path class="st0" d="M699.01 499.23c-8.37 12.27-14.31 25.6-17.84 40.02-.72 2.96 11.92 1.15 12.74-2.2 3.53-14.43 9.47-27.75 17.84-40.02 1.38-2.03-4.69-1.48-5.2-1.4-2.54.37-6.01 1.35-7.54 3.6zM636.83 505.94c-10.56 21.25-16.61 43.65-18.4 67.29-.16 2.14 12.59.62 12.9-3.46 1.76-23.24 7.9-45.13 18.26-65.99 1.11-2.22-11.05-1.28-12.76 2.16z"/><path class="st1" d="M680.21 596.04c7.18 0 10.05-8.96 1.27-8.96-7.18 0-10.05 8.96-1.27 8.96zM753.87 630.33c2.42 0 7.28-.93 8.57-3.32 1.34-2.48-1.14-3.01-3.29-3.01-2.42 0-7.28.93-8.57 3.32-1.34 2.47 1.14 3.01 3.29 3.01z"/><path class="st0" d="M838.1 610.02c2.97.74 5.93 1.48 8.9 2.23 3.03.76 6.37.16 9.09-1.37 1.22-.69 4.37-3.63 1.3-4.39-2.97-.74-5.93-1.48-8.9-2.23-3.03-.76-6.37-.16-9.09 1.37-1.22.68-4.37 3.62-1.3 4.39z"/><path class="st1" d="M938.88 642.62c2.96 0 7-.81 8.44-3.8 1.28-2.65-1.12-4.86-3.78-4.86-2.96 0-7 .81-8.44 3.8-1.28 2.65 1.12 4.86 3.78 4.86zM1003.03 654.42c7.56 0 9.73-10 1-10-7.57 0-9.74 10-1 10zM1018.67 685.89c2.39 0 7.29-.95 8.58-3.29 1.35-2.45-1.15-2.9-3.26-2.9-2.39 0-7.29.95-8.58 3.29-1.35 2.46 1.15 2.9 3.26 2.9zM813.78 683.02c7.33 0 9.93-9.35 1.17-9.35-7.33 0-9.93 9.35-1.17 9.35zM796.07 672.24c7.58 0 9.71-10.05.98-10.05-7.58 0-9.71 10.05-.98 10.05zM918.37 694.13c7.31 0 9.94-9.31 1.18-9.31-7.32 0-9.94 9.31-1.18 9.31zM1047.41 669.55c7.24 0 10.01-9.11 1.23-9.11-7.23 0-10 9.11-1.23 9.11zM1140.89 631.74c7.26 0 9.99-9.16 1.22-9.16-7.26 0-9.99 9.16-1.22 9.16zM1165.53 585.72c2.38 0 7.29-.95 8.58-3.28 1.35-2.45-1.16-2.86-3.25-2.86-2.38 0-7.29.95-8.58 3.28-1.34 2.45 1.17 2.86 3.25 2.86z"/><path class="st0" d="M1263.52 102.5c-3.48-18.7-12.55-35.29-26.42-48.3-3.49-3.28-15.68 1.68-11.94 5.19 13.45 12.62 22.09 28.44 25.46 46.57.88 4.74 13.83 1.58 12.9-3.46zM1168.88 140.26c4.56-2.7 9.28-2.3 14.24-.92 2.73.76 6.56-.5 9-1.68 1.16-.56 4.38-2.45 1.62-3.21-11.63-3.23-24.46-.49-34.71 5.58-2.28 1.35-1.43 2.36.72 2.68 2.82.41 6.75-1.04 9.13-2.45z"/><path class="st1" d="M1215.2 144.64c2.93 0 6.73-.63 9.12-2.44 1.73-1.32 2.03-2.78-.74-2.78-2.93 0-6.73.63-9.12 2.44-1.74 1.32-2.04 2.78.74 2.78zM1245.79 156.76c2.58 0 7.23-.87 8.52-3.5 1.27-2.58-1.08-3.7-3.47-3.7-2.58 0-7.23.87-8.52 3.5-1.27 2.57 1.08 3.7 3.47 3.7zM1264.18 144.74c2.94 0 6.73-.56 9.12-2.44 1.7-1.34 2.02-2.98-.8-2.98-2.94 0-6.73.56-9.12 2.44-1.7 1.35-2.02 2.98.8 2.98z"/><path class="st0" d="M1295.27 143.76c.74 1.48 1.48 2.97 2.23 4.45 1.39 2.78 4.73 3.34 7.58 2.49 1.86-.56 6.74-3.1 5.32-5.95-.74-1.48-1.48-2.97-2.23-4.45-1.39-2.78-4.73-3.34-7.58-2.49-1.86.56-6.74 3.11-5.32 5.95z"/><path class="st1" d="M1319.33 112.62c2.85 0 7-.86 8.48-3.65 1.38-2.61-1.19-4.28-3.63-4.28-2.85 0-7 .86-8.48 3.65-1.39 2.6 1.19 4.28 3.63 4.28z"/><path class="st0" d="M1320.3 107.09c2.23-.74 4.45-1.48 6.68-2.23 1.73-.58 6.28-2 5.67-4.62-.56-2.44-5.79-1.64-7.22-1.16-2.23.74-4.45 1.48-6.68 2.23-1.73.58-6.28 2-5.67 4.62.56 2.44 5.78 1.64 7.22 1.16zM1343.68 71.88c1.48-4.45 2.97-8.9 4.45-13.35.71-2.13-4.25-1.28-5.13-1.13-1.78.32-6.85 1.28-7.58 3.45-1.48 4.45-2.97 8.9-4.45 13.35-.71 2.13 4.25 1.28 5.13 1.13 1.78-.32 6.86-1.27 7.58-3.45zM1310.48 39.15c2.23-11.87 4.45-23.74 6.68-35.61 1.18-6.32-11.99-4.67-13.06 1.02-2.23 11.87-4.45 23.74-6.68 35.61-1.18 6.32 11.99 4.67 13.06-1.02zM1289.92 39.4l-11.13-13.35c-2.74-3.29-15.12 1.23-11.99 4.98l11.13 13.35c2.74 3.29 15.12-1.23 11.99-4.98z"/><path class="st1" d="M1288.16 165.97c2.83 0 7-.86 8.48-3.63 1.4-2.6-1.2-4.2-3.6-4.2-2.83 0-7 .86-8.48 3.63-1.41 2.6 1.19 4.2 3.6 4.2zM1243.22 179.87c7.17 0 10.07-8.92 1.28-8.92-7.16 0-10.06 8.92-1.28 8.92z"/><path class="st1" d="M1245.6 182.65c7.58 0 9.72-10.03.99-10.03-7.58 0-9.72 10.03-.99 10.03zM1274.59 189.66c2.4 0 7.29-.94 8.57-3.3 1.34-2.46-1.15-2.95-3.27-2.95-2.4 0-7.29.94-8.57 3.3-1.34 2.47 1.15 2.95 3.27 2.95zM1336.73 164.44c7.28 0 9.98-9.21 1.21-9.21-7.28 0-9.98 9.21-1.21 9.21zM1421.57 156.68c2.55 0 7.24-.88 8.53-3.47 1.28-2.56-1.09-3.59-3.44-3.59-2.55 0-7.24.88-8.53 3.47-1.27 2.57 1.09 3.59 3.44 3.59z"/><path class="st1" d="M1419.06 159.97c7.27 0 9.98-9.18 1.21-9.18-7.26 0-9.98 9.18-1.21 9.18zM1457.06 247.49c2.39 0 7.29-.95 8.58-3.29 1.35-2.45-1.15-2.89-3.26-2.89-2.39 0-7.29.95-8.58 3.29-1.34 2.45 1.16 2.89 3.26 2.89z"/><path class="st0" d="M1379.8 268.96c37.76 5.04 65.42 1 97.66-19.78 40.37-26.03 79.99-53.28 119.96-79.91 7.26-4.84-3.31-9.35-8.55-5.86-30.86 20.57-61.73 41.13-92.59 61.7-14.51 9.67-28.82 20.82-44.53 28.41-22.15 10.71-43.72 9.27-67.48 6.1-6.32-.85-13.14 8.18-4.47 9.34zM1333.33 341.89c45 6.92 90.56 5.13 134.59-6.89 47.83-13.05 88.11-38.87 128.97-66.02 95.05-63.14 204.72-90.49 317.82-68.12 4.63.92 15.23-6.15 7.73-7.63-92.17-18.23-189.06-6.49-273.44 35.36-45.83 22.73-85.01 56.54-130.81 79.21-54.84 27.14-116.81 35.74-177.13 26.46-4.61-.72-15.21 6.48-7.73 7.63z"/><path class="st0" d="M1255.81 326.41c-3.95-1.72-7.9-3.43-11.85-5.15-3.78 1.59-7.57 3.18-11.35 4.77 46.12 7.72 92.22 14.99 139.11 14.98 1.88 0 13.77-4.35 9.45-5.25-44.84-9.33-90.01-16.53-135.52-21.67-2.58-.29-13.24 4.63-9.45 5.25 87.68 14.3 176.73 1.21 256.82-37.13 7.67-3.67-4.31-3.39-7.48-1.87-74.59 35.7-157.22 47.21-238.78 33.91l-9.45 5.25c44.78 5.05 89.17 12.19 133.28 21.36l9.45-5.25c-46.15.01-91.46-7.07-136.86-14.67-1.71-.29-14.18 2.9-11.35 4.77 7.54 5.01 4.6 3.72 13.41 5.8 3.06.72 14.32-4.22 10.57-5.1z"/><path class="st0" d="M1310.24 323.72c58.97 1.93 117.9-4.74 174.7-20.89 41.39-11.76 84.27-29.11 107.47-67.53 2.81-4.66-9.94-3.06-11.89.18-24.17 40.03-69.97 55.22-113.01 66.06-49.73 12.53-100.84 17.3-152.05 15.63-4.4-.14-13.86 6.27-5.22 6.55z"/><path class="st0" d="M1274.98 303.31c69.18 1.9 138.28-6.65 204.44-27.25 46.46-14.47 97.64-37.39 114.41-86.98 2.36-6.99-10.5-6.77-12.31-1.41-17.3 51.13-72.56 70.92-120.07 84.3-59.18 16.66-120.57 23.76-181.98 22.08-6.15-.18-13.18 9.02-4.49 9.26zM1539.2 273.07c89.88-75.81 208.83-108.57 324.84-89.29 3.04.5 14.06-4.42 10.6-5-123.19-20.47-251.65 14.74-347.11 95.26-2.68 2.27 9.25 1.08 11.67-.97z"/><path class="st0" d="M1493.45 298.09c60.35-21.96 115.47-55.47 175.13-79 34.77-13.71 71.09-23.53 108.01-29.31 37.46-5.86 81.84-12.73 116.29 6.79 3.3 1.87 14.04-3.4 12.13-4.49-28.25-16.01-60.36-14.62-91.71-11.7-36.78 3.43-73.22 10.56-108.56 21.31-75.44 22.95-142.01 66.25-215.84 93.12-8.59 3.15-.53 5.13 4.55 3.28z"/><path class="st0" d="M1493.24 290.76c18.26-30.45 51.57-47.66 82.88-62.08 28.48-13.12 58.4-22.99 89.08-29.48 57.72-12.21 144.58-23.17 191.67 20.85 3.61 3.38 15.8-1.64 11.92-5.26-49.4-46.17-137.32-36.2-198.03-24.38-38.17 7.43-75.44 19.93-110.32 37.15-30.51 15.07-61.38 32.59-79.33 62.52-3.29 5.52 9.71 4.73 12.13.68z"/><path class="st0" d="M1510.27 229.85c82.99-54.98 184.1-73.82 281.47-53.81 3.45.71 15.01-4.75 8.12-6.17-103.57-21.28-211.69.38-299.71 58.7-5.65 3.75 7.26 3.18 10.12 1.28zM1529.05 200.4c15.58-6.68 31.16-13.35 46.73-20.03 8.24-3.53.75-7.98-5.14-5.46-15.58 6.68-31.16 13.35-46.73 20.03-8.24 3.53-.74 7.98 5.14 5.46zM1488.96 186.93c-13.57-6.34-34.94 1.44-39.04 16.43-.95 3.46 11.78 1.66 12.79-2.02 2.13-7.8 8.05-12.54 15.78-8.93 3.11 1.46 14.94-3.39 10.47-5.48z"/><path class="st1" d="M1439.97 200.31c2.93 0 6.73-.6 9.12-2.44 1.72-1.33 2.03-2.85-.76-2.85-2.93 0-6.73.6-9.12 2.44-1.73 1.33-2.03 2.85.76 2.85z"/><path class="st0" d="M1483.88 184.47c6.68-5.19 13.35-10.39 20.03-15.58 1.95-1.52 3.55-4.01.93-5.77-2.4-1.62-7.05-.64-9.18 1.01-6.68 5.19-13.35 10.39-20.03 15.58-1.95 1.52-3.55 4.01-.93 5.77 2.39 1.62 7.05.64 9.18-1.01zM1536.35 132.27c5.19-1.48 10.39-2.97 15.58-4.45 2.13-.61 6.18-2.45 5.49-5.32-.68-2.81-5.49-2.42-7.41-1.87-5.19 1.48-10.39 2.97-15.58 4.45-2.13.61-6.18 2.45-5.49 5.32.68 2.82 5.48 2.42 7.41 1.87z"/><path class="st1" d="M1563.81 95.9c2.3 0 7.32-.98 8.61-3.18 1.38-2.37-1.2-2.48-3.14-2.48-2.3 0-7.32.98-8.61 3.18-1.39 2.37 1.2 2.48 3.14 2.48zM1608.36 89.37c2.35 0 7.31-.96 8.59-3.24 1.36-2.42-1.17-2.71-3.21-2.71-2.35 0-7.31.96-8.59 3.24-1.36 2.42 1.17 2.71 3.21 2.71zM1586.3 70.08c2.62 0 7.22-.86 8.51-3.54 1.25-2.6-1.06-3.88-3.52-3.88-2.62 0-7.22.86-8.51 3.54-1.24 2.6 1.07 3.88 3.52 3.88zM1633.13 101.61c2.88 0 7-.84 8.47-3.7 1.35-2.63-1.16-4.47-3.68-4.47-2.88 0-7 .84-8.47 3.7-1.34 2.62 1.17 4.47 3.68 4.47zM1643.92 82.45c7.53 0 9.76-9.9 1.02-9.9-7.53-.01-9.76 9.9-1.02 9.9z"/><path class="st0" d="M1622.76 87.97c8.16 2.97 16.32 5.93 24.48 8.9 4.56 1.66 15.08-4.93 7.74-7.6-8.16-2.97-16.32-5.93-24.48-8.9-4.56-1.66-15.09 4.93-7.74 7.6zM1698.51 96.17c9.64-6.68 19.29-13.35 28.93-20.03 2.4-1.66 1.08-3.55-1.12-4.18-2.97-.85-6.75.8-9.12 2.44-9.64 6.68-19.29 13.35-28.93 20.03-2.4 1.66-1.08 3.55 1.12 4.18 2.97.86 6.75-.8 9.12-2.44zM1743.74 90.14c16.32-.74 32.64-1.48 48.96-2.23 6.54-.3 10.58-7.9 1.67-7.5-16.32.74-32.64 1.48-48.96 2.23-6.55.31-10.58 7.91-1.67 7.5z"/><path class="st1" d="M1747.1 131.44c3.04 0 6.62-.58 9.12-2.44 1.78-1.33 1.94-3.09-.83-3.09-3.04 0-6.62.58-9.12 2.44-1.78 1.33-1.93 3.09.83 3.09zM1764.26 136.56c2.51 0 7.25-.9 8.54-3.43 1.29-2.54-1.1-3.43-3.4-3.43-2.51 0-7.25.9-8.54 3.43-1.3 2.54 1.1 3.43 3.4 3.43zM1675.24 261.18c2.51 0 7.25-.9 8.54-3.43 1.29-2.54-1.1-3.44-3.4-3.44-2.51 0-7.25.9-8.54 3.43-1.29 2.55 1.1 3.44 3.4 3.44z"/><path class="st0" d="M1120.81 651.61h2.23c2.68 0 6.78-2.05 7.16-4.99.43-3.3-3.55-3.84-5.86-3.84h-2.23c-2.68 0-6.78 2.05-7.16 4.99-.43 3.29 3.56 3.84 5.86 3.84z"/><path class="st1" d="M1230.08 654.75c2.4 0 7.29-.94 8.57-3.29 1.34-2.46-1.15-2.92-3.26-2.92-2.4 0-7.29.94-8.57 3.29-1.35 2.46 1.15 2.92 3.26 2.92zM1321.5 648.74c2.73 0 7.08-.87 8.5-3.57 1.36-2.59-1.16-3.98-3.55-3.98-2.73 0-7.08.87-8.5 3.57-1.35 2.59 1.16 3.98 3.55 3.98zM1470.51 586.1c2.52 0 7.25-.9 8.54-3.43 1.29-2.55-1.1-3.46-3.41-3.46-2.52 0-7.25.9-8.54 3.43-1.29 2.55 1.1 3.46 3.41 3.46z"/><path class="st0" d="M1239.71 351.76c20.37-.12 38.91 8.74 59.13 9.64 17.68.79 35.54-2.59 52.8-6.04 38.97-7.78 76.89-19.84 114.71-31.86 8.77-2.78.48-4.17-4.38-2.63-35.56 11.3-71.22 22.63-107.85 30.02-23.56 4.75-45 6.96-68.64 1.76-12.7-2.79-24.21-6.02-37.33-5.95-2.64.03-14.54 5.09-8.44 5.06z"/><path class="st0" d="M1304.37 372.08c125.28 5.98 249.56-47.36 329.93-143.97 2.76-3.32-9.62-1.81-11.74.74-75.94 91.29-191.04 143.32-309.91 137.64-2.99-.14-14.75 5.28-8.28 5.59zM1684.32 275.2h53.41c5.42 0 13.48-8.19 4.78-8.19h-53.41c-5.41 0-13.47 8.19-4.78 8.19zM516.98 284.22c-51.4-18.01-104.64-27.01-159.1-26.99-2.81 0-14.61 5.36-8.34 5.36 53.72-.02 106.17 8.94 156.86 26.69 2.94 1.04 14.43-3.71 10.58-5.06z"/><path class="st0" d="m439.06 282.52-2.23 2.23c-2.12 2.12 1.84 2.69 3.19 2.63 2.9-.12 6.48-1.1 8.59-3.22l2.23-2.23c2.12-2.12-1.84-2.69-3.19-2.63-2.89.13-6.47 1.11-8.59 3.22z"/><path class="st1" d="M437.74 307.1c7.45 0 9.83-9.68 1.08-9.68-7.45 0-9.83 9.68-1.08 9.68z"/><path class="st1" d="M435.85 306.21c2.85 0 7-.86 8.48-3.64 1.39-2.61-1.19-4.26-3.62-4.26-2.85 0-7 .86-8.48 3.64-1.39 2.6 1.19 4.26 3.62 4.26z"/><path class="st1" d="M437.71 307.01c7.38 0 9.88-9.5 1.13-9.5-7.38 0-9.88 9.5-1.13 9.5z"/><path class="st0" d="m412.03 317.57-52.42 1.83c-7.31.25-17.12-.92-22.26 5.47-.56.69-.8 1.46-.12 2.16.21.21.42.42.62.63 1.37 1.39 5.17.73 6.72.22.33-.11.67-.22 1-.33 1.39-.45 6.44-1.95 5.76-4.3-.06-.19-.11-.38-.17-.58-1.06-3.66-13.94-.15-12.9 3.46.06.19.11.38.17.58 1.92-1.43 3.84-2.87 5.76-4.3-.33.11-.67.22-1 .33 2.24.07 4.48.15 6.72.22.13.04.25.08.38.12-2.32 1.04-4.64 2.09-6.97 3.13 10.14-2.05 21.58-1 31.92-1.36 10.48-.37 20.97-.73 31.45-1.1 4.1-.13 13.91-6.48 5.34-6.18zM455.25 317.12c15.15-1.46 30.24-2.06 45.45-1.81 3.26.05 13.91-5.58 6.39-7.43-13.41-3.29-26.81-6.58-40.22-9.86-2.61 2.42-5.22 4.83-7.83 7.25-.35.24-.7.49-1.06.73 3.31-1.13 6.63-2.27 9.94-3.4-7.7-1.08-17.71-12.13-24.64-15.6-9.28-4.65-18.92-7.17-29.19-8.61-2.61-.37-15.13 4.39-9.03 6.83 8.84 3.53 16.72 7.69 24.62 13l7.58-7.01c-22.52-1.76-43.99-5.77-65.63-12.06l-4.75 7.36 10.49-.54c6.52-.33 10.59-7.93 1.67-7.47l-10.49.54c-3.31.17-11.37 5.44-4.75 7.36 22.5 6.54 45.19 10.6 68.53 12.42 2.73.21 12.74-3.54 7.58-7.01-7.9-5.31-15.78-9.47-24.62-13-3.01 2.28-6.02 4.55-9.03 6.83 12.59 1.77 24.65 5.5 35.3 12.62 6.63 4.43 10.58 10.48 18.54 11.59 3.42.48 7.81-.38 9.94-3.4 1.92-2.72 2-3.02 1.19-6.25-.26-1.03-1.59-1.75-2.53-1.9-.61-.09-1.22-.19-1.83-.28-3.93-.6-15.5 5.37-7.83 7.25 13.41 3.29 26.81 6.58 40.22 9.86 2.13-2.48 4.26-4.95 6.39-7.43-16.34-.27-32.45.38-48.72 1.95-6.45.62-10.62 8.33-1.68 7.47z"/><path class="st1" d="M420.07 305.48c2.44 0 7.28-.93 8.56-3.34 1.33-2.49-1.13-3.1-3.31-3.1-2.44 0-7.28.93-8.56 3.34-1.32 2.49 1.14 3.1 3.31 3.1zM446.79 327.78c2.46 0 7.27-.92 8.56-3.36 1.32-2.5-1.12-3.18-3.33-3.18-2.46 0-7.27.92-8.56 3.36-1.32 2.5 1.12 3.18 3.33 3.18z"/><path class="st1" d="M444.33 329.04c7.22 0 10.03-9.05 1.25-9.05-7.22-.01-10.03 9.05-1.25 9.05zM491.56 290.92c2.93 0 7-.82 8.45-3.76 1.3-2.64-1.13-4.72-3.74-4.72-2.93 0-7 .82-8.45 3.76-1.31 2.65 1.13 4.72 3.74 4.72zM491.26 247.51c2.4 0 7.29-.94 8.57-3.3 1.34-2.46-1.15-2.94-3.27-2.94-2.4 0-7.29.94-8.57 3.3-1.34 2.47 1.15 2.94 3.27 2.94z"/><path class="st0" d="M548.1 280.08c-5.99-13.51-16.62-23.68-30.48-28.91-5.64-2.13-15.08 5.98-7.4 8.87 11.12 4.19 20.16 12.6 24.98 23.49 2.58 5.82 15.37 2.14 12.9-3.45z"/><path class="st1" d="M513.37 262.46c7.36 0 9.91-9.43 1.15-9.43-7.36.01-9.91 9.43-1.15 9.43z"/><path class="st0" d="M1121.27 294.88c5.93-18.54 11.87-37.09 17.8-55.63 1.59-4.96-11.44-3.32-12.95 1.41-5.93 18.54-11.87 37.09-17.8 55.63-1.59 4.96 11.43 3.32 12.95-1.41z"/><path class="st1" d="M972.61 360.42c2.91 0 6.72-.68 9.12-2.44 1.76-1.29 2.04-2.6-.7-2.6-2.91 0-6.72.68-9.12 2.44-1.76 1.28-2.04 2.6.7 2.6zM607.69 467.39c2.94 0 6.73-.58 9.12-2.44 1.71-1.34 2.03-2.92-.78-2.92-2.94 0-6.73.58-9.12 2.44-1.71 1.34-2.03 2.92.78 2.92z"/><path class="st0" d="M570.29 462.74c-16.49 2.51-32.63 6.25-48.48 11.45-7.64 2.5-5.74 10.32 2.08 7.75 14.71-4.82 29.67-8.48 44.98-10.81 6.66-1.01 10.25-9.73 1.42-8.39z"/><path class="st1" d="M544.94 537.82c2.9 0 7-.83 8.46-3.72 1.34-2.63-1.15-4.54-3.7-4.54-2.9 0-7 .83-8.46 3.72-1.33 2.64 1.16 4.54 3.7 4.54zM545.4 552.02c2.95 0 6.73-.53 9.12-2.44 1.69-1.35 2.02-3.05-.82-3.05-2.95 0-6.73.53-9.12 2.44-1.69 1.35-2.02 3.05.82 3.05zM551.22 591.9c7.41 0 9.86-9.58 1.11-9.58-7.42-.01-9.86 9.58-1.11 9.58z"/><path class="st0" d="M588.19 544.11c-17.53 8.84-33.28 20.21-46.96 34.31-2.68 2.76 9.46 1.36 11.69-.93 12.49-12.88 26.69-23.53 42.73-31.61 7.58-3.82-4.35-3.33-7.46-1.77z"/><path class="st1" d="M617.92 622.82c7.24 0 10.01-9.11 1.23-9.11-7.24-.01-10.01 9.11-1.23 9.11zM661.05 645.25c2.91 0 6.72-.7 9.12-2.44 1.77-1.29 2.04-2.57-.69-2.57-2.91 0-6.72.7-9.12 2.44-1.77 1.28-2.04 2.57.69 2.57z"/><path class="st0" d="M795.48 582.46c6.28-1.14 12.59-.82 18.84.35 6.2 1.17 13.12-7.52 4.53-9.13-8.59-1.62-17.09-1.34-25.66.22-2.54.46-6.03 3.07-5.3 6 .79 3.23 5.19 3 7.59 2.56z"/><path class="st1" d="M627.66 549.51c2.9 0 6.71-.73 9.12-2.44 1.79-1.27 2.04-2.48-.67-2.48-2.9 0-6.71.73-9.12 2.44-1.78 1.27-2.04 2.48.67 2.48z"/><path class="st0" d="m660.94 537.83 26.7-11.13c1.61-.67 5.02-2.07 3.7-4.22-1.16-1.89-7.08-.13-8.39.41l-26.7 11.13c-1.61.67-5.02 2.07-3.7 4.22 1.16 1.89 7.08.13 8.39-.41zM688.12 515.7c-6.41.65-12.73 2.04-18.75 4.37-.73.28-12.42 4.99-7.85 7.17 2.2 1.04 12.78-.37 12.53-3.91l-.03-.37c-.16-2.21-13.14 0-12.9 3.46l.03.37c4.18-1.3 8.35-2.6 12.53-3.91-.05-.02 0-.85.03-1-.21.4-.41.81-.62 1.21-1.1 1.12.61-.18 1.28-.44.79-.31 1.59-.57 2.39-.81 1.88-.56 3.79-.86 5.74-1.06 2.46-.25 7.05-.89 8.64-3.06 1.56-2.12-1.39-2.19-3.02-2.02z"/><path class="st0" d="M748.03 484.75c-63.26 2.2-122.07 28.55-165.06 75.16-3.28 3.55 9.36 2.46 11.87-.26 38.64-41.89 90.85-66.51 147.93-68.5 4.21-.15 13.85-6.7 5.26-6.4zM651.41 473.95c-58.61 15.41-110.03 46.82-149.65 92.8-.49.57 10.2.52 12.69-2.38 36.49-42.34 83.76-72.58 137.92-86.82 7.44-1.96 6.61-5.59-.96-3.6zM527.49 499.17c-22.77 9.63-43.58 22.28-61.83 39.06-15.69 14.44-40.75 38.01-31.63 61.69 1.37 3.56 14.08-.38 12.9-3.46-8.13-21.11 12.14-41.09 26.15-54.63 17.2-16.63 37.06-29.6 59.09-38.92 8.36-3.52.55-5.95-4.68-3.74z"/><path class="st0" d="M510.62 502.89c-51.71 9.42-83.59 52.71-88.11 103.88-2.28 25.86.15 53.1 18.33 73.08 21.28 23.39 53.88 31.96 80.96 46.41 3.29 1.75 15.2-3.23 10.38-5.8-41.02-21.89-91.46-34.05-96.8-88.2-4.97-50.35 17.52-112.91 73.25-123.07 5.75-1.05 10.94-7.93 1.99-6.3z"/><path class="st0" d="M490.07 711.62c19.55 5.2 38.97 8.03 59.22 8.43.98-2.95 1.97-5.9 2.95-8.85-32.35 5.3-78.45-21.6-85.39-56-6.63-32.85 35.89-66.47 57.01-86.29 5.75-5.4-6.78-7.03-10.68-3.38-24.31 22.82-72.72 62.22-56.54 100.75 14.63 34.81 57.23 59.85 94.3 53.77 4.67-.77 11.47-8.68 2.95-8.85-19.27-.39-37.57-2.87-56.27-7.85-5.17-1.37-15.23 6.23-7.55 8.27z"/><path class="st0" d="M535.53 703.49c-16.84-31.39-44.22-57.61-26.62-95.97 16.5-35.97 58.17-56.13 94.92-63.93 7.83-1.66 6.15-7.66-1.61-6.01-45.97 9.75-112.52 42.73-112.14 97.96.11 16.43 6.97 31.63 15.2 45.51 5.45 9.18 12.68 24.26 21.83 29.87 7.78 4.77 27.86 1.35 21.31-10.88-2.22-4.17-14.67.11-12.89 3.45z"/><path class="st0" d="M507.12 675.72c6.62 23.91 19.54 43.31 38.87 58.74 2.55 2.04 13.82-2.91 12.18-4.28-20.59-17.27-37.19-39.96-44.22-66.22-8.47-31.61 20.05-54.33 42.34-72.44 48.99-39.81 110.8-59.54 173.7-56.47 2.61.13 14.58-4.67 8.44-4.97-62.31-3.04-125 14.35-176.5 49.75-20.6 14.16-55.94 38.81-62.5 64.77-8.13 32.21 23.89 70.83 46.55 89.84 4.06-1.43 8.12-2.85 12.18-4.28-19.16-15.29-31.64-34.39-38.16-57.92-.7-2.57-13.6.89-12.88 3.48z"/><path class="st1" d="M680.55 543.98c2.58 0 7.23-.87 8.52-3.5 1.27-2.58-1.08-3.71-3.47-3.71-2.58 0-7.23.87-8.52 3.5-1.27 2.57 1.07 3.71 3.47 3.71z"/><path class="st0" d="M485.14 494.93c-71.2-3.25-148.54 14.65-184.38 82.54-3.43 6.49 9.63 6.75 12.36 1.58 32.57-61.7 103.02-77.51 167.61-74.56 6.37.29 13.1-9.17 4.41-9.56z"/><path class="st0" d="M502.19 497.3c-54.98-11.69-115.68-.3-163.22 29.93-32.66 20.77-82.37 99.12-30.07 125 3.68 1.82 15.52-3.57 10.29-6.16-26.62-13.18-19.08-45.84-10.49-68.3 8.58-22.41 23.59-38.56 44.41-50.55 42.4-24.42 93.33-33.19 141.15-23.03 4.04.86 15.16-5.35 7.93-6.89z"/><path class="st0" d="M313.95 653.24c19.38 5.34 38.65 7.58 58.73 6.92 1.67-.05 13.37-4.15 7.72-6.48-21.17-8.73-17.7-33.3-5.7-48.18 11.47-14.22 28.69-22.91 41.7-35.59 5.25-5.12-7.38-4.61-10.26-1.81-16.18 15.77-39.65 26.47-50.06 47.49-8.26 16.68-4.02 36.69 13.99 44.11 2.57-2.16 5.15-4.32 7.72-6.48-19.1.63-37.46-1.6-55.87-6.68-3.85-1.06-15.07 4.74-7.97 6.7zM467.69 514.34c-42.92-7.28-77.17 18-108.27 44.29-6.67 5.64 3.55 10.48 8.63 6.18 27.33-23.11 57-47.28 95.25-40.8 6.55 1.1 13.01-8.21 4.39-9.67z"/><path class="st0" d="M452.68 509.33c-48.7 12.25-91.19 38.08-124.55 75.59-5.45 6.13 6.79 8.8 10.9 4.18 31.13-35 70.75-58.98 116.17-70.4 8.04-2.02 5.52-11.39-2.52-9.37z"/><path class="st0" d="M455.37 526.51c-36.61 11.76-66.64 36.56-83.32 71.45-2.73 5.72 10.14 4.42 12.05.43 14.74-30.82 40.34-54.6 73.08-65.12 7.56-2.42 5.94-9.25-1.81-6.76z"/><path class="st0" d="M581.2 484.77c-45.16 3.39-86.9 19.24-122.82 46.84-1.83 1.41-3.72 4.92-.75 6.45 27.61 14.13 59.86-16.06 84.12-26.9 43.15-19.27 89.3-29.73 136.41-32.38-.18-2.94-.35-5.88-.53-8.82-54.86 11.6-105.33 35.56-148.98 70.77-6.8 5.49 3.61 9.54 8.48 5.61 41.97-33.86 90.02-56.71 142.78-67.87 6.56-1.39 7.03-9.25-.53-8.82-34.88 1.96-69.25 7.9-102.53 18.65-15.05 4.86-29.82 10.56-44.2 17.16-14.31 6.56-49.18 33.44-65.05 25.32l-.75 6.45c33.3-25.59 71.2-40.18 113.11-43.32 7.15-.54 10.06-9.8 1.24-9.14z"/><path class="st0" d="M683.61 474.42c-34.14 19.26-68.28 38.51-102.42 57.77-7.49 4.22 4.15 4.56 7.67 2.58C623 515.51 657.14 496.26 691.28 477c7.49-4.22-4.15-4.56-7.67-2.58zM670.21 505.59c-16.37 9.56-32.74 19.11-49.11 28.67-7.4 4.32 4.27 4.15 7.57 2.22 16.37-9.56 32.74-19.11 49.11-28.67 7.4-4.32-4.27-4.15-7.57-2.22z"/><path class="st1" d="M662.45 536.14c7.32 0 9.94-9.34 1.17-9.34-7.32 0-9.93 9.34-1.17 9.34z"/><path class="st0" d="M797.59 471.43C757.06 482.42 705.77 502.5 681 538.7c-25.33 37.03-4.56 89.49 18.07 122.58 2.94 4.3 15.35-.35 11.88-5.43-20.98-30.7-41.14-80.27-18.27-114.93 21.88-33.15 70.5-51.72 107.02-61.62 7.84-2.12 5.78-10.01-2.11-7.87z"/><path class="st0" d="M700.27 514.82c-23.96 28.45-50.59 77.85-31.94 115.21 17.22 34.52 67.88 55.26 104.56 51.48 4.69-.48 11.4-6.76 3.25-7.73-37.47-4.47-54.2-46.17-31.55-75.61 16.77-21.8 42.29-39.16 62.95-57.27 5.68-4.98-7.02-5.51-10.45-2.51-16.89 14.81-34.05 29.38-50.68 44.48-12.83 11.65-23.5 23.97-25.26 41.87-3.08 31.33 20.74 53.33 50.11 56.83 1.09-2.58 2.17-5.15 3.25-7.73-32.51 3.35-84.87-20.08-96.16-53.91-11.49-34.41 10.85-77.05 32.37-102.61 4.97-5.91-7.44-6.09-10.45-2.5z"/><path class="st0" d="M800.28 509.1c4.59-4.86 9.17-9.73 13.76-14.59 3.8-4.03-8.44-2.15-9.82-1.37-40.41 22.6-110.44 77.69-92.44 131.52 1.3 3.9 14.12.21 12.9-3.46-16.97-50.75 49.19-103.76 87.32-125.09-3.27-.46-6.55-.92-9.82-1.37-4.59 4.86-9.17 9.73-13.76 14.59-3.34 3.52 9.3 2.48 11.86-.23zM719.37 468.04c-30.6 14.79-56.72 37.02-74.98 65.84-12.38 19.53-37.98 64.28-8.54 79.72 3.07 1.61 14.97-3.17 10.45-5.54-28.27-14.84 3.84-66.57 15.67-83.11 16.83-23.53 39.09-41.71 65.08-54.28 7.71-3.72-4.1-4.36-7.68-2.63z"/><path class="st0" d="M646.2 552.94c-11.89 28.53 3.87 58.4 33.87 65.15 3.01.68 14.19-4.19 10.6-5-28.58-6.43-42.94-35.55-31.75-62.42.89-2.13-11.33-1.06-12.72 2.27z"/><path class="st1" d="M649.6 609.29c2.98 0 7-.8 8.43-3.82 1.26-2.66-1.11-4.94-3.8-4.94-2.98 0-7 .8-8.43 3.82-1.27 2.66 1.11 4.94 3.8 4.94zM667.12 606.02c2.48 0 7.26-.91 8.55-3.39 1.31-2.52-1.11-3.29-3.36-3.29-2.48 0-7.26.91-8.55 3.39-1.31 2.52 1.12 3.29 3.36 3.29z"/><path class="st0" d="m663.96 624.5 28.28 27.47c4.06-1.43 8.12-2.85 12.18-4.28-20.91-13.43-38.35-35.29-38.11-61.28.28-30.87 27.5-50.6 50.65-65.96 5.14-3.41-7.59-1.53-9.79-.07-21.29 14.12-45.71 30.71-52.15 57.14-7.46 30.57 12.63 58.64 37.23 74.44 2.38 1.53 14.05-2.46 12.18-4.28l-28.28-27.47c-2.27-2.19-13.86 2.66-12.19 4.29zM811.99 617.75v-2.23c0-3.11-3.15-4.43-5.94-4.13-2.45.26-7.12 1.96-7.12 5.16v2.23c0 3.11 3.15 4.43 5.94 4.13 2.45-.27 7.12-1.97 7.12-5.16z"/><path class="st1" d="M809.27 618.25c7.15 0 10.08-8.88 1.29-8.88-7.15 0-10.08 8.88-1.29 8.88zM829.58 623.82c2.48 0 7.26-.91 8.55-3.39 1.31-2.52-1.11-3.29-3.36-3.29-2.48 0-7.26.91-8.55 3.39-1.31 2.53 1.11 3.29 3.36 3.29zM902.85 649.84c7.47 0 9.81-9.75 1.06-9.75-7.47 0-9.8 9.75-1.06 9.75zM1197.04 618.18c2.97 0 7-.8 8.43-3.82 1.27-2.66-1.11-4.92-3.8-4.92-2.97 0-7 .8-8.43 3.82-1.27 2.66 1.11 4.92 3.8 4.92z"/><path class="st1" d="M1205.75 610.8c2.6 0 7.22-.87 8.51-3.52 1.26-2.59-1.07-3.81-3.5-3.81-2.6 0-7.22.87-8.51 3.52-1.25 2.59 1.07 3.81 3.5 3.81z"/><path class="st0" d="M1264.49 624.33c5.19 1.48 10.39 2.97 15.58 4.45 2.97.85 6.96-.24 9.12-2.44 2-2.04 1.33-4.47-1.41-5.25-5.19-1.48-10.39-2.97-15.58-4.45-2.97-.85-6.96.24-9.12 2.44-2 2.05-1.33 4.47 1.41 5.25z"/><path class="st1" d="M1263.8 611.49c2.97 0 7-.8 8.44-3.81 1.27-2.66-1.11-4.9-3.79-4.9-2.97 0-7 .8-8.44 3.81-1.28 2.66 1.11 4.9 3.79 4.9zM1169.89 611.99c7.46 0 9.81-9.72 1.07-9.72-7.46 0-9.81 9.72-1.07 9.72zM1121.14 599.49c2.53 0 7.24-.89 8.53-3.45 1.29-2.55-1.09-3.51-3.42-3.51-2.53 0-7.24.89-8.53 3.45-1.29 2.55 1.09 3.51 3.42 3.51z"/><path class="st0" d="M1132.2 576.97c2.7-4.17 3.99-18.26 7.83-20.5 2.79-1.63 13.19 4.34 16.14 5.54 5.74 2.32 11.41 4.79 17.06 7.33 3.43 1.54 13.49-3.78 12.16-4.38-13.32-5.99-31.93-17.69-47.05-13.6-14.35 3.88-12.03 17.36-18.86 27.89-.87 1.34 10.65.9 12.72-2.28z"/><path class="st1" d="M1129.98 559.2c2.45 0 7.27-.92 8.56-3.35 1.32-2.5-1.13-3.15-3.32-3.15-2.45 0-7.27.92-8.56 3.35-1.33 2.5 1.12 3.15 3.32 3.15z"/><path class="st0" d="m1138.32 545.61-43.68 10.17c-1.49.35-8.89 4.24-4.39 5.88 16.58 6.04 32.82 2.92 50.1 3.06 20.29.16 65.41 2.96 70.68 28 3.87-1.56 7.75-3.13 11.62-4.69-29.68-18.06-60.99-31.27-94.54-40.26-2.38-.64-12.79 1.78-10.02 5.73 23.91 34.1 82.6 42.49 120.84 45.23 4.59.33 13.8-6.17 5.16-6.79-35.83-2.57-91.59-11.39-113.98-43.33l-10.02 5.73c32.71 8.76 63.29 22.02 92.21 39.61 2.52 1.53 12.47-.65 11.62-4.69-3.63-17.25-26-23.67-41.09-27.31-26.53-6.4-57.12 2.93-82.25-6.22-1.46 1.96-2.93 3.92-4.39 5.88l43.68-10.17c7.77-1.8 6.2-7.63-1.55-5.83z"/><path class="st0" d="M1200.7 582.42c118.65 46.48 265.23 51.65 358.56-48.6 5.45-5.85-6.96-7.44-10.69-3.43-88.94 95.54-227.9 87.75-340.32 43.71-5.15-2.02-15.06 5.37-7.55 8.32z"/><path class="st0" d="M1500.12 563.63c42.85-24.01 81.84-53.19 116.92-87.56 5.72-5.6-6.73-7.66-10.77-3.7-33.52 32.85-70.88 60.86-111.83 83.8-7.64 4.28-.71 11.04 5.68 7.46zM1297.45 288.77c12.44-4.79 24.96-8.52 37.95-11.41-1.04-1.58-2.07-3.16-3.11-4.74a2161.766 2161.766 0 0 1-108.03 41.62c2.49.92 4.97 1.83 7.46 2.75 3.15-2.71 6.3-5.43 9.45-8.14 5.06-4.36-5.23-3.75-7.46-2.75l-56.01 25.29c-6.85 3.09-2.75 6.37 3.11 4.74 4.14-1.15 8.29-2.3 12.43-3.46-1.04-1.58-2.07-3.16-3.11-4.74-21.28 8.13-42.56 16.27-63.84 24.4-7.04 2.69-2.64 6.56 3.11 4.74a699.524 699.524 0 0 0 85.25-33.2c-2.58-.94-5.16-1.89-7.73-2.83a807.096 807.096 0 0 1-118.27 53.27c-5.53 1.97-4.41 6.2 1.37 5.11 25.27-4.78 49.94-11.24 74.32-19.4l-6.27-3.51c-3.9 2.4-7.8 4.8-11.7 7.19-4.76 2.93-1.25 4.84 2.84 4.43 28.82-2.91 57.5-2.7 86.29.44 3.45.38 14.97-5.44 8.12-6.19-30.86-3.37-61.46-3.4-92.34-.28.95 1.48 1.89 2.95 2.84 4.43 3.9-2.4 7.8-4.8 11.7-7.19 7.09-4.36-2.88-4.64-6.27-3.51-22.15 7.42-44.51 13.22-67.47 17.56.46 1.7.91 3.41 1.37 5.11 41.88-14.96 82.26-33.18 121.21-54.63 7.73-4.26-4.25-4.46-7.73-2.83a648.606 648.606 0 0 1-78.94 30.73c1.04 1.58 2.07 3.16 3.11 4.74 21.28-8.13 42.56-16.27 63.84-24.4 7.11-2.72 2.61-6.33-3.11-4.74-4.14 1.15-8.29 2.3-12.43 3.46 1.04 1.58 2.07 3.16 3.11 4.74l56.01-25.29c-2.49-.92-4.97-1.83-7.46-2.75-3.15 2.71-6.3 5.43-9.45 8.14-5.2 4.48 5.39 3.48 7.46 2.75 36.39-12.91 72.39-26.78 108.03-41.62 7.16-2.98 2.56-6-3.11-4.74-14.2 3.16-27.76 7.3-41.33 12.52-8.48 3.26-.64 6.28 4.79 4.19z"/><path class="st0" d="M1165.36 362.43c23.74-1.48 47.47-2.97 71.21-4.45 7.14-.45 10.06-9.64 1.24-9.09-23.74 1.48-47.47 2.97-71.21 4.45-7.15.46-10.07 9.65-1.24 9.09z"/><path class="st0" d="M1205.67 354.28c13.35.7 26.71 1.41 40.06 2.11 4.47.24 13.84-6.17 5.2-6.62-13.35-.7-26.71-1.41-40.06-2.11-4.47-.23-13.84 6.17-5.2 6.62zM1214.54 343.32h22.25c2.57 0 7.09-.95 8.56-3.34 1.51-2.47-1.3-3.11-3.31-3.11h-22.25c-2.57 0-7.09.95-8.56 3.34-1.52 2.46 1.29 3.11 3.31 3.11zM1223.15 335.48c20.77-.74 41.54-1.48 62.31-2.23 6.99-.25 10.22-8.89 1.38-8.58-20.77.74-41.54 1.48-62.31 2.23-7 .25-10.22 8.89-1.38 8.58z"/><path class="st0" d="M1252.14 326.8h17.8c2.7 0 6.8-2.08 7.15-5.06.38-3.33-3.49-3.96-5.89-3.96h-17.8c-2.7 0-6.8 2.08-7.15 5.06-.39 3.32 3.49 3.96 5.89 3.96z"/><path class="st1" d="M1265.72 321.07c2.44 0 7.27-.92 8.56-3.35 1.32-2.5-1.13-3.13-3.32-3.13-2.44 0-7.27.92-8.56 3.35-1.32 2.5 1.13 3.13 3.32 3.13zM1312.57 297.02c2.6 0 7.22-.87 8.51-3.52 1.26-2.59-1.07-3.8-3.5-3.8-2.6 0-7.22.87-8.51 3.52-1.26 2.58 1.07 3.8 3.5 3.8z"/><path class="st0" d="M1281.31 296.84c-13.66 7.38-27.33 14.77-40.99 22.15 2.32 2.05 4.65 4.1 6.97 6.15 7.5-5.4 15-10.8 22.5-16.19 5.62-4.04-.49-8.19-5.3-6.76-7.17 2.14-12.92 4.83-19.09 9.03-6.59 4.49 2.17 8.67 6.97 6.15 10.68-5.6 21.37-11.19 32.05-16.79 5.11-2.67 4.33-8.85-2.12-7.9-18.1 2.68-34.03 8.39-49.7 17.82-6.68 4.02 2.11 8.88 6.97 6.15 13.35-7.48 26.71-14.96 40.06-22.44 7.67-4.3.79-10.25-5.54-6.98-41 21.19-82 42.39-123.01 63.58l9.28 2.91c.05-.25.1-.5.16-.75l-11.52 4.14c-.11-.12-.22-.23-.33-.35 2.39-1.66 4.78-3.32 7.17-4.99-26.83 1.74-54.4 16.98-79.55 25.99l3.87 7.59c11.89-4.47 23.78-8.93 35.68-13.4 4.34-1.63 5.11-7.75-.47-7.9-8.23-.22-14.96.59-22.77 3.18l3.87 7.59 29.64-12.15c7.34-3.01 2.22-8.79-3.87-7.59-11.96 2.36-22.37 6.2-33.03 12.24-7.73 4.39-.89 9.82 5.54 6.98 11.91-5.27 23.83-10.53 35.74-15.8-1.85-2.33-3.7-4.65-5.54-6.98-102.7 46.63-216.27 68.62-325.02 96.66-6.31 1.63-7.24 8.99.44 8.5 45.88-2.88 90.87-10.77 134.98-23.68l-2.19-8.19c-15.17 4.94-30.34 8.54-46.14 10.78.15 2.83.29 5.67.44 8.5 6.18-1.39 12.35-2.79 18.53-4.18l-2.19-8.19c-18.78 6.71-37.55 13.43-56.33 20.14-7.68 2.75-5.9 9.7 2.19 8.19 7.92-1.48 8.29-1.61 14.41-6.83 4.99-4.26-.11-8.48-5.3-6.76-21.31 7.06-42.63 14.12-63.94 21.18-7.67 2.54-5.67 10.77 2.19 8.19 108.17-35.47 215.5-73.4 321.95-113.75 7.17-2.72 2.39-9.22-3.87-7.59-28.88 7.55-56.26 18.26-82.56 32.4-6.43 3.46-2.71 9.71 3.87 7.59 102.86-33.2 206.35-67.44 297.18-127.52 5-3.31.81-7.12-3.55-7.07-16.86.2-29.97 5.87-42.09 17.42-4.56 4.34 3.16 6.57 6.43 5.77 22.03-5.38 12.6-27.04-2.74-14.54-1.1.9-3 2.7-2.25 4.39l.87 1.95c1.54 3.44 6.33 3.15 9.22 1.76 9.98-4.77 19.95-9.55 29.93-14.32-2.7-1.72-5.41-3.44-8.11-5.16-7.7 8.41-15.4 16.81-23.1 25.22-4.02 4.39 2.8 6.92 6.43 5.77 24.94-7.93 50.21-13.2 76.26-15.8 6.96-.7 10.15-9.7 1.31-8.82-27.25 2.73-53.65 8.13-79.76 16.43l6.43 5.77c7.7-8.41 15.4-16.81 23.1-25.22 4.85-5.29-4.64-6.82-8.11-5.16-9.98 4.77-19.95 9.55-29.93 14.32 3.07.59 6.15 1.17 9.22 1.76-3.66 1.15-7.32 2.3-10.97 3.46l6.43 5.77c8.85-8.82 18.89-12.8 30.11-11.95-1.18-2.36-2.36-4.72-3.55-7.07-88.88 58.79-190.32 92.17-290.97 124.66l3.87 7.59c25.26-13.58 51.45-23.93 79.21-31.19l-3.87-7.59a7428.518 7428.518 0 0 1-318.6 112.54l2.19 8.19c21.31-7.06 42.63-14.12 63.94-21.18-1.77-2.25-3.53-4.51-5.3-6.76-2.73 1.32-5.47 2.64-8.2 3.97l2.19 8.19c18.78-6.71 37.55-13.43 56.33-20.14 7.59-2.71 5.92-10.02-2.19-8.19-6.18 1.39-12.35 2.79-18.53 4.18-6.28 1.42-7.21 9.59.44 8.5 17.01-2.41 33.29-6.08 49.65-11.41 7.68-2.5 5.76-10.52-2.19-8.19-43.03 12.59-86.74 20.25-131.48 23.05.15 2.83.29 5.67.44 8.5 109.97-28.36 224.5-50.71 328.37-97.88 8.09-3.67.86-9.81-5.54-6.98-11.91 5.27-23.83 10.53-35.74 15.8 1.85 2.33 3.7 4.65 5.54 6.98 9.5-5.39 18.9-8.91 29.68-11.03l-3.87-7.59-29.64 12.15c-6.93 2.84-2.47 9.69 3.87 7.59 5.32-.85 10.64-1.7 15.96-2.56-.16-2.63-.31-5.27-.47-7.9-11.89 4.47-23.78 8.93-35.68 13.4-6.97 2.62-2.46 9.85 3.87 7.59 23.64-8.47 51.08-23.75 76.04-25.37 2.89-.19 6.47-1.94 7.17-4.99.12-.51.23-1.02.35-1.53.28-1.22-.6-2.33-1.5-2.98-.5-.37-1.01-.74-1.51-1.1-3.41-2.49-10.64-.08-11.52 4.14-.05.25-.1.5-.16.75-.99 4.7 7 4.09 9.28 2.91 41-21.19 82-42.39 123.01-63.58-1.85-2.33-3.7-4.65-5.54-6.98-13.35 7.48-26.71 14.96-40.06 22.44 2.32 2.05 4.65 4.1 6.97 6.15 12.69-7.63 25.39-12.17 39.99-14.33-.71-2.63-1.41-5.27-2.12-7.9-10.68 5.6-21.37 11.19-32.05 16.79 2.32 2.05 4.65 4.1 6.97 6.15 4.29-2.06 8.59-4.11 12.88-6.17-1.77-2.25-3.53-4.51-5.3-6.76-7.5 5.4-15 10.8-22.5 16.19-6.44 4.63 2.15 8.76 6.97 6.15 13.66-7.38 27.33-14.77 40.99-22.15 7.78-4.13.77-10.31-5.5-6.92z"/><path class="st0" d="m1338.62 274.19-49.44 14.4c2.59 1.39 5.19 2.77 7.78 4.16l1.23-5.95c.86-4.17-5.27-4.79-7.78-4.16-6.6 1.66-13.2 3.33-19.8 4.99 2.47 1.81 4.95 3.62 7.42 5.43 12.95-22.9 69.07-17.83 89.45-12.48 5.77 1.52 15.22-6.89 7.38-8.95-23.26-6.11-47.73-5.42-71.43-1.88-15.78 2.36-29.63 7.24-37.78 21.64-2.61 4.61 4.45 6.18 7.42 5.43 6.6-1.66 13.2-3.33 19.8-4.99-2.59-1.39-5.19-2.77-7.78-4.16l-1.23 5.95c-.85 4.1 5.26 4.89 7.78 4.16l49.44-14.4c7.92-2.29 5.52-11.51-2.46-9.19z"/><path class="st0" d="M1340.75 280c20.77-5.93 41.54-11.87 62.31-17.8 7.9-2.26 5.59-11.17-2.38-8.9-20.77 5.93-41.54 11.87-62.31 17.8-7.91 2.26-5.59 11.18 2.38 8.9z"/><path class="st1" d="M1370.47 277.16c2.75 0 7.08-.86 8.49-3.59 1.34-2.6-1.15-4.07-3.57-4.07-2.75 0-7.08.86-8.49 3.59-1.34 2.6 1.15 4.07 3.57 4.07z"/><path class="st0" d="M1308.91 299.33c35.6 7.13 70.76 3.62 104.37-10.01 8.31-3.37.78-8.11-5.2-5.68-29.54 11.98-60.13 14.66-91.35 8.41-4.34-.87-15.2 5.8-7.82 7.28z"/><path class="st0" d="M1327.94 296.25c36.32-2.62 71.63-9.4 106.31-20.53 7.83-2.51 5.43-11.98-2.53-9.43-33.53 10.76-67.67 17.41-102.8 19.94-7.45.55-9.75 10.65-.98 10.02z"/><path class="st0" d="M1362.18 285.05c10.39-3.71 20.77-7.42 31.16-11.13 2.11-.75 4.9-3.02 3.38-5.39-1.55-2.42-6.65-.93-8.57-.25-10.39 3.71-20.77 7.42-31.16 11.13-2.11.75-4.9 3.02-3.38 5.39 1.55 2.42 6.64.93 8.57.25zM1599.8 536.94c5.2-12.44 33.84-17.24 45.74-20.36 16.8-4.41 33.88-7.41 51.17-9 27.27-2.51 54.41-1.18 81.44 2.92 3.02.46 14.84-4.57 8.28-5.57-40.29-6.12-81.06-5.57-121.07 2.36a347.388 347.388 0 0 0-49.16 13.56c-10.75 3.84-24.39 6.86-29.15 18.24-1.04 2.5 11.3 1.32 12.75-2.15zM1672.04 450.12c26.43-21.15 59.64-22.79 92.12-21.81 31.59.95 64.4 2.52 92.48 18.54 3.58 2.04 14.75-3.22 12.05-4.76-33.76-19.26-74.67-20.46-112.73-20.39-33.67.06-67.17 5.55-94.06 27.07-5.45 4.37 7.35 3.58 10.14 1.35z"/><path class="st0" d="M1553.98 515.37c35.93-51.75 107.9-66.38 167.19-66.48 31.39-.05 62.69 4.67 92.71 13.84 26.23 8.01 61.3 18.64 72.08 46.48 3.5-1.63 6.99-3.26 10.49-4.89-27.32-5.68-35.92-46.79-58.24-62.13-23.54-16.18-52.9-19.35-80.69-17.3-69.43 5.12-139.89 28.34-203.82 54.81-8.36 3.46-.64 6.65 4.85 4.38 32.1-13.29 64.85-24.76 98.4-33.84 36.54-9.9 76.14-20.53 114.24-19.27 34.53 1.14 62.14 15.12 80.34 44.56 9.67 15.64 17.5 31.1 36.84 35.12 1.97.41 11.86-1.35 10.49-4.89-12.1-31.26-52.73-42.73-82-50.97-34.37-9.68-70.24-13.76-105.91-11.98-60.39 3.01-132.36 20.24-168.84 72.78-3.01 4.31 9.73 2.87 11.87-.22z"/><path class="st0" d="M1477.67 454.01c78.97-35.07 158.3-70.4 241.42-94.61 43.24-12.59 99-31.75 144.18-21.22 18.87 4.4 36.68 14.9 46.93 31.79 3.24 5.34 7.36 12.77 7.32 19.23 2.38 7.48-1.19 12.35-10.71 14.62-4.83-4.01-8.41-8.88-10.75-14.62-15.11-25.97-28.87-39.73-60.08-44.94-30.1-5.02-61.85-.88-91.73 3.44-67.27 9.74-132.24 31.33-190.66 66.26 3.28.07 6.56.14 9.83.22 94.35-62.94 215.1-73.23 319.36-29.2 2.8 1.18 14.01-3.24 12.17-4.33-85.21-50.74-194.23-47.54-278.09 4.47-5.27 3.27 7.53 1.65 9.83.22 78.09-48.44 177.61-47.09 256.08-.36 4.06-1.44 8.11-2.89 12.17-4.33-110.95-46.86-241.34-33.41-341.36 33.31-5.3 3.53 7.65 1.52 9.83.22 68.32-40.85 147.62-63.39 227.14-66.65 31.31-1.28 68.51 3.01 86.44 32.25 9.57 15.61 14.38 36.02 36.97 31.62 17.59-3.42 19.48-18.86 14.22-34.23-8-23.4-30.99-38.68-54.28-43.87-28.46-6.35-58.51-.64-86.55 5.11-30.59 6.28-60.77 14.36-90.56 23.7-77.67 24.35-152.21 57.42-226.5 90.41-7.72 3.41 4.39 2.81 7.38 1.49z"/><path class="st0" d="M1525.43 376.94c74.71-15.38 136.92-60.08 201.49-98.06 33.01-19.42 67.34-37.56 104.45-47.76 38.73-10.65 131.1-15.62 114.61 50.76l12.44-3.33c-31.77-48.14-93.85-41.84-143.32-32.57-64 11.98-125.56 33.91-184.41 61.49-8.05 3.77-.88 10.49 5.73 7.66 49.17-21.1 99.71-41.39 152.97-49.19 47.5-6.96 103.73-6.79 140.43 28.84 3.7 3.59 13.13 1.6 12.35-4.58-8.13-64.75-97.08-57.33-142.87-49.59-67.9 11.46-130.49 41.95-188.18 78.57-7.35 4.66 3.25 9.31 8.57 5.93 47.99-30.46 99.4-56.37 154.85-69.98 44.9-11.02 146.3-28.64 154.73 38.53 4.12-1.53 8.23-3.05 12.35-4.58-35.8-34.76-87.39-39.19-134.9-34.63-61.51 5.91-119.73 28.85-176.03 53.02 1.91 2.55 3.82 5.1 5.73 7.66 48.09-22.54 97.89-41.21 149.61-53.55 51.44-12.28 125.71-30.18 160.6 22.68 3 4.55 11.35 1.03 12.44-3.33 10.41-41.88-31.35-66.1-67.56-67.34-40.77-1.4-81.93 12.63-118.36 29.75-84.46 39.7-156.7 105.5-250.08 124.73-8.15 1.65-5.66 10.52 2.36 8.87z"/><path class="st0" d="M1470.47 300.18c59.95-30.21 121.93-56.12 185.76-76.97 60.99-19.92 160-60.34 205.05 7.33 4.17-1.32 8.34-2.64 12.51-3.97-32.8-41.79-102.26-35.24-148.3-25.55-59.63 12.55-114.08 41.92-162.75 77.86-5.43 4.01 7.66 2.02 9.94.61 47.79-29.62 100.63-50.11 156.21-59.13 26.48-4.3 53.43-6.15 80.25-5.26 21.25.7 49 3.87 55.52 27.97.83 3.08 13.74-.34 12.9-3.46-5.71-21.12-27.6-27.26-47.21-29.31-30.17-3.15-61.73-.52-91.63 3.82-62.55 9.08-122.31 31.51-175.97 64.76 3.31.2 6.62.4 9.94.61 42.73-31.56 90.06-58.69 142.04-71.39 45.32-11.07 114.25-18.68 146.94 22.95 1.98 2.52 13.73-2.14 12.51-3.97-40.79-61.27-123.65-36.75-181.25-19.9-79.31 23.2-156.18 53.83-229.97 91.01-7.61 3.85 4.29 3.62 7.51 1.99z"/><path class="st0" d="M1432.74 290.62c-5.17-22.84 38.61-41.24 54.96-50.85 20.62-12.12 41.8-23.29 63.48-33.39 42.65-19.87 87.14-35.74 132.72-47.4 46.28-11.84 93.72-19.33 141.42-22.1 45.88-2.67 111.42.09 120.29 57.54 4.3-1.15 8.6-2.3 12.9-3.46-7.66-34.62-52.11-37.32-80.71-39.69-41.21-3.41-82.73-3.33-123.85 1.19-81.36 8.93-160.5 36.3-224.4 88.4 3.68.21 7.35.43 11.03.64 42.05-48.54 106.05-66.88 166.27-81.77 69.59-17.2 145.83-23.31 207.88 19.03 2.9 1.98 15.3-1.78 12.04-4.8-65.64-60.83-180.2-42.25-258.01-20.09-46.78 13.32-89.95 34.22-132.21 57.97-50.24 28.23-100.41 58.23-158.43 66.43-.67 2.09-1.33 4.17-2 6.26 71.58-13.35 139.5-38.89 201.92-76.43 1.57-.95 4.04-3.12 1.3-4.41-4.75-2.23-9.51-4.46-14.26-6.68-3.36-1.58-15.21 3.52-10.39 5.78 4.75 2.23 9.51 4.46 14.26 6.68.43-1.47.87-2.94 1.3-4.41-59.41 35.73-123.95 60.49-192.13 73.2-5.63 1.05-11.12 7.55-2 6.26 89.96-12.71 160.19-72.9 242.03-106.9 51.05-21.21 105.77-33.52 160.99-36.16 48.08-2.29 98.85 3.25 135.59 37.3 4.01-1.6 8.03-3.2 12.04-4.8-63.52-43.34-141.75-38.56-213.37-21.71-66.43 15.63-138.42 36.01-184.71 89.44-3.65 4.21 9.19 2.14 11.03.64 58.76-47.91 130.42-73.6 205.18-82.79 34.79-4.28 70.01-5.1 105.01-3.25 30.28 1.6 87.27 0 95.71 38.14.84 3.82 13.54.68 12.9-3.46-8.02-51.92-64.6-62.47-108.52-61.49-56.4 1.26-112.98 9.99-167.57 23.96-53.49 13.69-105.49 33.05-154.96 57.58a766.296 766.296 0 0 0-77.1 44c-13.6 8.84-34.87 19.78-30.51 39.06.85 3.83 13.79.59 12.88-3.46zM1199.13 372.59c118.59 5.73 251.04 8.74 344.42-77.1 6.41-5.9-3.78-10.17-8.53-5.81-89.99 82.72-217.19 79.13-331.41 73.61-6.21-.3-13.19 8.88-4.48 9.3z"/><path class="st0" d="M1215.41 369.22c62.89 6.28 126.21 5.23 188.76-4.1 50.11-7.48 101.97-18.67 141.27-52.65 5.34-4.62-7.39-3.78-10.15-1.4-40.19 34.75-94.74 43.75-145.87 50.2-55.1 6.95-110.69 7.18-165.92 1.66-3.51-.34-14.98 5.6-8.09 6.29z"/><path class="st0" d="M1186.06 382.52c80.19 5.1 162.64 3.22 241.62-12.77 60.88-12.33 120.48-35.82 162.1-83.65 3.11-3.57-9.47-2.31-11.83.4-42.97 49.38-105.48 70.75-168.41 81.11-70.91 11.67-143.72 13.4-215.34 8.85-3.31-.22-14.87 5.63-8.14 6.06z"/><path class="st0" d="M1341.33 370.24c103.79-4.29 204.01-35.4 292.05-90.51 5.59-3.5-7.32-2.7-10.04-.99-83.42 52.21-178.32 81.5-276.63 85.56-3.91.16-13.93 6.29-5.38 5.94z"/><path class="st0" d="M1194.82 384.5c100.14 5.07 199.92-4.72 297.13-29.33 8.01-2.03 5.6-11.03-2.41-9-94.93 24.03-192.49 33.77-290.29 28.81-6.36-.32-13.13 9.08-4.43 9.52zM1108.86 422.77c119.94 54.19 254.92 108.26 384.87 54.08 8.25-3.44.8-8.48-5.27-5.95-124.23 51.8-255.26-3.12-369.43-54.71-4.13-1.86-15.83 4.03-10.17 6.58z"/><path class="st0" d="M1196.44 476.1c64.43 15.57 131.06 19.18 196.69 9.3 43.75-6.58 118.42-15.51 139.24-61.9 1.35-3-11.14-1.77-12.81 1.95-12.31 27.43-44.09 35.63-70.74 42.82-27.5 7.42-55.71 12.42-84.1 14.8-53.01 4.45-106.18-.08-157.85-12.57-3.4-.83-14.85 4.53-10.43 5.6z"/><path class="st0" d="M1175.68 470.9c100.97 19.55 212.07 37.48 303.31-22.81 7.27-4.8-3.78-6.99-8.09-4.14-86.29 57.02-192.21 38.12-287.39 19.69-4.33-.84-15.2 5.84-7.83 7.26z"/><path class="st0" d="M1192.67 487.03c63.74 2.54 127.36-1.59 190.1-13.28 50.87-9.47 101.18-24.83 138.86-61.97 5.71-5.63-6.72-7.75-10.78-3.75-37.97 37.42-90.87 50.31-141.86 58.97-56.77 9.64-114.32 13.01-171.84 10.72-6.2-.24-13.18 8.97-4.48 9.31z"/><path class="st0" d="M1115.36 429.88c79.32 12.07 159.3 17.12 239.51 15.02 4.76-.12 13.69-7.47 5.04-7.24-79.25 2.08-158.25-2.8-236.63-14.73-4.06-.61-15.15 5.85-7.92 6.95z"/><path class="st0" d="M1154.2 426.79c104.66 35.07 217.65 33 321.42-4.2 8.6-3.08.55-5.21-4.58-3.38-99.06 35.51-206.68 35.73-306.31 2.35-3.07-1.03-14.61 3.86-10.53 5.23z"/><path class="st0" d="M1161.48 476.23c68.36 16.32 138.97 21.06 208.77 12.06 54.5-7.03 115.87-19.01 151.69-64.64 5.04-6.42-7.15-8.44-10.79-3.8-36.05 45.92-101.65 55.48-156.21 60.87-62.32 6.16-125.15 1.36-186.01-13.17-5.55-1.33-15.25 6.82-7.45 8.68z"/><path class="st0" d="M1175.53 489.64c126.55 19.81 257.22-10.96 361.32-85.71 7.07-5.08-3.91-6.88-8.03-3.93-99.74 71.62-224.03 101.55-345.42 82.55-4.16-.66-15.16 5.94-7.87 7.09z"/><path class="st0" d="M1404.99 471.36c105.14-60.09 217.18-106.4 334.1-137.96 8-2.16 5.5-11.63-2.54-9.46-118.02 31.86-231.3 78.56-337.44 139.22-7.57 4.31-.72 11.97 5.88 8.2z"/><path class="st0" d="M1513.51 409.78c61.05-25.27 124.66-41.95 190.26-49.91 6.57-.8 10.43-9.03 1.54-7.95-67.92 8.25-133.9 25.58-197.12 51.75-8.24 3.41-.81 8.65 5.32 6.11z"/><path class="st0" d="M1418.74 468.05c95.54-18.88 185.58-56.73 265.49-112.48 7.13-4.97-3.96-6.46-7.96-3.67-76.97 53.7-163.6 90.98-255.72 109.18-5.97 1.18-10.69 8.73-1.81 6.97zM1127.26 523.43c111.52 31.84 230.43 58.56 342.4 13.9 8.42-3.36.63-6.41-4.81-4.24-106.64 42.54-221.31 14.88-327.18-15.34-3.45-.99-15.01 4.37-10.41 5.68z"/><path class="st1" d="M1597.55 533.4c2.91 0 7-.83 8.46-3.73 1.33-2.63-1.15-4.58-3.71-4.58-2.91 0-7 .83-8.46 3.73-1.33 2.63 1.15 4.58 3.71 4.58z"/><path class="st0" d="M1087.75 155.06c3.89-21.34-1.31-42.23-14.68-59.29-2.82-3.6-15.25.93-11.96 5.13 12.61 16.09 17.39 35.59 13.72 55.7-.94 5.12 12.08 3.04 12.92-1.54zM1091.09 131.44c3.95 5.66 9.26 9.69 15.47 12.57 5.08 2.35 14.88-4.95 7.54-8.36-4.58-2.12-8.31-5.67-11.17-9.77-3.16-4.52-15.51.3-11.84 5.56z"/><path class="st1" d="M1120.97 158.17c7.57 0 9.72-10.02.99-10.02-7.57 0-9.72 10.02-.99 10.02zM996.59 165.81c2.72 0 7.08-.87 8.5-3.56 1.37-2.59-1.16-3.94-3.54-3.94-2.72 0-7.08.87-8.5 3.56-1.36 2.58 1.17 3.94 3.54 3.94z"/><path class="st0" d="m964.78 169.29 13.35-2.25c2.76-.47 5.98-3.47 5.18-6.48-.91-3.39-4.99-3.48-7.72-3.02l-13.35 2.25c-2.76.47-5.98 3.47-5.18 6.48.91 3.38 4.99 3.48 7.72 3.02z"/><path class="st1" d="M1188.05 121.58c2.87 0 7-.85 8.47-3.68 1.37-2.62-1.17-4.38-3.65-4.38-2.87 0-7 .85-8.47 3.68-1.37 2.62 1.16 4.38 3.65 4.38zM229.33 569.59c2.91 0 6.72-.69 9.12-2.44 1.77-1.29 2.04-2.58-.69-2.58-2.91 0-6.72.69-9.12 2.44-1.77 1.29-2.04 2.58.69 2.58z"/><path class="st0" d="M213.99 576.37c-2.23 1.48-4.45 2.97-6.68 4.45-1.65 1.1-3.91 3.56-1.17 4.9 2.57 1.26 6.86.27 9.12-1.24 2.23-1.48 4.45-2.97 6.68-4.45 1.65-1.1 3.91-3.56 1.17-4.9-2.57-1.26-6.85-.27-9.12 1.24z"/><path class="st1" d="M200.04 609.16c2.93 0 7-.82 8.45-3.77 1.3-2.65-1.13-4.73-3.75-4.73-2.94 0-7 .82-8.45 3.77-1.3 2.64 1.13 4.73 3.75 4.73z"/><path class="st0" d="m213.82 591.9 24.48-11.13c1.72-.78 5.23-2.79 3.47-5.07-1.63-2.11-6.65-.92-8.52-.07l-24.48 11.13c-1.72.78-5.23 2.79-3.47 5.07 1.62 2.11 6.64.92 8.52.07zM288.55 557.18c2.97-1.48 5.93-2.97 8.9-4.45 1.4-.7 4.15-2.98 1.42-3.95-2.74-.97-6.61.27-9.06 1.49-2.97 1.48-5.93 2.97-8.9 4.45-1.4.7-4.15 2.98-1.42 3.95 2.74.97 6.6-.27 9.06-1.49z"/><path class="st1" d="M280.05 553.14c2.82 0 7-.87 8.49-3.61 1.41-2.59-1.21-4.13-3.59-4.13-2.82 0-7 .87-8.49 3.61-1.41 2.6 1.21 4.13 3.59 4.13z"/><path class="st0" d="M300.97 541.66c-1.48-.74-2.97-1.48-4.45-2.23-2.73-1.37-6.69-.37-9.14 1.17-1.77 1.12-3.86 3.78-1.1 5.16 1.48.74 2.97 1.48 4.45 2.23 2.73 1.37 6.69.37 9.14-1.17 1.78-1.12 3.87-3.78 1.1-5.16zM290.8 535.94c-5.19-3.71-10.39-7.42-15.58-11.13-2.04-1.46-6.24-.05-8.31.71-.77.28-5.71 2.37-3.83 3.71 5.19 3.71 10.39 7.42 15.58 11.13 2.04 1.46 6.24.05 8.31-.71.77-.29 5.71-2.37 3.83-3.71zM227.58 540.61l-68.99 11.13c-6.65 1.07-10.23 9.84-1.42 8.42l68.99-11.13c6.65-1.07 10.23-9.84 1.42-8.42z"/><path class="st1" d="M236.06 560.88c2.94 0 6.73-.56 9.12-2.44 1.7-1.34 2.02-2.97-.8-2.97-2.94 0-6.73.56-9.12 2.44-1.7 1.35-2.02 2.97.8 2.97zM222.06 559.33c2.5 0 7.26-.9 8.54-3.41 1.3-2.53-1.11-3.36-3.38-3.36-2.5 0-7.26.9-8.54 3.41-1.3 2.54 1.11 3.36 3.38 3.36zM186.35 587.88c2.36 0 7.3-.96 8.59-3.25 1.36-2.43-1.17-2.76-3.22-2.76-2.36 0-7.3.96-8.59 3.25-1.35 2.43 1.17 2.76 3.22 2.76zM257.38 642.73c7.15 0 10.08-8.88 1.3-8.88-7.16 0-10.09 8.88-1.3 8.88zM273.13 683.54c2.35 0 7.31-.96 8.59-3.23 1.36-2.42-1.17-2.7-3.2-2.7-2.35 0-7.31.96-8.59 3.23-1.36 2.41 1.17 2.7 3.2 2.7zM422.06 622.74c7.18 0 10.06-8.96 1.27-8.96-7.17 0-10.05 8.96-1.27 8.96z"/><path class="st0" d="M418.45 607.83c-.74 2.97-1.48 5.93-2.23 8.9-.74 2.97 3.82 3.48 5.71 3.28 2.68-.28 6.51-1.72 7.25-4.67.74-2.97 1.48-5.93 2.23-8.9.74-2.97-3.82-3.48-5.71-3.28-2.68.28-6.51 1.72-7.25 4.67z"/><path class="st1" d="M404.59 675.25c2.57 0 7.23-.88 8.52-3.49 1.27-2.57-1.08-3.67-3.46-3.67-2.57 0-7.23.88-8.52 3.49-1.27 2.57 1.08 3.67 3.46 3.67zM371.16 525.97c2.5 0 7.25-.9 8.54-3.41 1.3-2.53-1.1-3.38-3.39-3.38-2.5 0-7.25.9-8.54 3.41-1.29 2.53 1.11 3.38 3.39 3.38z"/><path class="st0" d="M352.65 520.08c-35.91 6.82-71.14 16-105.82 27.52-8.69 2.89-.54 4.95 4.55 3.26 32.44-10.78 65.38-19.31 98.96-25.69 5.24-.99 11.35-6.81 2.31-5.09zM296.98 507.3c-10.72 3.4-20.71 8.1-30.16 14.19-2.34 1.51-3.15 4.66-.75 6.46 2.64 1.98 6.79.75 9.23-.83 7.47-4.82 15.49-8.6 23.96-11.28 2.42-.77 6.14-2.87 5.31-6-.8-2.97-5.22-3.29-7.59-2.54z"/><path class="st1" d="M241.98 530.01c2.36 0 7.3-.96 8.59-3.24 1.36-2.42-1.17-2.74-3.21-2.74-2.36 0-7.3.96-8.59 3.24-1.36 2.43 1.17 2.74 3.21 2.74zM304.1 522.54c7.14 0 10.09-8.84 1.31-8.84-7.14 0-10.09 8.84-1.31 8.84z"/><path class="st0" d="M289.9 513.96c-5.19.74-10.39 1.48-15.58 2.23-2.56.37-6.8 1.71-7.22 4.8-.41 3 3.58 3.82 5.77 3.51 5.19-.74 10.39-1.48 15.58-2.23 2.56-.37 6.8-1.71 7.22-4.8.41-3-3.58-3.82-5.77-3.51zM327.51 501.91c-34.21 1.82-68.29 5.27-102.09 10.84-14.5 2.39-44.42.94-53.09 15.64-.2.49-.09.9.33 1.22.41.48.82.95 1.23 1.43 2.26 2.62 14.44-1.85 12.11-4.56 1.12 1.3 55.87-11.27 62.19-12.12 24.54-3.31 49.17-5.42 73.89-6.74 3.75-.19 13.95-6.16 5.43-5.71z"/><path class="st1" d="M224.34 546.17c2.57 0 7.23-.88 8.52-3.49 1.27-2.57-1.08-3.66-3.46-3.66-2.57 0-7.23.88-8.52 3.49-1.27 2.57 1.08 3.66 3.46 3.66zM257.7 583.94c2.54 0 7.24-.89 8.53-3.46 1.28-2.56-1.09-3.56-3.43-3.56-2.54 0-7.24.89-8.53 3.46-1.28 2.56 1.09 3.56 3.43 3.56z"/><path class="st0" d="M254.11 602.05c-3.71 9.64-7.42 19.29-11.13 28.93-2.6 6.75 10.31 6.37 12.28 1.27 3.71-9.64 7.42-19.29 11.13-28.93 2.59-6.75-10.32-6.38-12.28-1.27z"/><path class="st1" d="M250.83 656.56c7.51 0 9.78-9.84 1.04-9.84-7.51 0-9.78 9.84-1.04 9.84zM250.73 700.71c7.24 0 10-9.12 1.23-9.12-7.24 0-10 9.12-1.23 9.12zM293.23 737.19c2.43 0 7.28-.93 8.56-3.34 1.33-2.49-1.13-3.09-3.31-3.09-2.43 0-7.28.93-8.56 3.34-1.33 2.49 1.13 3.09 3.31 3.09zM404.41 745.75c2.32 0 7.32-.98 8.6-3.2 1.38-2.38-1.19-2.55-3.16-2.55-2.32 0-7.32.98-8.6 3.2-1.39 2.39 1.18 2.55 3.16 2.55z"/><path class="st1" d="M402.88 745.3c2.9 0 6.71-.76 9.12-2.44 1.8-1.26 2.04-2.38-.64-2.38-2.9 0-6.71.76-9.12 2.44-1.8 1.25-2.04 2.38.64 2.38zM395.54 641.28c2.36 0 7.3-.96 8.59-3.25 1.36-2.42-1.17-2.74-3.21-2.74-2.36 0-7.3.96-8.59 3.25-1.37 2.42 1.16 2.74 3.21 2.74zM395.57 694.84c2.41 0 7.29-.94 8.57-3.31 1.34-2.47-1.14-2.97-3.28-2.97-2.41 0-7.29.94-8.57 3.31-1.33 2.46 1.15 2.97 3.28 2.97zM451.47 747c2.9 0 7-.83 8.46-3.71 1.34-2.63-1.15-4.53-3.69-4.53-2.9 0-7 .83-8.46 3.71-1.34 2.63 1.15 4.53 3.69 4.53zM589.34 644.22c2.62 0 7.22-.86 8.51-3.54 1.25-2.6-1.06-3.88-3.52-3.88-2.62 0-7.22.86-8.51 3.54-1.25 2.6 1.06 3.88 3.52 3.88zM551.61 646.86c2.9 0 7-.83 8.46-3.71 1.34-2.63-1.15-4.53-3.69-4.53-2.9 0-7 .83-8.46 3.71-1.34 2.63 1.16 4.53 3.69 4.53z"/><path class="st0" d="M554.23 717.9c2.23 5.19 4.45 10.39 6.68 15.58 1.3 3.03 4.69 3.79 7.71 2.99 2.29-.61 6.48-3.41 5.19-6.44-2.23-5.19-4.45-10.39-6.68-15.58-1.3-3.03-4.69-3.79-7.71-2.99-2.3.62-6.49 3.41-5.19 6.44z"/><path class="st1" d="M587.67 761.16c2.94 0 6.73-.56 9.12-2.44 1.7-1.34 2.03-2.96-.79-2.96-2.94 0-6.73.56-9.12 2.44-1.71 1.34-2.03 2.96.79 2.96zM573.92 658.19c2.96 0 7-.81 8.44-3.8 1.28-2.65-1.12-4.85-3.78-4.85-2.96 0-7 .81-8.44 3.8-1.28 2.66 1.12 4.85 3.78 4.85z"/><path class="st0" d="M592.06 655.59c2.97 4.45 5.93 8.9 8.9 13.35 1.98 2.97 13.74-2.19 12.9-3.46-2.97-4.45-5.93-8.9-8.9-13.35-1.99-2.96-13.75 2.2-12.9 3.46z"/><path class="st1" d="M625.05 695.83c2.9 0 7-.83 8.46-3.72 1.34-2.63-1.15-4.55-3.7-4.55-2.9 0-7 .83-8.46 3.72-1.33 2.64 1.16 4.55 3.7 4.55zM596.07 751.26c2.84 0 7-.86 8.48-3.64 1.4-2.6-1.19-4.23-3.61-4.23-2.84 0-7 .86-8.48 3.64-1.4 2.61 1.19 4.23 3.61 4.23zM516.46 761.19c2.95 0 6.73-.54 9.12-2.44 1.69-1.35 2.02-3.02-.81-3.02-2.95 0-6.73.54-9.12 2.44-1.69 1.35-2.02 3.02.81 3.02zM449.63 698.63c2.91 0 6.72-.71 9.12-2.44 1.78-1.28 2.04-2.53-.68-2.53-2.91 0-6.72.71-9.12 2.44-1.77 1.29-2.03 2.53.68 2.53zM622.52 601.22c2.36 0 7.3-.96 8.59-3.24 1.36-2.42-1.17-2.73-3.21-2.73-2.36 0-7.3.96-8.59 3.24-1.36 2.42 1.17 2.73 3.21 2.73zM607.21 602.23c2.86 0 7-.85 8.48-3.66 1.38-2.61-1.18-4.33-3.64-4.33-2.86 0-7 .85-8.48 3.66-1.37 2.61 1.18 4.33 3.64 4.33zM555.83 599.27c2.45 0 7.27-.92 8.56-3.36 1.32-2.5-1.12-3.17-3.33-3.17-2.45 0-7.27.92-8.56 3.36-1.31 2.5 1.13 3.17 3.33 3.17z"/><path class="st1" d="M557.84 598.36c7.26 0 9.99-9.16 1.22-9.16-7.26 0-9.99 9.16-1.22 9.16zM587.63 603.01c2.92 0 6.72-.67 9.12-2.44 1.75-1.3 2.04-2.66-.71-2.66-2.92 0-6.72.67-9.12 2.44-1.76 1.3-2.04 2.66.71 2.66z"/><path class="st0" d="m624.36 582.11 6.68-6.68c2-2-1.79-2.05-3-1.94-2.65.23-6.65 1.04-8.64 3.04l-6.68 6.68c-2 2 1.79 2.05 3 1.94 2.64-.24 6.64-1.05 8.64-3.04z"/><path class="st1" d="M618.75 569.51c2.9 0 6.71-.75 9.12-2.44 1.8-1.26 2.04-2.41-.65-2.41-2.9 0-6.71.75-9.12 2.44-1.8 1.26-2.04 2.41.65 2.41zM651.56 566c2.49 0 7.26-.91 8.54-3.4 1.3-2.53-1.11-3.34-3.38-3.34-2.49 0-7.26.91-8.54 3.4-1.3 2.52 1.11 3.34 3.38 3.34zM687 571.98c7.5 0 9.79-9.81 1.05-9.81-7.5 0-9.79 9.81-1.05 9.81zM687.31 579.92c2.84 0 7-.86 8.48-3.64 1.39-2.6-1.19-4.24-3.61-4.24-2.84 0-7 .86-8.48 3.64-1.4 2.6 1.19 4.24 3.61 4.24zM785.65 582.84c2.89 0 6.71-.76 9.12-2.44 1.81-1.26 2.04-2.37-.64-2.37-2.89 0-6.71.76-9.12 2.44-1.81 1.25-2.04 2.37.64 2.37zM796.29 619.74c2.61 0 7.22-.86 8.51-3.54 1.25-2.59-1.06-3.86-3.52-3.86-2.61 0-7.22.86-8.51 3.54-1.24 2.59 1.07 3.86 3.52 3.86zM914.1 612.54c2.42 0 7.28-.93 8.57-3.32 1.33-2.48-1.14-3.04-3.29-3.04-2.42 0-7.28.93-8.57 3.32-1.34 2.48 1.13 3.04 3.29 3.04z"/></svg>